<svg preserveAspectRatio="none" width="100%" height="100%" overflow="visible" style="display: block;" viewBox="0 0 17.3333 18.1667" fill="none" xmlns="http://www.w3.org/2000/svg">
<g id="elements">
<path id="Vector" d="M13.6667 0.75V2.41667M3.66667 0.75V2.41667" stroke="var(--stroke-0, #007BFF)" stroke-width="1.5" stroke-linecap="round" stroke-linejoin="round"/>
<path id="Vector_2" d="M7.875 17.4167C4.51624 17.4167 2.83686 17.4167 1.79343 16.2886C0.750001 15.1606 0.750001 13.3451 0.750001 9.71396V9.28604C0.750001 5.65495 0.750001 3.8394 1.79343 2.71137C2.83686 1.58333 4.51624 1.58333 7.875 1.58333H9.45833C12.8171 1.58333 14.4965 1.58333 15.5399 2.71137C16.5637 3.81821 16.583 5.58698 16.5833 9.08333" stroke="var(--stroke-0, #007BFF)" stroke-width="1.5" stroke-linecap="round" stroke-linejoin="round"/>
<path id="Vector_3" d="M1.16667 5.75H16.1667" stroke="var(--stroke-0, #007BFF)" stroke-width="1.5" stroke-linecap="round" stroke-linejoin="round"/>
<path id="Vector_4" d="M10.75 11.5833L13.6667 14.5M13.6667 14.5L16.5833 17.4167M13.6667 14.5L16.5833 11.5833M13.6667 14.5L10.75 17.4167" stroke="var(--stroke-0, #007BFF)" stroke-width="1.5" stroke-linecap="round" stroke-linejoin="round"/>
</g>
</svg>
