<svg preserveAspectRatio="none" width="100%" height="100%" overflow="visible" style="display: block;" viewBox="0 0 19.5 21.5003" fill="none" xmlns="http://www.w3.org/2000/svg">
<g id="elements">
<path id="Vector" d="M9.25 20.75C5.24306 20.75 3.23959 20.75 1.9948 19.2855C0.750001 17.8211 0.75 15.464 0.75 10.75C0.75 6.03596 0.75 3.67893 1.9948 2.21447C3.23959 0.750002 5.24306 0.750001 9.25 0.750001C13.2569 0.750001 15.2604 0.750001 16.5052 2.21447C17.5072 3.39332 17.7027 5.15054 17.7408 8.25" stroke="var(--stroke-0, #94A3B8)" stroke-width="1.5" stroke-linecap="round" stroke-linejoin="round"/>
<path id="Vector_2" d="M5.75 6.75034H12.75M5.75 11.7503H8.75" stroke="var(--stroke-0, #94A3B8)" stroke-width="1.5" stroke-linecap="round" stroke-linejoin="round"/>
<path id="Vector_3" d="M17.3592 16.8557C18.2021 16.2421 18.75 15.2477 18.75 14.1253C18.75 12.2614 17.239 10.7503 15.375 10.7503H15.125C13.261 10.7503 11.75 12.2614 11.75 14.1253C11.75 15.2477 12.2979 16.2421 13.1408 16.8557M17.3592 16.8557C16.8023 17.2612 16.1166 17.5003 15.375 17.5003H15.125C14.3834 17.5003 13.6977 17.2612 13.1408 16.8557M17.3592 16.8557L17.942 18.6908C18.1643 19.3906 18.2755 19.7406 18.2451 19.9585C18.1818 20.4121 17.8119 20.7487 17.3752 20.7503C17.1654 20.7511 16.851 20.5861 16.2223 20.2562C15.9527 20.1147 15.8179 20.044 15.68 20.0024C15.399 19.9176 15.101 19.9176 14.82 20.0024C14.6821 20.044 14.5473 20.1147 14.2777 20.2562C13.649 20.5861 13.3346 20.7511 13.1248 20.7503C12.6881 20.7487 12.3182 20.4121 12.2549 19.9585C12.2245 19.7406 12.3357 19.3906 12.558 18.6908L13.1408 16.8557" stroke="var(--stroke-0, #94A3B8)" stroke-width="1.5"/>
</g>
</svg>
