<svg preserveAspectRatio="none" width="100%" height="100%" overflow="visible" style="display: block;" viewBox="0 0 21.5 21.5" fill="none" xmlns="http://www.w3.org/2000/svg">
<g id="elements">
<path id="Vector" d="M0.75 13.25C0.75 9.96252 0.75 8.31878 1.65796 7.21243C1.82418 7.00989 2.00989 6.82418 2.21243 6.65796C3.31878 5.75 4.96252 5.75 8.25 5.75H13.25C16.5375 5.75 18.1812 5.75 19.2876 6.65796C19.4901 6.82418 19.6758 7.00989 19.842 7.21243C20.75 8.31878 20.75 9.96252 20.75 13.25C20.75 16.5375 20.75 18.1812 19.842 19.2876C19.6758 19.4901 19.4901 19.6758 19.2876 19.842C18.1812 20.75 16.5375 20.75 13.25 20.75H8.25C4.96252 20.75 3.31878 20.75 2.21243 19.842C2.00989 19.6758 1.82418 19.4901 1.65796 19.2876C0.75 18.1812 0.75 16.5375 0.75 13.25Z" stroke="var(--stroke-0, #007BFF)" stroke-width="1.5" stroke-linecap="round"/>
<path id="Vector_2" d="M10.75 5.75V3.75C10.75 3.19772 11.1977 2.75 11.75 2.75C12.3023 2.75 12.75 2.30228 12.75 1.75V0.75" stroke="var(--stroke-0, #007BFF)" stroke-width="1.5" stroke-linecap="round" stroke-linejoin="round"/>
<path id="Vector_3" d="M8.75 14.75L7.25 13.25M7.25 13.25L5.75 11.75M7.25 13.25L5.75 14.75M7.25 13.25L8.75 11.75" stroke="var(--stroke-0, #007BFF)" stroke-width="1.5" stroke-linecap="round"/>
<path id="Vector_4" d="M15.75 14.25L15.75 12.25" stroke="var(--stroke-0, #007BFF)" stroke-width="1.5" stroke-linecap="round" stroke-linejoin="round"/>
</g>
</svg>
