<svg preserveAspectRatio="none" width="100%" height="100%" overflow="visible" style="display: block;" viewBox="0 0 10.9615 12.5769" fill="none" xmlns="http://www.w3.org/2000/svg">
<g id="elements">
<path id="Vector" d="M8.36539 0.461538V1.61538M5.48077 0.461538V1.61538M2.59615 0.461538V1.61538" stroke="var(--stroke-0, white)" stroke-width="0.923077" stroke-linecap="round" stroke-linejoin="round"/>
<path id="Vector_2" d="M0.576924 5.07692C0.576924 3.17317 0.576924 2.2213 1.16834 1.62988C1.75976 1.03846 2.71164 1.03846 4.61539 1.03846H6.34615C8.2499 1.03846 9.20178 1.03846 9.7932 1.62988C10.3846 2.2213 10.3846 3.17317 10.3846 5.07692V7.96154C10.3846 9.86529 10.3846 10.8172 9.7932 11.4086C9.20178 12 8.2499 12 6.34615 12H4.61539C2.71164 12 1.75976 12 1.16834 11.4086C0.576924 10.8172 0.576924 9.86529 0.576924 7.96154V5.07692Z" stroke="var(--stroke-0, white)" stroke-width="1.15385" stroke-linecap="round" stroke-linejoin="round"/>
<path id="Vector_3" d="M3.17308 7.96154H5.48077M3.17308 5.07692H7.78846" stroke="var(--stroke-0, white)" stroke-width="1.15385" stroke-linecap="round"/>
</g>
</svg>
