<svg preserveAspectRatio="none" width="100%" height="100%" overflow="visible" style="display: block;" viewBox="0 0 16.5 18.1667" fill="none" xmlns="http://www.w3.org/2000/svg">
<g id="elements">
<path id="Vector" d="M2.54864 8.65918C2.48741 9.82251 2.5578 11.0608 1.51844 11.8403C1.0347 12.2031 0.75 12.7725 0.75 13.3772C0.75 14.209 1.4015 14.9167 2.25 14.9167H14.25C15.0985 14.9167 15.75 14.209 15.75 13.3772C15.75 12.7725 15.4653 12.2031 14.9816 11.8403C13.9422 11.0608 14.0126 9.82251 13.9514 8.65918C13.7918 5.62686 11.2865 3.25 8.25 3.25C5.21348 3.25 2.70824 5.62685 2.54864 8.65918Z" stroke="var(--stroke-0, #0F172A)" stroke-width="1.5" stroke-linecap="round" stroke-linejoin="round"/>
<path id="Vector_2" d="M7 1.6875C7 2.37786 7.55964 3.25 8.25 3.25C8.94036 3.25 9.5 2.37786 9.5 1.6875C9.5 0.997144 8.94036 0.75 8.25 0.75C7.55964 0.75 7 0.997144 7 1.6875Z" stroke="var(--stroke-0, #141B34)" stroke-width="1.5"/>
<path id="Vector_3" d="M10.75 14.9167C10.75 16.2974 9.63071 17.4167 8.25 17.4167C6.86929 17.4167 5.75 16.2974 5.75 14.9167" stroke="var(--stroke-0, #141B34)" stroke-width="1.5" stroke-linecap="round" stroke-linejoin="round"/>
</g>
</svg>
