<svg preserveAspectRatio="none" width="100%" height="100%" overflow="visible" style="display: block;" viewBox="0 0 18.167 16.5" fill="none" xmlns="http://www.w3.org/2000/svg">
<g id="elements">
<path id="Vector" d="M17.4168 7.83333V3.34498C17.4168 2.68583 17.4168 2.35625 17.2551 2.01639C17.1628 1.82254 16.9527 1.55886 16.7843 1.42566C16.4892 1.1921 16.2428 1.13567 15.7502 1.02283C14.9838 0.84729 14.1384 0.75 13.2502 0.75C11.6526 0.75 10.1939 1.0647 9.0835 1.58333C7.97305 2.10197 6.51439 2.41667 4.91683 2.41667C4.02857 2.41667 3.18324 2.31938 2.41683 2.14384C1.61686 1.96061 0.750167 2.52429 0.750167 3.34498V12.3217C0.750167 12.9808 0.750167 13.3104 0.91193 13.6503C1.00419 13.8441 1.2143 14.1078 1.38265 14.241C1.67783 14.4746 1.92416 14.531 2.41683 14.6438C3.18324 14.8194 4.02857 14.9167 4.91683 14.9167C6.14087 14.9167 7.28336 14.7319 8.25017 14.4123" stroke="var(--stroke-0, #007BFF)" stroke-width="1.5" stroke-linecap="round"/>
<path id="Vector_2" d="M10.7502 14.0833C10.7502 14.0833 11.5835 14.0833 12.4168 15.75C12.4168 15.75 15.0639 11.5833 17.4168 10.75" stroke="var(--stroke-0, #007BFF)" stroke-width="1.5" stroke-linecap="round" stroke-linejoin="round"/>
<path id="Vector_3" d="M11.1668 7.83333C11.1668 8.98393 10.2341 9.91667 9.0835 9.91667C7.93291 9.91667 7.00017 8.98393 7.00017 7.83333C7.00017 6.68274 7.93291 5.75 9.0835 5.75C10.2341 5.75 11.1668 6.68274 11.1668 7.83333Z" stroke="var(--stroke-0, #007BFF)" stroke-width="1.5"/>
<path id="Vector_4" d="M3.66683 8.66667L3.66683 8.67415" stroke="var(--stroke-0, #007BFF)" stroke-width="2" stroke-linecap="round" stroke-linejoin="round"/>
<path id="Vector_5" d="M14.5002 6.99349L14.5002 7.00097" stroke="var(--stroke-0, #007BFF)" stroke-width="2" stroke-linecap="round" stroke-linejoin="round"/>
</g>
</svg>
