<svg preserveAspectRatio="none" width="100%" height="100%" overflow="visible" style="display: block;" viewBox="0 0 69.8323 70.3447" fill="none" xmlns="http://www.w3.org/2000/svg">
<path id="Ellipse 13" d="M34.5799 3.36519C34.5799 1.41826 36.1621 -0.17831 38.0994 0.0160591C43.6732 0.575305 49.0516 2.45708 53.7781 5.52618C59.4934 9.23732 64.0106 14.5254 66.783 20.7505C69.5554 26.9755 70.4641 33.8707 69.3991 40.6015C68.3342 47.3322 65.3412 53.6101 60.7825 58.6752C56.2238 63.7403 50.2947 67.3756 43.7129 69.1411C37.1311 70.9066 30.1786 70.7265 23.697 68.6228C17.2153 66.5191 11.4823 62.5818 7.19187 57.2876C3.64366 52.9092 1.20781 47.758 0.06668 42.2737C-0.329927 40.3676 1.09176 38.6265 3.02795 38.4221V38.4221C4.96413 38.2178 6.67741 39.6302 7.12155 41.5258C8.08917 45.6556 9.97984 49.5296 12.6695 52.8485C16.1018 57.0839 20.6882 60.2337 25.8735 61.9167C31.0589 63.5997 36.6208 63.7437 41.8863 62.3313C47.1518 60.919 51.895 58.0107 55.542 53.9586C59.1889 49.9065 61.5833 44.8843 62.4353 39.4996C63.2872 34.115 62.5603 28.5989 60.3424 23.6189C58.1245 18.6388 54.5107 14.4083 49.9385 11.4394C46.3556 9.11296 42.3046 7.6393 38.096 7.11046C36.1643 6.86772 34.5799 5.31213 34.5799 3.36519V3.36519Z" fill="var(--fill-0, #007BFF)"/>
</svg>
