<svg preserveAspectRatio="none" width="100%" height="100%" overflow="visible" style="display: block;" viewBox="0 0 79.8803 85.1976" fill="none" xmlns="http://www.w3.org/2000/svg">
<path id="Ellipse 7" d="M0.294709 8.11378C-0.587574 5.79557 0.572895 3.18367 2.95069 2.47755C13.0264 -0.514564 23.7405 -0.809213 34.0105 1.66268C45.7398 4.48583 56.3429 10.786 64.4308 19.7378C72.5186 28.6896 77.714 39.8755 79.3363 51.8303C80.7568 62.2976 79.38 72.9269 75.3841 82.6484C74.4411 84.9425 71.7252 85.8329 69.5081 84.7206V84.7206C67.291 83.6084 66.4156 80.9151 67.3281 78.6087C70.5299 70.516 71.6125 61.7117 70.4355 53.0382C69.0565 42.8766 64.6404 33.3686 57.7658 25.7595C50.8911 18.1505 41.8784 12.7954 31.9085 10.3957C23.3985 8.34743 14.5299 8.53393 6.15485 10.9008C3.76792 11.5754 1.17699 10.432 0.294709 8.11378V8.11378Z" fill="var(--fill-0, #F1F5F9)"/>
</svg>
