<svg preserveAspectRatio="none" width="100%" height="100%" overflow="visible" style="display: block;" viewBox="0 0 40.1204 79.6047" fill="none" xmlns="http://www.w3.org/2000/svg">
<path id="Ellipse 8" d="M10.3034 79.1333C8.08325 80.2393 5.36986 79.3415 4.43324 77.0447C1.86421 70.7448 0.383333 64.0427 0.0651197 57.2247C-0.323012 48.9086 1.0271 40.603 4.02926 32.8381C7.03143 25.0732 11.6197 18.0195 17.5011 12.1275C22.323 7.29684 27.9273 3.33402 34.0661 0.400877C36.3042 -0.668483 38.9159 0.492492 39.8145 2.8044V2.8044C40.7132 5.11632 39.5564 7.70123 37.3327 8.80012C32.3516 11.2616 27.7978 14.5267 23.8584 18.4733C18.8591 23.4815 14.9591 29.4771 12.4073 36.0773C9.85546 42.6775 8.70786 49.7373 9.03777 56.8059C9.29775 62.3761 10.4707 67.8554 12.5004 73.0274C13.4066 75.3364 12.5236 78.0272 10.3034 79.1333V79.1333Z" fill="var(--fill-0, #FF6B35)"/>
</svg>
