<svg preserveAspectRatio="none" width="100%" height="100%" overflow="visible" style="display: block;" viewBox="0 0 12 21.9659" fill="none" xmlns="http://www.w3.org/2000/svg">
<path id="Ellipse 1588" d="M1.28789e-07 1.14553C1.36692e-07 0.482785 0.538612 -0.0606936 1.19804 0.00546588C3.42396 0.228788 5.55191 1.07114 7.33502 2.44829C9.43591 4.07087 10.9395 6.34427 11.6104 8.91261C12.2813 11.481 12.0817 14.1993 11.0428 16.642C10.161 18.7153 8.71689 20.4908 6.88457 21.7742C6.34174 22.1544 5.60614 21.9438 5.28201 21.3657V21.3657C4.95788 20.7877 5.16933 20.062 5.70248 19.6683C7.07596 18.6542 8.16035 17.2872 8.83422 15.7027C9.66535 13.7485 9.82505 11.5739 9.28832 9.51919C8.75159 7.46452 7.54872 5.6458 5.86801 4.34774C4.50534 3.2953 2.89091 2.63328 1.1969 2.42042C0.539334 2.33779 1.20886e-07 1.80827 1.28789e-07 1.14553V1.14553Z" fill="var(--fill-0, #007BFF)"/>
</svg>
