<svg preserveAspectRatio="none" width="100%" height="100%" overflow="visible" style="display: block;" viewBox="0 0 10.9542 10.9542" fill="none" xmlns="http://www.w3.org/2000/svg">
<g id="elements">
<path id="Vector" d="M7.03212 0.759136C6.54297 0.598003 6.02022 0.510822 5.4771 0.510822C2.7343 0.510822 0.510818 2.7343 0.510818 5.47711C0.510818 8.21991 2.7343 10.4434 5.4771 10.4434C8.2199 10.4434 10.4434 8.21991 10.4434 5.47711C10.4434 4.95803 10.3638 4.45755 10.216 3.98722" stroke="var(--stroke-0, #334155)" stroke-width="1.02164" stroke-linecap="round"/>
<path id="Vector_2" d="M7.96024 5.47711C7.96024 6.84851 6.8485 7.96025 5.4771 7.96025C4.1057 7.96025 2.99396 6.84851 2.99396 5.47711C2.99396 4.1057 4.1057 2.99396 5.4771 2.99396" stroke="var(--stroke-0, #334155)" stroke-width="1.02164" stroke-linecap="round" stroke-linejoin="round"/>
<path id="Vector_3" d="M9.20182 1.75239L5.4771 5.47711M9.20182 1.75239V0.510818M9.20182 1.75239H10.4434" stroke="var(--stroke-0, #334155)" stroke-width="1.02164" stroke-linecap="round"/>
</g>
</svg>
