<svg preserveAspectRatio="none" width="100%" height="100%" overflow="visible" style="display: block;" viewBox="0 0 95.7385 75.0714" fill="none" xmlns="http://www.w3.org/2000/svg">
<path id="Ellipse 15" d="M94.6334 56.9593C96.2472 58.7721 96.0951 61.5647 94.1665 63.0382C85.1931 69.8939 74.4007 74.0304 63.0791 74.8994C50.2925 75.8809 37.5371 72.6405 26.7695 65.6752C16.0018 58.7098 7.81655 48.4044 3.46933 36.3395C-0.379849 25.6569 -1.0318 14.1174 1.54213 3.12199C2.09533 0.758815 4.58005 -0.52488 6.89515 0.203817V0.203817C9.21024 0.932515 10.4759 3.39771 9.954 5.76801C7.93896 14.9201 8.54124 24.4878 11.7381 33.3601C15.4333 43.6152 22.3907 52.3749 31.5432 58.2954C40.6957 64.2159 51.5378 66.9703 62.4064 66.136C71.8094 65.4143 80.7829 62.0409 88.3043 56.4507C90.2522 55.0029 93.0196 55.1465 94.6334 56.9593V56.9593Z" fill="var(--fill-0, #FF6B35)"/>
</svg>
