<svg preserveAspectRatio="none" width="100%" height="100%" overflow="visible" style="display: block;" viewBox="0 0 58.5946 98.0437" fill="none" xmlns="http://www.w3.org/2000/svg">
<path id="Ellipse 13" d="M6.46329e-07 4.24148C6.75271e-07 1.81441 1.97032 -0.170267 4.39057 0.0115779C14.4331 0.766122 24.1387 4.09935 32.5534 9.72185C42.1892 16.1603 49.6995 25.3115 54.1343 36.0183C58.5692 46.7251 59.7296 58.5065 57.4687 69.8727C55.4944 79.7985 50.9884 89.0184 44.4208 96.6531C42.838 98.493 40.0414 98.4829 38.3252 96.7667V96.7667C36.609 95.0505 36.626 92.2795 38.1843 90.4187C43.5354 84.0289 47.2133 76.3783 48.8484 68.158C50.7702 58.4967 49.7838 48.4825 46.0142 39.3818C42.2445 30.281 35.8609 22.5025 27.6704 17.0298C20.7016 12.3734 12.6911 9.56422 4.38903 8.82981C1.97141 8.61594 6.17386e-07 6.66854 6.46329e-07 4.24148V4.24148Z" fill="var(--fill-0, #007BFF)"/>
</svg>
