<svg preserveAspectRatio="none" width="100%" height="100%" overflow="visible" style="display: block;" viewBox="0 0 16 16" fill="none" xmlns="http://www.w3.org/2000/svg">
<g id="famicons:warning">
<path id="Vector" d="M14.034 12.4712L8.70803 2.58062C8.33053 1.87937 7.3249 1.87937 6.94709 2.58062L1.62146 12.4712C1.5395 12.6235 1.4984 12.7944 1.50219 12.9672C1.50598 13.1401 1.55452 13.309 1.64308 13.4575C1.73164 13.606 1.85718 13.729 2.00747 13.8145C2.15775 13.9 2.32763 13.9451 2.50052 13.9453H13.1533C13.3264 13.9453 13.4964 13.9005 13.6469 13.8151C13.7974 13.7297 13.9232 13.6067 14.0119 13.4582C14.1007 13.3096 14.1494 13.1406 14.1532 12.9676C14.1571 12.7946 14.116 12.6236 14.034 12.4712ZM7.82771 12.4141C7.7041 12.4141 7.58326 12.3774 7.48048 12.3087C7.3777 12.2401 7.29759 12.1424 7.25029 12.0282C7.20298 11.914 7.19061 11.7884 7.21472 11.6671C7.23884 11.5459 7.29836 11.4345 7.38577 11.3471C7.47318 11.2597 7.58454 11.2002 7.70578 11.1761C7.82702 11.152 7.95269 11.1643 8.06689 11.2116C8.18109 11.2589 8.27871 11.339 8.34738 11.4418C8.41606 11.5446 8.45271 11.6654 8.45271 11.7891C8.45271 11.9548 8.38686 12.1138 8.26965 12.231C8.15244 12.3482 7.99347 12.4141 7.82771 12.4141ZM8.50646 6.12813L8.32709 9.94063C8.32709 10.0732 8.27441 10.2004 8.18064 10.2942C8.08687 10.3879 7.9597 10.4406 7.82709 10.4406C7.69448 10.4406 7.5673 10.3879 7.47353 10.2942C7.37977 10.2004 7.32709 10.0732 7.32709 9.94063L7.14771 6.12969C7.14368 6.03862 7.15803 5.94768 7.18989 5.86227C7.22176 5.77687 7.27049 5.69875 7.33319 5.63259C7.39589 5.56642 7.47126 5.51355 7.55483 5.47713C7.6384 5.44072 7.72844 5.4215 7.81959 5.42063H7.82615C7.91792 5.42058 8.00875 5.43912 8.09316 5.47515C8.17757 5.51117 8.2538 5.56392 8.31726 5.63021C8.38072 5.6965 8.43009 5.77497 8.4624 5.86087C8.4947 5.94676 8.50926 6.03832 8.50521 6.13L8.50646 6.12813Z" fill="var(--fill-0, #FBBF24)"/>
</g>
</svg>
