<svg preserveAspectRatio="none" width="100%" height="100%" overflow="visible" style="display: block;" viewBox="0 0 18.1667 18.1667" fill="none" xmlns="http://www.w3.org/2000/svg">
<g id="elements">
<path id="Vector" d="M2.41667 12.8334C2.41667 14.2141 3.53595 15.3334 4.91667 15.3334C4.91667 16.484 5.84941 17.4167 7 17.4167C8.15059 17.4167 9.08333 16.484 9.08333 15.3334C9.08333 16.484 10.0161 17.4167 11.1667 17.4167C12.3173 17.4167 13.25 16.4839 13.25 15.3333C14.6307 15.3333 15.75 14.214 15.75 12.8333C15.75 12.3595 15.6181 11.9164 15.3891 11.5388C16.5439 11.3179 17.4167 10.3025 17.4167 9.08333C17.4167 7.86415 16.5439 6.8488 15.3891 6.62792C15.6182 6.25031 15.75 5.80722 15.75 5.33333C15.75 3.95262 14.6307 2.83333 13.25 2.83333C13.25 1.68274 12.3173 0.75 11.1667 0.75C10.0161 0.75 9.08333 1.68282 9.08333 2.83341C9.08333 1.68282 8.15059 0.750079 7 0.750079C5.84941 0.750079 4.91667 1.68282 4.91667 2.83341C3.53595 2.83341 2.41667 3.9527 2.41667 5.33341C2.41667 5.8073 2.54852 6.25038 2.77753 6.62799C1.62272 6.84887 0.75 7.86422 0.75 9.08341C0.75 10.3026 1.62272 11.318 2.77753 11.5388C2.54852 11.9164 2.41667 12.3595 2.41667 12.8334Z" stroke="url(#paint0_linear_0_176)" stroke-width="1.5" stroke-linecap="round" stroke-linejoin="round"/>
<path id="Vector_2" d="M5.33333 11.1668L6.86824 6.56205C6.94693 6.32599 7.16784 6.16676 7.41667 6.16676C7.6655 6.16676 7.88641 6.32599 7.9651 6.56205L9.5 11.1668M12 6.16676V11.1668M6.16667 9.50009H8.66667" stroke="url(#paint1_linear_0_176)" stroke-width="1.5" stroke-linecap="round" stroke-linejoin="round"/>
</g>
<defs>
<linearGradient id="paint0_linear_0_176" x1="0.75" y1="9.08337" x2="17.4167" y2="9.08337" gradientUnits="userSpaceOnUse">
<stop stop-color="#007BFF"/>
<stop offset="1" stop-color="#00B7B7"/>
</linearGradient>
<linearGradient id="paint1_linear_0_176" x1="5.33333" y1="8.66676" x2="12" y2="8.66676" gradientUnits="userSpaceOnUse">
<stop stop-color="#007BFF"/>
<stop offset="1" stop-color="#00B7B7"/>
</linearGradient>
</defs>
</svg>
