<svg width="342" height="48" viewBox="0 0 342 48" fill="none" xmlns="http://www.w3.org/2000/svg">
<path d="M0 6.4C0 4.15979 0 3.03969 0.435974 2.18404C0.819467 1.43139 1.43139 0.819467 2.18404 0.435974C3.03969 0 4.15979 0 6.4 0H335.6C337.84 0 338.96 0 339.816 0.435974C340.569 0.819467 341.181 1.43139 341.564 2.18404C342 3.03969 342 4.15979 342 6.4V41.6C342 43.8402 342 44.9603 341.564 45.816C341.181 46.5686 340.569 47.1805 339.816 47.564C338.96 48 337.84 48 335.6 48H6.39999C4.15979 48 3.03969 48 2.18404 47.564C1.43139 47.1805 0.819467 46.5686 0.435974 45.816C0 44.9603 0 43.8402 0 41.6V6.4Z" fill="white"/>
<path d="M101.148 30V18.3636H105.602C106.443 18.3636 107.142 18.4962 107.699 18.7614C108.259 19.0227 108.678 19.3807 108.955 19.8352C109.235 20.2898 109.375 20.8049 109.375 21.3807C109.375 21.8542 109.284 22.2595 109.102 22.5966C108.92 22.9299 108.676 23.2008 108.369 23.4091C108.062 23.6174 107.72 23.767 107.341 23.858V23.9716C107.754 23.9943 108.15 24.1212 108.528 24.3523C108.911 24.5795 109.223 24.9015 109.466 25.3182C109.708 25.7348 109.83 26.2386 109.83 26.8295C109.83 27.4318 109.684 27.9735 109.392 28.4545C109.1 28.9318 108.661 29.3087 108.074 29.5852C107.487 29.8617 106.748 30 105.858 30H101.148ZM103.256 28.2386H105.523C106.288 28.2386 106.839 28.0928 107.176 27.8011C107.517 27.5057 107.688 27.1269 107.688 26.6648C107.688 26.3201 107.602 26.0095 107.432 25.733C107.261 25.4527 107.019 25.233 106.705 25.0739C106.39 24.911 106.015 24.8295 105.58 24.8295H103.256V28.2386ZM103.256 23.3125H105.341C105.705 23.3125 106.032 23.2462 106.324 23.1136C106.616 22.9773 106.845 22.786 107.011 22.5398C107.182 22.2898 107.267 21.9943 107.267 21.6534C107.267 21.2027 107.108 20.8314 106.79 20.5398C106.475 20.2481 106.008 20.1023 105.386 20.1023H103.256V23.3125ZM117.023 26.3295V21.2727H119.08V30H117.085V28.4489H116.995C116.798 28.9375 116.474 29.3371 116.023 29.6477C115.576 29.9583 115.025 30.1136 114.37 30.1136C113.798 30.1136 113.292 29.9867 112.852 29.733C112.417 29.4754 112.076 29.1023 111.83 28.6136C111.584 28.1212 111.46 27.5265 111.46 26.8295V21.2727H113.517V26.5114C113.517 27.0644 113.669 27.5038 113.972 27.8295C114.275 28.1553 114.673 28.3182 115.165 28.3182C115.468 28.3182 115.762 28.2443 116.046 28.0966C116.33 27.9489 116.563 27.7292 116.745 27.4375C116.93 27.142 117.023 26.7727 117.023 26.3295ZM121.083 30V21.2727H123.14V30H121.083ZM122.117 20.0341C121.791 20.0341 121.511 19.9261 121.276 19.7102C121.041 19.4905 120.924 19.2273 120.924 18.9205C120.924 18.6098 121.041 18.3466 121.276 18.1307C121.511 17.911 121.791 17.8011 122.117 17.8011C122.446 17.8011 122.727 17.911 122.958 18.1307C123.193 18.3466 123.31 18.6098 123.31 18.9205C123.31 19.2273 123.193 19.4905 122.958 19.7102C122.727 19.9261 122.446 20.0341 122.117 20.0341ZM127.2 18.3636V30H125.143V18.3636H127.2ZM132.441 30.1534C131.756 30.1534 131.142 29.9773 130.6 29.625C130.059 29.2727 129.631 28.7614 129.316 28.0909C129.002 27.4205 128.845 26.6061 128.845 25.6477C128.845 24.678 129.004 23.8598 129.322 23.1932C129.644 22.5227 130.078 22.017 130.623 21.6761C131.168 21.3314 131.776 21.1591 132.447 21.1591C132.958 21.1591 133.379 21.2462 133.708 21.4205C134.038 21.5909 134.299 21.7973 134.492 22.0398C134.686 22.2784 134.835 22.5038 134.941 22.7159H135.026V18.3636H137.089V30H135.066V28.625H134.941C134.835 28.8371 134.682 29.0625 134.481 29.3011C134.28 29.536 134.015 29.7367 133.686 29.9034C133.356 30.0701 132.941 30.1534 132.441 30.1534ZM133.015 28.4659C133.451 28.4659 133.822 28.3485 134.129 28.1136C134.436 27.875 134.668 27.5436 134.828 27.1193C134.987 26.6951 135.066 26.2008 135.066 25.6364C135.066 25.072 134.987 24.5814 134.828 24.1648C134.672 23.7481 134.441 23.4242 134.134 23.1932C133.831 22.9621 133.458 22.8466 133.015 22.8466C132.557 22.8466 132.174 22.9659 131.867 23.2045C131.561 23.4432 131.329 23.7727 131.174 24.1932C131.019 24.6136 130.941 25.0947 130.941 25.6364C130.941 26.1818 131.019 26.6686 131.174 27.0966C131.333 27.5208 131.566 27.8561 131.873 28.1023C132.184 28.3447 132.564 28.4659 133.015 28.4659ZM143.116 30V18.3636H147.571C148.412 18.3636 149.111 18.4962 149.667 18.7614C150.228 19.0227 150.647 19.3807 150.923 19.8352C151.203 20.2898 151.344 20.8049 151.344 21.3807C151.344 21.8542 151.253 22.2595 151.071 22.5966C150.889 22.9299 150.645 23.2008 150.338 23.4091C150.031 23.6174 149.688 23.767 149.31 23.858V23.9716C149.722 23.9943 150.118 24.1212 150.497 24.3523C150.88 24.5795 151.192 24.9015 151.435 25.3182C151.677 25.7348 151.798 26.2386 151.798 26.8295C151.798 27.4318 151.652 27.9735 151.361 28.4545C151.069 28.9318 150.63 29.3087 150.042 29.5852C149.455 29.8617 148.717 30 147.827 30H143.116ZM145.224 28.2386H147.491C148.257 28.2386 148.808 28.0928 149.145 27.8011C149.486 27.5057 149.656 27.1269 149.656 26.6648C149.656 26.3201 149.571 26.0095 149.4 25.733C149.23 25.4527 148.988 25.233 148.673 25.0739C148.359 24.911 147.984 24.8295 147.548 24.8295H145.224V28.2386ZM145.224 23.3125H147.31C147.673 23.3125 148.001 23.2462 148.292 23.1136C148.584 22.9773 148.813 22.786 148.98 22.5398C149.15 22.2898 149.236 21.9943 149.236 21.6534C149.236 21.2027 149.077 20.8314 148.758 20.5398C148.444 20.2481 147.976 20.1023 147.355 20.1023H145.224V23.3125ZM155.486 18.3636V30H153.429V18.3636H155.486ZM163.051 26.3295V21.2727H165.108V30H163.114V28.4489H163.023C162.826 28.9375 162.502 29.3371 162.051 29.6477C161.604 29.9583 161.053 30.1136 160.398 30.1136C159.826 30.1136 159.32 29.9867 158.881 29.733C158.445 29.4754 158.104 29.1023 157.858 28.6136C157.612 28.1212 157.489 27.5265 157.489 26.8295V21.2727H159.546V26.5114C159.546 27.0644 159.697 27.5038 160 27.8295C160.303 28.1553 160.701 28.3182 161.193 28.3182C161.497 28.3182 161.79 28.2443 162.074 28.0966C162.358 27.9489 162.591 27.7292 162.773 27.4375C162.959 27.142 163.051 26.7727 163.051 26.3295ZM170.975 30.1705C170.1 30.1705 169.344 29.9886 168.708 29.625C168.075 29.2576 167.589 28.7386 167.248 28.0682C166.907 27.3939 166.736 26.6004 166.736 25.6875C166.736 24.7898 166.907 24.0019 167.248 23.3239C167.592 22.642 168.073 22.1117 168.691 21.733C169.308 21.3504 170.034 21.1591 170.867 21.1591C171.405 21.1591 171.912 21.2462 172.39 21.4205C172.871 21.5909 173.295 21.8561 173.662 22.2159C174.034 22.5758 174.325 23.0341 174.537 23.5909C174.75 24.1439 174.856 24.803 174.856 25.5682V26.1989H167.702V24.8125H172.884C172.88 24.4186 172.795 24.0682 172.628 23.7614C172.462 23.4508 172.229 23.2064 171.929 23.0284C171.634 22.8504 171.289 22.7614 170.895 22.7614C170.475 22.7614 170.106 22.8636 169.787 23.0682C169.469 23.2689 169.221 23.5341 169.043 23.8636C168.869 24.1894 168.78 24.5473 168.776 24.9375V26.1477C168.776 26.6553 168.869 27.0909 169.054 27.4545C169.24 27.8144 169.5 28.0909 169.833 28.2841C170.166 28.4735 170.556 28.5682 171.003 28.5682C171.303 28.5682 171.573 28.5265 171.816 28.4432C172.058 28.3561 172.269 28.2292 172.447 28.0625C172.625 27.8958 172.759 27.6894 172.85 27.4432L174.77 27.6591C174.649 28.1667 174.418 28.6098 174.077 28.9886C173.74 29.3636 173.308 29.6553 172.782 29.8636C172.255 30.0682 171.653 30.1705 170.975 30.1705ZM176.484 33.2727V21.2727H178.506V22.7159H178.626C178.732 22.5038 178.881 22.2784 179.075 22.0398C179.268 21.7973 179.529 21.5909 179.859 21.4205C180.188 21.2462 180.609 21.1591 181.12 21.1591C181.794 21.1591 182.402 21.3314 182.944 21.6761C183.489 22.017 183.921 22.5227 184.239 23.1932C184.561 23.8598 184.722 24.678 184.722 25.6477C184.722 26.6061 184.565 27.4205 184.251 28.0909C183.936 28.7614 183.508 29.2727 182.967 29.625C182.425 29.9773 181.811 30.1534 181.126 30.1534C180.626 30.1534 180.211 30.0701 179.881 29.9034C179.552 29.7367 179.287 29.536 179.086 29.3011C178.889 29.0625 178.736 28.8371 178.626 28.625H178.541V33.2727H176.484ZM178.501 25.6364C178.501 26.2008 178.58 26.6951 178.739 27.1193C178.902 27.5436 179.135 27.875 179.438 28.1136C179.745 28.3485 180.116 28.4659 180.552 28.4659C181.006 28.4659 181.387 28.3447 181.694 28.1023C182.001 27.8561 182.232 27.5208 182.387 27.0966C182.546 26.6686 182.626 26.1818 182.626 25.6364C182.626 25.0947 182.548 24.6136 182.393 24.1932C182.237 23.7727 182.006 23.4432 181.7 23.2045C181.393 22.9659 181.01 22.8466 180.552 22.8466C180.112 22.8466 179.739 22.9621 179.433 23.1932C179.126 23.4242 178.893 23.7481 178.734 24.1648C178.578 24.5814 178.501 25.072 178.501 25.6364ZM186.372 30V21.2727H188.366V22.7273H188.457C188.616 22.2235 188.889 21.8352 189.275 21.5625C189.665 21.286 190.11 21.1477 190.61 21.1477C190.724 21.1477 190.851 21.1534 190.991 21.1648C191.135 21.1723 191.254 21.1856 191.349 21.2045V23.0966C191.262 23.0663 191.124 23.0398 190.934 23.017C190.749 22.9905 190.569 22.9773 190.394 22.9773C190.019 22.9773 189.682 23.0587 189.383 23.2216C189.088 23.3807 188.855 23.6023 188.684 23.8864C188.514 24.1705 188.429 24.4981 188.429 24.8693V30H186.372ZM192.603 30V21.2727H194.66V30H192.603ZM193.638 20.0341C193.312 20.0341 193.031 19.9261 192.797 19.7102C192.562 19.4905 192.444 19.2273 192.444 18.9205C192.444 18.6098 192.562 18.3466 192.797 18.1307C193.031 17.911 193.312 17.8011 193.638 17.8011C193.967 17.8011 194.247 17.911 194.478 18.1307C194.713 18.3466 194.831 18.6098 194.831 18.9205C194.831 19.2273 194.713 19.4905 194.478 19.7102C194.247 19.9261 193.967 20.0341 193.638 20.0341ZM198.72 24.8864V30H196.663V21.2727H198.629V22.7557H198.731C198.932 22.267 199.252 21.8788 199.692 21.5909C200.135 21.303 200.682 21.1591 201.334 21.1591C201.936 21.1591 202.461 21.2879 202.908 21.5455C203.358 21.803 203.707 22.1761 203.953 22.6648C204.203 23.1534 204.326 23.7462 204.322 24.4432V30H202.266V24.7614C202.266 24.178 202.114 23.7216 201.811 23.392C201.512 23.0625 201.097 22.8977 200.567 22.8977C200.207 22.8977 199.887 22.9773 199.606 23.1364C199.33 23.2917 199.112 23.517 198.953 23.8125C198.798 24.108 198.72 24.4659 198.72 24.8864ZM210.659 21.2727V22.8636H205.642V21.2727H210.659ZM206.881 19.1818H208.938V27.375C208.938 27.6515 208.979 27.8636 209.063 28.0114C209.15 28.1553 209.263 28.2538 209.404 28.3068C209.544 28.3598 209.699 28.3864 209.869 28.3864C209.998 28.3864 210.116 28.3769 210.222 28.358C210.332 28.339 210.415 28.322 210.472 28.3068L210.818 29.9148C210.709 29.9527 210.551 29.9943 210.347 30.0398C210.146 30.0852 209.9 30.1117 209.608 30.1193C209.093 30.1345 208.629 30.0568 208.216 29.8864C207.803 29.7121 207.476 29.4432 207.233 29.0795C206.994 28.7159 206.877 28.2614 206.881 27.7159V19.1818Z" fill="#007BFF"/>
<path d="M224.866 21.1339C225.232 21.5 225.821 21.5 227 21.5C228.179 21.5 228.768 21.5 229.134 21.1339C229.5 20.7678 229.5 20.1785 229.5 19C229.5 17.8215 229.5 17.2322 229.134 16.8661C228.768 16.5 228.179 16.5 227 16.5C225.821 16.5 225.232 16.5 224.866 16.8661C224.5 17.2322 224.5 17.8215 224.5 19C224.5 20.1785 224.5 20.7678 224.866 21.1339Z" stroke="#007BFF" stroke-width="1.25" stroke-linecap="round" stroke-linejoin="round"/>
<path d="M234.866 21.1339C235.232 21.5 235.821 21.5 237 21.5C238.179 21.5 238.768 21.5 239.134 21.1339C239.5 20.7678 239.5 20.1785 239.5 19C239.5 17.8215 239.5 17.2322 239.134 16.8661C238.768 16.5 238.179 16.5 237 16.5C235.821 16.5 235.232 16.5 234.866 16.8661C234.5 17.2322 234.5 17.8215 234.5 19C234.5 20.1785 234.5 20.7678 234.866 21.1339Z" stroke="#007BFF" stroke-width="2" stroke-linecap="round" stroke-linejoin="round"/>
<path d="M234.866 31.1339C235.232 31.5 235.821 31.5 237 31.5C238.179 31.5 238.768 31.5 239.134 31.1339C239.5 30.7678 239.5 30.1785 239.5 29C239.5 27.8215 239.5 27.2322 239.134 26.8661C238.768 26.5 238.179 26.5 237 26.5C235.821 26.5 235.232 26.5 234.866 26.8661C234.5 27.2322 234.5 27.8215 234.5 29C234.5 30.1785 234.5 30.7678 234.866 31.1339Z" stroke="#007BFF" stroke-width="1.25" stroke-linecap="round" stroke-linejoin="round"/>
<path d="M224.866 31.1339C225.232 31.5 225.821 31.5 227 31.5C228.179 31.5 228.768 31.5 229.134 31.1339C229.5 30.7678 229.5 30.1785 229.5 29C229.5 27.8215 229.5 27.2322 229.134 26.8661C228.768 26.5 228.179 26.5 227 26.5C225.821 26.5 225.232 26.5 224.866 26.8661C224.5 27.2322 224.5 27.8215 224.5 29C224.5 30.1785 224.5 30.7678 224.866 31.1339Z" stroke="#007BFF" stroke-width="1.25" stroke-linecap="round" stroke-linejoin="round"/>
<path d="M232 19H229.5" stroke="#007BFF" stroke-width="1.25" stroke-linecap="round" stroke-linejoin="round"/>
<path d="M234.5 29H232" stroke="#007BFF" stroke-width="1.25" stroke-linecap="round" stroke-linejoin="round"/>
<path d="M237 24L237 21.5" stroke="#007BFF" stroke-width="1.25" stroke-linecap="round" stroke-linejoin="round"/>
<path d="M227 26.5L227 24" stroke="#007BFF" stroke-width="1.25" stroke-linecap="round" stroke-linejoin="round"/>
</svg>
