<svg preserveAspectRatio="none" width="100%" height="100%" overflow="visible" style="display: block;" viewBox="0 0 17.9167 17.9167" fill="none" xmlns="http://www.w3.org/2000/svg">
<g id="elements">
<path id="Vector" d="M17.2917 8.95833C17.2917 4.35596 13.5607 0.625 8.95833 0.625C4.35596 0.625 0.625 4.35596 0.625 8.95833C0.625 13.5607 4.35596 17.2917 8.95833 17.2917C13.5607 17.2917 17.2917 13.5607 17.2917 8.95833Z" stroke="var(--stroke-0, #007BFF)" stroke-width="1.25" stroke-linejoin="round"/>
<path id="Vector_2" d="M11.8497 12.7336C12.0938 12.9777 12.4895 12.9777 12.7336 12.7336C12.9777 12.4895 12.9777 12.0938 12.7336 11.8497L12.2917 12.2917L11.8497 12.7336ZM10.9583 10.9583L10.5164 11.4003L11.8497 12.7336L12.2917 12.2917L12.7336 11.8497L11.4003 10.5164L10.9583 10.9583ZM11.625 8.625H12.25C12.25 6.62297 10.627 5 8.625 5V5.625V6.25C9.93668 6.25 11 7.31332 11 8.625H11.625ZM8.625 5.625V5C6.62297 5 5 6.62297 5 8.625H5.625H6.25C6.25 7.31332 7.31332 6.25 8.625 6.25V5.625ZM5.625 8.625H5C5 10.627 6.62297 12.25 8.625 12.25V11.625V11C7.31332 11 6.25 9.93668 6.25 8.625H5.625ZM8.625 11.625V12.25C10.627 12.25 12.25 10.627 12.25 8.625H11.625H11C11 9.93668 9.93668 11 8.625 11V11.625Z" fill="var(--stroke-0, #007BFF)"/>
</g>
</svg>
