<svg preserveAspectRatio="none" width="100%" height="100%" overflow="visible" style="display: block;" viewBox="0 0 17.9167 17.9167" fill="none" xmlns="http://www.w3.org/2000/svg">
<g id="elements">
<path id="Vector" d="M5.03724 13.125C1.90037 5 6.34427 1.40625 8.95833 0.625C11.5724 1.40625 16.0163 5 12.8794 13.125C12.4057 12.8646 10.9583 12.3438 8.95833 12.3438C6.95833 12.3438 5.51094 12.8646 5.03724 13.125Z" stroke="var(--stroke-0, #007BFF)" stroke-width="1.25" stroke-linecap="round" stroke-linejoin="round"/>
<path id="Vector_2" d="M10.625 6.45833C10.625 5.53786 9.87881 4.79167 8.95833 4.79167C8.03786 4.79167 7.29167 5.53786 7.29167 6.45833C7.29167 7.37881 8.03786 8.125 8.95833 8.125C9.87881 8.125 10.625 7.37881 10.625 6.45833Z" stroke="var(--stroke-0, #007BFF)" stroke-width="1.25"/>
<path id="Vector_3" d="M13.5417 11.923C14.7434 12.034 16.2149 12.3601 17.2762 13.125C17.2762 13.125 17.712 9.01183 13.9583 8.125" stroke="var(--stroke-0, #007BFF)" stroke-width="1.25" stroke-linecap="round" stroke-linejoin="round"/>
<path id="Vector_4" d="M4.375 11.923C3.17329 12.034 1.7018 12.3601 0.64048 13.125C0.64048 13.125 0.204626 9.01183 3.95833 8.125" stroke="var(--stroke-0, #007BFF)" stroke-width="1.25" stroke-linecap="round" stroke-linejoin="round"/>
<path id="Vector_5" d="M6.875 14.7917C6.875 14.7917 7.22222 16.875 8.95833 17.2917C10.6944 16.875 11.0417 14.7917 11.0417 14.7917" stroke="var(--stroke-0, #007BFF)" stroke-width="1.25" stroke-linecap="round" stroke-linejoin="round"/>
</g>
</svg>
