<svg preserveAspectRatio="none" width="100%" height="100%" overflow="visible" style="display: block;" viewBox="0 0 17.9167 17.9167" fill="none" xmlns="http://www.w3.org/2000/svg">
<g id="elements">
<path id="Vector" d="M11.5676 1.04167C10.7468 0.771296 9.86967 0.625006 8.95833 0.625006C4.35596 0.625006 0.625 4.35597 0.625 8.95834C0.625 13.5607 4.35596 17.2917 8.95833 17.2917C13.5607 17.2917 17.2917 13.5607 17.2917 8.95834C17.2917 8.08734 17.158 7.24754 16.9102 6.45834" stroke="var(--stroke-0, #007BFF)" stroke-width="1.25" stroke-linecap="round"/>
<path id="Vector_2" d="M13.125 8.95834C13.125 11.2595 11.2595 13.125 8.95833 13.125C6.65715 13.125 4.79167 11.2595 4.79167 8.95834C4.79167 6.65715 6.65715 4.79167 8.95833 4.79167" stroke="var(--stroke-0, #007BFF)" stroke-width="1.25" stroke-linecap="round" stroke-linejoin="round"/>
<path id="Vector_3" d="M15.2083 2.70833L8.95833 8.95834M15.2083 2.70833V0.625M15.2083 2.70833H17.2917" stroke="var(--stroke-0, #007BFF)" stroke-width="1.25" stroke-linecap="round"/>
</g>
</svg>
