<svg preserveAspectRatio="none" width="100%" height="100%" overflow="visible" style="display: block;" viewBox="0 0 13.1186 13.76" fill="none" xmlns="http://www.w3.org/2000/svg">
<g id="elements">
<path id="Vector" d="M6.55814 0.48C4.63316 0.48 3.38501 1.77215 1.90887 2.24314C1.30866 2.43464 1.00855 2.5304 0.887098 2.66538C0.765646 2.80036 0.730081 2.9976 0.658952 3.39209C-0.102193 7.61344 1.56146 11.5161 5.52908 13.0352C5.95538 13.1984 6.16853 13.28 6.56024 13.28C6.95195 13.28 7.16509 13.1984 7.59136 13.0352C11.5587 11.5161 13.2208 7.61342 12.4594 3.39208C12.3883 2.99753 12.3527 2.80025 12.2312 2.66527C12.1097 2.53029 11.8096 2.43459 11.2095 2.24319C9.73276 1.77225 8.48319 0.48 6.55814 0.48Z" stroke="var(--stroke-0, #007BFF)" stroke-width="0.96" stroke-linecap="round" stroke-linejoin="round"/>
<path id="Vector_2" d="M6.55929 3.68L6.55929 4.96" stroke="var(--stroke-0, #007BFF)" stroke-width="0.96" stroke-linecap="round"/>
</g>
</svg>
