<svg preserveAspectRatio="none" width="100%" height="100%" overflow="visible" style="display: block;" viewBox="0 0 13.7601 13.7601" fill="none" xmlns="http://www.w3.org/2000/svg">
<g id="elements">
<path id="Vector" d="M10.08 6.88006C10.08 8.64737 8.64731 10.0801 6.88 10.0801C5.11269 10.0801 3.68 8.64737 3.68 6.88006C3.68 5.11275 5.11269 3.68006 6.88 3.68006" stroke="var(--stroke-0, #007BFF)" stroke-width="0.96" stroke-linecap="round"/>
<path id="Vector_2" d="M8.16 0.608083C7.74642 0.52413 7.31836 0.48006 6.88 0.48006C3.34538 0.48006 0.48 3.34544 0.48 6.88006C0.48 10.4147 3.34538 13.2801 6.88 13.2801C10.4146 13.2801 13.28 10.4147 13.28 6.88006C13.28 6.4417 13.2359 6.01364 13.152 5.60006" stroke="var(--stroke-0, #007BFF)" stroke-width="0.96" stroke-linecap="round"/>
<path id="Vector_3" d="M6.54059 6.54065C6.35314 6.7281 6.35314 7.03202 6.54059 7.21947C6.72804 7.40692 7.03196 7.40692 7.21941 7.21947L6.88 6.88006L6.54059 6.54065ZM11.8022 1.95789L11.3377 2.07908C11.3816 2.24719 11.5129 2.37848 11.681 2.42235L11.8022 1.95789ZM11.4717 0.691305L11.0072 0.812487V0.812487L11.4717 0.691305ZM10.9107 0.601698L11.2502 0.941109V0.941109L10.9107 0.601698ZM10.1751 1.3373L9.83573 0.997892V0.997892L10.1751 1.3373ZM9.61801 3.13689L9.15356 3.25807L9.15356 3.25807L9.61801 3.13689ZM13.0688 2.28837L12.9476 2.75282V2.75282L13.0688 2.28837ZM13.1584 2.84932L12.819 2.5099V2.5099L13.1584 2.84932ZM12.4228 3.58492L12.7622 3.92433H12.7622L12.4228 3.58492ZM10.6232 4.14205L10.502 4.6065V4.6065L10.6232 4.14205ZM9.826 3.93406L9.48659 3.59465L6.54059 6.54065L6.88 6.88006L7.21941 7.21947L10.1654 4.27347L9.826 3.93406ZM11.8022 1.95789L12.2666 1.83671L11.9361 0.570123L11.4717 0.691305L11.0072 0.812487L11.3377 2.07908L11.8022 1.95789ZM10.9107 0.601698L10.5713 0.262287L9.83573 0.997892L10.1751 1.3373L10.5146 1.67671L11.2502 0.941109L10.9107 0.601698ZM9.61801 3.13689L9.15356 3.25807L9.36155 4.05524L9.826 3.93406L10.2905 3.81288L10.0825 3.0157L9.61801 3.13689ZM11.8022 1.95789L11.681 2.42235L12.9476 2.75282L13.0688 2.28837L13.1899 1.82391L11.9233 1.49344L11.8022 1.95789ZM13.1584 2.84932L12.819 2.5099L12.0833 3.24551L12.4228 3.58492L12.7622 3.92433L13.4978 3.18873L13.1584 2.84932ZM10.6232 4.14205L10.7444 3.6776L9.94719 3.46961L9.826 3.93406L9.70482 4.39851L10.502 4.6065L10.6232 4.14205ZM12.4228 3.58492L12.0833 3.24551C11.6859 3.64294 11.1591 3.78581 10.7444 3.6776L10.6232 4.14205L10.502 4.6065C11.295 4.81342 12.1616 4.52492 12.7622 3.92433L12.4228 3.58492ZM13.0688 2.28837L12.9476 2.75282C12.9148 2.74426 12.8774 2.72339 12.8475 2.68886C12.819 2.65599 12.8062 2.62122 12.8019 2.5943C12.7934 2.54106 12.8149 2.51393 12.819 2.5099L13.1584 2.84932L13.4978 3.18873C13.6977 2.98883 13.7929 2.71215 13.7499 2.44286C13.7054 2.16447 13.5095 1.90731 13.1899 1.82391L13.0688 2.28837ZM10.1751 1.3373L9.83573 0.997892C9.23514 1.59848 8.94664 2.46503 9.15356 3.25807L9.61801 3.13689L10.0825 3.0157C9.97425 2.60096 10.1171 2.07415 10.5146 1.67671L10.1751 1.3373ZM11.4717 0.691305L11.9361 0.570123C11.8528 0.250513 11.5956 0.0546399 11.3172 0.0101681C11.0479 -0.0328483 10.7712 0.0623926 10.5713 0.262287L10.9107 0.601698L11.2502 0.941109C11.2461 0.945131 11.219 0.966654 11.1658 0.958149C11.1388 0.953848 11.1041 0.941027 11.0712 0.912546C11.0367 0.882633 11.0158 0.845275 11.0072 0.812487L11.4717 0.691305Z" fill="var(--stroke-0, #007BFF)"/>
</g>
</svg>
