<svg preserveAspectRatio="none" width="100%" height="100%" overflow="visible" style="display: block;" viewBox="0 0 11.2002 13.76" fill="none" xmlns="http://www.w3.org/2000/svg">
<g id="elements">
<path id="Vector" d="M4.33878 7.92807C4.79867 7.65602 5.02861 7.52 5.28008 7.52C5.53156 7.52 5.7615 7.65602 6.22138 7.92807L6.86138 8.30667C7.33876 8.58906 7.57745 8.73026 7.70876 8.96639C7.84008 9.20252 7.84008 9.49052 7.84008 10.0665V10.7335C7.84008 11.3095 7.84008 11.5975 7.70876 11.8336C7.57745 12.0697 7.33876 12.2109 6.86139 12.4933L6.22139 12.8719C5.7615 13.144 5.53156 13.28 5.28008 13.28C5.02861 13.28 4.79867 13.144 4.33878 12.8719L3.69878 12.4933C3.22141 12.2109 2.98272 12.0697 2.8514 11.8336C2.72008 11.5975 2.72008 11.3095 2.72008 10.7335V10.0665C2.72008 9.49052 2.72008 9.20252 2.8514 8.96639C2.98272 8.73026 3.22141 8.58906 3.69878 8.30667L4.33878 7.92807Z" stroke="var(--stroke-0, #007BFF)" stroke-width="0.96" stroke-linejoin="round"/>
<path id="Vector_2" d="M8.96574 0.487466H2.23442C1.7162 0.487466 1.03018 0.386715 0.675766 0.925452C0.480082 1.22291 0.480082 1.65334 0.480082 2.5142C0.480082 3.24815 0.480082 3.61513 0.612029 3.92431C0.837387 4.45238 1.34125 4.68176 1.77312 4.93123L3.88278 6.14984C4.72548 6.63661 5.14683 6.88 5.60008 6.88C6.05333 6.88 6.47468 6.63661 7.31738 6.14984L9.42705 4.93123C9.85892 4.68176 10.3628 4.45238 10.5881 3.92431C10.7201 3.61513 10.7201 3.24815 10.7201 2.5142C10.7201 1.65334 10.7201 1.22291 10.5244 0.925452C10.17 0.386714 9.48397 0.487466 8.96574 0.487466Z" stroke="var(--stroke-0, #007BFF)" stroke-width="0.96"/>
<path id="Vector_3" d="M5.28008 0.48V3.68" stroke="var(--stroke-0, #007BFF)" stroke-width="0.96" stroke-linecap="round"/>
</g>
</svg>
