<svg preserveAspectRatio="none" width="100%" height="100%" overflow="visible" style="display: block;" viewBox="0 0 12.48 13.76" fill="none" xmlns="http://www.w3.org/2000/svg">
<g id="elements">
<path id="Vector" d="M4.09151 1.21318L3.00042 1.71752C1.32014 2.4942 0.48 2.88254 0.48 3.52C0.48 4.15746 1.32014 4.5458 3.00043 5.32249L4.09151 5.82682C5.14895 6.31561 5.67768 6.56 6.24 6.56C6.80232 6.56 7.33105 6.31561 8.38849 5.82682L9.47958 5.32248C11.1599 4.5458 12 4.15746 12 3.52C12 2.88254 11.1599 2.4942 9.47958 1.71752L8.38849 1.21318C7.33105 0.724393 6.80232 0.48 6.24 0.48C5.67768 0.48 5.14895 0.724393 4.09151 1.21318Z" stroke="var(--stroke-0, #007BFF)" stroke-width="0.96" stroke-linecap="round" stroke-linejoin="round"/>
<path id="Vector_2" d="M11.8643 6.30224C11.9548 6.42944 12 6.56202 12 6.70781C12 7.3362 11.1599 7.71901 9.47958 8.48464L8.38849 8.98179C7.33105 9.46362 6.80232 9.70453 6.24 9.70453C5.67768 9.70453 5.14895 9.46362 4.09151 8.98179L3.00043 8.48464C1.32014 7.71901 0.48 7.3362 0.48 6.70781C0.48 6.56202 0.525227 6.42944 0.61568 6.30224" stroke="var(--stroke-0, #007BFF)" stroke-width="0.96" stroke-linecap="round" stroke-linejoin="round"/>
<path id="Vector_3" d="M11.6011 9.61032C11.867 9.82215 12 10.0333 12 10.2833C12 10.9117 11.1599 11.2945 9.47958 12.0601L8.38849 12.5573C7.33105 13.0391 6.80232 13.28 6.24 13.28C5.67768 13.28 5.14895 13.0391 4.09151 12.5573L3.00043 12.0601C1.32014 11.2945 0.48 10.9117 0.48 10.2833C0.48 10.0333 0.612979 9.82215 0.878936 9.61032" stroke="var(--stroke-0, #007BFF)" stroke-width="0.96" stroke-linecap="round" stroke-linejoin="round"/>
</g>
</svg>
