<svg preserveAspectRatio="none" width="100%" height="100%" overflow="visible" style="display: block;" viewBox="0 0 13.1201 13.12" fill="none" xmlns="http://www.w3.org/2000/svg">
<g id="elements">
<path id="Vector" d="M12.6065 4.128C12.64 4.80009 12.64 5.59959 12.64 6.56C12.64 9.42614 12.64 10.8592 11.7496 11.7496C10.8592 12.64 9.42614 12.64 6.56 12.64C3.69386 12.64 2.26079 12.64 1.3704 11.7496C0.48 10.8592 0.48 9.42614 0.48 6.56C0.48 3.69386 0.48 2.26079 1.3704 1.3704C2.26079 0.48 3.69386 0.48 6.56 0.48C7.24603 0.48 7.84996 0.48 8.384 0.492211" stroke="var(--stroke-0, #007BFF)" stroke-width="0.96" stroke-linecap="round"/>
<path id="Vector_2" d="M4 6.24C4 6.24 4.96 6.24 6.24 8.48C6.24 8.48 9.47765 2.61333 12.64 1.44" stroke="var(--stroke-0, #007BFF)" stroke-width="0.96" stroke-linecap="round" stroke-linejoin="round"/>
</g>
</svg>
