<svg preserveAspectRatio="none" width="100%" height="100%" overflow="visible" style="display: block;" viewBox="0 0 11.2 13.7601" fill="none" xmlns="http://www.w3.org/2000/svg">
<g id="elements">
<path id="Vector" d="M10.72 13.2801H2.08C1.19634 13.2801 0.48 12.5637 0.48 11.6801M0.48 11.6801V6.03759C0.48 4.12744 0.48 3.17237 0.964238 2.50148C1.12459 2.27932 1.31957 2.08434 1.54173 1.92399C2.21261 1.43975 3.16769 1.43975 5.07784 1.43975C5.70273 1.43975 6.46375 1.47268 7.09489 1.48122C7.67041 1.489 7.95817 1.49289 8.49419 1.39817C9.0302 1.30345 9.08748 1.28167 9.20204 1.23811C9.69483 1.05073 10.1614 0.759304 10.72 0.480001V6.56009C10.72 7.7529 10.72 8.3493 10.5251 8.81976C10.2653 9.44703 9.76694 9.94539 9.13967 10.2052C8.66922 10.4001 8.07281 10.4001 6.88 10.4001H1.76C1.05308 10.4001 0.48 10.9732 0.48 11.6801Z" stroke="var(--stroke-0, #007BFF)" stroke-width="0.96" stroke-linecap="round" stroke-linejoin="round"/>
<path id="Vector_2" d="M9.44 10.08L9.44 13.28" stroke="var(--stroke-0, #007BFF)" stroke-width="0.96" stroke-linejoin="round"/>
<path id="Vector_3" d="M3.04 1.76L3.04 4.12162C3.04 4.59529 3.04 4.83212 3.19239 4.92398C3.19895 4.92793 3.20565 4.93165 3.21249 4.93513C3.37124 5.01598 3.5784 4.89413 3.99271 4.65043C4.30242 4.46825 4.45728 4.37716 4.62817 4.37406C4.63606 4.37392 4.64394 4.37392 4.65183 4.37406C4.82272 4.37716 4.97758 4.46825 5.2873 4.65043C5.70161 4.89413 5.90876 5.01598 6.06751 4.93513C6.07435 4.93165 6.08105 4.92793 6.08761 4.92398C6.24 4.83212 6.24 4.59529 6.24 4.12162V1.76" stroke="var(--stroke-0, #007BFF)" stroke-width="0.96" stroke-linecap="round" stroke-linejoin="round"/>
</g>
</svg>
