<svg preserveAspectRatio="none" width="100%" height="100%" overflow="visible" style="display: block;" viewBox="0 0 13.76 13.76" fill="none" xmlns="http://www.w3.org/2000/svg">
<g id="elements">
<path id="Vector" d="M0.8 2.72C0.8 1.66406 0.8 1.13608 1.12804 0.808042C1.45608 0.480002 1.98405 0.480002 3.04 0.480002C4.09595 0.480002 4.62392 0.480002 4.95196 0.808042C5.28 1.13608 5.28 1.66406 5.28 2.72C5.28 3.77595 5.28 4.30392 4.95196 4.63196C4.62392 4.96 4.09595 4.96 3.04 4.96C1.98405 4.96 1.45608 4.96 1.12804 4.63196C0.8 4.30392 0.8 3.77595 0.8 2.72Z" stroke="var(--stroke-0, #007BFF)" stroke-width="0.96"/>
<path id="Vector_2" d="M1.54039 9.22039C2.24731 8.51346 2.60077 8.16 3.04 8.16C3.47923 8.16 3.83269 8.51346 4.53961 9.22039C5.24654 9.92731 5.6 10.2808 5.6 10.72C5.6 11.1592 5.24654 11.5127 4.53961 12.2196C3.83269 12.9265 3.47923 13.28 3.04 13.28C2.60077 13.28 2.24731 12.9265 1.54039 12.2196C0.833462 11.5127 0.48 11.1592 0.48 10.72C0.48 10.2808 0.833462 9.92731 1.54039 9.22039Z" stroke="var(--stroke-0, #007BFF)" stroke-width="0.96"/>
<path id="Vector_3" d="M3.04 4.96V8.16M5.6 10.72H8.8" stroke="var(--stroke-0, #007BFF)" stroke-width="0.96" stroke-linecap="round" stroke-linejoin="round"/>
<path id="Vector_4" d="M8.8 10.72C8.8 9.66406 8.8 9.13608 9.12804 8.80804C9.45608 8.48 9.98405 8.48 11.04 8.48C12.0959 8.48 12.6239 8.48 12.952 8.80804C13.28 9.13608 13.28 9.66406 13.28 10.72C13.28 11.7759 13.28 12.3039 12.952 12.632C12.6239 12.96 12.0959 12.96 11.04 12.96C9.98405 12.96 9.45608 12.96 9.12804 12.632C8.8 12.3039 8.8 11.7759 8.8 10.72Z" stroke="var(--stroke-0, #007BFF)" stroke-width="0.96"/>
</g>
</svg>
