<svg preserveAspectRatio="none" width="100%" height="100%" overflow="visible" style="display: block;" viewBox="0 0 21.5 18.4999" fill="none" xmlns="http://www.w3.org/2000/svg">
<g id="elements">
<path id="Vector" d="M9.75 3.75L9.75001 16.75" stroke="var(--stroke-0, #94A3B8)" stroke-width="1.5" stroke-linecap="round"/>
<path id="Vector_2" d="M9.75 16.75C9.52771 16.75 9.07355 16.5079 8.16527 16.0238C7.2421 15.5318 5.9667 15.0422 4.33251 14.7349C2.49929 14.3901 1.58268 14.2177 1.16634 13.7088C0.750004 13.1999 0.750004 12.3847 0.750004 10.7544L0.750004 4.34655C0.750004 2.56353 0.750005 1.67202 1.39871 1.12302C2.04741 0.57401 2.80911 0.717246 4.33251 1.00372C7.33958 1.5692 9.13181 2.75205 9.75 3.43114C10.3682 2.75205 12.1604 1.5692 15.1675 1.00372C16.6909 0.717247 17.4526 0.57401 18.1013 1.12302C18.75 1.67202 18.75 2.56353 18.75 4.34655L18.75 7.25" stroke="var(--stroke-0, #94A3B8)" stroke-width="1.5" stroke-linecap="round" stroke-linejoin="round"/>
<path id="Vector_3" d="M14.0977 17.6057L13.9409 16.8723V16.8723L14.0977 17.6057ZM12.8943 16.4023L13.6277 16.5591L12.8943 16.4023ZM13.7707 13.8617L13.2403 13.3314L13.2403 13.3314L13.7707 13.8617ZM20.5463 11.2273L21.1958 10.8523V10.8523L20.5463 11.2273ZM20.5463 12.7481L21.1958 13.1231V13.1231L20.5463 12.7481ZM19.2727 9.95375L19.6477 9.30423V9.30423L19.2727 9.95375ZM17.0785 10.5539L17.6088 11.0842V11.0842L17.0785 10.5539ZM17.7519 9.95375L17.3769 9.30423L17.3769 9.30423L17.7519 9.95375ZM19.9461 13.4215L19.4158 12.8912L16.108 16.199L16.6383 16.7293L17.1686 17.2597L20.4765 13.9518L19.9461 13.4215ZM13.7707 13.8617L14.301 14.392L17.6088 11.0842L17.0785 10.5539L16.5482 10.0235L13.2403 13.3314L13.7707 13.8617ZM14.0977 17.6057L13.9409 16.8723C13.7655 16.9098 13.6253 16.9397 13.5048 16.9621C13.3833 16.9847 13.3036 16.9954 13.2496 16.9988C13.1941 17.0024 13.1979 16.9958 13.2325 17.0047C13.2796 17.0169 13.3436 17.0472 13.3982 17.1018L12.8679 17.6321L12.3376 18.1624C12.6613 18.4862 13.0658 18.5136 13.3448 18.4958C13.6103 18.4789 13.9339 18.4077 14.2545 18.3391L14.0977 17.6057ZM12.8943 16.4023L12.1609 16.2455C12.0923 16.5661 12.0211 16.8897 12.0042 17.1552C11.9864 17.4342 12.0138 17.8387 12.3376 18.1624L12.8679 17.6321L13.3982 17.1018C13.4528 17.1564 13.4831 17.2204 13.4953 17.2675C13.5042 17.3021 13.4976 17.3059 13.5012 17.2504C13.5046 17.1964 13.5153 17.1167 13.5379 16.9952C13.5603 16.8747 13.5902 16.7345 13.6277 16.5591L12.8943 16.4023ZM19.9461 10.5539L19.4158 11.0842C19.7833 11.4517 19.8584 11.536 19.8967 11.6023L20.5463 11.2273L21.1958 10.8523C21.0339 10.5718 20.7757 10.3228 20.4765 10.0235L19.9461 10.5539ZM19.9461 13.4215L20.4765 13.9518C20.7757 13.6526 21.0339 13.4035 21.1958 13.1231L20.5463 12.7481L19.8967 12.3731C19.8584 12.4394 19.7833 12.5237 19.4158 12.8912L19.9461 13.4215ZM20.5463 11.2273L19.8967 11.6023C20.0344 11.8408 20.0344 12.1346 19.8967 12.3731L20.5463 12.7481L21.1958 13.1231C21.6014 12.4205 21.6014 11.5549 21.1958 10.8523L20.5463 11.2273ZM19.9461 10.5539L20.4765 10.0235C20.1773 9.72434 19.9282 9.46615 19.6477 9.30423L19.2727 9.95375L18.8977 10.6033C18.964 10.6416 19.0483 10.7167 19.4158 11.0842L19.9461 10.5539ZM17.0785 10.5539L17.6088 11.0842C17.9763 10.7167 18.0606 10.6416 18.1269 10.6033L17.7519 9.95375L17.3769 9.30423C17.0965 9.46615 16.8474 9.72434 16.5482 10.0235L17.0785 10.5539ZM19.2727 9.95375L19.6477 9.30423C18.9451 8.89859 18.0795 8.89859 17.3769 9.30423L17.7519 9.95375L18.1269 10.6033C18.3654 10.4656 18.6592 10.4656 18.8977 10.6033L19.2727 9.95375ZM16.6383 16.7293L16.108 16.199C15.9124 16.3945 15.6452 16.521 15.2655 16.6179C15.0753 16.6665 14.8724 16.704 14.6463 16.7431C14.429 16.7806 14.1803 16.8211 13.9409 16.8723L14.0977 17.6057L14.2545 18.3391C14.4563 18.296 14.6631 18.2624 14.9017 18.2212C15.1314 18.1815 15.3846 18.1356 15.6366 18.0713C16.1414 17.9424 16.7033 17.725 17.1686 17.2597L16.6383 16.7293ZM12.8943 16.4023L13.6277 16.5591C13.6789 16.3197 13.7194 16.071 13.7569 15.8537C13.796 15.6276 13.8335 15.4247 13.8821 15.2345C13.979 14.8548 14.1055 14.5876 14.301 14.392L13.7707 13.8617L13.2403 13.3314C12.775 13.7967 12.5576 14.3586 12.4287 14.8634C12.3644 15.1154 12.3185 15.3686 12.2788 15.5983C12.2376 15.8369 12.204 16.0437 12.1609 16.2455L12.8943 16.4023Z" fill="var(--stroke-0, #94A3B8)"/>
</g>
</svg>
