<svg preserveAspectRatio="none" width="100%" height="100%" overflow="visible" style="display: block;" viewBox="0 0 20 20" fill="none" xmlns="http://www.w3.org/2000/svg">
<g id="ic:round-add-reaction" clip-path="url(#clip0_0_4)">
<path id="Vector" d="M20 3.33333C20 3.79167 19.625 4.16667 19.1667 4.16667H18.3333V5C18.3333 5.45833 17.9583 5.83333 17.5 5.83333C17.0417 5.83333 16.6667 5.45833 16.6667 5V4.16667H15.8333C15.375 4.16667 15 3.79167 15 3.33333C15 2.875 15.375 2.5 15.8333 2.5H16.6667V1.66667C16.6667 1.20833 17.0417 0.833333 17.5 0.833333C17.9583 0.833333 18.3333 1.20833 18.3333 1.66667V2.5H19.1667C19.625 2.5 20 2.875 20 3.33333ZM17.9333 7.45833C18.1917 8.25833 18.3333 9.11667 18.3333 10C18.3333 14.6 14.6 18.3333 10 18.3333C5.4 18.3333 1.66667 14.6 1.66667 10C1.66667 5.4 5.4 1.66667 10 1.66667C11.25 1.66667 12.4333 1.95 13.5 2.45C13.4 2.725 13.3333 3.01667 13.3333 3.33333C13.3333 4.45833 14.0833 5.41667 15.1083 5.725C15.2639 6.23826 15.5803 6.68791 16.011 7.00753C16.4417 7.32715 16.9637 7.49981 17.5 7.5C17.65 7.5 17.7917 7.48333 17.9333 7.45833ZM5.83333 7.91667C5.83333 8.60833 6.39167 9.16667 7.08333 9.16667C7.775 9.16667 8.33333 8.60833 8.33333 7.91667C8.33333 7.225 7.775 6.66667 7.08333 6.66667C6.39167 6.66667 5.83333 7.225 5.83333 7.91667ZM13.5917 11.6667H6.40833C6.09167 11.6667 5.88333 12.0167 6.04167 12.2917C6.83333 13.6583 8.30833 14.5833 10 14.5833C11.6917 14.5833 13.1667 13.6583 13.9583 12.2917C13.9943 12.2278 14.013 12.1556 14.0123 12.0822C14.0117 12.0089 13.9918 11.937 13.9547 11.8737C13.9176 11.8105 13.8646 11.7581 13.8008 11.7217C13.7371 11.6854 13.665 11.6664 13.5917 11.6667ZM14.1667 7.91667C14.1667 7.225 13.6083 6.66667 12.9167 6.66667C12.225 6.66667 11.6667 7.225 11.6667 7.91667C11.6667 8.60833 12.225 9.16667 12.9167 9.16667C13.6083 9.16667 14.1667 8.60833 14.1667 7.91667Z" fill="var(--fill-0, #94A3B8)"/>
</g>
<defs>
<clipPath id="clip0_0_4">
<rect width="20" height="20" fill="white"/>
</clipPath>
</defs>
</svg>
