<svg preserveAspectRatio="none" width="100%" height="100%" overflow="visible" style="display: block;" viewBox="0 0 69.7706 76.414" fill="none" xmlns="http://www.w3.org/2000/svg">
<path id="Ellipse 21861" d="M35.1128 73.9765C34.9694 75.5013 33.6145 76.6313 32.104 76.3785C26.6059 75.4581 21.362 73.351 16.7426 70.191C11.3587 66.5082 7.00017 61.5162 4.07706 55.6848C1.15395 49.8533 -0.237653 43.3741 0.0331577 36.8567C0.303968 30.3393 2.22829 23.9979 5.6251 18.4291C9.02192 12.8602 13.7795 8.24705 19.4504 5.0235C25.1213 1.79995 31.519 0.071997 38.0417 0.00220172C44.5644 -0.0675936 50.9976 1.52306 56.7361 4.62452C61.6598 7.28557 65.9332 10.9837 69.2679 15.4511C70.184 16.6783 69.7993 18.4002 68.5092 19.2255V19.2255C67.2192 20.0508 65.5133 19.6656 64.5824 18.4496C61.7649 14.7694 58.195 11.7171 54.0992 9.50355C49.1883 6.8494 43.683 5.48816 38.101 5.54789C32.5191 5.60762 27.0441 7.08635 22.1911 9.84498C17.3382 12.6036 13.2667 16.5514 10.3598 21.3171C7.45292 26.0827 5.80614 31.5095 5.57439 37.087C5.34263 42.6644 6.53353 48.2091 9.03505 53.1995C11.5366 58.1898 15.2665 62.4618 19.8739 65.6136C23.7165 68.2421 28.0641 70.0194 32.6257 70.8402C34.133 71.1114 35.2562 72.4518 35.1128 73.9765V73.9765Z" fill="url(#paint0_linear_0_4)"/>
<defs>
<linearGradient id="paint0_linear_0_4" x1="38.4531" y1="4.91623e-07" x2="38.4531" y2="76.9063" gradientUnits="userSpaceOnUse">
<stop stop-color="#007BFF"/>
<stop offset="1" stop-color="white" stop-opacity="0"/>
</linearGradient>
</defs>
</svg>
