<svg preserveAspectRatio="none" width="100%" height="100%" overflow="visible" style="display: block;" viewBox="0 0 19.5 19.5" fill="none" xmlns="http://www.w3.org/2000/svg">
<g id="elements">
<path id="Vector" d="M0.21967 1.28033C-0.0732231 0.987437 -0.0732231 0.512563 0.21967 0.21967C0.512563 -0.0732233 0.987437 -0.0732233 1.28033 0.21967L0.75 0.75L0.21967 1.28033ZM8.78033 7.71967C9.07322 8.01256 9.07322 8.48744 8.78033 8.78033C8.48744 9.07322 8.01256 9.07322 7.71967 8.78033L8.25 8.25L8.78033 7.71967ZM0.75 0.75L1.28033 0.21967L8.78033 7.71967L8.25 8.25L7.71967 8.78033L0.21967 1.28033L0.75 0.75Z" fill="var(--stroke-0, white)"/>
<path id="Vector_2" d="M10.7197 11.7803C10.4268 11.4874 10.4268 11.0126 10.7197 10.7197C11.0126 10.4268 11.4874 10.4268 11.7803 10.7197L11.25 11.25L10.7197 11.7803ZM19.2803 18.2197C19.5732 18.5126 19.5732 18.9874 19.2803 19.2803C18.9874 19.5732 18.5126 19.5732 18.2197 19.2803L18.75 18.75L19.2803 18.2197ZM11.25 11.25L11.7803 10.7197L19.2803 18.2197L18.75 18.75L18.2197 19.2803L10.7197 11.7803L11.25 11.25Z" fill="var(--stroke-0, white)"/>
<path id="Vector_3" d="M4.25 8.48379C5.09441 8.49579 7.89087 9.07672 8.48379 8.48379C9.07672 7.89087 8.49579 5.09441 8.48379 4.25" stroke="var(--stroke-0, white)" stroke-width="1.5" stroke-linecap="round" stroke-linejoin="round"/>
<path id="Vector_4" d="M11.0162 15.25C11.0042 14.4056 10.4233 11.6091 11.0162 11.0162C11.6091 10.4233 14.4056 11.0042 15.25 11.0162" stroke="var(--stroke-0, white)" stroke-width="1.5" stroke-linecap="round" stroke-linejoin="round"/>
</g>
</svg>
