<svg preserveAspectRatio="none" width="100%" height="100%" overflow="visible" style="display: block;" viewBox="0 0 15.5 21.5" fill="none" xmlns="http://www.w3.org/2000/svg">
<g id="elements">
<path id="Vector" d="M5.17613 1.81269C6.43363 1.10423 7.06238 0.75 7.75 0.75C8.43762 0.75 9.06637 1.10423 10.3239 1.81269L12.0739 2.79861C13.3792 3.53401 14.0319 3.90171 14.3909 4.51664C14.75 5.13157 14.75 5.88157 14.75 7.38158V9.11842C14.75 10.6184 14.75 11.3684 14.3909 11.9834C14.0319 12.5983 13.3792 12.966 12.0739 13.7014L10.3239 14.6873C9.06637 15.3958 8.43762 15.75 7.75 15.75C7.06238 15.75 6.43363 15.3958 5.17613 14.6873L3.42613 13.7014C2.12081 12.966 1.46815 12.5983 1.10908 11.9834C0.750001 11.3684 0.750001 10.6184 0.750001 9.11841V7.38158C0.750001 5.88157 0.750001 5.13157 1.10908 4.51664C1.46815 3.90171 2.12081 3.53401 3.42613 2.79861L5.17613 1.81269Z" stroke="var(--stroke-0, #141B34)" stroke-width="1.5" stroke-linejoin="round"/>
<path id="Vector_2" d="M4.75 8.91667C4.75 8.91667 5.5 8.91667 6.25 10.25C6.25 10.25 8.63235 6.91667 10.75 6.25" stroke="var(--stroke-0, #141B34)" stroke-width="1.5" stroke-linecap="round" stroke-linejoin="round"/>
<path id="Vector_3" d="M12.6325 13.75L13.3027 16.9599C13.7333 19.0223 13.9486 20.0535 13.5063 20.5423C13.0641 21.031 12.296 20.6106 10.7599 19.7698L8.48642 18.5253C8.12339 18.3266 7.94186 18.2273 7.75 18.2273C7.55814 18.2273 7.37662 18.3266 7.01358 18.5253L4.74008 19.7698C3.20398 20.6106 2.43592 21.031 1.99365 20.5423C1.55139 20.0535 1.76669 19.0223 2.19731 16.9599L2.86752 13.75" stroke="var(--stroke-0, #141B34)" stroke-width="1.5" stroke-linecap="round" stroke-linejoin="round"/>
</g>
</svg>
