<svg preserveAspectRatio="none" width="100%" height="100%" overflow="visible" style="display: block;" viewBox="0 0 13.503 21.5" fill="none" xmlns="http://www.w3.org/2000/svg">
<g id="elements">
<path id="Vector" d="M2.75147 19.75C2.75147 18.3358 2.75147 17.6287 3.19081 17.1893C3.63015 16.75 4.33726 16.75 5.75147 16.75H7.75147C9.16569 16.75 9.87279 16.75 10.3121 17.1893C10.7515 17.6287 10.7515 18.3358 10.7515 19.75V20.75H2.75147V19.75Z" stroke="var(--stroke-0, #141B34)" stroke-width="1.5" stroke-linecap="round" stroke-linejoin="round"/>
<path id="Vector_2" d="M6.75147 11.75L6.75147 16.75" stroke="var(--stroke-0, #141B34)" stroke-width="1.5" stroke-linecap="round" stroke-linejoin="round"/>
<path id="Vector_3" d="M0.751473 20.75H12.7515" stroke="var(--stroke-0, #141B34)" stroke-width="1.5" stroke-linecap="round" stroke-linejoin="round"/>
<path id="Vector_4" d="M7.78805 1.61651L8.84394 3.74573C8.98792 4.04212 9.37188 4.32642 9.69584 4.38086L11.6096 4.70145C12.8335 4.90712 13.1215 5.80236 12.2396 6.6855L10.7517 8.18563C10.4998 8.43968 10.3618 8.92964 10.4398 9.28048L10.8657 11.1375C11.2017 12.6074 10.4278 13.176 9.13791 12.4078L7.3441 11.3371C7.02014 11.1435 6.4862 11.1435 6.15624 11.3371L4.36243 12.4078C3.07858 13.176 2.29866 12.6013 2.63462 11.1375L3.06058 9.28048C3.13857 8.92964 3.00058 8.43968 2.74861 8.18563L1.26078 6.6855C0.384873 5.80236 0.666842 4.90712 1.89071 4.70145L3.8045 4.38086C4.12246 4.32642 4.50642 4.04212 4.6504 3.74573L5.70629 1.61651C6.28222 0.461164 7.21812 0.461164 7.78805 1.61651Z" stroke="var(--stroke-0, #141B34)" stroke-width="1.5" stroke-linecap="round" stroke-linejoin="round"/>
</g>
</svg>
