<svg preserveAspectRatio="none" width="100%" height="100%" overflow="visible" style="display: block;" viewBox="0 0 24 24" fill="none" xmlns="http://www.w3.org/2000/svg">
<g id="mage:broadcast-fill">
<path id="Vector" d="M5.935 19.687C5.75392 19.6858 5.57958 19.6182 5.445 19.497C5.08595 19.1904 4.75159 18.856 4.445 18.497C2.87038 16.6977 2.00244 14.388 2.00244 11.997C2.00244 9.606 2.87038 7.29629 4.445 5.497C4.75159 5.13795 5.08595 4.80359 5.445 4.497C5.51913 4.43185 5.60538 4.38197 5.69883 4.35022C5.79227 4.31848 5.89106 4.30548 5.98953 4.31198C6.088 4.31849 6.18422 4.34436 6.27268 4.38812C6.36113 4.43188 6.44008 4.49267 6.505 4.567C6.63409 4.71782 6.69904 4.91317 6.68595 5.11126C6.67287 5.30935 6.5828 5.49446 6.435 5.627C6.1296 5.89073 5.84229 6.17471 5.575 6.477C4.25412 8.00496 3.52724 9.95725 3.52724 11.977C3.52724 13.9967 4.25412 15.949 5.575 17.477C5.84433 17.7743 6.131 18.0543 6.435 18.317C6.55238 18.4173 6.63592 18.5514 6.67423 18.701C6.71254 18.8506 6.70375 19.0084 6.64905 19.1528C6.59436 19.2972 6.49642 19.4212 6.36862 19.5078C6.24082 19.5945 6.08939 19.6396 5.935 19.637V19.687Z" fill="var(--fill-0, #E11D48)"/>
<path id="Vector_2" d="M8.405 17.127C8.23484 17.1278 8.06934 17.0714 7.935 16.967C7.5854 16.6993 7.2727 16.3866 7.005 16.037C6.06806 14.8972 5.55586 13.4675 5.55586 11.992C5.55586 10.5165 6.06806 9.08681 7.005 7.947C7.27645 7.60028 7.59252 7.29094 7.945 7.027C8.02205 6.96555 8.1106 6.9201 8.20545 6.89334C8.3003 6.86657 8.39954 6.85902 8.49735 6.87113C8.59515 6.88324 8.68956 6.91477 8.77501 6.96386C8.86047 7.01295 8.93526 7.07861 8.995 7.157C9.1015 7.31002 9.14718 7.49723 9.12315 7.68211C9.09912 7.86699 9.00708 8.03629 8.865 8.157C8.6083 8.35487 8.3766 8.58322 8.175 8.837C7.45405 9.71114 7.05975 10.8089 7.05975 11.942C7.05975 13.0751 7.45405 14.1729 8.175 15.047C8.381 15.3043 8.61433 15.5343 8.875 15.737C9.03171 15.8611 9.13323 16.0419 9.15756 16.2403C9.18189 16.4387 9.12708 16.6387 9.005 16.797C8.93722 16.8946 8.84779 16.9751 8.7437 17.0324C8.63961 17.0896 8.52369 17.122 8.405 17.127Z" fill="var(--fill-0, #E11D48)"/>
<path id="Vector_3" d="M14.955 11.997C14.945 12.541 14.7821 13.0712 14.485 13.527C14.23 13.917 13.8876 14.2423 13.485 14.477C13.0231 14.7653 12.4895 14.9178 11.945 14.917C11.4022 14.9156 10.87 14.767 10.405 14.487C9.99907 14.2352 9.65683 13.8929 9.405 13.487C9.12106 13.0253 8.97073 12.494 8.97073 11.952C8.97073 11.41 9.12106 10.8787 9.405 10.417C9.81856 9.75478 10.474 9.27988 11.2321 9.09316C11.9902 8.90643 12.7912 9.02261 13.465 9.417C13.8709 9.66883 14.2132 10.0111 14.465 10.417C14.7815 10.8834 14.9521 11.4334 14.955 11.997Z" fill="var(--fill-0, #E11D48)"/>
<path id="Vector_4" d="M15.605 17.127C15.4921 17.1264 15.3808 17.101 15.2788 17.0526C15.1769 17.0043 15.0868 16.9341 15.015 16.847C14.9533 16.7691 14.9076 16.6798 14.8807 16.5841C14.8539 16.4885 14.8462 16.3884 14.8583 16.2898C14.8704 16.1912 14.902 16.096 14.9512 16.0096C15.0004 15.9233 15.0663 15.8476 15.145 15.787C15.3982 15.5885 15.6265 15.3602 15.825 15.107C16.5514 14.2354 16.9492 13.1366 16.9492 12.002C16.9492 10.8674 16.5514 9.76863 15.825 8.897C15.6207 8.64267 15.3893 8.41131 15.135 8.207C15.0495 8.14959 14.9768 8.07519 14.9214 7.98846C14.8659 7.90172 14.8289 7.80449 14.8127 7.70283C14.7964 7.60117 14.8013 7.49726 14.8269 7.39756C14.8526 7.29786 14.8985 7.2045 14.9618 7.12332C15.0251 7.04213 15.1044 6.97484 15.1949 6.92564C15.2853 6.87645 15.3849 6.84639 15.4874 6.83736C15.59 6.82832 15.6933 6.8405 15.791 6.87312C15.8886 6.90575 15.9785 6.95813 16.055 7.027C16.4083 7.29633 16.7217 7.60633 16.995 7.957C17.9355 9.09516 18.4501 10.5255 18.4501 12.002C18.4501 13.4785 17.9355 14.9088 16.995 16.047C16.7266 16.3931 16.414 16.7024 16.065 16.967C15.9341 17.0707 15.772 17.1271 15.605 17.127Z" fill="var(--fill-0, #E11D48)"/>
<path id="Vector_5" d="M18.065 19.687C17.9115 19.6875 17.7615 19.6409 17.6353 19.5535C17.5091 19.466 17.4128 19.3419 17.3593 19.198C17.3059 19.0541 17.2979 18.8972 17.3365 18.7486C17.3751 18.6 17.4583 18.4668 17.575 18.367C17.8783 18.1037 18.1617 17.8203 18.425 17.517C19.7517 15.9918 20.4825 14.0385 20.4825 12.017C20.4825 9.99552 19.7517 8.04217 18.425 6.517C18.1587 6.22031 17.8748 5.9398 17.575 5.677C17.4258 5.54584 17.3338 5.36144 17.3188 5.16331C17.3039 4.96518 17.3671 4.76908 17.495 4.617C17.5599 4.54267 17.6389 4.48188 17.7273 4.43812C17.8158 4.39436 17.912 4.36849 18.0105 4.36198C18.1089 4.35548 18.2077 4.36848 18.3012 4.40022C18.3946 4.43197 18.4809 4.48185 18.555 4.547C18.913 4.85475 19.2473 5.18903 19.555 5.547C21.1296 7.34629 21.9976 9.656 21.9976 12.047C21.9976 14.438 21.1296 16.7477 19.555 18.547C19.2473 18.905 18.913 19.2393 18.555 19.547C18.4151 19.6536 18.2401 19.7036 18.065 19.687Z" fill="var(--fill-0, #E11D48)"/>
</g>
</svg>
