<svg preserveAspectRatio="none" width="100%" height="100%" overflow="visible" style="display: block;" viewBox="0 0 20 20" fill="none" xmlns="http://www.w3.org/2000/svg">
<g id="mage:broadcast-fill">
<path id="Vector" d="M4.94583 16.4058C4.79493 16.4048 4.64965 16.3485 4.5375 16.2475C4.23829 15.992 3.95966 15.7134 3.70417 15.4142C2.39198 13.9148 1.6687 11.99 1.6687 9.9975C1.6687 8.005 2.39198 6.08024 3.70417 4.58083C3.95966 4.28163 4.23829 4.00299 4.5375 3.7475C4.59927 3.69321 4.67115 3.65164 4.74902 3.62519C4.82689 3.59873 4.90921 3.5879 4.99127 3.59332C5.07334 3.59874 5.15352 3.6203 5.22723 3.65677C5.30095 3.69323 5.36674 3.74389 5.42083 3.80583C5.52841 3.93152 5.58253 4.09431 5.57163 4.25938C5.56073 4.42446 5.48567 4.57872 5.3625 4.68917C5.108 4.90894 4.86857 5.14559 4.64583 5.3975C3.5451 6.6708 2.93937 8.29771 2.93937 9.98083C2.93937 11.664 3.5451 13.2909 4.64583 14.5642C4.87028 14.8119 5.10917 15.0453 5.3625 15.2642C5.46031 15.3478 5.52994 15.4595 5.56186 15.5842C5.59379 15.7088 5.58646 15.8403 5.54088 15.9606C5.4953 16.081 5.41368 16.1843 5.30719 16.2565C5.20069 16.3288 5.07449 16.3663 4.94583 16.3642V16.4058Z" fill="var(--fill-0, #E11D48)"/>
<path id="Vector_2" d="M7.00417 14.2725C6.86237 14.2732 6.72445 14.2262 6.6125 14.1392C6.32117 13.9161 6.06058 13.6555 5.8375 13.3642C5.05672 12.4143 4.62988 11.2229 4.62988 9.99333C4.62988 8.76377 5.05672 7.57234 5.8375 6.6225C6.06371 6.33357 6.3271 6.07578 6.62083 5.85583C6.68504 5.80462 6.75883 5.76675 6.83787 5.74445C6.91691 5.72214 6.99962 5.71585 7.08112 5.72594C7.16263 5.73603 7.2413 5.76231 7.31251 5.80321C7.38373 5.84412 7.44605 5.89884 7.49583 5.96417C7.58458 6.09169 7.62265 6.24769 7.60263 6.40176C7.5826 6.55582 7.5059 6.69691 7.3875 6.7975C7.17358 6.9624 6.9805 7.15268 6.8125 7.36417C6.21171 8.09262 5.88313 9.00743 5.88313 9.95167C5.88313 10.8959 6.21171 11.8107 6.8125 12.5392C6.98417 12.7536 7.17861 12.9453 7.39583 13.1142C7.52643 13.2176 7.61102 13.3683 7.6313 13.5336C7.65158 13.6989 7.6059 13.8656 7.50417 13.9975C7.44769 14.0788 7.37316 14.1459 7.28642 14.1936C7.19968 14.2413 7.10307 14.2683 7.00417 14.2725Z" fill="var(--fill-0, #E11D48)"/>
<path id="Vector_3" d="M12.4625 9.9975C12.4541 10.4508 12.3184 10.8927 12.0708 11.2725C11.8583 11.5975 11.573 11.8686 11.2375 12.0642C10.8526 12.3044 10.4079 12.4315 9.95417 12.4308C9.50185 12.4297 9.05832 12.3058 8.67083 12.0725C8.33256 11.8626 8.04736 11.5774 7.8375 11.2392C7.60088 10.8545 7.47561 10.4117 7.47561 9.96C7.47561 9.50835 7.60088 9.06554 7.8375 8.68083C8.18213 8.12899 8.72833 7.73323 9.36007 7.57763C9.99181 7.42203 10.6593 7.51884 11.2208 7.8475C11.5591 8.05736 11.8443 8.34256 12.0542 8.68083C12.3179 9.06948 12.4601 9.52782 12.4625 9.9975Z" fill="var(--fill-0, #E11D48)"/>
<path id="Vector_4" d="M13.0042 14.2725C12.9101 14.272 12.8173 14.2509 12.7324 14.2105C12.6474 14.1702 12.5723 14.1117 12.5125 14.0392C12.4611 13.9743 12.423 13.8998 12.4006 13.8201C12.3782 13.7404 12.3719 13.657 12.3819 13.5748C12.392 13.4927 12.4183 13.4133 12.4593 13.3414C12.5003 13.2694 12.5552 13.2064 12.6208 13.1558C12.8318 12.9904 13.0221 12.8002 13.1875 12.5892C13.7928 11.8628 14.1243 10.9472 14.1243 10.0017C14.1243 9.05613 13.7928 8.14053 13.1875 7.41417C13.0172 7.20222 12.8244 7.00942 12.6125 6.83917C12.5413 6.79132 12.4807 6.72933 12.4345 6.65705C12.3883 6.58477 12.3574 6.50374 12.3439 6.41903C12.3304 6.33431 12.3344 6.24772 12.3558 6.16463C12.3772 6.08155 12.4154 6.00375 12.4682 5.9361C12.5209 5.86844 12.587 5.81236 12.6624 5.77137C12.7378 5.73037 12.8207 5.70533 12.9062 5.6978C12.9917 5.69027 13.0778 5.70041 13.1591 5.7276C13.2405 5.75479 13.3154 5.79844 13.3792 5.85583C13.6736 6.08028 13.9347 6.33861 14.1625 6.63083C14.9463 7.5793 15.375 8.77126 15.375 10.0017C15.375 11.2321 14.9463 12.424 14.1625 13.3725C13.9389 13.6609 13.6783 13.9187 13.3875 14.1392C13.2784 14.2256 13.1433 14.2726 13.0042 14.2725Z" fill="var(--fill-0, #E11D48)"/>
<path id="Vector_5" d="M15.0542 16.4058C14.9262 16.4063 14.8012 16.3674 14.6961 16.2946C14.5909 16.2217 14.5106 16.1183 14.4661 15.9983C14.4216 15.8784 14.4149 15.7477 14.4471 15.6238C14.4792 15.5 14.5486 15.389 14.6458 15.3058C14.8986 15.0864 15.1347 14.8503 15.3542 14.5975C16.4598 13.3265 17.0687 11.6987 17.0687 10.0142C17.0687 8.3296 16.4598 6.7018 15.3542 5.43083C15.1322 5.18359 14.8957 4.94984 14.6458 4.73083C14.5215 4.62153 14.4448 4.46787 14.4324 4.30276C14.4199 4.13765 14.4726 3.97423 14.5792 3.8475C14.6333 3.78556 14.6991 3.7349 14.7728 3.69843C14.8465 3.66197 14.9267 3.64041 15.0087 3.63499C15.0908 3.62957 15.1731 3.6404 15.251 3.66685C15.3288 3.69331 15.4007 3.73488 15.4625 3.78917C15.7608 4.04562 16.0394 4.32419 16.2958 4.6225C17.608 6.12191 18.3313 8.04667 18.3313 10.0392C18.3313 12.0317 17.608 13.9564 16.2958 15.4558C16.0394 15.7541 15.7608 16.0327 15.4625 16.2892C15.3459 16.378 15.2001 16.4196 15.0542 16.4058Z" fill="var(--fill-0, #E11D48)"/>
</g>
</svg>
