<svg preserveAspectRatio="none" width="100%" height="100%" overflow="visible" style="display: block;" viewBox="0 0 17.2 18" fill="none" xmlns="http://www.w3.org/2000/svg">
<g id="elements">
<path id="Vector" d="M13.4 1V2.6M3.8 1V2.6" stroke="var(--stroke-0, #94A3B8)" stroke-width="2" stroke-linecap="round" stroke-linejoin="round"/>
<path id="Vector_2" d="M8.59641 9.8H8.60359M8.59641 13H8.60359M11.7928 9.8H11.8M5.4 9.8H5.40718M5.4 13H5.40718" stroke="var(--stroke-0, #94A3B8)" stroke-width="2" stroke-linecap="round" stroke-linejoin="round"/>
<path id="Vector_3" d="M1.8 5.8H15.4" stroke="var(--stroke-0, #94A3B8)" stroke-width="2" stroke-linecap="round" stroke-linejoin="round"/>
<path id="Vector_4" d="M1 9.19459C1 5.70875 1 3.96583 2.0017 2.88291C3.00339 1.8 4.61559 1.8 7.84 1.8H9.36C12.5844 1.8 14.1966 1.8 15.1983 2.88291C16.2 3.96583 16.2 5.70875 16.2 9.19459V9.60541C16.2 13.0913 16.2 14.8342 15.1983 15.9171C14.1966 17 12.5844 17 9.36 17H7.84C4.61559 17 3.00339 17 2.0017 15.9171C1 14.8342 1 13.0913 1 9.60541V9.19459Z" stroke="var(--stroke-0, #94A3B8)" stroke-width="2" stroke-linecap="round" stroke-linejoin="round"/>
<path id="Vector_5" d="M1.4 5.8H15.8" stroke="var(--stroke-0, #94A3B8)" stroke-width="2" stroke-linecap="round" stroke-linejoin="round"/>
</g>
</svg>
