<svg preserveAspectRatio="none" width="100%" height="100%" overflow="visible" style="display: block;" viewBox="0 0 15.75 16.5" fill="none" xmlns="http://www.w3.org/2000/svg">
<g id="elements">
<path id="Vector" d="M12.375 0.75V2.25M3.375 0.75V2.25" stroke="var(--stroke-0, #94A3B8)" stroke-width="1.5" stroke-linecap="round" stroke-linejoin="round"/>
<path id="Vector_2" d="M7.87164 9H7.87837M7.87164 12H7.87837M10.8683 9H10.875M4.875 9H4.88173M4.875 12H4.88173" stroke="var(--stroke-0, #94A3B8)" stroke-width="2" stroke-linecap="round" stroke-linejoin="round"/>
<path id="Vector_3" d="M1.5 5.25H14.25" stroke="var(--stroke-0, #94A3B8)" stroke-width="1.5" stroke-linecap="round" stroke-linejoin="round"/>
<path id="Vector_4" d="M0.750001 8.43243C0.750001 5.16445 0.750001 3.53046 1.68909 2.51523C2.62818 1.5 4.13962 1.5 7.1625 1.5H8.5875C11.6104 1.5 13.1218 1.5 14.0609 2.51523C15 3.53046 15 5.16445 15 8.43243V8.81757C15 12.0855 15 13.7195 14.0609 14.7348C13.1218 15.75 11.6104 15.75 8.5875 15.75H7.1625C4.13962 15.75 2.62818 15.75 1.68909 14.7348C0.750001 13.7195 0.750001 12.0855 0.750001 8.81757V8.43243Z" stroke="var(--stroke-0, #94A3B8)" stroke-width="1.5" stroke-linecap="round" stroke-linejoin="round"/>
<path id="Vector_5" d="M1.125 5.25H14.625" stroke="var(--stroke-0, #94A3B8)" stroke-width="1.5" stroke-linecap="round" stroke-linejoin="round"/>
</g>
</svg>
