<svg preserveAspectRatio="none" width="100%" height="100%" overflow="visible" style="display: block;" viewBox="0 0 11.5 11" fill="none" xmlns="http://www.w3.org/2000/svg">
<g id="elements">
<g id="Vector">
<path d="M6.75 0.750002H4.75C2.86438 0.750002 1.92158 0.750002 1.33579 1.33579C0.750002 1.92158 0.750002 2.86438 0.750002 4.75V5C0.750002 6.88562 0.750002 7.82843 1.33579 8.41422C1.66238 8.74081 2.14935 8.93606 2.79941 9C2.68287 9.46709 2.6169 9.96587 2.90785 10.1826C3.153 10.3609 3.54365 10.1704 4.32494 9.78944C4.87326 9.52207 5.42811 9.21546 6.0273 9.07752C6.24657 9.02757 6.46977 9.00625 6.75 9C8.63562 9 9.57843 9 10.1642 8.41422C10.75 7.82843 10.75 6.88562 10.75 5V4.75C10.75 2.86438 10.75 1.92158 10.1642 1.33579C9.57843 0.750002 8.63562 0.750002 6.75 0.750002Z" fill="var(--fill-0, #94A3B8)"/>
<path d="M2.79941 9C2.14935 8.93606 1.66238 8.74081 1.33579 8.41422C0.750002 7.82843 0.750002 6.88562 0.750002 5V4.75C0.750002 2.86438 0.750002 1.92158 1.33579 1.33579C1.92158 0.750002 2.86438 0.750002 4.75 0.750002H6.75C8.63562 0.750002 9.57843 0.750002 10.1642 1.33579C10.75 1.92158 10.75 2.86438 10.75 4.75V5C10.75 6.88562 10.75 7.82843 10.1642 8.41422C9.57843 9 8.63562 9 6.75 9C6.46977 9.00625 6.24657 9.02757 6.0273 9.07752C5.42811 9.21546 4.87326 9.52207 4.32494 9.78944C3.54365 10.1704 3.153 10.3609 2.90785 10.1826C2.43885 9.83326 2.89727 8.75093 3 8.25" stroke="var(--stroke-0, #94A3B8)" stroke-width="1.5" stroke-linecap="round"/>
</g>
<path id="Vector_2" d="M3.75 6.25H7.75M3.75 3.75H5.75" stroke="var(--stroke-0, white)" stroke-width="1.5" stroke-linecap="round" stroke-linejoin="round"/>
</g>
</svg>
