<svg preserveAspectRatio="none" width="100%" height="100%" overflow="visible" style="display: block;" viewBox="0 0 21.2 20.2" fill="none" xmlns="http://www.w3.org/2000/svg">
<g id="elements">
<path id="Vector" d="M6.6 11.6H14.6M6.6 6.6H10.6" stroke="var(--stroke-0, #007BFF)" stroke-width="1.2" stroke-linecap="round" stroke-linejoin="round"/>
<path id="Vector_2" d="M4.69881 17.1C3.3987 16.9721 2.42476 16.5816 1.77157 15.9284C0.6 14.7569 0.6 12.8712 0.6 9.1V8.6C0.6 4.82876 0.6 2.94315 1.77157 1.77157C2.94315 0.6 4.82876 0.6 8.6 0.6H12.6C16.3712 0.6 18.2569 0.6 19.4284 1.77157C20.6 2.94315 20.6 4.82876 20.6 8.6V9.1C20.6 12.8712 20.6 14.7569 19.4284 15.9284C18.2569 17.1 16.3712 17.1 12.6 17.1C12.0395 17.1125 11.5931 17.1551 11.1546 17.255C9.95623 17.5309 8.84652 18.1441 7.74987 18.6789C6.18729 19.4408 5.406 19.8218 4.9157 19.4651C3.97769 18.7665 4.89454 16.6019 5.1 15.6" stroke="var(--stroke-0, #007BFF)" stroke-width="1.2" stroke-linecap="round"/>
</g>
</svg>
