<svg preserveAspectRatio="none" width="100%" height="100%" overflow="visible" style="display: block;" viewBox="0 0 14.8333 14.8333" fill="none" xmlns="http://www.w3.org/2000/svg">
<g id="elements">
<path id="Vector" d="M5.41667 9.41667C5.41667 7.53105 5.41667 6.58824 6.00245 6.00245C6.58824 5.41667 7.53105 5.41667 9.41667 5.41667L10.0833 5.41667C11.969 5.41667 12.9118 5.41667 13.4975 6.00245C14.0833 6.58824 14.0833 7.53105 14.0833 9.41667V10.0833C14.0833 11.969 14.0833 12.9118 13.4975 13.4975C12.9118 14.0833 11.969 14.0833 10.0833 14.0833H9.41667C7.53105 14.0833 6.58824 14.0833 6.00245 13.4975C5.41667 12.9118 5.41667 11.969 5.41667 10.0833L5.41667 9.41667Z" stroke="var(--stroke-0, white)" stroke-width="1.5" stroke-linecap="round" stroke-linejoin="round"/>
<path id="Vector_2" d="M10.7499 5.41667C10.7484 3.44527 10.7185 2.42414 10.1447 1.72495C10.0339 1.58993 9.91008 1.46612 9.77505 1.35531C9.03748 0.750001 7.94166 0.750001 5.75 0.750001C3.55835 0.750001 2.46252 0.750001 1.72495 1.35531C1.58993 1.46612 1.46612 1.58993 1.35531 1.72495C0.750001 2.46252 0.750001 3.55835 0.750001 5.75C0.750001 7.94165 0.750001 9.03748 1.35531 9.77505C1.46612 9.91007 1.58993 10.0339 1.72495 10.1447C2.42414 10.7185 3.44527 10.7484 5.41667 10.7499" stroke="var(--stroke-0, white)" stroke-width="1.5" stroke-linecap="round" stroke-linejoin="round"/>
</g>
</svg>
