<svg preserveAspectRatio="none" width="100%" height="100%" overflow="visible" style="display: block;" viewBox="0 0 16.5 18.1667" fill="none" xmlns="http://www.w3.org/2000/svg">
<g id="elements">
<path id="Vector" d="M14.5 3.66667L13.9836 12.0209C13.8516 14.1554 13.7856 15.2226 13.2506 15.9899C12.9861 16.3692 12.6455 16.6894 12.2506 16.93C11.4518 17.4167 10.3825 17.4167 8.24395 17.4167C6.1026 17.4167 5.03192 17.4167 4.23254 16.9291C3.83733 16.6881 3.49666 16.3673 3.23224 15.9874C2.6974 15.2188 2.63288 14.1501 2.50384 12.0126L2 3.66667" stroke="var(--stroke-0, #334155)" stroke-width="1.5" stroke-linecap="round"/>
<path id="Vector_2" d="M0.75 3.66667H15.75M11.6298 3.66667L11.0609 2.49311C10.683 1.71355 10.494 1.32377 10.1681 1.08067C10.0958 1.02675 10.0192 0.978787 9.93919 0.937253C9.57826 0.750002 9.1451 0.750002 8.27877 0.750002C7.39069 0.750002 6.94665 0.750002 6.57974 0.945101C6.49842 0.988342 6.42082 1.03825 6.34774 1.09431C6.01803 1.34725 5.83386 1.7513 5.4655 2.55938L4.96077 3.66667" stroke="var(--stroke-0, #334155)" stroke-width="1.5" stroke-linecap="round"/>
<path id="Vector_3" d="M6.16667 12.8333L6.16667 7.83334" stroke="var(--stroke-0, #334155)" stroke-width="1.5" stroke-linecap="round"/>
<path id="Vector_4" d="M10.3333 12.8333L10.3333 7.83334" stroke="var(--stroke-0, #334155)" stroke-width="1.5" stroke-linecap="round"/>
</g>
</svg>
