<svg preserveAspectRatio="none" width="100%" height="100%" overflow="visible" style="display: block;" viewBox="0 0 18.1666 18.1675" fill="none" xmlns="http://www.w3.org/2000/svg">
<g id="elements">
<path id="Vector" d="M10.8113 2.32121C11.4323 1.6484 11.7428 1.312 12.0727 1.11577C12.8688 0.642299 13.8491 0.627576 14.6585 1.07694C14.994 1.26317 15.314 1.5901 15.9541 2.24397C16.5942 2.89784 16.9142 3.22477 17.0965 3.56744C17.5364 4.39427 17.522 5.39566 17.0585 6.20892C16.8664 6.54596 16.5371 6.86315 15.8785 7.49751L8.04208 15.0452C6.79395 16.2474 6.16989 16.8485 5.38994 17.1531C4.60999 17.4577 3.75256 17.4353 2.03769 17.3905L1.80437 17.3844C1.28231 17.3707 1.02128 17.3639 0.869543 17.1917C0.717807 17.0195 0.738522 16.7536 0.779954 16.2218L0.802451 15.933C0.919061 14.4363 0.977366 13.6879 1.26964 13.0152C1.56192 12.3425 2.06608 11.7962 3.07441 10.7038L10.8113 2.32121Z" stroke="var(--stroke-0, #334155)" stroke-width="1.5" stroke-linejoin="round"/>
<path id="Vector_2" d="M9.91655 2.41667L15.7499 8.25" stroke="var(--stroke-0, #334155)" stroke-width="1.5" stroke-linejoin="round"/>
<path id="Vector_3" d="M10.7499 17.4167L17.4166 17.4167" stroke="var(--stroke-0, #334155)" stroke-width="1.5" stroke-linecap="round" stroke-linejoin="round"/>
</g>
</svg>
