<svg preserveAspectRatio="none" width="100%" height="100%" overflow="visible" style="display: block;" viewBox="0 0 18.0001 13.5" fill="none" xmlns="http://www.w3.org/2000/svg">
<g id="elements">
<path id="Vector" d="M15.5806 11.25C16.1425 11.25 16.5895 10.8964 16.9909 10.4019C17.8125 9.38959 16.4635 8.58063 15.949 8.18445C15.4261 7.78171 14.8421 7.55356 14.25 7.5M13.5 6C14.5356 6 15.375 5.16053 15.375 4.125C15.375 3.08947 14.5356 2.25 13.5 2.25" stroke="var(--stroke-0, #64748B)" stroke-width="1.5" stroke-linecap="round"/>
<path id="Vector_2" d="M2.41951 11.25C1.85754 11.25 1.41055 10.8964 1.0092 10.4019C0.187611 9.38959 1.53655 8.58063 2.05103 8.18445C2.57403 7.78171 3.15798 7.55356 3.75004 7.5M4.12504 6C3.08951 6 2.25004 5.16053 2.25004 4.125C2.25004 3.08947 3.08951 2.25 4.12504 2.25" stroke="var(--stroke-0, #64748B)" stroke-width="1.5" stroke-linecap="round"/>
<path id="Vector_3" d="M6.06287 9.08339C5.29654 9.55725 3.28726 10.5248 4.51104 11.7356C5.10885 12.327 5.77466 12.75 6.61174 12.75H11.3883C12.2254 12.75 12.8912 12.327 13.489 11.7356C14.7128 10.5248 12.7035 9.55725 11.9372 9.08339C10.1401 7.9722 7.85991 7.9722 6.06287 9.08339Z" stroke="var(--stroke-0, #64748B)" stroke-width="1.5" stroke-linecap="round" stroke-linejoin="round"/>
<path id="Vector_4" d="M11.625 3.375C11.625 4.82475 10.4498 6 9.00002 6C7.55027 6 6.37502 4.82475 6.37502 3.375C6.37502 1.92525 7.55027 0.75 9.00002 0.75C10.4498 0.75 11.625 1.92525 11.625 3.375Z" stroke="var(--stroke-0, #64748B)" stroke-width="1.5"/>
</g>
</svg>
