<svg preserveAspectRatio="none" width="100%" height="100%" overflow="visible" style="display: block;" viewBox="0 0 14.8333 14.1667" fill="none" xmlns="http://www.w3.org/2000/svg">
<g id="elements">
<path id="Vector" d="M5.08333 8.75H9.75M5.08333 5.41667H7.41667" stroke="var(--stroke-0, #030507)" stroke-width="1.5" stroke-linecap="round" stroke-linejoin="round"/>
<path id="Vector_2" d="M8.86374 13.0104C11.6524 12.825 13.8737 10.5722 14.0565 7.74392C14.0923 7.19045 14.0923 6.61728 14.0565 6.06382C13.8737 3.23558 11.6524 0.982755 8.86374 0.797383C7.91235 0.734141 6.91904 0.73427 5.9696 0.797383C3.18092 0.982755 0.959606 3.23558 0.776827 6.06382C0.741058 6.61728 0.741058 7.19045 0.776827 7.74392C0.843397 8.77399 1.29895 9.72774 1.83527 10.5331C2.14667 11.0969 1.94116 11.8006 1.61681 12.4152C1.38294 12.8584 1.26601 13.08 1.35989 13.2401C1.45378 13.4001 1.66351 13.4052 2.08295 13.4155C2.91244 13.4356 3.47179 13.2005 3.91579 12.8731C4.1676 12.6874 4.29351 12.5945 4.38029 12.5839C4.46707 12.5732 4.63784 12.6435 4.97934 12.7842C5.28627 12.9106 5.64264 12.9886 5.9696 13.0104C6.91904 13.0735 7.91235 13.0736 8.86374 13.0104Z" stroke="var(--stroke-0, #030507)" stroke-width="1.5" stroke-linejoin="round"/>
</g>
</svg>
