<svg preserveAspectRatio="none" width="100%" height="100%" overflow="visible" style="display: block;" viewBox="0 0 16.5 15.75" fill="none" xmlns="http://www.w3.org/2000/svg">
<g id="elements">
<path id="Vector" d="M5.625 9.75H10.875M5.625 6H8.25" stroke="var(--stroke-0, #94A3B8)" stroke-width="1.5" stroke-linecap="round" stroke-linejoin="round"/>
<path id="Vector_2" d="M9.87795 14.5429C13.0152 14.3344 15.5142 11.7999 15.7198 8.61816C15.7601 7.99551 15.7601 7.35069 15.7198 6.72804C15.5142 3.54628 13.0152 1.01185 9.87795 0.803306C8.80764 0.732159 7.69018 0.732304 6.62205 0.803306C3.48479 1.01185 0.985807 3.54628 0.78018 6.72804C0.73994 7.35069 0.73994 7.99551 0.78018 8.61816C0.855071 9.77699 1.36757 10.85 1.97093 11.756C2.32126 12.3902 2.09006 13.1819 1.72516 13.8734C1.46206 14.3719 1.33051 14.6212 1.43613 14.8013C1.54176 14.9814 1.77769 14.9872 2.24957 14.9986C3.18275 15.0214 3.81201 14.7568 4.31151 14.3885C4.5948 14.1796 4.73645 14.0751 4.83408 14.0631C4.9317 14.0511 5.12383 14.1302 5.50801 14.2885C5.8533 14.4307 6.25422 14.5184 6.62205 14.5429C7.69018 14.6139 8.80764 14.614 9.87795 14.5429Z" stroke="var(--stroke-0, #94A3B8)" stroke-width="1.5" stroke-linejoin="round"/>
</g>
</svg>
