<svg preserveAspectRatio="none" width="100%" height="100%" overflow="visible" style="display: block;" viewBox="0 0 14.5 3.25" fill="none" xmlns="http://www.w3.org/2000/svg">
<g id="elements">
<path id="Vector" d="M14 1.625C14 1.00368 13.4963 0.5 12.875 0.5C12.2537 0.5 11.75 1.00368 11.75 1.625C11.75 2.24632 12.2537 2.75 12.875 2.75C13.4963 2.75 14 2.24632 14 1.625Z" fill="var(--fill-0, #94A3B8)" stroke="var(--stroke-0, #94A3B8)"/>
<path id="Vector_2" d="M8.375 1.625C8.375 1.00368 7.87132 0.5 7.25 0.5C6.62868 0.5 6.125 1.00368 6.125 1.625C6.125 2.24632 6.62868 2.75 7.25 2.75C7.87132 2.75 8.375 2.24632 8.375 1.625Z" fill="var(--fill-0, #94A3B8)" stroke="var(--stroke-0, #94A3B8)"/>
<path id="Vector_3" d="M2.75 1.625C2.75 1.00368 2.24632 0.5 1.625 0.5C1.00368 0.5 0.5 1.00368 0.5 1.625C0.5 2.24632 1.00368 2.75 1.625 2.75C2.24632 2.75 2.75 2.24632 2.75 1.625Z" fill="var(--fill-0, #94A3B8)" stroke="var(--stroke-0, #94A3B8)"/>
</g>
</svg>
