<svg preserveAspectRatio="none" width="100%" height="100%" overflow="visible" style="display: block;" viewBox="0 0 40.996 41" fill="none" xmlns="http://www.w3.org/2000/svg">
<g id="Group">
<path id="Vector" d="M13.5435 12.6764C14.1146 12.6764 14.68 12.5639 15.2075 12.3454C15.7351 12.1269 16.2144 11.8066 16.6182 11.4028C17.022 10.999 17.3423 10.5197 17.5608 9.99215C17.7793 9.4646 17.8918 8.89918 17.8918 8.32817C17.8918 7.75716 17.7793 7.19174 17.5608 6.66419C17.3423 6.13664 17.022 5.6573 16.6182 5.25354C16.2144 4.84977 15.7351 4.52948 15.2075 4.31097C14.68 4.09245 14.1146 3.97998 13.5435 3.97998C12.3903 3.97998 11.2843 4.43809 10.4689 5.25354C9.65343 6.06898 9.19531 7.17496 9.19531 8.32817C9.19531 9.48138 9.65343 10.5874 10.4689 11.4028C11.2843 12.2183 12.3903 12.6764 13.5435 12.6764Z" fill="var(--fill-0, #FFBFC5)"/>
<path id="Vector_2" d="M34.4118 10.0619C34.8752 10.0725 35.3359 9.9904 35.7671 9.82041C36.1983 9.65043 36.5911 9.39598 36.9225 9.07204C37.254 8.7481 37.5173 8.36118 37.6971 7.93403C37.8769 7.50687 37.9695 7.04809 37.9695 6.58463C37.9695 6.12118 37.8769 5.6624 37.6971 5.23524C37.5173 4.80809 37.254 4.42117 36.9225 4.09723C36.5911 3.77328 36.1983 3.51884 35.7671 3.34886C35.3359 3.17887 34.8752 3.09676 34.4118 3.10735C33.4893 3.10735 32.6046 3.47381 31.9523 4.12609C31.3 4.77838 30.9336 5.66307 30.9336 6.58554C30.9336 7.50802 31.3 8.39271 31.9523 9.04499C32.6046 9.69728 33.4893 10.0619 34.4118 10.0619Z" fill="var(--fill-0, #C2F3FF)"/>
<path id="Vector_3" d="M33.5407 27.4564C33.9975 27.4564 34.4498 27.3664 34.8718 27.1916C35.2938 27.0168 35.6772 26.7606 36.0002 26.4376C36.3232 26.1147 36.5794 25.7312 36.7542 25.3092C36.929 24.8872 37.0189 24.435 37.0189 23.9782C37.0189 23.5214 36.929 23.0691 36.7542 22.6471C36.5794 22.2251 36.3232 21.8417 36.0002 21.5187C35.6772 21.1958 35.2938 20.9396 34.8718 20.7648C34.4498 20.59 33.9975 20.5 33.5407 20.5C32.6182 20.5 31.7335 20.8665 31.0812 21.5187C30.429 22.171 30.0625 23.0557 30.0625 23.9782C30.0625 24.9007 30.429 25.7854 31.0812 26.4376C31.7335 27.0899 32.6182 27.4564 33.5407 27.4564Z" fill="var(--fill-0, #C9F7CA)"/>
<path id="Vector_4" d="M28.294 20.8764C29.9132 19.2604 32.1074 18.3528 34.395 18.3528C36.6826 18.3528 38.8768 19.2604 40.496 20.8764M20.094 12.7055C20.8962 11.9045 21.5327 10.9532 21.9669 9.90607C22.4012 8.8589 22.6247 7.73638 22.6247 6.60274C22.6247 5.4691 22.4012 4.34658 21.9669 3.29941C21.5327 2.25224 20.8962 1.30096 20.094 0.5M31.0613 13.9764L37.165 11.9455M26.994 9.91275L29.0304 3.80728M13.9157 8.36365C13.9157 8.30635 13.9044 8.24961 13.8825 8.19666C13.8606 8.14372 13.8284 8.09562 13.7879 8.0551C13.7474 8.01458 13.6993 7.98243 13.6463 7.9605C13.5934 7.93858 13.5366 7.92729 13.4793 7.92729C13.3639 7.92729 13.2532 7.97301 13.1714 8.05445C13.0896 8.13589 13.0435 8.24642 13.043 8.36183C13.043 8.47757 13.0889 8.58856 13.1708 8.67039C13.2526 8.75223 13.3636 8.7982 13.4793 8.7982" stroke="var(--stroke-0, #191919)" stroke-linecap="round" stroke-linejoin="round"/>
<path id="Vector_5" d="M13.9168 8.3623C13.9168 8.47804 13.8709 8.58903 13.789 8.67086C13.7072 8.7527 13.5962 8.79867 13.4805 8.79867M26.9606 13.5805C26.9601 13.4651 26.9139 13.3546 26.8322 13.2731C26.7504 13.1917 26.6397 13.146 26.5242 13.146C26.4088 13.1464 26.2983 13.1908 26.2169 13.2726C26.1354 13.3544 26.0897 13.4651 26.0897 13.5805" stroke="var(--stroke-0, #191919)" stroke-linecap="round" stroke-linejoin="round"/>
<path id="Vector_6" d="M26.0898 13.5799C26.0898 13.6956 26.1358 13.8066 26.2177 13.8884C26.2995 13.9703 26.4105 14.0163 26.5262 14.0163C26.6413 14.0158 26.7516 13.9698 26.833 13.8885C26.9143 13.8071 26.9603 13.6968 26.9608 13.5817M33.4826 24.4508C33.3672 24.4508 33.2565 24.4051 33.1747 24.3237C33.093 24.2422 33.0468 24.1317 33.0463 24.0163C33.0463 23.9005 33.0923 23.7896 33.1741 23.7077C33.2559 23.6259 33.3669 23.5817 33.4826 23.5817C33.5978 23.5822 33.708 23.6281 33.7894 23.7095C33.8708 23.7909 33.9167 23.9012 33.9172 24.0163C33.9172 24.132 33.8712 24.243 33.7894 24.3248C33.7076 24.4067 33.5966 24.4526 33.4808 24.4526M34.3517 6.19078C34.4672 6.19078 34.5779 6.23651 34.6597 6.31795C34.7415 6.39939 34.7876 6.50991 34.7881 6.62533C34.7876 6.74043 34.7399 6.85068 34.6585 6.93207C34.5771 7.01346 34.4669 7.0594 34.3517 7.05988C34.236 7.05988 34.125 7.0139 34.0432 6.93207C33.9614 6.85023 33.9154 6.73924 33.9154 6.62351M33.9172 6.62533C33.9172 6.50991 33.9629 6.3992 34.0444 6.31741C34.1258 6.23563 34.2363 6.18945 34.3517 6.18896" stroke="var(--stroke-0, #191919)" stroke-linecap="round" stroke-linejoin="round"/>
<path id="Vector_7" d="M25.9679 28.4566L3.94945 40.2239C3.50567 40.4607 2.99754 40.5485 2.50005 40.4744C2.00256 40.4003 1.54206 40.1683 1.1865 39.8126C0.830948 39.4568 0.599173 38.9962 0.525382 38.4986C0.451591 38.0011 0.539693 37.493 0.776687 37.0494L12.5423 15.0312L25.9679 28.4566Z" fill="var(--fill-0, #FFEF5E)"/>
<path id="Vector_8" d="M19.255 21.744L12.5422 15.0312L0.778488 37.0495C0.542196 37.4938 0.455106 38.0024 0.530084 38.5001C0.605061 38.9978 0.83813 39.4581 1.19486 39.8131L19.255 21.744Z" fill="var(--fill-0, #FFF9BF)"/>
<path id="Vector_9" d="M25.9679 28.4566L3.94945 40.2239C3.50567 40.4607 2.99754 40.5485 2.50005 40.4744C2.00256 40.4003 1.54206 40.1683 1.1865 39.8126C0.830948 39.4568 0.599173 38.9962 0.525382 38.4986C0.451591 38.0011 0.539693 37.493 0.776687 37.0494L12.5423 15.0312" stroke="var(--stroke-0, #191919)" stroke-linecap="round" stroke-linejoin="round"/>
<path id="Vector_10" d="M26.3937 28.1332C28.0919 26.435 26.441 22.0295 22.7046 18.295C18.9682 14.5604 14.5645 12.9077 12.8681 14.6041C11.1681 16.3023 12.8208 20.7077 16.5554 24.4423C20.2918 28.1786 24.6955 29.8296 26.3937 28.1332Z" fill="var(--fill-0, #FFBC44)" stroke="var(--stroke-0, #191919)" stroke-linecap="round" stroke-linejoin="round"/>
</g>
</svg>
