<svg preserveAspectRatio="none" width="100%" height="100%" overflow="visible" style="display: block;" viewBox="0 0 14.8333 14.8333" fill="none" xmlns="http://www.w3.org/2000/svg">
<g id="elements">
<path id="Vector" d="M10.2889 2.33929C9.89484 2.33929 9.69783 2.33929 9.51835 2.2727C9.49343 2.26345 9.46885 2.25327 9.44469 2.24219C9.27068 2.16236 9.13138 2.02306 8.85276 1.74444C8.2115 1.10318 7.89087 0.782547 7.49635 0.752981C7.4433 0.749006 7.39003 0.749006 7.33699 0.752981C6.94246 0.782547 6.62183 1.10318 5.98057 1.74444C5.70195 2.02306 5.56265 2.16236 5.38865 2.24219C5.36448 2.25327 5.33991 2.26345 5.31498 2.2727C5.1355 2.33929 4.93849 2.33929 4.54447 2.33929H4.47179C3.46652 2.33929 2.96389 2.33929 2.65159 2.65159C2.33929 2.96389 2.33929 3.46652 2.33929 4.47179V4.54447C2.33929 4.93849 2.33929 5.1355 2.2727 5.31498C2.26345 5.33991 2.25327 5.36448 2.24219 5.38865C2.16236 5.56265 2.02306 5.70195 1.74444 5.98057C1.10318 6.62183 0.782547 6.94246 0.752981 7.33699C0.749006 7.39003 0.749006 7.4433 0.752981 7.49635C0.782547 7.89087 1.10318 8.2115 1.74444 8.85276C2.02306 9.13138 2.16236 9.27068 2.24219 9.44469C2.25327 9.46885 2.26345 9.49343 2.2727 9.51835C2.33929 9.69783 2.33929 9.89484 2.33929 10.2889V10.3615C2.33929 11.3668 2.33929 11.8694 2.65159 12.1817C2.96389 12.494 3.46652 12.494 4.47179 12.494H4.54447C4.93849 12.494 5.1355 12.494 5.31498 12.5606C5.33991 12.5699 5.36448 12.5801 5.38865 12.5911C5.56265 12.671 5.70195 12.8103 5.98057 13.0889C6.62183 13.7302 6.94246 14.0508 7.33699 14.0804C7.39003 14.0843 7.4433 14.0843 7.49635 14.0804C7.89087 14.0508 8.2115 13.7302 8.85276 13.0889C9.13138 12.8103 9.27068 12.671 9.44469 12.5911C9.46885 12.5801 9.49343 12.5699 9.51835 12.5606C9.69783 12.494 9.89484 12.494 10.2889 12.494H10.3615C11.3668 12.494 11.8694 12.494 12.1817 12.1817C12.494 11.8694 12.494 11.3668 12.494 10.3615V10.2889C12.494 9.89484 12.494 9.69783 12.5606 9.51835C12.5699 9.49343 12.5801 9.46885 12.5911 9.44469C12.671 9.27068 12.8103 9.13138 13.0889 8.85276C13.7302 8.2115 14.0508 7.89087 14.0804 7.49635C14.0843 7.4433 14.0843 7.39003 14.0804 7.33699C14.0508 6.94246 13.7302 6.62183 13.0889 5.98057C12.8103 5.70195 12.671 5.56265 12.5911 5.38865C12.5801 5.36448 12.5699 5.33991 12.5606 5.31498C12.494 5.1355 12.494 4.93849 12.494 4.54447V4.47179C12.494 3.46652 12.494 2.96389 12.1817 2.65159C11.8694 2.33929 11.3668 2.33929 10.3615 2.33929H10.2889Z" stroke="var(--stroke-0, white)" stroke-width="1.5"/>
<path id="Vector_2" d="M7.57812 10.0833V7.41667C7.57812 7.1024 7.57812 6.94526 7.48049 6.84763C7.38286 6.75 7.22573 6.75 6.91146 6.75" stroke="var(--stroke-0, white)" stroke-width="1.5" stroke-linecap="round" stroke-linejoin="round"/>
<path id="Vector_3" d="M7.41133 4.75H7.41732" stroke="var(--stroke-0, #64748B)" stroke-width="2" stroke-linecap="round" stroke-linejoin="round"/>
</g>
</svg>
