<svg preserveAspectRatio="none" width="100%" height="100%" overflow="visible" style="display: block;" viewBox="0 0 18 18" fill="none" xmlns="http://www.w3.org/2000/svg">
<g id="mage:broadcast-fill">
<path id="Vector" d="M4.45125 14.7653C4.31544 14.7643 4.18469 14.7136 4.08375 14.6227C3.81446 14.3928 3.56369 14.142 3.33375 13.8727C2.15279 12.5233 1.50183 10.791 1.50183 8.99775C1.50183 7.2045 2.15279 5.47222 3.33375 4.12275C3.56369 3.85346 3.81446 3.60269 4.08375 3.37275C4.13935 3.32389 4.20404 3.28648 4.27412 3.26267C4.3442 3.23886 4.41829 3.22911 4.49215 3.23399C4.566 3.23886 4.63817 3.25827 4.70451 3.29109C4.77085 3.32391 4.83006 3.3695 4.87875 3.42525C4.97557 3.53837 5.02428 3.68488 5.01447 3.83345C5.00465 3.98201 4.9371 4.12085 4.82625 4.22025C4.5972 4.41805 4.38172 4.63103 4.18125 4.85775C3.19059 6.00372 2.64543 7.46794 2.64543 8.98275C2.64543 10.4976 3.19059 11.9618 4.18125 13.1077C4.38325 13.3307 4.59825 13.5407 4.82625 13.7377C4.91428 13.813 4.97694 13.9136 5.00567 14.0258C5.03441 14.138 5.02781 14.2563 4.98679 14.3646C4.94577 14.4729 4.87232 14.5659 4.77647 14.6309C4.68062 14.6959 4.56704 14.7297 4.45125 14.7277V14.7653Z" fill="var(--fill-0, #64748B)"/>
<path id="Vector_2" d="M6.30375 12.8453C6.17613 12.8458 6.052 12.8036 5.95125 12.7252C5.68905 12.5245 5.45452 12.2899 5.25375 12.0278C4.55105 11.1729 4.1669 10.1006 4.1669 8.994C4.1669 7.8874 4.55105 6.81511 5.25375 5.96025C5.45734 5.70021 5.69439 5.4682 5.95875 5.27025C6.01654 5.22416 6.08295 5.19008 6.15409 5.17C6.22522 5.14993 6.29965 5.14427 6.37301 5.15335C6.44637 5.16243 6.51717 5.18607 6.58126 5.22289C6.64536 5.25971 6.70145 5.30896 6.74625 5.36775C6.82612 5.48252 6.86039 5.62292 6.84236 5.76158C6.82434 5.90024 6.75531 6.02722 6.64875 6.11775C6.45622 6.26616 6.28245 6.43741 6.13125 6.62775C5.59054 7.28335 5.29482 8.10668 5.29482 8.9565C5.29482 9.80632 5.59054 10.6296 6.13125 11.2853C6.28575 11.4783 6.46075 11.6508 6.65625 11.8028C6.77378 11.8958 6.84992 12.0314 6.86817 12.1802C6.88642 12.329 6.84531 12.479 6.75375 12.5978C6.70292 12.6709 6.63584 12.7313 6.55778 12.7743C6.47971 12.8172 6.39277 12.8415 6.30375 12.8453Z" fill="var(--fill-0, #64748B)"/>
<path id="Vector_3" d="M11.2162 8.99775C11.2087 9.40574 11.0866 9.80339 10.8637 10.1453C10.6725 10.4378 10.4157 10.6817 10.1137 10.8578C9.76736 11.074 9.36709 11.1884 8.95875 11.1877C8.55166 11.1867 8.15249 11.0753 7.80375 10.8653C7.4993 10.6764 7.24262 10.4197 7.05375 10.1153C6.84079 9.76901 6.72805 9.37049 6.72805 8.964C6.72805 8.55751 6.84079 8.15899 7.05375 7.81275C7.36392 7.31609 7.85549 6.95991 8.42406 6.81987C8.99263 6.67983 9.59339 6.76696 10.0988 7.06275C10.4032 7.25162 10.6599 7.5083 10.8488 7.81275C11.0861 8.16253 11.2141 8.57503 11.2162 8.99775Z" fill="var(--fill-0, #64748B)"/>
<path id="Vector_4" d="M11.7037 12.8453C11.6191 12.8448 11.5356 12.8258 11.4591 12.7895C11.3827 12.7532 11.3151 12.7005 11.2613 12.6353C11.215 12.5769 11.1807 12.5098 11.1606 12.4381C11.1404 12.3664 11.1347 12.2913 11.1437 12.2174C11.1528 12.1434 11.1765 12.072 11.2134 12.0072C11.2503 11.9425 11.2997 11.8857 11.3588 11.8403C11.5486 11.6914 11.7199 11.5201 11.8687 11.3303C12.4136 10.6765 12.7119 9.85248 12.7119 9.0015C12.7119 8.15052 12.4136 7.32648 11.8687 6.67275C11.7155 6.482 11.542 6.30848 11.3513 6.15525C11.2872 6.11219 11.2326 6.0564 11.191 5.99134C11.1494 5.92629 11.1217 5.85337 11.1095 5.77713C11.0973 5.70088 11.101 5.62294 11.1202 5.54817C11.1394 5.47339 11.1739 5.40338 11.2213 5.34249C11.2688 5.28159 11.3283 5.23113 11.3962 5.19423C11.464 5.15733 11.5387 5.1348 11.6156 5.12802C11.6925 5.12124 11.77 5.13037 11.8432 5.15484C11.9164 5.17931 11.9839 5.2186 12.0413 5.27025C12.3063 5.47225 12.5413 5.70475 12.7463 5.96775C13.4517 6.82137 13.8375 7.89413 13.8375 9.0015C13.8375 10.1089 13.4517 11.1816 12.7463 12.0353C12.545 12.2948 12.3105 12.5268 12.0488 12.7252C11.9506 12.803 11.829 12.8453 11.7037 12.8453Z" fill="var(--fill-0, #64748B)"/>
<path id="Vector_5" d="M13.5488 14.7652C13.4336 14.7656 13.3211 14.7307 13.2265 14.6651C13.1318 14.5995 13.0596 14.5065 13.0195 14.3985C12.9794 14.2906 12.9734 14.1729 13.0024 14.0614C13.0313 13.95 13.0937 13.8501 13.1813 13.7752C13.4088 13.5777 13.6212 13.3652 13.8187 13.1377C14.8138 11.9939 15.3619 10.5289 15.3619 9.01275C15.3619 7.49664 14.8138 6.03162 13.8187 4.88775C13.619 4.66523 13.4061 4.45485 13.1813 4.25775C13.0693 4.15938 13.0003 4.02108 12.9891 3.87248C12.9779 3.72389 13.0253 3.57681 13.1213 3.46275C13.1699 3.407 13.2292 3.36141 13.2955 3.32859C13.3618 3.29577 13.434 3.27636 13.5079 3.27149C13.5817 3.26661 13.6558 3.27636 13.7259 3.30017C13.796 3.32398 13.8607 3.36139 13.9163 3.41025C14.1847 3.64106 14.4354 3.89177 14.6663 4.16025C15.8472 5.50972 16.4982 7.242 16.4982 9.03525C16.4982 10.8285 15.8472 12.5608 14.6663 13.9102C14.4354 14.1787 14.1847 14.4294 13.9163 14.6602C13.8113 14.7402 13.6801 14.7777 13.5488 14.7652Z" fill="var(--fill-0, #64748B)"/>
</g>
</svg>
