<svg preserveAspectRatio="none" width="100%" height="100%" overflow="visible" style="display: block;" viewBox="0 0 14.8333 14.8333" fill="none" xmlns="http://www.w3.org/2000/svg">
<g id="elements">
<path id="Vector" d="M14.0833 7.41667C14.0833 3.73477 11.0986 0.75 7.41667 0.75C3.73477 0.75 0.75 3.73477 0.75 7.41667C0.75 11.0986 3.73477 14.0833 7.41667 14.0833C11.0986 14.0833 14.0833 11.0986 14.0833 7.41667Z" stroke="var(--stroke-0, #334155)" stroke-width="1.5"/>
<path id="Vector_2" d="M12.75 3.21599C12.1268 3.2609 11.3287 3.50216 10.7753 4.21851C9.77564 5.5124 8.77601 5.62037 8.10959 5.18907C7.10997 4.54213 7.95 3.49424 6.77675 2.92477C6.01209 2.55361 5.90547 1.54363 6.33106 0.749999" stroke="var(--stroke-0, #334155)" stroke-width="1.5" stroke-linejoin="round"/>
<path id="Vector_3" d="M0.75 6.75C1.25833 7.19141 1.97031 7.59546 2.80916 7.59546C4.54229 7.59546 4.88891 7.92661 4.88891 9.2512C4.88891 10.5758 4.88891 10.5758 5.23554 11.5692C5.461 12.2154 5.53981 12.8616 5.0904 13.4167" stroke="var(--stroke-0, #334155)" stroke-width="1.5" stroke-linejoin="round"/>
<path id="Vector_4" d="M14.0833 8.38489C13.4919 8.04405 12.75 7.90385 11.9989 8.44365C10.5618 9.47655 9.57091 8.62067 9.12462 9.47597C8.46766 10.735 10.8138 11.1307 8.75 14.0833" stroke="var(--stroke-0, #334155)" stroke-width="1.5" stroke-linejoin="round"/>
</g>
</svg>
