<svg preserveAspectRatio="none" width="100%" height="100%" overflow="visible" style="display: block;" viewBox="0 0 54.836 56" fill="none" xmlns="http://www.w3.org/2000/svg">
<g id="Group">
<path id="Vector" d="M54.0731 30.5861C54.589 31.3851 54.8355 32.2797 54.8355 33.1654C54.8355 34.7677 54.0275 36.3381 52.5529 37.2374C51.1241 38.1093 50.275 39.6569 50.275 41.3004C50.275 41.4966 50.2886 41.693 50.3116 41.8938C50.339 42.0947 50.3481 42.2956 50.3481 42.4918C50.3481 44.9022 48.5221 46.9793 46.0569 47.2259C45.1256 47.3172 44.2628 47.6824 43.5598 48.2439C42.8568 48.8054 42.3136 49.5632 42.0169 50.4534C41.3458 52.4484 39.4879 53.6992 37.502 53.6992C36.9588 53.6992 36.4064 53.6079 35.8677 53.4116C35.6029 53.3157 35.3335 53.2427 35.0597 53.197C34.7858 53.1468 34.5119 53.1241 34.238 53.1241C32.978 53.1241 31.7409 53.6262 30.8279 54.562C29.8967 55.5207 28.655 56 27.4178 56C26.1807 56 24.939 55.5207 24.0077 54.562C23.0947 53.6262 21.8575 53.1241 20.5976 53.1241C20.0498 53.1241 19.4974 53.2199 18.9678 53.4116C18.4291 53.6079 17.8767 53.6992 17.3335 53.6992C15.3476 53.6992 13.4896 52.4483 12.8187 50.4534C12.5219 49.5632 11.9787 48.8054 11.2757 48.2439C10.5726 47.6824 9.70985 47.3172 8.77861 47.2259C6.31343 46.9793 4.48742 44.9023 4.48742 42.4918C4.48742 42.2956 4.49655 42.0947 4.52392 41.8938C4.54676 41.693 4.56048 41.4966 4.56048 41.3004C4.56048 39.657 3.71134 38.1094 2.28258 37.2374C0.808056 36.3381 0 34.7677 0 33.1654C0 32.2797 0.246606 31.385 0.762363 30.5861C1.27367 29.7964 1.52474 28.9016 1.52474 27.9977C1.52474 27.103 1.27367 26.1991 0.762363 25.414C0.246606 24.615 0 23.7203 0 22.8347C0 21.2324 0.808056 19.6665 2.28258 18.7672C3.71141 17.8952 4.56048 16.3431 4.56048 14.6997C4.56048 14.5034 4.54684 14.3071 4.52392 14.1063C4.49655 13.9053 4.48742 13.7045 4.48742 13.5083C4.48742 11.0979 6.31343 9.02073 8.77861 8.7742C9.70985 8.6783 10.5726 8.31769 11.2757 7.75617C11.9787 7.19917 12.5219 6.44147 12.8187 5.55124C13.4896 3.55627 15.3522 2.30091 17.338 2.30091C17.8813 2.30091 18.4291 2.39221 18.9678 2.58846C19.4974 2.7847 20.0497 2.87608 20.5976 2.87608C21.8575 2.87608 23.0947 2.37389 24.0077 1.43804C24.9389 0.479347 26.1807 0 27.4178 0C28.655 0 29.8967 0.479347 30.8279 1.43804C32.138 2.78018 34.1102 3.23216 35.8678 2.58846C36.4065 2.39221 36.9542 2.30091 37.4975 2.30091C39.4833 2.30091 41.3459 3.55627 42.017 5.55124C42.3137 6.44147 42.8568 7.19917 43.5599 7.75617C44.2629 8.31762 45.1258 8.6783 46.057 8.7742C48.5222 9.02073 50.3482 11.0979 50.3482 13.5083C50.3482 13.7045 50.3391 13.9053 50.3116 14.1063C50.2888 14.3071 50.2751 14.5034 50.2751 14.6997C50.2751 16.3432 51.1242 17.8952 52.553 18.7672C54.0275 19.6665 54.8356 21.2323 54.8356 22.8347C54.8356 23.7203 54.589 24.6151 54.0732 25.414C53.5619 26.1991 53.3109 27.1031 53.3109 27.9977C53.3109 28.4953 53.3885 28.9929 53.5438 29.4723C53.6669 29.8602 53.8449 30.2346 54.0731 30.5861Z" fill="var(--fill-0, #42BE45)"/>
<path id="Vector_2" d="M54.836 33.1654C54.836 34.7677 54.028 36.3382 52.5534 37.2374C51.1245 38.1094 50.2755 39.6569 50.2755 41.3004C50.2755 41.4967 50.2891 41.693 50.312 41.8938C50.3395 42.0947 50.3486 42.2956 50.3486 42.4919C50.3486 44.9022 48.5226 46.9794 46.0574 47.2259C45.1261 47.3172 44.2633 47.6824 43.5603 48.2439C42.8573 48.8055 42.314 49.5632 42.0174 50.4535C41.3463 52.4484 39.4883 53.6992 37.5024 53.6992C36.9592 53.6992 36.4069 53.608 35.8682 53.4117C35.6034 53.3158 35.334 53.2427 35.0602 53.1971L12.6411 30.7825C11.4861 29.6229 11.4861 27.7421 12.6411 26.5872C12.7141 26.5141 12.7872 26.4457 12.8648 26.3817C14.029 25.4322 15.7499 25.4961 16.841 26.5872L22.5109 32.257L37.32 17.4479C37.393 17.3794 37.4661 17.3109 37.5437 17.247C38.7078 16.2928 40.4288 16.3614 41.5199 17.4479L53.5443 29.4723C53.6675 29.8604 53.8456 30.2347 54.0738 30.5862C54.5895 31.385 54.836 32.2798 54.836 33.1654Z" fill="var(--fill-0, #545454)"/>
<path id="Vector_3" d="M41.5157 17.4483C40.3569 16.2896 38.4782 16.2896 37.3194 17.4483L22.51 32.2579L16.837 26.585C15.6781 25.4264 13.7991 25.4264 12.6405 26.585C11.4818 27.7439 11.4818 29.6225 12.6405 30.7814L20.4118 38.5525C20.9912 39.1318 21.7505 39.4216 22.51 39.4216C23.2694 39.4216 24.0287 39.1318 24.6081 38.5525L41.5157 21.6448C42.6745 20.4858 42.6745 18.6072 41.5157 17.4483Z" fill="var(--fill-0, white)"/>
</g>
</svg>
