<svg preserveAspectRatio="none" width="100%" height="100%" overflow="visible" style="display: block;" viewBox="0 0 245.696 245.696" fill="none" xmlns="http://www.w3.org/2000/svg">
<g id="Ellipse 21870">
<mask id="path-1-inside-1_0_50" fill="white">
<path d="M240.812 133.542C243.232 133.762 245.38 131.977 245.513 129.55C247.127 100.029 238.036 70.8559 219.827 47.4383C200.716 22.8607 172.985 6.45614 142.242 1.54098C111.499 -3.37417 80.0366 3.56675 54.215 20.9606C28.3934 38.3544 10.1392 64.9035 3.14256 95.2407C-3.85403 125.578 0.928983 157.44 16.5246 184.386C32.1203 211.332 57.3652 231.351 87.1557 240.396C116.946 249.442 149.06 246.839 177.005 233.114C203.631 220.037 224.58 197.792 236.058 170.545C237.002 168.305 235.852 165.76 233.58 164.898V164.898C231.309 164.035 228.775 165.182 227.826 167.419C217.143 192.581 197.75 213.121 173.126 225.215C147.182 237.957 117.369 240.374 89.7125 231.976C62.056 223.578 38.6195 204.993 24.141 179.978C9.66252 154.962 5.22214 125.382 11.7175 97.2184C18.2129 69.0543 35.1595 44.407 59.1314 28.2592C83.1033 12.1113 112.312 5.66763 140.853 10.2307C169.394 14.7938 195.138 30.0232 212.88 52.8402C229.72 74.4971 238.159 101.456 236.743 128.756C236.617 131.182 238.392 133.323 240.812 133.542V133.542Z"/>
</mask>
<path d="M240.812 133.542C243.232 133.762 245.38 131.977 245.513 129.55C247.127 100.029 238.036 70.8559 219.827 47.4383C200.716 22.8607 172.985 6.45614 142.242 1.54098C111.499 -3.37417 80.0366 3.56675 54.215 20.9606C28.3934 38.3544 10.1392 64.9035 3.14256 95.2407C-3.85403 125.578 0.928983 157.44 16.5246 184.386C32.1203 211.332 57.3652 231.351 87.1557 240.396C116.946 249.442 149.06 246.839 177.005 233.114C203.631 220.037 224.58 197.792 236.058 170.545C237.002 168.305 235.852 165.76 233.58 164.898V164.898C231.309 164.035 228.775 165.182 227.826 167.419C217.143 192.581 197.75 213.121 173.126 225.215C147.182 237.957 117.369 240.374 89.7125 231.976C62.056 223.578 38.6195 204.993 24.141 179.978C9.66252 154.962 5.22214 125.382 11.7175 97.2184C18.2129 69.0543 35.1595 44.407 59.1314 28.2592C83.1033 12.1113 112.312 5.66763 140.853 10.2307C169.394 14.7938 195.138 30.0232 212.88 52.8402C229.72 74.4971 238.159 101.456 236.743 128.756C236.617 131.182 238.392 133.323 240.812 133.542V133.542Z" fill="var(--fill-0, #E6F2FF)" stroke="var(--stroke-0, #007BFF)" stroke-width="40" stroke-miterlimit="1.88708" stroke-linejoin="round" mask="url(#path-1-inside-1_0_50)"/>
</g>
</svg>
