<svg preserveAspectRatio="none" width="100%" height="100%" overflow="visible" style="display: block;" viewBox="0 0 172.553 133.56" fill="none" xmlns="http://www.w3.org/2000/svg">
<g id="Ellipse 21870">
<mask id="path-1-inside-1_0_51" fill="white">
<path d="M167.67 133.542C170.09 133.761 172.238 131.977 172.37 129.551C173.462 109.569 169.657 89.599 161.256 71.3877C152.24 51.843 138.246 35.0103 120.678 22.5754C103.109 10.1404 82.5815 2.53967 61.151 0.534356C41.1825 -1.33415 21.0832 1.71647 2.60144 9.38965C0.357109 10.3214 -0.611349 12.9405 0.400204 15.15V15.15C1.41176 17.3595 4.02014 18.3222 6.26704 17.3966C23.3446 10.3617 41.898 7.5713 60.3311 9.29615C80.2265 11.1578 99.2835 18.2141 115.594 29.7583C131.904 41.3025 144.895 56.9294 153.265 75.074C161.02 91.8851 164.557 110.311 163.6 128.756C163.474 131.183 165.25 133.322 167.67 133.542V133.542Z"/>
</mask>
<path d="M167.67 133.542C170.09 133.761 172.238 131.977 172.37 129.551C173.462 109.569 169.657 89.599 161.256 71.3877C152.24 51.843 138.246 35.0103 120.678 22.5754C103.109 10.1404 82.5815 2.53967 61.151 0.534356C41.1825 -1.33415 21.0832 1.71647 2.60144 9.38965C0.357109 10.3214 -0.611349 12.9405 0.400204 15.15V15.15C1.41176 17.3595 4.02014 18.3222 6.26704 17.3966C23.3446 10.3617 41.898 7.5713 60.3311 9.29615C80.2265 11.1578 99.2835 18.2141 115.594 29.7583C131.904 41.3025 144.895 56.9294 153.265 75.074C161.02 91.8851 164.557 110.311 163.6 128.756C163.474 131.183 165.25 133.322 167.67 133.542V133.542Z" fill="var(--fill-0, #E6F2FF)" stroke="var(--stroke-0, #007BFF)" stroke-width="40" stroke-miterlimit="1.88708" stroke-linejoin="round" mask="url(#path-1-inside-1_0_51)"/>
</g>
</svg>
