<svg preserveAspectRatio="none" width="100%" height="100%" overflow="visible" style="display: block;" viewBox="0 0 245.695 221.439" fill="none" xmlns="http://www.w3.org/2000/svg">
<g id="Ellipse 21871">
<mask id="path-1-inside-1_0_57" fill="white">
<path d="M240.812 133.542C243.232 133.761 245.38 131.977 245.512 129.551C246.606 109.535 242.786 89.5306 234.355 71.2948C225.308 51.7262 211.27 34.883 193.652 22.4573C176.035 10.0316 155.457 2.46105 133.987 0.506141C112.517 -1.44876 90.9109 2.28084 71.3387 11.3203C51.7665 20.3597 34.9178 34.3906 22.4852 52.0034C10.0526 69.6163 2.47389 90.1908 0.510536 111.66C-1.45282 133.129 2.26827 154.737 11.3 174.313C19.7165 192.555 32.4687 208.434 48.4163 220.58C50.3496 222.052 53.1006 221.573 54.5028 219.589V219.589C55.9049 217.604 55.4268 214.865 53.4976 213.387C38.8093 202.137 27.0601 187.466 19.2906 170.626C10.9059 152.453 7.45132 132.393 9.27403 112.461C11.0967 92.5301 18.1325 73.4295 29.6745 57.0783C41.2166 40.7271 56.8583 27.7013 75.0285 19.3094C93.1986 10.9175 113.257 7.45508 133.189 9.26995C153.121 11.0848 172.225 18.1131 188.58 29.6487C204.936 41.1842 217.968 56.8209 226.367 74.9877C234.15 91.8216 237.701 110.279 236.742 128.756C236.616 131.183 238.391 133.322 240.812 133.542V133.542Z"/>
</mask>
<path d="M240.812 133.542C243.232 133.761 245.38 131.977 245.512 129.551C246.606 109.535 242.786 89.5306 234.355 71.2948C225.308 51.7262 211.27 34.883 193.652 22.4573C176.035 10.0316 155.457 2.46105 133.987 0.506141C112.517 -1.44876 90.9109 2.28084 71.3387 11.3203C51.7665 20.3597 34.9178 34.3906 22.4852 52.0034C10.0526 69.6163 2.47389 90.1908 0.510536 111.66C-1.45282 133.129 2.26827 154.737 11.3 174.313C19.7165 192.555 32.4687 208.434 48.4163 220.58C50.3496 222.052 53.1006 221.573 54.5028 219.589V219.589C55.9049 217.604 55.4268 214.865 53.4976 213.387C38.8093 202.137 27.0601 187.466 19.2906 170.626C10.9059 152.453 7.45132 132.393 9.27403 112.461C11.0967 92.5301 18.1325 73.4295 29.6745 57.0783C41.2166 40.7271 56.8583 27.7013 75.0285 19.3094C93.1986 10.9175 113.257 7.45508 133.189 9.26995C153.121 11.0848 172.225 18.1131 188.58 29.6487C204.936 41.1842 217.968 56.8209 226.367 74.9877C234.15 91.8216 237.701 110.279 236.742 128.756C236.616 131.183 238.391 133.322 240.812 133.542V133.542Z" fill="var(--fill-0, #E6F2FF)" stroke="var(--stroke-0, #007BFF)" stroke-width="40" stroke-miterlimit="1.88708" stroke-linejoin="round" mask="url(#path-1-inside-1_0_57)"/>
</g>
</svg>
