<svg preserveAspectRatio="none" width="100%" height="100%" overflow="visible" style="display: block;" viewBox="0 0 18.1917 18.1917" fill="none" xmlns="http://www.w3.org/2000/svg">
<g id="elements">
<path id="Vector" d="M11.5833 0.775L12.0323 2.76798C12.4131 4.45846 13.7332 5.77859 15.4237 6.15939L17.4167 6.60833L15.4237 7.05728C13.7332 7.43808 12.4131 8.75821 12.0323 10.4487L11.5833 12.4417L11.1344 10.4487C10.7536 8.75821 9.43346 7.43807 7.74298 7.05728L5.75 6.60833L7.74298 6.15939C9.43346 5.77859 10.7536 4.45846 11.1344 2.76798L11.5833 0.775Z" stroke="var(--stroke-0, #007BFF)" stroke-width="1.55" stroke-linejoin="round"/>
<path id="Vector_2" d="M4.91667 9.10833L5.23734 10.5319C5.50934 11.7394 6.45229 12.6823 7.65977 12.9543L9.08333 13.275L7.65977 13.5957C6.45229 13.8677 5.50934 14.8106 5.23734 16.0181L4.91667 17.4417L4.59599 16.0181C4.32399 14.8106 3.38104 13.8677 2.17356 13.5957L0.75 13.275L2.17356 12.9543C3.38104 12.6823 4.32399 11.7394 4.59599 10.5319L4.91667 9.10833Z" stroke="var(--stroke-0, #007BFF)" stroke-width="1.5" stroke-linejoin="round"/>
</g>
</svg>
