<svg preserveAspectRatio="none" width="16.5" height="16.5" overflow="visible" style="display: block;" viewBox="0 0 16.5 16.5" fill="none" xmlns="http://www.w3.org/2000/svg">
<g id="elements">
<path id="Vector" d="M1.11612 5.38389C1.48224 5.75 2.07149 5.75 3.25 5.75C4.42852 5.75 5.01777 5.75 5.38389 5.38389C5.75 5.01777 5.75 4.42852 5.75 3.25C5.75 2.07149 5.75 1.48224 5.38389 1.11612C5.01777 0.750005 4.42852 0.750005 3.25 0.750005C2.07149 0.750005 1.48224 0.750005 1.11612 1.11612C0.750005 1.48224 0.750005 2.07149 0.750005 3.25C0.750005 4.42852 0.750005 5.01777 1.11612 5.38389Z" stroke="#007BFF" stroke-width="1.5" stroke-linecap="round" stroke-linejoin="round"/>
<path id="Vector_2" d="M11.1161 5.38389C11.4822 5.75 12.0715 5.75 13.25 5.75C14.4285 5.75 15.0178 5.75 15.3839 5.38389C15.75 5.01777 15.75 4.42852 15.75 3.25C15.75 2.07149 15.75 1.48224 15.3839 1.11612C15.0178 0.750005 14.4285 0.750005 13.25 0.750005C12.0715 0.750005 11.4822 0.750005 11.1161 1.11612C10.75 1.48224 10.75 2.07149 10.75 3.25C10.75 4.42852 10.75 5.01777 11.1161 5.38389Z" stroke="#007BFF" stroke-width="1.5" stroke-linecap="round" stroke-linejoin="round"/>
<path id="Vector_3" d="M11.1161 15.3839C11.4822 15.75 12.0715 15.75 13.25 15.75C14.4285 15.75 15.0178 15.75 15.3839 15.3839C15.75 15.0178 15.75 14.4285 15.75 13.25C15.75 12.0715 15.75 11.4822 15.3839 11.1161C15.0178 10.75 14.4285 10.75 13.25 10.75C12.0715 10.75 11.4822 10.75 11.1161 11.1161C10.75 11.4822 10.75 12.0715 10.75 13.25C10.75 14.4285 10.75 15.0178 11.1161 15.3839Z" stroke="#007BFF" stroke-width="1.5" stroke-linecap="round" stroke-linejoin="round"/>
<path id="Vector_4" d="M1.11612 15.3839C1.48224 15.75 2.07149 15.75 3.25 15.75C4.42852 15.75 5.01777 15.75 5.38389 15.3839C5.75 15.0178 5.75 14.4285 5.75 13.25C5.75 12.0715 5.75 11.4822 5.38389 11.1161C5.01777 10.75 4.42852 10.75 3.25 10.75C2.07149 10.75 1.48224 10.75 1.11612 11.1161C0.750005 11.4822 0.750005 12.0715 0.750005 13.25C0.750005 14.4285 0.750005 15.0178 1.11612 15.3839Z" stroke="#007BFF" stroke-width="1.5" stroke-linecap="round" stroke-linejoin="round"/>
<path id="Vector_5" d="M8.25 3.25H5.75" stroke="#007BFF" stroke-width="1.5" stroke-linecap="round" stroke-linejoin="round"/>
<path id="Vector_6" d="M10.75 13.25H8.25" stroke="#007BFF" stroke-width="1.5" stroke-linecap="round" stroke-linejoin="round"/>
<path id="Vector_7" d="M13.25 8.25L13.25 5.75" stroke="#007BFF" stroke-width="1.5" stroke-linecap="round" stroke-linejoin="round"/>
<path id="Vector_8" d="M3.25 10.75L3.25 8.25" stroke="#007BFF" stroke-width="1.5" stroke-linecap="round" stroke-linejoin="round"/>
</g>
</svg>
