<svg preserveAspectRatio="none" width="14.3336" height="11.6668" overflow="visible" style="display: block;" viewBox="0 0 14.3336 11.6668" fill="none" xmlns="http://www.w3.org/2000/svg">
<g id="elements">
<path id="Vector" d="M0.505635 8.37291C0.654228 6.04415 1.09171 4.34006 1.46243 3.35019C1.64959 2.85045 2.05225 2.47831 2.56777 2.35359C5.43445 1.66007 8.89918 1.66007 11.7659 2.35359C12.2814 2.47831 12.684 2.85045 12.8712 3.35019C13.2419 4.34006 13.6794 6.04415 13.828 8.37291C13.9169 9.76603 12.91 10.5337 11.7954 11.0951C11.0855 11.4527 10.5396 10.3973 10.1771 9.58032C9.9791 9.13401 9.54462 8.85719 9.05219 8.85719H5.28144C4.789 8.85719 4.35452 9.13401 4.15651 9.58032C3.79406 10.3973 3.24813 11.4527 2.5382 11.0951C1.4349 10.5394 0.416027 9.77724 0.505635 8.37291Z" stroke="#007BFF" stroke-linecap="round" stroke-linejoin="round"/>
<path id="Vector_2" d="M2.50013 0.833453L3.8087 0.50012M11.8335 0.833453L10.5001 0.50012" stroke="#007BFF" stroke-linecap="round" stroke-linejoin="round"/>
<path id="Vector_3" d="M5.1668 6.50012L4.1668 5.50012M4.1668 5.50012L3.1668 4.50012M4.1668 5.50012L3.1668 6.50012M4.1668 5.50012L5.1668 4.50012" stroke="#007BFF" stroke-linecap="round"/>
<path id="Vector_4" d="M9.82553 4.50012H9.83151" stroke="#007BFF" stroke-width="1.33333" stroke-linecap="round" stroke-linejoin="round"/>
<path id="Vector_5" d="M11.1589 6.50012H11.1648" stroke="#007BFF" stroke-width="1.33333" stroke-linecap="round" stroke-linejoin="round"/>
</g>
</svg>
