<svg xmlns="http://www.w3.org/2000/svg" width="130" height="98" viewBox="0 0 130 98" fill="none">
  <path d="M23 49h84" stroke="#FFD43B" stroke-width="2" stroke-linecap="round" stroke-dasharray="12 8"/>
  <path d="M52 13 43 32h10l-7 19 24-28H57l8-10H52Z" fill="#FFD500"/>
  <circle cx="82" cy="51" r="30" fill="#E4FFE8"/>
  <circle cx="82" cy="51" r="24" fill="#fff" stroke="#0F6B38" stroke-width="2"/>
  <path d="M82 22v58M53 51h58M64 33c8 8 28 8 36 0M64 69c8-8 28-8 36 0" stroke="#0F6B38" stroke-width="2" stroke-linecap="round"/>
  <circle cx="82" cy="51" r="8" fill="#0F6B38"/>
  <circle cx="82" cy="51" r="3" fill="#fff"/>
  <rect x="30" y="51" width="33" height="31" rx="5" transform="rotate(-9 30 51)" fill="#fff" stroke="#B9E8C8" stroke-width="2"/>
  <circle cx="45" cy="62" r="7" fill="#15803D"/>
  <path d="m42 62 2 2.2 5-5.2" stroke="#fff" stroke-width="1.8" stroke-linecap="round" stroke-linejoin="round"/>
  <path d="M39 72h15M39 76h12" stroke="#B9E8C8" stroke-width="2" stroke-linecap="round"/>
  <rect x="82" y="54" width="31" height="30" rx="5" transform="rotate(10 82 54)" fill="#fff" stroke="#B9E8C8" stroke-width="2"/>
  <circle cx="97" cy="65" r="7" fill="#FF6B35"/>
  <path d="m94.5 62.5 5 5M99.5 62.5l-5 5" stroke="#fff" stroke-width="1.8" stroke-linecap="round"/>
  <path d="M91 75h15" stroke="#B9E8C8" stroke-width="2" stroke-linecap="round"/>
</svg>
