<svg xmlns="http://www.w3.org/2000/svg" width="130" height="98" viewBox="0 0 130 98" fill="none">
  <path d="M21 55h86" stroke="#FFD43B" stroke-width="2" stroke-linecap="round" stroke-dasharray="11 9"/>
  <path d="M28 47h80" stroke="#7CC4FF" stroke-width="2" stroke-linecap="round" stroke-dasharray="8 7"/>
  <path d="M40 40h60" stroke="#7CC4FF" stroke-width="2" stroke-linecap="round" stroke-dasharray="4 8"/>
  <path d="M59 10 47 35h13l-8 24 26-35H63l9-14H59Z" fill="#FFD500"/>
  <circle cx="88" cy="49" r="30" fill="#DDF0FF"/>
  <circle cx="88" cy="49" r="22" fill="#fff"/>
  <path d="M88 31v18l12-10" stroke="#007BFF" stroke-width="3" stroke-linecap="round" stroke-linejoin="round"/>
  <path d="M66 49h-4M114 49h-4M88 27v4M88 67v4" stroke="#007BFF" stroke-width="2" stroke-linecap="round"/>
  <rect x="28" y="45" width="38" height="33" rx="5" transform="rotate(-10 28 45)" fill="#fff" stroke="#B0D6FF" stroke-width="2"/>
  <circle cx="48" cy="58" r="6" fill="#007BFF"/>
  <path d="m45 58 2 2.2 5-5.2" stroke="#fff" stroke-width="1.8" stroke-linecap="round" stroke-linejoin="round"/>
  <path d="M38 68h19M38 72h14" stroke="#B0D6FF" stroke-width="2" stroke-linecap="round"/>
  <rect x="77" y="55" width="30" height="28" rx="5" transform="rotate(13 77 55)" fill="#fff" stroke="#B0D6FF" stroke-width="2"/>
  <path d="M86 66h12M84 72h10" stroke="#B0D6FF" stroke-width="2" stroke-linecap="round"/>
  <circle cx="96" cy="65" r="3" fill="#007BFF"/>
</svg>
