<svg preserveAspectRatio="none" width="18.1667" height="18.1667" overflow="visible" style="display: block;" viewBox="0 0 18.1667 18.1667" fill="none" xmlns="http://www.w3.org/2000/svg">
<g id="elements">
<circle id="Ellipse 1909" cx="9.08333" cy="9.08333" r="8.33333" stroke="#007BFF" stroke-width="1.5"/>
<path id="Vector" d="M11.9609 9.41232C11.8347 9.93461 11.2381 10.3037 10.0449 11.0418C8.89145 11.7554 8.31471 12.1121 7.84994 11.9687C7.65779 11.9094 7.48271 11.7968 7.34152 11.6417C7 11.2665 7 10.5388 7 9.08333C7 7.62788 7 6.90015 7.34152 6.52496C7.48271 6.36984 7.65779 6.25723 7.84994 6.19794C8.31471 6.05453 8.89145 6.41131 10.0449 7.12486C11.2381 7.86299 11.8347 8.23205 11.9609 8.75435C12.013 8.96993 12.013 9.19674 11.9609 9.41232Z" stroke="#007BFF" stroke-width="1.5" stroke-linejoin="round"/>
</g>
</svg>
