<svg preserveAspectRatio="none" width="100%" height="100%" overflow="visible" style="display: block;" viewBox="0 0 17.0815 17.9167" fill="none" xmlns="http://www.w3.org/2000/svg">
<g id="elements">
<path id="Vector" d="M8.53924 0.625C6.03276 0.625 4.40756 2.30749 2.4855 2.92075C1.70398 3.17011 1.31322 3.29479 1.15508 3.47054C0.996934 3.6463 0.950626 3.90312 0.85801 4.41678C-0.133063 9.91333 2.03316 14.995 7.19932 16.9729C7.7544 17.1854 8.03193 17.2917 8.54198 17.2917C9.05202 17.2917 9.32954 17.1854 9.88458 16.9729C15.0504 14.995 17.2146 9.91331 16.2232 4.41677C16.1306 3.90303 16.0842 3.64616 15.9261 3.47041C15.7679 3.29465 15.3771 3.17004 14.5957 2.92082C12.6729 2.30762 11.0458 0.625 8.53924 0.625Z" stroke="var(--stroke-0, #007BFF)" stroke-width="1.25" stroke-linecap="round" stroke-linejoin="round"/>
<path id="Vector_2" d="M6.52433 12.1727L6.2708 12.744L6.2708 12.744L6.52433 12.1727ZM5.73508 11.3271L5.15213 11.5525L5.15213 11.5525L5.73508 11.3271ZM11.3464 11.3271L11.9294 11.5525V11.5525L11.3464 11.3271ZM10.5572 12.1727L10.8107 12.744L10.8107 12.744L10.5572 12.1727ZM10.5572 7.7231L10.8107 7.15184V7.15184L10.5572 7.7231ZM11.3464 8.56872L11.9294 8.34335V8.34335L11.3464 8.56872ZM6.52433 7.7231L6.2708 7.15184H6.2708L6.52433 7.7231ZM5.73508 8.56872L5.15213 8.34335H5.15213L5.73508 8.56872ZM6.45741 7.60417C6.45741 7.94934 6.73723 8.22917 7.08241 8.22917C7.42759 8.22917 7.70741 7.94934 7.70741 7.60417H7.08241H6.45741ZM9.37408 7.60417C9.37408 7.94934 9.6539 8.22917 9.99908 8.22917C10.3443 8.22917 10.6241 7.94934 10.6241 7.60417H9.99908H9.37408ZM7.81158 7.60417V8.22917H9.26991V7.60417V6.97917H7.81158V7.60417ZM9.26991 12.2917V11.6667H7.81158V12.2917V12.9167H9.26991V12.2917ZM7.81158 12.2917V11.6667C7.46267 11.6667 7.23452 11.6663 7.05921 11.6535C6.89042 11.6411 6.81892 11.6197 6.77786 11.6015L6.52433 12.1727L6.2708 12.744C6.49774 12.8447 6.73011 12.8827 6.96807 12.9001C7.19951 12.9171 7.48098 12.9167 7.81158 12.9167V12.2917ZM5.62408 9.94792H4.99908C4.99908 10.3039 4.99878 10.6002 5.01421 10.8426C5.02996 11.0898 5.06388 11.3242 5.15213 11.5525L5.73508 11.3271L6.31804 11.1017C6.29528 11.0429 6.2737 10.9517 6.26169 10.7631C6.24937 10.5697 6.24908 10.3199 6.24908 9.94792H5.62408ZM6.52433 12.1727L6.77786 11.6015C6.58 11.5137 6.40969 11.3388 6.31804 11.1017L5.73508 11.3271L5.15213 11.5525C5.35651 12.0811 5.75399 12.5146 6.2708 12.744L6.52433 12.1727ZM11.4574 9.94792H10.8324C10.8324 10.3199 10.8321 10.5697 10.8198 10.7631C10.8078 10.9517 10.7862 11.0429 10.7634 11.1017L11.3464 11.3271L11.9294 11.5525C12.0176 11.3242 12.0515 11.0898 12.0673 10.8426C12.0827 10.6002 12.0824 10.3039 12.0824 9.94792H11.4574ZM9.26991 12.2917V12.9167C9.6005 12.9167 9.88197 12.9171 10.1134 12.9001C10.3514 12.8827 10.5837 12.8447 10.8107 12.744L10.5572 12.1727L10.3036 11.6015C10.2626 11.6197 10.1911 11.6411 10.0223 11.6535C9.84697 11.6663 9.61881 11.6667 9.26991 11.6667V12.2917ZM11.3464 11.3271L10.7634 11.1017C10.6718 11.3388 10.5015 11.5137 10.3036 11.6015L10.5572 12.1727L10.8107 12.744C11.3275 12.5146 11.725 12.0811 11.9294 11.5525L11.3464 11.3271ZM9.26991 7.60417V8.22917C9.61881 8.22917 9.84697 8.22955 10.0223 8.24237C10.1911 8.25471 10.2626 8.27615 10.3036 8.29437L10.5572 7.7231L10.8107 7.15184C10.5837 7.05112 10.3514 7.01309 10.1134 6.9957C9.88197 6.97878 9.6005 6.97917 9.26991 6.97917V7.60417ZM11.4574 9.94792H12.0824C12.0824 9.59188 12.0827 9.29564 12.0673 9.05327C12.0515 8.80605 12.0176 8.57163 11.9294 8.34335L11.3464 8.56872L10.7634 8.79409C10.7862 8.85296 10.8078 8.94412 10.8198 9.13271C10.8321 9.32613 10.8324 9.57591 10.8324 9.94792H11.4574ZM10.5572 7.7231L10.3036 8.29437C10.5015 8.38218 10.6718 8.55703 10.7634 8.79409L11.3464 8.56872L11.9294 8.34335C11.725 7.81471 11.3275 7.3812 10.8107 7.15184L10.5572 7.7231ZM7.81158 7.60417V6.97917C7.48098 6.97917 7.19951 6.97878 6.96807 6.9957C6.73011 7.01309 6.49774 7.05112 6.2708 7.15184L6.52433 7.7231L6.77786 8.29437C6.81892 8.27615 6.89042 8.25471 7.05921 8.24237C7.23452 8.22955 7.46267 8.22917 7.81158 8.22917V7.60417ZM5.62408 9.94792H6.24908C6.24908 9.57591 6.24937 9.32613 6.26169 9.13271C6.2737 8.94412 6.29528 8.85296 6.31804 8.79409L5.73508 8.56872L5.15213 8.34335C5.06388 8.57163 5.02996 8.80605 5.01421 9.05327C4.99878 9.29564 4.99908 9.59188 4.99908 9.94792H5.62408ZM6.52433 7.7231L6.2708 7.15184C5.75399 7.3812 5.35651 7.81471 5.15213 8.34335L5.73508 8.56872L6.31804 8.79409C6.40969 8.55703 6.58 8.38218 6.77786 8.29437L6.52433 7.7231ZM7.08241 7.60417H7.70741V6.19792H7.08241H6.45741V7.60417H7.08241ZM9.99908 6.19792H9.37408V7.60417H9.99908H10.6241V6.19792L9.99908 6.19792ZM8.54074 4.79167V5.41667C9.0226 5.41667 9.37408 5.78767 9.37408 6.19792H9.99908L10.6241 6.19792C10.6241 5.05486 9.66972 4.16667 8.54074 4.16667V4.79167ZM7.08241 6.19792H7.70741C7.70741 5.78767 8.05889 5.41667 8.54074 5.41667V4.79167V4.16667C7.41177 4.16667 6.45741 5.05486 6.45741 6.19792H7.08241Z" fill="var(--stroke-0, #007BFF)"/>
</g>
</svg>
