<svg preserveAspectRatio="none" width="100%" height="100%" overflow="visible" style="display: block;" viewBox="0 0 16.8902 17.4926" fill="none" xmlns="http://www.w3.org/2000/svg">
<g id="Group">
<path id="Vector" opacity="0.987" fill-rule="evenodd" clip-rule="evenodd" d="M7.44907 0.0759375C8.35532 -0.0253125 8.89157 -0.0253125 9.86532 0.0759375C11.589 0.331056 13.1868 1.12779 14.4278 2.35094C13.5892 3.14361 12.7616 3.94785 11.9453 4.76344C10.382 3.43844 8.63698 3.1326 6.71032 3.84594C5.29698 4.49594 4.31282 5.54927 3.75782 7.00594C2.85087 6.33073 1.95573 5.63979 1.07282 4.93344C1.01146 4.90114 0.941375 4.88931 0.872815 4.89969C2.27532 2.19552 4.46698 0.587187 7.44782 0.0746874" fill="var(--fill-0, #F43F5E)"/>
<path id="Vector_2" opacity="0.997" fill-rule="evenodd" clip-rule="evenodd" d="M0.870315 4.89969C0.941148 4.88885 1.00823 4.9001 1.07157 4.93344C1.95448 5.63979 2.84962 6.33073 3.75657 7.00594C3.61385 7.57351 3.52388 8.15306 3.48781 8.73719C3.51865 9.30219 3.60823 9.85677 3.75657 10.4009L0.937815 12.6447C-0.289685 10.0797 -0.312185 7.49802 0.870315 4.89969Z" fill="var(--fill-0, #FFC107)"/>
<path id="Vector_3" opacity="0.999" fill-rule="evenodd" clip-rule="evenodd" d="M14.2941 15.3622C13.4164 14.5882 12.4976 13.8621 11.5416 13.1872C12.4999 12.5105 13.0816 11.5822 13.2866 10.4022H8.59031V7.14094C11.2986 7.11844 14.0057 7.14135 16.7116 7.20969C17.2249 9.99719 16.632 12.5105 14.9328 14.7497C14.7308 14.9645 14.5168 15.1689 14.2941 15.3622Z" fill="var(--fill-0, #448AFF)"/>
<path id="Vector_4" opacity="0.993" fill-rule="evenodd" clip-rule="evenodd" d="M3.75657 10.4022C4.78156 12.9497 6.66073 14.1389 9.39406 13.9697C10.1614 13.8809 10.897 13.6128 11.5416 13.1872C12.4982 13.8639 13.4157 14.5889 14.2941 15.3622C12.9024 16.6128 11.128 17.3548 9.26031 17.4672C8.83599 17.5011 8.40964 17.5011 7.98531 17.4672C4.80365 17.0922 2.45448 15.4847 0.937815 12.6447L3.75657 10.4022Z" fill="var(--fill-0, #43A047)"/>
</g>
</svg>
