<svg preserveAspectRatio="none" width="100%" height="100%" overflow="visible" style="display: block;" viewBox="0 0 13.6531 13.6359" fill="none" xmlns="http://www.w3.org/2000/svg">
<path id="Vector" d="M0.225001 4.53125H3.05469V13.6359H0.225001V4.53125ZM1.64063 0C1.96518 1.47189e-07 2.28244 0.0962606 2.55227 0.276604C2.8221 0.456947 3.03239 0.71327 3.15651 1.01315C3.28064 1.31302 3.31304 1.64298 3.24961 1.96127C3.18618 2.27956 3.02977 2.57189 2.80017 2.80127C2.57057 3.03066 2.27809 3.18679 1.95974 3.24992C1.64138 3.31304 1.31146 3.28033 1.0117 3.15592C0.711945 3.0315 0.455822 2.82098 0.275736 2.55097C0.0956498 2.28097 -0.000308352 1.96361 7.4439e-07 1.63906C0.000414887 1.20421 0.173449 0.787314 0.481081 0.479975C0.788713 0.172636 1.20578 -1.97211e-07 1.64063 0ZM4.82969 4.53125H7.54219V5.78125H7.57969C7.95781 5.06563 8.87969 4.31094 10.2563 4.31094C13.1219 4.30469 13.6531 6.19063 13.6531 8.63594V13.6359H10.8234V9.20625C10.8234 8.15156 10.8047 6.79375 9.35313 6.79375C7.90156 6.79375 7.65469 7.94375 7.65469 9.1375V13.6359H4.82969V4.53125Z" fill="var(--fill-0, white)"/>
</svg>
