<svg preserveAspectRatio="none" width="100%" height="100%" overflow="visible" style="display: block;" viewBox="0 0 15.75 15.75" fill="none" xmlns="http://www.w3.org/2000/svg">
<g id="elements">
<path id="Vector" d="M0.750017 5.0151C0.828063 3.44031 1.06154 2.45846 1.76 1.76C2.45846 1.06154 3.44031 0.828063 5.01509 0.750017M15 5.0151C14.922 3.44031 14.6885 2.45846 13.99 1.76C13.2916 1.06154 12.3097 0.828063 10.7349 0.750017M10.7349 15C12.3097 14.922 13.2916 14.6885 13.99 13.99C14.6885 13.2916 14.922 12.3097 15 10.7349M5.01509 15C3.4403 14.922 2.45845 14.6885 1.76 13.99C1.06154 13.2916 0.828063 12.3097 0.750017 10.7349" stroke="var(--stroke-0, #94A3B8)" stroke-width="1.5" stroke-linecap="round" stroke-linejoin="round"/>
<path id="Vector_2" d="M11.137 8.02425L11.8797 7.91979L11.137 8.02425ZM9.74829 6.79003L9.78126 6.04076L9.74829 6.79003ZM9.74829 11.96L9.78126 12.7093L9.74829 11.96ZM11.137 10.7258L10.3943 10.6213V10.6213L11.137 10.7258ZM6.00175 6.79003L6.03472 7.53931V7.53931L6.00175 6.79003ZM4.613 8.02425L5.35569 8.12871L4.613 8.02425ZM6.00175 11.96L5.96877 12.7093L6.00175 11.96ZM4.613 10.7258L5.35569 10.6213V10.6213L4.613 10.7258ZM5.25002 6.75002C5.25002 7.16423 5.5858 7.50002 6.00002 7.50002C6.41423 7.50002 6.75002 7.16423 6.75002 6.75002H6.00002H5.25002ZM9.00002 6.75002C9.00002 7.16423 9.3358 7.50002 9.75002 7.50002C10.1642 7.50002 10.5 7.16423 10.5 6.75002H9.75002H9.00002ZM7.87502 12V11.25C7.21714 11.25 6.62105 11.2365 6.03472 11.2107L6.00175 11.96L5.96877 12.7093C6.57772 12.7361 7.19581 12.75 7.87502 12.75V12ZM9.74829 11.96L9.71531 11.2107C9.12899 11.2365 8.5329 11.25 7.87502 11.25V12V12.75C8.55423 12.75 9.17232 12.7361 9.78126 12.7093L9.74829 11.96ZM11.137 10.7258L11.8797 10.8302C11.9432 10.3793 12 9.88723 12 9.37502H11.25H10.5C10.5 9.78165 10.4548 10.1918 10.3943 10.6213L11.137 10.7258ZM11.25 9.37502H12C12 8.8628 11.9432 8.37074 11.8797 7.9198L11.137 8.02425L10.3943 8.12871C10.4548 8.5582 10.5 8.96838 10.5 9.37502H11.25ZM7.87502 6.75002V7.50002C8.5329 7.50002 9.12899 7.51351 9.71531 7.53931L9.74829 6.79003L9.78126 6.04076C9.17232 6.01396 8.55423 6.00002 7.87502 6.00002V6.75002ZM6.00175 6.79003L6.03472 7.53931C6.62105 7.51351 7.21714 7.50002 7.87502 7.50002V6.75002V6.00002C7.19581 6.00002 6.57772 6.01396 5.96877 6.04076L6.00175 6.79003ZM4.613 8.02425L3.87031 7.91979C3.80688 8.37074 3.75002 8.8628 3.75002 9.37502H4.50002H5.25002C5.25002 8.96838 5.29528 8.5582 5.35569 8.12871L4.613 8.02425ZM4.50002 9.37502H3.75002C3.75002 9.88723 3.80688 10.3793 3.87031 10.8302L4.613 10.7258L5.35569 10.6213C5.29528 10.1918 5.25002 9.78165 5.25002 9.37502H4.50002ZM11.137 8.02425L11.8797 7.91979C11.733 6.8769 10.8418 6.08743 9.78126 6.04076L9.74829 6.79003L9.71531 7.53931C10.0753 7.55515 10.3513 7.82257 10.3943 8.12871L11.137 8.02425ZM9.74829 11.96L9.78126 12.7093C10.8418 12.6626 11.733 11.8731 11.8797 10.8302L11.137 10.7258L10.3943 10.6213C10.3513 10.9275 10.0753 11.1949 9.71531 11.2107L9.74829 11.96ZM6.00175 6.79003L5.96877 6.04076C4.90823 6.08743 4.01699 6.8769 3.87031 7.91979L4.613 8.02425L5.35569 8.12871C5.39875 7.82257 5.67478 7.55515 6.03472 7.53931L6.00175 6.79003ZM6.00175 11.96L6.03472 11.2107C5.67478 11.1949 5.39875 10.9275 5.35569 10.6213L4.613 10.7258L3.87031 10.8302C4.01699 11.8731 4.90823 12.6626 5.96877 12.7093L6.00175 11.96ZM6.00002 6.75002H6.75002V5.62502H6.00002H5.25002V6.75002H6.00002ZM9.75002 5.62502H9.00002V6.75002H9.75002H10.5V5.62502H9.75002ZM9.75002 5.62502H10.5C10.5 4.17527 9.32476 3.00002 7.87502 3.00002V3.75002V4.50002C8.49634 4.50002 9.00002 5.0037 9.00002 5.62502H9.75002ZM6.00002 5.62502H6.75002C6.75002 5.0037 7.2537 4.50002 7.87502 4.50002V3.75002V3.00002C6.42527 3.00002 5.25002 4.17527 5.25002 5.62502H6.00002Z" fill="var(--stroke-0, #94A3B8)"/>
</g>
</svg>
