<svg preserveAspectRatio="none" width="100%" height="100%" overflow="visible" style="display: block;" viewBox="0 0 320.662 235.366" fill="none" xmlns="http://www.w3.org/2000/svg">
<g id="Roadmap planning for business team 1 [Vectorized]">
<path id="Vector" d="M151.392 35.0118L174.033 35.022C175.718 35.0209 182.316 34.8689 183.322 35.1406C183.591 35.4151 183.741 35.4631 183.753 35.8323C183.804 37.3611 183.78 39.0102 183.779 40.5332L183.771 51.4297C185.233 51.4318 194.033 51.2015 194.5 51.6199C194.904 51.9822 194.859 52.4467 194.868 52.9489C194.92 56.1396 194.875 59.3389 194.872 62.5304C194.871 64.3926 194.984 66.3387 194.852 68.1932C194.836 68.4175 194.814 68.5663 194.648 68.7287C194.165 69.2002 193.065 69.0229 192.439 69.0065C192.444 69.5721 192.515 70.7694 192.302 71.2297C191.34 71.8367 185.232 71.5803 183.77 71.5718V102.398C185.678 102.407 191.953 102.003 192.779 102.962C196.555 107.351 184.578 106.165 183.77 106.161L183.771 130.032C183.768 132.648 183.78 135.292 183.759 137.905C183.729 141.789 183.723 144.649 185.313 148.245C185.998 147.237 186.677 145.986 187.366 145.06C189.216 142.597 190.671 137.91 194.635 138.852C197.058 139.426 199.084 143.572 200.399 145.627L207.068 156.041C208.189 155.631 210.41 153.915 211.237 153.07C213.174 151.088 214.513 148.798 215.314 146.144C215.972 143.963 215.9 141.757 216.141 139.569C216.504 136.267 216.977 132.855 217.451 129.576C217.738 127.579 220.638 122.518 220.748 120.899C220.862 119.223 220.768 114.976 220.764 113.07L217.304 109.612V101.169C214.86 101.163 211.055 101.252 208.499 101.133C208.378 101.056 208.258 100.979 208.137 100.902C207.57 100.099 208.064 87.8728 207.89 85.9693C207.859 85.6315 207.921 84.4802 207.963 84.0961C208.414 83.6697 209.514 83.6434 210.142 83.639L218.904 83.6393C220.033 83.637 224.717 83.416 225.402 84.0926C225.617 86.106 225.471 91.2894 225.466 93.5372L239.853 93.5301C240.25 93.5319 241.033 93.4819 241.286 93.7607C241.83 94.3613 241.64 96.1331 241.621 96.9362C242.637 96.9363 243.892 96.7182 244.716 97.2054C245.293 97.9442 245.102 99.1308 245.076 100.124C249.033 98.4242 253.653 98.4043 257.917 97.779C259.702 97.5172 262.422 97.6778 264.319 97.6772L274.562 97.6818C275.439 96.9721 279.114 95.5285 280.321 95.2736C281.137 95.1013 283.195 94.858 284.107 94.7455V80.1354L267.497 73.4691C264.529 72.2787 261.1 70.99 258.221 69.704C258.073 69.3676 258.127 69.1992 258.166 68.8348C258.921 68.4278 260.407 67.8848 261.247 67.5476L267.108 65.1964C272.82 62.9006 278.66 60.4641 284.4 58.283C285.005 58.5913 285.059 58.8522 285.06 59.5026C285.073 62.98 285.033 66.4571 285.04 69.9354L285.023 94.6436C291.599 95.6584 292.734 95.7492 298.111 99.9698C298.431 99.5048 299.109 98.4738 299.255 97.984C299.435 97.3879 299.393 97.038 299.677 96.4046L300.428 96.4305C301.396 99.4183 302.407 101.109 305.345 102.512C305.811 102.734 306.42 102.653 306.992 102.901C307.1 103.598 307.146 103.865 306.309 103.958C304.734 104.132 303.56 105.201 302.448 106.237C309.496 122.547 293.213 138.633 277.012 131.597C276.191 131.241 275.349 130.943 274.627 130.403L263.902 130.395C259.822 130.394 255.942 129.884 252.508 132.534C251.114 133.614 250.061 135.072 249.473 136.734C248.709 138.849 248.893 140.555 248.634 142.728L247.332 152.772C246.975 155.389 245.525 158.131 244.532 160.608C243.869 162.264 243.014 164.525 242.163 166.066C241.217 167.779 239.367 169.612 238.267 171.271C237.115 172.795 235.547 174.931 234.269 176.28C233.684 176.896 231.584 178.441 230.847 179.005L224.76 183.652L230.689 192.868C232.101 195.066 234.328 197.602 233.81 200.283C234.258 200.469 236.209 200.711 236.811 200.797L244.907 201.95C245.777 202.074 248.344 202.371 249.013 202.638C249.14 203.177 249.177 203.01 249.024 203.479C248.591 203.83 237.436 205.248 235.969 205.516C231.87 206.264 226.947 206.373 222.749 206.583C216.117 206.939 209.48 207.203 202.841 207.379C187.81 207.812 172.772 208.073 157.734 208.157C136.644 208.283 115.552 208.121 94.4659 207.674C84.9336 207.488 75.4043 207.167 65.881 206.712C58.7537 206.356 51.9136 206.092 44.8904 204.759C43.0724 204.413 38.5226 204.117 36.9657 203.547C36.8464 203.074 36.8503 203.1 36.9497 202.619C37.9117 202.349 40.1006 202.103 41.167 201.954L47.5367 201.037C46.6021 198.377 47.3576 197.429 48.8917 195.277C50.5645 192.93 52.3062 190.621 53.9763 188.272L70.6238 165.188H47.603C46.4246 166.084 43.052 167.325 41.5266 167.65C31.0106 169.887 20.6046 163.294 18.4502 152.643C15.363 137.382 30.8197 124.948 45.0443 131.167C45.9622 131.569 46.8374 131.873 47.6567 132.475H65.8239V124.845C64.3916 124.757 63.1398 124.314 61.9963 123.438C60.5014 122.287 59.5279 120.587 59.2924 118.716C58.7845 114.74 61.4647 111.184 65.4481 110.697C67.3197 110.468 69.2059 110.992 70.6909 112.153C72.2044 113.355 73.1633 115.121 73.347 117.045C73.5435 118.971 72.9534 120.894 71.7107 122.378C70.3996 123.95 68.7774 124.677 66.7739 124.858V132.475L76.0124 132.483C82.157 132.489 87.7588 132.614 90.1193 125.458C90.5176 124.005 90.6489 122.336 90.8508 120.851C91.5778 115.507 91.5571 111.471 93.9188 106.493C95.7886 102.551 95.9787 100.586 98.8535 96.9727C97.462 96.9823 93.4675 97.1858 92.491 96.6495C92.2253 96.1411 92.3393 94.3134 92.3534 93.61C91.5777 93.6213 89.7716 93.7587 89.2157 93.3653C88.6736 92.1398 88.9042 82.5635 88.9084 80.5503L55.3606 80.5538C52.7543 80.5538 38.7083 80.8632 37.0486 80.2424C36.8142 79.9084 36.7878 74.4865 36.8584 73.7079C37.0647 71.429 36.5292 55.6177 37.076 54.853C38.4088 54.293 46.4695 54.5163 48.2756 54.5165L67.4848 54.5224V51.6674H62.2774L62.2751 50.2361L64.9096 45.7125C64.9023 44.5986 65.037 42.8441 64.8715 41.8282C64.6514 41.6032 64.3624 41.684 63.9351 41.667C63.8021 41.5506 63.5174 41.3146 63.4831 41.1266C62.7544 37.4231 65.4521 38.4462 67.9186 38.4702C69.0904 38.4816 72.0728 37.7925 72.4621 39.2859C72.5572 39.6508 72.5861 41.0221 72.3796 41.3454C71.9889 41.6539 71.6081 41.673 71.1107 41.7707C70.8954 42.4105 71.0017 44.8996 71.013 45.7309C71.9058 47.28 72.9736 48.942 73.8121 50.5192C73.9756 50.8265 73.8848 51.0395 73.7753 51.2981C72.9998 51.9112 69.5404 51.6792 68.4219 51.6674V54.5224L88.3227 54.5153C90.1485 54.5142 98.9028 54.2863 99.9757 54.9011C100.132 55.6691 100.073 58.7447 100.072 59.6723L100.063 69.3959C101.793 69.3985 112.121 69.0936 112.86 69.7404C113.235 70.0687 113.06 72.2322 113.053 72.7689C113.769 72.7523 114.484 72.7421 115.2 72.738C115.761 72.7402 115.899 72.7145 116.233 73.0494C116.667 74.2536 116.491 79.9002 116.482 81.5715C118.633 80.6828 123.13 78.702 125.136 78.0991C126.114 77.8051 132.021 77.165 133.383 76.9965V68.7905C132.002 68.6507 130.855 68.3118 129.709 67.4878C128.149 66.371 127.113 64.6652 126.842 62.7662C126.554 60.8477 127.053 58.8941 128.227 57.3495C129.362 55.8325 131.066 54.8425 132.945 54.6067C136.872 54.1226 140.429 56.9301 140.879 60.8623C141.107 62.7613 140.561 64.6722 139.364 66.1642C138.03 67.8311 136.382 68.5721 134.303 68.7911V76.8767C139.672 76.0109 145.854 77.179 151.015 78.7333L151.011 49.5869L151.009 40.3543C151.009 39.207 150.775 35.7696 151.392 35.0118ZM150.605 133.873L150.857 134.206C151.292 133.735 150.865 123.473 150.862 122.127C150.848 115.688 143.035 108.274 136.299 109.33C135.913 109.37 135.43 109.37 135.132 109.581C135.362 110.347 138.447 114.903 139.097 115.916L150.605 133.873Z" fill="var(--fill-0, #8AC2FF)"/>
<path id="Vector_2" d="M148.388 132.327C148.888 132.678 157.976 147.08 159.285 149.121L193.408 202.306H156.165C152.454 196.435 147.993 190.082 144.114 184.25C142.272 183.419 140.301 182.617 138.435 181.823C137.786 180.983 133.609 175.394 133.209 175.251L132.802 175.561C132.74 176.279 133.908 177.447 134.38 178.062L137.803 182.557L143.457 184.968C147.358 190.651 151.216 196.564 155.055 202.306H70.2259L57.7047 202.315C55.8938 202.315 50.7477 202.661 49.1895 201.615C47.7918 200.678 47.7911 198.487 48.7891 197.085C49.8105 195.649 50.9483 194.02 52.0582 192.492L57.9598 184.328L77.4996 157.211C79.4916 160.907 81.7353 164.589 83.8394 168.227C84.0308 168.558 84.3458 168.514 84.6854 168.555C85.6928 167.847 88.0306 165.51 89.0128 164.573L97.1526 156.801L107.828 162.119C109.682 160.289 111.558 158.308 113.38 156.432L114.852 156.679C115.455 159.527 116.06 162.549 116.72 165.397C116.779 165.654 116.922 165.683 117.126 165.778C118.319 165.181 118.894 158.62 119.594 156.915C119.911 156.775 119.888 156.783 120.236 156.782C121.969 157.823 124.63 163.513 125.939 163.729L126.111 163.5C126.111 162.556 125.113 161.555 124.555 160.77C123.539 159.337 122.534 157.896 121.54 156.448C122.671 156.225 127.964 155.379 128.393 154.633L128.244 154.352C127.267 153.661 121.084 152.543 119.516 152.212C119.167 150.412 118.182 145.171 117.654 143.68C117.276 143.411 117.489 143.504 116.963 143.478C116.471 143.804 115.886 147.335 115.713 148.169L111.578 142.258C113.885 140.532 116.496 138.197 118.699 136.294C120.388 138.097 127.424 146.734 128.969 147.223C129.557 147.09 135.247 140.647 136.042 139.779L141.005 142.496C141.759 141.653 142.887 139.988 143.596 139.002L148.388 132.327Z" fill="var(--fill-0, #E0EFFF)"/>
<path id="Vector_3" d="M94.8686 166.31C95.227 166.397 95.2975 166.422 95.6368 166.57C95.812 167.027 93.7197 176.799 93.4275 178.296L88.3276 182.663C87.3222 186.12 86.3798 189.729 85.4451 193.213C84.9274 193.044 84.8195 193.117 84.6043 192.768L87.4727 182.186L92.5445 177.825C93.3763 174.326 94.1872 169.864 94.8686 166.31Z" fill="var(--fill-0, #231F20)"/>
<path id="Vector_4" d="M140.451 151.478C140.736 151.804 143.023 156.219 143.373 156.882L150.917 171.234C150.784 171.59 150.66 171.571 150.271 171.836C149.39 170.594 139.792 152.085 139.806 151.887L140.451 151.478Z" fill="var(--fill-0, #231F20)"/>
<path id="Vector_5" d="M114.623 171.558C115.211 171.91 123.451 188.858 124.397 190.909C124.308 191.299 124.241 191.222 123.783 191.529C123.091 190.652 114.112 172.184 114.112 171.983L114.623 171.558Z" fill="var(--fill-0, #231F20)"/>
<path id="Vector_6" d="M75.7057 170.403C76.0741 170.603 76.0926 170.594 76.3935 170.912C76.1569 171.511 74.9513 173.313 74.5284 173.975L70.6745 179.993C70.374 179.821 70.1561 179.74 69.9836 179.444C71.1065 177.269 74.2645 172.649 75.7057 170.403Z" fill="var(--fill-0, #231F20)"/>
<path id="Vector_7" d="M151.955 67.7238H175.057C175.044 68.5293 174.939 70.5554 175.17 71.2008C176.091 71.828 181.41 71.5801 182.826 71.5718V102.398C181.774 102.381 179.051 102.198 178.597 102.993C176.469 106.725 181.628 106.18 182.826 106.161L182.825 129.745C182.825 134.992 182.517 140.758 183.409 145.876C183.599 146.968 184.297 148.168 184.702 149.239C182.886 152.039 181.085 154.849 179.301 157.67C178.34 159.181 177.035 161.358 175.997 162.74L175.499 163.557C174.613 164.778 173.415 166.784 172.566 168.106L151.955 135.999C151.964 131.378 152.286 125.299 151.611 120.813C150.404 112.796 142.501 107.342 134.435 108.657C133.106 106.508 131.733 104.121 128.72 104.824C126.538 105.332 125.307 107.941 124.158 109.726L119.927 116.334C115.719 122.905 111.359 129.518 107.236 136.131L105.92 134.293L105.33 133.447C104.027 131.646 102.422 128.659 100.12 128.246C99.1198 128.067 97.7998 128.334 96.9935 128.977C95.2028 130.789 93.237 133.774 91.7258 135.871L82.7279 148.37L82.0648 149.291C78.5346 154.168 74.865 159.527 71.2632 164.265H48.7736C59.2664 156.51 59.2347 141.232 48.8309 133.392H65.8211C65.8093 134.479 65.6388 137.388 66.1995 138.227L66.4255 138.19C66.942 137.093 66.7797 134.711 66.7719 133.392L75.4043 133.402C79.5538 133.403 83.6478 133.888 87.1794 131.243C90.7836 128.543 91.2829 125.312 91.7444 121.132C92.1047 117.869 92.5796 114.461 93.0925 111.211C93.9002 108.399 96.5025 102.772 97.7908 99.9675C97.9935 99.5264 99.6408 97.4447 100.011 96.9727L108.342 96.9722L116.48 88.8158L116.48 82.5913C118.839 81.5985 122.842 79.8363 125.123 79.0901C125.998 78.804 132.224 78.0313 133.381 77.9356C133.371 78.8594 133.231 81.4783 133.747 82.1585L133.935 82.1385C134.461 81.1674 134.311 78.9688 134.301 77.7789C141.572 76.841 151.749 78.6531 157.452 83.3539C157.792 83.6349 158.262 84.0798 158.627 84.0685C158.939 83.6498 158.883 83.8725 158.856 83.393C158.113 82.1761 153.456 79.7824 151.955 79.06V67.7238Z" fill="url(#paint0_linear_0_154)"/>
<path id="Vector_8" d="M82.0658 149.291C81.2064 149.305 80.747 149.389 79.9743 149.043L79.9028 148.78C80.8374 148.199 81.6198 148.343 82.7289 148.37L82.0658 149.291Z" fill="var(--fill-0, #FEFEFE)"/>
<path id="Vector_9" d="M175.501 163.557C175.025 162.999 174.271 162.347 174.634 161.589L174.956 161.605C175.459 161.859 175.666 162.268 175.999 162.74L175.501 163.557Z" fill="var(--fill-0, #FEFEFE)"/>
<path id="Vector_10" d="M105.332 133.447C105.577 132.891 105.445 132.961 105.875 132.708L106.149 132.793C106.49 133.524 106.324 133.588 105.922 134.293L105.332 133.447Z" fill="var(--fill-0, #FEFEFE)"/>
<path id="Vector_11" d="M166.92 113.669C167.174 113.684 167.571 113.646 167.689 113.801C168.068 114.304 167.875 116.164 167.864 116.861C168.068 116.933 168.269 117.009 168.469 117.09C169.413 117.473 170.162 118.169 170.541 119.125C170.872 119.964 170.846 120.902 170.47 121.722C169.924 122.89 169.045 123.303 167.925 123.683C166.243 123.701 164.767 123.092 164.189 121.38C163.9 120.526 163.968 119.592 164.378 118.789C164.968 117.65 165.787 117.264 166.918 116.915L166.92 113.669Z" fill="var(--fill-0, #FEFEFE)"/>
<path id="Vector_12" d="M66.7489 145.381C68.5857 145.191 70.2333 146.513 70.4475 148.347C70.6616 150.182 69.3625 151.846 67.5317 152.086C66.3247 152.244 65.1262 151.74 64.3949 150.766C63.6636 149.794 63.5129 148.503 64.0003 147.387C64.4878 146.271 65.538 145.505 66.7489 145.381Z" fill="var(--fill-0, #FEFEFE)"/>
<path id="Vector_13" d="M133.478 93.1773C134.68 92.9766 135.897 93.4392 136.661 94.3877C137.427 95.3362 137.621 96.6233 137.17 97.7555C136.72 98.8877 135.694 99.6893 134.487 99.8528C132.659 100.1 130.971 98.8354 130.696 97.0119C130.42 95.1883 131.659 93.481 133.478 93.1773Z" fill="var(--fill-0, #FEFEFE)"/>
<path id="Vector_14" d="M166.919 98.8477C167.245 98.859 167.368 98.8354 167.666 98.9665C168.075 99.5928 167.876 101.739 167.865 102.637C167.547 102.628 167.398 102.654 167.114 102.518C166.706 101.854 166.91 99.7646 166.919 98.8477Z" fill="var(--fill-0, #FEFEFE)"/>
<path id="Vector_15" d="M166.92 91.4309C167.298 91.4403 167.306 91.4299 167.662 91.5396C168.081 92.2072 167.873 94.2953 167.864 95.2214C167.538 95.2042 167.465 95.1915 167.145 95.1207C166.689 94.494 166.908 92.333 166.92 91.4309Z" fill="var(--fill-0, #FEFEFE)"/>
<path id="Vector_16" d="M166.919 84.0348C167.291 84.0364 167.306 84.0261 167.659 84.122C168.082 84.7638 167.875 86.9062 167.864 87.8089C167.537 87.7918 167.403 87.8151 167.11 87.6719C166.713 87.0258 166.91 84.9256 166.919 84.0348Z" fill="var(--fill-0, #FEFEFE)"/>
<path id="Vector_17" d="M166.92 106.261C167.251 106.274 167.366 106.252 167.669 106.383C168.077 107.043 167.876 109.105 167.86 110.027C167.485 110.026 167.471 110.038 167.116 109.937C166.705 109.298 166.911 107.157 166.92 106.261Z" fill="var(--fill-0, #FEFEFE)"/>
<path id="Vector_18" d="M166.921 133.644C167.296 133.651 167.306 133.641 167.661 133.746C168.079 134.404 167.873 136.521 167.863 137.437C167.538 137.421 167.401 137.444 167.111 137.301C166.712 136.662 166.91 134.524 166.921 133.644Z" fill="var(--fill-0, #FEFEFE)"/>
<path id="Vector_19" d="M166.919 76.6292C167.25 76.6426 167.365 76.6205 167.669 76.7509C168.078 77.4163 167.875 79.4663 167.858 80.3916C167.485 80.3912 167.471 80.4037 167.117 80.3041C166.705 79.6694 166.91 77.5214 166.919 76.6292Z" fill="var(--fill-0, #FEFEFE)"/>
<path id="Vector_20" d="M167.395 126.117L167.66 126.256C168.03 126.967 168.094 129.568 167.495 130.171C166.429 129.651 166.951 127.659 166.939 126.623C166.935 126.309 167.141 126.277 167.395 126.117Z" fill="var(--fill-0, #FEFEFE)"/>
<path id="Vector_21" d="M121.336 100.674C121.615 100.861 121.596 100.884 121.769 101.181C121.666 101.826 119.713 103.092 119.112 103.546C118.811 103.409 118.829 103.382 118.627 103.11C118.754 102.353 120.593 101.215 121.336 100.674Z" fill="var(--fill-0, #FEFEFE)"/>
<path id="Vector_22" d="M115.397 105.246C115.686 105.414 115.696 105.443 115.934 105.686C115.943 106.415 114.455 108.023 113.927 108.708C113.599 108.527 113.588 108.55 113.377 108.251C113.41 107.543 114.881 105.918 115.397 105.246Z" fill="var(--fill-0, #FEFEFE)"/>
<path id="Vector_23" d="M153.58 101.127C154.279 101.622 156.023 102.709 156.362 103.45C156.43 103.597 156.164 103.913 156.044 104.103C155.366 103.689 153.781 102.441 153.196 101.919C153.199 101.534 153.31 101.519 153.58 101.127Z" fill="var(--fill-0, #FEFEFE)"/>
<path id="Vector_24" d="M159.355 105.894C159.788 106.252 161.537 108.457 161.542 108.885L161.082 109.324C160.66 109.142 158.874 106.828 158.829 106.388L159.355 105.894Z" fill="var(--fill-0, #FEFEFE)"/>
<path id="Vector_25" d="M170.715 155.227L171.089 155.366C171.275 155.66 172.526 158.199 172.582 158.473L172.145 158.956L171.913 158.874C171.173 158.151 170.668 156.835 170.424 155.825C170.354 155.53 170.491 155.49 170.715 155.227Z" fill="var(--fill-0, #FEFEFE)"/>
<path id="Vector_26" d="M139.451 96.4646C140.629 96.6584 141.939 96.5743 142.946 97.043C143.193 97.3954 143.104 97.3318 143.051 97.8963C141.749 97.6471 140.927 97.7902 139.633 97.347C139.325 96.9915 139.426 97.0961 139.451 96.4646Z" fill="var(--fill-0, #FEFEFE)"/>
<path id="Vector_27" d="M166.908 141.055C167.185 141.078 167.44 141.113 167.715 141.148C167.944 141.525 168.174 144.208 168.229 144.783C167.899 144.806 167.861 144.801 167.531 144.757C166.987 144.127 166.973 141.944 166.908 141.055Z" fill="var(--fill-0, #FEFEFE)"/>
<path id="Vector_28" d="M110.833 111.126C111.042 111.239 111.19 111.356 111.383 111.494C111.591 112.076 110.475 114.249 110.185 114.941C109.864 114.812 109.589 114.758 109.427 114.472C109.619 113.702 110.435 111.833 110.833 111.126Z" fill="var(--fill-0, #FEFEFE)"/>
<path id="Vector_29" d="M106.673 125.396C107.026 125.432 107.041 125.429 107.372 125.548C107.738 126.208 107.244 128.329 107.118 129.208C106.78 129.181 106.756 129.177 106.432 129.077C106.073 128.42 106.559 126.281 106.673 125.396Z" fill="var(--fill-0, #FEFEFE)"/>
<path id="Vector_30" d="M168.072 148.353C169.028 148.437 168.806 149.389 169.141 150.235C169.36 150.79 169.704 151.605 169.47 152.09C169.16 152.109 169.179 152.116 168.886 152.017C168.292 151.18 167.521 149.307 168.072 148.353Z" fill="var(--fill-0, #FEFEFE)"/>
<path id="Vector_31" d="M128.216 97.6235C128.406 97.8549 128.387 97.8995 128.497 98.1996C128.151 98.9181 126.125 99.5219 125.233 99.8658C125.041 99.5653 125.059 99.5722 124.991 99.2172C125.347 98.6202 127.443 97.9452 128.216 97.6235Z" fill="var(--fill-0, #FEFEFE)"/>
<path id="Vector_32" d="M107.897 117.996L108.415 118.227C108.706 118.786 108.184 121.047 108.087 121.907C107.716 121.849 107.616 121.876 107.345 121.625C107.04 120.569 107.48 118.989 107.897 117.996Z" fill="var(--fill-0, #FEFEFE)"/>
<path id="Vector_33" d="M146.833 97.9187C147.683 98.2911 149.78 98.8257 150.124 99.6235L149.895 100.18C148.952 99.7901 147.018 99.3005 146.592 98.5272L146.833 97.9187Z" fill="var(--fill-0, #FEFEFE)"/>
<path id="Vector_34" d="M163.681 111.901L163.968 112.101C164.349 112.867 165.187 114.507 165.192 115.355L164.812 115.677C164.114 115.45 163.286 113.064 163.246 112.337C163.237 112.171 163.544 112.005 163.681 111.901Z" fill="var(--fill-0, #FEFEFE)"/>
<path id="Vector_35" d="M72.5095 148.37C73.4483 148.39 75.4213 148.131 76.1978 148.556C76.3389 148.633 76.3304 149.068 76.3536 149.289C75.056 149.268 74.0991 149.486 72.8317 149.204C72.4778 148.903 72.5913 148.982 72.5095 148.37Z" fill="var(--fill-0, #FEFEFE)"/>
<path id="Vector_36" d="M57.6636 148.377C58.9497 148.386 59.9459 148.179 61.2016 148.461C61.5485 148.746 61.4362 148.683 61.5122 149.29C60.2171 149.268 59.2168 149.489 57.9631 149.199C57.6284 148.901 57.7362 148.965 57.6636 148.377Z" fill="var(--fill-0, #FEFEFE)"/>
<path id="Vector_37" d="M166.918 69.9108L167.588 69.9565C168.11 70.5536 167.877 72.0937 167.863 73.0048C167.636 72.9831 167.199 72.9941 167.093 72.8585C166.72 72.3796 166.909 70.5904 166.918 69.9108Z" fill="var(--fill-0, #FEFEFE)"/>
<path id="Vector_38" d="M245.077 101.148C248.138 99.7989 249.125 99.915 252.348 99.3967C259.395 98.2637 266.158 98.6064 273.301 98.6129C271.157 100.459 269.324 102.098 267.962 104.686C263.383 113.38 265.5 123.437 273.395 129.462L263.767 129.451C258.955 129.45 254.659 128.952 250.951 132.676C249.779 133.862 248.913 135.318 248.431 136.915C247.818 138.904 247.951 140.409 247.737 142.353C247.49 144.584 247.166 146.942 246.877 149.162C246.752 150.139 246.421 153.159 246.162 154.002C245.681 155.57 244.579 158.152 243.9 159.715C243.236 161.247 242.089 164.343 241.303 165.678C240.501 167.041 238.457 169.446 237.459 170.803C236.467 172.151 234.944 174.12 233.878 175.361C233.321 176.01 230.834 177.855 230.029 178.464C228.134 179.899 226.177 181.458 224.264 182.871C221.677 178.837 218.893 174.284 216.225 170.354L215.746 169.583C213.1 165.469 210.286 160.856 207.582 156.847C210.822 155.495 214.326 151.41 215.587 148.114C216.993 144.437 216.733 142.932 217.093 139.411C217.379 136.602 217.934 132.591 218.344 129.898C218.558 128.492 221.135 122.797 221.805 121.138L236.047 121.146C237.69 121.146 243.789 121.344 244.935 120.789C245.357 119.542 245.077 103.813 245.077 101.148Z" fill="url(#paint1_linear_0_154)"/>
<path id="Vector_39" d="M215.744 169.583C216.258 169.155 216.966 168.39 217.667 168.567C217.958 169.32 216.751 169.983 216.223 170.354L215.744 169.583Z" fill="var(--fill-0, #FEFEFE)"/>
<path id="Vector_40" d="M230.104 149.869C231.949 149.648 233.624 150.959 233.855 152.802C234.086 154.645 232.784 156.328 230.942 156.568C229.086 156.81 227.388 155.497 227.154 153.639C226.922 151.782 228.246 150.09 230.104 149.869Z" fill="var(--fill-0, #FEFEFE)"/>
<path id="Vector_41" d="M232.06 136.539L232.672 136.633C233.112 137.098 232.888 139.574 232.879 140.329C232.53 140.327 232.432 140.358 232.118 140.208C231.655 139.353 231.936 137.529 232.06 136.539Z" fill="var(--fill-0, #FEFEFE)"/>
<path id="Vector_42" d="M260.766 113.571C261.962 113.591 263.131 113.374 264.232 113.655C264.56 113.992 264.456 113.881 264.472 114.509C263.411 114.484 261.484 114.806 260.787 114.225L260.766 113.571Z" fill="var(--fill-0, #FEFEFE)"/>
<path id="Vector_43" d="M227.565 157.841C227.888 157.982 227.874 157.995 228.129 158.248C228.157 158.896 226.598 160.621 226.117 161.239C225.867 161.169 225.782 161.066 225.565 160.902L225.528 160.623C225.932 159.736 226.912 158.644 227.565 157.841Z" fill="var(--fill-0, #FEFEFE)"/>
<path id="Vector_44" d="M255.852 113.573C256.356 113.577 256.65 113.494 257.027 113.729L257.063 114.108C256.598 114.712 255.538 114.516 254.505 114.671C253.957 114.757 253.924 114.771 253.39 114.665L253.239 114.249C253.829 113.684 255.077 113.638 255.852 113.573Z" fill="var(--fill-0, #FEFEFE)"/>
<path id="Vector_45" d="M237.236 122.694C237.547 122.911 237.557 122.897 237.775 123.198C237.721 123.922 236.319 125.438 235.79 126.118C235.461 125.986 235.441 126.007 235.203 125.756C235.202 125.031 236.709 123.38 237.236 122.694Z" fill="var(--fill-0, #FEFEFE)"/>
<path id="Vector_46" d="M249.44 114.413C249.656 114.719 249.652 114.696 249.738 115.057C249.465 115.644 247.289 116.337 246.551 116.624C246.202 116.263 246.302 116.467 246.198 116.013C246.493 115.47 248.759 114.697 249.44 114.413Z" fill="var(--fill-0, #FEFEFE)"/>
<path id="Vector_47" d="M223.03 163.728C223.551 163.953 223.636 163.97 223.574 164.489C223.089 165.267 221.853 166.075 221.068 166.656C220.646 166.466 220.801 166.608 220.567 166.235C220.755 165.398 222.404 164.659 223.03 163.728Z" fill="var(--fill-0, #FEFEFE)"/>
<path id="Vector_48" d="M233.573 129.213C233.692 129.256 234.303 129.456 234.274 129.563C234.011 130.585 233.606 131.9 233.389 132.975C233.139 132.94 232.735 132.934 232.658 132.663C232.363 131.634 233.166 130.166 233.573 129.213Z" fill="var(--fill-0, #FEFEFE)"/>
<path id="Vector_49" d="M231.681 143.898C232.048 143.948 232.033 143.939 232.362 144.102C232.675 144.767 232.206 146.818 232.108 147.734C231.789 147.69 231.657 147.699 231.373 147.548C231.042 146.831 231.53 144.819 231.681 143.898Z" fill="var(--fill-0, #FEFEFE)"/>
<path id="Vector_50" d="M201.286 157.069C202.269 157.197 207.14 159.424 208.437 159.926C213.605 167.757 218.736 175.951 223.805 183.871L229.098 192.1C230.089 193.629 232.775 197.272 232.993 199.028C233.221 200.873 231.532 202.216 229.594 202.263C226.503 202.34 223.299 202.315 220.145 202.312L201.087 202.309C199.072 202.384 196.624 202.311 194.575 202.306L177.579 162.092L180.325 157.778C181.238 158.891 182.172 159.983 183.129 161.057C184.437 160.467 185.748 159.883 187.063 159.306C188.98 161.068 191.1 163.1 193.071 164.757C195.317 162.937 199.014 159.214 201.286 157.069Z" fill="var(--fill-0, #E0EFFF)"/>
<path id="Vector_51" d="M200.902 166.403C201.418 166.679 203.196 171.479 203.515 172.265C204.19 172.707 207.646 174.795 207.877 175.167C209.722 178.137 212 182.505 213.603 185.561C213.566 185.903 213.454 185.884 213.112 186.192C212.32 185.77 208.217 176.989 207.286 175.936C206.66 175.229 203.698 173.477 202.759 172.882C202.053 171.189 201.011 168.804 200.402 167.006C200.317 166.758 200.653 166.598 200.902 166.403Z" fill="var(--fill-0, #231F20)"/>
<path id="Vector_52" d="M192.899 180.543C193.307 180.537 193.323 180.523 193.734 180.635C194.039 181.613 193.989 189.996 194.031 191.671C193.652 191.694 193.45 191.75 193.127 191.557C193.021 191.075 193.027 188.799 193.017 188.206L192.899 180.543Z" fill="var(--fill-0, #231F20)"/>
<path id="Vector_53" d="M37.8047 55.4424H67.4852C67.4671 56.128 67.2633 57.5984 67.998 57.9238C68.6214 57.3475 68.4438 56.2394 68.4224 55.4424H99.1485V69.3957H92.8762C92.861 67.0453 92.9541 64.619 92.8748 62.2499C92.8353 61.07 91.574 61.2013 90.5467 61.1975C88.0055 61.188 85.3341 61.2044 82.7959 61.2143C81.8943 61.1862 80.7814 60.949 80.2392 61.779C80.0537 63.1274 80.0673 72.3763 80.4847 73.6637C80.9145 74.0177 87.783 73.8681 88.9088 73.8644V79.6426H37.8047V55.4424Z" fill="var(--fill-0, #FEFEFE)"/>
<path id="Vector_54" d="M74.4477 59.7037L76.5517 60.9976L74.8026 63.828C74.8063 65.2589 75.0179 73.0119 74.5241 73.5855C73.0772 74.1895 64.667 73.8569 62.5804 73.8644C61.8239 72.9684 62.0849 71.6358 62.1136 70.3445C61.5119 69.8031 60.7903 69.2296 60.1608 68.7064C60.643 68.1083 61.1429 67.4487 61.6898 66.9147L61.9848 66.9461C62.512 66.2811 61.6436 62.2761 62.3946 61.4718C62.4288 61.4352 62.5983 61.2785 62.6185 61.2776C65.6064 61.1379 70.7277 61.2082 73.5102 61.2142L74.4477 59.7037Z" fill="var(--fill-0, #231F20)"/>
<path id="Vector_55" d="M63.0558 62.1515H72.9486L69.3904 67.8982L67.2438 71.4096C65.8534 70.2884 64.4298 69.0538 63.0558 67.9007V62.1515Z" fill="var(--fill-0, #E6F2FF)"/>
<path id="Vector_56" d="M73.7951 65.4999C73.9781 66.1376 73.8906 71.8388 73.8853 72.9505H69.3335C69.3127 72.498 73.2474 66.3646 73.7951 65.4999Z" fill="var(--fill-0, #E6F2FF)"/>
<path id="Vector_57" d="M63.0669 71.1479C63.7378 71.6567 64.5592 72.3947 65.2154 72.9507H63.0592L63.0669 71.1479Z" fill="var(--fill-0, #E6F2FF)"/>
<path id="Vector_58" d="M56.4055 59.7174L58.5064 61.0024L56.7397 63.8637C56.7433 65.2345 56.9553 73.0258 56.4466 73.5855C55.0001 74.1983 46.6201 73.8535 44.5246 73.8643C43.769 73.0706 44.0322 71.511 44.0556 70.3161L42.1202 68.6743L44.0536 66.4357C44.068 65.4636 43.8651 62.1661 44.254 61.5479C45.315 60.9721 53.6557 61.2091 55.4892 61.2141L56.4055 59.7174Z" fill="var(--fill-0, #231F20)"/>
<path id="Vector_59" d="M44.9932 62.1515H54.8902L51.3101 67.9845L49.1905 71.4149L44.9934 67.9032L44.9932 62.1515Z" fill="var(--fill-0, #E6F2FF)"/>
<path id="Vector_60" d="M55.749 65.5073C55.8885 66.1297 55.8181 71.8949 55.812 72.9506L51.2627 72.95C51.2212 72.6071 55.2775 66.2562 55.749 65.5073Z" fill="var(--fill-0, #E6F2FF)"/>
<path id="Vector_61" d="M44.9943 71.1411C45.7193 71.6738 46.4694 72.3552 47.1557 72.9502L44.9932 72.9506L44.9943 71.1411Z" fill="var(--fill-0, #E6F2FF)"/>
<path id="Vector_62" d="M36.3964 130.497C46.544 129.969 55.188 137.79 55.676 147.939C56.1638 158.089 48.3095 166.702 38.1579 167.15C28.0632 167.595 19.5089 159.794 19.0238 149.7C18.5387 139.607 26.3055 131.023 36.3964 130.497Z" fill="var(--fill-0, #E6F2FF)"/>
<path id="Vector_63" d="M36.8492 142.675C40.2308 142.4 43.1988 144.91 43.4889 148.29C43.7789 151.671 41.2817 154.649 37.9027 154.954C34.5027 155.261 31.5015 152.744 31.2097 149.344C30.9179 145.942 33.4467 142.953 36.8492 142.675Z" fill="var(--fill-0, #231F20)"/>
<path id="Vector_64" d="M37.0668 143.591C39.9517 143.435 42.4182 145.645 42.5781 148.529C42.7379 151.414 40.5307 153.883 37.646 154.046C34.7567 154.209 32.2828 151.998 32.1227 149.108C31.9626 146.219 34.1771 143.748 37.0668 143.591Z" fill="var(--fill-0, #FF6B35)"/>
<path id="Vector_65" d="M284.702 95.6101C285.239 95.5279 286.485 95.8018 287.09 95.8501C291.396 96.195 294.187 98.1084 297.495 100.637C296.764 101.282 295.65 102.218 294.705 102.538C294.193 102.711 293.912 102.635 293.236 102.915C293.071 103.225 293.148 103.251 293.189 103.672C297.286 105.086 298.309 106.121 299.719 110.213L300.27 110.269C300.667 110.076 300.707 109.27 300.884 108.793C301.13 108.127 301.416 107.623 301.766 107.012L302.229 108.119C302.738 109.358 302.932 110.671 303.081 111.993C304.025 120.424 299.288 127.936 291.514 131.069C285.505 133.601 278.491 132.373 273.355 128.276C264.046 120.851 264.264 106.408 273.917 99.3324C277.76 96.5156 280.028 96.1775 284.702 95.6101Z" fill="var(--fill-0, #E6F2FF)"/>
<path id="Vector_66" d="M284.013 102.906C290.15 102.435 295.508 107.031 295.978 113.169C296.447 119.307 291.851 124.664 285.713 125.133C279.575 125.601 274.22 121.006 273.751 114.869C273.281 108.732 277.876 103.376 284.013 102.906Z" fill="var(--fill-0, #231F20)"/>
<path id="Vector_67" d="M284.271 103.82C289.904 103.493 294.735 107.795 295.062 113.428C295.389 119.061 291.087 123.892 285.455 124.219C279.822 124.546 274.99 120.244 274.663 114.611C274.336 108.978 278.638 104.147 284.271 103.82Z" fill="var(--fill-0, #FF6B35)"/>
<path id="Vector_68" d="M129.059 105.71C130.192 105.635 131.283 105.799 131.997 106.782C133.847 109.331 135.506 112.062 137.209 114.717L147.909 131.399L140.776 141.31L135.869 138.635C133.591 140.922 131.068 143.842 128.839 146.264C127.887 145.237 126.931 144.14 125.993 143.095C123.656 140.432 121.196 137.617 118.797 135.023C116.265 137.158 113.609 139.524 111.009 141.529L107.819 136.946L121.196 116.099L125.07 110.052C126.156 108.359 127.049 106.304 129.059 105.71Z" fill="var(--fill-0, #FEFEFE)"/>
<path id="Vector_69" d="M98.7329 129.184C99.7948 129.123 100.854 129.201 101.585 130.063C103.144 131.9 104.566 134.01 105.965 135.975L115.417 149.416L114.857 152.044C112.831 152.511 108.042 153.491 106.274 154.105C106.098 154.41 106.164 154.391 106.174 154.802C106.554 155.313 111.312 156.021 112.295 156.201C110.906 157.725 109.102 159.496 107.647 160.998L97.0145 155.699C96.591 156.052 96.1391 156.498 95.7318 156.879L84.5065 167.57C82.4007 164.192 80.1004 159.912 78.0846 156.401C84.5707 147.82 90.546 138.721 97.083 130.173C97.4565 129.685 98.1797 129.388 98.7329 129.184Z" fill="var(--fill-0, #FEFEFE)"/>
<path id="Vector_70" d="M218.243 94.4747H240.674V116.839H226.154C226.148 115.144 226.397 111.555 226.168 110.052C226.12 109.738 226.017 109.426 225.771 109.21C225.086 108.61 219.495 108.928 218.243 108.929V94.4747Z" fill="var(--fill-0, #F6B2C6)"/>
<path id="Vector_71" d="M222.579 98.2273L230.713 98.2172C232.102 98.2126 234.259 98.1396 235.595 98.2773C235.817 98.5459 235.741 98.7063 235.764 99.1445L227.413 99.1585C226.05 99.1606 224.086 99.2207 222.767 99.1029C222.509 98.7744 222.599 98.7506 222.579 98.2273Z" fill="var(--fill-0, #231F20)"/>
<path id="Vector_72" d="M222.579 102.73C225.778 102.725 229.791 102.61 232.925 102.767C233.14 103.025 233.07 103.22 233.096 103.642C230.498 103.649 225.139 103.819 222.758 103.6C222.521 103.329 222.603 103.194 222.579 102.73Z" fill="var(--fill-0, #231F20)"/>
<path id="Vector_73" d="M89.8323 70.3124H112.124V84.7831C110.715 84.7844 105.044 84.5475 104.28 85.0699C104.208 87.4794 104.27 90.243 104.269 92.6791L89.8323 92.6795V70.3124Z" fill="var(--fill-0, #030507)"/>
<path id="Vector_74" d="M95.608 74.2578C98.7413 74.5371 96.797 77.6474 95.8652 79.0897C96.6793 79.6701 98.1845 80.4848 99.1221 79.8953C99.3958 79.4072 98.9659 78.8088 99.1294 78.2626C99.3536 77.5135 100.375 77.3963 101.015 77.6035C101.902 78.495 100.931 79.5905 101.119 80.2209C103.572 81.362 104.372 77.1937 106.561 77.5253C108.377 77.8006 108.921 79.3356 108.63 80.9055C108.337 81.1374 108.163 80.961 107.868 80.8304C107.68 80.2081 107.889 79.1394 107.2 78.7579C105.02 77.5516 104.48 81.1953 102.443 81.3532C101.531 81.424 101.174 81.0752 100.329 80.8633C97.9409 80.7884 97.3987 81.4129 95.3175 79.788C94.9566 80.1991 94.5674 80.7442 94.0883 80.9398C93.6172 80.8345 93.8356 80.9378 93.457 80.5372C93.5351 80.2647 94.3753 79.4066 94.6532 79.0788C94.5444 78.8726 94.4448 78.6616 94.3545 78.4465C93.5917 76.6596 93.5948 75.025 95.608 74.2578Z" fill="var(--fill-0, white)"/>
<path id="Vector_75" d="M95.6902 75.133C97.1524 75.7336 95.9662 77.1946 95.4143 78.0898C94.6865 78.0334 94.4608 75.961 95.6902 75.133Z" fill="var(--fill-0, #030507)"/>
<path id="Vector_76" d="M193.393 139.714C193.733 139.673 194.078 139.692 194.41 139.773C194.907 139.892 195.525 140.161 195.845 140.562C197.332 142.416 198.637 144.631 199.915 146.63L207.609 158.619C205.505 157.699 203.273 156.819 201.143 155.944C198.926 157.947 196.647 160.164 194.454 162.22L193.078 163.535C191.336 162.1 188.959 159.787 187.24 158.213L183.345 159.944C182.552 158.962 181.674 157.953 180.856 156.983C183.989 151.812 187.525 146.738 190.734 141.602C191.443 140.465 192.045 139.942 193.393 139.714Z" fill="var(--fill-0, #FEFEFE)"/>
<path id="Vector_77" d="M178.411 52.3482H193.949L193.942 68.085H178.405L178.411 52.3482Z" fill="var(--fill-0, #E6F2FF)"/>
<path id="Vector_78" d="M181.616 55.9845C183.962 55.9789 188.549 55.8361 190.721 56.0314C190.922 56.3588 190.849 56.4767 190.86 56.9257C188.312 56.9317 184.144 57.0669 181.724 56.888C181.514 56.4905 181.594 56.5114 181.616 55.9845Z" fill="var(--fill-0, #231F20)"/>
<path id="Vector_79" d="M182.431 63.3157C184.134 63.3112 188.296 63.1906 189.734 63.3666C190.013 63.6602 189.922 63.7159 189.965 64.2392C188.209 64.2515 184.251 64.3727 182.69 64.1962C182.45 63.898 182.503 63.7551 182.431 63.3157Z" fill="var(--fill-0, #231F20)"/>
<path id="Vector_80" d="M184.329 59.6447C185.305 59.665 187.097 59.4116 187.919 59.8131C188.064 59.8835 188.073 60.3398 188.105 60.564C187.161 60.5455 185.297 60.8064 184.512 60.3784C184.378 60.3051 184.36 59.8548 184.329 59.6447Z" fill="var(--fill-0, #231F20)"/>
<path id="Vector_81" d="M283.985 59.4065C284.215 59.8289 284.109 77.1933 284.108 79.1724C279.904 77.325 275.499 75.7506 271.26 73.97C269.876 73.3886 268.418 72.8119 267.009 72.2938C264.78 71.2809 261.864 70.2013 259.545 69.2471C267.458 65.8699 275.97 62.6833 283.985 59.4065Z" fill="var(--fill-0, #FF6B35)"/>
<path id="Vector_82" d="M152.599 35.9305H182.182L174.761 43.3495L167.391 50.7188L152.599 35.9305Z" fill="var(--fill-0, #FF6B35)"/>
<path id="Vector_83" d="M151.968 36.6467C153.102 37.5878 155.72 40.3491 156.862 41.4909L166.739 51.3694L159.369 58.7348L151.957 66.1457L151.968 36.6467Z" fill="var(--fill-0, #FF6B35)"/>
<path id="Vector_84" d="M208.827 84.5694H224.526V93.537H217.782C217.739 93.5765 217.696 93.6141 217.655 93.6555C216.97 94.3545 217.294 99.129 217.303 100.231H208.815L208.827 84.5694Z" fill="var(--fill-0, #030507)"/>
<path id="Vector_85" d="M167.366 52.0435C167.848 52.408 169.422 54.0325 169.931 54.5419L175.057 59.6841V66.8097H160.65H152.595L167.366 52.0435Z" fill="var(--fill-0, #FF6B35)"/>
<path id="Vector_86" d="M182.767 36.6564C182.884 37.1941 182.841 40.4096 182.84 41.1938L182.829 51.4297C181.846 51.4443 180.725 51.4522 179.751 51.3601C177.372 51.1347 177.441 52.0223 177.489 53.995C174.017 53.8797 175.06 55.3901 175.06 58.3808L171.639 54.9615L168.042 51.3698L182.767 36.6564Z" fill="var(--fill-0, #FF6B35)"/>
<path id="Vector_87" d="M65.4606 111.652C68.8368 111.187 71.9508 113.547 72.4161 116.923C72.8814 120.3 70.5218 123.414 67.1457 123.879C63.769 124.345 60.6542 121.985 60.1888 118.608C59.7235 115.232 62.0838 112.117 65.4606 111.652Z" fill="var(--fill-0, #E6F2FF)"/>
<path id="Vector_88" d="M132.848 55.5993C136.211 55.0503 139.383 57.331 139.933 60.6938C140.482 64.0567 138.203 67.2288 134.84 67.7796C131.476 68.3305 128.302 66.0496 127.753 62.6855C127.203 59.3214 129.484 56.1485 132.848 55.5993Z" fill="var(--fill-0, #E6F2FF)"/>
<path id="Vector_89" d="M81.1133 62.1571L91.9622 62.152V69.3952C90.6766 69.386 89.7696 69.1194 88.908 69.8536V72.951H81.1136L81.1133 62.1571Z" fill="var(--fill-0, #FF6B35)"/>
<path id="Vector_90" d="M64.3778 39.3677C65.6609 39.3766 70.4974 39.2129 71.409 39.4822C71.5403 39.8223 71.6506 40.4113 71.3945 40.699C70.9643 40.7338 70.8158 40.7561 70.393 40.8457C69.7672 41.4978 70.0535 44.8756 70.0631 45.9368C70.7078 47.0353 72.2328 49.4946 72.6793 50.5532C72.426 50.7679 72.2849 50.6908 71.8597 50.7073H63.1032C63.9259 49.183 64.9571 47.496 65.8343 45.9803C65.8225 44.8118 66.2116 41.4027 65.3381 40.7481C64.9465 40.707 64.906 40.719 64.5286 40.5702C64.2863 40.228 64.3631 39.8049 64.3778 39.3677Z" fill="var(--fill-0, #007BFF)"/>
<path id="Vector_91" d="M117.152 146.059C117.46 146.4 118.579 152.19 118.757 153.024C121.141 153.5 123.517 154.009 125.887 154.551C123.519 155.105 121.141 155.619 118.755 156.089C118.288 158.295 117.786 161.003 117.205 163.148C116.588 160.766 116.23 158.289 115.62 155.911C113.451 155.413 110.74 154.957 108.54 154.551C109.946 154.024 113.935 153.21 115.62 152.807C116.143 151.142 116.671 147.973 117.152 146.059Z" fill="var(--fill-0, #FEFEFE)"/>
<path id="Vector_92" d="M300.025 98.5739C300.269 98.8218 300.668 99.5753 300.921 99.918C302.235 101.701 303.026 102.332 304.925 103.331C302.556 104.56 301.4 105.71 300.133 108.057C299.888 107.856 299.396 107.032 299.178 106.713C297.987 104.965 297.059 104.329 295.232 103.33C297.637 102.08 298.738 100.944 300.025 98.5739Z" fill="var(--fill-0, #FEFEFE)"/>
<path id="Vector_93" d="M179.504 103.38C180.94 103.258 191.245 103.115 191.976 103.492C192.271 103.644 192.356 103.865 192.459 104.157C192.4 104.699 192.37 104.716 192.029 105.166C190.708 105.326 180.22 105.449 179.478 105.039C179.214 104.893 179.054 104.639 179.041 104.337C179.023 103.944 179.268 103.661 179.504 103.38Z" fill="var(--fill-0, #030507)"/>
<path id="Vector_94" d="M105.185 85.6969H111.498L108.319 88.8824L105.181 92.0265L105.185 85.6969Z" fill="var(--fill-0, #030507)"/>
<path id="Vector_95" d="M218.925 109.876L225.236 109.866L225.229 116.119C224.029 115.151 220.212 111.163 218.925 109.876Z" fill="var(--fill-0, #F6B2C6)"/>
<path id="Vector_96" d="M260.001 158.296C260.817 158.245 261.544 158.388 262.076 159.087C262.912 160.19 261.701 161.961 261.143 163.034C258.048 168.972 255.008 174.958 251.845 180.861C251.707 181.119 251.123 181.451 250.872 181.6C250.085 181.655 249.385 181.518 248.86 180.893C248.601 180.585 248.385 179.902 248.506 179.509C248.801 178.565 249.309 177.705 249.748 176.823C252.838 170.907 255.855 164.943 259.009 159.063C259.156 158.788 259.739 158.452 260.001 158.296Z" fill="var(--fill-0, #231F20)"/>
<path id="Vector_97" d="M260.236 159.142C262.239 159.483 261.176 161.339 260.442 162.364C258.444 165.159 252.541 179.186 250.639 180.751C250.202 180.68 249.114 180.272 249.426 179.75C251.223 176.737 258.436 160.613 260.236 159.142Z" fill="var(--fill-0, #E6F2FF)"/>
<path id="Vector_98" d="M94.5377 45.4325C95.6869 45.3247 97.0111 45.3654 98.1774 45.3671C101.032 45.3709 103.905 45.3084 106.757 45.3964C107.306 45.4135 107.946 45.6943 108.249 46.1608C109.051 47.3962 108.499 48.335 107.406 49.0265C106.211 49.2303 102.796 49.1114 101.417 49.1348C99.4174 49.0313 97.1621 49.2948 95.185 49.0824C93.0173 48.8493 92.6409 46.7146 94.5377 45.4325Z" fill="var(--fill-0, #231F20)"/>
<path id="Vector_99" d="M94.78 46.3139C96.4477 46.3036 106.378 46.1003 107.321 46.5222C107.915 47.1761 107.691 47.6187 107.11 48.171C105.631 48.2547 95.2447 48.4363 94.565 47.9282C94.35 47.7674 94.2615 47.5806 94.2532 47.3138C94.2401 46.8919 94.5115 46.6015 94.78 46.3139Z" fill="var(--fill-0, #FF6B35)"/>
<path id="Vector_100" d="M211.443 35.0732C213.071 34.7892 214.621 35.8784 214.906 37.5064C215.191 39.1343 214.102 40.6852 212.474 40.9709C210.845 41.257 209.293 40.1677 209.007 38.5384C208.722 36.909 209.813 35.3573 211.443 35.0732Z" fill="var(--fill-0, #231F20)"/>
<path id="Vector_101" d="M211.73 35.9739C212.473 35.8919 213.203 36.2189 213.635 36.8283C214.069 37.4378 214.138 38.2341 213.816 38.909C213.494 39.5839 212.832 40.0316 212.086 40.0788C210.968 40.1493 210 39.3153 209.903 38.2002C209.806 37.0851 210.617 36.0966 211.73 35.9739Z" fill="var(--fill-0, #F6B2C6)"/>
<path id="Vector_102" d="M44.7385 97.28C46.3658 97.0593 47.8668 98.1909 48.1027 99.8159C48.3386 101.441 47.221 102.953 45.5982 103.204C43.9539 103.458 42.4178 102.322 42.1787 100.676C41.9397 99.029 43.0896 97.5036 44.7385 97.28Z" fill="var(--fill-0, #231F20)"/>
<path id="Vector_103" d="M45.0393 98.1869C46.1575 98.1311 47.1158 98.9779 47.1981 100.094C47.2805 101.211 46.4568 102.189 45.3425 102.298C44.5977 102.371 43.872 102.034 43.4462 101.419C43.0205 100.803 42.9617 100.006 43.2926 99.3346C43.6234 98.6634 44.2919 98.2241 45.0393 98.1869Z" fill="var(--fill-0, #030507)"/>
<path id="Vector_104" d="M131.351 33.7937C132.39 33.6429 133.356 34.3599 133.512 35.3983C133.668 36.4369 132.958 37.4068 131.92 37.5694C130.874 37.7334 129.895 37.0148 129.736 35.9681C129.578 34.9212 130.303 33.9457 131.351 33.7937Z" fill="var(--fill-0, #231F20)"/>
<path id="Vector_105" d="M131.155 34.8293C131.466 34.6584 131.845 34.6697 132.145 34.8588C132.446 35.048 132.62 35.385 132.6 35.7393C132.58 36.0936 132.37 36.4092 132.049 36.5637C131.573 36.7939 131 36.6025 130.758 36.1323C130.515 35.6621 130.691 35.0841 131.155 34.8293Z" fill="var(--fill-0, #030507)"/>
<path id="Vector_106" d="M246.582 78.9483C247.584 78.6388 248.647 79.1945 248.966 80.1933C249.284 81.1919 248.736 82.2603 247.741 82.5866C246.732 82.9167 245.649 82.362 245.327 81.3514C245.005 80.3408 245.569 79.2616 246.582 78.9483Z" fill="var(--fill-0, #231F20)"/>
<path id="Vector_107" d="M246.838 79.8447C247.344 79.6784 247.889 79.9474 248.065 80.4495C248.24 80.9517 247.981 81.5021 247.482 81.6873C247.151 81.8101 246.781 81.7446 246.511 81.516C246.242 81.2873 246.118 80.9312 246.186 80.5846C246.252 80.238 246.502 79.9551 246.838 79.8447Z" fill="var(--fill-0, #E6F2FF)"/>
<path id="Vector_108" d="M46.0569 178.355C47.0743 178.319 47.9399 179.09 48.0233 180.105C48.1067 181.119 47.3783 182.02 46.3688 182.152C45.6718 182.241 44.9816 181.941 44.5725 181.371C44.1634 180.798 44.1017 180.048 44.4121 179.418C44.7224 178.787 45.3545 178.379 46.0569 178.355Z" fill="var(--fill-0, #231F20)"/>
<path id="Vector_109" d="M45.7057 179.381C46.0256 179.23 46.4018 179.264 46.6894 179.469C46.9768 179.676 47.1306 180.021 47.0911 180.372C47.0517 180.724 46.8254 181.025 46.4994 181.163C46.0101 181.368 45.4461 181.145 45.2301 180.66C45.0143 180.175 45.2255 179.607 45.7057 179.381Z" fill="var(--fill-0, #F6B2C6)"/>
</g>
<defs>
<linearGradient id="paint0_linear_0_154" x1="116.738" y1="67.7238" x2="116.738" y2="168.106" gradientUnits="userSpaceOnUse">
<stop stop-color="#DDEDFF"/>
<stop offset="1" stop-color="#85C0FF"/>
</linearGradient>
<linearGradient id="paint1_linear_0_154" x1="240.489" y1="98.5593" x2="240.489" y2="182.871" gradientUnits="userSpaceOnUse">
<stop stop-color="#DDEDFF"/>
<stop offset="1" stop-color="#85C0FF"/>
</linearGradient>
</defs>
</svg>
