<svg preserveAspectRatio="none" width="100%" height="100%" overflow="visible" style="display: block;" viewBox="0 0 18.3333 18.3334" fill="none" xmlns="http://www.w3.org/2000/svg">
<g id="elements">
<path id="Vector" d="M5 2.91675C3.61929 2.91675 2.5 4.03603 2.5 5.41675C2.5 5.89063 2.63185 6.33372 2.86087 6.71133C1.70606 6.93221 0.833333 7.94756 0.833333 9.16675C0.833333 10.3859 1.70606 11.4013 2.86087 11.6222M5 2.91675C5 1.76615 5.93274 0.833413 7.08333 0.833413C8.23393 0.833413 9.16667 1.76615 9.16667 2.91675V15.4167C9.16667 16.5673 8.23393 17.5001 7.08333 17.5001C5.93274 17.5001 5 16.5673 5 15.4167C3.61929 15.4167 2.5 14.2975 2.5 12.9167C2.5 12.4429 2.63185 11.9998 2.86087 11.6222M5 2.91675C5 3.59834 5.32731 4.20348 5.83333 4.58357M2.86087 11.6222C3.1579 11.1324 3.61839 10.7528 4.16667 10.559" stroke="var(--stroke-0, #007BFF)" stroke-width="1.66667" stroke-linecap="round" stroke-linejoin="round"/>
<path id="Vector_2" d="M13.3333 15.4167C14.714 15.4167 15.8333 14.2974 15.8333 12.9167C15.8333 12.4428 15.7015 11.9997 15.4725 11.6221C16.6273 11.4012 17.5 10.3859 17.5 9.16667C17.5 7.94748 16.6273 6.93213 15.4725 6.71125M13.3333 15.4167C13.3333 16.5673 12.4006 17.5 11.25 17.5C10.0994 17.5 9.16667 16.5673 9.16667 15.4167L9.16667 2.91667C9.16667 1.76607 10.0994 0.833333 11.25 0.833333C12.4006 0.833333 13.3333 1.76607 13.3333 2.91667C14.714 2.91667 15.8333 4.03596 15.8333 5.41667C15.8333 5.89055 15.7015 6.33364 15.4725 6.71125M13.3333 15.4167C13.3333 14.7351 13.006 14.1299 12.5 13.7498M15.4725 6.71125C15.1754 7.20101 14.7149 7.58063 14.1667 7.77441" stroke="var(--stroke-0, #007BFF)" stroke-width="1.66667" stroke-linecap="round" stroke-linejoin="round"/>
</g>
</svg>
