<svg preserveAspectRatio="none" width="100%" height="100%" overflow="visible" style="display: block;" viewBox="0 0 17.1273 17.9375" fill="none" xmlns="http://www.w3.org/2000/svg">
<g id="elements">
<path id="Vector" d="M0.671895 10.9742C0.494684 12.1017 1.28696 12.8843 2.25701 13.2744C5.97597 14.7697 11.1513 14.7697 14.8702 13.2744C15.8403 12.8843 16.6326 12.1017 16.4554 10.9742C16.3465 10.2813 15.8079 9.70427 15.409 9.14084C14.8864 8.39377 14.8344 7.57893 14.8344 6.71201C14.8344 3.36175 12.0269 0.645833 8.56363 0.645833C5.1004 0.645833 2.2929 3.36175 2.2929 6.71201C2.29282 7.57893 2.2409 8.39377 1.7183 9.14084C1.31932 9.70427 0.780804 10.2813 0.671895 10.9742Z" stroke="var(--stroke-0, #007BFF)" stroke-width="1.29167" stroke-linecap="round" stroke-linejoin="round"/>
<path id="Vector_2" d="M6.06363 16.4792C6.72707 16.9974 7.60318 17.3125 8.56363 17.3125C9.52407 17.3125 10.4002 16.9974 11.0636 16.4792" stroke="var(--stroke-0, #007BFF)" stroke-width="1.25" stroke-linecap="round" stroke-linejoin="round"/>
</g>
</svg>
