<svg preserveAspectRatio="none" width="100%" height="100%" overflow="visible" style="display: block;" viewBox="0 0 17.5029 18.3333" fill="none" xmlns="http://www.w3.org/2000/svg">
<g id="elements">
<path id="Vector" d="M0.859725 11.1617C0.682513 12.2892 1.47479 13.0718 2.44483 13.4619C6.1638 14.9572 11.3391 14.9572 15.0581 13.4619C16.0281 13.0718 16.8204 12.2892 16.6432 11.1617C16.5343 10.4688 15.9958 9.89177 15.5968 9.32834C15.0742 8.58127 15.0223 7.76643 15.0222 6.89951C15.0222 3.54925 12.2147 0.833333 8.75146 0.833333C5.28823 0.833333 2.48073 3.54925 2.48073 6.89951C2.48065 7.76643 2.42873 8.58127 1.90613 9.32834C1.50715 9.89177 0.968633 10.4688 0.859725 11.1617Z" stroke="var(--stroke-0, #F43F5E)" stroke-width="1.66667" stroke-linecap="round" stroke-linejoin="round"/>
<path id="Vector_2" d="M6.25146 16.6667C6.9149 17.1849 7.79101 17.5 8.75146 17.5C9.7119 17.5 10.588 17.1849 11.2515 16.6667" stroke="var(--stroke-0, #F43F5E)" stroke-width="1.66667" stroke-linecap="round" stroke-linejoin="round"/>
</g>
</svg>
