<svg preserveAspectRatio="none" width="100%" height="100%" overflow="visible" style="display: block;" viewBox="0 0 15.7478 16.5" fill="none" xmlns="http://www.w3.org/2000/svg">
<g id="elements">
<path id="Vector" d="M7.87254 0.75C5.61671 0.75 4.15403 2.26424 2.42418 2.81618C1.72081 3.0406 1.36912 3.15281 1.22679 3.31099C1.08446 3.46917 1.04279 3.70031 0.959433 4.1626C0.0674667 9.1095 2.01706 13.683 6.66661 15.4631C7.16618 15.6544 7.41596 15.75 7.875 15.75C8.33404 15.75 8.58381 15.6544 9.08335 15.4631C13.7326 13.683 15.6803 9.10948 14.7881 4.16259C14.7047 3.70023 14.663 3.46905 14.5207 3.31086C14.3783 3.15268 14.0267 3.04054 13.3233 2.81624C11.5928 2.26436 10.1285 0.75 7.87254 0.75Z" stroke="var(--stroke-0, #F43F5E)" stroke-width="1.5" stroke-linecap="round" stroke-linejoin="round"/>
<path id="Vector_2" d="M5.62389 9C5.62389 9 6.37389 9 7.12389 10.5C7.12389 10.5 9.50624 6.75 11.6239 6" stroke="var(--stroke-0, #F43F5E)" stroke-width="1.5" stroke-linecap="round" stroke-linejoin="round"/>
</g>
</svg>
