<svg width="20" height="20" viewBox="0 0 18.2531 17.083" fill="none" xmlns="http://www.w3.org/2000/svg">
<g id="elements">
<path d="M12.098 8.5415C12.098 10.1826 10.7677 11.5129 9.12657 11.5129C7.48549 11.5129 6.15513 10.1826 6.15513 8.5415C6.15513 6.90042 7.48549 5.57006 9.12657 5.57006C10.7677 5.57006 12.098 6.90042 12.098 8.5415Z" stroke="#000000" stroke-width="1.5"/>
<path d="M16.7767 10.3214C17.2198 10.2019 17.4414 10.1421 17.5289 10.0279C17.6164 9.91367 17.6164 9.72989 17.6164 9.36234V7.72073C17.6164 7.35317 17.6164 7.16939 17.5289 7.05515C17.4414 6.94091 17.2198 6.88117 16.7767 6.76167C15.1209 6.31511 14.0846 4.58398 14.5119 2.93895C14.6294 2.48655 14.6882 2.26034 14.6321 2.12768C14.576 1.99501 14.4149 1.90359 14.0929 1.72074L12.6287 0.889387C12.3126 0.70996 12.1546 0.620247 12.0128 0.639352C11.871 0.658457 11.711 0.818069 11.391 1.13729C10.1521 2.3732 8.10234 2.37315 6.86347 1.13721C6.54348 0.817989 6.38349 0.658376 6.24167 0.63927C6.09985 0.620164 5.94184 0.709878 5.62582 0.889306L4.16158 1.72066C3.83955 1.90349 3.67854 1.99491 3.62243 2.12756C3.56631 2.26021 3.62505 2.48644 3.74253 2.93889C4.16968 4.58396 3.13252 6.31515 1.47641 6.76169C1.03332 6.88115 0.811779 6.94089 0.724261 7.05513C0.636744 7.16937 0.636744 7.35316 0.636744 7.72073V9.36234C0.636744 9.7299 0.636744 9.91369 0.724255 10.0279C0.811765 10.1422 1.03331 10.2019 1.4764 10.3214C3.13224 10.768 4.16858 12.4991 3.74124 14.1441C3.62371 14.5965 3.56495 14.8227 3.62106 14.9554C3.67717 15.0881 3.83819 15.1795 4.16024 15.3623L5.62448 16.1937C5.94052 16.3731 6.09854 16.4628 6.24037 16.4437C6.3822 16.4246 6.54217 16.265 6.86209 15.9457C8.10163 14.7088 10.1529 14.7088 11.3924 15.9457C11.7123 16.2649 11.8723 16.4245 12.0141 16.4436C12.156 16.4628 12.314 16.373 12.63 16.1936L14.0942 15.3623C14.4163 15.1794 14.5773 15.088 14.6335 14.9553C14.6896 14.8226 14.6308 14.5964 14.5132 14.1441C14.0857 12.4991 15.1212 10.768 16.7767 10.3214Z" stroke="#000000" stroke-width="1.27347" stroke-linecap="round"/>
</g>
</svg>
