<svg preserveAspectRatio="none" width="100%" height="100%" overflow="visible" style="display: block;" viewBox="0 0 15 14.25" fill="none" xmlns="http://www.w3.org/2000/svg">
<g id="elements">
<path id="Vector" d="M14.25 3C14.25 4.24264 13.2426 5.25 12 5.25C10.7574 5.25 9.75 4.24264 9.75 3C9.75 1.75736 10.7574 0.75 12 0.75C13.2426 0.75 14.25 1.75736 14.25 3Z" stroke="var(--stroke-0, #334155)" stroke-width="1.5"/>
<path id="Vector_2" d="M5.25 7.125C5.25 8.36764 4.24264 9.375 3 9.375C1.75736 9.375 0.75 8.36764 0.75 7.125C0.75 5.88236 1.75736 4.875 3 4.875C4.24264 4.875 5.25 5.88236 5.25 7.125Z" stroke="var(--stroke-0, #334155)" stroke-width="1.5"/>
<path id="Vector_3" d="M14.25 11.25C14.25 12.4926 13.2426 13.5 12 13.5C10.7574 13.5 9.75 12.4926 9.75 11.25C9.75 10.0074 10.7574 9 12 9C13.2426 9 14.25 10.0074 14.25 11.25Z" stroke="var(--stroke-0, #334155)" stroke-width="1.5"/>
<path id="Vector_4" d="M5.04639 6.18733L9.92139 3.93773M5.04639 8.06273L9.92139 10.3123" stroke="var(--stroke-0, #334155)" stroke-width="1.5"/>
</g>
</svg>
