<svg preserveAspectRatio="none" width="100%" height="100%" overflow="visible" style="display: block;" viewBox="0 0 17.0628 14.25" fill="none" xmlns="http://www.w3.org/2000/svg">
<g id="elements">
<path id="Vector" d="M13.3998 12.9375H13.7674C14.6298 12.9375 15.3158 12.5446 15.9316 11.9952C17.4963 10.5994 13.8183 9.1875 12.5627 9.1875M11.0627 1.73908C11.233 1.7053 11.4099 1.6875 11.5913 1.6875C12.9562 1.6875 14.0627 2.69486 14.0627 3.9375C14.0627 5.18014 12.9562 6.1875 11.5913 6.1875C11.4099 6.1875 11.233 6.1697 11.0627 6.13592" stroke="var(--stroke-0, #CBD5E1)" stroke-width="1.5" stroke-linecap="round"/>
<g id="Vector_2">
<path d="M2.7987 10.0209C1.91447 10.4947 -0.403926 11.4623 1.00813 12.6731C1.69791 13.2645 2.46615 13.6875 3.43201 13.6875H8.94343C9.90929 13.6875 10.6775 13.2645 11.3673 12.6731C12.7794 11.4623 10.461 10.4947 9.57674 10.0209C7.50323 8.9097 4.87221 8.9097 2.7987 10.0209Z" stroke="var(--stroke-0, #CBD5E1)" stroke-width="1.125"/>
<path d="M9.18772 3.5625C9.18772 5.21935 7.84457 6.5625 6.18772 6.5625C4.53087 6.5625 3.18772 5.21935 3.18772 3.5625C3.18772 1.90565 4.53087 0.5625 6.18772 0.5625C7.84457 0.5625 9.18772 1.90565 9.18772 3.5625Z" stroke="var(--stroke-0, #CBD5E1)" stroke-width="1.125"/>
</g>
</g>
</svg>
