<svg preserveAspectRatio="none" width="100%" height="100%" overflow="visible" style="display: block;" viewBox="0 0 16.5 16.5" fill="none" xmlns="http://www.w3.org/2000/svg">
<g id="elements">
<path id="Vector" d="M15.75 15.75L0.75 0.75" stroke="var(--stroke-0, #007BFF)" stroke-width="1.5" stroke-linecap="round" stroke-linejoin="round"/>
<path id="Vector_2" d="M5.91175 11.9836L6.31363 11.59L6.31363 11.59L5.91175 11.9836ZM1.42258 5.82946L1.7396 6.29411L1.7396 6.29411L1.42258 5.82946ZM1.42258 10.6705L1.7396 10.2059L1.7396 10.2059L1.42258 10.6705ZM9.05602 14.192L9.27514 14.7101L9.27514 14.7101L9.05602 14.192ZM10.3125 9.75C10.3125 9.43934 10.0607 9.1875 9.75001 9.1875C9.43935 9.1875 9.18751 9.43934 9.18751 9.75H9.75001H10.3125ZM5.57219 5.65176C5.81353 5.45615 5.8506 5.10193 5.655 4.86059C5.45939 4.61925 5.10517 4.58217 4.86382 4.77778L5.218 5.21477L5.57219 5.65176ZM3.37954 5.57151V5.00901C2.86519 5.00901 2.4362 5.00831 2.08999 5.04427C1.73378 5.08127 1.40306 5.16183 1.10555 5.36481L1.42258 5.82946L1.7396 6.29411C1.82016 6.23915 1.94162 6.19073 2.20622 6.16325C2.48083 6.13472 2.84129 6.13401 3.37954 6.13401V5.57151ZM3.37954 10.9285V10.366C2.84129 10.366 2.48083 10.3653 2.20622 10.3368C1.94162 10.3093 1.82016 10.2608 1.7396 10.2059L1.42258 10.6705L1.10555 11.1352C1.40306 11.3382 1.73378 11.4187 2.08999 11.4557C2.4362 11.4917 2.86519 11.491 3.37954 11.491V10.9285ZM9.75001 10.3602H9.18751C9.18751 11.5581 9.18618 12.395 9.10608 12.9734C9.02244 13.5774 8.88348 13.6543 8.8369 13.674L9.05602 14.192L9.27514 14.7101C9.92255 14.4363 10.1306 13.7767 10.2204 13.1278C10.3138 12.4533 10.3125 11.5211 10.3125 10.3602H9.75001ZM5.91175 11.9836L5.50987 12.3771C6.31335 13.1976 6.95908 13.8589 7.49357 14.2695C8.00872 14.6651 8.62169 14.9865 9.27514 14.7101L9.05602 14.192L8.83691 13.674C8.79637 13.6911 8.65396 13.7422 8.17886 13.3773C7.72308 13.0272 7.14368 12.4376 6.31363 11.59L5.91175 11.9836ZM9.75001 9.75H9.18751V10.3602H9.75001H10.3125V9.75H9.75001ZM0.756404 8.25H1.3189C1.3189 7.77939 1.29152 7.38921 1.3508 7.01383C1.40549 6.66752 1.52165 6.44281 1.7396 6.29411L1.42258 5.82946L1.10555 5.36481C0.538695 5.75156 0.32177 6.31787 0.239575 6.83834C0.161971 7.32974 0.193904 7.8821 0.193904 8.25H0.756404ZM0.756404 8.25H0.193904C0.193904 8.6179 0.161971 9.17026 0.239575 9.66166C0.32177 10.1821 0.538695 10.7484 1.10555 11.1352L1.42258 10.6705L1.7396 10.2059C1.52165 10.0572 1.40549 9.83248 1.3508 9.48617C1.29152 9.11079 1.3189 8.72061 1.3189 8.25H0.756404ZM5.91175 11.9836L6.31363 11.59C5.87227 11.1393 5.47644 10.8114 4.99467 10.6123C4.51426 10.4137 4.00344 10.366 3.37954 10.366V10.9285V11.491C3.95925 11.491 4.29156 11.5389 4.56487 11.6519C4.83681 11.7644 5.10527 11.964 5.50987 12.3771L5.91175 11.9836ZM3.37954 5.57151V6.13401C3.65889 6.13401 4.05228 6.15468 4.40485 6.11518C4.78571 6.07252 5.19559 5.957 5.57219 5.65176L5.218 5.21477L4.86382 4.77778C4.70401 4.90731 4.52081 4.97016 4.27961 4.99717C4.01013 5.02736 3.75249 5.00901 3.37954 5.00901V5.57151Z" fill="var(--stroke-0, #007BFF)"/>
<path id="Vector_3" d="M9.05596 2.2996L8.83646 2.81751L9.05596 2.2996ZM6.35366 3.34548C6.13321 3.56437 6.13196 3.92053 6.35085 4.14097C6.56975 4.36141 6.9259 4.36267 7.14634 4.14377L6.75 3.74463L6.35366 3.34548ZM9.18744 6.375C9.18744 6.68566 9.43928 6.9375 9.74994 6.9375C10.0606 6.9375 10.3124 6.68566 10.3124 6.375H9.74994H9.18744ZM9.74994 6.13931H10.3124C10.3124 4.9759 10.3138 4.04196 10.2204 3.36635C10.1306 2.71663 9.92283 2.05607 9.27545 1.7817L9.05596 2.2996L8.83646 2.81751C8.88306 2.83726 9.02229 2.9147 9.10599 3.52037C9.18612 4.10015 9.18744 4.939 9.18744 6.13931H9.74994ZM6.75 3.74463L7.14634 4.14377C7.68777 3.60615 8.08963 3.22402 8.41467 2.99945C8.57421 2.88923 8.68377 2.83979 8.75433 2.82127C8.81296 2.80589 8.83003 2.81479 8.83646 2.81751L9.05596 2.2996L9.27545 1.7817C8.7163 1.54472 8.18356 1.79174 7.77519 2.07388C7.35269 2.36578 6.87906 2.82377 6.35366 3.34548L6.75 3.74463ZM9.74994 6.13931H9.18744V6.375H9.74994H10.3124V6.13931H9.74994Z" fill="var(--stroke-0, #007BFF)"/>
<path id="Vector_4" d="M12 6.75C12.4722 7.32501 12.75 8.02908 12.75 8.78961C12.75 9.12259 12.6967 9.44475 12.5972 9.75" stroke="var(--stroke-0, #007BFF)" stroke-width="1.125" stroke-linecap="round" stroke-linejoin="round"/>
<path id="Vector_5" d="M14.25 5.25C15.1881 6.17213 15.75 7.34637 15.75 8.625C15.75 9.68728 15.3622 10.6775 14.693 11.511" stroke="var(--stroke-0, #007BFF)" stroke-width="1.125" stroke-linecap="round" stroke-linejoin="round"/>
</g>
</svg>
