<svg preserveAspectRatio="none" width="100%" height="100%" overflow="visible" style="display: block;" viewBox="0 0 14.3333 14.3333" fill="none" xmlns="http://www.w3.org/2000/svg">
<g id="elements">
<path id="Vector" d="M12.5 5.16667C11.9699 2.5097 9.50853 0.5 6.55284 0.5C3.21033 0.5 0.5 3.07014 0.5 6.24003C0.5 7.76305 1.12546 9.14692 2.1457 10.1739C2.37033 10.4 2.5203 10.7089 2.45977 11.0269C2.35988 11.5467 2.1335 12.0316 1.80203 12.4358C2.67415 12.5966 3.58098 12.4518 4.35867 12.0418C4.63359 11.8969 4.77105 11.8244 4.86805 11.8098C4.93595 11.7995 5.0244 11.8091 5.16667 11.8335" stroke="var(--stroke-0, #007BFF)" stroke-linecap="round" stroke-linejoin="round"/>
<path id="Vector_2" d="M6.5 10.0078C6.5 11.945 8.14185 13.5156 10.1667 13.5156C10.4047 13.5159 10.6421 13.4939 10.876 13.45C11.0443 13.4184 11.1285 13.4025 11.1873 13.4115C11.246 13.4205 11.3293 13.4648 11.4958 13.5533C11.9669 13.8039 12.5163 13.8924 13.0446 13.7941C12.8438 13.5471 12.7067 13.2508 12.6461 12.9331C12.6095 12.7388 12.7003 12.55 12.8364 12.4118C13.4544 11.7842 13.8333 10.9385 13.8333 10.0078C13.8333 8.07064 12.1915 6.5 10.1667 6.5C8.14185 6.5 6.5 8.07064 6.5 10.0078Z" stroke="var(--stroke-0, #007BFF)" stroke-linejoin="round"/>
</g>
</svg>
