<svg preserveAspectRatio="none" width="100%" height="100%" overflow="visible" style="display: block;" viewBox="0 0 13.1667 13.1667" fill="none" xmlns="http://www.w3.org/2000/svg">
<g id="elements">
<path id="Vector" d="M9.5 3.08334C10.8683 3.08334 11.2607 3.08334 11.732 3.44497C11.8533 3.53807 11.9619 3.64667 12.055 3.768C12.4167 4.23929 12.4167 4.92342 12.4167 6.29167V8.91667C12.4167 10.5666 12.4167 11.3915 11.9041 11.9041C11.3915 12.4167 10.5666 12.4167 8.91667 12.4167H4.25C2.60009 12.4167 1.77513 12.4167 1.26257 11.9041C0.750003 11.3915 0.750003 10.5666 0.750003 8.91667V6.29167C0.750003 4.92342 0.750003 4.23929 1.11163 3.768C1.20474 3.64667 1.31334 3.53807 1.43467 3.44497C1.90596 3.08334 2.29842 3.08334 3.66667 3.08334" stroke="var(--stroke-0, #334155)" stroke-width="1.5" stroke-linecap="round"/>
<path id="Vector_2" d="M9.5 3.66667L8.98327 2.37484C8.76033 1.81748 8.56632 1.18523 7.99305 0.901407C7.68724 0.750002 7.31927 0.750002 6.58334 0.750002C5.8474 0.750002 5.47944 0.750002 5.17363 0.901407C4.60036 1.18523 4.40634 1.81748 4.1834 2.37484L3.66667 3.66667" stroke="var(--stroke-0, #334155)" stroke-width="1.5" stroke-linecap="round" stroke-linejoin="round"/>
<path id="Vector_3" d="M8.625 7.75C8.625 8.87758 7.71092 9.79167 6.58334 9.79167C5.45576 9.79167 4.54167 8.87758 4.54167 7.75C4.54167 6.62242 5.45576 5.70834 6.58334 5.70834C7.71092 5.70834 8.625 6.62242 8.625 7.75Z" stroke="var(--stroke-0, #334155)" stroke-width="1.5"/>
<path id="Vector_4" d="M6.58322 3.08334H6.58846" stroke="var(--stroke-0, #141B34)" stroke-width="2" stroke-linecap="round" stroke-linejoin="round"/>
</g>
</svg>
