<svg preserveAspectRatio="none" width="100%" height="100%" overflow="visible" style="display: block;" viewBox="0 0 14.8332 14.8342" fill="none" xmlns="http://www.w3.org/2000/svg">
<g id="elements">
<path id="Vector" d="M8.79903 2.00697C9.29582 1.46872 9.54421 1.1996 9.80816 1.04262C10.4451 0.663839 11.2293 0.652061 11.8768 1.01155C12.1451 1.16053 12.4012 1.42208 12.9132 1.94517C13.4253 2.46827 13.6813 2.72982 13.8272 3.00395C14.1791 3.66541 14.1676 4.46653 13.7968 5.11714C13.6431 5.38677 13.3797 5.64052 12.8528 6.14801L6.58364 12.1862C5.58514 13.1479 5.08589 13.6288 4.46193 13.8725C3.83797 14.1162 3.15202 14.0983 1.78013 14.0624L1.59347 14.0575C1.17583 14.0466 0.967001 14.0411 0.845612 13.9034C0.724223 13.7656 0.740796 13.5529 0.773941 13.1274L0.791939 12.8964C0.885227 11.699 0.931871 11.1003 1.16569 10.5621C1.39952 10.024 1.80285 9.58698 2.60951 8.713L8.79903 2.00697Z" stroke="var(--stroke-0, #334155)" stroke-width="1.5" stroke-linejoin="round"/>
<path id="Vector_2" d="M8.08322 2.08333L12.7499 6.75" stroke="var(--stroke-0, #334155)" stroke-width="1.5" stroke-linejoin="round"/>
<path id="Vector_3" d="M8.74989 14.0833L14.0832 14.0833" stroke="var(--stroke-0, #334155)" stroke-width="1.5" stroke-linecap="round" stroke-linejoin="round"/>
</g>
</svg>
