<svg preserveAspectRatio="none" width="100%" height="100%" overflow="visible" style="display: block;" viewBox="0 0 12.8333 14.8333" fill="none" xmlns="http://www.w3.org/2000/svg">
<g id="elements">
<path id="Vector" d="M3.41667 2.75H9.08333C9.63562 2.75 10.0833 3.19772 10.0833 3.75V4.75" stroke="var(--stroke-0, #94A3B8)" stroke-width="1.5" stroke-linecap="round" stroke-linejoin="round"/>
<path id="Vector_2" d="M11.3023 13.3023L10.772 12.772H10.772L11.3023 13.3023ZM10.75 1.5C11.1642 1.5 11.5 1.16421 11.5 0.75C11.5 0.335786 11.1642 0 10.75 0V0.75V1.5ZM12.0833 6.08333H11.3333V8.75H12.0833H12.8333V6.08333H12.0833ZM6.75 14.0833V13.3333H6.08333V14.0833V14.8333H6.75V14.0833ZM0.750001 8.75H1.5V2.75H0.750001H1.37091e-06V8.75H0.750001ZM6.08333 14.0833V13.3333C4.80505 13.3333 3.92179 13.3317 3.25721 13.2424C2.61421 13.1559 2.28933 12.9999 2.06138 12.772L1.53105 13.3023L1.00072 13.8326C1.55382 14.3857 2.248 14.6202 3.05734 14.729C3.8451 14.8349 4.84746 14.8333 6.08333 14.8333V14.0833ZM0.750001 8.75H1.37091e-06C1.37091e-06 9.98588 -0.00159144 10.9882 0.10432 11.776C0.213133 12.5853 0.447619 13.2795 1.00072 13.8326L1.53105 13.3023L2.06138 12.772C1.83343 12.544 1.67739 12.2191 1.59094 11.5761C1.50159 10.9115 1.5 10.0283 1.5 8.75H0.750001ZM12.0833 8.75H11.3333C11.3333 10.0283 11.3317 10.9115 11.2424 11.5761C11.1559 12.2191 10.9999 12.544 10.772 12.772L11.3023 13.3023L11.8326 13.8326C12.3857 13.2795 12.6202 12.5853 12.729 11.776C12.8349 10.9882 12.8333 9.98588 12.8333 8.75H12.0833ZM6.75 14.0833V14.8333C7.98588 14.8333 8.98823 14.8349 9.77599 14.729C10.5853 14.6202 11.2795 14.3857 11.8326 13.8326L11.3023 13.3023L10.772 12.772C10.544 12.9999 10.2191 13.1559 9.57612 13.2424C8.91154 13.3317 8.02828 13.3333 6.75 13.3333V14.0833ZM10.75 0.75V0H2.75V0.75V1.5H10.75V0.75ZM2.75 4.75V5.5H10.75V4.75V4H2.75V4.75ZM0.750001 2.75H1.37091e-06C1.37091e-06 4.26878 1.23122 5.5 2.75 5.5V4.75V4C2.05965 4 1.5 3.44036 1.5 2.75H0.750001ZM2.75 0.75V0C1.23122 0 1.37091e-06 1.23122 1.37091e-06 2.75H0.750001H1.5C1.5 2.05964 2.05965 1.5 2.75 1.5V0.75ZM12.0833 6.08333H12.8333C12.8333 4.93274 11.9006 4 10.75 4V4.75V5.5C11.0722 5.5 11.3333 5.76117 11.3333 6.08333H12.0833Z" fill="var(--stroke-0, #94A3B8)"/>
<path id="Vector_3" d="M8.41667 8.08333L4.41667 8.08333" stroke="var(--stroke-0, #94A3B8)" stroke-width="1.5" stroke-linecap="round" stroke-linejoin="round"/>
<path id="Vector_4" d="M6.41667 10.75L4.41667 10.75" stroke="var(--stroke-0, #94A3B8)" stroke-width="1.5" stroke-linecap="round" stroke-linejoin="round"/>
</g>
</svg>
