<svg width="20" height="20" viewBox="0 0 20 20" fill="none" xmlns="http://www.w3.org/2000/svg">
<g id="vscode-icons:file-type-excel">
<path id="Vector" d="M12.2381 9.59375L5.32 8.375V17.3806C5.31992 17.4785 5.33916 17.5754 5.37661 17.6659C5.41407 17.7563 5.46901 17.8384 5.53828 17.9076C5.60755 17.9768 5.68979 18.0316 5.78028 18.0689C5.87078 18.1062 5.96774 18.1252 6.06563 18.125H18.0031C18.1011 18.1254 18.1982 18.1065 18.2889 18.0692C18.3795 18.032 18.4619 17.9772 18.5313 17.908C18.6007 17.8389 18.6557 17.7567 18.6933 17.6662C18.7308 17.5756 18.7501 17.4786 18.75 17.3806V14.0625L12.2381 9.59375Z" fill="var(--fill-0, #185C37)"/>
<path id="Vector_2" d="M12.2381 1.875H6.06563C5.96774 1.87475 5.87078 1.89383 5.78028 1.93114C5.68979 1.96844 5.60755 2.02324 5.53828 2.0924C5.46901 2.16155 5.41407 2.2437 5.37661 2.33413C5.33916 2.42456 5.31992 2.52149 5.32 2.61937V5.9375L12.2381 10L15.9013 11.2188L18.75 10V5.9375L12.2381 1.875Z" fill="var(--fill-0, #21A366)"/>
<path id="Vector_3" d="M5.32 5.9375H12.2381V10H5.32V5.9375Z" fill="var(--fill-0, #107C41)"/>
<path id="Vector_4" opacity="0.1" d="M10.2713 5.125H5.32V15.2812H10.2713C10.4685 15.2803 10.6575 15.2016 10.7972 15.0623C10.9369 14.9229 11.016 14.7342 11.0175 14.5369V5.86937C11.016 5.67209 10.9369 5.48333 10.7972 5.34399C10.6575 5.20466 10.4685 5.12598 10.2713 5.125Z" fill="var(--fill-0, black)"/>
<path id="Vector_5" opacity="0.2" d="M9.86438 5.53125H5.32V15.6875H9.86438C10.0617 15.6865 10.2506 15.6078 10.3903 15.4685C10.53 15.3292 10.6091 15.1404 10.6106 14.9431V6.27562C10.6091 6.07834 10.53 5.88958 10.3903 5.75024C10.2506 5.61091 10.0617 5.53223 9.86438 5.53125Z" fill="var(--fill-0, black)"/>
<path id="Vector_6" opacity="0.2" d="M9.86438 5.53125H5.32V14.875H9.86438C10.0617 14.874 10.2506 14.7953 10.3903 14.656C10.53 14.5167 10.6091 14.3279 10.6106 14.1306V6.27562C10.6091 6.07834 10.53 5.88958 10.3903 5.75024C10.2506 5.61091 10.0617 5.53223 9.86438 5.53125Z" fill="var(--fill-0, black)"/>
<path id="Vector_7" opacity="0.2" d="M9.4575 5.53125H5.32V14.875H9.4575C9.65479 14.874 9.84375 14.7953 9.98343 14.656C10.1231 14.5167 10.2023 14.3279 10.2038 14.1306V6.27562C10.2023 6.07834 10.1231 5.88958 9.98343 5.75024C9.84375 5.61091 9.65479 5.53223 9.4575 5.53125Z" fill="var(--fill-0, black)"/>
<path id="Vector_8" d="M1.99625 5.53125H9.4575C9.65514 5.53108 9.84477 5.6094 9.9847 5.74898C10.1246 5.88855 10.2034 6.07798 10.2038 6.27563V13.7244C10.2034 13.922 10.1246 14.1114 9.9847 14.251C9.84477 14.3906 9.65514 14.4689 9.4575 14.4687H1.99625C1.89832 14.4691 1.80128 14.4501 1.71072 14.4128C1.62015 14.3755 1.53784 14.3207 1.4685 14.2516C1.39916 14.1824 1.34417 14.1002 1.30667 14.0098C1.26918 13.9193 1.24992 13.8223 1.25 13.7244V6.27563C1.24992 6.17769 1.26918 6.08071 1.30667 5.99023C1.34417 5.89976 1.39916 5.81759 1.4685 5.74842C1.53784 5.67926 1.62015 5.62447 1.71072 5.5872C1.80128 5.54994 1.89832 5.53092 1.99625 5.53125Z" fill="url(#paint0_linear_0_106)"/>
<path id="Vector_9" d="M3.5625 12.4206L5.13188 9.99313L3.69437 7.57937H4.84875L5.63312 9.125C5.70562 9.27125 5.75813 9.38 5.78188 9.4525H5.7925C5.84375 9.33542 5.89792 9.22167 5.955 9.11125L6.79375 7.58187H7.85625L6.38188 9.98187L7.89375 12.4225H6.76313L5.85688 10.7281C5.81492 10.6552 5.77917 10.5789 5.75 10.5H5.735C5.70851 10.5769 5.67328 10.6505 5.63 10.7194L4.69688 12.4206H3.5625Z" fill="var(--fill-0, white)"/>
<path id="Vector_10" d="M18.0038 1.875H12.2381V5.9375H18.75V2.61937C18.7501 2.52144 18.7308 2.42445 18.6933 2.33398C18.6558 2.24351 18.6008 2.16134 18.5315 2.09217C18.4622 2.02301 18.3798 1.96822 18.2893 1.93095C18.1987 1.89369 18.1017 1.87467 18.0038 1.875Z" fill="var(--fill-0, #33C481)"/>
<path id="Vector_11" d="M12.2381 10H18.75V14.0625H12.2381V10Z" fill="var(--fill-0, #107C41)"/>
</g>
<defs>
<linearGradient id="paint0_linear_0_106" x1="2.80875" y1="4.94625" x2="8.645" y2="15.0538" gradientUnits="userSpaceOnUse">
<stop stop-color="#18884F"/>
<stop offset="0.5" stop-color="#117E43"/>
<stop offset="1" stop-color="#0B6631"/>
</linearGradient>
</defs>
</svg>
