<svg width="20" height="20" viewBox="0 0 20 20" fill="none" xmlns="http://www.w3.org/2000/svg">
<g id="material-icon-theme:pdf">
<path id="Vector" d="M10.8333 7.5H15.4167L10.8333 2.91667V7.5ZM5 1.66667H11.6667L16.6667 6.66667V16.6667C16.6667 17.1087 16.4911 17.5326 16.1785 17.8452C15.8659 18.1577 15.442 18.3333 15 18.3333H5C4.55797 18.3333 4.13405 18.1577 3.82149 17.8452C3.50893 17.5326 3.33333 17.1087 3.33333 16.6667V3.33333C3.33333 2.89131 3.50893 2.46738 3.82149 2.15482C4.13405 1.84226 4.55797 1.66667 5 1.66667ZM9.10833 10.3667C9.45 11.1167 9.88333 11.7333 10.3833 12.1583L10.725 12.425C10 12.5583 9 12.7917 7.94167 13.2L7.85 13.2333L8.26667 12.3667C8.64167 11.6417 8.91667 10.9833 9.10833 10.3667ZM14.5083 13.5417C14.6583 13.3917 14.7333 13.2 14.7417 12.9917C14.7667 12.825 14.725 12.6667 14.6417 12.5333C14.4 12.1417 13.775 11.9583 12.7417 11.9583L11.6667 12.0167L10.9417 11.5333C10.4167 11.1 9.94167 10.3417 9.60833 9.4L9.64167 9.28333C9.91667 8.175 10.175 6.83333 9.625 6.28333C9.55773 6.21801 9.47815 6.16669 9.39089 6.13236C9.30363 6.09803 9.21042 6.08136 9.11667 6.08333H8.91667C8.60833 6.08333 8.33333 6.40833 8.25833 6.725C7.95 7.83333 8.13333 8.44167 8.44167 9.45V9.45833C8.23333 10.1917 7.96667 11.0417 7.54167 11.9L6.74167 13.4L6 13.8083C5 14.4333 4.525 15.1333 4.43333 15.575C4.4 15.7333 4.41667 15.875 4.475 16.025L4.5 16.0667L4.9 16.325L5.26667 16.4167C5.94167 16.4167 6.70833 15.625 7.74167 13.8583L7.89167 13.8C8.75 13.525 9.81667 13.3333 11.25 13.175C12.1083 13.6 13.1167 13.7917 13.75 13.7917C14.1167 13.7917 14.3667 13.7 14.5083 13.5417ZM14.1667 12.95L14.2417 13.0417C14.2333 13.125 14.2083 13.1333 14.1667 13.15H14.1333L13.975 13.1667C13.5917 13.1667 13 13.0083 12.3917 12.7417C12.4667 12.6583 12.5 12.6583 12.5833 12.6583C13.75 12.6583 14.0833 12.8667 14.1667 12.95ZM6.525 14.1667C5.98333 15.1583 5.49167 15.7083 5.11667 15.8333C5.15833 15.5167 5.53333 14.9667 6.125 14.425L6.525 14.1667ZM9.04167 8.40833C8.85 7.65833 8.84167 7.05 8.98333 6.7L9.04167 6.6L9.16667 6.64167C9.30833 6.84167 9.325 7.10833 9.24167 7.55833L9.21667 7.69167L9.08333 8.375L9.04167 8.40833Z" fill="var(--fill-0, #EF5350)"/>
</g>
</svg>
