<svg preserveAspectRatio="none" width="100%" height="100%" overflow="visible" style="display: block;" viewBox="0 0 12.8333 14.8334" fill="none" xmlns="http://www.w3.org/2000/svg">
<g id="elements">
<path id="Vector" d="M9.08333 10.7501L4.41667 10.7501" stroke="var(--stroke-0, #94A3B8)" stroke-width="1.5" stroke-linecap="round" stroke-linejoin="round"/>
<path id="Vector_2" d="M9.08333 8.08342L7.08333 8.08342" stroke="var(--stroke-0, #94A3B8)" stroke-width="1.5" stroke-linecap="round" stroke-linejoin="round"/>
<path id="Vector_3" d="M12.0833 8.75008C12.0833 11.2642 12.0833 12.5213 11.2535 13.3024C10.4236 14.0834 9.08796 14.0834 6.41667 14.0834H5.90152C3.72738 14.0834 2.64031 14.0834 1.88538 13.5515C1.66908 13.3991 1.47705 13.2184 1.31513 13.0148C0.750001 12.3043 0.750001 11.2812 0.750001 9.23493V7.53796C0.750001 5.56251 0.750001 4.57479 1.06263 3.78592C1.56521 2.5177 2.62809 1.51734 3.97557 1.04432C4.81375 0.750084 5.86321 0.750083 7.96212 0.750083C9.1615 0.750083 9.76119 0.750083 10.2401 0.918217C11.0101 1.18852 11.6175 1.76015 11.9047 2.48484C12.0833 2.93563 12.0833 3.50004 12.0833 4.62887V8.75008Z" stroke="var(--stroke-0, #94A3B8)" stroke-width="1.5" stroke-linejoin="round"/>
<path id="Vector_4" d="M0.750001 7.41675C0.750001 6.18945 1.74492 5.19453 2.97222 5.19453C3.41608 5.19453 3.93936 5.2723 4.37091 5.15667C4.75435 5.05393 5.05384 4.75443 5.15658 4.37099C5.27222 3.93944 5.19444 3.41616 5.19444 2.9723C5.19444 1.74501 6.18937 0.750083 7.41667 0.750083" stroke="var(--stroke-0, #94A3B8)" stroke-width="1.5" stroke-linecap="round" stroke-linejoin="round"/>
</g>
</svg>
