<svg width="20" height="20" viewBox="0 0 20 20" fill="none" xmlns="http://www.w3.org/2000/svg">
<g id="vscode-icons:file-type-powerpoint">
<path id="Vector" d="M11.8313 10.8125L10.6106 1.875H10.5194C8.38842 1.87862 6.34556 2.72572 4.83735 4.23113C3.32913 5.73653 2.47822 7.77781 2.47062 9.90875V10L11.8313 10.8125Z" fill="var(--fill-0, #ED6C47)"/>
<path id="Vector_2" d="M10.7019 1.875H10.6106V10L14.68 11.625L18.75 10V9.90875C18.7424 7.77792 17.8916 5.73673 16.3835 4.23135C14.8754 2.72596 12.8327 1.87879 10.7019 1.875Z" fill="var(--fill-0, #FF8F6B)"/>
<path id="Vector_3" d="M18.75 10V10.0894C18.7421 12.2206 17.891 14.2621 16.3826 15.7677C14.8742 17.2734 12.8312 18.1209 10.7 18.125H10.5206C8.38948 18.1206 6.34669 17.273 4.8384 15.7674C3.3301 14.2618 2.47888 12.2205 2.47062 10.0894V10H18.75Z" fill="var(--fill-0, #D35230)"/>
<path id="Vector_4" opacity="0.1" d="M11.0175 5.86813V14.5375C11.0164 14.685 10.9718 14.8289 10.8893 14.9512C10.8068 15.0735 10.6901 15.1687 10.5538 15.225C10.4645 15.2619 10.369 15.2812 10.2725 15.2819H4.39188C4.27774 15.151 4.1691 15.0155 4.06625 14.8756C3.02976 13.4955 2.46977 11.816 2.47063 10.09V9.91125C2.46848 8.35431 2.92426 6.83111 3.78125 5.53125C3.87023 5.39171 3.96532 5.25616 4.06625 5.125H10.2725C10.4694 5.1263 10.6578 5.20496 10.7972 5.34399C10.9366 5.48301 11.0157 5.67127 11.0175 5.86813Z" fill="var(--fill-0, black)"/>
<path id="Vector_5" opacity="0.2" d="M10.6106 6.275V14.9444C10.6098 15.0405 10.5905 15.1355 10.5537 15.2244C10.4974 15.3606 10.4021 15.4772 10.2798 15.5595C10.1575 15.6419 10.0137 15.6864 9.86625 15.6875H4.7625C4.63375 15.5567 4.51021 15.4213 4.39187 15.2813C4.27774 15.1504 4.1691 15.0149 4.06625 14.875C3.02976 13.4949 2.46977 11.8154 2.47062 10.0894V9.91062C2.4686 8.3539 2.92438 6.83094 3.78125 5.53125H9.86562C10.0626 5.53256 10.2511 5.6113 10.3905 5.75046C10.5299 5.88962 10.609 6.07804 10.6106 6.275Z" fill="var(--fill-0, black)"/>
<path id="Vector_6" opacity="0.2" d="M10.6106 6.275V14.1319C10.6088 14.3287 10.5297 14.517 10.3903 14.656C10.2509 14.795 10.0625 14.8737 9.86562 14.875H4.06625C3.02976 13.4949 2.46977 11.8154 2.47062 10.0894V9.91062C2.4686 8.3539 2.92438 6.83094 3.78125 5.53125H9.86562C10.0626 5.53256 10.2511 5.6113 10.3905 5.75046C10.5299 5.88962 10.609 6.07804 10.6106 6.275Z" fill="var(--fill-0, black)"/>
<path id="Vector_7" opacity="0.2" d="M10.2037 6.275V14.1319C10.2019 14.3287 10.1228 14.517 9.98344 14.656C9.84406 14.795 9.65561 14.8737 9.45875 14.875H4.06625C3.02976 13.4949 2.46977 11.8154 2.47062 10.0894V9.91062C2.4686 8.3539 2.92438 6.83094 3.78125 5.53125H9.45875C9.65572 5.53256 9.84426 5.6113 9.98366 5.75046C10.1231 5.88962 10.2021 6.07804 10.2037 6.275Z" fill="var(--fill-0, black)"/>
<path id="Vector_8" d="M1.99625 5.53125H9.4575C9.65514 5.53108 9.84477 5.6094 9.9847 5.74898C10.1246 5.88855 10.2034 6.07798 10.2038 6.27563V13.7244C10.2034 13.922 10.1246 14.1114 9.9847 14.251C9.84477 14.3906 9.65514 14.4689 9.4575 14.4687H1.99625C1.89832 14.4691 1.80128 14.4501 1.71072 14.4128C1.62015 14.3755 1.53784 14.3207 1.4685 14.2516C1.39916 14.1824 1.34417 14.1002 1.30667 14.0098C1.26918 13.9193 1.24992 13.8223 1.25 13.7244V6.27563C1.24992 6.17769 1.26918 6.08071 1.30667 5.99023C1.34417 5.89976 1.39916 5.81759 1.4685 5.74842C1.53784 5.67926 1.62015 5.62447 1.71072 5.5872C1.80128 5.54994 1.89832 5.53092 1.99625 5.53125Z" fill="url(#paint0_linear_0_165)"/>
<path id="Vector_9" d="M5.80813 7.5175C6.29375 7.48554 6.77504 7.62634 7.16687 7.915C7.32786 8.0583 7.45407 8.2364 7.53594 8.43577C7.61781 8.63514 7.65319 8.85054 7.63937 9.06563C7.64467 9.36858 7.56382 9.66682 7.40625 9.92562C7.24639 10.18 7.01659 10.3829 6.74438 10.51C6.43317 10.6545 6.09304 10.7259 5.75 10.7187H4.80437V12.4688H3.83812V7.5175H5.80813ZM4.80375 9.9625H5.63563C5.89935 9.98123 6.16086 9.90324 6.37125 9.74312C6.45723 9.66112 6.52417 9.56125 6.56737 9.45057C6.61056 9.33988 6.62895 9.22107 6.62125 9.1025C6.62125 8.55708 6.30354 8.28417 5.66813 8.28375H4.80375V9.9625Z" fill="var(--fill-0, white)"/>
</g>
<defs>
<linearGradient id="paint0_linear_0_165" x1="2.80875" y1="4.94625" x2="8.645" y2="15.0538" gradientUnits="userSpaceOnUse">
<stop stop-color="#CA4C28"/>
<stop offset="0.5" stop-color="#C5401E"/>
<stop offset="1" stop-color="#B62F14"/>
</linearGradient>
</defs>
</svg>
