<svg preserveAspectRatio="none" width="100%" height="100%" overflow="visible" style="display: block;" viewBox="0 0 14.1667 14.1667" fill="none" xmlns="http://www.w3.org/2000/svg">
<g id="elements">
<path id="Vector" d="M12.4892 12.4892C11.5617 13.4167 10.0689 13.4167 7.08333 13.4167C4.09777 13.4167 2.60499 13.4167 1.6775 12.4892C0.750001 11.5617 0.750001 10.0689 0.750001 7.08333C0.750001 4.09777 0.750001 2.60499 1.6775 1.6775C2.60499 0.750001 4.09777 0.750001 7.08333 0.750001C10.0689 0.750001 11.5617 0.750001 12.4892 1.6775C13.4167 2.60499 13.4167 4.09777 13.4167 7.08333C13.4167 10.0689 13.4167 11.5617 12.4892 12.4892Z" stroke="var(--stroke-0, #94A3B8)" stroke-width="1.5" stroke-linecap="round" stroke-linejoin="round"/>
<path id="Vector_2" d="M5.08334 13.4167L5.08333 0.75" stroke="var(--stroke-0, #94A3B8)" stroke-width="1.5"/>
<path id="Vector_3" d="M13.4167 4.41667L5.08333 4.41667" stroke="var(--stroke-0, #94A3B8)" stroke-width="1.5"/>
<path id="Vector_4" d="M13.4167 9.75L5.08333 9.75" stroke="var(--stroke-0, #94A3B8)" stroke-width="1.5"/>
</g>
</svg>
