<svg preserveAspectRatio="none" width="100%" height="100%" overflow="visible" style="display: block;" viewBox="0 0 14.1667 14.8333" fill="none" xmlns="http://www.w3.org/2000/svg">
<g id="elements">
<path id="Vector" d="M5.08333 9.08333H7.75M5.08333 5.75H10.4167" stroke="var(--stroke-0, #94A3B8)" stroke-width="1.5" stroke-linecap="round"/>
<path id="Vector_2" d="M1.75 6.08333C1.75 3.56918 1.75 2.3121 2.53105 1.53105C3.3121 0.750001 4.56918 0.750001 7.08333 0.750001H8.08333C10.5975 0.750001 11.8546 0.750001 12.6356 1.53105C13.4167 2.3121 13.4167 3.56918 13.4167 6.08333V8.75C13.4167 11.2642 13.4167 12.5212 12.6356 13.3023C11.8546 14.0833 10.5975 14.0833 8.08333 14.0833H7.08333C4.56918 14.0833 3.3121 14.0833 2.53105 13.3023C1.75 12.5212 1.75 11.2642 1.75 8.75V6.08333Z" stroke="var(--stroke-0, #94A3B8)" stroke-width="1.5"/>
<path id="Vector_3" d="M2.41667 3.41667L0.75 3.41667M2.41667 7.41667L0.75 7.41667M2.41667 11.4167H0.75" stroke="var(--stroke-0, #94A3B8)" stroke-width="1.5" stroke-linecap="round" stroke-linejoin="round"/>
</g>
</svg>
