<svg preserveAspectRatio="xMidYMid meet"   overflow="visible" style="display: block;" viewBox="0 0 19.8334 14.8333" fill="none" xmlns="http://www.w3.org/2000/svg">
<g id="elements">
<path id="Vector" d="M17.2284 12.4167C17.8528 12.4167 18.3495 12.0237 18.7954 11.4743C19.7083 10.3495 18.2095 9.4507 17.6378 9.0105C17.0567 8.56301 16.4079 8.30951 15.75 8.25M14.9167 6.58333C16.0673 6.58333 17 5.65059 17 4.5C17 3.34941 16.0673 2.41667 14.9167 2.41667" stroke="url(#paint0_linear_0_515)" stroke-width="1.5" stroke-linecap="round"/>
<path id="Vector_2" d="M2.60501 12.4167C1.98059 12.4167 1.48393 12.0237 1.038 11.4743C0.125118 10.3495 1.62394 9.4507 2.19558 9.0105C2.77669 8.56301 3.42553 8.30951 4.08338 8.25M4.50004 6.58333C3.34945 6.58333 2.41671 5.65059 2.41671 4.5C2.41671 3.34941 3.34945 2.41667 4.50004 2.41667" stroke="url(#paint1_linear_0_515)" stroke-width="1.5" stroke-linecap="round"/>
<path id="Vector_3" d="M6.65319 10.0093C5.8017 10.5358 3.56917 11.6109 4.92893 12.9562C5.59316 13.6133 6.33295 14.0833 7.26304 14.0833H12.5703C13.5004 14.0833 14.2402 13.6133 14.9044 12.9562C16.2642 11.6109 14.0317 10.5358 13.1802 10.0093C11.1835 8.77467 8.6499 8.77467 6.65319 10.0093Z" stroke="url(#paint2_linear_0_515)" stroke-width="1.5" stroke-linecap="round" stroke-linejoin="round"/>
<path id="Vector_4" d="M12.8333 3.66667C12.8333 5.2775 11.5275 6.58333 9.91668 6.58333C8.30585 6.58333 7.00002 5.2775 7.00002 3.66667C7.00002 2.05584 8.30585 0.75 9.91668 0.75C11.5275 0.75 12.8333 2.05584 12.8333 3.66667Z" stroke="url(#paint3_linear_0_515)" stroke-width="1.5"/>
</g>
<defs>
<linearGradient id="paint0_linear_0_515" x1="14.9167" y1="7.41667" x2="19.0834" y2="7.41667" gradientUnits="userSpaceOnUse">
<stop stop-color="#007BFF"/>
<stop offset="0.177885" stop-color="#FF6B35"/>
<stop offset="0.721154" stop-color="#007BFF"/>
<stop offset="0.807692" stop-color="#007BFF"/>
<stop offset="0.923077" stop-color="#FF6B35"/>
<stop offset="1" stop-color="#007BFF"/>
</linearGradient>
<linearGradient id="paint1_linear_0_515" x1="0.750044" y1="7.41667" x2="4.50004" y2="7.41667" gradientUnits="userSpaceOnUse">
<stop stop-color="#007BFF"/>
<stop offset="0.177885" stop-color="#FF6B35"/>
<stop offset="0.721154" stop-color="#007BFF"/>
<stop offset="0.807692" stop-color="#007BFF"/>
<stop offset="0.923077" stop-color="#FF6B35"/>
<stop offset="1" stop-color="#007BFF"/>
</linearGradient>
<linearGradient id="paint2_linear_0_515" x1="4.50002" y1="11.5833" x2="15.3333" y2="11.5833" gradientUnits="userSpaceOnUse">
<stop stop-color="#007BFF"/>
<stop offset="0.177885" stop-color="#FF6B35"/>
<stop offset="0.721154" stop-color="#007BFF"/>
<stop offset="0.807692" stop-color="#007BFF"/>
<stop offset="0.923077" stop-color="#FF6B35"/>
<stop offset="1" stop-color="#007BFF"/>
</linearGradient>
<linearGradient id="paint3_linear_0_515" x1="7.00002" y1="3.66667" x2="12.8333" y2="3.66667" gradientUnits="userSpaceOnUse">
<stop stop-color="#007BFF"/>
<stop offset="0.177885" stop-color="#FF6B35"/>
<stop offset="0.721154" stop-color="#007BFF"/>
<stop offset="0.807692" stop-color="#007BFF"/>
<stop offset="0.923077" stop-color="#FF6B35"/>
<stop offset="1" stop-color="#007BFF"/>
</linearGradient>
</defs>
</svg>
