<svg preserveAspectRatio="xMidYMid meet"   overflow="visible" style="display: block;" viewBox="0 0 18.1667 15.6666" fill="none" xmlns="http://www.w3.org/2000/svg">
<g id="elements">
<path id="Vector" d="M8.25001 3.25L8.25001 14.0833" stroke="url(#paint0_linear_0_395)" stroke-width="1.5" stroke-linecap="round"/>
<path id="Vector_2" d="M8.25001 14.0833C8.06476 14.0833 7.68629 13.8816 6.92939 13.4782C6.16009 13.0682 5.09725 12.6601 3.73542 12.404C2.20774 12.1168 1.4439 11.9731 1.09695 11.549C0.750006 11.1249 0.750006 10.4456 0.750006 9.08701L0.750006 3.74712C0.750006 2.26127 0.750006 1.51835 1.29059 1.06085C1.83118 0.603341 2.46593 0.722705 3.73543 0.961432C6.24132 1.43266 7.73484 2.41838 8.25001 2.98428C8.76517 2.41838 10.2587 1.43266 12.7646 0.961433C14.0341 0.722705 14.6688 0.603342 15.2094 1.06085C15.75 1.51835 15.75 2.26128 15.75 3.74712L15.75 6.16667" stroke="url(#paint1_linear_0_395)" stroke-width="1.5" stroke-linecap="round" stroke-linejoin="round"/>
<path id="Vector_3" d="M11.8731 14.7964L11.7163 14.063L11.7163 14.063L11.8731 14.7964ZM10.8702 13.7936L11.6037 13.9504L10.8702 13.7936ZM11.6006 11.6764L11.0702 11.1461L11.0702 11.1461L11.6006 11.6764ZM17.2469 9.48108L17.8964 9.10608V9.10608L17.2469 9.48108ZM17.2469 10.7484L17.8964 11.1234L17.8964 11.1234L17.2469 10.7484ZM16.1856 8.41979L16.5606 7.77027V7.77027L16.1856 8.41979ZM14.3571 8.9199L14.8874 9.45023V9.45023L14.3571 8.9199ZM14.9183 8.41979L14.5433 7.77027V7.77027L14.9183 8.41979ZM16.7468 11.3096L16.2164 10.7792L13.4599 13.5358L13.9902 14.0661L14.5206 14.5964L17.2771 11.8399L16.7468 11.3096ZM11.6006 11.6764L12.1309 12.2068L14.8874 9.45023L14.3571 8.9199L13.8268 8.38957L11.0702 11.1461L11.6006 11.6764ZM11.8731 14.7964L11.7163 14.063C11.5696 14.0944 11.4546 14.1189 11.3562 14.1372C11.2567 14.1557 11.196 14.1636 11.1584 14.1659C11.1193 14.1684 11.137 14.1626 11.1833 14.1746C11.2422 14.1897 11.3159 14.2254 11.3786 14.2881L10.8483 14.8184L10.3179 15.3488C10.6255 15.6563 11.0074 15.6786 11.2536 15.6629C11.4863 15.6481 11.7668 15.5861 12.0299 15.5299L11.8731 14.7964ZM10.8702 13.7936L10.1368 13.6367C10.0806 13.8999 10.0185 14.1804 10.0037 14.4131C9.98809 14.6592 10.0104 15.0412 10.3179 15.3488L10.8483 14.8184L11.3786 14.2881C11.4413 14.3508 11.4769 14.4245 11.4921 14.4833C11.5041 14.5297 11.4982 14.5474 11.5007 14.5083C11.5031 14.4707 11.511 14.41 11.5295 14.3105C11.5478 14.2121 11.5723 14.0971 11.6037 13.9504L10.8702 13.7936ZM16.7468 8.9199L16.2164 9.45023C16.5284 9.76216 16.5758 9.81865 16.5974 9.85608L17.2469 9.48108L17.8964 9.10608C17.7512 8.85452 17.5208 8.63322 17.2771 8.38957L16.7468 8.9199ZM16.7468 11.3096L17.2771 11.8399C17.5208 11.5963 17.7512 11.375 17.8964 11.1234L17.2469 10.7484L16.5974 10.3734C16.5758 10.4108 16.5284 10.4673 16.2164 10.7792L16.7468 11.3096ZM17.2469 9.48108L16.5974 9.85608C16.6898 10.0161 16.6898 10.2133 16.5974 10.3734L17.2469 10.7484L17.8964 11.1234C18.2568 10.4992 18.2568 9.73024 17.8964 9.10608L17.2469 9.48108ZM16.7468 8.9199L17.2771 8.38957C17.0335 8.14592 16.8122 7.91551 16.5606 7.77027L16.1856 8.41979L15.8106 9.06931C15.848 9.09092 15.9045 9.13829 16.2164 9.45023L16.7468 8.9199ZM14.3571 8.9199L14.8874 9.45023C15.1994 9.13829 15.2559 9.09092 15.2933 9.06931L14.9183 8.41979L14.5433 7.77027C14.2917 7.91551 14.0704 8.14592 13.8268 8.38957L14.3571 8.9199ZM16.1856 8.41979L16.5606 7.77027C15.9364 7.40991 15.1674 7.40991 14.5433 7.77027L14.9183 8.41979L15.2933 9.06931C15.4533 8.9769 15.6505 8.9769 15.8106 9.06931L16.1856 8.41979ZM13.9902 14.0661L13.4599 13.5358C13.3195 13.6762 13.1214 13.774 12.8154 13.8521C12.662 13.8913 12.4971 13.9219 12.309 13.9544C12.1297 13.9854 11.9189 14.0197 11.7163 14.063L11.8731 14.7964L12.0299 15.5299C12.195 15.4946 12.3638 15.4671 12.5644 15.4325C12.7561 15.3994 12.9712 15.3605 13.1864 15.3055C13.6175 15.1955 14.1103 15.0067 14.5206 14.5964L13.9902 14.0661ZM10.8702 13.7936L11.6037 13.9504C11.647 13.7478 11.6813 13.537 11.7123 13.3577C11.7448 13.1696 11.7754 13.0047 11.8145 12.8513C11.8927 12.5453 11.9904 12.3472 12.1309 12.2068L11.6006 11.6764L11.0702 11.1461C10.66 11.5563 10.4712 12.0492 10.3612 12.4803C10.3062 12.6954 10.2673 12.9106 10.2342 13.1023C10.1995 13.3029 10.1721 13.4717 10.1368 13.6367L10.8702 13.7936Z" fill="url(#paint2_linear_0_395)"/>
</g>
<defs>
<linearGradient id="paint0_linear_0_395" x1="8.25001" y1="8.66667" x2="9.25001" y2="8.66667" gradientUnits="userSpaceOnUse">
<stop stop-color="#007BFF"/>
<stop offset="0.177885" stop-color="#FF6B35"/>
<stop offset="0.721154" stop-color="#007BFF"/>
<stop offset="0.807692" stop-color="#007BFF"/>
<stop offset="0.923077" stop-color="#FF6B35"/>
<stop offset="1" stop-color="#007BFF"/>
</linearGradient>
<linearGradient id="paint1_linear_0_395" x1="0.750006" y1="7.41667" x2="15.75" y2="7.41667" gradientUnits="userSpaceOnUse">
<stop stop-color="#007BFF"/>
<stop offset="0.177885" stop-color="#FF6B35"/>
<stop offset="0.721154" stop-color="#007BFF"/>
<stop offset="0.807692" stop-color="#007BFF"/>
<stop offset="0.923077" stop-color="#FF6B35"/>
<stop offset="1" stop-color="#007BFF"/>
</linearGradient>
<linearGradient id="paint2_linear_0_395" x1="10.75" y1="11.5833" x2="17.4167" y2="11.5833" gradientUnits="userSpaceOnUse">
<stop stop-color="#007BFF"/>
<stop offset="0.177885" stop-color="#FF6B35"/>
<stop offset="0.721154" stop-color="#007BFF"/>
<stop offset="0.807692" stop-color="#007BFF"/>
<stop offset="0.923077" stop-color="#FF6B35"/>
<stop offset="1" stop-color="#007BFF"/>
</linearGradient>
</defs>
</svg>
