<svg preserveAspectRatio="xMidYMid meet"   overflow="visible" style="display: block;" viewBox="0 0 18.1667 16.5" fill="none" xmlns="http://www.w3.org/2000/svg">
<g id="elements">
<path id="Vector" d="M12 8.25C12 9.86083 10.6942 11.1667 9.08333 11.1667C7.4725 11.1667 6.16667 9.86083 6.16667 8.25C6.16667 6.63917 7.4725 5.33333 9.08333 5.33333C10.6942 5.33333 12 6.63917 12 8.25Z" stroke="url(#paint0_linear_0_475)" stroke-width="1.2"/>
<path id="Vector_2" d="M16.4088 5.87667C17.0807 7.0348 17.4167 7.61387 17.4167 8.25C17.4167 8.88614 17.0807 9.4652 16.4088 10.6233L14.8057 13.3865C14.1365 14.54 13.8019 15.1168 13.2516 15.4334C12.7013 15.75 12.0335 15.75 10.6978 15.75L7.46889 15.75C6.13318 15.75 5.46533 15.75 4.91506 15.4334C4.36478 15.1168 4.03016 14.54 3.36092 13.3865L1.75785 10.6233C1.08595 9.4652 0.75 8.88614 0.75 8.25C0.75 7.61387 1.08595 7.0348 1.75785 5.87667L3.36092 3.11351C4.03016 1.95997 4.36478 1.3832 4.91506 1.0666C5.46533 0.750001 6.13319 0.750001 7.46889 0.750001L10.6978 0.750001C12.0335 0.750001 12.7013 0.750001 13.2516 1.0666C13.8019 1.3832 14.1365 1.95997 14.8057 3.11351L16.4088 5.87667Z" stroke="url(#paint1_linear_0_475)" stroke-width="1.5"/>
</g>
<defs>
<linearGradient id="paint0_linear_0_475" x1="6.16667" y1="8.25" x2="12" y2="8.25" gradientUnits="userSpaceOnUse">
<stop stop-color="#007BFF"/>
<stop offset="0.177885" stop-color="#FF6B35"/>
<stop offset="0.721154" stop-color="#007BFF"/>
<stop offset="0.807692" stop-color="#007BFF"/>
<stop offset="0.923077" stop-color="#FF6B35"/>
<stop offset="1" stop-color="#007BFF"/>
</linearGradient>
<linearGradient id="paint1_linear_0_475" x1="0.75" y1="8.25" x2="17.4167" y2="8.25" gradientUnits="userSpaceOnUse">
<stop stop-color="#007BFF"/>
<stop offset="0.177885" stop-color="#FF6B35"/>
<stop offset="0.721154" stop-color="#007BFF"/>
<stop offset="0.807692" stop-color="#007BFF"/>
<stop offset="0.923077" stop-color="#FF6B35"/>
<stop offset="1" stop-color="#007BFF"/>
</linearGradient>
</defs>
</svg>
