<svg preserveAspectRatio="none" width="100%" height="100%" overflow="visible" style="display: block;" viewBox="0 0 35.8329 35.8333" fill="none" xmlns="http://www.w3.org/2000/svg">
<g id="elements">
<circle id="Ellipse 1545" cx="17.9165" cy="19.5833" r="15" stroke="var(--stroke-0, #64748B)" stroke-width="2.5" stroke-linecap="round"/>
<path id="Vector" d="M6.2498 29.5833L2.91647 32.9167M29.5831 29.5833L32.9165 32.9167" stroke="var(--stroke-0, #64748B)" stroke-width="2.5" stroke-linecap="round" stroke-linejoin="round"/>
<path id="Vector_2" d="M29.5831 3.86617L30.5756 3.36992C31.9844 2.66554 32.5136 2.74616 33.6336 3.86617C34.7536 4.98617 34.8343 5.51541 34.1299 6.92417L33.6336 7.91667M6.2498 3.86617L5.25731 3.36992C3.84854 2.66554 3.31931 2.74616 2.1993 3.86617C1.07929 4.98617 0.998667 5.51541 1.70305 6.92417L2.1993 7.91667" stroke="var(--stroke-0, #64748B)" stroke-width="2.5" stroke-linecap="round"/>
<path id="Vector_3" d="M17.9165 13.75V20.4167L21.2498 23.75" stroke="var(--stroke-0, #64748B)" stroke-width="2.5" stroke-linecap="round" stroke-linejoin="round"/>
<path id="Vector_4" d="M17.9165 3.75V1.25" stroke="var(--stroke-0, #64748B)" stroke-width="2.5" stroke-linecap="round" stroke-linejoin="round"/>
<path id="Vector_5" d="M14.5831 1.25H21.2498" stroke="var(--stroke-0, #64748B)" stroke-width="2.5" stroke-linecap="round" stroke-linejoin="round"/>
</g>
</svg>
