<svg preserveAspectRatio="none" width="100%" height="100%" overflow="visible" style="display: block;" viewBox="0 0 14.3333 13" fill="none" xmlns="http://www.w3.org/2000/svg">
<g id="elements">
<path id="Vector" d="M3.02149 1.28797C3.45338 0.95548 3.66933 0.789237 3.91859 0.682172C4.03161 0.633628 4.14911 0.594402 4.26972 0.564958C4.53574 0.500018 4.8178 0.500018 5.38193 0.500018H8.9514C9.51553 0.500018 9.7976 0.500018 10.0636 0.564958C10.1842 0.594402 10.3017 0.633628 10.4147 0.682172C10.664 0.789237 10.88 0.95548 11.3118 1.28797C12.743 2.38967 13.4585 2.94053 13.7038 3.65387C13.8129 3.97117 13.8537 4.30487 13.8239 4.63642C13.7568 5.3818 13.1919 6.06399 12.0622 7.42835L9.39988 10.6435C8.37505 11.8812 7.86264 12.5 7.16667 12.5C6.4707 12.5 5.95828 11.8812 4.93345 10.6435L2.27114 7.42835C1.14139 6.06399 0.576509 5.3818 0.509469 4.63642C0.479649 4.30487 0.520426 3.97117 0.629535 3.65387C0.874828 2.94053 1.59038 2.38967 3.02149 1.28797Z" stroke="var(--stroke-0, #FF6B35)"/>
<path id="Vector_2" d="M5.83333 4.16669H8.5" stroke="var(--stroke-0, #FF6B35)" stroke-linecap="round" stroke-linejoin="round"/>
</g>
</svg>
