<svg preserveAspectRatio="none" width="100%" height="100%" overflow="visible" style="display: block;" viewBox="0 0 34.1667 34.1669" fill="none" xmlns="http://www.w3.org/2000/svg">
<g id="elements">
<path id="Vector" d="M7.91667 1.25019C6.01317 1.56381 4.6401 2.1468 3.56874 3.23052C1.25 5.576 1.25 9.35098 1.25 16.901C1.25 24.4509 1.25 28.2259 3.56874 30.5714C5.88748 32.9169 9.61943 32.9169 17.0833 32.9169C24.5472 32.9169 28.2792 32.9169 30.5979 30.5714C32.9167 28.2259 32.9167 24.4509 32.9167 16.901C32.9167 9.35098 32.9167 5.576 30.5979 3.23052C29.5266 2.1468 28.1535 1.56381 26.25 1.25019" stroke="var(--stroke-0, #64748B)" stroke-width="2.5" stroke-linecap="round" stroke-linejoin="round"/>
<path id="Vector_2" d="M12.9167 5.41686C13.7359 4.57403 15.9163 1.25019 17.0833 1.25019M21.25 5.41686C20.4308 4.57403 18.2504 1.25019 17.0833 1.25019M17.0833 1.25019V14.5835" stroke="var(--stroke-0, #64748B)" stroke-width="2.5" stroke-linecap="round" stroke-linejoin="round"/>
<path id="Vector_3" d="M32.9167 19.5835H24.7072C23.3037 19.5835 22.201 20.7562 21.5824 21.9956C20.9104 23.342 19.5648 24.5835 17.0833 24.5835C14.6019 24.5835 13.2562 23.342 12.5842 21.9956C11.9657 20.7562 10.863 19.5835 9.45943 19.5835H1.25" stroke="var(--stroke-0, #64748B)" stroke-width="2.5" stroke-linejoin="round"/>
</g>
</svg>
