<svg preserveAspectRatio="none" width="100%" height="100%" overflow="visible" style="display: block;" viewBox="0 0 11 14.3334" fill="none" xmlns="http://www.w3.org/2000/svg">
<g id="elements">
<path id="Vector" d="M0.5 8.83344C0.5 6.07202 2.73858 3.83344 5.5 3.83344C8.26142 3.83344 10.5 6.07202 10.5 8.83344C10.5 11.5949 8.26142 13.8334 5.5 13.8334C2.73858 13.8334 0.5 11.5949 0.5 8.83344Z" stroke="var(--stroke-0, #FF6B35)"/>
<path id="Vector_2" d="M3.5 8.83344C3.5 7.72887 4.36345 6.83344 5.42857 6.83344H5.57143C6.63655 6.83344 7.5 7.72887 7.5 8.83344C7.5 9.93801 6.63655 10.8334 5.57143 10.8334H5.42857C4.36345 10.8334 3.5 9.93801 3.5 8.83344Z" stroke="var(--stroke-0, #FF6B35)"/>
<path id="Vector_3" d="M6.54039 0.500108L4.83333 3.83344M9.50035 0.500108L7.61904 4.23489" stroke="var(--stroke-0, #FF6B35)" stroke-linecap="round"/>
<path id="Vector_4" d="M4.45996 0.500108L5.5 2.22947M1.5 0.500108L3.38096 4.16678" stroke="var(--stroke-0, #FF6B35)" stroke-linecap="round"/>
</g>
</svg>
