<svg preserveAspectRatio="none" width="100%" height="100%" overflow="visible" style="display: block;" viewBox="0 0 18.1667 15.6666" fill="none" xmlns="http://www.w3.org/2000/svg">
<g id="elements">
<path id="Vector" d="M0.75 8.24998C0.75 7.32951 1.49619 6.58331 2.41667 6.58331C3.79738 6.58331 4.91667 7.7026 4.91667 9.08331V12.4166C4.91667 13.7974 3.79738 14.9166 2.41667 14.9166C1.49619 14.9166 0.75 14.1705 0.75 13.25V8.24998Z" stroke="var(--stroke-0, white)" stroke-width="1.5" stroke-linecap="round" stroke-linejoin="round"/>
<path id="Vector_2" d="M11.9823 4.33853L11.7604 5.05527C11.5785 5.64257 11.4876 5.93622 11.5575 6.16814C11.6141 6.35577 11.7383 6.5175 11.9075 6.62391C12.1167 6.75543 12.4331 6.75543 13.0659 6.75543H13.4026C15.5443 6.75543 16.6152 6.75543 17.121 7.3894C17.1788 7.46185 17.2302 7.53889 17.2747 7.6197C17.6638 8.32677 17.2214 9.27926 16.3366 11.1842C15.5247 12.9324 15.1188 13.8065 14.365 14.3209C14.292 14.3708 14.2171 14.4177 14.1402 14.4618C13.3467 14.9166 12.3635 14.9166 10.397 14.9166H9.9705C7.5881 14.9166 6.3969 14.9166 5.65678 14.1995C4.91667 13.4824 4.91667 12.3283 4.91667 10.0199V9.2086C4.91667 7.99551 4.91667 7.38897 5.13195 6.83381C5.34723 6.27865 5.75946 5.82218 6.58391 4.90924L9.99343 1.13378C10.0789 1.0391 10.1217 0.991744 10.1594 0.958938C10.5113 0.652714 11.0544 0.687183 11.362 1.03527C11.395 1.07256 11.431 1.12491 11.503 1.22959C11.6157 1.39335 11.672 1.47523 11.7211 1.55636C12.1607 2.28259 12.2937 3.14528 12.0923 3.96427C12.0698 4.05575 12.0406 4.15006 11.9823 4.33853Z" stroke="var(--stroke-0, white)" stroke-width="1.5" stroke-linecap="round" stroke-linejoin="round"/>
</g>
</svg>
