<svg preserveAspectRatio="xMidYMid meet" width="100%" height="100%" overflow="visible" style="display: block;" viewBox="0 0 18.1667 16.9298" fill="none" xmlns="http://www.w3.org/2000/svg">
<g id="elements">
<path id="Vector" d="M12.7108 11.7699C10.6504 13.0466 9.4678 15.4627 9.08334 16.1547V4.90468C9.40406 4.32739 10.2802 2.75029 11.758 1.55862C12.5501 0.919854 12.9462 0.60047 13.5148 0.872378C14.0833 1.14429 14.0833 1.75379 14.0833 2.97281V9.64608C14.0833 10.2968 14.0833 10.6222 13.957 10.849C13.8308 11.0759 13.4574 11.3072 12.7108 11.7699Z" stroke="var(--stroke-0, #007BFF)" stroke-width="1.55" stroke-linecap="round" stroke-linejoin="round"/>
<path id="Vector_2" d="M9.08334 4.74265C8.51093 4.14137 6.85147 2.71335 4.06714 2.21267C2.65659 1.95902 1.95131 1.83219 1.35066 2.31829C0.750006 2.80439 0.750006 3.59375 0.750006 5.17246V10.8461C0.750006 12.2896 0.750006 13.0114 1.1355 13.462C1.521 13.9126 2.36971 14.0652 4.06714 14.3704C5.58028 14.6425 6.76121 15.0761 7.61599 15.5117C8.45699 15.9404 8.87751 16.1547 9.08334 16.1547C9.28917 16.1547 9.70969 15.9404 10.5507 15.5117C11.4055 15.0761 12.5864 14.6425 14.0995 14.3704C15.797 14.0652 16.6457 13.9126 17.0312 13.462C17.4167 13.0114 17.4167 12.2896 17.4167 10.8461V5.17246C17.4167 3.59375 17.4167 2.80439 16.816 2.31829C16.2154 1.83219 14.9167 2.21267 14.0833 2.82135" stroke="var(--stroke-0, #007BFF)" stroke-width="1.5" stroke-linecap="round" stroke-linejoin="round"/>
</g>
</svg>
