<svg preserveAspectRatio="xMidYMid meet" width="100%" height="100%" overflow="visible" style="display: block;" viewBox="0 0 17.336 18.1667" fill="none" xmlns="http://www.w3.org/2000/svg">
<g id="elements">
<path id="Vector" d="M0.776245 11.0784C0.599033 12.2059 1.39131 12.9885 2.36135 13.3785C6.08032 14.8738 11.2556 14.8738 14.9746 13.3785C15.9446 12.9885 16.7369 12.2059 16.5597 11.0784C16.4508 10.3854 15.9123 9.80844 15.5133 9.245C14.9907 8.49794 14.9388 7.6831 14.9387 6.81618C14.9387 3.46592 12.1312 0.75 8.66798 0.75C5.20475 0.75 2.39725 3.46592 2.39725 6.81618C2.39717 7.6831 2.34525 8.49794 1.82265 9.245C1.42367 9.80844 0.885153 10.3854 0.776245 11.0784Z" stroke="var(--stroke-0, #007BFF)" stroke-width="1.5" stroke-linecap="round" stroke-linejoin="round"/>
<path id="Vector_2" d="M6.16798 16.5833C6.83142 17.1016 7.70753 17.4167 8.66798 17.4167C9.62842 17.4167 10.5045 17.1016 11.168 16.5833" stroke="var(--stroke-0, #007BFF)" stroke-width="1.5" stroke-linecap="round" stroke-linejoin="round"/>
</g>
</svg>
