<svg preserveAspectRatio="xMidYMid meet" width="100%" height="100%" overflow="visible" style="display: block;" viewBox="0 0 17.3311 18.1667" fill="none" xmlns="http://www.w3.org/2000/svg">
<g id="elements">
<path id="Vector" d="M8.66406 0.75C6.15758 0.75 4.53238 2.43249 2.61032 3.04575C1.8288 3.29511 1.43803 3.41979 1.27989 3.59554C1.12175 3.7713 1.07544 4.02812 0.982826 4.54178C-0.0082475 10.0383 2.15797 15.12 7.32414 17.0979C7.87921 17.3104 8.15675 17.4167 8.66679 17.4167C9.17684 17.4167 9.45436 17.3104 10.0094 17.0979C15.1752 15.12 17.3394 10.0383 16.348 4.54177C16.2554 4.02803 16.209 3.77116 16.0509 3.59541C15.8927 3.41965 15.502 3.29504 14.7205 3.04582C12.7977 2.43262 11.1706 0.75 8.66406 0.75Z" stroke="var(--stroke-0, #007BFF)" stroke-width="1.5" stroke-linecap="round" stroke-linejoin="round"/>
<path id="Vector_2" d="M6.64914 12.2977L6.34491 12.9833L6.34491 12.9833L6.64914 12.2977ZM5.8599 11.4521L5.16036 11.7226H5.16036L5.8599 11.4521ZM11.4712 11.4521L12.1708 11.7226V11.7226L11.4712 11.4521ZM10.682 12.2977L10.9862 12.9833L10.9862 12.9833L10.682 12.2977ZM10.682 7.8481L10.9862 7.16258V7.16258L10.682 7.8481ZM11.4712 8.69372L12.1708 8.42328V8.42328L11.4712 8.69372ZM6.64914 7.8481L6.34491 7.16258V7.16258L6.64914 7.8481ZM5.8599 8.69372L5.16036 8.42328L5.16036 8.42328L5.8599 8.69372ZM6.45722 7.72917C6.45722 8.14338 6.79301 8.47917 7.20722 8.47917C7.62144 8.47917 7.95722 8.14338 7.95722 7.72917H7.20722H6.45722ZM9.37389 7.72917C9.37389 8.14338 9.70968 8.47917 10.1239 8.47917C10.5381 8.47917 10.8739 8.14338 10.8739 7.72917H10.1239H9.37389ZM7.93639 7.72917V8.47917H9.39472V7.72917V6.97917H7.93639V7.72917ZM9.39472 12.4167V11.6667H7.93639V12.4167V13.1667H9.39472V12.4167ZM7.93639 12.4167V11.6667C7.58565 11.6667 7.36283 11.6662 7.19314 11.6538C7.03127 11.642 6.97585 11.6222 6.95338 11.6122L6.64914 12.2977L6.34491 12.9833C6.59044 13.0922 6.8389 13.1319 7.08377 13.1498C7.32083 13.1671 7.60763 13.1667 7.93639 13.1667V12.4167ZM5.74889 10.0729H4.99889C4.99889 10.4274 4.99854 10.7282 5.01428 10.9755C5.0304 11.2286 5.06556 11.4773 5.16036 11.7226L5.8599 11.4521L6.55944 11.1817C6.54323 11.1397 6.52289 11.0629 6.51125 10.8802C6.49924 10.6916 6.49889 10.4465 6.49889 10.0729H5.74889ZM6.64914 12.2977L6.95338 11.6122C6.78742 11.5386 6.63982 11.3896 6.55944 11.1817L5.8599 11.4521L5.16036 11.7226C5.376 12.2804 5.7962 12.7397 6.34491 12.9833L6.64914 12.2977ZM11.5822 10.0729H10.8322C10.8322 10.4465 10.8319 10.6916 10.8199 10.8802C10.8082 11.0629 10.7879 11.1397 10.7717 11.1817L11.4712 11.4521L12.1708 11.7226C12.2656 11.4773 12.3007 11.2286 12.3168 10.9755C12.3326 10.7282 12.3322 10.4274 12.3322 10.0729H11.5822ZM9.39472 12.4167V13.1667C9.72348 13.1667 10.0103 13.1671 10.2473 13.1498C10.4922 13.1319 10.7407 13.0922 10.9862 12.9833L10.682 12.2977L10.3777 11.6122C10.3553 11.6222 10.2998 11.642 10.138 11.6538C9.96828 11.6662 9.74546 11.6667 9.39472 11.6667V12.4167ZM11.4712 11.4521L10.7717 11.1817C10.6913 11.3896 10.5437 11.5386 10.3777 11.6122L10.682 12.2977L10.9862 12.9833C11.5349 12.7397 11.9551 12.2804 12.1708 11.7226L11.4712 11.4521ZM9.39472 7.72917V8.47917C9.74546 8.47917 9.96828 8.47963 10.138 8.49204C10.2998 8.50387 10.3553 8.52365 10.3777 8.53363L10.682 7.8481L10.9862 7.16258C10.7407 7.05362 10.4922 7.01393 10.2473 6.99603C10.0103 6.9787 9.72348 6.97917 9.39472 6.97917V7.72917ZM11.5822 10.0729H12.3322C12.3322 9.71848 12.3326 9.41759 12.3168 9.17032C12.3007 8.91724 12.2656 8.66849 12.1708 8.42328L11.4712 8.69372L10.7717 8.96417C10.7879 9.0061 10.8082 9.08292 10.8199 9.26565C10.8319 9.45418 10.8322 9.69932 10.8322 10.0729H11.5822ZM10.682 7.8481L10.3777 8.53363C10.5437 8.60728 10.6913 8.75626 10.7717 8.96417L11.4712 8.69372L12.1708 8.42328C11.9551 7.86548 11.5349 7.4061 10.9862 7.16258L10.682 7.8481ZM7.93639 7.72917V6.97917C7.60763 6.97917 7.32083 6.9787 7.08377 6.99603C6.8389 7.01393 6.59044 7.05362 6.34491 7.16258L6.64914 7.8481L6.95338 8.53363C6.97585 8.52365 7.03127 8.50387 7.19314 8.49204C7.36283 8.47963 7.58565 8.47917 7.93639 8.47917V7.72917ZM5.74889 10.0729H6.49889C6.49889 9.69932 6.49924 9.45418 6.51125 9.26565C6.52289 9.08292 6.54323 9.0061 6.55944 8.96417L5.8599 8.69372L5.16036 8.42328C5.06556 8.66849 5.0304 8.91724 5.01428 9.17032C4.99854 9.41759 4.99889 9.71848 4.99889 10.0729H5.74889ZM6.64914 7.8481L6.34491 7.16258C5.7962 7.4061 5.376 7.86548 5.16036 8.42328L5.8599 8.69372L6.55944 8.96417C6.63982 8.75626 6.78742 8.60728 6.95338 8.53363L6.64914 7.8481ZM7.20722 7.72917H7.95722V6.32292H7.20722H6.45722V7.72917H7.20722ZM10.1239 6.32292H9.37389V7.72917H10.1239H10.8739V6.32292L10.1239 6.32292ZM8.66556 4.91667V5.66667C9.0827 5.66667 9.37389 5.98595 9.37389 6.32292H10.1239L10.8739 6.32292C10.8739 5.10658 9.85924 4.16667 8.66556 4.16667V4.91667ZM7.20722 6.32292H7.95722C7.95722 5.98595 8.24841 5.66667 8.66556 5.66667V4.91667V4.16667C7.47187 4.16667 6.45722 5.10658 6.45722 6.32292H7.20722Z" fill="var(--stroke-0, #007BFF)"/>
</g>
</svg>
