<svg preserveAspectRatio="xMidYMid meet" width="100%" height="100%" overflow="visible" style="display: block;" viewBox="0 0 18.1668 14.8364" fill="none" xmlns="http://www.w3.org/2000/svg">
<g id="elements">
<path id="Vector" d="M10.7502 9.76283V5.07359C10.7502 2.4526 10.7502 1.1421 9.97906 0.815959C9.20796 0.48982 8.30045 1.41648 6.48542 3.26981C5.54548 4.22958 5.0092 4.44212 3.67186 4.44212C2.5023 4.44212 1.91752 4.44212 1.49745 4.72872C0.625449 5.32367 0.757261 6.48654 0.757261 7.41821C0.757261 8.34989 0.625449 9.51275 1.49745 10.1077C1.91752 10.3943 2.5023 10.3943 3.67186 10.3943C5.0092 10.3943 5.54548 10.6068 6.48542 11.5666C8.30045 13.4199 9.20796 14.3466 9.97906 14.0205C10.7502 13.6943 10.7502 12.3838 10.7502 9.76283Z" stroke="var(--stroke-0, #007BFF)" stroke-width="1.5" stroke-linecap="round" stroke-linejoin="round"/>
<path id="Vector_2" d="M13.2502 4.91821C13.7713 5.60127 14.0835 6.47108 14.0835 7.41821C14.0835 8.36534 13.7713 9.23515 13.2502 9.91821" stroke="var(--stroke-0, #007BFF)" stroke-width="1.5" stroke-linecap="round" stroke-linejoin="round"/>
<path id="Vector_3" d="M15.7502 3.25154C16.7925 4.38998 17.4168 5.83966 17.4168 7.41821C17.4168 8.99676 16.7925 10.4464 15.7502 11.5849" stroke="var(--stroke-0, #007BFF)" stroke-width="1.5" stroke-linecap="round" stroke-linejoin="round"/>
</g>
</svg>
