<svg preserveAspectRatio="xMidYMid meet" width="100%" height="100%" overflow="visible" style="display: block;" viewBox="0 0 15.6667 18.1667" fill="none" xmlns="http://www.w3.org/2000/svg">
<g id="elements">
<path id="Vector" d="M14.9167 13.1905V7.41667C14.9167 4.27397 14.9167 2.70262 13.9404 1.72631C12.964 0.750001 11.3927 0.750001 8.25 0.750001H7.41667C4.27397 0.750001 2.70262 0.750001 1.72631 1.72631C0.750001 2.70262 0.750001 4.27397 0.750001 7.41667V15.3333" stroke="var(--stroke-0, #007BFF)" stroke-width="1.5" stroke-linecap="round"/>
<path id="Vector_2" d="M14.9167 13.25H2.83333C1.68274 13.25 0.750001 14.1827 0.750001 15.3333C0.750001 16.4839 1.68274 17.4167 2.83333 17.4167H14.9167" stroke="var(--stroke-0, #007BFF)" stroke-width="1.5" stroke-linecap="round"/>
<path id="Vector_3" d="M14.9167 17.4167C13.7661 17.4167 12.8333 16.4839 12.8333 15.3333C12.8333 14.1827 13.7661 13.25 14.9167 13.25" stroke="var(--stroke-0, #007BFF)" stroke-width="1.5" stroke-linecap="round"/>
<path id="Vector_4" d="M10.3333 4.91667L5.33333 4.91667" stroke="var(--stroke-0, #007BFF)" stroke-width="1.5" stroke-linecap="round" stroke-linejoin="round"/>
<path id="Vector_5" d="M7.83333 8.25L5.33333 8.25" stroke="var(--stroke-0, #007BFF)" stroke-width="1.5" stroke-linecap="round" stroke-linejoin="round"/>
</g>
</svg>
