<svg preserveAspectRatio="xMidYMid meet" width="100%" height="100%" overflow="visible" style="display: block;" viewBox="0 0 18.1667 18.1667" fill="none" xmlns="http://www.w3.org/2000/svg">
<g id="elements">
<path id="Vector" d="M16.8863 17.947C17.1792 18.2399 17.6541 18.2399 17.947 17.947C18.2399 17.6541 18.2399 17.1792 17.947 16.8863L17.4167 17.4167L16.8863 17.947ZM15.9167 15.9167L15.3863 16.447L16.8863 17.947L17.4167 17.4167L17.947 16.8863L16.447 15.3863L15.9167 15.9167ZM16.6667 13.2917H17.4167C17.4167 11.0135 15.5698 9.16667 13.2917 9.16667V9.91667V10.6667C14.7414 10.6667 15.9167 11.8419 15.9167 13.2917H16.6667ZM13.2917 9.91667V9.16667C11.0135 9.16667 9.16667 11.0135 9.16667 13.2917H9.91667H10.6667C10.6667 11.8419 11.8419 10.6667 13.2917 10.6667V9.91667ZM9.91667 13.2917H9.16667C9.16667 15.5698 11.0135 17.4167 13.2917 17.4167V16.6667V15.9167C11.8419 15.9167 10.6667 14.7414 10.6667 13.2917H9.91667ZM13.2917 16.6667V17.4167C15.5698 17.4167 17.4167 15.5698 17.4167 13.2917H16.6667H15.9167C15.9167 14.7414 14.7414 15.9167 13.2917 15.9167V16.6667Z" fill="var(--stroke-0, #007BFF)"/>
<path id="Vector_2" d="M17.4167 9.08333C17.4167 4.48096 13.6857 0.75 9.08333 0.75C4.48096 0.75 0.75 4.48096 0.75 9.08333C0.75 13.6857 4.48096 17.4167 9.08333 17.4167" stroke="var(--stroke-0, #007BFF)" stroke-width="1.5" stroke-linecap="round"/>
<path id="Vector_3" d="M15.75 3.83249C14.9711 3.88863 13.9734 4.1902 13.2816 5.08564C12.032 6.70301 10.7825 6.83796 9.94949 6.29884C8.69996 5.49016 9.75001 4.1803 8.28344 3.46846C7.32761 3.00452 7.19434 1.74204 7.72632 0.749999" stroke="var(--stroke-0, #007BFF)" stroke-width="1.5" stroke-linejoin="round"/>
<path id="Vector_4" d="M0.75 8.25C1.38541 8.80176 2.27538 9.30682 3.32395 9.30682C5.49036 9.30682 5.92364 9.72076 5.92364 11.3765C5.92364 13.0322 5.92364 13.0322 6.35693 14.274C6.63876 15.0818 6.73727 15.8895 6.1755 16.5833" stroke="var(--stroke-0, #007BFF)" stroke-width="1.5" stroke-linejoin="round"/>
</g>
</svg>
