<svg preserveAspectRatio="xMidYMid meet" width="100%" height="100%" overflow="visible" style="display: block;" viewBox="0 0 18.1696 18.1682" fill="none" xmlns="http://www.w3.org/2000/svg">
<g id="elements">
<path id="Vector" d="M10.5245 1.95348L11.991 4.91073C12.191 5.32239 12.7243 5.71725 13.1742 5.79286L15.8322 6.23813C17.5321 6.52377 17.932 7.76716 16.7072 8.99375L14.6407 11.0773C14.2908 11.4301 14.0991 12.1106 14.2074 12.5979L14.799 15.1771C15.2656 17.2186 14.1908 18.0083 12.3993 16.9413L9.9079 15.4543C9.45795 15.1855 8.71637 15.1855 8.25809 15.4543L5.7667 16.9413C3.98356 18.0083 2.90035 17.2102 3.36696 15.1771L3.95856 12.5979C4.06688 12.1106 3.87524 11.4301 3.52528 11.0773L1.45884 8.99375C0.242306 7.76716 0.63393 6.52377 2.33374 6.23813L4.99178 5.79286C5.4334 5.71725 5.96667 5.32239 6.16665 4.91073L7.63316 1.95348C8.43307 0.348839 9.73292 0.348839 10.5245 1.95348Z" stroke="var(--stroke-0, #007BFF)" stroke-width="1.5" stroke-linecap="round" stroke-linejoin="round"/>
</g>
</svg>
