<svg preserveAspectRatio="xMidYMid meet" width="100%" height="100%" overflow="visible" style="display: block;" viewBox="0 0 18.1667 18.1667" fill="none" xmlns="http://www.w3.org/2000/svg">
<g id="elements">
<path id="Vector" d="M12.6736 2.73662C12.1811 2.73662 11.9348 2.73662 11.7104 2.65337C11.6793 2.64181 11.6486 2.62909 11.6184 2.61523C11.4009 2.51545 11.2267 2.34132 10.8785 1.99305C10.0769 1.19147 9.67608 0.790683 9.18293 0.753727C9.11663 0.748758 9.05004 0.748758 8.98373 0.753727C8.49058 0.790683 8.08979 1.19147 7.28821 1.99305C6.93994 2.34132 6.76581 2.51545 6.54831 2.61523C6.5181 2.62909 6.48738 2.64181 6.45622 2.65337C6.23187 2.73662 5.98561 2.73662 5.49309 2.73662H5.40224C4.14565 2.73662 3.51736 2.73662 3.12699 3.12699C2.73662 3.51736 2.73662 4.14565 2.73662 5.40224V5.49309C2.73662 5.98561 2.73662 6.23187 2.65337 6.45622C2.64181 6.48738 2.62909 6.5181 2.61523 6.54831C2.51545 6.76581 2.34132 6.93994 1.99305 7.28821C1.19147 8.08979 0.790683 8.49058 0.753727 8.98373C0.748758 9.05004 0.748758 9.11663 0.753727 9.18293C0.790683 9.67608 1.19147 10.0769 1.99305 10.8785C2.34132 11.2267 2.51545 11.4009 2.61523 11.6184C2.62909 11.6486 2.64181 11.6793 2.65337 11.7104C2.73662 11.9348 2.73662 12.1811 2.73662 12.6736V12.7644C2.73662 14.021 2.73662 14.6493 3.12699 15.0397C3.51736 15.43 4.14565 15.43 5.40224 15.43H5.49309C5.98561 15.43 6.23187 15.43 6.45622 15.5133C6.48738 15.5249 6.5181 15.5376 6.54831 15.5514C6.76581 15.6512 6.93994 15.8253 7.28821 16.1736C8.08979 16.9752 8.49058 17.376 8.98373 17.4129C9.05004 17.4179 9.11663 17.4179 9.18293 17.4129C9.67608 17.376 10.0769 16.9752 10.8785 16.1736C11.2267 15.8253 11.4009 15.6512 11.6184 15.5514C11.6486 15.5376 11.6793 15.5249 11.7104 15.5133C11.9348 15.43 12.1811 15.43 12.6736 15.43H12.7644C14.021 15.43 14.6493 15.43 15.0397 15.0397C15.43 14.6493 15.43 14.021 15.43 12.7644V12.6736C15.43 12.1811 15.43 11.9348 15.5133 11.7104C15.5249 11.6793 15.5376 11.6486 15.5514 11.6184C15.6512 11.4009 15.8253 11.2267 16.1736 10.8785C16.9752 10.0769 17.376 9.67608 17.4129 9.18293C17.4179 9.11663 17.4179 9.05004 17.4129 8.98373C17.376 8.49058 16.9752 8.08979 16.1736 7.28821C15.8253 6.93994 15.6512 6.76581 15.5514 6.54831C15.5376 6.5181 15.5249 6.48738 15.5133 6.45622C15.43 6.23187 15.43 5.98561 15.43 5.49309V5.40224C15.43 4.14565 15.43 3.51736 15.0397 3.12699C14.6493 2.73662 14.021 2.73662 12.7644 2.73662H12.6736Z" stroke="var(--stroke-0, #007BFF)" stroke-width="1.5"/>
<path id="Vector_2" d="M6.16667 12.8333C6.74886 11.8269 7.83702 11.1498 9.08333 11.1498C10.3296 11.1498 11.4178 11.8269 12 12.8333M10.75 7.41668C10.75 8.33715 10.0038 9.08334 9.08336 9.08334C8.16288 9.08334 7.41669 8.33715 7.41669 7.41668C7.41669 6.4962 8.16288 5.75001 9.08336 5.75001C10.0038 5.75001 10.75 6.4962 10.75 7.41668Z" stroke="var(--stroke-0, #007BFF)" stroke-width="1.5" stroke-linecap="round"/>
</g>
</svg>
