<svg preserveAspectRatio="xMidYMid meet" width="100%" height="100%" overflow="visible" style="display: block;" viewBox="0 0 17.3333 17.3333" fill="none" xmlns="http://www.w3.org/2000/svg">
<g id="elements">
<path id="Vector" d="M0.750001 8.66667C0.750001 4.93471 0.750001 3.06874 1.90937 1.90937C3.06874 0.750001 4.93471 0.750001 8.66667 0.750001C12.3986 0.750001 14.2646 0.750001 15.424 1.90937C16.5833 3.06874 16.5833 4.93471 16.5833 8.66667C16.5833 12.3986 16.5833 14.2646 15.424 15.424C14.2646 16.5833 12.3986 16.5833 8.66667 16.5833C4.93471 16.5833 3.06874 16.5833 1.90937 15.424C0.750001 14.2646 0.750001 12.3986 0.750001 8.66667Z" stroke="var(--stroke-0, #007BFF)" stroke-width="1.5"/>
<path id="Vector_2" d="M8.86849 12.8333V8.66667C8.86849 8.27383 8.86849 8.07741 8.74645 7.95537C8.62441 7.83333 8.42799 7.83333 8.03516 7.83333" stroke="var(--stroke-0, #007BFF)" stroke-width="1.5" stroke-linecap="round" stroke-linejoin="round"/>
<path id="Vector_3" d="M8.66 5.33333H8.66748" stroke="var(--stroke-0, #007BFF)" stroke-width="2" stroke-linecap="round" stroke-linejoin="round"/>
</g>
</svg>
