<svg preserveAspectRatio="xMidYMid meet" width="100%" height="100%" overflow="visible" style="display: block;" viewBox="0 0 21.5 21.5" fill="none" xmlns="http://www.w3.org/2000/svg">
<g id="elements">
<path id="Vector" d="M9.75 15.25C9.75 13.1938 9.75 12.1658 10.1921 11.4C10.4818 10.8983 10.8983 10.4818 11.4 10.1921C12.1658 9.75 13.1938 9.75 15.25 9.75C17.3062 9.75 18.3342 9.75 19.1 10.1921C19.6017 10.4818 20.0182 10.8983 20.3079 11.4C20.75 12.1658 20.75 13.1938 20.75 15.25C20.75 17.3062 20.75 18.3342 20.3079 19.1C20.0182 19.6017 19.6017 20.0182 19.1 20.3079C18.3342 20.75 17.3062 20.75 15.25 20.75C13.1938 20.75 12.1658 20.75 11.4 20.3079C10.8983 20.0182 10.4818 19.6017 10.1921 19.1C9.75 18.3342 9.75 17.3062 9.75 15.25Z" stroke="var(--stroke-0, #FF6B35)" stroke-width="1.5"/>
<path id="Vector_2" d="M7.26338 13.75C6.77667 13.7037 6.41602 13.6128 6.10723 13.4345C5.69458 13.1963 5.35191 12.8536 5.11367 12.4409C4.75 11.8111 4.75 10.9654 4.75 9.27409C4.75 7.58277 4.75 6.73712 5.11367 6.10723C5.35191 5.69458 5.69458 5.35191 6.10723 5.11367C6.73712 4.75 7.58277 4.75 9.27409 4.75C10.9654 4.75 11.8111 4.75 12.4409 5.11367C12.8536 5.35191 13.1963 5.69458 13.4345 6.10723C13.6128 6.41602 13.7037 6.77667 13.75 7.26338" stroke="var(--stroke-0, #FF6B35)" stroke-width="1.5" stroke-linecap="round"/>
<path id="Vector_3" d="M2.16611 7.75C1.68863 7.60544 1.28522 7.2468 1.03818 6.82057C0.750001 6.32339 0.750001 5.6559 0.750001 4.32093C0.750001 2.98595 0.750001 2.31846 1.03818 1.82128C1.22696 1.49557 1.4985 1.2251 1.82548 1.03705C2.32462 0.750001 2.99473 0.750001 4.33495 0.750001C5.67516 0.750001 6.34527 0.750001 6.84441 1.03705C7.24574 1.26785 7.59255 1.63838 7.75 2.07758" stroke="var(--stroke-0, #FF6B35)" stroke-width="1.5" stroke-linecap="round"/>
</g>
</svg>
