<svg preserveAspectRatio="xMidYMid meet" width="100%" height="100%" overflow="visible" style="display: block;" viewBox="0 0 20.5 20.5" fill="none" xmlns="http://www.w3.org/2000/svg">
<g id="elements">
<path id="Vector" d="M2.14124 18.3588C0.750001 16.9675 0.750001 14.7283 0.75 10.25C0.75 5.77166 0.75 3.53249 2.14124 2.14124C3.53249 0.750001 5.77166 0.750001 10.25 0.75C14.7283 0.75 16.9675 0.75 18.3588 2.14124C19.75 3.53249 19.75 5.77166 19.75 10.25C19.75 14.7283 19.75 16.9675 18.3588 18.3588C16.9675 19.75 14.7283 19.75 10.25 19.75C5.77166 19.75 3.53249 19.75 2.14124 18.3588Z" stroke="var(--stroke-0, #FF6B35)" stroke-width="1.5" stroke-linecap="round" stroke-linejoin="round"/>
<path id="Vector_2" d="M0.750001 7.25L19.75 7.25" stroke="var(--stroke-0, #FF6B35)" stroke-width="1.5"/>
<path id="Vector_3" d="M6.25 13.25L19.75 13.25" stroke="var(--stroke-0, #FF6B35)" stroke-width="1.5"/>
<path id="Vector_4" d="M6.25 19.75L6.25 7.25" stroke="var(--stroke-0, #FF6B35)" stroke-width="1.5"/>
</g>
</svg>
