<svg preserveAspectRatio="xMidYMid meet" width="100%" height="100%" overflow="visible" style="display: block;" viewBox="0 0 21.5 20.5" fill="none" xmlns="http://www.w3.org/2000/svg">
<g id="elements">
<path id="Vector" d="M12.9206 19.1405C17.1036 18.8625 20.4356 15.4832 20.7098 11.2409C20.7634 10.4107 20.7634 9.55093 20.7098 8.72072C20.4356 4.47838 17.1036 1.09913 12.9206 0.821075C11.4935 0.726212 10.0036 0.726405 8.5794 0.821075C4.39639 1.09913 1.06441 4.47838 0.79024 8.72072C0.736587 9.55093 0.736587 10.4107 0.79024 11.2409C0.890095 12.786 1.57343 14.2166 2.37791 15.4246C2.84501 16.2703 2.53674 17.3258 2.05021 18.2478C1.69941 18.9126 1.52401 19.245 1.66484 19.4851C1.80568 19.7252 2.12026 19.7329 2.74943 19.7482C3.99367 19.7785 4.83268 19.4257 5.49868 18.9346C5.8764 18.6561 6.06527 18.5168 6.19544 18.5008C6.3256 18.4848 6.58177 18.5903 7.09401 18.8013C7.5544 18.9909 8.08896 19.1079 8.5794 19.1405C10.0036 19.2352 11.4935 19.2354 12.9206 19.1405Z" stroke="var(--stroke-0, #FF6B35)" stroke-width="1.5" stroke-linejoin="round"/>
<path id="Vector_2" d="M9.25 7.78846C9.25 6.93879 9.92157 6.25 10.75 6.25C11.5784 6.25 12.25 6.93879 12.25 7.78846C12.25 8.09473 12.1627 8.3801 12.0123 8.61984C11.5641 9.33436 10.75 10.0157 10.75 10.8654V11.25" stroke="var(--stroke-0, #FF6B35)" stroke-width="1.5" stroke-linecap="round"/>
<path id="Vector_3" d="M10.75 13.25H10.759" stroke="var(--stroke-0, #FF6B35)" stroke-width="1.5" stroke-linecap="round" stroke-linejoin="round"/>
</g>
</svg>
