<svg preserveAspectRatio="xMidYMid meet" width="100%" height="100%" overflow="visible" style="display: block;" viewBox="0 0 20.4999 20.4999" fill="none" xmlns="http://www.w3.org/2000/svg">
<g id="elements">
<path id="Vector" d="M10.0513 4.73939L11.5369 3.25381C13.2096 1.5811 15.3995 0.887268 17.7171 0.77389C18.6186 0.729791 19.0693 0.707741 19.4307 1.06917C19.7922 1.4306 19.7701 1.88133 19.726 2.78279C19.6126 5.10039 18.9188 7.29032 17.2461 8.96304L15.7605 10.4486C14.5371 11.672 14.1893 12.0199 14.4461 13.3469C14.6996 14.3606 14.9449 15.3422 14.2078 16.0793C13.3137 16.9734 12.4981 16.9734 11.604 16.0793L4.42058 8.89586C3.52649 8.00178 3.52646 7.1862 4.42058 6.29208C5.15767 5.55499 6.13929 5.80034 7.15297 6.05379C8.48005 6.31063 8.82788 5.96279 10.0513 4.73939Z" stroke="var(--stroke-0, #FF6B35)" stroke-width="1.5" stroke-linejoin="round"/>
<path id="Vector_2" d="M15.2459 5.2499H15.2549" stroke="var(--stroke-0, #FF6B35)" stroke-width="2" stroke-linecap="round" stroke-linejoin="round"/>
<path id="Vector_3" d="M0.75 19.7499L5.75 14.7499" stroke="var(--stroke-0, #FF6B35)" stroke-width="1.5" stroke-linecap="round"/>
<path id="Vector_4" d="M6.75 19.7499L8.75 17.7499" stroke="var(--stroke-0, #FF6B35)" stroke-width="1.5" stroke-linecap="round"/>
<path id="Vector_5" d="M0.75 13.7499L2.75 11.7499" stroke="var(--stroke-0, #FF6B35)" stroke-width="1.5" stroke-linecap="round"/>
</g>
</svg>
