<svg preserveAspectRatio="xMidYMid meet" width="100%" height="100%" overflow="visible" style="display: block;" viewBox="0 0 21.5 19.5" fill="none" xmlns="http://www.w3.org/2000/svg">
<g id="elements">
<path id="Vector" d="M10.75 13.25L10.75 18.25" stroke="var(--stroke-0, #FF6B35)" stroke-width="1.5" stroke-linecap="round"/>
<path id="Vector_2" d="M4.73056 1.03543C3.0379 0.713152 2.19157 0.552011 1.47079 1.16964C0.750004 1.78727 0.750004 2.79022 0.750003 4.79612L0.750003 12.005C0.750003 13.8391 0.750003 14.7561 1.2126 15.3287C1.6752 15.9012 2.69365 16.0951 4.73056 16.483C6.54633 16.8287 7.96345 17.3795 8.98918 17.9331C9.99838 18.4777 10.503 18.75 10.75 18.75C10.997 18.75 11.5016 18.4777 12.5108 17.9331C13.5366 17.3795 14.9537 16.8287 16.7694 16.483C18.8064 16.0951 19.8248 15.9012 20.2874 15.3287C20.75 14.7561 20.75 13.8391 20.75 12.005L20.75 4.79612C20.75 2.79022 20.75 1.78727 20.0292 1.16964C19.3084 0.552012 18.4621 0.713153 16.7694 1.03544" stroke="var(--stroke-0, #FF6B35)" stroke-width="1.5" stroke-linecap="round" stroke-linejoin="round"/>
<path id="Vector_3" d="M8.0429 8.45711L8.57323 7.92678L8.57323 7.92678L8.0429 8.45711ZM13.4571 8.45711L12.9268 7.92678L12.9268 7.92678L13.4571 8.45711ZM13.4571 3.04289L12.9268 3.57322L12.9268 3.57322L13.4571 3.04289ZM10 8.75C10 8.33579 9.66422 8 9.25 8C8.83579 8 8.5 8.33579 8.5 8.75L9.25 8.75L10 8.75ZM8.5 10.75C8.5 11.1642 8.83579 11.5 9.25 11.5C9.66422 11.5 10 11.1642 10 10.75L9.25 10.75L8.5 10.75ZM13 8.75C13 8.33579 12.6642 8 12.25 8C11.8358 8 11.5 8.33579 11.5 8.75L12.25 8.75L13 8.75ZM11.5 10.75C11.5 11.1642 11.8358 11.5 12.25 11.5C12.6642 11.5 13 11.1642 13 10.75L12.25 10.75L11.5 10.75ZM10 0.75C10 0.335786 9.66422 -7.71835e-09 9.25 -2.58242e-08C8.83579 -4.393e-08 8.5 0.335786 8.5 0.75L9.25 0.75L10 0.75ZM8.5 2.75C8.5 3.16421 8.83579 3.5 9.25 3.5C9.66422 3.5 10 3.16421 10 2.75L9.25 2.75L8.5 2.75ZM13 0.75C13 0.335787 12.6642 1.23416e-07 12.25 1.0531e-07C11.8358 8.7204e-08 11.5 0.335787 11.5 0.75L12.25 0.75L13 0.75ZM11.5 2.75C11.5 3.16421 11.8358 3.5 12.25 3.5C12.6642 3.5 13 3.16421 13 2.75L12.25 2.75L11.5 2.75ZM7.75 5C8.16422 5 8.5 4.66421 8.5 4.25C8.5 3.83579 8.16422 3.5 7.75 3.5L7.75 4.25L7.75 5ZM5.75 3.5C5.33579 3.5 5 3.83579 5 4.25C5 4.66421 5.33579 5 5.75 5L5.75 4.25L5.75 3.5ZM7.75 8C8.16422 8 8.5 7.66421 8.5 7.25C8.5 6.83579 8.16422 6.5 7.75 6.5L7.75 7.25L7.75 8ZM5.75 6.5C5.33579 6.5 5 6.83579 5 7.25C5 7.66421 5.33579 8 5.75 8L5.75 7.25L5.75 6.5ZM15.75 5C16.1642 5 16.5 4.66421 16.5 4.25C16.5 3.83579 16.1642 3.5 15.75 3.5L15.75 4.25L15.75 5ZM13.75 3.5C13.3358 3.5 13 3.83579 13 4.25C13 4.66421 13.3358 5 13.75 5L13.75 4.25L13.75 3.5ZM15.75 8C16.1642 8 16.5 7.66421 16.5 7.25C16.5 6.83579 16.1642 6.5 15.75 6.5L15.75 7.25L15.75 8ZM13.75 6.5C13.3358 6.5 13 6.83579 13 7.25C13 7.66421 13.3358 8 13.75 8L13.75 7.25L13.75 6.5ZM9.75 2.75L9.75 3.5L11.75 3.5L11.75 2.75L11.75 2L9.75 2L9.75 2.75ZM13.75 4.75L13 4.75L13 6.75L13.75 6.75L14.5 6.75L14.5 4.75L13.75 4.75ZM11.75 8.75L11.75 8L9.75 8L9.75 8.75L9.75 9.5L11.75 9.5L11.75 8.75ZM7.75 6.75L8.5 6.75L8.5 4.75L7.75 4.75L7 4.75L7 6.75L7.75 6.75ZM9.75 8.75L9.75 8C9.2574 8 8.96339 7.99841 8.75267 7.97008C8.65611 7.95709 8.60775 7.9418 8.58597 7.93284C8.58092 7.93077 8.57761 7.92915 8.57567 7.92814C8.57377 7.92714 8.57292 7.92659 8.57284 7.92653C8.57277 7.92649 8.57301 7.92665 8.57335 7.92693C8.5737 7.92721 8.57368 7.92723 8.57323 7.92678L8.0429 8.45711L7.51257 8.98744C7.82159 9.29646 8.19732 9.40891 8.5528 9.4567C8.8867 9.50159 9.2998 9.5 9.75 9.5L9.75 8.75ZM7.75 6.75L7 6.75C7 7.2002 6.99841 7.6133 7.0433 7.94721C7.0911 8.30269 7.20354 8.67841 7.51257 8.98744L8.0429 8.45711L8.57323 7.92678C8.57277 7.92632 8.57279 7.9263 8.57307 7.92665C8.57336 7.927 8.57351 7.92723 8.57347 7.92717C8.57342 7.92708 8.57286 7.92624 8.57186 7.92433C8.57085 7.9224 8.56924 7.91908 8.56716 7.91404C8.5582 7.89226 8.54291 7.84389 8.52993 7.74734C8.5016 7.53661 8.5 7.24261 8.5 6.75L7.75 6.75ZM13.75 6.75L13 6.75C13 7.24261 12.9984 7.53661 12.9701 7.74734C12.9571 7.84389 12.9418 7.89226 12.9328 7.91404C12.9308 7.91908 12.9292 7.9224 12.9281 7.92433C12.9271 7.92624 12.9266 7.92708 12.9265 7.92717C12.9265 7.92723 12.9267 7.927 12.9269 7.92665C12.9272 7.9263 12.9272 7.92632 12.9268 7.92678L13.4571 8.45711L13.9874 8.98744C14.2965 8.67841 14.4089 8.30269 14.4567 7.94721C14.5016 7.6133 14.5 7.2002 14.5 6.75L13.75 6.75ZM11.75 8.75L11.75 9.5C12.2002 9.5 12.6133 9.50159 12.9472 9.4567C13.3027 9.40891 13.6784 9.29646 13.9874 8.98744L13.4571 8.45711L12.9268 7.92678C12.9263 7.92723 12.9263 7.92721 12.9267 7.92693C12.927 7.92665 12.9272 7.92649 12.9272 7.92653C12.9271 7.92659 12.9262 7.92714 12.9243 7.92814C12.9224 7.92915 12.9191 7.93077 12.914 7.93284C12.8923 7.9418 12.8439 7.95709 12.7473 7.97008C12.5366 7.99841 12.2426 8 11.75 8L11.75 8.75ZM11.75 2.75L11.75 3.5C12.2426 3.5 12.5366 3.50159 12.7473 3.52992C12.8439 3.54291 12.8923 3.5582 12.914 3.56716C12.9191 3.56923 12.9224 3.57085 12.9243 3.57186C12.9262 3.57286 12.9271 3.57341 12.9272 3.57347C12.9272 3.57351 12.927 3.57335 12.9267 3.57307C12.9263 3.57279 12.9263 3.57277 12.9268 3.57322L13.4571 3.04289L13.9874 2.51256C13.6784 2.20354 13.3027 2.09109 12.9472 2.0433C12.6133 1.99841 12.2002 2 11.75 2L11.75 2.75ZM13.75 4.75L14.5 4.75C14.5 4.2998 14.5016 3.8867 14.4567 3.55279C14.4089 3.19731 14.2965 2.82159 13.9874 2.51256L13.4571 3.04289L12.9268 3.57322C12.9272 3.57368 12.9272 3.5737 12.9269 3.57335C12.9267 3.573 12.9265 3.57277 12.9265 3.57283C12.9266 3.57292 12.9271 3.57376 12.9281 3.57567C12.9292 3.5776 12.9308 3.58092 12.9328 3.58596C12.9418 3.60774 12.9571 3.65611 12.9701 3.75266C12.9984 3.96339 13 4.25739 13 4.75L13.75 4.75ZM9.75 2.75L9.75 2C9.2998 2 8.8867 1.99841 8.5528 2.0433C8.19732 2.09109 7.82159 2.20354 7.51257 2.51256L8.0429 3.04289L8.57323 3.57322C8.57368 3.57277 8.5737 3.57279 8.57335 3.57307C8.57301 3.57335 8.57277 3.57351 8.57284 3.57347C8.57292 3.57341 8.57377 3.57286 8.57567 3.57186C8.57761 3.57085 8.58092 3.56923 8.58597 3.56716C8.60775 3.5582 8.65611 3.54291 8.75267 3.52992C8.96339 3.50159 9.2574 3.5 9.75 3.5L9.75 2.75ZM7.75 4.75L8.5 4.75C8.5 4.25739 8.5016 3.96339 8.52993 3.75266C8.54291 3.65611 8.5582 3.60774 8.56716 3.58596C8.56924 3.58092 8.57085 3.5776 8.57186 3.57567C8.57286 3.57376 8.57342 3.57292 8.57347 3.57283C8.57351 3.57277 8.57336 3.573 8.57307 3.57335C8.57279 3.5737 8.57277 3.57368 8.57323 3.57322L8.0429 3.04289L7.51257 2.51256C7.20354 2.82159 7.0911 3.19731 7.0433 3.55279C6.99841 3.8867 7 4.2998 7 4.75L7.75 4.75ZM9.25 8.75L8.5 8.75L8.5 10.75L9.25 10.75L10 10.75L10 8.75L9.25 8.75ZM12.25 8.75L11.5 8.75L11.5 10.75L12.25 10.75L13 10.75L13 8.75L12.25 8.75ZM9.25 0.75L8.5 0.75L8.5 2.75L9.25 2.75L10 2.75L10 0.75L9.25 0.75ZM12.25 0.75L11.5 0.75L11.5 2.75L12.25 2.75L13 2.75L13 0.75L12.25 0.75ZM7.75 4.25L7.75 3.5L5.75 3.5L5.75 4.25L5.75 5L7.75 5L7.75 4.25ZM7.75 7.25L7.75 6.5L5.75 6.5L5.75 7.25L5.75 8L7.75 8L7.75 7.25ZM15.75 4.25L15.75 3.5L13.75 3.5L13.75 4.25L13.75 5L15.75 5L15.75 4.25ZM15.75 7.25L15.75 6.5L13.75 6.5L13.75 7.25L13.75 8L15.75 8L15.75 7.25Z" fill="var(--stroke-0, #FF6B35)"/>
</g>
</svg>
