<svg preserveAspectRatio="xMidYMid meet" width="100%" height="100%" overflow="visible" style="display: block;" viewBox="0 0 21.5 20.0793" fill="none" xmlns="http://www.w3.org/2000/svg">
<g id="elements">
<path id="Vector" d="M15.3627 13.9139C12.7296 15.397 11.2273 18.4702 10.75 19.3293V5.82927C11.1645 5.08323 12.352 2.94574 14.3817 1.49296C15.2368 0.880941 15.6643 0.574931 16.2072 0.853959C16.75 1.13299 16.75 1.7489 16.75 2.98073V11.8207C16.75 12.4861 16.75 12.8188 16.6134 13.0526C16.4767 13.2864 16.1054 13.4956 15.3627 13.9139L15.3627 13.9139Z" stroke="var(--stroke-0, #FF6B35)" stroke-width="1.5" stroke-linecap="round" stroke-linejoin="round"/>
<path id="Vector_2" d="M10.75 5.63483C10.0631 4.9133 8.07176 3.19967 4.73056 2.59885C3.0379 2.29448 2.19157 2.14229 1.47079 2.7256C0.750005 3.30892 0.750005 4.25615 0.750005 6.15061V12.959C0.750005 14.6912 0.750005 15.5573 1.2126 16.098C1.6752 16.6388 2.69365 16.8219 4.73056 17.1882C6.54633 17.5147 7.96345 18.0349 8.98919 18.5577C9.99838 19.0721 10.503 19.3293 10.75 19.3293C10.997 19.3293 11.5016 19.0721 12.5108 18.5577C13.5366 18.0349 14.9537 17.5147 16.7694 17.1882C18.8064 16.8219 19.8248 16.6388 20.2874 16.098C20.75 15.5573 20.75 14.6912 20.75 12.959V6.15061C20.75 4.25615 20.75 3.30892 20.0292 2.7256C19.3084 2.14229 17.75 2.59885 16.75 3.32927" stroke="var(--stroke-0, #FF6B35)" stroke-width="1.5" stroke-linecap="round" stroke-linejoin="round"/>
</g>
</svg>
