<svg preserveAspectRatio="none" width="21.5002" height="17.5031" overflow="visible" style="display: block;" viewBox="0 0 21.5002 17.5031" fill="none" xmlns="http://www.w3.org/2000/svg">
<g id="elements">
<path id="Vector" d="M12.7502 11.5651V5.938C12.7502 2.7928 12.7502 1.22021 11.8248 0.828839C10.8995 0.437472 9.8105 1.54947 7.63247 3.77346C6.50454 4.92519 5.861 5.18023 4.25619 5.18023C2.85273 5.18023 2.15099 5.18023 1.64691 5.52416C0.600503 6.23809 0.758678 7.63353 0.758678 8.75154C0.758678 9.86955 0.600503 11.265 1.64691 11.9789C2.15099 12.3229 2.85273 12.3229 4.25619 12.3229C5.861 12.3229 6.50454 12.5779 7.63247 13.7296C9.8105 15.9536 10.8995 17.0656 11.8248 16.6742C12.7502 16.2829 12.7502 14.7103 12.7502 11.5651Z" stroke="white" stroke-width="1.5" stroke-linecap="round" stroke-linejoin="round"/>
<path id="Vector_2" d="M15.7502 5.75154C16.3756 6.57122 16.7502 7.61498 16.7502 8.75154C16.7502 9.8881 16.3756 10.9319 15.7502 11.7515" stroke="white" stroke-width="1.5" stroke-linecap="round" stroke-linejoin="round"/>
<path id="Vector_3" d="M18.7502 3.75154C20.001 5.11767 20.7502 6.85728 20.7502 8.75154C20.7502 10.6458 20.001 12.3854 18.7502 13.7515" stroke="white" stroke-width="1.5" stroke-linecap="round" stroke-linejoin="round"/>
</g>
</svg>
