<svg preserveAspectRatio="none" width="21.5" height="21.5" overflow="visible" style="display: block;" viewBox="0 0 21.5 21.5" fill="none" xmlns="http://www.w3.org/2000/svg">
<g id="elements">
<path id="Vector" d="M6.04469 15.75C2.28045 6 7.61313 1.6875 10.75 0.75C13.8869 1.6875 19.2196 6 15.4553 15.75C14.8869 15.4375 13.15 14.8125 10.75 14.8125C8.35 14.8125 6.61313 15.4375 6.04469 15.75Z" stroke="#007BFF" stroke-width="1.5" stroke-linecap="round" stroke-linejoin="round"/>
<path id="Vector_2" d="M12.75 7.75C12.75 6.64543 11.8546 5.75 10.75 5.75C9.64543 5.75 8.75 6.64543 8.75 7.75C8.75 8.85457 9.64543 9.75 10.75 9.75C11.8546 9.75 12.75 8.85457 12.75 7.75Z" stroke="#007BFF" stroke-width="1.5"/>
<path id="Vector_3" d="M16.25 14.3076C17.6921 14.4408 19.4578 14.8322 20.7314 15.75C20.7314 15.75 21.2544 10.8142 16.75 9.75" stroke="#007BFF" stroke-width="1.5" stroke-linecap="round" stroke-linejoin="round"/>
<path id="Vector_4" d="M5.25 14.3076C3.80794 14.4408 2.04216 14.8322 0.768576 15.75C0.768576 15.75 0.245552 10.8142 4.75 9.75" stroke="#007BFF" stroke-width="1.5" stroke-linecap="round" stroke-linejoin="round"/>
<path id="Vector_5" d="M8.25 17.75C8.25 17.75 8.66667 20.25 10.75 20.75C12.8333 20.25 13.25 17.75 13.25 17.75" stroke="#007BFF" stroke-width="1.5" stroke-linecap="round" stroke-linejoin="round"/>
</g>
</svg>
