<svg preserveAspectRatio="none" width="14.5833" height="17.9168" overflow="visible" style="display: block;" viewBox="0 0 14.5833 17.9168" fill="none" xmlns="http://www.w3.org/2000/svg">
<g id="elements">
<path id="Vector" d="M1.57738 10.625C0.972791 9.6318 0.625 8.46813 0.625 7.22405C0.625 3.5795 3.60977 0.625 7.29167 0.625C10.9736 0.625 13.9583 3.5795 13.9583 7.22405C13.9583 8.46813 13.6105 9.6318 13.006 10.625" stroke="#FFC83D" stroke-width="1.25" stroke-linecap="round"/>
<path id="Vector_2" d="M8.95833 7.29167C8.44795 7.82766 7.88425 8.125 7.29167 8.125C6.69908 8.125 6.13539 7.82766 5.625 7.29167" stroke="#FFC83D" stroke-width="1.25" stroke-linecap="round"/>
<path id="Vector_3" d="M3.44406 13.2069C3.3675 12.9764 3.32922 12.8611 3.33368 12.7677C3.34312 12.5702 3.46762 12.3969 3.65131 12.3254C3.73816 12.2917 3.85921 12.2917 4.10131 12.2917H10.482C10.7241 12.2917 10.8452 12.2917 10.932 12.3254C11.1157 12.3969 11.2402 12.5702 11.2497 12.7677C11.2541 12.8611 11.2158 12.9764 11.1393 13.2069C10.9978 13.6329 10.927 13.8459 10.8179 14.0184C10.5893 14.3797 10.231 14.6389 9.81713 14.7423C9.61959 14.7917 9.39587 14.7917 8.94845 14.7917H5.63489C5.18746 14.7917 4.96375 14.7917 4.7662 14.7423C4.35236 14.6389 3.99401 14.3797 3.76541 14.0184C3.65629 13.8459 3.58555 13.6329 3.44406 13.2069Z" stroke="#FFC83D" stroke-width="1.25"/>
<path id="Vector_4" d="M9.79167 14.7917L9.6839 15.3305C9.56606 15.9197 9.50714 16.2143 9.37511 16.4471C9.17097 16.8071 8.84021 17.0783 8.44718 17.2079C8.19298 17.2917 7.89254 17.2917 7.29167 17.2917C6.69079 17.2917 6.39035 17.2917 6.13615 17.2079C5.74313 17.0783 5.41237 16.8071 5.20823 16.4471C5.0762 16.2143 5.01728 15.9197 4.89943 15.3305L4.79167 14.7917" stroke="#FFC83D" stroke-width="1.25"/>
<path id="Vector_5" d="M7.29167 11.875V8.125" stroke="#FFC83D" stroke-width="1.25" stroke-linecap="round" stroke-linejoin="round"/>
</g>
</svg>
