<svg preserveAspectRatio="none" width="18.6667" height="18.6667" overflow="visible" style="display: block;" viewBox="0 0 18.6667 18.6667" fill="none" xmlns="http://www.w3.org/2000/svg">
<g id="elements">
<path id="Vector" d="M12.9236 2.98662C12.4311 2.98662 12.1848 2.98662 11.9604 2.90337C11.9293 2.89181 11.8986 2.87909 11.8684 2.86523C11.6509 2.76545 11.4767 2.59132 11.1285 2.24305C10.3269 1.44147 9.92608 1.04068 9.43293 1.00373C9.36663 0.998758 9.30004 0.998758 9.23373 1.00373C8.74058 1.04068 8.33979 1.44147 7.53821 2.24305C7.18994 2.59132 7.01581 2.76545 6.79831 2.86523C6.7681 2.87909 6.73738 2.89181 6.70622 2.90337C6.48187 2.98662 6.23561 2.98662 5.74309 2.98662H5.65224C4.39565 2.98662 3.76736 2.98662 3.37699 3.37699C2.98662 3.76736 2.98662 4.39565 2.98662 5.65224V5.74309C2.98662 6.23561 2.98662 6.48187 2.90337 6.70622C2.89181 6.73738 2.87909 6.7681 2.86523 6.79831C2.76545 7.01581 2.59132 7.18994 2.24305 7.53821C1.44147 8.33979 1.04068 8.74058 1.00373 9.23373C0.998758 9.30004 0.998758 9.36663 1.00373 9.43293C1.04068 9.92608 1.44147 10.3269 2.24305 11.1285C2.59132 11.4767 2.76545 11.6509 2.86523 11.8684C2.87909 11.8986 2.89181 11.9293 2.90337 11.9604C2.98662 12.1848 2.98662 12.4311 2.98662 12.9236V13.0144C2.98662 14.271 2.98662 14.8993 3.37699 15.2897C3.76736 15.68 4.39565 15.68 5.65224 15.68H5.74309C6.23561 15.68 6.48187 15.68 6.70622 15.7633C6.73738 15.7749 6.7681 15.7876 6.79831 15.8014C7.01581 15.9012 7.18994 16.0753 7.53821 16.4236C8.33979 17.2252 8.74058 17.626 9.23373 17.6629C9.30004 17.6679 9.36663 17.6679 9.43293 17.6629C9.92608 17.626 10.3269 17.2252 11.1285 16.4236C11.4767 16.0753 11.6509 15.9012 11.8684 15.8014C11.8986 15.7876 11.9293 15.7749 11.9604 15.7633C12.1848 15.68 12.4311 15.68 12.9236 15.68H13.0144C14.271 15.68 14.8993 15.68 15.2897 15.2897C15.68 14.8993 15.68 14.271 15.68 13.0144V12.9236C15.68 12.4311 15.68 12.1848 15.7633 11.9604C15.7749 11.9293 15.7876 11.8986 15.8014 11.8684C15.9012 11.6509 16.0753 11.4767 16.4236 11.1285C17.2252 10.3269 17.626 9.92608 17.6629 9.43293C17.6679 9.36663 17.6679 9.30004 17.6629 9.23373C17.626 8.74058 17.2252 8.33979 16.4236 7.53821C16.0753 7.18994 15.9012 7.01581 15.8014 6.79831C15.7876 6.7681 15.7749 6.73738 15.7633 6.70622C15.68 6.48187 15.68 6.23561 15.68 5.74309V5.65224C15.68 4.39565 15.68 3.76736 15.2897 3.37699C14.8993 2.98662 14.271 2.98662 13.0144 2.98662H12.9236Z" stroke="white" stroke-width="2"/>
<path id="Vector_2" d="M9.53516 12.6667V9.33333C9.53516 8.9405 9.53516 8.74408 9.41312 8.62204C9.29108 8.5 9.09466 8.5 8.70182 8.5" stroke="white" stroke-width="1.5" stroke-linecap="round" stroke-linejoin="round"/>
<path id="Vector_3" d="M9.32666 6H9.33415" stroke="white" stroke-width="2" stroke-linecap="round" stroke-linejoin="round"/>
</g>
</svg>
