<svg preserveAspectRatio="none" width="100%" height="100%" overflow="visible" style="display: block;" viewBox="0 0 14.3333 14.3333" fill="none" xmlns="http://www.w3.org/2000/svg">
<g id="elements">
<path id="Vector" d="M13.8333 7.16667C13.8333 3.48477 10.8486 0.5 7.16667 0.5C3.48477 0.5 0.5 3.48477 0.5 7.16667C0.5 10.8486 3.48477 13.8333 7.16667 13.8333C10.8486 13.8333 13.8333 10.8486 13.8333 7.16667Z" stroke="url(#paint0_linear_0_258)"/>
<path id="Vector_2" d="M7.43425 4.69864L9.38086 4.04977C9.97169 3.85283 10.2671 3.75436 10.423 3.91029C10.579 4.06623 10.4805 4.36165 10.2836 4.95247L9.63469 6.89909C9.29909 7.90588 9.13129 8.40928 8.77029 8.77029C8.40928 9.1313 7.90588 9.29909 6.89909 9.63469L4.95247 10.2836C4.36165 10.4805 4.06623 10.579 3.91029 10.423C3.75436 10.2671 3.85283 9.97169 4.04977 9.38086L4.69864 7.43425C5.03424 6.42745 5.20204 5.92405 5.56305 5.56305C5.92405 5.20204 6.42745 5.03424 7.43425 4.69864Z" stroke="url(#paint1_linear_0_258)" stroke-linecap="round" stroke-linejoin="round"/>
<path id="Vector_3" d="M7.16667 7.16667L7.16243 7.1709" stroke="url(#paint2_linear_0_258)" stroke-width="1.33333" stroke-linecap="round" stroke-linejoin="round"/>
</g>
<defs>
<linearGradient id="paint0_linear_0_258" x1="0.5" y1="7.16667" x2="13.8333" y2="7.16667" gradientUnits="userSpaceOnUse">
<stop stop-color="#007BFF"/>
<stop offset="0.177885" stop-color="#FF6B35"/>
<stop offset="0.721154" stop-color="#007BFF"/>
<stop offset="0.807692" stop-color="#007BFF"/>
<stop offset="0.923077" stop-color="#FF6B35"/>
<stop offset="1" stop-color="#007BFF"/>
</linearGradient>
<linearGradient id="paint1_linear_0_258" x1="3.83333" y1="7.16667" x2="10.5" y2="7.16667" gradientUnits="userSpaceOnUse">
<stop stop-color="#007BFF"/>
<stop offset="0.177885" stop-color="#FF6B35"/>
<stop offset="0.721154" stop-color="#007BFF"/>
<stop offset="0.807692" stop-color="#007BFF"/>
<stop offset="0.923077" stop-color="#FF6B35"/>
<stop offset="1" stop-color="#007BFF"/>
</linearGradient>
<linearGradient id="paint2_linear_0_258" x1="6.93096" y1="6.93096" x2="6.92673" y2="6.9352" gradientUnits="userSpaceOnUse">
<stop stop-color="#007BFF"/>
<stop offset="0.177885" stop-color="#FF6B35"/>
<stop offset="0.721154" stop-color="#007BFF"/>
<stop offset="0.807692" stop-color="#007BFF"/>
<stop offset="0.923077" stop-color="#FF6B35"/>
<stop offset="1" stop-color="#007BFF"/>
</linearGradient>
</defs>
</svg>
