<svg preserveAspectRatio="none" width="100%" height="100%" overflow="visible" style="display: block;" viewBox="0 0 14.7 18.0601" fill="none" xmlns="http://www.w3.org/2000/svg">
<g id="elements">
<path id="Vector" d="M1.59 10.71C0.980573 9.70886 0.63 8.53588 0.63 7.28184C0.63 3.60813 3.63865 0.63 7.35 0.63C11.0614 0.63 14.07 3.60813 14.07 7.28184C14.07 8.53588 13.7194 9.70886 13.11 10.71" stroke="var(--stroke-0, #007BFF)" stroke-width="1.26" stroke-linecap="round"/>
<path id="Vector_2" d="M3.47161 13.3125C3.39444 13.0802 3.35586 12.964 3.36035 12.8699C3.36986 12.6708 3.49536 12.496 3.68052 12.424C3.76806 12.39 3.89008 12.39 4.13412 12.39H10.5659C10.8099 12.39 10.9319 12.39 11.0195 12.424C11.2046 12.496 11.3301 12.6708 11.3396 12.8699C11.3441 12.964 11.3056 13.0802 11.2284 13.3125C11.0858 13.7419 11.0145 13.9566 10.9045 14.1305C10.674 14.4947 10.3128 14.756 9.89567 14.8603C9.69654 14.91 9.47104 14.91 9.02003 14.91H5.67997C5.22896 14.91 5.00346 14.91 4.80433 14.8603C4.38718 14.756 4.02596 14.4947 3.79554 14.1305C3.68554 13.9566 3.61423 13.7419 3.47161 13.3125Z" stroke="var(--stroke-0, #007BFF)" stroke-width="1.26"/>
<path id="Vector_3" d="M9.87 14.91L9.76137 15.4531C9.64259 16.0471 9.58319 16.344 9.45011 16.5787C9.24433 16.9416 8.91093 17.2149 8.51476 17.3455C8.25853 17.43 7.95568 17.43 7.35 17.43C6.74432 17.43 6.44147 17.43 6.18524 17.3455C5.78907 17.2149 5.45567 16.9416 5.24989 16.5787C5.11681 16.344 5.05741 16.0471 4.93863 15.4531L4.83 14.91" stroke="var(--stroke-0, #007BFF)" stroke-width="1.26"/>
<path id="Vector_4" d="M7.8138 4.41L6.53561 5.83344C6.35997 6.02904 6.46687 6.34149 6.72551 6.38851L7.97605 6.61588C8.25147 6.66596 8.34847 7.01113 8.13945 7.19734L6.5538 8.61" stroke="var(--stroke-0, #007BFF)" stroke-width="1.26" stroke-linecap="round" stroke-linejoin="round"/>
</g>
</svg>
