<svg preserveAspectRatio="none" width="100%" height="100%" overflow="visible" style="display: block;" viewBox="0 0 14.3333 14.3333" fill="none" xmlns="http://www.w3.org/2000/svg">
<g id="elements">
<path id="Vector" d="M5.83333 8.5L4.16667 10.1667" stroke="var(--stroke-0, #007BFF)" stroke-linejoin="round"/>
<path id="Vector_2" d="M4.21117 11.5168C4.59628 11.1317 4.59628 10.5073 4.21117 10.1222C3.82605 9.73706 3.20166 9.73706 2.81655 10.1222L0.788835 12.1499C0.403722 12.535 0.403722 13.1594 0.788835 13.5445C1.17395 13.9296 1.79834 13.9296 2.18345 13.5445L4.21117 11.5168Z" stroke="var(--stroke-0, #007BFF)" stroke-linecap="round"/>
<path id="Vector_3" d="M4.5 5.16667C4.5 2.58934 6.58934 0.5 9.16667 0.5C11.744 0.5 13.8333 2.58934 13.8333 5.16667C13.8333 7.744 11.744 9.83333 9.16667 9.83333C6.58934 9.83333 4.5 7.744 4.5 5.16667Z" stroke="var(--stroke-0, #007BFF)" stroke-linejoin="round"/>
</g>
</svg>
