<svg preserveAspectRatio="none" width="100%" height="100%" overflow="visible" style="display: block;" viewBox="0 0 15.0002 12.6667" fill="none" xmlns="http://www.w3.org/2000/svg">
<g id="elements">
<path id="Vector" d="M11.9109 11.5H12.2377C13.0043 11.5 13.614 11.1507 14.1615 10.6624C15.5522 9.42172 12.2829 8.16667 11.1669 8.16667M9.83353 1.54585C9.98491 1.51582 10.1421 1.5 10.3034 1.5C11.5166 1.5 12.5002 2.39543 12.5002 3.5C12.5002 4.60457 11.5166 5.5 10.3034 5.5C10.1421 5.5 9.98491 5.48418 9.83353 5.45415" stroke="url(#paint0_linear_0_223)" stroke-linecap="round"/>
<g id="Vector_2">
<path d="M2.48774 8.90746C1.70175 9.32867 -0.359046 10.1887 0.896119 11.2649C1.50926 11.7907 2.19214 12.1667 3.05068 12.1667H7.94971C8.80826 12.1667 9.49114 11.7907 10.1043 11.2649C11.3594 10.1887 9.29864 9.32867 8.51265 8.90746C6.66954 7.91974 4.33086 7.91974 2.48774 8.90746Z" stroke="url(#paint1_linear_0_223)"/>
<path d="M8.16686 3.16667C8.16686 4.63943 6.97296 5.83333 5.5002 5.83333C4.02744 5.83333 2.83353 4.63943 2.83353 3.16667C2.83353 1.69391 4.02744 0.5 5.5002 0.5C6.97296 0.5 8.16686 1.69391 8.16686 3.16667Z" stroke="url(#paint2_linear_0_223)"/>
</g>
</g>
<defs>
<linearGradient id="paint0_linear_0_223" x1="9.83353" y1="6.5" x2="14.5002" y2="6.5" gradientUnits="userSpaceOnUse">
<stop stop-color="#007BFF"/>
<stop offset="0.177885" stop-color="#FF6B35"/>
<stop offset="0.721154" stop-color="#007BFF"/>
<stop offset="0.807692" stop-color="#007BFF"/>
<stop offset="0.923077" stop-color="#FF6B35"/>
<stop offset="1" stop-color="#007BFF"/>
</linearGradient>
<linearGradient id="paint1_linear_0_223" x1="0.500196" y1="6.33333" x2="10.5002" y2="6.33333" gradientUnits="userSpaceOnUse">
<stop stop-color="#007BFF"/>
<stop offset="0.177885" stop-color="#FF6B35"/>
<stop offset="0.721154" stop-color="#007BFF"/>
<stop offset="0.807692" stop-color="#007BFF"/>
<stop offset="0.923077" stop-color="#FF6B35"/>
<stop offset="1" stop-color="#007BFF"/>
</linearGradient>
<linearGradient id="paint2_linear_0_223" x1="0.500196" y1="6.33333" x2="10.5002" y2="6.33333" gradientUnits="userSpaceOnUse">
<stop stop-color="#007BFF"/>
<stop offset="0.177885" stop-color="#FF6B35"/>
<stop offset="0.721154" stop-color="#007BFF"/>
<stop offset="0.807692" stop-color="#007BFF"/>
<stop offset="0.923077" stop-color="#FF6B35"/>
<stop offset="1" stop-color="#007BFF"/>
</linearGradient>
</defs>
</svg>
