<svg preserveAspectRatio="none" width="100%" height="100%" overflow="visible" style="display: block;" viewBox="0 0 14.3327 14.3327" fill="none" xmlns="http://www.w3.org/2000/svg">
<g id="elements">
<path id="Vector" d="M7.71866 3.1673C7.79251 2.95861 7.83269 2.734 7.83269 2.5C7.83269 1.39543 6.93726 0.5 5.83269 0.5C4.72812 0.5 3.83269 1.39543 3.83269 2.5C3.83269 2.734 3.87288 2.9586 3.94672 3.1673C2.42354 3.17287 1.61067 3.22693 1.08515 3.75245C0.559674 4.27793 0.50557 5.09069 0.5 6.61358C0.708339 6.54002 0.932509 6.5 1.16603 6.5C2.2706 6.5 3.16603 7.39543 3.16603 8.5C3.16603 9.60457 2.2706 10.5 1.16603 10.5C0.932509 10.5 0.708339 10.46 0.5 10.3864C0.50557 11.9093 0.559674 12.7221 1.08515 13.2475C1.61062 13.773 2.42338 13.8271 3.94627 13.8327C3.87272 13.6244 3.83269 13.4002 3.83269 13.1667C3.83269 12.0621 4.72812 11.1667 5.83269 11.1667C6.93726 11.1667 7.83269 12.0621 7.83269 13.1667C7.83269 13.4002 7.79267 13.6244 7.71911 13.8327C9.242 13.8271 10.0548 13.773 10.5802 13.2475C11.1058 12.722 11.1598 11.9092 11.1654 10.386C11.3741 10.4598 11.5987 10.5 11.8327 10.5C12.9373 10.5 13.8327 9.60457 13.8327 8.5C13.8327 7.39543 12.9373 6.5 11.8327 6.5C11.5987 6.5 11.3741 6.54018 11.1654 6.61403C11.1598 5.09085 11.1058 4.27798 10.5802 3.75245C10.0547 3.22693 9.24185 3.17287 7.71866 3.1673Z" stroke="url(#paint0_linear_0_328)" stroke-linejoin="round"/>
</g>
<defs>
<linearGradient id="paint0_linear_0_328" x1="0.5" y1="7.16635" x2="13.8327" y2="7.16635" gradientUnits="userSpaceOnUse">
<stop stop-color="#007BFF"/>
<stop offset="0.177885" stop-color="#FF6B35"/>
<stop offset="0.721154" stop-color="#007BFF"/>
<stop offset="0.807692" stop-color="#007BFF"/>
<stop offset="0.923077" stop-color="#FF6B35"/>
<stop offset="1" stop-color="#007BFF"/>
</linearGradient>
</defs>
</svg>
