<svg preserveAspectRatio="none" width="100%" height="100%" overflow="visible" style="display: block;" viewBox="0 0 10.647 10.0301" fill="none" xmlns="http://www.w3.org/2000/svg">
<path id="Vector" fill-rule="evenodd" clip-rule="evenodd" d="M2.97171 0.705496C2.11487 1.15443 1.23801 1.95557 0.664021 2.9614C-0.513268 5.02483 -0.138098 7.87035 1.89358 9.27235C2.29269 9.54787 3.17541 9.90838 3.68443 9.95235C5.05028 10.0701 6.46645 10.0198 7.84158 10.0173C8.36135 10.0178 8.66813 9.93134 9.01887 9.80091C9.80585 9.50097 10.5264 8.56354 10.5787 7.62122C10.6065 7.12734 10.4023 6.5343 10.1077 6.1733C9.56404 5.50796 8.93925 5.51089 8.09805 5.50649L5.09864 5.50747C5.01267 5.50747 4.90324 5.50796 4.82899 5.47083C4.54419 5.32672 4.46066 5.00773 4.70979 4.71854C4.9306 4.46403 5.43278 4.52753 5.71562 4.52802L7.13863 4.52851L7.63836 3.64481L7.144 2.76697C6.73561 2.76893 6.29547 2.77674 5.79915 2.77674C5.13137 2.77674 4.69465 2.72936 4.06937 3.11625C2.81441 3.89297 2.41432 5.45178 3.2013 6.53528C3.70201 7.22406 4.56178 7.27878 5.38881 7.29538C7.03311 7.32811 6.38829 7.29099 8.04236 7.28855C8.38773 7.28806 8.68913 7.26412 8.76876 7.54306C8.80686 7.67593 8.77169 7.89917 8.69402 8.01153C8.64419 8.08822 8.56408 8.14196 8.47614 8.18104C8.36037 8.23233 8.2827 8.24064 8.13713 8.2421L5.33996 8.27092C4.79724 8.2763 4.33316 8.23526 3.79972 8.13414C2.74455 7.83615 1.94145 6.8401 1.83594 5.72583C1.76657 4.99356 1.86867 4.34776 2.20329 3.69855C2.4705 3.17976 3.02495 2.70689 3.45337 2.42063C3.92721 2.10408 4.58914 1.82856 5.26034 1.80169C5.78597 1.78997 7.9808 1.81244 9.73355 1.79779L8.75313 9.97037e-05C7.06828 -0.0013658 6.33016 0.0137781 5.68485 0.0157321C4.76353 0.0186631 3.83098 0.255098 2.97171 0.705496ZM7.55239 4.53095L8.14787 4.5334L8.65005 3.64481L8.15276 2.76111L7.55239 2.76502L8.04822 3.64481L7.55239 4.53095ZM8.56163 4.53535C8.7629 4.53584 8.96318 4.53633 9.15809 4.53633L9.66174 3.64481L9.162 2.75672C8.95927 2.7572 8.76045 2.75818 8.56066 2.75916L9.05942 3.6453L8.56163 4.53535ZM9.57234 4.53682C9.7741 4.53682 9.96656 4.53584 10.1444 4.53535L10.647 3.64481L10.1478 2.75818C9.94849 2.7572 9.757 2.75672 9.57039 2.75672L10.0711 3.6453L9.57234 4.53682Z" fill="var(--fill-0, #007BFF)"/>
</svg>
