<svg preserveAspectRatio="xMidYMid meet" width="100%" height="100%" overflow="visible" style="display: block;" viewBox="0 0 12.48 13.76" fill="none" xmlns="http://www.w3.org/2000/svg">
<g id="elements">
<path id="Vector" d="M4.02141 7.93782L5.28 9.03819V3.36041C5.28 2.82999 5.70999 2.4 6.24041 2.4C6.77051 2.4 7.20037 2.82949 7.20083 3.35959L7.2029 6.40835L8.89017 6.68182C9.97928 6.84748 10.5238 6.93031 10.9074 7.16333C11.541 7.54823 12 8.16 12 8.97008C12 9.55782 11.8567 9.95213 11.5085 11.0116C11.2875 11.6838 11.177 12.0199 10.9968 12.286C10.7002 12.7241 10.2626 13.0439 9.75897 13.1907C9.45306 13.2799 9.10367 13.2799 8.40488 13.2799H7.81252C6.88349 13.2799 6.41897 13.2799 6.00543 13.1071C5.93127 13.0761 5.85879 13.0411 5.7883 13.0023C5.39523 12.7858 5.10231 12.4202 4.51647 11.6891L2.6199 9.32209C2.32846 8.95836 2.32652 8.4378 2.61523 8.07184C2.96225 7.63198 3.59964 7.57123 4.02141 7.93782Z" stroke="var(--stroke-0, white)" stroke-width="0.96" stroke-linecap="round" stroke-linejoin="round"/>
<path id="Vector_2" d="M3.68 3.52C3.9451 3.52 4.16 3.3051 4.16 3.04C4.16 2.7749 3.9451 2.56 3.68 2.56V3.04V3.52ZM1.01019 3.68L0.698569 4.04509L0.698569 4.04509L1.01019 3.68ZM1.44838 4.68509C1.65001 4.85719 1.95299 4.83326 2.12509 4.63162C2.29719 4.42999 2.27326 4.12701 2.07162 3.95491L1.76 4.32L1.44838 4.68509ZM2.07162 2.12509C2.27326 1.95298 2.29719 1.65001 2.12509 1.44838C1.95299 1.24674 1.65001 1.2228 1.44838 1.39491L1.76 1.76L2.07162 2.12509ZM1.01019 2.4L0.698569 2.03491L0.698569 2.03491L1.01019 2.4ZM0.48 3.04V3.52H3.68V3.04V2.56H0.48V3.04ZM1.01019 3.68L0.698569 4.04509L1.44838 4.68509L1.76 4.32L2.07162 3.95491L1.32182 3.31491L1.01019 3.68ZM1.76 1.76L1.44838 1.39491L0.698569 2.03491L1.01019 2.4L1.32182 2.76509L2.07162 2.12509L1.76 1.76ZM1.01019 3.68L1.32182 3.31491C1.13433 3.15488 1.03197 3.06613 0.970417 2.99727C0.914971 2.93524 0.96 2.96153 0.96 3.04H0.48H0C0 3.30592 0.133395 3.50136 0.25468 3.63705C0.369855 3.7659 0.532596 3.90342 0.698569 4.04509L1.01019 3.68ZM1.01019 2.4L0.698569 2.03491C0.532595 2.17658 0.369855 2.3141 0.25468 2.44295C0.133395 2.57864 0 2.77408 0 3.04H0.48H0.96C0.96 3.11847 0.914971 3.14476 0.970417 3.08273C1.03197 3.01387 1.13433 2.92512 1.32182 2.76509L1.01019 2.4Z" fill="var(--stroke-0, white)"/>
<path id="Vector_3" d="M7.48032 5.28C8.26734 4.84329 8.8 4.00385 8.8 3.04C8.8 1.62615 7.65385 0.48 6.24 0.48C4.82615 0.48 3.68 1.62615 3.68 3.04C3.68 4.00385 4.21266 4.84329 4.99968 5.28" stroke="var(--stroke-0, white)" stroke-width="0.96" stroke-linecap="round"/>
</g>
</svg>
