<svg preserveAspectRatio="xMidYMid meet" width="100%" height="100%" overflow="visible" style="display: block;" viewBox="0 0 18.1667 16.5" fill="none" xmlns="http://www.w3.org/2000/svg">
<g id="elements">
<path id="Vector" d="M0.750007 4.91667C0.750007 4.91667 4.48097 0.75 9.08334 0.75C13.6857 0.75 17.4167 4.91667 17.4167 4.91667" stroke="var(--stroke-0, white)" stroke-width="1.5" stroke-linecap="round"/>
<path id="Vector_2" d="M17.0366 9.12082C17.29 9.47609 17.4167 9.65372 17.4167 9.91667C17.4167 10.1796 17.29 10.3572 17.0366 10.7125C15.8983 12.3088 12.991 15.75 9.08334 15.75C5.17566 15.75 2.26842 12.3088 1.13004 10.7125C0.876684 10.3572 0.750006 10.1796 0.750006 9.91667C0.750006 9.65372 0.876684 9.47609 1.13004 9.12082C2.26842 7.52453 5.17565 4.08333 9.08334 4.08333C12.991 4.08333 15.8983 7.52453 17.0366 9.12082Z" stroke="var(--stroke-0, white)" stroke-width="1.5"/>
<path id="Vector_3" d="M11.5833 9.91667C11.5833 8.53596 10.4641 7.41667 9.08334 7.41667C7.70263 7.41667 6.58334 8.53596 6.58334 9.91667C6.58334 11.2974 7.70263 12.4167 9.08334 12.4167C10.4641 12.4167 11.5833 11.2974 11.5833 9.91667Z" stroke="var(--stroke-0, white)" stroke-width="1.5"/>
</g>
</svg>
