<svg preserveAspectRatio="none" width="100%" height="100%" overflow="visible" style="display: block;" viewBox="0 0 70.1546 37.0426" fill="none" xmlns="http://www.w3.org/2000/svg">
<g id="Award 4" filter="url(#filter0_d_0_4)">
<g id="Group 1">
<path id="Rectangle 36" d="M15.0213 6.05149L15.0213 19.4952L2.97329 19.4952L6.50913 12.7733L0.315161 6.05149L15.0213 6.05149Z" fill="var(--fill-0, #983333)"/>
<path id="Rectangle 37" d="M50.721 6.05149L50.721 19.4952L62.769 19.4952L59.2332 12.7733L65.4272 6.05149L50.721 6.05149Z" fill="var(--fill-0, #983333)"/>
<path id="Rectangle 34" d="M11.5264 8.58161L15.0185 6.05149V22.6379H11.5264V8.58161Z" fill="var(--fill-0, #552727)"/>
<path id="Rectangle 38" d="M54.2108 8.58161L50.7186 6.05149V22.6379H54.2108V8.58161Z" fill="var(--fill-0, #552727)"/>
<path id="Rectangle 25" d="M19.532 8.57037L19.532 23.9419L11.1235 23.9419C11.1235 23.9419 10.0717 23.9419 10.0717 16.2561C10.0717 8.57037 11.1235 8.57037 11.1235 8.57037L19.532 8.57037Z" fill="var(--fill-0, #CE4444)"/>
<path id="Rectangle 26" d="M47.0281 8.57037L47.0281 23.9419L54.9111 23.9419C54.9111 23.9419 55.8971 23.9419 55.8971 16.2561C55.8971 8.57037 54.9111 8.57037 54.9111 8.57037L47.0281 8.57037Z" fill="var(--fill-0, #CE4444)"/>
</g>
<ellipse id="Ellipse 1" cx="32.9239" cy="16.3152" rx="16.0014" ry="16" fill="url(#paint0_linear_0_4)"/>
<ellipse id="Ellipse 2" cx="32.867" cy="16.3534" rx="12.7465" ry="12.7453" fill="url(#paint1_linear_0_4)"/>
<g id="Mask Group">
<mask id="mask0_0_4" style="mask-type:alpha" maskUnits="userSpaceOnUse" x="22" y="6" width="23" height="23">
<ellipse id="Ellipse 4" cx="33.4368" cy="17.4654" rx="10.9451" ry="10.9441" fill="var(--fill-0, #7D7D7D)"/>
</mask>
<g mask="url(#mask0_0_4)">
<ellipse id="Ellipse 3" cx="32.8532" cy="16.3001" rx="10.9451" ry="10.9441" fill="var(--fill-0, #9CA1A3)"/>
</g>
</g>
<path id="Ellipse 3_2" d="M32.866 3.99875C39.6822 3.99877 45.2215 9.48413 45.2215 16.2663C45.2213 23.0483 39.6821 28.5329 32.866 28.5329C26.05 28.5329 20.5108 23.0483 20.5106 16.2663C20.5106 9.48412 26.0499 3.99875 32.866 3.99875Z" fill="var(--fill-0, #644314)" stroke="var(--stroke-0, #FBBF4C)" stroke-width="2.01125"/>
<g id="Mask Group_2">
<mask id="mask1_0_4" style="mask-type:alpha" maskUnits="userSpaceOnUse" x="22" y="6" width="23" height="23">
<ellipse id="Ellipse 4_2" cx="33.4886" cy="17.3965" rx="11.3539" ry="11.3528" fill="var(--fill-0, #C28B37)"/>
</mask>
<g mask="url(#mask1_0_4)">
<ellipse id="Ellipse 3_3" cx="32.8844" cy="16.1869" rx="11.3539" ry="11.3528" fill="url(#paint2_linear_0_4)"/>
</g>
</g>
<g id="Vector">
<path d="M33.0796 7.93756L35.6406 13.059L40.7624 13.6991L37.2454 17.6426L38.2015 23.3018L33.0796 20.7411L27.9578 23.3018L28.9224 17.6426L25.3968 13.6991L30.5187 13.059L33.0796 7.93756Z" fill="url(#paint3_linear_0_4)"/>
<path d="M33.4398 7.75787L35.9037 12.6866L40.8119 13.2999L41.5726 13.3946L41.0629 13.9669L37.6732 17.7657L38.598 23.2344L38.7298 24.0157L38.0218 23.6612L33.0795 21.1895L28.138 23.6612L27.4281 24.0167L27.5609 23.2344L28.4925 17.7657L25.097 13.9669L24.5853 13.3956L25.347 13.2999L30.2543 12.6866L32.7201 7.75787L33.0795 7.03814L33.4398 7.75787Z" stroke="var(--stroke-0, #353535)" stroke-opacity="0.2" stroke-width="0.804498"/>
</g>
</g>
<defs>
<filter id="filter0_d_0_4" x="5.58794e-09" y="0" width="70.1546" height="37.0426" filterUnits="userSpaceOnUse" color-interpolation-filters="sRGB">
<feFlood flood-opacity="0" result="BackgroundImageFix"/>
<feColorMatrix in="SourceAlpha" type="matrix" values="0 0 0 0 0 0 0 0 0 0 0 0 0 0 0 0 0 0 127 0" result="hardAlpha"/>
<feOffset dx="2.20613" dy="2.20613"/>
<feGaussianBlur stdDeviation="1.26065"/>
<feComposite in2="hardAlpha" operator="out"/>
<feColorMatrix type="matrix" values="0 0 0 0 0 0 0 0 0 0 0 0 0 0 0 0 0 0 0.3 0"/>
<feBlend mode="normal" in2="BackgroundImageFix" result="effect1_dropShadow_0_4"/>
<feBlend mode="normal" in="SourceGraphic" in2="effect1_dropShadow_0_4" result="shape"/>
</filter>
<linearGradient id="paint0_linear_0_4" x1="32.9239" y1="0.315161" x2="32.9239" y2="32.3152" gradientUnits="userSpaceOnUse">
<stop stop-color="#E0C04F"/>
<stop offset="1" stop-color="#B16F07"/>
</linearGradient>
<linearGradient id="paint1_linear_0_4" x1="32.867" y1="3.60813" x2="32.867" y2="29.0988" gradientUnits="userSpaceOnUse">
<stop stop-color="#898989"/>
<stop offset="1" stop-color="#5F5F5F"/>
</linearGradient>
<linearGradient id="paint2_linear_0_4" x1="32.8844" y1="4.83404" x2="32.8844" y2="27.5397" gradientUnits="userSpaceOnUse">
<stop stop-color="#A36D1D"/>
<stop offset="1" stop-color="#744A0C"/>
</linearGradient>
<linearGradient id="paint3_linear_0_4" x1="33.0796" y1="12.8746" x2="33.0796" y2="22.6479" gradientUnits="userSpaceOnUse">
<stop stop-color="white"/>
<stop offset="1" stop-color="#FFEE92"/>
</linearGradient>
</defs>
</svg>
