<svg preserveAspectRatio="none" width="100%" height="100%" overflow="visible" style="display: block;" viewBox="0 0 11.6667 14.3334" fill="none" xmlns="http://www.w3.org/2000/svg">
<g id="elements">
<path id="Vector" d="M1.2619 8.5C0.778232 7.70544 0.5 6.7745 0.5 5.77924C0.5 2.8636 2.88781 0.5 5.83333 0.5C8.77885 0.5 11.1667 2.8636 11.1667 5.77924C11.1667 6.7745 10.8884 7.70544 10.4048 8.5" stroke="var(--stroke-0, #22C55E)" stroke-linecap="round"/>
<path id="Vector_2" d="M7.16667 5.83333C6.75836 6.26213 6.3074 6.5 5.83333 6.5C5.35926 6.5 4.90831 6.26213 4.5 5.83333" stroke="var(--stroke-0, #22C55E)" stroke-linecap="round"/>
<path id="Vector_3" d="M2.75525 10.5655C2.694 10.3811 2.66338 10.2889 2.66695 10.2142C2.67449 10.0562 2.77409 9.9175 2.92105 9.86035C2.99053 9.83333 3.08737 9.83333 3.28105 9.83333H8.38562C8.5793 9.83333 8.67614 9.83333 8.74562 9.86035C8.89257 9.9175 8.99217 10.0562 8.99972 10.2142C9.00329 10.2889 8.97266 10.3811 8.91142 10.5655C8.79823 10.9063 8.74163 11.0767 8.65434 11.2147C8.47146 11.5038 8.18478 11.7111 7.85371 11.7939C7.69567 11.8333 7.5167 11.8333 7.15876 11.8333H4.50791C4.14997 11.8333 3.971 11.8333 3.81296 11.7939C3.48189 11.7111 3.19521 11.5038 3.01233 11.2147C2.92504 11.0767 2.86844 10.9063 2.75525 10.5655Z" stroke="var(--stroke-0, #22C55E)"/>
<path id="Vector_4" d="M7.83333 11.8333L7.74712 12.2644C7.65285 12.7358 7.60571 12.9715 7.50008 13.1577C7.33677 13.4457 7.07216 13.6626 6.75774 13.7663C6.55439 13.8333 6.31404 13.8333 5.83333 13.8333C5.35263 13.8333 5.11228 13.8333 4.90892 13.7663C4.5945 13.6626 4.32989 13.4457 4.16658 13.1577C4.06096 12.9715 4.01382 12.7358 3.91955 12.2644L3.83333 11.8333" stroke="var(--stroke-0, #22C55E)"/>
<path id="Vector_5" d="M5.83333 9.5V6.5" stroke="var(--stroke-0, #22C55E)" stroke-linecap="round" stroke-linejoin="round"/>
</g>
</svg>
