<svg preserveAspectRatio="none" width="100%" height="100%" overflow="visible" style="display: block;" viewBox="0 0 17.2 17.2" fill="none" xmlns="http://www.w3.org/2000/svg">
<g id="elements">
<path id="Vector" d="M11 0.6L11.431 2.51326C11.7966 4.13612 13.0639 5.40345 14.6867 5.76902L16.6 6.2L14.6867 6.63098C13.0639 6.99655 11.7966 8.26388 11.431 9.88674L11 11.8L10.569 9.88674C10.2034 8.26388 8.93612 6.99655 7.31326 6.63098L5.4 6.2L7.31326 5.76902C8.93612 5.40345 10.2034 4.13612 10.569 2.51326L11 0.6Z" stroke="var(--stroke-0, #007BFF)" stroke-width="1.2" stroke-linejoin="round"/>
<path id="Vector_2" d="M4.6 8.6L4.90785 9.96661C5.16897 11.1258 6.0742 12.031 7.23338 12.2922L8.6 12.6L7.23338 12.9078C6.0742 13.169 5.16897 14.0742 4.90785 15.2334L4.6 16.6L4.29215 15.2334C4.03103 14.0742 3.1258 13.169 1.96662 12.9078L0.6 12.6L1.96661 12.2922C3.1258 12.031 4.03103 11.1258 4.29215 9.96662L4.6 8.6Z" stroke="var(--stroke-0, #007BFF)" stroke-width="1.2" stroke-linejoin="round"/>
</g>
</svg>
