<svg preserveAspectRatio="none" width="100%" height="100%" overflow="visible" style="display: block;" viewBox="0 0 17.2 10.8001" fill="none" xmlns="http://www.w3.org/2000/svg">
<g id="elements">
<path id="Vector" d="M5.4 0.600063C3.13726 0.600063 2.00589 0.600063 1.30294 1.30301C0.600001 2.00595 0.600001 3.13732 0.600001 5.40006C0.600001 7.6628 0.600001 8.79417 1.30294 9.49712C1.75839 9.95256 2.39368 10.1129 3.4 10.1694M8.6 10.1862L9.4 10.2001C11.6627 10.2001 12.7941 10.2001 13.4971 9.49712C14.2 8.79417 14.2 7.6628 14.2 5.40006C14.2 3.13732 14.2 2.00595 13.4971 1.30301C12.9312 0.737155 12.0877 0.626799 10.6 0.605277" stroke="var(--stroke-0, #007BFF)" stroke-width="1.2" stroke-linecap="round"/>
<path id="Vector_2" d="M8.24985 0.600063L5.87335 4.14939C5.50533 4.69904 5.32132 4.97387 5.43191 5.18697C5.54251 5.40006 5.86916 5.40006 6.52245 5.40006H7.47755C8.13084 5.40006 8.45749 5.40006 8.56809 5.61316C8.67869 5.82625 8.49467 6.10108 8.12665 6.65073L5.75015 10.2001" stroke="var(--stroke-0, #007BFF)" stroke-width="1.2" stroke-linecap="round"/>
<path id="Vector_3" d="M14.2 3.40006L15.0218 3.53702C15.5668 3.62786 15.8393 3.67328 16.0461 3.80538C16.2495 3.93533 16.4089 4.12359 16.5037 4.34558C16.6 4.57125 16.6 4.84752 16.6 5.40006C16.6 5.9526 16.6 6.22888 16.5037 6.45455C16.4089 6.67654 16.2495 6.86479 16.0461 6.99474C15.8393 7.12684 15.5668 7.17226 15.0218 7.2631L14.2 7.40006" stroke="var(--stroke-0, #007BFF)" stroke-width="1.2" stroke-linecap="round"/>
</g>
</svg>
