<svg preserveAspectRatio="none" width="100%" height="100%" overflow="visible" style="display: block;" viewBox="0 0 17.2 17.2" fill="none" xmlns="http://www.w3.org/2000/svg">
<g id="elements">
<path id="Vector" d="M0.6 11.8C0.6 9.92889 0.6 8.99334 1.02917 8.31031C1.25297 7.95414 1.55414 7.65297 1.91031 7.42917C2.59333 7 3.52889 7 5.4 7H11.8C13.6711 7 14.6067 7 15.2897 7.42917C15.6459 7.65297 15.947 7.95414 16.1708 8.31031C16.6 8.99334 16.6 9.92889 16.6 11.8C16.6 13.6711 16.6 14.6067 16.1708 15.2897C15.947 15.6459 15.6459 15.947 15.2897 16.1708C14.6067 16.6 13.6711 16.6 11.8 16.6H5.4C3.52889 16.6 2.59333 16.6 1.91031 16.1708C1.55414 15.947 1.25297 15.6459 1.02917 15.2897C0.6 14.6067 0.6 13.6711 0.6 11.8Z" stroke="var(--stroke-0, #007BFF)" stroke-width="1.2" stroke-linecap="round" stroke-linejoin="round"/>
<path id="Vector_2" d="M15 7C15 5.8799 15 5.31984 14.782 4.89202C14.5903 4.5157 14.2843 4.20974 13.908 4.01799C13.4802 3.8 12.9201 3.8 11.8 3.8H5.4C4.2799 3.8 3.71984 3.8 3.29202 4.01799C2.91569 4.20974 2.60973 4.5157 2.41799 4.89202C2.2 5.31984 2.2 5.8799 2.2 7" stroke="var(--stroke-0, #007BFF)" stroke-width="1.2" stroke-linecap="round" stroke-linejoin="round"/>
<path id="Vector_3" d="M13.4 3.8C13.4 2.29151 13.4 1.53726 12.9314 1.06863C12.4627 0.600002 11.7085 0.600002 10.2 0.600002H7C5.49151 0.600002 4.73726 0.600002 4.26863 1.06863C3.8 1.53726 3.8 2.29151 3.8 3.8" stroke="var(--stroke-0, #007BFF)" stroke-width="1.2" stroke-linecap="round" stroke-linejoin="round"/>
<path id="Vector_4" d="M11 10.2C11 11.0837 10.2837 11.8 9.4 11.8H7.8C6.91634 11.8 6.2 11.0837 6.2 10.2" stroke="var(--stroke-0, #007BFF)" stroke-width="1.2" stroke-linecap="round"/>
</g>
</svg>
