<svg preserveAspectRatio="none" width="100%" height="100%" overflow="visible" style="display: block;" viewBox="0 0 17.2002 15.6" fill="none" xmlns="http://www.w3.org/2000/svg">
<g id="elements">
<path id="Vector" d="M3.14421 10.4371C2.13815 11.0268 -0.499676 12.2309 1.10693 13.7376C1.89175 14.4736 2.76584 15 3.86477 15H10.1355C11.2345 15 12.1086 14.4736 12.8934 13.7376C14.5 12.2309 11.8622 11.0268 10.8561 10.4371C8.49691 9.0543 5.5034 9.0543 3.14421 10.4371Z" stroke="var(--stroke-0, #007BFF)" stroke-width="1.2" stroke-linecap="round" stroke-linejoin="round"/>
<path id="Vector_2" d="M10.2002 3.8C10.2002 5.56731 8.76746 7 7.00015 7C5.23284 7 3.80015 5.56731 3.80015 3.8C3.80015 2.03269 5.23284 0.6 7.00015 0.6C8.76746 0.6 10.2002 2.03269 10.2002 3.8Z" stroke="var(--stroke-0, #007BFF)" stroke-width="1.2"/>
<path id="Vector_3" d="M14.6002 1.4V5.4M16.6002 3.4L12.6002 3.4" stroke="var(--stroke-0, #007BFF)" stroke-width="1.2" stroke-linecap="round" stroke-linejoin="round"/>
</g>
</svg>
