<svg preserveAspectRatio="none" width="100%" height="100%" overflow="visible" style="display: block;" viewBox="0 0 17.2 17.2" fill="none" xmlns="http://www.w3.org/2000/svg">
<g id="elements">
<path id="Vector" d="M14.2 8.60001C14.2 7.93726 14.7373 7.40001 15.4 7.40001C16.0627 7.40001 16.6 7.93726 16.6 8.60001C16.6 9.26275 16.0627 9.80001 15.4 9.80001C14.7373 9.80001 14.2 9.26275 14.2 8.60001Z" stroke="var(--stroke-0, #007BFF)" stroke-width="1.2"/>
<path id="Vector_2" d="M0.6 8.60001C0.6 7.93726 1.13726 7.40001 1.8 7.40001C2.46274 7.40001 3 7.93726 3 8.60001C3 9.26275 2.46274 9.80001 1.8 9.80001C1.13726 9.80001 0.6 9.26275 0.6 8.60001Z" stroke="var(--stroke-0, #007BFF)" stroke-width="1.2"/>
<path id="Vector_3" d="M9.96568 7.23432C9.73137 7.00001 9.35425 7.00001 8.6 7.00001C7.84575 7.00001 7.46863 7.00001 7.23431 7.23432M9.96568 7.23432C10.2 7.46863 10.2 7.84576 10.2 8.60001C10.2 9.35425 10.2 9.73138 9.96568 9.96569M9.96568 7.23432C9.96568 7.23432 9.96568 7.23432 9.96568 7.23432ZM7.23431 7.23432C7 7.46863 7 7.84576 7 8.6C7 9.35425 7 9.73138 7.23431 9.96569M7.23431 7.23432C7.23431 7.23432 7.23431 7.23432 7.23431 7.23432ZM7.23431 9.96569C7.23431 9.96569 7.23431 9.96569 7.23431 9.96569C7.46863 10.2 7.84575 10.2 8.6 10.2C9.35425 10.2 9.73137 10.2 9.96568 9.96569M9.96568 9.96569C9.96568 9.96569 9.96568 9.96569 9.96568 9.96569Z" stroke="var(--stroke-0, #007BFF)" stroke-width="1.2" stroke-linecap="round" stroke-linejoin="round"/>
<path id="Vector_4" d="M15.5657 0.83432C15.3314 0.600006 14.9542 0.600006 14.2 0.600006C13.4458 0.600006 13.0686 0.600006 12.8343 0.83432M15.5657 0.83432C15.8 1.06863 15.8 1.44576 15.8 2.20001C15.8 2.95425 15.8 3.33138 15.5657 3.56569M15.5657 0.83432C15.5657 0.83432 15.5657 0.83432 15.5657 0.83432ZM12.8343 0.83432C12.6 1.06863 12.6 1.44576 12.6 2.20001C12.6 2.95425 12.6 3.33138 12.8343 3.56569M12.8343 0.83432C12.8343 0.83432 12.8343 0.83432 12.8343 0.83432ZM12.8343 3.56569C12.8343 3.56569 12.8343 3.56569 12.8343 3.56569C13.0686 3.8 13.4458 3.80001 14.2 3.80001C14.9542 3.80001 15.3314 3.80001 15.5657 3.56569M15.5657 3.56569C15.5657 3.56569 15.5657 3.56569 15.5657 3.56569Z" stroke="var(--stroke-0, #007BFF)" stroke-width="1.2" stroke-linecap="round" stroke-linejoin="round"/>
<path id="Vector_5" d="M4.36569 13.6343C4.13137 13.4 3.75425 13.4 3 13.4C2.24575 13.4 1.86863 13.4 1.63431 13.6343M4.36569 13.6343C4.6 13.8686 4.6 14.2458 4.6 15C4.6 15.7543 4.6 16.1314 4.36568 16.3657M4.36569 13.6343C4.36569 13.6343 4.36569 13.6343 4.36569 13.6343ZM1.63431 13.6343C1.4 13.8686 1.4 14.2458 1.4 15C1.4 15.7543 1.4 16.1314 1.63431 16.3657M1.63431 13.6343C1.63431 13.6343 1.63431 13.6343 1.63431 13.6343ZM1.63431 16.3657C1.63431 16.3657 1.63431 16.3657 1.63431 16.3657C1.86863 16.6 2.24575 16.6 3 16.6C3.75425 16.6 4.13137 16.6 4.36568 16.3657M4.36568 16.3657C4.36568 16.3657 4.36568 16.3657 4.36568 16.3657Z" stroke="var(--stroke-0, #007BFF)" stroke-width="1.2" stroke-linecap="round" stroke-linejoin="round"/>
<path id="Vector_6" d="M3 8.60001H7" stroke="var(--stroke-0, #007BFF)" stroke-width="1.2" stroke-linecap="round" stroke-linejoin="round"/>
<path id="Vector_7" d="M10.2 8.60001H14.2" stroke="var(--stroke-0, #007BFF)" stroke-width="1.2" stroke-linecap="round" stroke-linejoin="round"/>
<path id="Vector_8" d="M8.6 7.00001C8.6 5.40001 9.26667 2.20001 12.6 2.20001" stroke="var(--stroke-0, #007BFF)" stroke-width="1.2" stroke-linecap="round" stroke-linejoin="round"/>
<path id="Vector_9" d="M8.6 10.2C8.6 11.8 7.93333 15 4.6 15" stroke="var(--stroke-0, #007BFF)" stroke-width="1.2" stroke-linecap="round" stroke-linejoin="round"/>
</g>
</svg>
