<svg preserveAspectRatio="none" width="100%" height="100%" overflow="visible" style="display: block;" viewBox="0 0 17.2 17.2001" fill="none" xmlns="http://www.w3.org/2000/svg">
<g id="elements">
<path id="Vector" d="M4.6 2.60008C3.27452 2.60008 2.2 3.67459 2.2 5.00008C2.2 5.455 2.32658 5.88037 2.54643 6.24287C1.43781 6.45492 0.6 7.42966 0.6 8.60008C0.6 9.77049 1.43781 10.7452 2.54643 10.9573M4.6 2.60008C4.6 1.49551 5.49543 0.600076 6.6 0.600076C7.70457 0.600076 8.6 1.49551 8.6 2.60008V14.6001C8.6 15.7046 7.70457 16.6001 6.6 16.6001C5.49543 16.6001 4.6 15.7046 4.6 14.6001C3.27452 14.6001 2.2 13.5256 2.2 12.2001C2.2 11.7451 2.32658 11.3198 2.54643 10.9573M4.6 2.60008C4.6 3.2544 4.91422 3.83534 5.4 4.20022M2.54643 10.9573C2.83159 10.4871 3.27366 10.1227 3.8 9.93664" stroke="var(--stroke-0, #007BFF)" stroke-width="1.2" stroke-linecap="round" stroke-linejoin="round"/>
<path id="Vector_2" d="M12.6 14.6C13.9255 14.6 15 13.5255 15 12.2C15 11.7451 14.8734 11.3197 14.6536 10.9572C15.7622 10.7452 16.6 9.77042 16.6 8.6C16.6 7.42958 15.7622 6.45484 14.6536 6.2428M12.6 14.6C12.6 15.7046 11.7046 16.6 10.6 16.6C9.49543 16.6 8.6 15.7046 8.6 14.6L8.6 2.6C8.6 1.49543 9.49543 0.6 10.6 0.6C11.7046 0.6 12.6 1.49543 12.6 2.6C13.9255 2.6 15 3.67452 15 5C15 5.45493 14.8734 5.88029 14.6536 6.2428M12.6 14.6C12.6 13.9457 12.2858 13.3647 11.8 12.9999M14.6536 6.2428C14.3684 6.71297 13.9263 7.0774 13.4 7.26344" stroke="var(--stroke-0, #007BFF)" stroke-width="1.2" stroke-linecap="round" stroke-linejoin="round"/>
</g>
</svg>
