<svg preserveAspectRatio="none" width="100%" height="100%" overflow="visible" style="display: block;" viewBox="0 0 16.4002 16.4" fill="none" xmlns="http://www.w3.org/2000/svg">
<g id="elements">
<path id="Vector" d="M15.7581 5.16C15.8 6.00011 15.8 6.99949 15.8 8.2C15.8 11.7827 15.8 13.574 14.687 14.687C13.574 15.8 11.7827 15.8 8.2 15.8C4.61733 15.8 2.82599 15.8 1.71299 14.687C0.6 13.574 0.6 11.7827 0.6 8.2C0.6 4.61733 0.6 2.82599 1.71299 1.71299C2.82599 0.6 4.61733 0.6 8.2 0.6C9.05754 0.6 9.81245 0.6 10.48 0.615263" stroke="var(--stroke-0, #007BFF)" stroke-width="1.2" stroke-linecap="round"/>
<path id="Vector_2" d="M5 7.8C5 7.8 6.2 7.8 7.8 10.6C7.8 10.6 11.8471 3.26667 15.8 1.8" stroke="var(--stroke-0, #007BFF)" stroke-width="1.2" stroke-linecap="round" stroke-linejoin="round"/>
</g>
</svg>
