<svg preserveAspectRatio="none" width="100%" height="100%" overflow="visible" style="display: block;" viewBox="0 0 14.0002 17.2" fill="none" xmlns="http://www.w3.org/2000/svg">
<g id="elements">
<path id="Vector" d="M5.42348 9.91009C5.99833 9.57003 6.28576 9.4 6.6001 9.4C6.91444 9.4 7.20187 9.57003 7.77673 9.91009L8.57673 10.3833C9.17345 10.7363 9.4718 10.9128 9.63595 11.208C9.8001 11.5032 9.8001 11.8632 9.8001 12.5832V13.4168C9.8001 14.1368 9.8001 14.4968 9.63595 14.792C9.4718 15.0872 9.17345 15.2637 8.57673 15.6167L7.77673 16.0899C7.20187 16.43 6.91444 16.6 6.6001 16.6C6.28576 16.6 5.99833 16.43 5.42348 16.0899L4.62348 15.6167C4.02676 15.2637 3.7284 15.0872 3.56425 14.792C3.4001 14.4968 3.4001 14.1368 3.4001 13.4168V12.5832C3.4001 11.8632 3.4001 11.5032 3.56425 11.208C3.7284 10.9128 4.02676 10.7363 4.62348 10.3833L5.42348 9.91009Z" stroke="var(--stroke-0, #007BFF)" stroke-width="1.2" stroke-linejoin="round"/>
<path id="Vector_2" d="M11.2072 0.609332H2.79303C2.14525 0.609332 1.28772 0.483393 0.844708 1.15681C0.600103 1.52864 0.600103 2.06668 0.600103 3.14275C0.600103 4.06019 0.600103 4.51891 0.765036 4.90539C1.04673 5.56547 1.67656 5.85221 2.2164 6.16403L4.85348 7.6873C5.90685 8.29577 6.43354 8.6 7.0001 8.6C7.56667 8.6 8.09335 8.29577 9.14673 7.6873L11.7838 6.16403C12.3236 5.8522 12.9535 5.56547 13.2352 4.90539C13.4001 4.51891 13.4001 4.06019 13.4001 3.14275C13.4001 2.06668 13.4001 1.52864 13.1555 1.15681C12.7125 0.483393 11.855 0.609332 11.2072 0.609332Z" stroke="var(--stroke-0, #007BFF)" stroke-width="1.2"/>
<path id="Vector_3" d="M6.6001 0.6V4.6" stroke="var(--stroke-0, #007BFF)" stroke-width="1.2" stroke-linecap="round"/>
</g>
</svg>
