<svg preserveAspectRatio="none" width="100%" height="100%" overflow="visible" style="display: block;" viewBox="0 0 17.2 16.4" fill="none" xmlns="http://www.w3.org/2000/svg">
<g id="elements">
<path id="Vector" d="M3.25737 6.34634C5.18831 2.92959 6.15378 1.22121 7.47861 0.781448C8.20745 0.539517 8.99255 0.539517 9.72139 0.781448C11.0462 1.22121 12.0117 2.92959 13.9426 6.34634C15.8736 9.76309 16.839 11.4715 16.5494 12.8635C16.3901 13.6293 15.9975 14.3239 15.428 14.8478C14.3928 15.8 12.4619 15.8 8.6 15.8C4.73812 15.8 2.80718 15.8 1.77197 14.8478C1.20247 14.3239 0.809916 13.6293 0.650582 12.8635C0.360959 11.4715 1.32643 9.76309 3.25737 6.34634Z" stroke="var(--stroke-0, #007BFF)" stroke-width="1.2"/>
<path id="Vector_2" d="M8.5936 11.4H8.60078" stroke="var(--stroke-0, #007BFF)" stroke-width="1.6" stroke-linecap="round" stroke-linejoin="round"/>
<path id="Vector_3" d="M8.6 9L8.6 5.8" stroke="var(--stroke-0, #007BFF)" stroke-width="1.2" stroke-linecap="round" stroke-linejoin="round"/>
</g>
</svg>
