<svg preserveAspectRatio="none" width="100%" height="100%" overflow="visible" style="display: block;" viewBox="0 0 17.2001 17.2001" fill="none" xmlns="http://www.w3.org/2000/svg">
<g id="elements">
<path id="Vector" d="M12.6 8.60007C12.6 10.8092 10.8091 12.6001 8.6 12.6001C6.39086 12.6001 4.6 10.8092 4.6 8.60007C4.6 6.39094 6.39086 4.60007 8.6 4.60007" stroke="var(--stroke-0, #007BFF)" stroke-width="1.2" stroke-linecap="round"/>
<path id="Vector_2" d="M10.2 0.760104C9.68302 0.655163 9.14794 0.600075 8.6 0.600075C4.18172 0.600075 0.6 4.1818 0.6 8.60007C0.6 13.0184 4.18172 16.6001 8.6 16.6001C13.0183 16.6001 16.6 13.0184 16.6 8.60007C16.6 8.05213 16.5449 7.51705 16.44 7.00007" stroke="var(--stroke-0, #007BFF)" stroke-width="1.2" stroke-linecap="round"/>
<path id="Vector_3" d="M8.17574 8.17581C7.94142 8.41012 7.94142 8.79002 8.17574 9.02434C8.41005 9.25865 8.78995 9.25865 9.02426 9.02434L8.6 8.60007L8.17574 8.17581ZM14.7527 2.44737L14.1721 2.59885C14.227 2.80899 14.3911 2.9731 14.6012 3.02793L14.7527 2.44737ZM14.3396 0.864131L13.7591 1.01561V1.01561L14.3396 0.864131ZM13.6384 0.752122L14.0627 1.17639V1.17639L13.6384 0.752122ZM12.7189 1.67163L12.2947 1.24737V1.24737L12.7189 1.67163ZM12.0225 3.92111L11.4419 4.07258V4.07258L12.0225 3.92111ZM16.3359 2.86046L16.1845 3.44102V3.44102L16.3359 2.86046ZM16.448 3.56164L16.0237 3.13738L16.0237 3.13738L16.448 3.56164ZM15.5284 4.48115L15.9527 4.90541V4.90541L15.5284 4.48115ZM13.279 5.17756L13.1275 5.75813V5.75813L13.279 5.17756ZM12.2825 4.91757L11.8582 4.49331L8.17574 8.17581L8.6 8.60007L9.02426 9.02434L12.7068 5.34184L12.2825 4.91757ZM14.7527 2.44737L15.3333 2.29589L14.9202 0.712653L14.3396 0.864131L13.7591 1.01561L14.1721 2.59885L14.7527 2.44737ZM13.6384 0.752122L13.2142 0.327858L12.2947 1.24737L12.7189 1.67163L13.1432 2.09589L14.0627 1.17639L13.6384 0.752122ZM12.0225 3.92111L11.4419 4.07258L11.7019 5.06905L12.2825 4.91757L12.8631 4.76609L12.6031 3.76963L12.0225 3.92111ZM14.7527 2.44737L14.6012 3.02793L16.1845 3.44102L16.3359 2.86046L16.4874 2.27989L14.9042 1.8668L14.7527 2.44737ZM16.448 3.56164L16.0237 3.13738L15.1042 4.05689L15.5284 4.48115L15.9527 4.90541L16.8722 3.98591L16.448 3.56164ZM13.279 5.17756L13.4304 4.597L12.434 4.33701L12.2825 4.91757L12.131 5.49814L13.1275 5.75813L13.279 5.17756ZM15.5284 4.48115L15.1042 4.05689C14.6074 4.55368 13.9489 4.73226 13.4304 4.597L13.279 5.17756L13.1275 5.75813C14.1188 6.01677 15.202 5.65615 15.9527 4.90541L15.5284 4.48115ZM16.3359 2.86046L16.1845 3.44102C16.1435 3.43033 16.0968 3.40424 16.0594 3.36108C16.0238 3.31998 16.0078 3.27653 16.0024 3.24287C15.9918 3.17632 16.0187 3.14241 16.0237 3.13738L16.448 3.56164L16.8722 3.98591C17.1221 3.73604 17.2411 3.39019 17.1874 3.05358C17.1318 2.70558 16.8869 2.38413 16.4874 2.27989L16.3359 2.86046ZM12.7189 1.67163L12.2947 1.24737C11.5439 1.9981 11.1833 3.08128 11.4419 4.07258L12.0225 3.92111L12.6031 3.76963C12.4678 3.2512 12.6464 2.59269 13.1432 2.09589L12.7189 1.67163ZM14.3396 0.864131L14.9202 0.712653C14.8159 0.313141 14.4945 0.0683 14.1465 0.0127101C13.8099 -0.0410603 13.464 0.0779908 13.2142 0.327858L13.6384 0.752122L14.0627 1.17639C14.0577 1.18141 14.0238 1.20832 13.9572 1.19769C13.9235 1.19231 13.8801 1.17628 13.839 1.14068C13.7958 1.10329 13.7697 1.05659 13.7591 1.01561L14.3396 0.864131Z" fill="var(--stroke-0, #007BFF)"/>
</g>
</svg>
