<svg preserveAspectRatio="none" width="100%" height="100%" overflow="visible" style="display: block;" viewBox="0 0 17.2 17.2" fill="none" xmlns="http://www.w3.org/2000/svg">
<g id="elements">
<path id="Vector" d="M8.6 0.6C13.0183 0.6 16.6 4.18172 16.6 8.6C16.6 13.0183 13.0183 16.6 8.6 16.6C4.18172 16.6 0.6 13.0183 0.6 8.6C0.6 7.15317 0.984081 5.79604 1.65585 4.62502" stroke="var(--stroke-0, #007BFF)" stroke-width="1.2" stroke-linecap="round" stroke-linejoin="round"/>
<path id="Vector_2" d="M3 8.6C3 11.6928 5.50721 14.2 8.6 14.2C11.6928 14.2 14.2 11.6928 14.2 8.6C14.2 5.50721 11.6928 3 8.6 3" stroke="var(--stroke-0, #007BFF)" stroke-width="1.2" stroke-linecap="round" stroke-linejoin="round"/>
<path id="Vector_3" d="M8.6 11.8C10.3673 11.8 11.8 10.3673 11.8 8.6C11.8 6.83269 10.3673 5.4 8.6 5.4" stroke="var(--stroke-0, #007BFF)" stroke-width="1.2" stroke-linecap="round" stroke-linejoin="round"/>
</g>
</svg>
