<svg preserveAspectRatio="none" width="100%" height="100%" overflow="visible" style="display: block;" viewBox="0 0 16.3982 17.2" fill="none" xmlns="http://www.w3.org/2000/svg">
<g id="elements">
<path id="Vector" d="M8.19767 0.6C5.79145 0.6 4.23126 2.21519 2.38608 2.80392C1.63582 3.0433 1.26069 3.16299 1.10887 3.33172C0.957057 3.50044 0.912601 3.747 0.82369 4.24011C-0.127741 9.5168 1.95183 14.3952 6.91135 16.294C7.44422 16.498 7.71066 16.6 8.2003 16.6C8.68994 16.6 8.95636 16.498 9.4892 16.294C14.4484 14.3952 16.526 9.51678 15.5743 4.2401C15.4853 3.74691 15.4409 3.50032 15.289 3.33159C15.1372 3.16286 14.7621 3.04324 14.0118 2.80399C12.1659 2.21532 10.604 0.6 8.19767 0.6Z" stroke="var(--stroke-0, #007BFF)" stroke-width="1.2" stroke-linecap="round" stroke-linejoin="round"/>
<path id="Vector_2" d="M5.79911 9.4C5.79911 9.4 6.59911 9.4 7.39911 11C7.39911 11 9.94029 7 12.1991 6.2" stroke="var(--stroke-0, #007BFF)" stroke-width="1.2" stroke-linecap="round" stroke-linejoin="round"/>
</g>
</svg>
