<svg preserveAspectRatio="none" width="100%" height="100%" overflow="visible" style="display: block;" viewBox="0 0 17.2 15.6" fill="none" xmlns="http://www.w3.org/2000/svg">
<g id="elements">
<path id="Vector" d="M0.600006 4.6C0.600006 4.6 4.18173 0.6 8.60001 0.6C13.0183 0.6 16.6 4.6 16.6 4.6" stroke="var(--stroke-0, #007BFF)" stroke-width="1.2" stroke-linecap="round"/>
<path id="Vector_2" d="M16.2352 8.63599C16.4784 8.97704 16.6 9.14757 16.6 9.4C16.6 9.65243 16.4784 9.82295 16.2352 10.164C15.1423 11.6964 12.3514 15 8.6 15C4.84863 15 2.05768 11.6964 0.964838 10.164C0.721617 9.82296 0.600006 9.65243 0.600006 9.4C0.600006 9.14757 0.721616 8.97704 0.964838 8.63599C2.05768 7.10355 4.84863 3.8 8.6 3.8C12.3514 3.8 15.1423 7.10355 16.2352 8.63599Z" stroke="var(--stroke-0, #007BFF)" stroke-width="1.2"/>
<path id="Vector_3" d="M11 9.4C11 8.07452 9.92549 7 8.6 7C7.27452 7 6.20001 8.07452 6.20001 9.4C6.20001 10.7255 7.27452 11.8 8.6 11.8C9.92549 11.8 11 10.7255 11 9.4Z" stroke="var(--stroke-0, #007BFF)" stroke-width="1.2"/>
</g>
</svg>
