<svg preserveAspectRatio="none" width="100%" height="100%" overflow="visible" style="display: block;" viewBox="0 0 17.2003 15.6001" fill="none" xmlns="http://www.w3.org/2000/svg">
<g id="elements">
<path id="Vector" d="M3.14421 10.4372C2.13815 11.0269 -0.499676 12.231 1.10693 13.7377C1.89175 14.4737 2.76584 15.0001 3.86477 15.0001H10.1355C11.2345 15.0001 12.1086 14.4737 12.8934 13.7377C14.5 12.231 11.8622 11.0269 10.8561 10.4372C8.49691 9.05443 5.5034 9.05443 3.14421 10.4372Z" stroke="var(--stroke-0, #007BFF)" stroke-width="1.2" stroke-linecap="round" stroke-linejoin="round"/>
<path id="Vector_2" d="M10.2002 3.80013C10.2002 5.56744 8.76746 7.00013 7.00015 7.00013C5.23284 7.00013 3.80015 5.56744 3.80015 3.80013C3.80015 2.03282 5.23284 0.600131 7.00015 0.600131C8.76746 0.600131 10.2002 2.03282 10.2002 3.80013Z" stroke="var(--stroke-0, #007BFF)" stroke-width="1.2"/>
<path id="Vector_3" d="M12.6002 2.77156C12.6002 2.77156 13.4002 3.18871 13.8002 3.80013C13.8002 3.80013 15.0002 1.40013 16.6002 0.600131" stroke="var(--stroke-0, #007BFF)" stroke-width="1.2" stroke-linecap="round" stroke-linejoin="round"/>
</g>
</svg>
