<svg preserveAspectRatio="none" width="100%" height="100%" overflow="visible" style="display: block;" viewBox="0 0 16.4 18.8002" fill="none" xmlns="http://www.w3.org/2000/svg">
<g id="elements">
<path id="Vector" d="M10.7333 0.600118L11.2117 1.49434C11.5351 2.09889 11.6968 2.40117 11.5899 2.53062C11.483 2.66008 11.1308 2.55553 10.4265 2.34642C9.72233 2.13736 8.9747 2.02488 8.2 2.02488C4.00264 2.02488 0.6 5.32689 0.6 9.40012C0.6 10.7435 0.970098 12.0029 1.61674 13.0877M5.66667 18.2001L5.18829 17.3059C4.86487 16.7013 4.70315 16.3991 4.81008 16.2696C4.91701 16.1401 5.26919 16.2447 5.97351 16.4538C6.67767 16.6629 7.4253 16.7754 8.2 16.7754C12.3974 16.7754 15.8 13.4733 15.8 9.40012C15.8 8.05676 15.4299 6.7973 14.7833 5.7125" stroke="var(--stroke-0, #007BFF)" stroke-width="1.2" stroke-linecap="round" stroke-linejoin="round"/>
</g>
</svg>
