<svg preserveAspectRatio="none" width="100%" height="100%" overflow="visible" style="display: block;" viewBox="0 0 13.2 17.2001" fill="none" xmlns="http://www.w3.org/2000/svg">
<g id="elements">
<path id="Vector" d="M0.6 10.6001C0.6 7.28642 3.28629 4.60013 6.6 4.60013C9.91371 4.60013 12.6 7.28642 12.6 10.6001C12.6 13.9138 9.91371 16.6001 6.6 16.6001C3.28629 16.6001 0.6 13.9138 0.6 10.6001Z" stroke="var(--stroke-0, #007BFF)" stroke-width="1.2"/>
<path id="Vector_2" d="M4.2 10.6001C4.2 9.27465 5.23614 8.20013 6.51429 8.20013H6.68571C7.96386 8.20013 9 9.27465 9 10.6001C9 11.9256 7.96386 13.0001 6.68571 13.0001H6.51429C5.23614 13.0001 4.2 11.9256 4.2 10.6001Z" stroke="var(--stroke-0, #007BFF)" stroke-width="1.2"/>
<path id="Vector_3" d="M7.84846 0.60013L5.8 4.60013M11.4004 0.60013L9.14285 5.08186" stroke="var(--stroke-0, #007BFF)" stroke-width="1.2" stroke-linecap="round"/>
<path id="Vector_4" d="M5.35195 0.60013L6.6 2.67537M1.8 0.60013L4.05715 5.00013" stroke="var(--stroke-0, #007BFF)" stroke-width="1.2" stroke-linecap="round"/>
</g>
</svg>
