<svg preserveAspectRatio="none" width="100%" height="100%" overflow="visible" style="display: block;" viewBox="0 0 18.0003 15.2" fill="none" xmlns="http://www.w3.org/2000/svg">
<g id="elements">
<path id="Vector" d="M14.2931 13.8H14.6853C15.6051 13.8 16.3368 13.3809 16.9937 12.7948C18.6627 11.3061 14.7395 9.8 13.4002 9.8M11.8002 1.85501C11.9819 1.81898 12.1705 1.8 12.364 1.8C13.82 1.8 15.0002 2.87452 15.0002 4.2C15.0002 5.52548 13.82 6.6 12.364 6.6C12.1705 6.6 11.9819 6.58102 11.8002 6.54499" stroke="var(--stroke-0, #007BFF)" stroke-width="1.2" stroke-linecap="round"/>
<g id="Vector_2">
<path d="M2.98529 10.6889C2.0421 11.1944 -0.430855 12.2265 1.07534 13.5179C1.81111 14.1488 2.63056 14.6 3.66081 14.6H9.53966C10.5699 14.6 11.3894 14.1488 12.1251 13.5179C13.6313 12.2265 11.1584 11.1944 10.2152 10.6889C8.00344 9.50368 5.19703 9.50368 2.98529 10.6889Z" stroke="var(--stroke-0, #007BFF)" stroke-width="1.2"/>
<path d="M9.80023 3.8C9.80023 5.56731 8.36755 7 6.60024 7C4.83292 7 3.40024 5.56731 3.40024 3.8C3.40024 2.03269 4.83292 0.6 6.60024 0.6C8.36755 0.6 9.80023 2.03269 9.80023 3.8Z" stroke="var(--stroke-0, #007BFF)" stroke-width="1.2"/>
</g>
</g>
</svg>
