<svg preserveAspectRatio="none" width="100%" height="100%" overflow="visible" style="display: block;" viewBox="0 0 14 14" fill="none" xmlns="http://www.w3.org/2000/svg">
<g id="elements">
<path id="Vector" d="M0.6 7C0.6 4.37662 0.6 3.06492 1.25105 2.13512C1.49192 1.79113 1.79113 1.49192 2.13512 1.25105C3.06492 0.6 4.37662 0.6 7 0.6C9.62338 0.6 10.9351 0.6 11.8649 1.25105C12.2089 1.49192 12.5081 1.79113 12.7489 2.13512C13.4 3.06492 13.4 4.37662 13.4 7C13.4 9.62338 13.4 10.9351 12.7489 11.8649C12.5081 12.2089 12.2089 12.5081 11.8649 12.7489C10.9351 13.4 9.62338 13.4 7 13.4C4.37662 13.4 3.06492 13.4 2.13512 12.7489C1.79113 12.5081 1.49192 12.2089 1.25105 11.8649C0.6 10.9351 0.6 9.62338 0.6 7Z" stroke="var(--stroke-0, #007BFF)" stroke-width="1.2"/>
</g>
</svg>
