<svg preserveAspectRatio="xMidYMid meet" width="100%" height="100%" overflow="visible" style="display: block;" viewBox="0 0 13 14.3333" fill="none" xmlns="http://www.w3.org/2000/svg">
<g id="elements">
<path id="Vector" d="M12.5 6.49997C12.5 4.61436 12.5 3.67155 11.9142 3.08576C11.3284 2.49997 10.3856 2.49997 8.49995 2.49997H7.16662C5.281 2.49997 4.33819 2.49997 3.75241 3.08576C3.16662 3.67155 3.16662 4.61436 3.16662 6.49997V9.83331C3.16662 11.7189 3.16662 12.6617 3.75241 13.2475C4.33819 13.8333 5.281 13.8333 7.16662 13.8333H8.49995C10.3856 13.8333 11.3284 13.8333 11.9142 13.2475C12.5 12.6617 12.5 11.7189 12.5 9.83331V6.49997Z" stroke="var(--stroke-0, #16A34A)"/>
<path id="Vector_2" d="M3.21703 11.8333C2.48649 11.4249 2.23801 10.527 1.74106 8.73123L1.03826 6.19161C0.541309 4.39583 0.292832 3.49793 0.714615 2.79057C1.1364 2.08321 2.06372 1.84262 3.91837 1.36144L5.22981 1.0212C7.08446 0.540017 8.01179 0.299428 8.74234 0.707823C9.26247 0.998588 9.53823 1.53748 9.83329 2.47188" stroke="var(--stroke-0, #16A34A)"/>
</g>
</svg>
