<svg preserveAspectRatio="xMidYMid meet" width="100%" height="100%" overflow="visible" style="display: block;" viewBox="0 0 84.0002 164.342" fill="none" xmlns="http://www.w3.org/2000/svg">
<g id="Ellipse 1582">
<mask id="path-1-inside-1_0_178" fill="white">
<path d="M1.0017e-06 0C20.1304 2.40052e-07 39.5913 7.22918 54.8397 20.3714C70.0882 33.5136 80.1099 51.6947 83.0804 71.6047C86.0509 91.5147 81.7726 111.829 71.0244 128.85C60.2762 145.871 43.7729 158.466 24.5192 164.342L20.9819 152.751C37.4579 147.723 51.5803 136.945 60.7779 122.38C69.9755 107.815 73.6366 90.4306 71.0947 73.3929C68.5527 56.3553 59.9768 40.7971 46.9282 29.5509C33.8796 18.3047 17.2262 12.1184 8.57194e-07 12.1184L1.0017e-06 0Z"/>
</mask>
<path d="M1.0017e-06 0C20.1304 2.40052e-07 39.5913 7.22918 54.8397 20.3714C70.0882 33.5136 80.1099 51.6947 83.0804 71.6047C86.0509 91.5147 81.7726 111.829 71.0244 128.85C60.2762 145.871 43.7729 158.466 24.5192 164.342L20.9819 152.751C37.4579 147.723 51.5803 136.945 60.7779 122.38C69.9755 107.815 73.6366 90.4306 71.0947 73.3929C68.5527 56.3553 59.9768 40.7971 46.9282 29.5509C33.8796 18.3047 17.2262 12.1184 8.57194e-07 12.1184L1.0017e-06 0Z" stroke="var(--stroke-0, #007BFF)" stroke-width="24" mask="url(#path-1-inside-1_0_178)"/>
</g>
</svg>
