<svg preserveAspectRatio="xMidYMid meet" width="100%" height="100%" overflow="visible" style="display: block;" viewBox="0 0 13.6667 15.6669" fill="none" xmlns="http://www.w3.org/2000/svg">
<g id="elements">
<path id="Vector" d="M8.94444 0.500098L9.34309 1.24528C9.6126 1.74907 9.74736 2.00097 9.65825 2.10885C9.56914 2.21673 9.27568 2.12961 8.68874 1.95535C8.10194 1.78114 7.47892 1.6874 6.83333 1.6874C3.33553 1.6874 0.5 4.43907 0.5 7.83343C0.5 8.95289 0.808415 10.0024 1.34729 10.9064M4.72222 15.1668L4.32358 14.4216C4.05406 13.9178 3.9193 13.6659 4.0084 13.558C4.09751 13.4501 4.391 13.5373 4.97793 13.7115C5.56473 13.8857 6.18775 13.9795 6.83333 13.9795C10.3311 13.9795 13.1667 11.2278 13.1667 7.83343C13.1667 6.71397 12.8583 5.66442 12.3194 4.76042" stroke="var(--stroke-0, #007BFF)" stroke-linecap="round" stroke-linejoin="round"/>
</g>
</svg>
