<svg preserveAspectRatio="none" width="100%" height="100%" overflow="visible" style="display: block;" viewBox="0 0 21.4995 17.5" fill="none" xmlns="http://www.w3.org/2000/svg">
<g id="elements">
<path id="Vector" d="M15.4631 1.34374C16.9437 1.73463 17.9727 2.22922 18.9086 2.83481C20.293 3.73045 20.8864 5.34437 20.7235 6.90172C20.6546 7.55992 20.1241 7.87464 19.509 7.70437L18.1202 7.31997C17.0195 7.01528 16.4691 6.86293 16.1335 6.45995C15.7979 6.05697 15.7584 5.501 15.6794 4.38907L15.4631 1.34374ZM15.4631 1.34374C12.4662 0.552546 9.03688 0.551627 6.03647 1.34374M6.03647 1.34374C4.55583 1.73463 3.52689 2.22923 2.5909 2.83481C1.2066 3.73045 0.613117 5.34438 0.776055 6.90172C0.844919 7.55992 1.3754 7.87464 1.99055 7.70437L3.37932 7.31997C4.48009 7.01528 5.03048 6.86293 5.36608 6.45995C5.70168 6.05697 5.74117 5.501 5.82015 4.38907L6.03647 1.34374Z" stroke="var(--stroke-0, white)" stroke-width="1.5" stroke-linejoin="round"/>
<path id="Vector_2" d="M8.24977 14.25C8.7413 14.7557 10.0495 16.75 10.7498 16.75M13.2498 14.25C12.7582 14.7557 11.45 16.75 10.7498 16.75M10.7498 16.75V8.75" stroke="var(--stroke-0, white)" stroke-width="1.5" stroke-linecap="round" stroke-linejoin="round"/>
</g>
</svg>
