<svg preserveAspectRatio="none" width="100%" height="100%" overflow="visible" style="display: block;" viewBox="0 0 15.5 15.5" fill="none" xmlns="http://www.w3.org/2000/svg">
<g id="elements">
<path id="Vector" d="M5 4.25C5 3.83579 4.66421 3.5 4.25 3.5C3.83579 3.5 3.5 3.83579 3.5 4.25H4.25H5ZM10.3006 10.4498C10.6318 10.201 10.6986 9.73086 10.4498 9.39968C10.201 9.0685 9.73086 9.00171 9.39968 9.25049L9.85015 9.85015L10.3006 10.4498ZM10.2005 8.29957C10.012 8.66838 10.1581 9.12021 10.527 9.30875C10.8958 9.4973 11.3476 9.35116 11.5361 8.98235L10.8683 8.64096L10.2005 8.29957ZM4.07311 2.11742C3.86502 2.47557 3.98666 2.9346 4.34481 3.14269C4.70296 3.35079 5.16199 3.22914 5.37008 2.871L4.72159 2.49421L4.07311 2.11742ZM11.25 7.05H12V4.25H11.25H10.5V7.05H11.25ZM4.25 7.05H5V4.25H4.25H3.5V7.05H4.25ZM11.25 4.25H12C12 1.90279 10.0972 0 7.75 0V0.75V1.5C9.26878 1.5 10.5 2.73122 10.5 4.25H11.25ZM4.25 7.05H3.5C3.5 9.39721 5.40279 11.3 7.75 11.3V10.55V9.8C6.23122 9.8 5 8.56878 5 7.05H4.25ZM9.85015 9.85015L9.39968 9.25049C8.94012 9.59572 8.37 9.8 7.75 9.8V10.55V11.3C8.70598 11.3 9.5902 10.9835 10.3006 10.4498L9.85015 9.85015ZM11.25 7.05H10.5C10.5 7.50147 10.3918 7.92548 10.2005 8.29957L10.8683 8.64096L11.5361 8.98235C11.8329 8.40178 12 7.74431 12 7.05H11.25ZM4.72159 2.49421L5.37008 2.871C5.84735 2.04957 6.73493 1.5 7.75 1.5V0.75V0C6.17887 0 4.80781 0.852932 4.07311 2.11742L4.72159 2.49421Z" fill="var(--stroke-0, #64748B)"/>
<path id="Vector_2" d="M0.75 0.75L14.75 14.75" stroke="var(--stroke-0, #64748B)" stroke-width="1.5" stroke-linecap="round"/>
<path id="Vector_3" d="M2.14966 7.04932C2.14966 10.1421 4.65686 12.6493 7.74966 12.6493M7.74966 12.6493C9.11784 12.6493 10.3714 12.1587 11.3441 11.3437M7.74966 12.6493V14.7493M13.3497 7.04932C13.3497 8.2053 12.9994 9.27947 12.3992 10.1715M7.74966 14.7493H9.84966M7.74966 14.7493H5.64966" stroke="var(--stroke-0, #64748B)" stroke-width="1.5" stroke-linecap="round"/>
</g>
</svg>
