<svg preserveAspectRatio="none" width="100%" height="100%" overflow="visible" style="display: block;" viewBox="0 0 18.1667 17.3333" fill="none" xmlns="http://www.w3.org/2000/svg">
<g id="elements">
<path id="Vector" d="M6.16667 10.75H12M6.16667 6.58333H9.08333" stroke="url(#paint0_linear_0_134)" stroke-width="1.5" stroke-linecap="round" stroke-linejoin="round"/>
<path id="Vector_2" d="M10.8922 16.0754C14.378 15.8437 17.1547 13.0277 17.3831 9.4924C17.4278 8.80056 17.4278 8.0841 17.3831 7.39227C17.1547 3.85698 14.378 1.04094 10.8922 0.809229C9.70294 0.730176 8.46131 0.730338 7.2745 0.809229C3.78866 1.04094 1.01201 3.85698 0.783533 7.39227C0.738822 8.0841 0.738822 8.80056 0.783533 9.4924C0.866746 10.78 1.43619 11.9722 2.10659 12.9788C2.49584 13.6836 2.23895 14.5632 1.83351 15.3315C1.54117 15.8855 1.39501 16.1625 1.51237 16.3626C1.62973 16.5627 1.89188 16.5691 2.41619 16.5818C3.45306 16.6071 4.15224 16.3131 4.70723 15.9039C5.022 15.6717 5.17939 15.5557 5.28786 15.5423C5.39634 15.529 5.60981 15.6169 6.03667 15.7927C6.42034 15.9508 6.8658 16.0483 7.2745 16.0754C8.46131 16.1543 9.70294 16.1545 10.8922 16.0754Z" stroke="url(#paint1_linear_0_134)" stroke-width="1.5" stroke-linejoin="round"/>
</g>
<defs>
<linearGradient id="paint0_linear_0_134" x1="6.16667" y1="8.66667" x2="12" y2="8.66667" gradientUnits="userSpaceOnUse">
<stop stop-color="#007BFF"/>
<stop offset="1" stop-color="#00B7B7"/>
</linearGradient>
<linearGradient id="paint1_linear_0_134" x1="0.75" y1="8.66667" x2="17.4167" y2="8.66667" gradientUnits="userSpaceOnUse">
<stop stop-color="#007BFF"/>
<stop offset="1" stop-color="#00B7B7"/>
</linearGradient>
</defs>
</svg>
