<svg preserveAspectRatio="none" width="100%" height="100%" overflow="visible" style="display: block;" viewBox="0 0 21.5 21.5002" fill="none" xmlns="http://www.w3.org/2000/svg">
<g id="elements">
<path id="Vector" d="M10.75 10.7502V16.7502" stroke="var(--stroke-0, #F43F5E)" stroke-width="1.5" stroke-linecap="round"/>
<path id="Vector_2" d="M10.75 16.7502C9.07634 16.7502 7.61969 17.7623 6.86764 19.2552C6.50845 19.9683 7.02387 20.7502 7.70876 20.7502H13.7912C14.4761 20.7502 14.9915 19.9683 14.6323 19.2552C13.8803 17.7623 12.4236 16.7502 10.75 16.7502Z" stroke="var(--stroke-0, #F43F5E)" stroke-width="1.5" stroke-linecap="round"/>
<path id="Vector_3" d="M3.74998 3.75025H2.73469C1.74817 3.75025 1.25491 3.75025 0.950151 4.12078C0.645394 4.49131 0.734765 4.90622 0.913506 5.73605C1.25492 7.32111 1.99546 8.71365 2.99888 9.75025" stroke="var(--stroke-0, #F43F5E)" stroke-width="1.5" stroke-linecap="round"/>
<path id="Vector_4" d="M17.75 3.75025H18.7653C19.7518 3.75025 20.2451 3.75025 20.5498 4.12078C20.8546 4.49131 20.7652 4.90622 20.5865 5.73605C20.245 7.32111 19.5045 8.71365 18.5011 9.75025" stroke="var(--stroke-0, #F43F5E)" stroke-width="1.5" stroke-linecap="round"/>
<path id="Vector_5" d="M10.75 10.7502C14.616 10.7502 17.75 7.63335 17.75 3.78846C17.75 3.68764 17.7478 3.58732 17.7436 3.48754C17.7008 2.48831 17.6795 1.98869 17.0023 1.36947C16.3251 0.750249 15.5747 0.750249 14.074 0.750249H7.42594C5.92525 0.750249 5.1749 0.750249 4.4977 1.36947C3.8205 1.98869 3.79913 2.48831 3.75641 3.48754C3.75214 3.58732 3.74998 3.68764 3.74998 3.78846C3.74998 7.63335 6.88399 10.7502 10.75 10.7502Z" stroke="var(--stroke-0, #F43F5E)" stroke-width="1.5" stroke-linecap="round"/>
</g>
</svg>
