<svg preserveAspectRatio="none" width="100%" height="100%" overflow="visible" style="display: block;" viewBox="0 0 22.5 21.5002" fill="none" xmlns="http://www.w3.org/2000/svg">
<g id="elements">
<path id="Vector" d="M17.5007 12.25H18.8904C20.7419 12.25 21.2922 11.9845 21.2477 10.6662C21.1739 8.48262 20.1892 5.94535 16.2502 5.25" stroke="var(--stroke-0, #FF6B35)" stroke-width="2.5" stroke-linecap="round"/>
<path id="Vector_2" d="M5.19643 2.13553C1.82201 4.72996 1.32484 8.40995 1.25159 12.2499C1.21995 13.9087 1.70142 14.25 3.90935 14.25L14.591 14.25C16.7989 14.25 17.2804 13.9087 17.2487 12.2499C17.1755 8.40995 16.6783 4.72996 13.3039 2.13553C12.3436 1.3972 11.5333 1.25 10.1695 1.25L8.3308 1.25C6.96702 1.25 6.15674 1.3972 5.19643 2.13553Z" stroke="var(--stroke-0, #FF6B35)" stroke-width="2.5" stroke-linecap="round"/>
<path id="Vector_3" d="M10.5591 20.25C10.0123 19.9114 9.25141 18.75 9.25141 17.25M6.78987 18.75C6.78987 18.75 6.25016 18.25 6.25016 17.25M13.2514 18.75C12.978 18.5807 12.7502 17.75 12.7502 17.25" stroke="var(--stroke-0, #FF6B35)" stroke-width="2.5" stroke-linecap="round" stroke-linejoin="round"/>
</g>
</svg>
