<svg preserveAspectRatio="none" width="100%" height="100%" overflow="visible" style="display: block;" viewBox="0 0 19.5 21.5" fill="none" xmlns="http://www.w3.org/2000/svg">
<g id="elements">
<path id="Vector" d="M6.39298 1.89559L4.68816 2.68362C2.06272 3.89719 0.75 4.50397 0.75 5.5C0.75 6.49603 2.06272 7.10281 4.68817 8.31638L6.39298 9.10441C8.04524 9.86813 8.87137 10.25 9.75 10.25C10.6286 10.25 11.4548 9.86814 13.107 9.10441L14.8118 8.31638C17.4373 7.10281 18.75 6.49603 18.75 5.5C18.75 4.50397 17.4373 3.89719 14.8118 2.68362L13.107 1.89559C11.4548 1.13186 10.6286 0.75 9.75 0.75C8.87137 0.75 8.04524 1.13186 6.39298 1.89559Z" stroke="var(--stroke-0, #22C55E)" stroke-width="1.5" stroke-linecap="round" stroke-linejoin="round"/>
<path id="Vector_2" d="M18.538 9.84724C18.6793 10.046 18.75 10.2532 18.75 10.481C18.75 11.4628 17.4373 12.061 14.8118 13.2572L13.107 14.034C11.4548 14.7869 10.6286 15.1633 9.75 15.1633C8.87137 15.1633 8.04524 14.7869 6.39298 14.034L4.68817 13.2572C2.06272 12.061 0.75 11.4628 0.75 10.481C0.75 10.2532 0.820667 10.046 0.962 9.84724" stroke="var(--stroke-0, #22C55E)" stroke-width="1.5" stroke-linecap="round" stroke-linejoin="round"/>
<path id="Vector_3" d="M18.1267 15.0161C18.5422 15.3471 18.75 15.677 18.75 16.0676C18.75 17.0495 17.4373 17.6476 14.8118 18.8439L13.107 19.6207C11.4548 20.3736 10.6286 20.75 9.75 20.75C8.87137 20.75 8.04524 20.3736 6.39298 19.6207L4.68817 18.8439C2.06272 17.6476 0.75 17.0495 0.75 16.0676C0.75 15.677 0.957779 15.3471 1.37334 15.0161" stroke="var(--stroke-0, #22C55E)" stroke-width="1.5" stroke-linecap="round" stroke-linejoin="round"/>
</g>
</svg>
