<svg preserveAspectRatio="none" width="100%" height="100%" overflow="visible" style="display: block;" viewBox="0 0 17.5 17.5" fill="none" xmlns="http://www.w3.org/2000/svg">
<g id="elements">
<path id="Vector" d="M0.750004 3.75C0.750004 2.33579 0.750004 1.62868 1.18934 1.18934C1.62868 0.750004 2.33579 0.750004 3.75 0.750004C5.16422 0.750004 5.87132 0.750004 6.31066 1.18934C6.75 1.62868 6.75 2.33579 6.75 3.75V13.75C6.75 15.1642 6.75 15.8713 6.31066 16.3107C5.87132 16.75 5.16422 16.75 3.75 16.75C2.33579 16.75 1.62868 16.75 1.18934 16.3107C0.750004 15.8713 0.750004 15.1642 0.750004 13.75V3.75Z" stroke="var(--stroke-0, black)" stroke-width="1.5"/>
<path id="Vector_2" d="M10.75 3.75C10.75 2.33579 10.75 1.62868 11.1893 1.18934C11.6287 0.750004 12.3358 0.750004 13.75 0.750004C15.1642 0.750004 15.8713 0.750004 16.3107 1.18934C16.75 1.62868 16.75 2.33579 16.75 3.75V13.75C16.75 15.1642 16.75 15.8713 16.3107 16.3107C15.8713 16.75 15.1642 16.75 13.75 16.75C12.3358 16.75 11.6287 16.75 11.1893 16.3107C10.75 15.8713 10.75 15.1642 10.75 13.75V3.75Z" stroke="var(--stroke-0, black)" stroke-width="1.5"/>
</g>
</svg>
