<svg preserveAspectRatio="none" width="100%" height="100%" overflow="visible" style="display: block;" viewBox="0 0 19.4975 21.5" fill="none" xmlns="http://www.w3.org/2000/svg">
<g id="elements">
<path id="Vector" d="M9.74706 0.75C6.89759 0.75 5.04999 2.76899 2.86491 3.5049C1.97644 3.80413 1.53221 3.95374 1.35243 4.16465C1.17264 4.37556 1.12 4.68375 1.01471 5.30013C-0.111986 11.896 2.35066 17.994 8.22378 20.3675C8.85481 20.6225 9.17033 20.75 9.75017 20.75C10.33 20.75 10.6455 20.6225 11.2765 20.3675C17.1492 17.9939 19.6095 11.896 18.4825 5.30013C18.3772 4.68364 18.3245 4.3754 18.1447 4.16449C17.9649 3.95358 17.5207 3.80405 16.6323 3.50499C14.4463 2.76915 12.5966 0.75 9.74706 0.75Z" stroke="var(--stroke-0, #FF6B35)" stroke-width="1.5" stroke-linecap="round" stroke-linejoin="round"/>
<path id="Vector_2" d="M5.87777 9.88119L9.87677 4.94058C10.1895 4.55418 10.7757 4.79468 10.7757 5.30939V9.13347C10.7757 9.44179 11.0056 9.69173 11.2892 9.69173H13.2343C13.6761 9.69173 13.9117 10.2582 13.6198 10.6188L9.62076 15.5594C9.308 15.9458 8.72179 15.7053 8.72179 15.1906V11.3665C8.72179 11.0582 8.49189 10.8083 8.2083 10.8083H6.26325C5.8214 10.8083 5.58587 10.2418 5.87777 9.88119Z" stroke="var(--stroke-0, #FF6B35)" stroke-width="1.5" stroke-linecap="round" stroke-linejoin="round"/>
</g>
</svg>
