<svg width="217" height="48" viewBox="0 0 217 48" fill="none" xmlns="http://www.w3.org/2000/svg">
<path d="M0 6.4C0 4.15979 0 3.03969 0.435974 2.18404C0.819467 1.43139 1.43139 0.819467 2.18404 0.435974C3.03969 0 4.15979 0 6.4 0H210.6C212.84 0 213.96 0 214.816 0.435974C215.569 0.819467 216.181 1.43139 216.564 2.18404C217 3.03969 217 4.15979 217 6.4V41.6C217 43.8402 217 44.9603 216.564 45.816C216.181 46.5686 215.569 47.1805 214.816 47.564C213.96 48 212.84 48 210.6 48H6.39999C4.15979 48 3.03969 48 2.18404 47.564C1.43139 47.1805 0.819467 46.5686 0.435974 45.816C0 44.9603 0 43.8402 0 41.6V6.4Z" fill="#007BFF"/>
<path d="M72.2195 22.2536H70.3601C70.3071 21.9486 70.2093 21.6785 70.0668 21.4432C69.9242 21.2045 69.7469 21.0024 69.5348 20.8366C69.3227 20.6709 69.0807 20.5466 68.8089 20.4638C68.5405 20.3776 68.2505 20.3345 67.9389 20.3345C67.3854 20.3345 66.8949 20.4737 66.4673 20.7521C66.0398 21.0272 65.705 21.4316 65.4631 21.9652C65.2211 22.4955 65.1001 23.1435 65.1001 23.9091C65.1001 24.688 65.2211 25.3442 65.4631 25.8778C65.7083 26.4081 66.0431 26.8092 66.4673 27.081C66.8949 27.3494 67.3838 27.4837 67.9339 27.4837C68.2389 27.4837 68.5239 27.4439 68.7891 27.3643C69.0575 27.2815 69.2978 27.1605 69.5099 27.0014C69.7254 26.8423 69.906 26.6468 70.0518 26.4148C70.201 26.1828 70.3037 25.9176 70.3601 25.6193L72.2195 25.6293C72.1499 26.1132 71.9991 26.5672 71.767 26.9915C71.5384 27.4157 71.2384 27.7902 70.8672 28.1151C70.496 28.4366 70.0618 28.6884 69.5646 28.8707C69.0675 29.0497 68.5156 29.1392 67.9091 29.1392C67.0142 29.1392 66.2154 28.9321 65.5128 28.5178C64.8101 28.1035 64.2566 27.5052 63.8523 26.723C63.4479 25.9408 63.2457 25.0028 63.2457 23.9091C63.2457 22.812 63.4496 21.8741 63.8572 21.0952C64.2649 20.313 64.8201 19.7147 65.5227 19.3004C66.2254 18.8861 67.0208 18.679 67.9091 18.679C68.4759 18.679 69.0028 18.7585 69.4901 18.9176C69.9773 19.0767 70.4115 19.3104 70.7926 19.6186C71.1738 19.9235 71.487 20.2981 71.7322 20.7422C71.9808 21.183 72.1432 21.6868 72.2195 22.2536ZM77.076 29.1491C76.3302 29.1491 75.6839 28.9851 75.1371 28.657C74.5902 28.3288 74.1659 27.8698 73.8643 27.2798C73.566 26.6899 73.4169 26.0005 73.4169 25.2116C73.4169 24.4228 73.566 23.7318 73.8643 23.1385C74.1659 22.5452 74.5902 22.0845 75.1371 21.7564C75.6839 21.4283 76.3302 21.2642 77.076 21.2642C77.8217 21.2642 78.468 21.4283 79.0149 21.7564C79.5618 22.0845 79.9844 22.5452 80.2827 23.1385C80.5843 23.7318 80.7351 24.4228 80.7351 25.2116C80.7351 26.0005 80.5843 26.6899 80.2827 27.2798C79.9844 27.8698 79.5618 28.3288 79.0149 28.657C78.468 28.9851 77.8217 29.1491 77.076 29.1491ZM77.0859 27.7074C77.4903 27.7074 77.8283 27.5964 78.1001 27.3743C78.3719 27.1489 78.5741 26.8473 78.7067 26.4695C78.8426 26.0916 78.9105 25.6707 78.9105 25.2067C78.9105 24.7393 78.8426 24.3168 78.7067 23.9389C78.5741 23.5578 78.3719 23.2545 78.1001 23.0291C77.8283 22.8037 77.4903 22.6911 77.0859 22.6911C76.6716 22.6911 76.3269 22.8037 76.0518 23.0291C75.7801 23.2545 75.5762 23.5578 75.4403 23.9389C75.3077 24.3168 75.2415 24.7393 75.2415 25.2067C75.2415 25.6707 75.3077 26.0916 75.4403 26.4695C75.5762 26.8473 75.7801 27.1489 76.0518 27.3743C76.3269 27.5964 76.6716 27.7074 77.0859 27.7074ZM83.9783 24.5256V29H82.1786V21.3636H83.8988V22.6612H83.9883C84.1639 22.2337 84.444 21.8939 84.8284 21.642C85.2162 21.3902 85.6952 21.2642 86.2652 21.2642C86.7922 21.2642 87.2513 21.3769 87.6424 21.6023C88.0368 21.8277 88.3417 22.1541 88.5571 22.5817C88.7759 23.0092 88.8836 23.5279 88.8803 24.1378V29H87.0806V24.4162C87.0806 23.9058 86.948 23.5064 86.6829 23.218C86.421 22.9297 86.0581 22.7855 85.5941 22.7855C85.2792 22.7855 84.9991 22.8551 84.7539 22.9943C84.5119 23.1302 84.3213 23.3274 84.1821 23.5859C84.0463 23.8445 83.9783 24.1577 83.9783 24.5256ZM94.4391 21.3636V22.7557H90.0491V21.3636H94.4391ZM91.1329 19.5341H92.9327V26.7031C92.9327 26.9451 92.9691 27.1307 93.042 27.2599C93.1183 27.3859 93.2177 27.4721 93.3403 27.5185C93.463 27.5649 93.5989 27.5881 93.748 27.5881C93.8607 27.5881 93.9634 27.5798 94.0562 27.5632C94.1524 27.5466 94.2253 27.5317 94.275 27.5185L94.5783 28.9254C94.4821 28.9586 94.3446 28.995 94.1656 29.0348C93.99 29.0746 93.7745 29.0978 93.5193 29.1044C93.0685 29.1177 92.6625 29.0497 92.3013 28.9006C91.94 28.7481 91.6533 28.5128 91.4412 28.1946C91.2324 27.8764 91.1296 27.4787 91.1329 27.0014V19.5341ZM95.8602 29V21.3636H97.6599V29H95.8602ZM96.765 20.2798C96.48 20.2798 96.2347 20.1854 96.0292 19.9964C95.8237 19.8042 95.721 19.5739 95.721 19.3054C95.721 19.0336 95.8237 18.8033 96.0292 18.6143C96.2347 18.4221 96.48 18.326 96.765 18.326C97.0534 18.326 97.2986 18.4221 97.5008 18.6143C97.7063 18.8033 97.8091 19.0336 97.8091 19.3054C97.8091 19.5739 97.7063 19.8042 97.5008 19.9964C97.2986 20.1854 97.0534 20.2798 96.765 20.2798ZM101.226 24.5256V29H99.4266V21.3636H101.147V22.6612H101.236C101.412 22.2337 101.692 21.8939 102.076 21.642C102.464 21.3902 102.943 21.2642 103.513 21.2642C104.04 21.2642 104.499 21.3769 104.89 21.6023C105.285 21.8277 105.59 22.1541 105.805 22.5817C106.024 23.0092 106.132 23.5279 106.128 24.1378V29H104.329V24.4162C104.329 23.9058 104.196 23.5064 103.931 23.218C103.669 22.9297 103.306 22.7855 102.842 22.7855C102.527 22.7855 102.247 22.8551 102.002 22.9943C101.76 23.1302 101.569 23.3274 101.43 23.5859C101.294 23.8445 101.226 24.1577 101.226 24.5256ZM112.741 25.7884V21.3636H114.541V29H112.796V27.6428H112.716C112.544 28.0703 112.26 28.42 111.866 28.6918C111.475 28.9635 110.993 29.0994 110.419 29.0994C109.919 29.0994 109.476 28.9884 109.092 28.7663C108.711 28.541 108.412 28.2145 108.197 27.7869C107.982 27.3561 107.874 26.8357 107.874 26.2259V21.3636H109.674V25.9474C109.674 26.4313 109.806 26.8158 110.071 27.1009C110.336 27.3859 110.684 27.5284 111.115 27.5284C111.38 27.5284 111.637 27.4638 111.886 27.3345C112.134 27.2053 112.338 27.013 112.497 26.7578C112.66 26.4993 112.741 26.1761 112.741 25.7884ZM119.688 29.1491C118.922 29.1491 118.261 28.9901 117.704 28.6719C117.151 28.3504 116.725 27.8963 116.427 27.3097C116.128 26.7197 115.979 26.0253 115.979 25.2266C115.979 24.4411 116.128 23.7517 116.427 23.1584C116.728 22.5618 117.149 22.0978 117.69 21.7663C118.23 21.4316 118.864 21.2642 119.594 21.2642C120.064 21.2642 120.508 21.3404 120.926 21.4929C121.347 21.642 121.718 21.8741 122.04 22.1889C122.364 22.5038 122.62 22.9048 122.805 23.392C122.991 23.8759 123.084 24.4527 123.084 25.1222V25.674H116.824V24.4609H121.359C121.355 24.1162 121.281 23.8097 121.135 23.5412C120.989 23.2694 120.785 23.0556 120.523 22.8999C120.265 22.7441 119.963 22.6662 119.618 22.6662C119.251 22.6662 118.927 22.7557 118.649 22.9347C118.371 23.1103 118.154 23.3423 117.998 23.6307C117.845 23.9157 117.767 24.2289 117.764 24.5703V25.6293C117.764 26.0734 117.845 26.4545 118.008 26.7727C118.17 27.0876 118.397 27.3295 118.689 27.4986C118.98 27.6643 119.322 27.7472 119.713 27.7472C119.975 27.7472 120.212 27.7107 120.424 27.6378C120.636 27.5616 120.82 27.4505 120.976 27.3047C121.132 27.1589 121.249 26.9782 121.329 26.7628L123.009 26.9517C122.903 27.3958 122.701 27.7836 122.403 28.1151C122.108 28.4432 121.73 28.6984 121.269 28.8807C120.808 29.0597 120.281 29.1491 119.688 29.1491Z" fill="white"/>
<path d="M151.167 24L137.834 24" stroke="white" stroke-width="2" stroke-linecap="round" stroke-linejoin="round"/>
<path d="M147 28.1668C147 28.1668 151.167 25.0981 151.167 24.0001C151.167 22.9021 147 19.8335 147 19.8335" stroke="white" stroke-width="2" stroke-linecap="round" stroke-linejoin="round"/>
</svg>
