<svg width="109" height="48" viewBox="0 0 109 48" fill="none" xmlns="http://www.w3.org/2000/svg">
<path d="M0 6.4C0 4.15979 0 3.03969 0.435974 2.18404C0.819467 1.43139 1.43139 0.819467 2.18404 0.435974C3.03969 0 4.15979 0 6.4 0H102.6C104.84 0 105.96 0 106.816 0.435974C107.569 0.819467 108.181 1.43139 108.564 2.18404C109 3.03969 109 4.15979 109 6.4V41.6C109 43.8402 109 44.9603 108.564 45.816C108.181 46.5686 107.569 47.1805 106.816 47.564C105.96 48 104.84 48 102.6 48H6.4C4.15979 48 3.03969 48 2.18404 47.564C1.43139 47.1805 0.819467 46.5686 0.435974 45.816C0 44.9603 0 43.8402 0 41.6V6.4Z" fill="#F1F5F9"/>
<path d="M38.5043 29V18.8182H42.402C43.1378 18.8182 43.7493 18.9342 44.2365 19.1662C44.727 19.3949 45.0933 19.7081 45.3352 20.1058C45.5805 20.5036 45.7031 20.9543 45.7031 21.4581C45.7031 21.8724 45.6236 22.227 45.4645 22.522C45.3054 22.8137 45.0916 23.0507 44.8232 23.233C44.5547 23.4152 44.2547 23.5462 43.9233 23.6257V23.7251C44.2846 23.745 44.6309 23.8561 44.9624 24.0582C45.2971 24.2571 45.5705 24.5388 45.7827 24.9034C45.9948 25.268 46.1009 25.7088 46.1009 26.2259C46.1009 26.7528 45.9732 27.2268 45.718 27.6477C45.4628 28.0653 45.0784 28.3951 44.5646 28.6371C44.0509 28.879 43.4046 29 42.6257 29H38.5043ZM40.3487 27.4588H42.3324C43.0019 27.4588 43.4841 27.3312 43.7791 27.076C44.0774 26.8175 44.2266 26.486 44.2266 26.0817C44.2266 25.7801 44.152 25.5083 44.0028 25.2663C43.8537 25.0211 43.6416 24.8288 43.3665 24.6896C43.0914 24.5471 42.7633 24.4759 42.3821 24.4759H40.3487V27.4588ZM40.3487 23.1484H42.1733C42.4915 23.1484 42.7782 23.0904 43.0334 22.9744C43.2886 22.8551 43.4891 22.6877 43.6349 22.4723C43.7841 22.2536 43.8587 21.995 43.8587 21.6967C43.8587 21.3023 43.7195 20.9775 43.4411 20.7223C43.166 20.4671 42.7566 20.3395 42.2131 20.3395H40.3487V23.1484ZM49.7393 29.1541C49.2554 29.1541 48.8196 29.0679 48.4318 28.8956C48.0473 28.7199 47.7424 28.4614 47.517 28.12C47.295 27.7786 47.1839 27.3577 47.1839 26.8572C47.1839 26.4264 47.2635 26.0701 47.4226 25.7884C47.5817 25.5066 47.7988 25.2812 48.0738 25.1122C48.3489 24.9432 48.6588 24.8156 49.0035 24.7294C49.3515 24.6399 49.7112 24.5753 50.0824 24.5355C50.5298 24.4891 50.8927 24.4477 51.1711 24.4112C51.4496 24.3714 51.6517 24.3118 51.7777 24.2322C51.9069 24.1494 51.9716 24.0218 51.9716 23.8494V23.8196C51.9716 23.4451 51.8605 23.1551 51.6385 22.9496C51.4164 22.7441 51.0966 22.6413 50.679 22.6413C50.2381 22.6413 49.8885 22.7375 49.63 22.9297C49.3747 23.1219 49.2024 23.349 49.1129 23.6108L47.4325 23.3722C47.5651 22.9081 47.7838 22.5204 48.0888 22.2088C48.3937 21.8939 48.7666 21.6586 49.2074 21.5028C49.6482 21.3438 50.1354 21.2642 50.669 21.2642C51.0369 21.2642 51.4032 21.3073 51.7677 21.3935C52.1323 21.4796 52.4654 21.6222 52.767 21.821C53.0686 22.0166 53.3106 22.2834 53.4929 22.6214C53.6785 22.9595 53.7713 23.3821 53.7713 23.8892V29H52.0412V27.951H51.9815C51.8721 28.1631 51.718 28.362 51.5192 28.5476C51.3236 28.7299 51.0767 28.8774 50.7784 28.9901C50.4834 29.0994 50.1371 29.1541 49.7393 29.1541ZM50.2067 27.8317C50.5679 27.8317 50.8811 27.7604 51.1463 27.6179C51.4114 27.4721 51.6153 27.2798 51.7578 27.0412C51.9036 26.8026 51.9765 26.5424 51.9765 26.2607V25.3608C51.9202 25.4072 51.8241 25.4503 51.6882 25.4901C51.5556 25.5298 51.4065 25.5646 51.2408 25.5945C51.075 25.6243 50.911 25.6508 50.7486 25.674C50.5862 25.6972 50.4453 25.7171 50.326 25.7337C50.0575 25.7701 49.8172 25.8298 49.6051 25.9126C49.393 25.9955 49.2256 26.1115 49.103 26.2607C48.9803 26.4065 48.919 26.5954 48.919 26.8274C48.919 27.1589 49.04 27.4091 49.2819 27.5781C49.5239 27.7472 49.8321 27.8317 50.2067 27.8317ZM58.8279 29.1491C58.0656 29.1491 57.411 28.9818 56.8641 28.647C56.3206 28.3123 55.9013 27.8499 55.6063 27.2599C55.3147 26.6667 55.1688 25.9839 55.1688 25.2116C55.1688 24.4361 55.318 23.7517 55.6163 23.1584C55.9146 22.5618 56.3355 22.0978 56.8791 21.7663C57.4259 21.4316 58.0722 21.2642 58.818 21.2642C59.4378 21.2642 59.9863 21.3786 60.4636 21.6072C60.9442 21.8326 61.327 22.1525 61.612 22.5668C61.897 22.9777 62.0595 23.4583 62.0992 24.0085H60.3791C60.3095 23.6406 60.1437 23.334 59.8819 23.0888C59.6234 22.8402 59.277 22.7159 58.8428 22.7159C58.4749 22.7159 58.1518 22.8153 57.8734 23.0142C57.595 23.2098 57.3779 23.4915 57.2221 23.8594C57.0696 24.2273 56.9934 24.6681 56.9934 25.1818C56.9934 25.7022 57.0696 26.1496 57.2221 26.5241C57.3746 26.8954 57.5883 27.1821 57.8634 27.3842C58.1418 27.5831 58.4683 27.6825 58.8428 27.6825C59.108 27.6825 59.345 27.6328 59.5538 27.5334C59.7659 27.4306 59.9432 27.2831 60.0857 27.0909C60.2282 26.8987 60.326 26.665 60.3791 26.3899H62.0992C62.0561 26.9302 61.897 27.4091 61.622 27.8267C61.3469 28.241 60.9723 28.5658 60.4984 28.8011C60.0244 29.0331 59.4676 29.1491 58.8279 29.1491ZM65.1337 26.6037L65.1287 24.4311H65.417L68.1614 21.3636H70.2643L66.8886 25.1222H66.5158L65.1337 26.6037ZM63.493 29V18.8182H65.2927V29H63.493ZM68.2856 29L65.7998 25.5249L67.0129 24.2571L70.4383 29H68.2856Z" fill="#334155"/>
</svg>
