<svg width="93" height="33" viewBox="0 0 93 33" fill="none" xmlns="http://www.w3.org/2000/svg">
<rect width="93" height="22" rx="11" fill="#007BFF"/>
<path d="M18.8636 10.0625C18.8239 9.92424 18.768 9.80208 18.696 9.69602C18.6241 9.58807 18.536 9.49716 18.4318 9.4233C18.3295 9.34754 18.2121 9.28977 18.0795 9.25C17.9489 9.21023 17.804 9.19034 17.6449 9.19034C17.3475 9.19034 17.0862 9.2642 16.8608 9.41193C16.6373 9.55966 16.4631 9.77462 16.3381 10.0568C16.2131 10.3371 16.1506 10.6799 16.1506 11.0852C16.1506 11.4905 16.2121 11.8352 16.3352 12.1193C16.4583 12.4034 16.6326 12.6203 16.858 12.7699C17.0833 12.9176 17.3494 12.9915 17.6562 12.9915C17.9347 12.9915 18.1723 12.9422 18.3693 12.8438C18.5682 12.7434 18.7197 12.6023 18.8239 12.4205C18.9299 12.2386 18.983 12.0237 18.983 11.7756L19.233 11.8125H17.733V10.8864H20.1676V11.6193C20.1676 12.1307 20.0597 12.5701 19.8438 12.9375C19.6278 13.303 19.3305 13.5852 18.9517 13.7841C18.5729 13.9811 18.1392 14.0795 17.6506 14.0795C17.1051 14.0795 16.6259 13.9593 16.2131 13.7188C15.8002 13.4763 15.4782 13.1326 15.2472 12.6875C15.018 12.2405 14.9034 11.7102 14.9034 11.0966C14.9034 10.625 14.9716 10.2045 15.108 9.83523C15.2462 9.46402 15.4394 9.14962 15.6875 8.89205C15.9356 8.63447 16.2244 8.43845 16.554 8.30398C16.8835 8.16951 17.2405 8.10227 17.625 8.10227C17.9545 8.10227 18.2614 8.15057 18.5455 8.24716C18.8295 8.34186 19.0814 8.47633 19.3011 8.65057C19.5227 8.82481 19.7036 9.0322 19.8438 9.27273C19.9839 9.51136 20.0739 9.77462 20.1136 10.0625H18.8636ZM26.8382 11.0909C26.8382 11.7254 26.7179 12.2652 26.4774 12.7102C26.2388 13.1553 25.913 13.4953 25.5001 13.7301C25.0892 13.9631 24.627 14.0795 24.1138 14.0795C23.5967 14.0795 23.1327 13.9621 22.7217 13.7273C22.3107 13.4924 21.9859 13.1525 21.7473 12.7074C21.5087 12.2623 21.3893 11.7235 21.3893 11.0909C21.3893 10.4564 21.5087 9.91667 21.7473 9.47159C21.9859 9.02652 22.3107 8.6875 22.7217 8.45455C23.1327 8.2197 23.5967 8.10227 24.1138 8.10227C24.627 8.10227 25.0892 8.2197 25.5001 8.45455C25.913 8.6875 26.2388 9.02652 26.4774 9.47159C26.7179 9.91667 26.8382 10.4564 26.8382 11.0909ZM25.5911 11.0909C25.5911 10.6799 25.5295 10.3333 25.4064 10.0511C25.2852 9.76894 25.1138 9.55492 24.8922 9.40909C24.6706 9.26326 24.4111 9.19034 24.1138 9.19034C23.8164 9.19034 23.557 9.26326 23.3354 9.40909C23.1138 9.55492 22.9414 9.76894 22.8183 10.0511C22.6971 10.3333 22.6365 10.6799 22.6365 11.0909C22.6365 11.5019 22.6971 11.8485 22.8183 12.1307C22.9414 12.4129 23.1138 12.6269 23.3354 12.7727C23.557 12.9186 23.8164 12.9915 24.1138 12.9915C24.4111 12.9915 24.6706 12.9186 24.8922 12.7727C25.1138 12.6269 25.2852 12.4129 25.4064 12.1307C25.5295 11.8485 25.5911 11.5019 25.5911 11.0909ZM31.6311 8.18182V14H30.401V8.18182H31.6311ZM33.0432 8.18182H34.5602L36.1625 12.0909H36.2307L37.833 8.18182H39.35V14H38.1568V10.2131H38.1085L36.6028 13.9716H35.7903L34.2847 10.1989H34.2364V14H33.0432V8.18182ZM40.7635 8.18182H42.2805L43.8828 12.0909H43.951L45.5533 8.18182H47.0703V14H45.8771V10.2131H45.8288L44.3232 13.9716H43.5107L42.005 10.1989H41.9567V14H40.7635V8.18182ZM48.4838 14V8.18182H52.4043V9.19602H49.7139V10.5824H52.2026V11.5966H49.7139V12.9858H52.4156V14H48.4838ZM53.7822 14V8.18182H56.0777C56.5171 8.18182 56.8921 8.26042 57.2027 8.41761C57.5152 8.57292 57.7529 8.79356 57.9158 9.07955C58.0805 9.36364 58.1629 9.69792 58.1629 10.0824C58.1629 10.4687 58.0796 10.8011 57.9129 11.0795C57.7463 11.3561 57.5048 11.5682 57.1885 11.7159C56.8741 11.8636 56.4934 11.9375 56.0464 11.9375H54.5095V10.9489H55.8476C56.0824 10.9489 56.2775 10.9167 56.4328 10.8523C56.5881 10.7879 56.7036 10.6913 56.7794 10.5625C56.8571 10.4337 56.8959 10.2737 56.8959 10.0824C56.8959 9.8892 56.8571 9.72633 56.7794 9.59375C56.7036 9.46117 56.5872 9.3608 56.43 9.29261C56.2747 9.22254 56.0786 9.1875 55.8419 9.1875H55.0124V14H53.7822ZM56.9243 11.3523L58.3703 14H57.0124L55.5976 11.3523H56.9243ZM62.5885 9.85511C62.5658 9.62595 62.4682 9.44792 62.2959 9.32102C62.1235 9.19413 61.8896 9.13068 61.5942 9.13068C61.3934 9.13068 61.2239 9.15909 61.0857 9.21591C60.9474 9.27083 60.8413 9.34754 60.7675 9.44602C60.6955 9.54451 60.6595 9.65625 60.6595 9.78125C60.6557 9.88542 60.6775 9.97633 60.7249 10.054C60.7741 10.1316 60.8413 10.1989 60.9266 10.2557C61.0118 10.3106 61.1103 10.3589 61.222 10.4006C61.3338 10.4403 61.4531 10.4744 61.58 10.5028L62.1027 10.6278C62.3565 10.6847 62.5894 10.7604 62.8016 10.8551C63.0137 10.9498 63.1974 11.0663 63.3527 11.2045C63.508 11.3428 63.6283 11.5057 63.7135 11.6932C63.8006 11.8807 63.8451 12.0956 63.847 12.3381C63.8451 12.6941 63.7542 13.0028 63.5743 13.2642C63.3963 13.5237 63.1387 13.7254 62.8016 13.8693C62.4663 14.0114 62.062 14.0824 61.5885 14.0824C61.1188 14.0824 60.7097 14.0104 60.3612 13.8665C60.0146 13.7225 59.7438 13.5095 59.5487 13.2273C59.3555 12.9432 59.2542 12.5919 59.2447 12.1733H60.4351C60.4483 12.3684 60.5042 12.5312 60.6027 12.6619C60.7031 12.7907 60.8366 12.8883 61.0033 12.9545C61.1718 13.0189 61.3622 13.0511 61.5743 13.0511C61.7826 13.0511 61.9635 13.0208 62.1169 12.9602C62.2722 12.8996 62.3925 12.8153 62.4777 12.7074C62.5629 12.5994 62.6055 12.4754 62.6055 12.3352C62.6055 12.2045 62.5667 12.0947 62.4891 12.0057C62.4133 11.9167 62.3016 11.8409 62.1538 11.7784C62.008 11.7159 61.829 11.6591 61.6169 11.608L60.9834 11.4489C60.4929 11.3295 60.1055 11.143 59.8214 10.8892C59.5374 10.6354 59.3963 10.2936 59.3982 9.86364C59.3963 9.51136 59.49 9.2036 59.6794 8.94034C59.8707 8.67708 60.133 8.47159 60.4663 8.32386C60.7997 8.17614 61.1785 8.10227 61.6027 8.10227C62.0345 8.10227 62.4114 8.17614 62.7334 8.32386C63.0572 8.47159 63.3091 8.67708 63.4891 8.94034C63.669 9.2036 63.7618 9.50852 63.7675 9.85511H62.5885ZM66.3045 8.18182V14H65.0744V8.18182H66.3045ZM68.7678 8.18182L70.174 12.6023H70.228L71.6371 8.18182H73.0007L70.995 14H69.4098L67.4013 8.18182H68.7678ZM74.101 14V8.18182H78.0215V9.19602H75.3311V10.5824H77.8197V11.5966H75.3311V12.9858H78.0328V14H74.101Z" fill="white"/>
<path d="M67.499 32.6934L74.7275 20.1733H60.2706L67.499 32.6934Z" fill="#007BFF"/>
</svg>
