<svg width="16" height="16" viewBox="0 0 16 16" fill="none" xmlns="http://www.w3.org/2000/svg">
<path d="M9.33398 10.6667C9.33398 9.40959 9.33398 8.78105 9.72451 8.39052C10.115 8 10.7436 8 12.0007 8C13.2577 8 13.8863 8 14.2768 8.39052C14.6673 8.78105 14.6673 9.40959 14.6673 10.6667C14.6673 11.9237 14.6673 12.5523 14.2768 12.9428C13.8863 13.3333 13.2577 13.3333 12.0007 13.3333C10.7436 13.3333 10.115 13.3333 9.72451 12.9428C9.33398 12.5523 9.33398 11.9237 9.33398 10.6667Z" stroke="#007BFF"/>
<path d="M9.33398 10.6665V7.90827C9.33398 5.46363 11.0111 3.3904 13.334 2.6665" stroke="#007BFF" stroke-linecap="round"/>
<path d="M1.33398 10.6667C1.33398 9.40959 1.33398 8.78105 1.72451 8.39052C2.11503 8 2.74357 8 4.00065 8C5.25773 8 5.88627 8 6.27679 8.39052C6.66732 8.78105 6.66732 9.40959 6.66732 10.6667C6.66732 11.9237 6.66732 12.5523 6.27679 12.9428C5.88627 13.3333 5.25773 13.3333 4.00065 13.3333C2.74357 13.3333 2.11503 13.3333 1.72451 12.9428C1.33398 12.5523 1.33398 11.9237 1.33398 10.6667Z" stroke="#007BFF"/>
<path d="M1.33398 10.6665V7.90827C1.33398 5.46363 3.01113 3.3904 5.33398 2.6665" stroke="#007BFF" stroke-linecap="round"/>
</svg>
