<svg width="342" height="48" viewBox="0 0 342 48" fill="none" xmlns="http://www.w3.org/2000/svg">
<path d="M0 6.4C0 4.15979 0 3.03969 0.435974 2.18404C0.819467 1.43139 1.43139 0.819467 2.18404 0.435974C3.03969 0 4.15979 0 6.4 0H335.6C337.84 0 338.96 0 339.816 0.435974C340.569 0.819467 341.181 1.43139 341.564 2.18404C342 3.03969 342 4.15979 342 6.4V41.6C342 43.8402 342 44.9603 341.564 45.816C341.181 46.5686 340.569 47.1805 339.816 47.564C338.96 48 337.84 48 335.6 48H6.39999C4.15979 48 3.03969 48 2.18404 47.564C1.43139 47.1805 0.819467 46.5686 0.435974 45.816C0 44.9603 0 43.8402 0 41.6V6.4Z" fill="#007BFF"/>
<g clip-path="url(#clip0_4480_67369)">
<circle cx="108.499" cy="23.9998" r="8.33333" stroke="white" stroke-width="1.25"/>
<path d="M111.377 24.3287C111.251 24.851 110.654 25.22 109.461 25.9581C108.307 26.6717 107.731 27.0285 107.266 26.8851C107.074 26.8258 106.899 26.7132 106.758 26.558C106.416 26.1829 106.416 25.4551 106.416 23.9997C106.416 22.5442 106.416 21.8165 106.758 21.4413C106.899 21.2862 107.074 21.1736 107.266 21.1143C107.731 20.9709 108.307 21.3276 109.461 22.0412C110.654 22.7793 111.251 23.1484 111.377 23.6707C111.429 23.8863 111.429 24.1131 111.377 24.3287Z" stroke="white" stroke-width="1.25" stroke-linejoin="round"/>
</g>
<path d="M135.038 21.6172C134.991 21.183 134.796 20.8449 134.451 20.603C134.11 20.361 133.665 20.2401 133.119 20.2401C132.734 20.2401 132.404 20.2981 132.129 20.4141C131.854 20.5301 131.644 20.6875 131.498 20.8864C131.352 21.0852 131.277 21.3123 131.274 21.5675C131.274 21.7796 131.322 21.9635 131.418 22.1193C131.518 22.2751 131.652 22.4077 131.821 22.517C131.99 22.6231 132.177 22.7126 132.383 22.7855C132.588 22.8584 132.795 22.9197 133.004 22.9695L133.959 23.2081C134.343 23.2976 134.713 23.4186 135.067 23.571C135.425 23.7235 135.745 23.9157 136.027 24.1477C136.312 24.3797 136.537 24.6598 136.703 24.9879C136.869 25.3161 136.952 25.7005 136.952 26.1413C136.952 26.7379 136.799 27.2633 136.494 27.7173C136.189 28.1681 135.749 28.5211 135.172 28.7763C134.598 29.0282 133.904 29.1541 133.089 29.1541C132.297 29.1541 131.609 29.0315 131.026 28.7862C130.446 28.541 129.991 28.183 129.663 27.7124C129.339 27.2417 129.163 26.6683 129.136 25.9922H130.951C130.978 26.3468 131.087 26.6418 131.279 26.8771C131.471 27.1125 131.722 27.2881 132.03 27.4041C132.341 27.5201 132.689 27.5781 133.074 27.5781C133.475 27.5781 133.826 27.5185 134.128 27.3991C134.433 27.2765 134.671 27.1075 134.844 26.892C135.016 26.6733 135.104 26.4181 135.107 26.1264C135.104 25.8613 135.026 25.6425 134.874 25.4702C134.721 25.2945 134.507 25.1487 134.232 25.0327C133.96 24.9134 133.642 24.8073 133.278 24.7145L132.119 24.4162C131.281 24.2008 130.618 23.8743 130.131 23.4368C129.647 22.996 129.405 22.411 129.405 21.6818C129.405 21.0819 129.567 20.5566 129.892 20.1058C130.22 19.6551 130.666 19.3054 131.229 19.0568C131.793 18.8049 132.431 18.679 133.143 18.679C133.866 18.679 134.499 18.8049 135.043 19.0568C135.589 19.3054 136.019 19.6518 136.33 20.0959C136.642 20.5367 136.803 21.0438 136.812 21.6172H135.038ZM142.246 21.3636V22.7557H137.856V21.3636H142.246ZM138.94 19.5341H140.739V26.7031C140.739 26.9451 140.776 27.1307 140.849 27.2599C140.925 27.3859 141.024 27.4721 141.147 27.5185C141.27 27.5649 141.406 27.5881 141.555 27.5881C141.667 27.5881 141.77 27.5798 141.863 27.5632C141.959 27.5466 142.032 27.5317 142.082 27.5185L142.385 28.9254C142.289 28.9586 142.151 28.995 141.972 29.0348C141.797 29.0746 141.581 29.0978 141.326 29.1044C140.875 29.1177 140.469 29.0497 140.108 28.9006C139.747 28.7481 139.46 28.5128 139.248 28.1946C139.039 27.8764 138.936 27.4787 138.94 27.0014V19.5341ZM145.864 29.1541C145.38 29.1541 144.945 29.0679 144.557 28.8956C144.172 28.7199 143.867 28.4614 143.642 28.12C143.42 27.7786 143.309 27.3577 143.309 26.8572C143.309 26.4264 143.388 26.0701 143.548 25.7884C143.707 25.5066 143.924 25.2812 144.199 25.1122C144.474 24.9432 144.784 24.8156 145.129 24.7294C145.477 24.6399 145.836 24.5753 146.207 24.5355C146.655 24.4891 147.018 24.4477 147.296 24.4112C147.575 24.3714 147.777 24.3118 147.903 24.2322C148.032 24.1494 148.097 24.0218 148.097 23.8494V23.8196C148.097 23.4451 147.986 23.1551 147.763 22.9496C147.541 22.7441 147.222 22.6413 146.804 22.6413C146.363 22.6413 146.013 22.7375 145.755 22.9297C145.5 23.1219 145.327 23.349 145.238 23.6108L143.557 23.3722C143.69 22.9081 143.909 22.5204 144.214 22.2088C144.519 21.8939 144.892 21.6586 145.332 21.5028C145.773 21.3438 146.26 21.2642 146.794 21.2642C147.162 21.2642 147.528 21.3073 147.893 21.3935C148.257 21.4796 148.59 21.6222 148.892 21.821C149.194 22.0166 149.436 22.2834 149.618 22.6214C149.803 22.9595 149.896 23.3821 149.896 23.8892V29H148.166V27.951H148.107C147.997 28.1631 147.843 28.362 147.644 28.5476C147.449 28.7299 147.202 28.8774 146.903 28.9901C146.608 29.0994 146.262 29.1541 145.864 29.1541ZM146.332 27.8317C146.693 27.8317 147.006 27.7604 147.271 27.6179C147.536 27.4721 147.74 27.2798 147.883 27.0412C148.029 26.8026 148.102 26.5424 148.102 26.2607V25.3608C148.045 25.4072 147.949 25.4503 147.813 25.4901C147.681 25.5298 147.531 25.5646 147.366 25.5945C147.2 25.6243 147.036 25.6508 146.874 25.674C146.711 25.6972 146.57 25.7171 146.451 25.7337C146.182 25.7701 145.942 25.8298 145.73 25.9126C145.518 25.9955 145.351 26.1115 145.228 26.2607C145.105 26.4065 145.044 26.5954 145.044 26.8274C145.044 27.1589 145.165 27.4091 145.407 27.5781C145.649 27.7472 145.957 27.8317 146.332 27.8317ZM151.622 29V21.3636H153.367V22.6364H153.447C153.586 22.1955 153.824 21.8558 154.162 21.6172C154.504 21.3752 154.893 21.2543 155.331 21.2543C155.43 21.2543 155.541 21.2592 155.664 21.2692C155.79 21.2758 155.894 21.2874 155.977 21.304V22.9595C155.901 22.933 155.78 22.9098 155.614 22.8899C155.452 22.8667 155.294 22.8551 155.142 22.8551C154.814 22.8551 154.519 22.9264 154.257 23.0689C153.998 23.2081 153.795 23.402 153.645 23.6506C153.496 23.8991 153.422 24.1858 153.422 24.5107V29H151.622ZM161.312 21.3636V22.7557H156.922V21.3636H161.312ZM158.006 19.5341H159.806V26.7031C159.806 26.9451 159.842 27.1307 159.915 27.2599C159.991 27.3859 160.091 27.4721 160.213 27.5185C160.336 27.5649 160.472 27.5881 160.621 27.5881C160.734 27.5881 160.836 27.5798 160.929 27.5632C161.025 27.5466 161.098 27.5317 161.148 27.5185L161.451 28.9254C161.355 28.9586 161.218 28.995 161.039 29.0348C160.863 29.0746 160.648 29.0978 160.392 29.1044C159.942 29.1177 159.536 29.0497 159.174 28.9006C158.813 28.7481 158.526 28.5128 158.314 28.1946C158.105 27.8764 158.003 27.4787 158.006 27.0014V19.5341ZM172.157 23.3821L170.517 23.5611C170.47 23.3954 170.389 23.2396 170.273 23.0938C170.16 22.9479 170.008 22.8303 169.816 22.7408C169.624 22.6513 169.388 22.6065 169.11 22.6065C168.735 22.6065 168.42 22.6877 168.165 22.8501C167.913 23.0125 167.789 23.223 167.792 23.4815C167.789 23.7036 167.87 23.8842 168.036 24.0234C168.205 24.1626 168.483 24.277 168.871 24.3665L170.174 24.6449C170.896 24.8007 171.433 25.0476 171.785 25.3857C172.139 25.7237 172.318 26.1662 172.321 26.7131C172.318 27.1937 172.177 27.6179 171.899 27.9858C171.624 28.3504 171.241 28.6354 170.75 28.8409C170.26 29.0464 169.696 29.1491 169.06 29.1491C168.125 29.1491 167.373 28.9536 166.803 28.5625C166.233 28.1681 165.893 27.6196 165.784 26.9169L167.539 26.7479C167.618 27.0926 167.787 27.3527 168.046 27.5284C168.304 27.7041 168.641 27.7919 169.055 27.7919C169.483 27.7919 169.826 27.7041 170.084 27.5284C170.346 27.3527 170.477 27.1357 170.477 26.8771C170.477 26.6584 170.392 26.4777 170.223 26.3352C170.058 26.1927 169.799 26.0833 169.448 26.0071L168.145 25.7337C167.413 25.5812 166.871 25.3243 166.52 24.9631C166.168 24.5985 165.994 24.1378 165.998 23.581C165.994 23.1103 166.122 22.7027 166.38 22.358C166.642 22.0099 167.005 21.7415 167.469 21.5526C167.937 21.3603 168.475 21.2642 169.085 21.2642C169.98 21.2642 170.684 21.4548 171.198 21.8359C171.715 22.2171 172.035 22.7325 172.157 23.3821ZM177.535 21.3636V22.7557H173.145V21.3636H177.535ZM174.229 19.5341H176.028V26.7031C176.028 26.9451 176.065 27.1307 176.138 27.2599C176.214 27.3859 176.313 27.4721 176.436 27.5185C176.559 27.5649 176.694 27.5881 176.844 27.5881C176.956 27.5881 177.059 27.5798 177.152 27.5632C177.248 27.5466 177.321 27.5317 177.371 27.5185L177.674 28.9254C177.578 28.9586 177.44 28.995 177.261 29.0348C177.086 29.0746 176.87 29.0978 176.615 29.1044C176.164 29.1177 175.758 29.0497 175.397 28.9006C175.036 28.7481 174.749 28.5128 174.537 28.1946C174.328 27.8764 174.225 27.4787 174.229 27.0014V19.5341ZM183.823 25.7884V21.3636H185.623V29H183.878V27.6428H183.798C183.626 28.0703 183.342 28.42 182.948 28.6918C182.557 28.9635 182.075 29.0994 181.501 29.0994C181.001 29.0994 180.558 28.9884 180.174 28.7663C179.793 28.541 179.494 28.2145 179.279 27.7869C179.064 27.3561 178.956 26.8357 178.956 26.2259V21.3636H180.756V25.9474C180.756 26.4313 180.888 26.8158 181.153 27.1009C181.418 27.3859 181.766 27.5284 182.197 27.5284C182.462 27.5284 182.719 27.4638 182.968 27.3345C183.216 27.2053 183.42 27.013 183.579 26.7578C183.742 26.4993 183.823 26.1761 183.823 25.7884ZM190.223 29.1342C189.623 29.1342 189.086 28.9801 188.612 28.6719C188.138 28.3636 187.764 27.9162 187.489 27.3295C187.214 26.7429 187.076 26.0303 187.076 25.1918C187.076 24.3433 187.215 23.6274 187.494 23.044C187.776 22.4574 188.155 22.0149 188.632 21.7166C189.11 21.415 189.642 21.2642 190.228 21.2642C190.676 21.2642 191.044 21.3404 191.332 21.4929C191.62 21.642 191.849 21.8227 192.018 22.0348C192.187 22.2436 192.318 22.4408 192.411 22.6264H192.485V18.8182H194.29V29H192.52V27.7969H192.411C192.318 27.9825 192.184 28.1797 192.008 28.3885C191.832 28.594 191.6 28.7696 191.312 28.9155C191.024 29.0613 190.661 29.1342 190.223 29.1342ZM190.725 27.6577C191.107 27.6577 191.431 27.5549 191.7 27.3494C191.968 27.1406 192.172 26.8506 192.311 26.4794C192.45 26.1082 192.52 25.6757 192.52 25.1818C192.52 24.688 192.45 24.2588 192.311 23.8942C192.175 23.5296 191.973 23.2462 191.705 23.044C191.44 22.8419 191.113 22.7408 190.725 22.7408C190.324 22.7408 189.99 22.8452 189.721 23.054C189.453 23.2628 189.25 23.5511 189.115 23.919C188.979 24.2869 188.911 24.7079 188.911 25.1818C188.911 25.6591 188.979 26.085 189.115 26.4595C189.254 26.8307 189.458 27.1241 189.726 27.3395C189.998 27.5516 190.331 27.6577 190.725 27.6577ZM197.242 31.8636C196.997 31.8636 196.77 31.8438 196.561 31.804C196.356 31.7675 196.192 31.7244 196.069 31.6747L196.487 30.2727C196.749 30.349 196.982 30.3854 197.188 30.3821C197.393 30.3788 197.574 30.3142 197.73 30.1882C197.889 30.0656 198.023 29.8601 198.132 29.5717L198.286 29.1591L195.517 21.3636H197.426L199.186 27.1307H199.266L201.031 21.3636H202.945L199.887 29.9247C199.745 30.3291 199.556 30.6754 199.321 30.9638C199.085 31.2554 198.797 31.4775 198.455 31.63C198.117 31.7857 197.713 31.8636 197.242 31.8636ZM207.574 29V18.8182H209.374V22.6264H209.449C209.541 22.4408 209.672 22.2436 209.841 22.0348C210.01 21.8227 210.239 21.642 210.528 21.4929C210.816 21.3404 211.184 21.2642 211.631 21.2642C212.221 21.2642 212.753 21.415 213.227 21.7166C213.704 22.0149 214.082 22.4574 214.361 23.044C214.642 23.6274 214.783 24.3433 214.783 25.1918C214.783 26.0303 214.646 26.7429 214.371 27.3295C214.095 27.9162 213.721 28.3636 213.247 28.6719C212.773 28.9801 212.236 29.1342 211.636 29.1342C211.199 29.1342 210.836 29.0613 210.547 28.9155C210.259 28.7696 210.027 28.594 209.851 28.3885C209.679 28.1797 209.545 27.9825 209.449 27.7969H209.344V29H207.574ZM209.339 25.1818C209.339 25.6757 209.409 26.1082 209.548 26.4794C209.691 26.8506 209.894 27.1406 210.16 27.3494C210.428 27.5549 210.753 27.6577 211.134 27.6577C211.532 27.6577 211.865 27.5516 212.133 27.3395C212.402 27.1241 212.604 26.8307 212.74 26.4595C212.879 26.085 212.949 25.6591 212.949 25.1818C212.949 24.7079 212.881 24.2869 212.745 23.919C212.609 23.5511 212.407 23.2628 212.138 23.054C211.87 22.8452 211.535 22.7408 211.134 22.7408C210.75 22.7408 210.423 22.8419 210.155 23.044C209.886 23.2462 209.682 23.5296 209.543 23.8942C209.407 24.2588 209.339 24.688 209.339 25.1818ZM218.029 18.8182V29H216.229V18.8182H218.029ZM223.127 29.1491C222.381 29.1491 221.735 28.9851 221.188 28.657C220.641 28.3288 220.217 27.8698 219.915 27.2798C219.617 26.6899 219.467 26.0005 219.467 25.2116C219.467 24.4228 219.617 23.7318 219.915 23.1385C220.217 22.5452 220.641 22.0845 221.188 21.7564C221.735 21.4283 222.381 21.2642 223.127 21.2642C223.872 21.2642 224.519 21.4283 225.065 21.7564C225.612 22.0845 226.035 22.5452 226.333 23.1385C226.635 23.7318 226.786 24.4228 226.786 25.2116C226.786 26.0005 226.635 26.6899 226.333 27.2798C226.035 27.8698 225.612 28.3288 225.065 28.657C224.519 28.9851 223.872 29.1491 223.127 29.1491ZM223.136 27.7074C223.541 27.7074 223.879 27.5964 224.151 27.3743C224.422 27.1489 224.625 26.8473 224.757 26.4695C224.893 26.0916 224.961 25.6707 224.961 25.2067C224.961 24.7393 224.893 24.3168 224.757 23.9389C224.625 23.5578 224.422 23.2545 224.151 23.0291C223.879 22.8037 223.541 22.6911 223.136 22.6911C222.722 22.6911 222.378 22.8037 222.102 23.0291C221.831 23.2545 221.627 23.5578 221.491 23.9389C221.358 24.3168 221.292 24.7393 221.292 25.2067C221.292 25.6707 221.358 26.0916 221.491 26.4695C221.627 26.8473 221.831 27.1489 222.102 27.3743C222.378 27.5964 222.722 27.7074 223.136 27.7074ZM231.56 29.1491C230.798 29.1491 230.143 28.9818 229.596 28.647C229.053 28.3123 228.634 27.8499 228.339 27.2599C228.047 26.6667 227.901 25.9839 227.901 25.2116C227.901 24.4361 228.05 23.7517 228.348 23.1584C228.647 22.5618 229.068 22.0978 229.611 21.7663C230.158 21.4316 230.804 21.2642 231.55 21.2642C232.17 21.2642 232.719 21.3786 233.196 21.6072C233.676 21.8326 234.059 22.1525 234.344 22.5668C234.629 22.9777 234.792 23.4583 234.831 24.0085H233.111C233.042 23.6406 232.876 23.334 232.614 23.0888C232.356 22.8402 232.009 22.7159 231.575 22.7159C231.207 22.7159 230.884 22.8153 230.606 23.0142C230.327 23.2098 230.11 23.4915 229.954 23.8594C229.802 24.2273 229.726 24.6681 229.726 25.1818C229.726 25.7022 229.802 26.1496 229.954 26.5241C230.107 26.8954 230.321 27.1821 230.596 27.3842C230.874 27.5831 231.201 27.6825 231.575 27.6825C231.84 27.6825 232.077 27.6328 232.286 27.5334C232.498 27.4306 232.675 27.2831 232.818 27.0909C232.96 26.8987 233.058 26.665 233.111 26.3899H234.831C234.788 26.9302 234.629 27.4091 234.354 27.8267C234.079 28.241 233.705 28.5658 233.231 28.8011C232.757 29.0331 232.2 29.1491 231.56 29.1491ZM237.866 26.6037L237.861 24.4311H238.149L240.894 21.3636H242.997L239.621 25.1222H239.248L237.866 26.6037ZM236.225 29V18.8182H238.025V29H236.225ZM241.018 29L238.532 25.5249L239.745 24.2571L243.171 29H241.018Z" fill="white"/>
<defs>
<clipPath id="clip0_4480_67369">
<rect width="20" height="20" fill="white" transform="translate(98.5 14)"/>
</clipPath>
</defs>
</svg>
