<svg preserveAspectRatio="none" width="100%" height="100%" overflow="visible" style="display: block;" viewBox="0 0 21.4998 21.5" fill="none" xmlns="http://www.w3.org/2000/svg">
<g id="elements">
<circle id="Ellipse 1545" cx="10.7499" cy="11.75" r="9" stroke="var(--stroke-0, #007BFF)" stroke-width="1.5" stroke-linecap="round"/>
<path id="Vector" d="M3.74988 17.75L1.74988 19.75M17.7499 17.75L19.7499 19.75" stroke="var(--stroke-0, #007BFF)" stroke-width="2.4" stroke-linecap="round" stroke-linejoin="round"/>
<path id="Vector_2" d="M17.7499 2.3197L18.3454 2.02195C19.1906 1.59932 19.5082 1.64769 20.1802 2.3197C20.8522 2.9917 20.9006 3.30924 20.4779 4.1545L20.1802 4.75M3.74988 2.3197L3.15438 2.02195C2.30912 1.59932 1.99158 1.64769 1.31958 2.3197C0.647573 2.9917 0.5992 3.30924 1.02183 4.1545L1.31958 4.75" stroke="var(--stroke-0, #007BFF)" stroke-width="1.5" stroke-linecap="round"/>
<path id="Vector_3" d="M10.7499 8.25V12.25L12.7499 14.25" stroke="var(--stroke-0, #007BFF)" stroke-width="1.5" stroke-linecap="round" stroke-linejoin="round"/>
<path id="Vector_4" d="M10.7499 2.25V0.75" stroke="var(--stroke-0, #007BFF)" stroke-width="1.5" stroke-linecap="round" stroke-linejoin="round"/>
<path id="Vector_5" d="M8.74988 0.75H12.7499" stroke="var(--stroke-0, #007BFF)" stroke-width="1.5" stroke-linecap="round" stroke-linejoin="round"/>
</g>
</svg>
