<svg preserveAspectRatio="none" width="100%" height="100%" overflow="visible" style="display: block;" viewBox="0 0 14.8833 18.1918" fill="none" xmlns="http://www.w3.org/2000/svg">
<g id="elements">
<path id="Vector" d="M1.72738 10.775C1.12279 9.7818 0.775 8.61813 0.775 7.37405C0.775 3.7295 3.75977 0.775 7.44167 0.775C11.1236 0.775 14.1083 3.7295 14.1083 7.37405C14.1083 8.61813 13.7605 9.7818 13.156 10.775" stroke="var(--stroke-0, #007BFF)" stroke-width="1.55" stroke-linecap="round"/>
<path id="Vector_2" d="M9.10833 7.44167C8.59795 7.97766 8.03425 8.275 7.44167 8.275C6.84908 8.275 6.28538 7.97766 5.775 7.44167" stroke="var(--stroke-0, #007BFF)" stroke-width="1.5" stroke-linecap="round"/>
<path id="Vector_3" d="M3.59406 13.3569C3.5175 13.1264 3.47922 13.0111 3.48368 12.9177C3.49312 12.7202 3.61762 12.5469 3.80131 12.4754C3.88816 12.4417 4.00921 12.4417 4.25131 12.4417H10.632C10.8741 12.4417 10.9952 12.4417 11.082 12.4754C11.2657 12.5469 11.3902 12.7202 11.3997 12.9177C11.4041 13.0111 11.3658 13.1264 11.2893 13.3569C11.1478 13.7829 11.077 13.9959 10.9679 14.1684C10.7393 14.5297 10.381 14.7889 9.96713 14.8923C9.76958 14.9417 9.54587 14.9417 9.09845 14.9417H5.78489C5.33746 14.9417 5.11375 14.9417 4.9162 14.8923C4.50236 14.7889 4.14401 14.5297 3.91541 14.1684C3.80629 13.9959 3.73555 13.7829 3.59406 13.3569Z" stroke="var(--stroke-0, #007BFF)" stroke-width="1.5"/>
<path id="Vector_4" d="M9.94167 14.9417L9.8339 15.4805C9.71606 16.0697 9.65714 16.3643 9.52511 16.5971C9.32097 16.9571 8.9902 17.2283 8.59718 17.3579C8.34298 17.4417 8.04254 17.4417 7.44167 17.4417C6.84079 17.4417 6.54035 17.4417 6.28615 17.3579C5.89313 17.2283 5.56237 16.9571 5.35823 16.5971C5.2262 16.3643 5.16728 16.0697 5.04943 15.4805L4.94167 14.9417" stroke="var(--stroke-0, #007BFF)" stroke-width="1.5"/>
<path id="Vector_5" d="M7.44167 12.025V8.275" stroke="var(--stroke-0, #007BFF)" stroke-width="1.5" stroke-linecap="round" stroke-linejoin="round"/>
</g>
</svg>
