<svg preserveAspectRatio="none" width="100%" height="100%" overflow="visible" style="display: block;" viewBox="0 0 20.4 20.4" fill="none" xmlns="http://www.w3.org/2000/svg">
<g id="elements">
<path id="Vector" d="M19.2 19.2H8.2C4.90017 19.2 3.25026 19.2 2.22513 18.1749C1.2 17.1497 1.2 15.4998 1.2 12.2V1.2" stroke="var(--stroke-0, #22C55E)" stroke-width="2.4" stroke-linecap="round"/>
<path id="Vector_2" d="M15.2086 5.2C15.2086 4.78579 15.5444 4.45 15.9586 4.45C16.3728 4.45 16.7086 4.78579 16.7086 5.2L15.9586 5.2L15.2086 5.2ZM5.2 15.95C4.78579 15.95 4.45 15.6142 4.45 15.2C4.45 14.7858 4.78579 14.45 5.2 14.45L5.2 15.2L5.2 15.95ZM14.2651 6.71223C13.9822 7.01479 13.5076 7.03073 13.205 6.74783C12.9025 6.46494 12.8865 5.99033 13.1694 5.68777L13.7172 6.2L14.2651 6.71223ZM14.6907 5.15887L14.1429 4.64664V4.64664L14.6907 5.15887ZM17.2265 5.15887L17.7744 4.64664V4.64664L17.2265 5.15887ZM18.7478 5.68777C19.0307 5.99033 19.0148 6.46494 18.7122 6.74783C18.4097 7.03073 17.9351 7.01479 17.6522 6.71223L18.2 6.2L18.7478 5.68777ZM15.9586 4.2L15.9586 3.45V3.45L15.9586 4.2ZM15.9586 5.2L16.7086 5.2C16.7086 8.71066 15.4248 11.4267 13.2961 13.2543C11.1829 15.0686 8.3058 15.95 5.2 15.95L5.2 15.2L5.2 14.45C8.03603 14.45 10.5383 13.6451 12.3189 12.1162C14.0841 10.6007 15.2086 8.31675 15.2086 5.2L15.9586 5.2ZM13.7172 6.2L13.1694 5.68777L14.1429 4.64664L14.6907 5.15887L15.2385 5.6711L14.2651 6.71223L13.7172 6.2ZM17.2265 5.15887L17.7744 4.64664L18.7478 5.68777L18.2 6.2L17.6522 6.71223L16.6787 5.6711L17.2265 5.15887ZM14.6907 5.15887L14.1429 4.64664C14.4269 4.34283 14.691 4.05804 14.9354 3.85863C15.1947 3.64704 15.5271 3.45 15.9586 3.45L15.9586 4.2L15.9586 4.95C16.0188 4.95 16.0161 4.91277 15.8837 5.02081C15.7364 5.14102 15.5522 5.33566 15.2385 5.6711L14.6907 5.15887ZM17.2265 5.15887L16.6787 5.6711C16.3651 5.33567 16.1809 5.14102 16.0335 5.02081C15.9011 4.91277 15.8984 4.95 15.9586 4.95L15.9586 4.2L15.9586 3.45C16.3902 3.45 16.7226 3.64704 16.9819 3.85863C17.2263 4.05805 17.4903 4.34283 17.7744 4.64664L17.2265 5.15887Z" fill="var(--stroke-0, #22C55E)"/>
</g>
</svg>
