<svg preserveAspectRatio="none" width="100%" height="100%" overflow="visible" style="display: block;" viewBox="0 0 11.4994 21.5" fill="none" xmlns="http://www.w3.org/2000/svg">
<g id="elements">
<path id="Vector" d="M5.74971 13.75C5.74971 18.25 7.74971 18.75 9.74971 18.75C9.74971 15.75 8.24971 13.75 5.74971 13.75ZM5.74971 13.75C5.74971 18.25 3.74971 18.75 1.74971 18.75C1.74971 15.75 3.24971 13.75 5.74971 13.75Z" stroke="var(--stroke-0, #EF9F25)" stroke-width="1.5" stroke-linecap="round" stroke-linejoin="round"/>
<path id="Vector_2" d="M3.74971 18.75C3.74971 18.75 4.24971 20.25 5.74971 20.75C7.24971 20.25 7.74971 18.75 7.74971 18.75" stroke="var(--stroke-0, #EF9F25)" stroke-width="1.5" stroke-linecap="round" stroke-linejoin="round"/>
<path id="Vector_3" d="M5.74971 13.75L5.74971 7.75" stroke="var(--stroke-0, #EF9F25)" stroke-width="1.5" stroke-linecap="round" stroke-linejoin="round"/>
<path id="Vector_4" d="M5.74971 9.75C5.99971 10.4167 6.94971 11.75 8.74971 11.75" stroke="var(--stroke-0, #EF9F25)" stroke-width="1.5" stroke-linecap="round" stroke-linejoin="round"/>
<path id="Vector_5" d="M6.90058 7.75H4.59884C2.54645 7.75 1.52026 7.75 1.01381 7.15329C0.507362 6.55659 0.789279 5.67967 1.35311 3.92584L1.44675 3.63457C1.89042 2.25451 2.11226 1.56448 2.7032 1.16222L2.72968 1.14447C3.32723 0.750001 4.13472 0.750001 5.74971 0.750001C7.3647 0.750001 8.17219 0.750001 8.76974 1.14447L8.79622 1.16222C9.38716 1.56448 9.609 2.25451 10.0527 3.63457L10.1463 3.92584C10.7101 5.67967 10.9921 6.55659 10.4856 7.15329C9.97916 7.75 8.95296 7.75 6.90058 7.75Z" stroke="var(--stroke-0, #EF9F25)" stroke-width="1.5" stroke-linecap="round" stroke-linejoin="round"/>
</g>
</svg>
