<svg preserveAspectRatio="none" width="100%" height="100%" overflow="visible" style="display: block;" viewBox="0 0 14.9333 14.9333" fill="none" xmlns="http://www.w3.org/2000/svg">
<g id="elements">
<path id="Vector" d="M8.13333 14.1004C7.91406 14.1222 7.69167 14.1333 7.46667 14.1333C3.78477 14.1333 0.8 11.1486 0.8 7.46667C0.8 3.78477 3.78477 0.8 7.46667 0.8C11.1486 0.8 14.1333 3.78477 14.1333 7.46667C14.1333 7.92329 14.0874 8.36919 14 8.8" stroke="var(--stroke-0, #22C55E)" stroke-width="1.6" stroke-linecap="round" stroke-linejoin="round"/>
<path id="Vector_2" d="M6.13333 8.13333H5.2714C4.96957 8.13333 4.6801 8.25324 4.46667 8.46667M8.8 8.13333H9.66193C9.96376 8.13333 10.2532 8.25324 10.4667 8.46667" stroke="var(--stroke-0, #22C55E)" stroke-linecap="round" stroke-linejoin="round"/>
<circle id="Ellipse 1771" cx="1.33333" cy="1.33333" r="1.33333" transform="matrix(1 0 0 -1 6.13333 6.13333)" stroke="var(--stroke-0, #22C55E)" stroke-linecap="round" stroke-linejoin="round"/>
<path id="Vector_3" d="M10.8 14.1333H12.7649C13.1783 14.1333 13.385 14.1333 13.4401 13.9999C13.4951 13.8665 13.3545 13.7065 13.0732 13.3865L11.4564 11.5469C11.1751 11.2268 11.0345 11.0668 11.0895 10.9334C11.1446 10.8 11.3513 10.8 11.7647 10.8H13.4667" stroke="var(--stroke-0, #22C55E)" stroke-linecap="round" stroke-linejoin="round"/>
</g>
</svg>
