<svg preserveAspectRatio="none" width="100%" height="100%" overflow="visible" style="display: block;" viewBox="0 0 14.6333 14.6332" fill="none" xmlns="http://www.w3.org/2000/svg">
<g id="elements">
<path id="Vector" d="M5.05042 1.16667C4.90781 1.21996 4.76757 1.27808 4.62988 1.34084M13.2784 10.0341C13.3465 9.88661 13.4094 9.73617 13.4666 9.583M11.7991 12.0764C11.9136 11.9696 12.0242 11.8587 12.1308 11.744M9.64587 13.4149C9.77525 13.3661 9.90267 13.3133 10.028 13.2567M7.57061 13.8293C7.41665 13.8346 7.26164 13.8346 7.10768 13.8293M4.65814 13.2602C4.77867 13.3145 4.90115 13.3652 5.02543 13.4122M2.58163 11.7805C2.67276 11.8771 2.76679 11.9709 2.86359 12.0618M1.22173 9.60967C1.27165 9.74148 1.32571 9.87126 1.38374 9.99885M0.803243 7.50356C0.798913 7.36481 0.798926 7.22521 0.803243 7.08628M1.21689 4.99143C1.26594 4.8611 1.31902 4.73275 1.376 4.60653M2.57061 2.81949C2.66705 2.71676 2.76676 2.61715 2.8696 2.52082" stroke="var(--stroke-0, #007BFF)" stroke-width="1.6" stroke-linecap="round" stroke-linejoin="round"/>
<path id="Vector_2" d="M8.46659 7.16666C8.46659 7.71895 8.01887 8.16666 7.46659 8.16666C6.9143 8.16666 6.46659 7.71895 6.46659 7.16666C6.46659 6.61438 6.9143 6.16666 7.46659 6.16666M8.46659 7.16666C8.46659 6.61438 8.01887 6.16666 7.46659 6.16666M8.46659 7.16666H10.1333M7.46659 6.16666V3.16666" stroke="var(--stroke-0, #007BFF)" stroke-linecap="round"/>
<path id="Vector_3" d="M14.1333 7.16667C14.1333 3.48477 11.1485 0.5 7.4666 0.5" stroke="var(--stroke-0, #007BFF)" stroke-linecap="round"/>
</g>
</svg>
