<svg preserveAspectRatio="none" width="100%" height="100%" overflow="visible" style="display: block;" viewBox="0 0 29.0666 29.0672" fill="none" xmlns="http://www.w3.org/2000/svg">
<g id="elements">
<path id="Vector" d="M14.5333 14.5338V22.5338" stroke="var(--stroke-0, white)" stroke-width="3.2" stroke-linecap="round"/>
<path id="Vector_2" d="M14.5333 22.5338C12.3018 22.5338 10.3596 23.8832 9.35685 25.8738C8.87792 26.8245 9.56516 27.8672 10.4783 27.8672H18.5883C19.5015 27.8672 20.1887 26.8245 19.7098 25.8738C18.707 23.8832 16.7648 22.5338 14.5333 22.5338Z" stroke="var(--stroke-0, white)" stroke-width="2.4" stroke-linecap="round"/>
<path id="Vector_3" d="M5.19997 5.20051H3.84625C2.53089 5.20051 1.87321 5.20051 1.46687 5.69454C1.06052 6.18858 1.17968 6.7418 1.41801 7.84824C1.87323 9.96165 2.86062 11.8184 4.19851 13.2005" stroke="var(--stroke-0, white)" stroke-width="2.4" stroke-linecap="round"/>
<path id="Vector_4" d="M23.8666 5.20051H25.2204C26.5357 5.20051 27.1934 5.20051 27.5998 5.69454C28.0061 6.18858 27.8869 6.7418 27.6486 7.84824C27.1934 9.96165 26.206 11.8184 24.8681 13.2005" stroke="var(--stroke-0, white)" stroke-width="2.4" stroke-linecap="round"/>
<path id="Vector_5" d="M14.5333 14.5338C19.688 14.5338 23.8666 10.378 23.8666 5.25145C23.8666 5.11703 23.8638 4.98326 23.8581 4.85023C23.8011 3.51792 23.7726 2.85177 22.8697 2.02614C21.9668 1.20051 20.9663 1.20051 18.9654 1.20051H10.1013C8.10033 1.20051 7.09986 1.20051 6.19693 2.02613C5.29399 2.85176 5.26551 3.51792 5.20854 4.85023C5.20285 4.98326 5.19997 5.11703 5.19997 5.25145C5.19997 10.378 9.37865 14.5338 14.5333 14.5338Z" stroke="var(--stroke-0, white)" stroke-width="2.4" stroke-linecap="round"/>
</g>
</svg>
