<svg preserveAspectRatio="none" width="100%" height="100%" overflow="visible" style="display: block;" viewBox="0 0 243 130" fill="none" xmlns="http://www.w3.org/2000/svg">
<g id="Frame 2147225095">
<path id="Vector" d="M159.751 20.3883C162.072 18.5905 164.367 17.6888 167.287 18.2245C169.502 18.6222 171.472 19.9739 172.747 21.9697C175.86 26.832 173.506 34.8391 171.914 39.9748C169.697 38.9079 166.895 37.7983 164.858 36.7567C163.379 37.8524 161.507 39.3157 160.015 40.3063C160.899 41.0199 161.273 41.2851 161.805 42.3378L172.579 47.5268C173.801 48.1159 177.158 49.6488 178.119 50.3553L188.609 39.0898C189.563 38.0742 190.485 37.2867 191.517 36.2685C191.973 35.8182 192.174 33.7488 192.578 33.259C193.336 32.3406 195.658 28.216 196.25 27.6878C197.86 26.2524 202.207 23.064 204.292 22.343C204.459 22.2849 204.645 22.5356 204.814 22.692C205.164 24.1401 202.936 25.3489 201.909 26.0674C203.197 25.9275 205.087 25.5555 206.182 26.2572L206.271 26.5651C205.702 27.4787 204.301 27.8409 203.354 28.0393C202.663 28.183 201.97 28.3195 201.276 28.4489C202.529 28.7994 204.259 29.1202 205.15 30.1004L205.218 30.3871C204.396 31.2424 199.906 30.3597 198.199 30.5714C197.698 31.1366 197.605 32.7101 197.519 33.5263C198.883 33.0578 201.984 31.7584 203.161 32.1807C203.552 32.6481 203.453 32.4182 203.526 33.0545C203.178 33.7978 201.391 34.8503 200.663 35.0449C198.612 35.5916 197.318 37.8171 195.595 38.2054C194.29 39.8748 193.857 41.0846 192.777 42.7317C189.794 47.2817 186.667 51.7699 183.496 56.1696C182.36 57.7246 181.039 59.2613 179.169 59.4966C177.49 59.7075 176.668 58.2837 175.285 57.7145C169.482 56.0991 163.552 54.7487 157.791 52.9683C156.752 54.8185 154.18 59.4933 152.067 60.2026C151.405 60.4247 149.76 59.7159 148.931 59.7755C145.978 59.9884 142.135 60.6759 139.251 60.7701C138.888 61.1074 138.502 61.4533 138.154 61.8053C144.857 62.8598 152.228 64.9249 158.915 66.3311C160.089 66.5778 162.292 68.2635 162.997 69.2972C163.988 70.7247 164.399 72.5264 164.134 74.2877C163.509 78.3247 160.865 78.9706 158.001 80.6954C156.492 81.6047 154.95 82.5958 153.452 83.5391L133.046 96.4471C131.71 97.2849 129.527 97.6011 128.679 98.228C128.681 98.2592 128.682 98.2901 128.683 98.3211C128.741 100.45 125.259 110.117 124.525 113.216C123.728 113.326 122.862 113.465 122.068 113.535C121.936 111.297 121.79 109.045 121.683 106.808L121.298 100.315C121.156 97.899 120.889 94.5982 120.578 92.2088C122.133 91.8802 125.492 91.1703 127.246 90.7972C127.331 90.8551 127.417 90.913 127.502 90.9708L127.681 91.6984C129.548 92.3573 144.196 76.9972 146.372 74.9247C142.422 75.4102 138.468 75.8564 134.511 76.2627C132.355 76.4949 129.491 76.8865 127.359 76.9949C124.342 79.6117 121.793 82.2679 118.914 85.0301L106.3 96.9707C104.687 98.5 102.964 100.116 101.458 101.764C99.6353 103.758 97.6178 104.146 95.1534 103.298C86.5451 107.8 77.1712 111.351 68.4875 115.764C67.1554 116.441 65.639 115.758 64.6613 116.327C64.5864 116.605 64.2697 117.856 64.1623 118.032C61.7722 121.965 59.3087 125.926 57.1261 130L54.7097 129.916C55.1307 126.945 55.743 123.658 56.3187 120.705C56.6233 118.654 57.1917 116.521 57.2843 114.486L57.8981 108.729C59.2734 108.764 63.4494 108.807 64.56 109.081C64.659 109.262 64.7013 109.349 64.7735 109.54L64.8372 109.71C67.1927 110.104 74.8011 103.603 76.5241 101.667C81.7735 96.0692 84.4808 92.2771 92.6403 93.5729C93.4506 92.5294 93.9743 92.1624 95.0208 91.5005C97.3444 88.6847 99.6948 85.6679 101.985 82.8049C104.537 79.5003 107.143 76.2447 109.801 73.0393C111.038 71.5678 112.265 70.0854 113.48 68.5919C113.696 62.2756 116.712 58.3129 122.702 57.9584C123.361 57.1681 124.132 56.3775 124.837 55.6255C125.531 55.0837 127.558 52.7831 128.249 52.0232L130.373 49.8132C128.131 49.5105 124.296 49.5894 121.969 49.5488C117.209 49.4638 112.449 49.3526 107.69 49.215C106.348 49.297 104.48 49.2374 103.144 49.1153C103.942 48.9783 104.796 48.8828 105.603 48.7773C112.044 47.7431 119.277 46.5721 125.621 45.2199C117.801 44.338 108.663 44.8166 100.666 43.9705C99.8095 46.8601 99.8873 49.212 97.3432 51.5035C96.7953 51.5953 97.0158 51.6385 96.5177 51.3207C96.0313 49.9211 97.654 47.6626 97.5012 46.3302L97.2699 46.2505C95.6171 47.4091 93.983 49.248 92.369 50.516C91.6055 51.1154 89.7241 53.2592 88.9634 51.9476C89.0584 50.7946 90.4946 49.413 91.2473 48.5488C89.9589 49.3627 88.3779 51.0758 86.7809 50.9596L86.6288 50.6624C86.9372 49.2582 88.9794 47.5915 90.0344 46.6249C88.8616 47.2005 87.3401 48.6445 86.2581 48.5971C85.8714 48.2179 85.9927 48.3433 85.85 47.6918C86.1285 46.6916 88.8544 44.8887 89.8825 44.0281C88.8374 44.4496 87.2157 45.5318 86.1664 45.0795L86.0684 44.7626C86.1563 44.2192 86.3707 43.9743 86.6678 43.5367C87.306 43.369 90.6869 41.1059 91.3804 40.6192C93.215 39.5926 95.0462 38.5541 96.9013 37.5724C97.1942 37.4174 98.2306 37.457 98.2235 37.4631C102.39 33.9813 106.962 31.1488 111.389 28.0728C113.569 26.5572 115.815 24.9893 118.09 23.6523C118.632 23.3404 119.971 22.8458 120.571 23.0744C122.423 23.7802 123.967 24.5977 125.877 25.2121L137.04 28.7124C142.404 30.3777 148.499 31.8606 153.006 35.4573C154.563 34.1854 156.85 32.4058 158.519 31.3031C157.243 28.9522 156.911 26.5876 157.549 23.9279C157.591 23.7513 157.636 23.5754 157.682 23.4C156.693 22.2801 153.774 19.0366 153.072 17.9174C154.92 18.5187 157.981 19.6016 159.751 20.3883Z" fill="var(--fill-0, #030507)"/>
<path id="Vector_2" d="M137.792 39.3398L138.139 39.4867C138.104 40.5019 131.64 46.8459 130.787 48.2879C130.688 48.4547 130.82 49.0747 130.867 49.2762C130.706 49.4889 130.593 49.6779 130.373 49.8132C128.131 49.5104 124.296 49.5894 121.969 49.5488C117.209 49.4637 112.449 49.3526 107.69 49.215C106.348 49.297 104.48 49.2373 103.144 49.1153C103.942 48.9782 104.796 48.8828 105.603 48.7772C112.044 47.743 119.278 46.572 125.621 45.2199C117.801 44.3379 108.663 44.8166 100.666 43.9704C100.959 42.37 100.311 40.8075 102.112 40.5694C102.519 40.5159 102.925 40.3479 103.302 40.1725L103.44 40.1075C105.279 40.5397 116.742 39.9019 119.353 39.8428L130.878 39.6499C132.717 39.6179 136.024 39.6192 137.792 39.3398Z" fill="var(--fill-0, #FF6B35)"/>
<path id="Vector_3" d="M103.144 49.1154C103.942 48.9784 104.796 48.883 105.603 48.7774C106.205 49.2081 106.964 49.0324 107.69 49.2152C106.348 49.2971 104.48 49.2375 103.144 49.1154Z" fill="var(--fill-0, #FFD1C0)"/>
<path id="Vector_4" d="M103.44 40.1075C106.793 38.5462 110.137 36.9623 113.472 35.3555C115.363 34.4464 117.463 33.3526 119.419 32.6519C119.641 32.5722 121.334 32.3098 121.722 32.2311C127.1 34.5444 132.457 36.914 137.792 39.3398C136.024 39.6192 132.717 39.6179 130.878 39.6499L119.353 39.8428C116.742 39.9019 105.279 40.5397 103.44 40.1075Z" fill="var(--fill-0, white)"/>
<path id="Vector_5" d="M118.514 62.082C123.208 57.7371 129.173 60.525 134.526 61.5214C142.212 62.9517 149.957 65.2033 157.651 66.4901C156.666 66.7502 155.909 66.919 154.975 67.3649C152.698 69.1076 151.833 70.5591 151.789 73.6817C143.725 74.8342 135.574 75.4752 127.492 76.4508C124.524 76.8089 121.611 76.982 119.141 74.8491C117.289 73.2843 116.328 71.3146 116.03 68.8117C116.016 68.6927 116.003 68.5737 115.991 68.4544C115.982 68.3166 115.98 68.1783 115.984 68.0402C116.024 65.7482 116.988 63.6451 118.514 62.082Z" fill="var(--fill-0, #007BFF)"/>
<path id="Vector_6" d="M115.991 68.4538C119.928 70.0971 122.628 70.0801 126.764 69.5786C128.37 69.3839 130.123 69.3009 131.747 69.1469C136.823 68.6652 141.913 68.3408 146.992 67.9031C149.382 67.7132 152.097 67.2249 154.46 67.3554L154.975 67.3643C152.698 69.107 151.833 70.5585 151.789 73.6811C143.725 74.8336 135.574 75.4746 127.492 76.4502C124.524 76.8083 121.611 76.9814 119.141 74.8485C117.289 73.2837 116.328 71.314 116.03 68.8111C116.016 68.6921 116.003 68.5731 115.991 68.4538Z" fill="var(--fill-0, #0057B5)"/>
<path id="Vector_7" d="M118.514 62.082C123.208 57.7371 129.173 60.525 134.526 61.5214C142.212 62.9517 149.957 65.2033 157.651 66.4901C156.666 66.7502 155.909 66.919 154.975 67.3649L154.46 67.356C153.803 67.1875 151.708 66.9238 150.92 66.7936L142.931 65.4637C136.621 64.4087 130.277 63.355 123.975 62.2375C122.593 61.9929 119.078 62.2992 118.514 62.082Z" fill="var(--fill-0, #B0D6FF)"/>
<path id="Vector_8" d="M151.26 37.3602C151.132 36.0724 151.018 35.6235 150.677 34.3883C152.094 35.4339 157.418 38.9184 158.067 39.9943L158.146 40.8429C158.25 42.1066 158.335 43.3717 158.402 44.6381L158.786 50.0121C157.485 52.5695 154.546 58.5054 151.769 59.6391C151.356 59.8074 150.416 59.6175 149.975 59.4736C147.859 58.3549 142.97 54.7727 140.504 53.2271C140.426 53.1375 140.33 53.0287 140.218 52.9C139.853 49.955 139.64 45.7804 139.466 42.9418C140.808 42.9958 142.295 42.9631 143.516 43.5395C147.857 44.6292 150.902 42.1098 151.26 37.3602Z" fill="var(--fill-0, #007BFF)"/>
<path id="Vector_9" d="M158.402 44.6386L158.786 50.0126C157.485 52.5701 154.546 58.506 151.768 59.6396C151.356 59.8079 150.416 59.6181 149.975 59.4742C153.623 56.9342 155.874 47.946 158.402 44.6386Z" fill="var(--fill-0, #B0D6FF)"/>
<path id="Vector_10" d="M139.466 42.9421C140.808 42.9961 142.295 42.9634 143.516 43.5398C143.425 43.6235 143.314 43.7258 143.182 43.8471C142.381 46.6522 141.273 50.5365 140.504 53.2274C140.426 53.1378 140.33 53.029 140.218 52.9003C139.853 49.9553 139.64 45.7807 139.466 42.9421Z" fill="var(--fill-0, #0057B5)"/>
<path id="Vector_11" d="M151.26 37.3602C151.132 36.0724 151.018 35.6235 150.677 34.3883C152.094 35.4339 157.418 38.9184 158.067 39.9943L158.146 40.8429C158.131 41.3419 158.157 41.4794 157.977 41.9253C155.84 40.7985 153.393 38.3984 151.26 37.3602Z" fill="var(--fill-0, #B0D6FF)"/>
<path id="Vector_12" d="M147.221 74.926C148.342 74.6631 150.617 74.441 151.834 74.2832L152.323 76.0884C153.647 78.7996 155.198 79.6323 157.942 80.0257C151.062 84.3596 139.365 91.8284 132.079 96.3535C131.994 96.3377 131.908 96.3223 131.823 96.3068L131.579 95.7794C131.678 94.9523 131.16 91.6429 131.018 90.6252C136.535 85.4367 141.783 80.0619 147.221 74.926Z" fill="var(--fill-0, #007BFF)"/>
<path id="Vector_13" d="M147.221 74.926C148.342 74.6631 150.617 74.441 151.834 74.2832L152.323 76.0884C150.625 77.3066 148.177 79.7538 146.608 81.2598L137.692 89.8357C136.677 90.8059 132.098 94.9132 131.579 95.7794C131.678 94.9523 131.16 91.6429 131.018 90.6252C136.535 85.4367 141.783 80.0619 147.221 74.926Z" fill="var(--fill-0, #0057B5)"/>
<path id="Vector_14" d="M75.0914 103.914C81.3133 98.0248 82.852 93.035 92.3559 94.0595C91.6547 95.561 91.5165 96.4358 91.5799 98.0913C92.0475 100.362 92.5938 101.585 94.4026 102.997C89.7281 105.458 84.5748 107.479 79.8361 109.839L77.9885 107.584C77.0325 106.352 76.0666 105.129 75.0914 103.914Z" fill="var(--fill-0, #0057B5)"/>
<path id="Vector_15" d="M77.9886 107.585C78.8397 106.804 90.9458 98.226 91.58 98.0915C92.0475 100.362 92.5938 101.586 94.4026 102.998C89.7281 105.458 84.5748 107.479 79.8362 109.839L77.9886 107.585Z" fill="var(--fill-0, #007BFF)"/>
<path id="Vector_16" d="M135.148 31.7131C136.716 31.2913 138.875 30.8423 140.327 30.3611C144.675 31.6575 150.789 32.2138 149.024 38.7737C146.468 43.8399 142.083 40.5137 138.341 38.8806C134.539 37.2469 130.748 35.5806 126.971 33.8817L135.148 31.7131Z" fill="var(--fill-0, #007BFF)"/>
<path id="Vector_17" d="M135.148 31.7131C136.716 31.2913 138.875 30.8423 140.327 30.3611C144.674 31.6575 150.789 32.2138 149.024 38.7737C147.089 35.6278 144.762 35.5303 141.826 34.3238C140.504 33.7804 135.966 32.4569 135.148 31.7131Z" fill="var(--fill-0, #B0D6FF)"/>
<path id="Vector_18" d="M120.139 82.5964L120.517 82.6063C120.404 82.9606 104.869 97.5542 102.997 99.3206C103.384 96.8033 103.201 95.6828 102.059 93.5472C100.308 91.2897 98.7242 90.8204 96.0887 91.0473L98.0719 88.4858L120.139 82.5964Z" fill="var(--fill-0, #0057B5)"/>
<path id="Vector_19" d="M138.539 40.3116C138.862 40.703 139.498 51.7007 139.618 53.2559C142.13 55.1119 146.004 57.5361 148.66 59.2773C146.179 59.5712 143.681 59.724 141.171 60.0255C140.81 60.0509 140.422 60.0943 140.062 60.0626C139.198 59.9862 132.116 50.0602 131.109 48.6915L138.539 40.3116Z" fill="var(--fill-0, #0057B5)"/>
<path id="Vector_20" d="M156.939 67.2475C158.955 66.8362 161.019 67.6328 162.337 69.3306C163.655 71.0282 164.021 73.3624 163.294 75.4338C162.567 77.5055 160.86 78.9912 158.831 79.3191C155.775 79.8129 152.916 77.5748 152.401 74.2854C151.885 70.9963 153.903 67.8668 156.939 67.2475Z" fill="var(--fill-0, #475569)"/>
<path id="Vector_21" d="M157.033 68.3294C159.524 67.765 161.97 69.4735 162.515 72.1579C163.061 74.8419 161.5 77.4991 159.02 78.112C156.506 78.7328 154.007 77.0217 153.455 74.3031C152.903 71.5843 154.51 68.901 157.033 68.3294Z" fill="var(--fill-0, #030507)"/>
<path id="Vector_22" d="M157.509 68.8487C159.72 68.5754 161.731 70.2535 162.044 72.633C162.357 75.0128 160.858 77.2289 158.663 77.6311C157.19 77.9012 155.697 77.286 154.764 76.0249C153.832 74.7636 153.607 73.0551 154.178 71.5635C154.748 70.0718 156.024 69.0322 157.509 68.8487Z" fill="var(--fill-0, #475569)"/>
<path id="Vector_23" d="M116.237 25.3965C115.642 27.5035 115.554 28.3078 116.422 30.3061C117.196 31.3725 117.524 31.6542 118.607 32.3313C116.761 33.1381 103.069 39.8037 102.514 39.7225C102.213 39.3291 102.104 39.1931 101.889 38.7421L100.429 36.2651C105.538 32.5491 111.234 29.1615 116.237 25.3965Z" fill="var(--fill-0, #007BFF)"/>
<path id="Vector_24" d="M116.422 30.3062C117.196 31.3726 117.524 31.6543 118.607 32.3314C116.761 33.1382 103.069 39.8038 102.514 39.7226C102.213 39.3292 102.104 39.1932 101.889 38.7422C102.093 38.4455 114.945 31.1584 116.422 30.3062Z" fill="var(--fill-0, #B0D6FF)"/>
<path id="Vector_25" d="M96.399 91.7468C99.2632 91.1651 102.024 93.1952 102.571 96.2861C103.119 99.377 101.248 102.364 98.3869 102.965C95.5133 103.569 92.732 101.537 92.1817 98.4324C91.6317 95.3278 93.5218 92.3311 96.399 91.7468Z" fill="var(--fill-0, #475569)"/>
<path id="Vector_26" d="M96.7739 92.6193C99.1636 92.2902 101.358 94.0867 101.708 96.6604C102.059 99.2338 100.437 101.637 98.0607 102.064C96.4827 102.348 94.8857 101.69 93.8848 100.342C92.8839 98.9948 92.6349 97.1685 93.2344 95.5668C93.8335 93.9654 95.187 92.8381 96.7739 92.6193Z" fill="var(--fill-0, #030507)"/>
<path id="Vector_27" d="M96.5703 93.2895C98.6574 92.8222 100.698 94.281 101.114 96.5385C101.53 98.7957 100.162 100.987 98.0686 101.418C95.9982 101.844 93.9968 100.388 93.5852 98.1561C93.1739 95.9243 94.5064 93.7516 96.5703 93.2895Z" fill="var(--fill-0, #475569)"/>
<path id="Vector_28" d="M179.175 50.1121C182.45 46.3085 187.065 41.4185 190.577 37.855C190.95 37.9177 191.14 38.3421 191.445 38.7448C192.002 39.6016 192.585 40.4775 193.128 41.3414C189.809 46.008 186.501 50.9377 183.221 55.6688C183.214 53.4141 183.137 52.4414 181.394 50.9227C180.516 50.4834 180.091 50.3681 179.175 50.1121Z" fill="var(--fill-0, #007BFF)"/>
<path id="Vector_29" d="M179.175 50.1121C182.45 46.3085 187.065 41.4185 190.577 37.855C190.95 37.9177 191.14 38.3421 191.445 38.7448C190.395 40.1442 181.84 50.7006 181.394 50.9227C180.516 50.4834 180.091 50.3682 179.175 50.1121Z" fill="var(--fill-0, #B0D6FF)"/>
<path id="Vector_30" d="M123.927 25.2039C129.054 26.7914 134.174 28.4083 139.285 30.0543C137.496 30.5018 135.614 30.9396 133.849 31.4591C131.463 32.0842 128.482 32.7844 126.19 33.5744C125.008 32.9762 123.584 32.4166 122.352 31.8984C122.408 31.8547 122.464 31.8098 122.519 31.7641C124.084 30.4477 124.303 29.6412 124.549 27.606C124.361 26.6751 124.254 26.1046 123.927 25.2039Z" fill="var(--fill-0, #B0D6FF)"/>
<path id="Vector_31" d="M124.549 27.606C125.236 28.3293 132.092 30.1863 133.849 31.4591C131.463 32.0841 128.482 32.7843 126.19 33.5744C125.008 32.9762 123.584 32.4166 122.352 31.8984C122.408 31.8547 122.464 31.8098 122.519 31.7641C124.084 30.4477 124.303 29.6412 124.549 27.606Z" fill="var(--fill-0, #007BFF)"/>
<path id="Vector_32" d="M162.629 28.8438C164.23 29.0882 163.856 28.7355 165.326 28.6271C165.918 28.9068 165.843 29.0255 166.27 29.7092C167.729 30.5163 170.273 31.6109 171.853 32.3578C172.371 32.6263 172.811 32.7359 173.098 33.1836C173.025 34.3054 172.033 38.3211 171.488 39.086L171.07 39.0693C170.318 38.4604 165.227 36.3314 163.873 35.7251C163.61 33.7354 163.002 30.8792 162.629 28.8438Z" fill="var(--fill-0, #007BFF)"/>
<path id="Vector_33" d="M171.853 32.3575C172.371 32.626 172.811 32.7356 173.098 33.1833C173.025 34.3051 172.033 38.3208 171.488 39.0857L171.07 39.069C171.048 37.7703 171.615 33.8051 171.853 32.3575Z" fill="var(--fill-0, #B0D6FF)"/>
<path id="Vector_34" d="M68.2435 109.207C70.3565 107.52 72.5873 105.963 74.7332 104.252C75.5841 105.45 76.5808 106.718 77.47 107.899L79.2817 110.12C75.5547 111.789 71.8485 113.512 68.1638 115.288C67.9723 114.897 68.0242 114.608 68.036 114.16C68.071 112.507 68.1403 110.856 68.2435 109.207Z" fill="var(--fill-0, #0057B5)"/>
<path id="Vector_35" d="M77.47 107.899L79.2817 110.12C75.5547 111.789 71.8485 113.512 68.1638 115.288C67.9723 114.896 68.0242 114.608 68.036 114.159L77.47 107.899Z" fill="var(--fill-0, #007BFF)"/>
<path id="Vector_36" d="M126.27 99.3671C126.855 99.3116 127.397 99.2019 127.949 99.376C127.969 99.8998 124.438 111.811 124.068 112.605C123.635 112.875 123.052 113.073 122.599 112.739L122.569 112.251C122.166 109.369 121.98 102.803 121.847 99.7866C123.303 99.6643 124.828 99.5605 126.27 99.3671Z" fill="var(--fill-0, #0057B5)"/>
<path id="Vector_37" d="M126.27 99.3671C126.855 99.3116 127.397 99.2019 127.949 99.376C127.969 99.8998 124.438 111.811 124.068 112.605C123.635 112.875 123.052 113.073 122.599 112.739L122.569 112.251C123.372 110.943 125.806 101.349 126.27 99.3671Z" fill="var(--fill-0, #007BFF)"/>
<path id="Vector_38" d="M57.6776 116.461C59.4697 116.775 61.2915 116.986 63.0958 117.214L63.6496 117.389C63.7253 117.767 57.116 129.249 56.3208 129.477C55.7301 129.421 55.9598 129.507 55.4534 129.106C55.3728 128.672 55.4302 128.601 55.5764 128.164C55.7896 125.466 57.1059 119.378 57.6776 116.461Z" fill="var(--fill-0, #0057B5)"/>
<path id="Vector_39" d="M63.0958 117.215L63.6496 117.389C63.7253 117.767 57.116 129.249 56.3208 129.477C55.7301 129.421 55.9598 129.507 55.4534 129.106C55.3728 128.672 55.4302 128.601 55.5764 128.165C57.1457 126.499 60.3952 119.852 61.956 117.671C62.3006 117.19 62.5303 117.279 63.0958 117.215Z" fill="var(--fill-0, #007BFF)"/>
<path id="Vector_40" d="M119.655 23.677C121.748 23.376 123.673 24.9601 123.959 27.2196C124.245 29.4794 122.784 31.5627 120.692 31.8789C118.591 32.1967 116.65 30.6103 116.363 28.3401C116.076 26.07 117.551 23.9797 119.655 23.677Z" fill="var(--fill-0, #475569)"/>
<path id="Vector_41" d="M119.523 24.3964C121.233 24.0243 122.901 25.2067 123.265 27.048C123.629 28.8892 122.554 30.7041 120.853 31.1185C119.735 31.3908 118.568 30.9931 117.797 30.0777C117.026 29.162 116.771 27.87 117.128 26.6942C117.485 25.5186 118.4 24.641 119.523 24.3964Z" fill="var(--fill-0, #030507)"/>
<path id="Vector_42" d="M119.479 25.0579C120.863 24.6698 122.279 25.5578 122.653 27.0486C123.027 28.5394 122.22 30.0773 120.843 30.4968C119.939 30.7722 118.969 30.5022 118.301 29.7898C117.633 29.0774 117.371 28.0325 117.614 27.0537C117.858 26.0746 118.57 25.3124 119.479 25.0579Z" fill="var(--fill-0, #475569)"/>
<path id="Vector_43" d="M178.024 50.8865C180.034 50.3333 182.077 51.6494 182.581 53.8219C183.085 55.9946 181.857 58.1952 179.843 58.7297C177.841 59.2609 175.818 57.945 175.317 55.7855C174.816 53.6262 176.027 51.4363 178.024 50.8865Z" fill="var(--fill-0, #475569)"/>
<path id="Vector_44" d="M178.941 51.4419C180.626 51.451 181.995 52.9149 182.019 54.7345C182.044 56.554 180.715 58.0599 179.03 58.1216C177.911 58.1627 176.859 57.5475 176.279 56.5134C175.699 55.4792 175.681 54.1871 176.233 53.1354C176.786 52.0835 177.821 51.4358 178.941 51.4419Z" fill="var(--fill-0, #030507)"/>
<path id="Vector_45" d="M178.496 52.0967C179.85 51.8261 181.155 52.7748 181.433 54.2308C181.711 55.687 180.859 57.1156 179.517 57.445C178.624 57.6643 177.691 57.3451 177.077 56.6103C176.464 55.8759 176.267 54.8409 176.561 53.9044C176.855 52.9682 177.595 52.2766 178.496 52.0967Z" fill="var(--fill-0, #475569)"/>
<path id="Vector_46" d="M97.5094 37.8768C98.3639 38.5034 99.7903 41.1187 100.401 42.1796C99.133 43.6231 96.3094 46.6323 94.6724 47.5944C93.5376 45.8489 92.2734 43.1871 91.5327 41.2172C93.5326 40.1198 95.525 39.0065 97.5094 37.8768Z" fill="var(--fill-0, #007BFF)"/>
<path id="Vector_47" d="M154.795 19.1455C156.275 19.6716 158.191 20.2924 159.587 20.9499C161.683 21.3461 166.186 22.6618 166.182 25.5628C166.181 26.3074 165.892 27.0178 165.385 27.5231C164.857 28.0616 164.148 28.3451 163.423 28.3086C161.711 28.2309 160.446 26.0189 159.389 24.737C158.265 23.3741 157.151 21.9895 156.024 20.6261L154.795 19.1455Z" fill="var(--fill-0, #007BFF)"/>
<path id="Vector_48" d="M154.795 19.1455C156.275 19.6716 158.191 20.2924 159.587 20.9499C158.845 21.2299 157.994 20.4266 156.024 20.6261L154.795 19.1455Z" fill="var(--fill-0, #007BFF)"/>
<path id="Vector_49" d="M160.483 20.6225C164.086 17.3986 169.469 18.2519 172.29 22.1353C172.868 22.9325 173.127 23.3876 173.226 24.3946L173.098 24.606L172.034 24.6194L166.656 24.2306C165.447 22.1315 164.755 22.0889 162.571 21.3973L160.483 20.6225Z" fill="var(--fill-0, #B0D6FF)"/>
<path id="Vector_50" d="M162.571 21.3976C166.491 19.8256 169.725 20.7408 172.034 24.6197L166.656 24.2309C165.447 22.1318 164.756 22.0892 162.571 21.3976Z" fill="var(--fill-0, #007BFF)"/>
<path id="Vector_51" d="M126.658 91.5001L126.912 91.513C127.349 92.1539 127.972 97.5063 128.122 98.5943C126.374 98.7489 124.629 98.9334 122.887 99.1473C122.4 99.1709 122.305 99.1833 121.84 99.0366C121.606 98.392 121.274 93.6512 121.193 92.651C122.974 92.3282 124.876 91.8816 126.658 91.5001Z" fill="var(--fill-0, #007BFF)"/>
<path id="Vector_52" d="M58.2879 109.251C60.2429 109.349 62.1986 109.434 64.1546 109.506C64.1414 110.602 64.1555 116.179 63.8326 116.826C61.8096 116.469 59.7822 116.142 57.751 115.844C57.9531 113.649 58.132 111.451 58.2879 109.251Z" fill="var(--fill-0, #007BFF)"/>
<path id="Vector_53" d="M130.928 50.0608C133.22 53.7136 135.348 57.8011 137.639 61.5727L135.35 61.1062C134.131 60.8456 129.426 54.1925 128.273 52.6606C129.124 51.7863 130.051 50.912 130.928 50.0608Z" fill="var(--fill-0, #475569)"/>
<path id="Vector_54" d="M165.746 44.9855C166.847 45.1467 175.672 49.6738 177.218 50.4824C176.109 51.177 175.756 51.4539 175.086 52.6314C174.774 53.5816 174.739 54.1603 174.632 55.1465C172.172 51.9526 168.485 47.9843 165.746 44.9855Z" fill="var(--fill-0, #0057B5)"/>
<path id="Vector_55" d="M121.148 58.6937C122.429 58.5234 123.149 58.6133 124.397 58.93L124.465 59.0518C123.263 59.648 123.543 59.028 122.655 59.164C120.773 59.4521 118.571 61.0052 117.389 62.5397C115.986 64.3636 115.311 66.7145 115.512 69.0755C115.767 71.8944 117.021 73.7366 118.973 75.4543C119.307 75.7565 120.263 76.3839 120.67 76.6681C119.701 76.3144 118.879 76.0055 118.002 75.402C116.064 74.0972 114.697 72.0012 114.213 69.591C113.183 64.3984 116.395 59.7038 121.148 58.6937Z" fill="var(--fill-0, #475569)"/>
<path id="Vector_56" d="M158.088 24.0743C159.245 25.5364 160.702 27.6071 162.084 28.7101C162.214 29.9831 163.188 34.0843 163.117 34.75C161.25 33.5605 159.614 32.3481 158.57 30.2122C157.66 28.3169 157.487 26.1082 158.088 24.0743Z" fill="var(--fill-0, #0057B5)"/>
<path id="Vector_57" d="M127.886 53.1915C128.076 53.3009 133.501 60.2824 133.608 60.674L132.688 60.5337C132.363 60.4664 131.105 60.2048 130.881 60.0525C129.21 58.914 127.401 56.6944 125.983 55.1622L127.886 53.1915Z" fill="var(--fill-0, #475569)"/>
<path id="Vector_58" d="M67.3291 109.81L67.3853 109.826C67.7842 110.318 67.4901 114.559 67.4537 115.501L64.8429 115.566L64.6673 115.504C64.4646 115.007 64.6487 111.384 64.6675 110.573L67.3291 109.81Z" fill="var(--fill-0, #475569)"/>
<path id="Vector_59" d="M192.796 35.444C192.63 35.225 192.528 35.0486 192.385 34.8146C192.443 34.1565 196.034 28.7881 196.838 28.5417L197.087 28.7343C197.232 29.3614 196.98 32.7975 196.932 33.6677C195.533 33.9682 194.491 33.79 193.661 35.0905L193.676 35.5531C193.335 35.6491 193.15 35.5483 192.796 35.444Z" fill="var(--fill-0, #007BFF)"/>
<path id="Vector_60" d="M130.435 91.1109C130.673 91.564 131.173 95.7926 131.348 96.772C130.58 96.8951 129.515 97.1978 128.736 97.393C128.425 97.0971 127.923 93.4544 127.779 92.6756C128.59 92.1599 129.595 91.6046 130.435 91.1109Z" fill="var(--fill-0, #475569)"/>
<path id="Vector_61" d="M158.434 31.9191L158.655 31.9341C158.871 32.0919 161.385 37.6608 161.808 38.4521C161.304 38.7196 160.784 39.0701 160.296 39.382L160.27 39.3825C159.55 38.9379 157.517 33.9733 157.092 32.903C157.481 32.5848 158.018 32.2198 158.434 31.9191Z" fill="var(--fill-0, #475569)"/>
<path id="Vector_62" d="M193.661 35.091C194.709 35.4161 198.261 33.3619 199.344 33.8692C199.908 35.4719 196.97 36.3665 195.867 37.2621L196.047 37.553C195.358 37.7448 195.11 37.7106 194.43 38.0281C193.969 37.2979 193.272 36.1132 192.796 35.4445C193.15 35.5488 193.335 35.6496 193.676 35.5536L193.661 35.091Z" fill="var(--fill-0, #007BFF)"/>
<path id="Vector_63" d="M158.661 40.0763C162.104 42.2876 161.608 43.4545 160.072 47.2111L159.27 49.028L158.661 40.0763Z" fill="var(--fill-0, #B0D6FF)"/>
<path id="Vector_64" d="M149.509 34.1778C150.479 35.144 150.884 36.8994 150.684 38.2783C150.459 39.8277 149.675 41.2179 148.503 42.145C147.072 43.2706 145.821 43.401 144.153 43.1013C143.744 42.9988 143.719 43.0013 143.385 42.7409C143.697 42.4722 145.565 42.2785 146.138 42.0877C149.629 40.9223 150.501 37.7598 149.509 34.1778Z" fill="var(--fill-0, #475569)"/>
<path id="Vector_65" d="M156.365 33.4731C156.548 33.5084 156.77 33.5683 156.849 33.7721C157.193 34.6598 159.628 39.3735 159.577 39.8783L159.321 39.7811C156.671 38.3581 156.695 37.2876 155.227 34.4187L156.365 33.4731Z" fill="var(--fill-0, #475569)"/>
<path id="Vector_66" d="M92.6201 45.0439C92.9346 45.4672 93.153 45.6713 93.2261 46.203C92.6989 46.7715 88.8001 49.7002 87.8897 50.4235C87.6086 50.441 87.7501 50.4682 87.4802 50.2372C87.8396 49.2 91.6437 45.9111 92.6201 45.0439Z" fill="var(--fill-0, #007BFF)"/>
<path id="Vector_67" d="M100.072 36.8575C100.442 37.3247 101.632 39.3723 102.006 39.9829C101.503 40.1624 101.002 40.4296 100.52 40.6702L100.387 40.6585C99.897 40.2717 98.9598 38.7358 98.5583 38.1282L100.072 36.8575Z" fill="var(--fill-0, #475569)"/>
<path id="Vector_68" d="M91.9184 43.2846C92.0869 43.5158 92.1871 43.8313 92.295 44.1079C92.0893 44.7749 87.6809 47.4084 86.7637 48.0574C86.5408 47.9188 86.6219 47.9828 86.4684 47.7358C86.8243 46.8925 90.9993 43.814 91.9184 43.2846Z" fill="var(--fill-0, #007BFF)"/>
<path id="Vector_69" d="M93.5587 46.9357L94.3318 48.1265C92.8789 49.2051 91.5033 50.5482 90.1635 51.7963L89.8891 51.878L89.6785 51.7293C89.7441 50.7238 92.7992 47.7082 93.5587 46.9357Z" fill="var(--fill-0, #007BFF)"/>
<path id="Vector_70" d="M192.517 36.1328C193.017 36.7467 193.678 37.941 194.412 38.8572L193.446 40.03L193.286 40.1033C192.926 39.9914 191.63 37.988 191.306 37.5197C191.643 37.0883 192.145 36.5526 192.517 36.1328Z" fill="var(--fill-0, #475569)"/>
<path id="Vector_71" d="M200.752 24.9564C200.91 25.0972 201.008 25.2939 201.128 25.4815C201.032 26.1779 198.593 28.1257 197.864 28.812L196.959 27.7336L200.752 24.9564Z" fill="var(--fill-0, #007BFF)"/>
<path id="Vector_72" d="M90.8749 41.7009C91.1525 41.7281 91.1565 41.7849 91.4071 41.9725L91.4304 42.4095C90.9783 43.0503 88.1839 44.0962 87.2169 44.5558C87.0091 44.6231 87.0354 44.5919 86.8006 44.566C87.0213 43.8467 90.0583 42.1971 90.8749 41.7009Z" fill="var(--fill-0, #007BFF)"/>
<path id="Vector_73" d="M100.049 43.6241C100.12 44.2865 99.522 46.9376 99.0999 47.421L98.5322 47.4112C97.5743 45.5471 98.8751 44.7113 100.049 43.6241Z" fill="var(--fill-0, #007BFF)"/>
<path id="Vector_74" d="M202.564 32.4961L202.886 32.8491L202.851 33.147C202.404 33.6414 200.989 34.2145 200.301 34.5627C200.178 34.4396 199.99 34.0348 199.896 33.8528L199.997 33.5013C200.599 32.9882 201.786 32.7273 202.564 32.4961Z" fill="var(--fill-0, #007BFF)"/>
<path id="Vector_75" d="M97.9652 47.6644C98.3563 47.8443 98.5949 47.8958 98.8144 48.28C98.8111 48.9927 97.9195 49.9627 97.468 50.5873L97.2261 50.8464L96.9567 50.7895C96.7435 49.9449 97.5761 48.4772 97.9652 47.6644Z" fill="var(--fill-0, #007BFF)"/>
<path id="Vector_76" d="M204.071 22.865C204.372 23.0122 204.262 22.8975 204.405 23.2274C204.092 24.0571 202.546 24.925 201.803 25.4019C201.488 24.9078 201.521 25.1154 201.572 24.6002C202.165 23.9025 203.277 23.3353 204.071 22.865Z" fill="var(--fill-0, #007BFF)"/>
<path id="Vector_77" d="M204.09 26.4423C204.659 26.3558 205.058 26.2928 205.514 26.5532L205.366 26.8332C204.772 27.273 204.28 27.2578 203.556 27.3359C202.999 27.4324 202.492 27.5618 202.162 26.9801L202.216 26.8682C202.727 26.4139 203.413 26.4723 204.09 26.4423Z" fill="var(--fill-0, #0057B5)"/>
<path id="Vector_78" d="M171.018 26.5758C171.319 26.6953 171.319 26.7403 171.517 27.0044C171.668 28.0993 171.519 28.9977 171.277 30.0664C170.946 29.9355 170.963 29.9461 170.728 29.6614C170.537 28.4444 170.679 27.7529 171.018 26.5758Z" fill="var(--fill-0, #2ECC71)"/>
<path id="Vector_79" d="M201.544 26.7331C201.826 27.3242 201.831 27.1161 201.704 27.6308C201.187 28.0942 200.19 28.3033 199.511 28.5031C199.353 28.48 199.424 28.4924 199.273 28.3559C199.812 27.7516 200.846 27.1717 201.544 26.7331Z" fill="var(--fill-0, #0057B5)"/>
<path id="Vector_80" d="M201.443 29.3704C202.346 29.1834 203.916 29.6684 204.586 30.3605C203.535 30.5031 202.08 30.3549 201.443 29.3704Z" fill="var(--fill-0, #0057B5)"/>
<path id="Vector_81" d="M201.088 28.8585L201.264 29.2567L201.072 29.5798C200.418 29.8825 199.612 29.8711 198.89 29.9138L198.82 29.8455L198.839 29.6293C199.349 29.2767 200.458 29.0321 201.088 28.8585Z" fill="var(--fill-0, #0057B5)"/>
<path id="Vector_82" d="M18.004 75.6758C21.7949 75.3408 26.0867 75.3679 29.954 75.2451L53.4246 74.5596C72.214 73.9459 91.0064 73.4391 109.801 73.0394C107.143 76.2448 104.537 79.5004 101.985 82.805C97.7593 82.5545 91.6782 82.7595 87.3601 82.7664C85.1336 83.0504 72.5743 83.1879 70.5852 82.7166C71.5478 82.6052 72.505 82.4814 73.472 82.4339C80.8523 81.1409 88.6015 80.1234 95.8927 78.6956C90.2643 78.1347 82.2759 78.0644 76.5013 77.8215L40.6856 76.5138C33.377 76.277 25.2788 76.1267 18.004 75.6758Z" fill="var(--fill-0, #FF6B35)"/>
<path id="Vector_83" d="M70.5852 82.717C71.5478 82.6056 72.5049 82.4817 73.472 82.4343L73.5801 82.6606C74.2874 82.7492 74.9087 82.6934 75.6 82.7246C79.3947 82.8956 83.6108 82.4485 87.36 82.7667C85.1335 83.0507 72.5743 83.1883 70.5852 82.717Z" fill="var(--fill-0, #FFD1C0)"/>
<path id="Vector_84" d="M4.18391 94.0783C6.51222 94.2019 10.3736 93.942 12.8267 93.8618L28.6637 93.372L61.4441 92.4038C68.8526 92.097 76.2644 91.8934 83.6776 91.7934C87.4567 91.7036 91.2424 91.4749 95.0208 91.5003C93.9743 92.1622 93.4506 92.5292 92.6403 93.5728C84.4808 92.2769 81.7736 96.069 76.5241 101.667C75.0491 101.509 72.9887 101.582 71.4564 101.502C66.3679 101.235 60.7525 101.467 55.7141 100.956C60.1279 100.187 67.4697 98.3778 71.8174 97.1243C58.9453 96.2713 45.5117 95.9155 32.594 95.4374C23.0863 95.0853 12.7132 94.4821 3.26199 94.4519L4.18391 94.0783Z" fill="var(--fill-0, #FF6B35)"/>
<path id="Vector_85" d="M228.946 22.3176C229.514 22.428 235.833 26.5105 236.914 27.148C236.907 30.296 236.912 33.4441 236.935 36.5921C234.434 38.215 231.804 39.7903 229.263 41.3529C228.823 41.4762 222.188 37.2019 221.252 36.6205L221.285 27.0536L228.946 22.3176Z" fill="var(--fill-0, #030507)"/>
<path id="Vector_86" d="M228.917 23.0175C229.58 23.1302 234.949 26.6729 235.958 27.3195C233.663 28.7192 231.388 30.1531 229.129 31.621C228.513 31.433 222.994 27.8418 222.098 27.2627C224.39 25.8841 226.665 24.469 228.917 23.0175Z" fill="var(--fill-0, #2ECC71)"/>
<path id="Vector_87" d="M236.122 27.9472C236.555 28.4401 236.352 35.0526 236.341 36.254C234.061 37.6438 231.795 39.0569 229.543 40.4936C229.185 39.9787 229.357 33.3801 229.366 32.2025C231.595 30.7417 233.847 29.323 236.122 27.9472Z" fill="var(--fill-0, #22C55E)"/>
<path id="Vector_88" d="M221.769 27.9529C222.886 28.4077 227.49 31.3798 228.786 32.1917C228.849 34.8895 228.8 37.6951 228.781 40.4023C228.337 40.4196 222.714 36.8173 221.821 36.2625C221.755 33.551 221.783 30.6776 221.769 27.9529Z" fill="var(--fill-0, #22C55E)"/>
<path id="Vector_89" d="M216.598 8.93743C218.765 10.2615 220.923 11.605 223.069 12.9676L223.093 20.4242C220.923 21.7548 218.765 23.1144 216.624 24.5021L210.152 20.4021L210.192 12.7811C212.341 11.5235 214.475 10.2422 216.598 8.93743Z" fill="var(--fill-0, #030507)"/>
<path id="Vector_90" d="M216.616 9.60463L222.065 13.0486C220.265 14.1739 218.471 15.3096 216.682 16.4557C215.476 15.8781 212.388 13.7462 211.163 12.9437C212.992 11.8527 214.811 10.7398 216.616 9.60463Z" fill="var(--fill-0, #2ECC71)"/>
<path id="Vector_91" d="M222.394 13.6732C222.658 14.128 222.557 19.1888 222.554 20.0936C221.146 20.7958 218.358 22.6454 216.877 23.5558L216.845 17.0453C218.685 15.9055 220.535 14.7815 222.394 13.6732Z" fill="var(--fill-0, #22C55E)"/>
<path id="Vector_92" d="M210.78 13.5743C212.571 14.529 214.595 15.8779 216.276 17.0268C216.301 19.1993 216.297 21.3722 216.259 23.5447C214.778 22.7493 212.284 21.0438 210.782 20.0825C210.756 17.9131 210.754 15.7437 210.78 13.5743Z" fill="var(--fill-0, #22C55E)"/>
<path id="Vector_93" d="M236.583 0.000416072C237.138 -0.0346069 242.224 3.34409 243 3.84127C242.937 6.19568 242.991 8.80895 242.993 11.1826C240.96 12.5125 238.905 13.803 236.83 15.0532C236.242 15.0243 231.219 11.7395 230.41 11.2268C230.469 8.77165 230.448 6.1873 230.464 3.72148C232.342 2.72764 234.721 1.16125 236.583 0.000416072Z" fill="var(--fill-0, #030507)"/>
<path id="Vector_94" d="M236.719 0.578446C237.913 1.1949 240.783 3.14451 242.149 3.97568C240.32 5.05124 238.52 6.1839 236.752 7.37214C236.141 7.10135 232.197 4.44646 231.416 3.93405C233.191 2.83032 234.959 1.71162 236.719 0.578446Z" fill="var(--fill-0, #2ECC71)"/>
<path id="Vector_95" d="M242.25 4.55377C242.61 5.10855 242.441 9.86102 242.436 10.8774C240.666 11.9512 238.91 13.0494 237.168 14.1716L237.055 14.0663C236.858 13.4808 236.947 8.93621 236.952 7.89669C238.731 6.80818 240.499 5.69379 242.25 4.55377Z" fill="var(--fill-0, #22C55E)"/>
<path id="Vector_96" d="M231.024 4.47881C232.697 5.45971 234.834 6.84489 236.446 7.93746C236.341 10.0071 236.402 12.1702 236.428 14.249C235.798 13.9642 231.968 11.4738 230.979 10.8974L231.024 4.47881Z" fill="var(--fill-0, #22C55E)"/>
<path id="Vector_97" d="M38.6043 114.79C40.7714 114.568 43.5428 114.617 45.7561 114.593L57.2844 114.486C57.1917 116.521 56.6234 118.654 56.3187 120.705C52.2046 120.505 47.1324 120.624 42.9835 120.604L23.3971 120.402C21.0502 120.572 13.5843 120.497 11.2452 120.323C12.8002 120.049 15.1214 119.98 16.717 119.916C18.4918 119.942 21.4801 119.651 23.3364 119.532L36.2715 118.678C41.5341 118.313 48.5898 118.185 53.5948 117.596C52.951 117.413 52.2991 117.27 51.6428 117.151C47.3101 116.369 42.9579 115.403 38.6043 114.79Z" fill="var(--fill-0, #FF6B35)"/>
<path id="Vector_98" d="M11.2452 120.323C12.8002 120.048 15.1214 119.979 16.717 119.916L16.541 120.141C17.7856 120.474 21.7563 120.118 23.3971 120.401C21.0502 120.572 13.5843 120.497 11.2452 120.323Z" fill="var(--fill-0, #FFD1C0)"/>
<path id="Vector_99" d="M82.6026 54.6253C85.0823 54.7819 91.571 54.1413 94.3447 53.9751L119.057 52.482C122.043 52.3308 125.297 52.0346 128.249 52.0232C127.558 52.783 125.531 55.0836 124.837 55.6255C121.457 55.2917 115.713 55.4255 112.08 55.3724C105.094 55.1986 98.1067 55.1184 91.1194 55.1318C88.7827 55.3389 85.7506 55.1082 83.3588 55.1047C82.0807 55.1029 79.3274 55.1811 78.1848 54.9948C78.4847 54.7309 82.0344 54.6192 82.6026 54.6253Z" fill="var(--fill-0, #FF6B35)"/>
<path id="Vector_100" d="M91.1194 55.1321C88.7827 55.3392 85.7506 55.1085 83.3588 55.105C82.0807 55.1032 79.3274 55.1813 78.1848 54.9951C78.4847 54.7311 82.0344 54.6195 82.6026 54.6255L81.9637 54.9027C84.3675 55.0948 89.1023 54.8068 91.1194 55.1321Z" fill="var(--fill-0, #FFF0EB)"/>
<path id="Vector_101" d="M121.298 100.315L121.683 106.807L111.298 106.843C108.491 107.09 104.99 106.921 102.124 107.019C100.948 107.059 97.3548 107.163 96.3529 107.021C97.0748 106.777 100.042 106.57 100.876 106.525C106.652 105.612 112.788 105.117 118.484 104.114C115.091 102.873 111.489 101.483 108.072 100.387C112.082 100.21 117.197 100.343 121.298 100.315Z" fill="var(--fill-0, #FF6B35)"/>
<path id="Vector_102" d="M111.298 106.844C108.491 107.09 104.99 106.921 102.124 107.019C100.948 107.059 97.3548 107.164 96.3529 107.021C97.0748 106.777 100.042 106.571 100.876 106.525C101.513 107.123 109.74 106.669 111.298 106.844Z" fill="var(--fill-0, #FFD1C0)"/>
<path id="Vector_103" d="M48.2269 41.7449C51.2512 41.7182 54.4579 41.5149 57.5029 41.4279L81.506 40.8736C83.7184 40.8414 89.5809 40.3942 91.3803 40.6191C90.6869 41.1058 87.306 43.3689 86.6678 43.5366C85.7012 43.3153 82.9935 43.2798 81.9458 43.2458L73.3354 42.9689C65.202 42.6854 56.3072 42.0548 48.2374 42.0779L48.2269 41.7449Z" fill="var(--fill-0, #FF6B35)"/>
<path id="Vector_104" d="M0 94.3741C1.10456 93.9924 2.99824 94.0688 4.1839 94.079L3.26198 94.4526C2.60028 94.5135 0.743507 94.4005 0 94.3741Z" fill="var(--fill-0, #FFD1C0)"/>
<path id="Vector_105" d="M45.6445 41.7271L48.2269 41.7448L48.2375 42.0778L46.6357 42.0923L45.6445 41.7271Z" fill="var(--fill-0, #FFD1C0)"/>
<path id="Vector_106" d="M46.6357 42.0922C45.774 42.099 44.8617 42.1346 44.0456 41.8516C44.5655 41.6843 45.0994 41.7244 45.6445 41.727L46.6357 42.0922Z" fill="var(--fill-0, #FFF0EB)"/>
</g>
</svg>
