<svg preserveAspectRatio="none" width="100%" height="100%" overflow="visible" style="display: block;" viewBox="0 0 14.3333 14.3334" fill="none" xmlns="http://www.w3.org/2000/svg">
<g id="elements">
<path id="Vector" d="M3.83333 2.16673C2.72876 2.16673 1.83333 3.06216 1.83333 4.16673C1.83333 4.54584 1.93881 4.90031 2.12203 5.2024C1.19818 5.3791 0.5 6.19138 0.5 7.16673C0.5 8.14208 1.19818 8.95436 2.12203 9.13106M3.83333 2.16673C3.83333 1.24625 4.57953 0.500063 5.5 0.500063C6.42047 0.500063 7.16667 1.24625 7.16667 2.16673V12.1667C7.16667 13.0872 6.42047 13.8334 5.5 13.8334C4.57953 13.8334 3.83333 13.0872 3.83333 12.1667C2.72876 12.1667 1.83333 11.2713 1.83333 10.1667C1.83333 9.78762 1.93881 9.43315 2.12203 9.13106M3.83333 2.16673C3.83333 2.712 4.09518 3.19612 4.5 3.50019M2.12203 9.13106C2.35965 8.73925 2.72805 8.43556 3.16667 8.28053" stroke="var(--stroke-0, #007BFF)" stroke-linecap="round" stroke-linejoin="round"/>
<path id="Vector_2" d="M10.5 12.1667C11.6046 12.1667 12.5 11.2712 12.5 10.1667C12.5 9.78756 12.3945 9.43309 12.2113 9.131C13.1352 8.9543 13.8333 8.14202 13.8333 7.16667C13.8333 6.19132 13.1352 5.37904 12.2113 5.20233M10.5 12.1667C10.5 13.0871 9.75381 13.8333 8.83333 13.8333C7.91286 13.8333 7.16667 13.0871 7.16667 12.1667L7.16667 2.16667C7.16667 1.24619 7.91286 0.5 8.83333 0.5C9.75381 0.5 10.5 1.24619 10.5 2.16667C11.6046 2.16667 12.5 3.0621 12.5 4.16667C12.5 4.54577 12.3945 4.90024 12.2113 5.20233M10.5 12.1667C10.5 11.6214 10.2381 11.1373 9.83333 10.8332M12.2113 5.20233C11.9737 5.59414 11.6053 5.89783 11.1667 6.05286" stroke="var(--stroke-0, #007BFF)" stroke-linecap="round" stroke-linejoin="round"/>
</g>
</svg>
