<svg preserveAspectRatio="none" width="100%" height="100%" overflow="visible" style="display: block;" viewBox="0 0 17.9167 17.9167" fill="none" xmlns="http://www.w3.org/2000/svg">
<g id="elements">
<path id="Vector" d="M16.4583 13.125L13.9583 7.29167L11.4583 13.125" stroke="var(--stroke-0, #FFC83D)" stroke-width="1.25" stroke-linecap="round" stroke-linejoin="round"/>
<path id="Vector_2" d="M6.45833 13.125L3.95833 7.29167L1.45833 13.125" stroke="var(--stroke-0, #FFC83D)" stroke-width="1.25" stroke-linecap="round" stroke-linejoin="round"/>
<path id="Vector_3" d="M2.29166 7.29167H3.16516C4.21805 7.29167 5.23958 6.70389 6.06175 5.625C7.75519 3.40278 10.1615 3.40278 11.8549 5.625C12.6771 6.70388 13.6986 7.29167 14.7515 7.29167H15.625" stroke="var(--stroke-0, #FFC83D)" stroke-width="1.25" stroke-linecap="round" stroke-linejoin="round"/>
<path id="Vector_4" d="M13.9583 17.2917C15.2586 17.2917 16.3902 16.4153 16.9734 15.1229C17.2672 14.4718 17.4141 14.1462 17.1647 13.6356C16.9152 13.125 16.5021 13.125 15.6758 13.125H12.2409C11.4146 13.125 11.0014 13.125 10.752 13.6356C10.5025 14.1462 10.6494 14.4718 10.9433 15.1229C11.5265 16.4153 12.658 17.2917 13.9583 17.2917Z" stroke="var(--stroke-0, #FFC83D)" stroke-width="1.25"/>
<path id="Vector_5" d="M3.95833 17.2917C5.25862 17.2917 6.39016 16.4153 6.9734 15.1229C7.26723 14.4718 7.41415 14.1462 7.16469 13.6356C6.91524 13.125 6.50209 13.125 5.6758 13.125H2.24086C1.41457 13.125 1.00142 13.125 0.75197 13.6356C0.502516 14.1462 0.64943 14.4718 0.943257 15.1229C1.5265 16.4153 2.65804 17.2917 3.95833 17.2917Z" stroke="var(--stroke-0, #FFC83D)" stroke-width="1.25"/>
<path id="Vector_6" d="M10.625 2.29167C10.625 3.21214 9.87881 3.95833 8.95833 3.95833C8.03786 3.95833 7.29166 3.21214 7.29166 2.29167C7.29166 1.37119 8.03786 0.625 8.95833 0.625C9.87881 0.625 10.625 1.37119 10.625 2.29167Z" stroke="var(--stroke-0, #FFC83D)" stroke-width="1.25"/>
</g>
</svg>
