<svg preserveAspectRatio="none" width="100%" height="100%" overflow="visible" style="display: block;" viewBox="0 0 14.8333 14.8333" fill="none" xmlns="http://www.w3.org/2000/svg">
<g id="elements">
<path id="Vector" d="M12.077 12.0833H12.0833M12.077 12.0833C11.6619 12.495 10.9095 12.3925 10.382 12.3925C9.73434 12.3925 9.42248 12.5191 8.96029 12.9814C8.56673 13.3749 8.03915 14.0833 7.41668 14.0833C6.7942 14.0833 6.26662 13.3749 5.87305 12.9814C5.41086 12.5191 5.09899 12.3925 4.45138 12.3925C3.92379 12.3925 3.17146 12.495 2.75633 12.0833C2.33787 11.6684 2.44085 10.9129 2.44085 10.3819C2.44085 9.71095 2.2941 9.40239 1.81625 8.92456C1.10542 8.21374 0.750011 7.8583 0.75 7.41665C0.750006 6.97501 1.10542 6.6196 1.81624 5.90878C2.2428 5.48221 2.44085 5.05952 2.44085 4.45137C2.44085 3.92377 2.33833 3.17143 2.75 2.7563C3.16495 2.33786 3.9204 2.44084 4.45139 2.44084C5.05952 2.44084 5.48221 2.2428 5.90877 1.81625C6.6196 1.10542 6.97501 0.75 7.41667 0.75C7.85832 0.75 8.21374 1.10542 8.92457 1.81625C9.35103 2.24271 9.77364 2.44084 10.3819 2.44084C10.9096 2.44084 11.6619 2.33831 12.077 2.75C12.4955 3.16495 12.3925 3.92039 12.3925 4.45137C12.3925 5.12239 12.5392 5.43092 13.0171 5.90878C13.7279 6.6196 14.0833 6.97501 14.0833 7.41665C14.0833 7.8583 13.7279 8.21374 13.0171 8.92456C12.5392 9.40238 12.3925 9.71095 12.3925 10.3819C12.3925 10.9129 12.4955 11.6684 12.077 12.0833Z" stroke="var(--stroke-0, white)" stroke-width="1.5"/>
<path id="Vector_2" d="M5.41667 8.0119L6.61667 9.08333L9.41667 5.75" stroke="var(--stroke-0, white)" stroke-width="1.5" stroke-linecap="round" stroke-linejoin="round"/>
</g>
</svg>
