<svg preserveAspectRatio="none" width="100%" height="100%" overflow="visible" style="display: block;" viewBox="0 0 28.6667 28.6667" fill="none" xmlns="http://www.w3.org/2000/svg">
<g id="elements">
<path id="Vector" d="M1 27.6667H15.6667C22.2941 27.6667 27.6667 22.2941 27.6667 15.6667C27.6667 9.03925 22.2941 3.66667 15.6667 3.66667C9.48993 3.66667 4.32993 8.3334 3.66667 14.3333" stroke="var(--stroke-0, white)" stroke-width="2" stroke-linecap="round"/>
<path id="Vector_2" d="M23 5.66667L24.3333 4.33333M5.66667 4.33333L7 5.66667" stroke="var(--stroke-0, #FFC83D)" stroke-width="2" stroke-linecap="round" stroke-linejoin="round"/>
<path id="Vector_3" d="M20.3335 10.3334L16.4144 14.2525M16.4144 14.2525C16.0525 13.8906 15.5525 13.6667 15.0002 13.6667C13.8956 13.6667 13.0002 14.5621 13.0002 15.6667C13.0002 16.7713 13.8956 17.6667 15.0002 17.6667C16.1047 17.6667 17.0002 16.7713 17.0002 15.6667C17.0002 15.1144 16.7763 14.6144 16.4144 14.2525Z" stroke="var(--stroke-0, white)" stroke-width="2" stroke-linecap="round"/>
<path id="Vector_4" d="M15 3V1" stroke="var(--stroke-0, #FFC83D)" stroke-width="2" stroke-linecap="round" stroke-linejoin="round"/>
<path id="Vector_5" d="M12.3333 1H17.6667" stroke="var(--stroke-0, #FFC83D)" stroke-width="2" stroke-linecap="round" stroke-linejoin="round"/>
<path id="Vector_6" d="M1 18.3333H5" stroke="var(--stroke-0, #FFC83D)" stroke-width="2" stroke-linecap="round" stroke-linejoin="round"/>
<path id="Vector_7" d="M1 23.6667H7.66667" stroke="var(--stroke-0, #FFC83D)" stroke-width="2" stroke-linecap="round" stroke-linejoin="round"/>
</g>
</svg>
