<svg preserveAspectRatio="none" width="100%" height="100%" overflow="visible" style="display: block;" viewBox="0 0 15.75 15.75" fill="none" xmlns="http://www.w3.org/2000/svg">
<g id="elements">
<path id="Vector" d="M4.125 11.625L4.125 8.625" stroke="var(--stroke-0, #0F172A)" stroke-width="1.5" stroke-linecap="round"/>
<path id="Vector_2" d="M7.875 11.625L7.875 4.125" stroke="var(--stroke-0, #0F172A)" stroke-width="1.5" stroke-linecap="round"/>
<path id="Vector_3" d="M11.625 11.625L11.625 7.125" stroke="var(--stroke-0, #0F172A)" stroke-width="1.5" stroke-linecap="round"/>
<path id="Vector_4" d="M0.750001 7.875C0.750001 4.51624 0.750001 2.83686 1.79343 1.79343C2.83686 0.750001 4.51624 0.750001 7.875 0.750001C11.2338 0.750001 12.9131 0.750001 13.9566 1.79343C15 2.83686 15 4.51624 15 7.875C15 11.2338 15 12.9131 13.9566 13.9566C12.9131 15 11.2338 15 7.875 15C4.51624 15 2.83686 15 1.79343 13.9566C0.750001 12.9131 0.750001 11.2338 0.750001 7.875Z" stroke="var(--stroke-0, #0F172A)" stroke-width="1.5" stroke-linejoin="round"/>
</g>
</svg>
