<svg preserveAspectRatio="none" width="100%" height="100%" overflow="visible" style="display: block;" viewBox="0 0 12.1846 15.0925" fill="none" xmlns="http://www.w3.org/2000/svg">
<g id="elements">
<path id="Vector" d="M1.34505 8.86154C0.84278 8.03642 0.553846 7.06968 0.553846 6.03613C0.553846 3.00835 3.0335 0.553846 6.09231 0.553846C9.15112 0.553846 11.6308 3.00835 11.6308 6.03613C11.6308 7.06968 11.3418 8.03642 10.8396 8.86154" stroke="var(--stroke-0, white)" stroke-width="1.10769" stroke-linecap="round"/>
<path id="Vector_2" d="M2.89584 11.0065C2.83223 10.815 2.80043 10.7192 2.80414 10.6416C2.81197 10.4776 2.9154 10.3336 3.06801 10.2742C3.14016 10.2462 3.24073 10.2462 3.44186 10.2462H8.74276C8.94389 10.2462 9.04445 10.2462 9.11661 10.2742C9.26921 10.3336 9.37264 10.4776 9.38048 10.6416C9.38418 10.7192 9.35238 10.815 9.28878 11.0065C9.17124 11.3604 9.11246 11.5373 9.02181 11.6806C8.8319 11.9808 8.5342 12.1962 8.19039 12.2821C8.02627 12.3231 7.84042 12.3231 7.46871 12.3231H4.71591C4.3442 12.3231 4.15835 12.3231 3.99423 12.2821C3.65042 12.1962 3.35272 11.9808 3.16281 11.6806C3.07215 11.5373 3.01338 11.3604 2.89584 11.0065Z" stroke="var(--stroke-0, white)" stroke-width="1.38462"/>
<path id="Vector_3" d="M8.16923 12.3231L8.0797 12.7707C7.9818 13.2602 7.93285 13.505 7.82316 13.6984C7.65357 13.9975 7.37879 14.2227 7.05227 14.3304C6.84109 14.4 6.5915 14.4 6.09231 14.4C5.59312 14.4 5.34352 14.4 5.13234 14.3304C4.80583 14.2227 4.53104 13.9975 4.36145 13.6984C4.25176 13.505 4.20281 13.2602 4.10491 12.7707L4.01538 12.3231" stroke="var(--stroke-0, white)" stroke-width="1.38462"/>
<path id="Vector_4" d="M6.47456 3.66923L5.42111 4.8424C5.27635 5.00361 5.36445 5.26111 5.57762 5.29987L6.60828 5.48727C6.83527 5.52854 6.91522 5.81302 6.74295 5.96649L5.43609 7.13077" stroke="var(--stroke-0, white)" stroke-width="1.38462" stroke-linecap="round" stroke-linejoin="round"/>
</g>
</svg>
