<svg preserveAspectRatio="none" width="100%" height="100%" overflow="visible" style="display: block;" viewBox="0 0 13.2167 13.2167" fill="none" xmlns="http://www.w3.org/2000/svg">
<g id="elements">
<path id="Vector" d="M6.94088 0.824272L6.73265 0.0777723V0.0777722L6.94088 0.824272ZM5.54863 1.21264L5.34039 0.466145V0.466145L5.54863 1.21264ZM4.94771 1.61161L5.54975 2.09964V2.09964L4.94771 1.61161ZM1.59275 6.79561L2.29812 7.11666V7.11666L1.59275 6.79561ZM5.02594 6.39483L5.79623 6.48012L5.79623 6.48012L5.02594 6.39483ZM4.58787 7.5235L5.02296 8.16485C4.69726 8.3858 4.25766 8.32755 4.00075 8.02939C3.74384 7.73123 3.75121 7.28785 4.01788 6.99839L4.58787 7.5235ZM5.59632 4.30825L6.21108 4.78021L6.20664 4.78589L5.59632 4.30825ZM5.59631 4.30826L4.98155 3.8363L4.98599 3.83062L5.59631 4.30826ZM5.22355 4.83586L4.50332 4.54969L4.50332 4.54969L5.22355 4.83586ZM8.56658 1.67792L7.9966 2.20303V2.20303L8.56658 1.67792ZM9.1708 2.73879L9.93428 2.87192V2.87192L9.1708 2.73879ZM3.37878 11.4184L3.62115 10.6823V10.6823L3.37878 11.4184ZM7.2612 3.53912L7.13496 4.30377L7.13379 4.30357L7.2612 3.53912ZM7.26119 3.53912L7.38743 2.77447L7.3886 2.77466L7.26119 3.53912ZM6.33939 3.47247L6.04433 2.75584L6.04433 2.75584L6.33939 3.47247ZM7.6557 11.508L7.09929 12.0474L7.09929 12.0474L7.6557 11.508ZM11.8717 10.933C12.1617 10.6182 12.6519 10.5981 12.9667 10.8881C13.2815 11.1781 13.3016 11.6684 13.0116 11.9832L12.4416 11.4581L11.8717 10.933ZM7.55356 11.3652L7.27136 10.6434C7.6251 10.5051 8.02695 10.6435 8.22045 10.9704L7.55356 11.3652ZM7.57359 11.399L8.24047 11.0042L8.24048 11.0042L7.57359 11.399ZM7.31971 7.09164L7.08286 7.82956V7.82956L7.31971 7.09164ZM9.42505 7.69897C9.69031 8.03488 9.63304 8.52223 9.29712 8.78749C8.96121 9.05275 8.47386 8.99547 8.2086 8.65956L8.81683 8.17926L9.42505 7.69897ZM12.9911 6.60662C13.2929 6.91005 13.2917 7.40075 12.9882 7.70263C12.6848 8.00451 12.1941 8.00325 11.8922 7.69982L12.4416 7.15322L12.9911 6.60662ZM6.94088 0.824272L7.14912 1.57077L5.75686 1.95914L5.54863 1.21264L5.34039 0.466145L6.73265 0.0777723L6.94088 0.824272ZM4.94771 1.61161L5.54975 2.09964C4.05122 3.94824 3.10346 5.34723 2.29812 7.11666L1.59275 6.79561L0.887372 6.47457C1.76689 4.54216 2.80097 3.02914 4.34567 1.12358L4.94771 1.61161ZM5.02594 6.39483L5.79623 6.48012C5.74279 6.96278 5.58344 7.58666 5.15785 8.04862L4.58787 7.5235L4.01788 6.99839C4.11812 6.88958 4.21763 6.65292 4.25565 6.30953L5.02594 6.39483ZM5.59632 4.30825L6.20664 4.78589L6.20663 4.7859L5.59631 4.30826L4.98599 3.83062L4.98601 3.83061L5.59632 4.30825ZM5.59631 4.30826L6.21104 4.78021C6.09509 4.93123 6.01938 5.03001 5.96737 5.10225C5.94204 5.13744 5.92919 5.15694 5.92356 5.16602C5.91645 5.17751 5.92881 5.1597 5.94378 5.12203L5.22355 4.83586L4.50332 4.54969C4.56021 4.40651 4.65115 4.27762 4.7094 4.1967C4.77877 4.10034 4.87211 3.9789 4.98158 3.83632L5.59631 4.30826ZM5.02594 6.39483L4.25565 6.30953C4.30972 5.82122 4.35108 5.44754 4.38329 5.18555C4.39932 5.0551 4.41406 4.94419 4.42789 4.85695C4.43634 4.80362 4.45693 4.66645 4.50332 4.54969L5.22355 4.83586L5.94378 5.12203C5.97285 5.04886 5.97366 5.00571 5.95878 5.09956C5.94929 5.15949 5.93716 5.2489 5.92171 5.37465C5.89093 5.62505 5.85081 5.98726 5.79623 6.48012L5.02594 6.39483ZM8.56658 1.67792L9.13657 1.15281C9.33815 1.37162 9.562 1.61027 9.71126 1.84553C9.88853 2.12492 10.0054 2.464 9.93428 2.87192L9.1708 2.73879L8.40732 2.60565C8.40448 2.62195 8.40368 2.65207 8.4114 2.68324C8.41767 2.70857 8.42347 2.70902 8.40246 2.67591C8.37996 2.64045 8.34022 2.58722 8.26843 2.50375C8.1968 2.42047 8.10983 2.32594 7.9966 2.20303L8.56658 1.67792ZM1.59275 6.79561L2.29812 7.11666C1.94683 7.8885 1.72457 8.38272 1.6164 8.78535C1.51981 9.14485 1.53386 9.3637 1.6242 9.59011L0.904381 9.87732L0.184564 10.1645C-0.0587466 9.55474 -0.0411952 8.98124 0.119481 8.38318C0.268568 7.82826 0.557323 7.19973 0.887372 6.47457L1.59275 6.79561ZM3.37878 11.4184L3.13641 12.1545C2.45072 11.9287 1.83239 11.7286 1.35435 11.4622C0.826068 11.168 0.427599 10.7736 0.184564 10.1645L0.904381 9.87732L1.6242 9.59011C1.71481 9.81722 1.83996 9.95849 2.10868 10.1082C2.42763 10.2859 2.87968 10.4381 3.62115 10.6823L3.37878 11.4184ZM7.2612 3.53912L7.13379 4.30357L7.13378 4.30357L7.26119 3.53912L7.3886 2.77466L7.38861 2.77466L7.2612 3.53912ZM7.26119 3.53912L7.13495 4.30377C6.86514 4.25922 6.70436 4.23316 6.59109 4.22267C6.53786 4.21774 6.5191 4.21881 6.52106 4.21869C6.52387 4.21852 6.56962 4.2158 6.63446 4.18911L6.33939 3.47247L6.04433 2.75584C6.30523 2.64842 6.57105 2.66419 6.73398 2.67927C6.91563 2.69609 7.14159 2.73388 7.38743 2.77447L7.26119 3.53912ZM7.6557 11.508L8.21212 10.9685C8.6494 11.4195 9.32914 11.6733 10.0528 11.6666C10.7763 11.6599 11.4471 11.3938 11.8717 10.933L12.4416 11.4581L13.0116 11.9832C12.2434 12.8171 11.1327 13.2066 10.0672 13.2165C9.00186 13.2264 7.88501 12.8578 7.09929 12.0474L7.6557 11.508ZM3.37878 11.4184L3.62115 10.6823C4.91927 11.1097 5.99025 11.1443 7.27136 10.6434L7.55356 11.3652L7.83577 12.087C6.16653 12.7396 4.71942 12.6757 3.13641 12.1545L3.37878 11.4184ZM7.57359 11.399L6.9067 11.7938L6.88668 11.76L7.55356 11.3652L8.22045 10.9704L8.24047 11.0042L7.57359 11.399ZM7.6557 11.508L7.09929 12.0474C7.0186 11.9642 6.95573 11.8767 6.90669 11.7938L7.57359 11.399L8.24048 11.0042C8.23793 10.9999 8.22936 10.9863 8.21212 10.9685L7.6557 11.508ZM4.58787 7.5235L4.15278 6.88216C4.82136 6.42859 6.15814 5.90486 7.55657 6.35373L7.31971 7.09164L7.08286 7.82956C6.28907 7.57478 5.44995 7.87517 5.02296 8.16485L4.58787 7.5235ZM7.31971 7.09164L7.55657 6.35373C8.22725 6.569 8.87128 6.99769 9.42505 7.69897L8.81683 8.17926L8.2086 8.65956C7.83455 8.18589 7.44357 7.94535 7.08286 7.82956L7.31971 7.09164ZM7.31971 7.09164L6.78795 6.52785C7.62291 5.74034 8.79431 5.38943 9.90406 5.40133C11.0137 5.41322 12.1779 5.7893 12.9911 6.60662L12.4416 7.15322L11.8922 7.69982C11.4298 7.23505 10.691 6.95985 9.88744 6.95124C9.08405 6.94263 8.33224 7.20198 7.85147 7.65544L7.31971 7.09164ZM6.33939 3.47247L6.63446 4.18911C6.67734 4.17145 6.64829 4.16776 6.5441 4.30568C6.49877 4.36569 6.45376 4.43208 6.3975 4.51554C6.34655 4.59112 6.28022 4.6901 6.21105 4.78019L5.59632 4.30825L4.98159 3.8363C5.01597 3.79152 5.05436 3.73504 5.11223 3.64918C5.1648 3.57119 5.23271 3.47016 5.30733 3.37139C5.44304 3.19175 5.68197 2.90504 6.04433 2.75584L6.33939 3.47247ZM5.54863 1.21264L5.75686 1.95914C5.66088 1.98592 5.62021 1.99779 5.59435 2.00684C5.5773 2.0128 5.60012 2.00633 5.63367 1.98404C5.66639 1.96229 5.67967 1.94512 5.66436 1.96184C5.64356 1.98458 5.61426 2.02006 5.54975 2.09964L4.94771 1.61161L4.34567 1.12358C4.43634 1.01172 4.57871 0.824076 4.77569 0.693155C4.97657 0.559644 5.20523 0.503847 5.34039 0.466145L5.54863 1.21264ZM6.94088 0.824272L6.73265 0.0777722C7.36893 -0.0997209 7.89414 0.0427867 8.31601 0.34128C8.65336 0.579974 8.96122 0.962472 9.13657 1.15281L8.56658 1.67792L7.9966 2.20303C7.93099 2.13182 7.86785 2.06054 7.81203 1.99773C7.75429 1.93275 7.70381 1.87618 7.65453 1.82344C7.55419 1.71606 7.48142 1.64952 7.42074 1.60659C7.36563 1.56759 7.33299 1.55717 7.31256 1.55325C7.29355 1.5496 7.24575 1.54382 7.14912 1.57077L6.94088 0.824272ZM9.1708 2.73879L9.93428 2.87192C9.79278 3.68337 9.07483 4.04179 8.61262 4.18556C8.10994 4.3419 7.54209 4.37098 7.13496 4.30377L7.2612 3.53912L7.38744 2.77447C7.55031 2.80136 7.87419 2.79198 8.15228 2.70549C8.47082 2.60642 8.42267 2.51762 8.40732 2.60565L9.1708 2.73879Z" fill="var(--stroke-0, #2ECC71)"/>
</g>
</svg>
