<svg preserveAspectRatio="none" width="100%" height="100%" overflow="visible" style="display: block;" viewBox="0 0 21.2 19.7793" fill="none" xmlns="http://www.w3.org/2000/svg">
<g id="elements">
<path id="Vector" d="M15.2127 13.7639C12.5796 15.247 11.0773 18.3202 10.6 19.1793V5.67927C11.0145 4.93323 12.202 2.79574 14.2317 1.34296C15.0868 0.730941 15.5143 0.424931 16.0572 0.703959C16.6 0.982986 16.6 1.5989 16.6 2.83073V11.6707C16.6 12.3361 16.6 12.6688 16.4634 12.9026C16.3267 13.1364 15.9554 13.3456 15.2127 13.7639L15.2127 13.7639Z" stroke="var(--stroke-0, #FF6B35)" stroke-width="1.2" stroke-linecap="round" stroke-linejoin="round"/>
<path id="Vector_2" d="M10.6 5.48483C9.91311 4.7633 7.92176 3.04967 4.58056 2.44885C2.8879 2.14448 2.04157 1.99229 1.32079 2.5756C0.600003 3.15892 0.600003 4.10615 0.600003 6.00061V12.809C0.600003 14.5412 0.600003 15.4073 1.0626 15.948C1.5252 16.4888 2.54365 16.6719 4.58056 17.0382C6.39633 17.3647 7.81345 17.8849 8.83918 18.4077C9.84838 18.9221 10.353 19.1793 10.6 19.1793C10.847 19.1793 11.3516 18.9221 12.3608 18.4077C13.3866 17.8849 14.8037 17.3647 16.6194 17.0382C18.6564 16.6719 19.6748 16.4888 20.1374 15.948C20.6 15.4073 20.6 14.5412 20.6 12.809V6.00061C20.6 4.10615 20.6 3.15892 19.8792 2.5756C19.1584 1.99229 17.6 2.44885 16.6 3.17927" stroke="var(--stroke-0, #FF6B35)" stroke-width="1.2" stroke-linecap="round" stroke-linejoin="round"/>
</g>
</svg>
