<svg preserveAspectRatio="none" width="100%" height="100%" overflow="visible" style="display: block;" viewBox="0 0 12.1178 12.5794" fill="none" xmlns="http://www.w3.org/2000/svg">
<g id="elements">
<path id="Vector" d="M9.52109 0.461629V1.6157M2.59666 0.461629V1.6157" stroke="var(--stroke-0, white)" stroke-width="0.923257" stroke-linecap="round" stroke-linejoin="round"/>
<path id="Vector_2" d="M0.577036 6.37235C0.577036 3.85802 0.577036 2.60086 1.29955 1.81976C2.02207 1.03866 3.18494 1.03866 5.51069 1.03866H6.60706C8.93281 1.03866 10.0957 1.03866 10.8182 1.81976C11.5407 2.60086 11.5407 3.85802 11.5407 6.37235V6.66866C11.5407 9.18298 11.5407 10.4401 10.8182 11.2212C10.0957 12.0023 8.93281 12.0023 6.60706 12.0023H5.51069C3.18494 12.0023 2.02207 12.0023 1.29955 11.2212C0.577036 10.4401 0.577036 9.18298 0.577036 6.66866V6.37235Z" stroke="var(--stroke-0, white)" stroke-width="1.15407" stroke-linecap="round" stroke-linejoin="round"/>
<path id="Vector_3" d="M0.865554 3.92384H11.2522" stroke="var(--stroke-0, white)" stroke-width="1.15407" stroke-linecap="round" stroke-linejoin="round"/>
</g>
</svg>
