<svg preserveAspectRatio="none" width="100%" height="100%" overflow="visible" style="display: block;" viewBox="0 0 13.8667 14.5333" fill="none" xmlns="http://www.w3.org/2000/svg">
<g id="elements">
<path id="Vector" d="M10.9333 0.6V1.93333M2.93333 0.6V1.93333" stroke="var(--stroke-0, #94A3B8)" stroke-width="1.2" stroke-linecap="round" stroke-linejoin="round"/>
<path id="Vector_2" d="M6.93034 7.93333H6.93632M6.93034 10.6H6.93632M9.59402 7.93333H9.6M4.26667 7.93333H4.27265M4.26667 10.6H4.27265" stroke="var(--stroke-0, #94A3B8)" stroke-width="1.2" stroke-linecap="round" stroke-linejoin="round"/>
<path id="Vector_3" d="M1.26667 4.6H12.6" stroke="var(--stroke-0, #94A3B8)" stroke-width="1.2" stroke-linecap="round" stroke-linejoin="round"/>
<path id="Vector_4" d="M0.6 7.42883C0.6 4.52396 0.6 3.07152 1.43475 2.16909C2.26949 1.26667 3.61299 1.26667 6.3 1.26667H7.56667C10.2537 1.26667 11.5972 1.26667 12.4319 2.16909C13.2667 3.07152 13.2667 4.52396 13.2667 7.42883V7.77117C13.2667 10.676 13.2667 12.1285 12.4319 13.0309C11.5972 13.9333 10.2537 13.9333 7.56667 13.9333H6.3C3.61299 13.9333 2.26949 13.9333 1.43475 13.0309C0.6 12.1285 0.6 10.676 0.6 7.77117V7.42883Z" stroke="var(--stroke-0, #94A3B8)" stroke-width="1.2" stroke-linecap="round" stroke-linejoin="round"/>
<path id="Vector_5" d="M0.933334 4.6H12.9333" stroke="var(--stroke-0, #94A3B8)" stroke-width="1.2" stroke-linecap="round" stroke-linejoin="round"/>
</g>
</svg>
