<svg preserveAspectRatio="none" width="100%" height="100%" overflow="visible" style="display: block;" viewBox="0 0 14.5333 14.5335" fill="none" xmlns="http://www.w3.org/2000/svg">
<g id="elements">
<path id="Vector" d="M7.26667 13.9333C10.9486 13.9333 13.9333 10.9486 13.9333 7.26667C13.9333 3.58477 10.9485 0.6 7.26664 0.6C4.28155 0.6 1.78284 2.56193 0.933333 5.26667H2.6" stroke="var(--stroke-0, #94A3B8)" stroke-width="1.2" stroke-linecap="round" stroke-linejoin="round"/>
<path id="Vector_2" d="M7.26667 4.6V7.26667L8.6 8.6" stroke="var(--stroke-0, #94A3B8)" stroke-width="1.2" stroke-linecap="round" stroke-linejoin="round"/>
<path id="Vector_3" d="M0.6 7.26667C0.6 7.49153 0.610137 7.71391 0.629957 7.93333M5.26667 13.9333C5.03894 13.8584 4.81647 13.771 4.6 13.6718M1.40626 10.6C1.2777 10.3523 1.16302 10.0955 1.06332 9.83082M2.48748 12.1377C2.69126 12.3572 2.9087 12.5628 3.13836 12.7528" stroke="var(--stroke-0, #94A3B8)" stroke-width="1.2" stroke-linecap="round" stroke-linejoin="round"/>
</g>
</svg>
