<svg preserveAspectRatio="none" width="100%" height="100%" overflow="visible" style="display: block;" viewBox="0 0 15.2308 15.2308" fill="none" xmlns="http://www.w3.org/2000/svg">
<g id="elements">
<path id="Vector" d="M0.692308 2.07692C0.692308 2.84163 1.31222 3.46154 2.07692 3.46154C2.84163 3.46154 3.46154 2.84163 3.46154 2.07692C3.46154 1.31222 2.84163 0.692308 2.07692 0.692308C1.31222 0.692308 0.692308 1.31222 0.692308 2.07692Z" stroke="var(--stroke-0, white)" stroke-width="1.10769"/>
<path id="Vector_2" d="M0.692308 7.61538C0.692308 8.38009 1.31222 9 2.07692 9C2.84163 9 3.46154 8.38009 3.46154 7.61538C3.46154 6.85068 2.84163 6.23077 2.07692 6.23077C1.31222 6.23077 0.692308 6.85068 0.692308 7.61538Z" stroke="var(--stroke-0, white)" stroke-width="1.38462"/>
<path id="Vector_3" d="M6.23077 2.07692C6.23077 2.84163 6.85068 3.46154 7.61538 3.46154C8.38009 3.46154 9 2.84163 9 2.07692C9 1.31222 8.38009 0.692308 7.61538 0.692308C6.85068 0.692308 6.23077 1.31222 6.23077 2.07692Z" stroke="var(--stroke-0, white)" stroke-width="1.38462"/>
<path id="Vector_4" d="M6.23077 7.61538C6.23077 8.38009 6.85068 9 7.61538 9C8.38009 9 9 8.38009 9 7.61538C9 6.85068 8.38009 6.23077 7.61538 6.23077C6.85068 6.23077 6.23077 6.85068 6.23077 7.61538Z" stroke="var(--stroke-0, white)" stroke-width="1.38462"/>
<path id="Vector_5" d="M6.23077 13.1538C6.23077 13.9185 6.85068 14.5385 7.61538 14.5385C8.38009 14.5385 9 13.9185 9 13.1538C9 12.3891 8.38009 11.7692 7.61538 11.7692C6.85068 11.7692 6.23077 12.3891 6.23077 13.1538Z" stroke="var(--stroke-0, white)" stroke-width="1.38462"/>
<path id="Vector_6" d="M11.7692 2.07692C11.7692 2.84163 12.3891 3.46154 13.1538 3.46154C13.9185 3.46154 14.5385 2.84163 14.5385 2.07692C14.5385 1.31222 13.9185 0.692308 13.1538 0.692308C12.3891 0.692308 11.7692 1.31222 11.7692 2.07692Z" stroke="var(--stroke-0, white)" stroke-width="1.38462"/>
<path id="Vector_7" d="M11.7692 7.61538C11.7692 8.38009 12.3891 9 13.1538 9C13.9185 9 14.5385 8.38009 14.5385 7.61538C14.5385 6.85068 13.9185 6.23077 13.1538 6.23077C12.3891 6.23077 11.7692 6.85068 11.7692 7.61538Z" stroke="var(--stroke-0, white)" stroke-width="1.38462"/>
</g>
</svg>
