<svg preserveAspectRatio="none" width="100%" height="100%" overflow="visible" style="display: block;" viewBox="0 0 15.2281 14.3977" fill="none" xmlns="http://www.w3.org/2000/svg">
<g id="elements">
<path id="Vector" d="M13.1516 8.8601V3.32254C13.1516 2.01732 13.1516 1.36471 12.7461 0.959236C12.3406 0.553758 11.688 0.553758 10.3828 0.553758H4.84526C3.54005 0.553758 2.88744 0.553758 2.48196 0.959236C2.07648 1.36471 2.07648 2.01732 2.07648 3.32254V8.8601" stroke="var(--stroke-0, white)" stroke-width="1.10751" stroke-linecap="round" stroke-linejoin="round"/>
<path id="Vector_2" d="M4.84526 4.63323H4.95725C5.51887 4.63323 5.79968 4.63323 6.01407 4.7538C6.22846 4.87437 6.32484 5.0865 6.5176 5.51076L6.75051 6.02338C6.87719 6.30218 6.94052 6.44159 7.04272 6.43725C7.14491 6.43292 7.18967 6.28893 7.27918 6.00096L8.08004 3.42451C8.17215 3.12821 8.2182 2.98006 8.32141 2.97644C8.42462 2.97282 8.48655 3.11718 8.61039 3.4059L8.75065 3.73287C8.93717 4.16769 9.03043 4.3851 9.24683 4.50917C9.46323 4.63323 9.74918 4.63323 10.3211 4.63323H10.3828" stroke="var(--stroke-0, white)" stroke-width="1.38439" stroke-linecap="round" stroke-linejoin="round"/>
<path id="Vector_3" d="M1.72873 9.56298L2.09 8.8601H13.1182L13.4993 9.56298C14.498 11.4053 14.7468 12.3264 14.3672 13.0159C13.9876 13.7055 12.981 13.7055 10.968 13.7055L4.26009 13.7055C2.24705 13.7055 1.24053 13.7055 0.860897 13.0159C0.481267 12.3264 0.729984 11.4053 1.72873 9.56298Z" stroke="var(--stroke-0, white)" stroke-width="1.38439" stroke-linecap="round" stroke-linejoin="round"/>
</g>
</svg>
