<svg preserveAspectRatio="none" width="100%" height="100%" overflow="visible" style="display: block;" viewBox="0 0 14.5333 13.8667" fill="none" xmlns="http://www.w3.org/2000/svg">
<g id="elements">
<path id="Vector" d="M8.71374 12.8604C11.5024 12.675 13.7237 10.4222 13.9065 7.59392C13.9423 7.04045 13.9423 6.46728 13.9065 5.91382C13.7237 3.08558 11.5024 0.832755 8.71374 0.647383C7.76235 0.584141 6.76904 0.58427 5.8196 0.647383C3.03092 0.832755 0.809606 3.08558 0.626827 5.91382C0.591058 6.46728 0.591058 7.04045 0.626827 7.59392C0.693397 8.62399 1.14895 9.57774 1.68527 10.3831C1.99667 10.9469 1.79116 11.6506 1.46681 12.2652C1.23294 12.7084 1.11601 12.93 1.20989 13.0901C1.30378 13.2501 1.51351 13.2552 1.93295 13.2655C2.76244 13.2856 3.32179 13.0505 3.76579 12.7231C4.0176 12.5374 4.14351 12.4445 4.23029 12.4339C4.31707 12.4232 4.48784 12.4935 4.82934 12.6342C5.13627 12.7606 5.49264 12.8386 5.8196 12.8604C6.76904 12.9235 7.76235 12.9236 8.71374 12.8604Z" stroke="var(--stroke-0, #94A3B8)" stroke-width="1.2" stroke-linejoin="round"/>
<path id="Vector_2" d="M6.26667 5.29231C6.26667 4.72586 6.71438 4.26667 7.26667 4.26667C7.81895 4.26667 8.26667 4.72586 8.26667 5.29231C8.26667 5.49649 8.2085 5.68673 8.10822 5.84656C7.80937 6.32291 7.26667 6.77714 7.26667 7.34359V7.6" stroke="var(--stroke-0, #94A3B8)" stroke-width="1.5" stroke-linecap="round"/>
<path id="Vector_3" d="M7.26667 8.93333H7.27265" stroke="var(--stroke-0, #94A3B8)" stroke-width="1.5" stroke-linecap="round" stroke-linejoin="round"/>
</g>
</svg>
