<svg preserveAspectRatio="none" width="100%" height="100%" overflow="visible" style="display: block;" viewBox="0 0 15.0948 15.0948" fill="none" xmlns="http://www.w3.org/2000/svg">
<g id="elements">
<path id="Vector" d="M6.92421 10.7325C6.92421 9.30879 6.92421 8.59693 7.23034 8.0667C7.43089 7.71934 7.71934 7.43089 8.0667 7.23034C8.59693 6.92421 9.30879 6.92421 10.7325 6.92421C12.1562 6.92421 12.8681 6.92421 13.3983 7.23034C13.7457 7.43089 14.0341 7.71934 14.2347 8.0667C14.5408 8.59693 14.5408 9.30879 14.5408 10.7325C14.5408 12.1562 14.5408 12.8681 14.2347 13.3983C14.0341 13.7457 13.7457 14.0341 13.3983 14.2347C12.8681 14.5408 12.1562 14.5408 10.7325 14.5408C9.30879 14.5408 8.59693 14.5408 8.0667 14.2347C7.71934 14.0341 7.43089 13.7457 7.23034 13.3983C6.92421 12.8681 6.92421 12.1562 6.92421 10.7325Z" stroke="var(--stroke-0, white)" stroke-width="1.10787"/>
<path id="Vector_2" d="M5.20242 9.69389C4.86541 9.66181 4.61569 9.59888 4.40187 9.47543C4.11615 9.31047 3.87888 9.0732 3.71391 8.78747C3.4621 8.35132 3.4621 7.76577 3.4621 6.59467C3.4621 5.42357 3.4621 4.83802 3.71391 4.40187C3.87888 4.11615 4.11615 3.87888 4.40187 3.71391C4.83802 3.4621 5.42357 3.4621 6.59467 3.4621C7.76577 3.4621 8.35132 3.4621 8.78747 3.71391C9.0732 3.87888 9.31047 4.11615 9.47543 4.40187C9.59888 4.61569 9.66181 4.86541 9.69389 5.20242" stroke="var(--stroke-0, white)" stroke-width="1.38484" stroke-linecap="round"/>
<path id="Vector_3" d="M1.67296 5.53936C1.34235 5.43927 1.06302 5.19094 0.89196 4.89581C0.692422 4.55155 0.692422 4.08937 0.692422 3.165C0.692422 2.24064 0.692422 1.77845 0.89196 1.4342C1.02268 1.20867 1.2107 1.02139 1.43711 0.89118C1.78272 0.692422 2.24672 0.692422 3.17471 0.692422C4.10271 0.692422 4.5667 0.692422 4.91231 0.89118C5.19021 1.05099 5.43034 1.30756 5.53936 1.61167" stroke="var(--stroke-0, white)" stroke-width="1.38484" stroke-linecap="round"/>
</g>
</svg>
