<svg preserveAspectRatio="none" width="100%" height="100%" overflow="visible" style="display: block;" viewBox="0 0 16.5 16.5" fill="none" xmlns="http://www.w3.org/2000/svg">
<g id="elements">
<path id="Vector" d="M7.5 11.625C7.5 10.0829 7.5 9.31183 7.83159 8.7375C8.04882 8.36125 8.36125 8.04882 8.7375 7.83159C9.31183 7.5 10.0829 7.5 11.625 7.5C13.1671 7.5 13.9382 7.5 14.5125 7.83159C14.8887 8.04882 15.2012 8.36125 15.4184 8.7375C15.75 9.31183 15.75 10.0829 15.75 11.625C15.75 13.1671 15.75 13.9382 15.4184 14.5125C15.2012 14.8887 14.8887 15.2012 14.5125 15.4184C13.9382 15.75 13.1671 15.75 11.625 15.75C10.0829 15.75 9.31183 15.75 8.7375 15.4184C8.36125 15.2012 8.04882 14.8887 7.83159 14.5125C7.5 13.9382 7.5 13.1671 7.5 11.625Z" stroke="var(--stroke-0, #6B7280)" stroke-width="1.5"/>
<path id="Vector_2" d="M5.63504 10.5C5.27 10.4653 4.99952 10.3971 4.76792 10.2634C4.45843 10.0847 4.20143 9.8277 4.02275 9.51821C3.75 9.04579 3.75 8.41155 3.75 7.14307C3.75 5.87458 3.75 5.24034 4.02275 4.76792C4.20143 4.45843 4.45843 4.20143 4.76792 4.02275C5.24034 3.75 5.87458 3.75 7.14307 3.75C8.41155 3.75 9.04579 3.75 9.51821 4.02275C9.8277 4.20143 10.0847 4.45843 10.2634 4.76792C10.3971 4.99952 10.4653 5.27 10.5 5.63504" stroke="var(--stroke-0, #6B7280)" stroke-width="1.5" stroke-linecap="round"/>
<path id="Vector_3" d="M1.81208 6C1.45397 5.89158 1.15142 5.6226 0.966133 5.30293C0.750001 4.93004 0.750001 4.42943 0.750001 3.4282C0.750001 2.42696 0.750001 1.92635 0.966133 1.55346C1.10772 1.30918 1.31137 1.10632 1.55661 0.965287C1.93096 0.750001 2.43355 0.750001 3.43871 0.750001C4.44387 0.750001 4.94646 0.750001 5.32081 0.965287C5.62181 1.13839 5.88191 1.41629 6 1.74569" stroke="var(--stroke-0, #6B7280)" stroke-width="1.5" stroke-linecap="round"/>
</g>
</svg>
