<svg preserveAspectRatio="none" width="100%" height="100%" overflow="visible" style="display: block;" viewBox="0 0 14.5006 14.5006" fill="none" xmlns="http://www.w3.org/2000/svg">
<g id="elements">
<path id="Vector" d="M6.62206 10.3576C6.62206 8.96108 6.62206 8.26282 6.92234 7.74272C7.11906 7.402 7.402 7.11906 7.74272 6.92234C8.26282 6.62206 8.96108 6.62206 10.3576 6.62206C11.7541 6.62206 12.4524 6.62206 12.9725 6.92234C13.3132 7.11906 13.5961 7.402 13.7928 7.74272C14.0931 8.26282 14.0931 8.96108 14.0931 10.3576C14.0931 11.7541 14.0931 12.4524 13.7928 12.9725C13.5961 13.3132 13.3132 13.5961 12.9725 13.7928C12.4524 14.0931 11.7541 14.0931 10.3576 14.0931C8.96108 14.0931 8.26282 14.0931 7.74272 13.7928C7.402 13.5961 7.11906 13.3132 6.92234 12.9725C6.62206 12.4524 6.62206 11.7541 6.62206 10.3576Z" stroke="var(--stroke-0, #FF6B35)" stroke-width="0.815023"/>
<path id="Vector_2" d="M4.93319 9.33881C4.60262 9.30734 4.35767 9.24562 4.14794 9.12453C3.86768 8.96272 3.63494 8.72998 3.47313 8.44972C3.22613 8.02191 3.22613 7.44755 3.22613 6.29883C3.22613 5.15012 3.22613 4.57576 3.47313 4.14794C3.63494 3.86768 3.86768 3.63494 4.14794 3.47313C4.57576 3.22613 5.15012 3.22613 6.29883 3.22613C7.44755 3.22613 8.02191 3.22613 8.44972 3.47313C8.72998 3.63494 8.96272 3.86768 9.12453 4.14794C9.24562 4.35767 9.30734 4.60262 9.33881 4.93319" stroke="var(--stroke-0, #FF6B35)" stroke-width="1.01878" stroke-linecap="round"/>
<path id="Vector_3" d="M1.47119 5.26369C1.14689 5.16551 0.872906 4.92193 0.705115 4.63244C0.50939 4.29476 0.50939 3.84141 0.50939 2.93471C0.50939 2.02802 0.50939 1.57467 0.705115 1.23699C0.833336 1.01577 1.01776 0.832069 1.23984 0.704349C1.57885 0.50939 2.03398 0.50939 2.94424 0.50939C3.85449 0.50939 4.30962 0.50939 4.64863 0.704349C4.92121 0.861109 5.15675 1.11277 5.26369 1.41106" stroke="var(--stroke-0, #FF6B35)" stroke-width="1.01878" stroke-linecap="round"/>
</g>
</svg>
