<svg preserveAspectRatio="none" width="100%" height="100%" overflow="visible" style="display: block;" viewBox="0 0 20 20" fill="none" xmlns="http://www.w3.org/2000/svg">
<g id="famicons:warning">
<path id="Vector" d="M17.5418 15.5891L10.8844 3.22578C10.4125 2.34922 9.15547 2.34922 8.6832 3.22578L2.02617 15.5891C1.92372 15.7794 1.87235 15.993 1.87709 16.209C1.88182 16.4251 1.9425 16.6363 2.0532 16.8219C2.16389 17.0075 2.32082 17.1613 2.50868 17.2681C2.69653 17.375 2.90888 17.4313 3.125 17.4316H16.441C16.6573 17.4317 16.8699 17.3756 17.058 17.2688C17.2461 17.1621 17.4033 17.0084 17.5143 16.8227C17.6252 16.637 17.686 16.4258 17.6909 16.2095C17.6957 15.9933 17.6443 15.7795 17.5418 15.5891ZM9.78398 15.5176C9.62947 15.5176 9.47842 15.4718 9.34995 15.3859C9.22147 15.3001 9.12133 15.1781 9.0622 15.0353C9.00307 14.8925 8.9876 14.7355 9.01775 14.5839C9.04789 14.4324 9.1223 14.2932 9.23156 14.1839C9.34082 14.0746 9.48002 14.0002 9.63157 13.9701C9.78312 13.9399 9.9402 13.9554 10.083 14.0145C10.2257 14.0737 10.3477 14.1738 10.4336 14.3023C10.5194 14.4308 10.5652 14.5818 10.5652 14.7363C10.5652 14.9435 10.4829 15.1422 10.3364 15.2888C10.1899 15.4353 9.99118 15.5176 9.78398 15.5176ZM10.6324 7.66016L10.4082 12.4258C10.4082 12.5915 10.3424 12.7505 10.2251 12.8677C10.1079 12.9849 9.94896 13.0508 9.7832 13.0508C9.61744 13.0508 9.45847 12.9849 9.34126 12.8677C9.22405 12.7505 9.1582 12.5915 9.1582 12.4258L8.93398 7.66211C8.92895 7.54828 8.94688 7.4346 8.98671 7.32784C9.02654 7.22109 9.08746 7.12344 9.16583 7.04073C9.2442 6.95802 9.33842 6.89194 9.44288 6.84642C9.54734 6.8009 9.65989 6.77688 9.77383 6.77578H9.78203C9.89675 6.77572 10.0103 6.79891 10.1158 6.84393C10.2213 6.88896 10.3166 6.95489 10.3959 7.03776C10.4752 7.12063 10.537 7.21871 10.5773 7.32608C10.6177 7.43346 10.6359 7.5479 10.6309 7.6625L10.6324 7.66016Z" fill="var(--fill-0, #D97706)"/>
</g>
</svg>
