<svg preserveAspectRatio="none" width="100%" height="100%" overflow="visible" style="display: block;" viewBox="0 0 14.8333 14.1667" fill="none" xmlns="http://www.w3.org/2000/svg">
<g id="elements">
<path id="Vector" d="M2.96448 5.53862C4.5736 2.69132 5.37815 1.26768 6.48218 0.901207C7.08955 0.699598 7.7438 0.699598 8.35117 0.901207C9.45519 1.26768 10.2597 2.69132 11.8689 5.53862C13.478 8.38591 14.2825 9.80956 14.0412 10.9696C13.9084 11.6077 13.5813 12.1866 13.1067 12.6231C12.244 13.4167 10.6349 13.4167 7.41667 13.4167C4.19844 13.4167 2.58932 13.4167 1.72665 12.6231C1.25206 12.1866 0.924931 11.6077 0.792154 10.9696C0.550801 9.80956 1.35536 8.38591 2.96448 5.53862Z" stroke="var(--stroke-0, white)" stroke-width="1.5"/>
<path id="Vector_2" d="M7.57813 10.4167V7.75C7.57813 7.43573 7.57813 7.2786 7.4805 7.18096C7.38287 7.08333 7.22573 7.08333 6.91146 7.08333" stroke="var(--stroke-0, white)" stroke-width="1.5" stroke-linecap="round" stroke-linejoin="round"/>
<path id="Vector_3" d="M7.41133 5.08333H7.41732" stroke="var(--stroke-0, white)" stroke-width="1.5" stroke-linecap="round" stroke-linejoin="round"/>
</g>
</svg>
