<svg preserveAspectRatio="none" width="100%" height="100%" overflow="visible" style="display: block;" viewBox="0 0 11.2 11.2" fill="none" xmlns="http://www.w3.org/2000/svg">
<g id="elements">
<path id="Vector" d="M0.775699 6.20673C0.599189 5.05812 0.510934 4.48382 0.728086 3.97469C0.945238 3.46556 1.42702 3.11722 2.39057 2.42053L3.1105 1.9C4.30915 1.03333 4.90847 0.6 5.6 0.6C6.29153 0.6 6.89086 1.03333 8.08951 1.9L8.80943 2.42053C9.77299 3.11722 10.2548 3.46556 10.4719 3.97469C10.6891 4.48382 10.6008 5.05812 10.4243 6.20673L10.2738 7.18619C10.0236 8.81446 9.89846 9.6286 9.3145 10.1143C8.73055 10.6 7.87684 10.6 6.16941 10.6H5.0306C3.32317 10.6 2.46946 10.6 1.8855 10.1143C1.30155 9.6286 1.17644 8.81446 0.926216 7.1862L0.775699 6.20673Z" stroke="var(--stroke-0, #FF6B35)" stroke-width="1.2" stroke-linejoin="round"/>
<path id="Vector_2" d="M5.225 6.225C5.81841 6.81841 6.6 7.42143 6.6 7.42143L7.67143 6.35C7.67143 6.35 7.06841 5.56841 6.475 4.975C5.8816 4.38159 5.1 3.77857 5.1 3.77857L4.02857 4.85C4.02857 4.85 4.6316 5.63159 5.225 6.225ZM5.225 6.225L3.35 8.1M7.85 6.17143L6.42143 7.6M5.27858 3.6L3.85 5.02857" stroke="var(--stroke-0, #FF6B35)" stroke-width="1.2" stroke-linecap="round" stroke-linejoin="round"/>
</g>
</svg>
