<svg preserveAspectRatio="none" width="100%" height="100%" overflow="visible" style="display: block;" viewBox="0 0 9.7 11.2001" fill="none" xmlns="http://www.w3.org/2000/svg">
<g id="elements">
<path id="Vector" d="M0.600002 4.6C0.600002 2.71438 0.600002 1.77157 1.2224 1.18579C1.8448 0.600001 2.84653 0.600001 4.85 0.600001H5.23637C6.86697 0.600001 7.68227 0.600001 8.24847 0.998918C8.41069 1.11321 8.55471 1.24876 8.67615 1.40145C9.1 1.93434 9.1 2.70168 9.1 4.23637V5.50909C9.1 6.99068 9.1 7.73147 8.86553 8.32313C8.4886 9.27429 7.69143 10.0246 6.68082 10.3793C6.05219 10.6 5.2651 10.6 3.69091 10.6C2.79138 10.6 2.34161 10.6 1.98239 10.4739C1.4049 10.2712 0.949377 9.84245 0.733983 9.29893C0.600002 8.96084 0.600002 8.53753 0.600002 7.69091V4.6Z" stroke="var(--stroke-0, #7152FF)" stroke-width="1.2" stroke-linejoin="round"/>
<path id="Vector_2" d="M9.1 5.6C9.1 6.52048 8.35381 7.26667 7.43334 7.26667C7.10044 7.26667 6.70798 7.20834 6.38432 7.29506C6.09674 7.37212 5.87212 7.59674 5.79506 7.88432C5.70834 8.20798 5.76667 8.60044 5.76667 8.93334C5.76667 9.85381 5.02048 10.6 4.1 10.6" stroke="var(--stroke-0, #7152FF)" stroke-width="1.2" stroke-linecap="round" stroke-linejoin="round"/>
<path id="Vector_3" d="M2.85 3.1H6.35" stroke="var(--stroke-0, #7152FF)" stroke-width="1.2" stroke-linecap="round" stroke-linejoin="round"/>
<path id="Vector_4" d="M2.85 5.1H4.35" stroke="var(--stroke-0, #7152FF)" stroke-width="1.2" stroke-linecap="round" stroke-linejoin="round"/>
</g>
</svg>
