<svg preserveAspectRatio="none" width="100%" height="100%" overflow="visible" style="display: block;" viewBox="0 0 18.1671 14.8335" fill="none" xmlns="http://www.w3.org/2000/svg">
<g id="elements">
<path id="Vector" d="M0.757077 10.5912C0.942818 7.68022 1.48968 5.5501 1.95307 4.31277C2.18702 3.6881 2.69035 3.22292 3.33474 3.06702C6.91809 2.20012 11.249 2.20012 14.8324 3.06702C15.4768 3.22292 15.9801 3.6881 16.214 4.31277C16.6774 5.5501 17.2243 7.68022 17.41 10.5912C17.5211 12.3326 16.2625 13.2921 14.8693 13.9939C13.9819 14.441 13.2995 13.1216 12.8464 12.1004C12.5989 11.5425 12.0558 11.1965 11.4403 11.1965H6.72683C6.11129 11.1965 5.56819 11.5425 5.32067 12.1004C4.86761 13.1216 4.1852 14.441 3.29779 13.9939C1.91866 13.2992 0.645068 12.3466 0.757077 10.5912Z" stroke="var(--stroke-0, white)" stroke-width="1.5" stroke-linecap="round" stroke-linejoin="round"/>
<path id="Vector_2" d="M3.2502 1.16685L4.88591 0.75018M14.9169 1.16685L13.2502 0.75018" stroke="var(--stroke-0, white)" stroke-width="1.5" stroke-linecap="round" stroke-linejoin="round"/>
<path id="Vector_3" d="M6.58353 8.25018L5.33353 7.00018M5.33353 7.00018L4.08353 5.75018M5.33353 7.00018L4.08353 8.25018M5.33353 7.00018L6.58353 5.75018" stroke="var(--stroke-0, white)" stroke-width="1.5" stroke-linecap="round"/>
<path id="Vector_4" d="M12.4069 5.75018H12.4144" stroke="var(--stroke-0, white)" stroke-width="2" stroke-linecap="round" stroke-linejoin="round"/>
<path id="Vector_5" d="M14.0736 8.25018H14.0811" stroke="var(--stroke-0, white)" stroke-width="2" stroke-linecap="round" stroke-linejoin="round"/>
</g>
</svg>
