<svg preserveAspectRatio="none" width="100%" height="100%" overflow="visible" style="display: block;" viewBox="0 0 21.5001 21.5001" fill="none" xmlns="http://www.w3.org/2000/svg">
<g id="elements">
<path id="Vector" d="M15.75 10.7501C15.75 13.5115 13.5114 15.7501 10.75 15.7501C7.98858 15.7501 5.75 13.5115 5.75 10.7501C5.75 7.98867 7.98858 5.75009 10.75 5.75009" stroke="var(--stroke-0, #22C55E)" stroke-width="1.5" stroke-linecap="round"/>
<path id="Vector_2" d="M12.75 0.95013C12.1038 0.818954 11.4349 0.750093 10.75 0.750093C5.22715 0.750093 0.75 5.22725 0.75 10.7501C0.75 16.2729 5.22715 20.7501 10.75 20.7501C16.2728 20.7501 20.75 16.2729 20.75 10.7501C20.75 10.0652 20.6811 9.39631 20.55 8.75009" stroke="var(--stroke-0, #22C55E)" stroke-width="1.5" stroke-linecap="round"/>
<path id="Vector_3" d="M10.2197 10.2198C9.92678 10.5127 9.92678 10.9875 10.2197 11.2804C10.5126 11.5733 10.9874 11.5733 11.2803 11.2804L10.75 10.7501L10.2197 10.2198ZM18.4409 3.05921L17.7152 3.24856C17.7837 3.51124 17.9889 3.71638 18.2515 3.78491L18.4409 3.05921ZM17.9245 1.08016L17.1988 1.26951V1.26951L17.9245 1.08016ZM17.048 0.940153L17.5784 1.47048V1.47048L17.048 0.940153ZM15.8987 2.08954L15.3683 1.55921V1.55921L15.8987 2.08954ZM15.0281 4.90138L14.3024 5.09073L14.3024 5.09073L15.0281 4.90138ZM20.4199 3.57557L20.2306 4.30128V4.30128L20.4199 3.57557ZM20.5599 4.45205L20.0296 3.92172L20.0296 3.92172L20.5599 4.45205ZM19.4106 5.60144L19.9409 6.13177H19.9409L19.4106 5.60144ZM16.5987 6.47195L16.4094 7.19766V7.19766L16.5987 6.47195ZM15.3531 6.14696L14.8228 5.61663L10.2197 10.2198L10.75 10.7501L11.2803 11.2804L15.8835 6.67729L15.3531 6.14696ZM18.4409 3.05921L19.1666 2.86986L18.6502 0.890817L17.9245 1.08016L17.1988 1.26951L17.7152 3.24856L18.4409 3.05921ZM17.048 0.940153L16.5177 0.409823L15.3683 1.55921L15.8987 2.08954L16.429 2.61987L17.5784 1.47048L17.048 0.940153ZM15.0281 4.90138L14.3024 5.09073L14.6274 6.33631L15.3531 6.14696L16.0788 5.95762L15.7538 4.71204L15.0281 4.90138ZM18.4409 3.05921L18.2515 3.78491L20.2306 4.30128L20.4199 3.57557L20.6093 2.84987L18.6302 2.3335L18.4409 3.05921ZM20.5599 4.45205L20.0296 3.92172L18.8802 5.07111L19.4106 5.60144L19.9409 6.13177L21.0903 4.98238L20.5599 4.45205ZM16.5987 6.47195L16.7881 5.74625L15.5425 5.42126L15.3531 6.14696L15.1638 6.87267L16.4094 7.19766L16.5987 6.47195ZM19.4106 5.60144L18.8802 5.07111C18.2592 5.6921 17.4361 5.91533 16.7881 5.74625L16.5987 6.47195L16.4094 7.19766C17.6485 7.52097 19.0025 7.07018 19.9409 6.13177L19.4106 5.60144ZM20.4199 3.57557L20.2306 4.30128C20.1794 4.28791 20.121 4.25529 20.0742 4.20135C20.0297 4.14998 20.0097 4.09566 20.003 4.05359C19.9897 3.9704 20.0233 3.92801 20.0296 3.92172L20.5599 4.45205L21.0903 4.98238C21.4026 4.67005 21.5514 4.23774 21.4842 3.81698C21.4147 3.38198 21.1087 2.98016 20.6093 2.84987L20.4199 3.57557ZM15.8987 2.08954L15.3683 1.55921C14.4299 2.49762 13.9791 3.8516 14.3024 5.09073L15.0281 4.90138L15.7538 4.71204C15.5848 4.064 15.808 3.24086 16.429 2.61987L15.8987 2.08954ZM17.9245 1.08016L18.6502 0.890817C18.5199 0.391426 18.1181 0.0853749 17.6831 0.0158876C17.2624 -0.0513254 16.83 0.0974885 16.5177 0.409823L17.048 0.940153L17.5784 1.47048C17.5721 1.47677 17.5297 1.5104 17.4465 1.49711C17.4044 1.49039 17.3501 1.47036 17.2987 1.42585C17.2448 1.37911 17.2122 1.32074 17.1988 1.26951L17.9245 1.08016Z" fill="var(--stroke-0, #22C55E)"/>
</g>
</svg>
