<svg preserveAspectRatio="none" width="100%" height="100%" overflow="visible" style="display: block;" viewBox="0 0 11.6665 14.3333" fill="none" xmlns="http://www.w3.org/2000/svg">
<g id="elements">
<path id="Vector" d="M10.714 7.14121L10.3594 7.49364V7.49364L10.714 7.14121ZM10.499 10.9595L10.9499 11.1754L10.9499 11.1754L10.499 10.9595ZM3.83333 8.5L3.47117 8.84473C3.61214 8.99284 3.8291 9.04018 4.01896 8.96426C4.20883 8.88835 4.33333 8.70448 4.33333 8.5H3.83333ZM2.35561 6.94751L2.71777 6.60278C2.70788 6.59239 2.69755 6.58243 2.6868 6.57293L2.35561 6.94751ZM0.751663 8.55908L1.15041 8.25727L1.14445 8.2497L0.751663 8.55908ZM2.93909 11.4491L2.54041 11.7508V11.7508L2.93909 11.4491ZM0.746319 7.10354L0.351213 6.79712L0.351213 6.79712L0.746319 7.10354ZM9.26125 13.8333C9.26125 14.1095 9.48511 14.3333 9.76125 14.3333C10.0374 14.3333 10.2613 14.1095 10.2613 13.8333H9.76125H9.26125ZM3.23454 13.8333C3.23454 14.1095 3.4584 14.3333 3.73454 14.3333C4.01068 14.3333 4.23454 14.1095 4.23454 13.8333H3.73454H3.23454ZM3.64176 12.577L4.11917 12.4285V12.4285L3.64176 12.577ZM3.61546 12.4982L4.08645 12.3304L4.08645 12.3304L3.61546 12.4982ZM6.16667 5.5H5.66667C5.66667 5.63646 5.72244 5.767 5.82106 5.86132C5.91967 5.95565 6.05255 6.00557 6.18888 5.99951L6.16667 5.5ZM10.714 7.14121L10.3594 7.49364C10.6368 7.77288 10.7281 8.27125 10.6268 8.94733C10.5293 9.59905 10.2713 10.2772 10.048 10.7435L10.499 10.9595L10.9499 11.1754C11.1981 10.6573 11.4984 9.8799 11.6158 9.0954C11.7296 8.33526 11.6927 7.41673 11.0687 6.78878L10.714 7.14121ZM10.499 10.9595L10.048 10.7435C9.99223 10.86 9.92211 10.9865 9.83972 11.1338C9.76006 11.2763 9.66973 11.4368 9.58727 11.6017C9.42644 11.9234 9.26125 12.3255 9.26125 12.7547H9.76125H10.2613C10.2613 12.5667 10.3374 12.3375 10.4817 12.049C10.5518 11.9088 10.6299 11.7696 10.7125 11.6219C10.7924 11.4791 10.8782 11.3252 10.9499 11.1754L10.499 10.9595ZM3.83333 8.5L4.1955 8.15528L2.71777 6.60278L2.35561 6.94751L1.99344 7.29223L3.47117 8.84473L3.83333 8.5ZM0.751663 8.55908L0.352987 8.86084L2.54041 11.7508L2.93909 11.4491L3.33777 11.1473L1.15034 8.25733L0.751663 8.55908ZM0.746319 7.10354L0.351213 6.79712C-0.119876 7.40456 -0.116789 8.26456 0.358874 8.86847L0.751663 8.55908L1.14445 8.2497C0.953042 8.00669 0.951678 7.65462 1.14142 7.40995L0.746319 7.10354ZM2.35561 6.94751L2.6868 6.57293C1.98552 5.95286 0.923494 6.0592 0.351213 6.79712L0.746319 7.10354L1.14142 7.40995C1.36342 7.1237 1.76032 7.08858 2.02441 7.32208L2.35561 6.94751ZM9.76125 12.7547H9.26125V13.8333H9.76125H10.2613V12.7547H9.76125ZM3.73454 13.8333H4.23454C4.23454 13.2249 4.23976 12.816 4.11917 12.4285L3.64176 12.577L3.16434 12.7256C3.22932 12.9344 3.23454 13.1642 3.23454 13.8333H3.73454ZM2.93909 11.4491L2.54041 11.7508C2.93973 12.2784 3.07151 12.4613 3.14448 12.6661L3.61546 12.4982L4.08645 12.3304C3.94993 11.9473 3.7006 11.6267 3.33777 11.1473L2.93909 11.4491ZM3.64176 12.577L4.11917 12.4285C4.10893 12.3955 4.09802 12.3628 4.08645 12.3304L3.61546 12.4982L3.14448 12.6661C3.15149 12.6857 3.15812 12.7056 3.16434 12.7256L3.64176 12.577ZM3.83333 1.66667H3.33333V8.5H3.83333H4.33333V1.66667H3.83333ZM6.16667 1.66667H5.66667V5.5H6.16667H6.66667V1.66667H6.16667ZM6.16667 5.5L6.18888 5.99951C7.25796 5.95197 9.07857 6.20468 10.3594 7.49364L10.714 7.14121L11.0687 6.78878C9.50742 5.21754 7.35304 4.94675 6.14445 5.00049L6.16667 5.5ZM3.83333 1.66667H4.33333C4.33333 1.29848 4.63181 1 5 1V0.5V0C4.07953 0 3.33333 0.746192 3.33333 1.66667H3.83333ZM5 0.5V1C5.36819 1 5.66667 1.29848 5.66667 1.66667H6.16667H6.66667C6.66667 0.746192 5.92047 0 5 0V0.5Z" fill="var(--stroke-0, white)"/>
</g>
</svg>
