<svg preserveAspectRatio="none" width="100%" height="100%" overflow="visible" style="display: block;" viewBox="0 0 14.8333 14.8336" fill="none" xmlns="http://www.w3.org/2000/svg">
<g id="elements">
<path id="Vector" d="M7.9529 5.98759L6.75 4.90878V10.4169C6.75 10.9692 6.30229 11.4169 5.75 11.4169C5.19772 11.4169 4.75 10.9692 4.75 10.4169V7.42887L3.55748 7.21896C2.57426 7.05655 2.08265 6.97534 1.73636 6.74689C1.16437 6.36954 0.750001 5.80285 0.750001 4.97556C0.750001 4.39934 0.879329 4.01275 1.19373 2.97408C1.39322 2.31502 1.49297 1.98549 1.65563 1.72463C1.92343 1.29517 2.31849 0.981599 2.77315 0.837635C3.04932 0.750189 3.36474 0.750188 3.9956 0.750188H4.53037C5.36908 0.750188 5.78843 0.75019 6.16177 0.919659C6.22872 0.950051 6.29415 0.984346 6.35778 1.0224C6.71264 1.23462 6.97709 1.59303 7.50597 2.30985L9.21815 4.63045C9.48125 4.98705 9.48301 5.4974 9.22236 5.85619C8.90908 6.28743 8.33366 6.34699 7.9529 5.98759Z" stroke="var(--stroke-0, #FFC83D)" stroke-width="1.5" stroke-linecap="round" stroke-linejoin="round"/>
<path id="Vector_2" d="M0.750001 8.75026C0.750001 11.2644 0.750001 12.5215 1.53105 13.3025C2.3121 14.0836 3.56918 14.0836 6.08333 14.0836H8.75C11.2642 14.0836 12.5212 14.0836 13.3023 13.3025C14.0833 12.5215 14.0833 11.2644 14.0833 8.75026V7.41693C14.0833 6.17442 14.0833 5.55316 13.8803 5.06311C13.6097 4.4097 13.0906 3.89057 12.4372 3.61992C12.0438 3.45698 11.5659 3.42483 10.75 3.41849" stroke="var(--stroke-0, #FFC83D)" stroke-width="1.5" stroke-linecap="round"/>
</g>
</svg>
