<svg preserveAspectRatio="none" width="100%" height="100%" overflow="visible" style="display: block;" viewBox="0 0 14.3333 11.6668" fill="none" xmlns="http://www.w3.org/2000/svg">
<g id="elements">
<path id="Vector" d="M8.5 8.50013C8.5 7.24305 8.5 6.61452 8.89053 6.22399C9.28105 5.83347 9.90959 5.83347 11.1667 5.83347C12.4237 5.83347 13.0523 5.83347 13.4428 6.22399C13.8333 6.61452 13.8333 7.24305 13.8333 8.50013C13.8333 9.75721 13.8333 10.3858 13.4428 10.7763C13.0523 11.1668 12.4237 11.1668 11.1667 11.1668C9.90959 11.1668 9.28105 11.1668 8.89053 10.7763C8.5 10.3858 8.5 9.75721 8.5 8.50013Z" stroke="var(--stroke-0, #007BFF)"/>
<path id="Vector_2" d="M8.5 8.50013V5.7419C8.5 3.29726 10.1771 1.22403 12.5 0.500133" stroke="var(--stroke-0, #007BFF)" stroke-linecap="round"/>
<path id="Vector_3" d="M0.500001 8.50013C0.500001 7.24305 0.500001 6.61452 0.890526 6.22399C1.28105 5.83347 1.90959 5.83347 3.16667 5.83347C4.42375 5.83347 5.05229 5.83347 5.44281 6.22399C5.83334 6.61452 5.83333 7.24305 5.83333 8.50013C5.83333 9.75721 5.83334 10.3858 5.44281 10.7763C5.05229 11.1668 4.42375 11.1668 3.16667 11.1668C1.90959 11.1668 1.28105 11.1668 0.890526 10.7763C0.500001 10.3858 0.500001 9.75721 0.500001 8.50013Z" stroke="var(--stroke-0, #007BFF)"/>
<path id="Vector_4" d="M0.500001 8.50013V5.7419C0.500001 3.29726 2.17714 1.22403 4.5 0.500133" stroke="var(--stroke-0, #007BFF)" stroke-linecap="round"/>
</g>
</svg>
