<svg preserveAspectRatio="none" width="100%" height="100%" overflow="visible" style="display: block;" viewBox="0 0 135.738 20" fill="none" xmlns="http://www.w3.org/2000/svg">
<g id="_2214726652416">
<path id="Vector" fill-rule="evenodd" clip-rule="evenodd" d="M6.21089 1.40616C4.4201 2.30094 2.58745 3.89774 1.38781 5.90249C-1.07274 10.0152 -0.288627 15.6867 3.9576 18.4811C4.79174 19.0303 6.63664 19.7488 7.70049 19.8365C10.5551 20.0711 13.5149 19.9708 16.389 19.966C17.4753 19.9669 18.1165 19.7946 18.8495 19.5346C20.4943 18.9368 22.0002 17.0684 22.1095 15.1902C22.1677 14.2058 21.7409 13.0238 21.1253 12.3043C19.9889 10.9782 18.6831 10.984 16.925 10.9752L10.6562 10.9772C10.4765 10.9772 10.2478 10.9782 10.0926 10.9042C9.4974 10.6169 9.32282 9.98113 9.84351 9.40472C10.305 8.89745 11.3546 9.02403 11.9457 9.025L14.9198 9.02598L15.9643 7.26463L14.931 5.51497C14.0775 5.51887 13.1576 5.53445 12.1203 5.53445C10.7246 5.53445 9.81186 5.44 8.50502 6.21114C5.88214 7.75925 5.04596 10.8662 6.69075 13.0257C7.73724 14.3986 9.53416 14.5076 11.2627 14.5408C14.6993 14.606 13.3516 14.532 16.8086 14.5271C17.5304 14.5262 18.1604 14.4784 18.3268 15.0344C18.4064 15.2992 18.3329 15.7442 18.1706 15.9681C18.0664 16.121 17.899 16.2281 17.7152 16.306C17.4732 16.4082 17.3109 16.4248 17.0067 16.4277L11.1606 16.4851C10.0263 16.4959 9.05634 16.4141 7.94144 16.2125C5.73614 15.6186 4.05766 13.6333 3.83713 11.4124C3.69215 9.95289 3.90553 8.66572 4.6049 7.37173C5.16337 6.33771 6.32218 5.39522 7.21757 4.82466C8.20791 4.19373 9.59133 3.64459 10.9942 3.59104C12.0927 3.56767 16.68 3.61246 20.3432 3.58325L18.2941 0.000198724C14.7728 -0.00272224 13.2301 0.0274618 11.8814 0.0313564C9.95582 0.0371983 8.00576 0.508447 6.20987 1.40616H6.21089ZM15.7846 9.03084L17.0291 9.03571L18.0787 7.26463L17.0393 5.50329L15.7846 5.51108L16.8208 7.26463L15.7846 9.03084ZM17.8939 9.0396C18.3145 9.04058 18.7331 9.04155 19.1405 9.04155L20.1931 7.26463L19.1487 5.49453C18.725 5.4955 18.3094 5.49745 17.8918 5.4994L18.9343 7.26561L17.8939 9.0396ZM20.0063 9.04253C20.4279 9.04253 20.8302 9.04058 21.2018 9.0396L22.2524 7.26463L21.209 5.49745C20.7924 5.4955 20.3922 5.49453 20.0022 5.49453L21.0487 7.26561L20.0063 9.04253Z" fill="var(--fill-0, white)"/>
<path id="Vector_2" d="M33.6814 16.6652C32.6441 16.6652 31.6803 16.5026 30.79 16.1794C29.8998 15.8551 29.1279 15.3946 28.4745 14.7958C27.821 14.197 27.3116 13.495 26.9471 12.6888C26.5816 11.8826 26.3988 10.9966 26.3988 10.0317C26.3988 9.06681 26.5816 8.18079 26.9471 7.37558C27.3116 6.56939 27.8241 5.86739 28.4837 5.26859C29.1432 4.66979 29.9151 4.20925 30.7982 3.88502C31.6824 3.56177 32.6492 3.39917 33.6998 3.39917C34.8647 3.39917 35.9184 3.59196 36.8597 3.97655C37.8011 4.36114 38.5923 4.92586 39.2325 5.67168L37.2344 7.4301C36.7729 6.92965 36.2604 6.55381 35.6979 6.30358C35.1343 6.05336 34.5197 5.92776 33.853 5.92776C33.2251 5.92776 32.6492 6.02512 32.1234 6.22082C31.5987 6.41653 31.1433 6.69791 30.7594 7.06401C30.3755 7.4301 30.0774 7.86435 29.8661 8.36481C29.6547 8.86527 29.5485 9.42122 29.5485 10.0317C29.5485 10.6432 29.6537 11.1981 29.8661 11.6996C30.0774 12.2 30.3755 12.6343 30.7594 13.0004C31.1433 13.3665 31.5987 13.6479 32.1234 13.8436C32.6482 14.0393 33.2251 14.1366 33.853 14.1366C34.5186 14.1366 35.1333 14.011 35.6979 13.7608C36.2614 13.5106 36.774 13.1289 37.2344 12.6158L39.2325 14.3752C38.5923 15.12 37.8011 15.6877 36.8597 16.0791C35.9184 16.4695 34.8586 16.6652 33.6804 16.6652H33.6814ZM65.4827 14.344C65.6481 14.3479 65.8533 14.3518 66.0943 14.3538L66.7385 15.4812L66.0616 16.6652C64.9937 16.6467 64.375 16.6068 63.987 16.5659C63.1917 16.4831 62.3994 16.2261 61.8011 15.7032C61.1221 15.1113 60.7832 14.2291 60.7832 13.0559V4.40885H63.7808V13.0199C63.7808 13.4346 63.8941 13.7579 64.1269 13.9818C64.3147 14.1629 64.5608 14.2729 64.8446 14.308C65.0427 14.3323 65.2806 14.3392 65.4827 14.344ZM66.6773 14.3586C66.8692 14.3596 67.0765 14.3606 67.296 14.3606L67.9371 15.4812L67.2531 16.6769C67.0479 16.6759 66.8427 16.6749 66.6374 16.673C66.9764 16.0839 67.3184 15.4871 67.3154 15.4812C67.3184 15.4754 67.0029 14.9243 66.6773 14.3586ZM67.8769 14.3606H68.0566C69.2195 14.3577 70.6468 14.3479 71.4442 14.3226C72.0047 14.3051 72.8307 14.2437 73.3166 14.1016C73.7332 13.9789 74.0538 13.8085 74.2774 13.5885C74.501 13.3684 74.6133 13.1007 74.6133 12.7823C74.6133 12.4892 74.4908 12.2507 74.2478 12.0676C74.0048 11.8846 73.6873 11.7288 73.2972 11.6003C72.9062 11.4717 72.4743 11.3471 72.0006 11.2244C71.5269 11.1018 71.0501 10.9586 70.5692 10.7931C70.0894 10.6286 69.6534 10.4212 69.2634 10.17C68.8734 9.91974 68.5558 9.59941 68.3129 9.208C68.0699 8.81659 67.9473 8.32879 67.9473 7.74167C67.9473 6.86246 68.2005 6.09912 68.7059 5.45164C69.2123 4.80416 69.926 4.2998 70.8479 3.93955C71.7699 3.5793 72.8521 3.39917 74.0946 3.39917C75.0033 3.39917 75.8619 3.49362 76.6695 3.68348C77.4761 3.87334 78.1673 4.14402 78.7441 4.49843L77.5721 6.76996C77.0595 6.43989 76.4898 6.19259 75.8619 6.02804C75.234 5.86349 74.5878 5.78073 73.9211 5.78073C73.3187 5.78073 72.8041 5.84792 72.3743 5.98228C71.9455 6.11664 71.6188 6.30261 71.3942 6.54116C71.1695 6.77873 71.0583 7.05038 71.0583 7.35611C71.0583 7.66183 71.1767 7.90817 71.4135 8.09803C71.6504 8.28789 71.9669 8.44563 72.3641 8.57415C72.7612 8.70267 73.1972 8.8273 73.6699 8.94998C74.1436 9.07266 74.6174 9.21287 75.0911 9.37157C75.5648 9.53028 76.0008 9.73279 76.3969 9.97621C76.7941 10.2206 77.1147 10.5292 77.3577 10.9012C77.6007 11.2741 77.7221 11.7405 77.7221 12.3032C77.7221 13.1825 77.4659 13.9487 76.9544 14.603C76.4419 15.2563 75.7221 15.7636 74.793 16.1239C73.8649 16.4841 72.7725 16.6642 71.5177 16.6642C70.2884 16.6642 69.0592 16.6779 67.8299 16.6769C68.1699 16.0869 68.514 15.4852 68.5109 15.4793C68.514 15.4735 68.1985 14.9233 67.8738 14.3586L67.8769 14.3606ZM85.2232 16.5922C84.3912 16.5922 83.6642 16.4393 83.0435 16.1346C82.4217 15.8288 81.9582 15.3557 81.6509 14.715C81.3435 14.0733 81.2343 13.2457 81.3241 12.2322C81.4007 11.0599 81.6539 10.0395 82.0827 9.17197C82.5115 8.30542 83.0976 7.63262 83.8408 7.15651C84.5831 6.68039 85.4611 6.44184 86.4729 6.44184C87.2795 6.44184 88.0227 6.61613 88.7017 6.96469C89.3806 7.31229 89.9248 7.81372 90.3342 8.46704C90.7436 9.12036 90.9489 9.91779 90.9489 10.8583C90.9489 11.6772 90.8018 12.4376 90.5068 13.1396C90.2127 13.8426 89.8054 14.4492 89.2867 14.9633C88.7681 15.4764 88.1626 15.8766 87.4714 16.1638C86.7802 16.451 86.0308 16.5941 85.2232 16.5941V16.5922ZM77.8651 20L80.6697 6.58886H83.5131L83.0904 8.54883L82.437 11.4805L82.0337 14.4122L80.8616 20H77.8641H77.8651ZM84.8782 14.2291C85.4795 14.2291 86.0053 14.0918 86.4535 13.8163C86.9017 13.5417 87.257 13.163 87.5194 12.68C87.7818 12.1971 87.9135 11.6324 87.9135 10.9849C87.9135 10.3131 87.7083 9.78148 87.2979 9.39105C86.8884 9.00061 86.3055 8.8049 85.55 8.8049C84.9731 8.8049 84.4544 8.94219 83.994 9.21676C83.5325 9.49133 83.1741 9.87008 82.9179 10.353C82.6616 10.835 82.534 11.3997 82.534 12.0481C82.534 12.72 82.7392 13.2506 83.1486 13.642C83.558 14.0325 84.1349 14.2291 84.8782 14.2291ZM91.588 16.4461L93.6432 6.58886H96.4866L95.8904 9.39201L95.6219 8.58583C96.0833 7.79133 96.6847 7.23635 97.428 6.91894C98.1702 6.60152 99.0605 6.44184 100.098 6.44184L99.5597 9.08045C99.4321 9.06877 99.3137 9.05903 99.2044 9.05318C99.0962 9.04734 98.9839 9.04442 98.8685 9.04442C97.9854 9.04442 97.2646 9.25181 96.7072 9.66756C96.1497 10.0823 95.775 10.7551 95.5831 11.683L94.5835 16.4471H91.587L91.588 16.4461ZM99.5077 16.4461L101.563 6.58886H104.54L102.485 16.4461H99.5077ZM103.58 5.21504C103.042 5.21504 102.613 5.07093 102.293 4.78468C101.972 4.49745 101.812 4.14597 101.812 3.73119C101.812 3.24242 101.995 2.8364 102.36 2.51217C102.725 2.18892 103.203 2.02632 103.792 2.02632C104.33 2.02632 104.759 2.16361 105.079 2.43915C105.4 2.71372 105.56 3.05255 105.56 3.45565C105.56 3.98045 105.377 4.40496 105.012 4.72919C104.647 5.05244 104.169 5.21504 103.58 5.21504ZM113.056 6.44282C113.939 6.44282 114.689 6.6171 115.304 6.96567C115.919 7.31326 116.355 7.82346 116.61 8.49528C116.866 9.1671 116.892 9.99763 116.687 10.9869L115.534 16.4471H112.536L113.651 11.1709C113.804 10.4494 113.744 9.89442 113.468 9.50301C113.193 9.11258 112.69 8.91687 111.96 8.91687C111.205 8.91687 110.574 9.12426 110.068 9.54001C109.562 9.95479 109.213 10.5906 109.021 11.4455L107.984 16.4471H104.986L107.041 6.58984H109.885L109.29 9.37449L108.867 8.53228C109.367 7.81178 109.984 7.28308 110.721 6.94717C111.457 6.61126 112.235 6.44282 113.055 6.44282H113.056ZM122.187 16.5932C121.443 16.5932 120.809 16.4491 120.284 16.1628C119.76 15.8756 119.385 15.4608 119.16 14.9175C118.936 14.3742 118.901 13.7296 119.054 12.9848L120.841 4.4108H123.838L122.052 12.9673C121.975 13.3821 122.02 13.7121 122.187 13.9565C122.353 14.2009 122.66 14.3236 123.109 14.3236C123.314 14.3236 123.521 14.2934 123.733 14.2321C123.945 14.1707 124.14 14.085 124.319 13.975L124.761 16.009C124.39 16.229 123.98 16.3809 123.531 16.4666C123.083 16.5523 122.635 16.5951 122.187 16.5951V16.5932ZM118.325 8.78835L118.787 6.58984H125.953L125.491 8.78835H118.325ZM129.857 16.5932C128.948 16.5932 128.093 16.4958 127.292 16.3001C126.492 16.1044 125.873 15.861 125.438 15.5679L126.591 13.4979C127.039 13.7783 127.586 14.0042 128.234 14.1756C128.881 14.3469 129.53 14.4326 130.184 14.4326C130.888 14.4326 131.401 14.3469 131.72 14.1756C132.041 14.0042 132.201 13.7725 132.201 13.4794C132.201 13.2477 132.067 13.0734 131.798 12.9575C131.529 12.8417 131.19 12.7472 130.78 12.6732C130.371 12.6002 129.932 12.5145 129.464 12.4172C128.996 12.3188 128.554 12.1825 128.139 12.0043C127.722 11.8271 127.383 11.5711 127.121 11.2351C126.859 10.8992 126.727 10.4572 126.727 9.90708C126.727 9.16224 126.947 8.53325 127.389 8.02014C127.832 7.50702 128.446 7.11658 129.234 6.84785C130.022 6.57913 130.915 6.44477 131.914 6.44477C132.632 6.44477 133.329 6.51779 134.008 6.66481C134.687 6.81183 135.264 7.01338 135.738 7.26945L134.662 9.35794C134.175 9.06487 133.666 8.86624 133.134 8.76206C132.603 8.65788 132.093 8.60627 131.607 8.60627C130.903 8.60627 130.394 8.70072 130.08 8.89059C129.766 9.07947 129.609 9.30828 129.609 9.57701C129.609 9.80874 129.741 9.98887 130.003 10.1174C130.266 10.2459 130.602 10.3491 131.012 10.429C131.421 10.5088 131.863 10.5935 132.337 10.686C132.811 10.7775 133.253 10.9119 133.662 11.0891C134.073 11.2663 134.409 11.5165 134.671 11.8398C134.933 12.164 135.065 12.6002 135.065 13.1493C135.065 13.8942 134.838 14.5271 134.383 15.046C133.929 15.565 133.31 15.9525 132.529 16.2095C131.748 16.4656 130.858 16.5941 129.859 16.5941L129.857 16.5932ZM45.4257 16.5932C44.2475 16.5932 43.2132 16.3731 42.323 15.934C41.4337 15.4939 40.7445 14.8932 40.2575 14.1288C39.7715 13.3655 39.5275 12.4951 39.5275 11.5185C39.5275 10.5292 39.7675 9.65296 40.2483 8.88961C40.7282 8.12627 41.3847 7.52747 42.2168 7.09322C43.0499 6.65994 43.9902 6.44282 45.0408 6.44282C46.0526 6.44282 46.9653 6.64728 47.778 7.05622C48.5917 7.46515 49.2349 8.05129 49.7087 8.81561C50.1824 9.57896 50.4193 10.4922 50.4193 11.5545C50.4193 11.6636 50.4121 11.7892 50.3999 11.9303C50.3866 12.0705 50.3743 12.202 50.3621 12.3237H41.9666V10.6568H48.7867L47.6341 11.1514C47.6341 10.6383 47.5248 10.1924 47.3073 9.81458C47.0899 9.43583 46.7887 9.13887 46.4048 8.92564C46.0209 8.71143 45.5717 8.60531 45.0602 8.60531C44.5487 8.60531 44.0964 8.71241 43.7064 8.92564C43.3164 9.13887 43.0121 9.43875 42.7936 9.82334C42.5762 10.2079 42.4669 10.6626 42.4669 11.1884V11.6285C42.4669 12.166 42.5915 12.6392 42.8416 13.0481C43.0917 13.457 43.444 13.7686 43.8983 13.9828C44.3526 14.197 44.8876 14.3031 45.5023 14.3031C46.0526 14.3031 46.5365 14.2233 46.952 14.0646C47.3686 13.9059 47.7494 13.6673 48.0955 13.3509L49.6903 14.9993C49.2166 15.5124 48.6203 15.9067 47.9036 16.1813C47.1859 16.4559 46.3599 16.5932 45.4247 16.5932H45.4257ZM52.1355 16.4471V6.58984H54.9983V9.37449L54.5951 8.56831C54.9024 7.87214 55.3955 7.34345 56.0744 6.98417C56.7534 6.62294 57.5794 6.44282 58.5534 6.44282V9.08142C58.4247 9.06973 58.3104 9.06 58.2073 9.05416C58.1041 9.04832 57.9959 9.04539 57.8805 9.04539C57.0607 9.04539 56.3981 9.26836 55.8917 9.71332C55.3863 10.1593 55.1331 10.8525 55.1331 11.793V16.4471H52.1355ZM59.1905 8.78835V6.58984H66.3567V8.78835H59.1905Z" fill="var(--fill-0, white)"/>
</g>
</svg>
