<svg preserveAspectRatio="none" width="100%" height="100%" overflow="visible" style="display: block;" viewBox="0 0 13 14.3333" fill="none" xmlns="http://www.w3.org/2000/svg">
<g id="elements">
<path id="Vector" d="M4.26199 1.26373L3.12544 1.78908C1.37515 2.59812 0.5 3.00265 0.5 3.66667C0.5 4.33069 1.37515 4.73521 3.12544 5.54426L4.26199 6.06961C5.36349 6.57876 5.91425 6.83333 6.5 6.83333C7.08575 6.83333 7.63651 6.57876 8.73801 6.0696L9.87456 5.54425C11.6249 4.73521 12.5 4.33069 12.5 3.66667C12.5 3.00265 11.6249 2.59812 9.87456 1.78908L8.73801 1.26373C7.63651 0.754576 7.08575 0.5 6.5 0.5C5.91425 0.5 5.36349 0.754576 4.26199 1.26373Z" stroke="var(--stroke-0, white)" stroke-linecap="round" stroke-linejoin="round"/>
<path id="Vector_2" d="M12.3587 6.56483C12.4529 6.69733 12.5 6.83543 12.5 6.98731C12.5 7.64187 11.6249 8.04063 9.87456 8.83816L8.73801 9.35603C7.63651 9.85793 7.08575 10.1089 6.5 10.1089C5.91425 10.1089 5.36349 9.85793 4.26199 9.35603L3.12544 8.83816C1.37515 8.04064 0.5 7.64187 0.5 6.98731C0.5 6.83543 0.547111 6.69733 0.641333 6.56483" stroke="var(--stroke-0, white)" stroke-linecap="round" stroke-linejoin="round"/>
<path id="Vector_3" d="M12.0844 10.0107C12.3615 10.2314 12.5 10.4513 12.5 10.7118C12.5 11.3663 11.6249 11.7651 9.87456 12.5626L8.73801 13.0805C7.63651 13.5824 7.08575 13.8333 6.5 13.8333C5.91425 13.8333 5.36349 13.5824 4.26199 13.0805L3.12544 12.5626C1.37515 11.7651 0.5 11.3663 0.5 10.7118C0.5 10.4513 0.638519 10.2314 0.915558 10.0107" stroke="var(--stroke-0, white)" stroke-linecap="round" stroke-linejoin="round"/>
</g>
</svg>
