<svg preserveAspectRatio="none" width="100%" height="100%" overflow="visible" style="display: block;" viewBox="0 0 14.3333 11" fill="none" xmlns="http://www.w3.org/2000/svg">
<g id="elements">
<path id="Vector" d="M10.8184 4.50004C10.8234 4.50001 10.8283 4.5 10.8333 4.5C12.4902 4.5 13.8333 5.84315 13.8333 7.5C13.8333 9.15685 12.4902 10.5 10.8333 10.5H3.83333C1.99238 10.5 0.5 9.00762 0.5 7.16667C0.5 5.43356 1.82265 4.00938 3.51362 3.84847M10.8184 4.50004C10.8283 4.39024 10.8333 4.27904 10.8333 4.16667C10.8333 2.14162 9.19171 0.5 7.16667 0.5C5.24883 0.5 3.67489 1.97241 3.51362 3.84847M10.8184 4.50004C10.7502 5.25633 10.4524 5.94641 9.99523 6.5M3.51362 3.84847C3.61884 3.83846 3.72549 3.83333 3.83333 3.83333C4.58388 3.83333 5.2765 4.08139 5.83366 4.5" stroke="var(--stroke-0, white)" stroke-linecap="round" stroke-linejoin="round"/>
</g>
</svg>
