<svg preserveAspectRatio="none" width="100%" height="100%" overflow="visible" style="display: block;" viewBox="0 0 12.3333 14.3333" fill="none" xmlns="http://www.w3.org/2000/svg">
<g id="elements">
<path id="Vector" d="M3.16927 1.5C2.13207 1.53112 1.51368 1.64656 1.08579 2.07485C0.500001 2.66118 0.500001 3.60487 0.500001 5.49224L0.500001 9.82961C0.500001 11.717 0.500001 12.6607 1.08579 13.247C1.67157 13.8333 2.61438 13.8333 4.5 13.8333L7.83333 13.8333C9.71895 13.8333 10.6618 13.8333 11.2475 13.247C11.8333 12.6607 11.8333 11.717 11.8333 9.82961V5.49224C11.8333 3.60487 11.8333 2.66118 11.2475 2.07485C10.8197 1.64656 10.2013 1.53112 9.16406 1.5" stroke="var(--stroke-0, white)"/>
<path id="Vector_2" d="M3.16667 1.66667C3.16667 1.02233 3.689 0.5 4.33333 0.5L8 0.5C8.64433 0.5 9.16667 1.02233 9.16667 1.66667C9.16667 2.311 8.64433 2.83333 8 2.83333L4.33333 2.83333C3.689 2.83333 3.16667 2.311 3.16667 1.66667Z" stroke="var(--stroke-0, white)" stroke-linejoin="round"/>
<path id="Vector_3" d="M7.16927 6.5H9.50261" stroke="var(--stroke-0, white)" stroke-linecap="round"/>
<path id="Vector_4" d="M2.83594 7.16667C2.83594 7.16667 3.16927 7.16667 3.5026 7.83333C3.5026 7.83333 4.56143 6.16667 5.5026 5.83333" stroke="var(--stroke-0, white)" stroke-linecap="round" stroke-linejoin="round"/>
<path id="Vector_5" d="M7.16927 10.5H9.50261" stroke="var(--stroke-0, white)" stroke-linecap="round"/>
<path id="Vector_6" d="M3.5026 10.5H4.16927" stroke="var(--stroke-0, white)" stroke-width="1.33333" stroke-linecap="round" stroke-linejoin="round"/>
</g>
</svg>
