<svg preserveAspectRatio="none" width="100%" height="100%" overflow="visible" style="display: block;" viewBox="0 0 14.3334 11.6667" fill="none" xmlns="http://www.w3.org/2000/svg">
<g id="elements">
<circle id="Ellipse 1647" cx="10.5" cy="9.83338" r="1.33333" stroke="var(--stroke-0, white)"/>
<circle id="Ellipse 1648" cx="3.83333" cy="9.83338" r="1.33333" stroke="var(--stroke-0, white)"/>
<path id="Vector" d="M2.5 9.81501C1.76885 9.77857 1.31274 9.66981 0.988155 9.34523C0.663575 9.02065 0.554812 8.56453 0.518367 7.83338M5.16667 9.83338H9.16667M11.8333 9.81501C12.5645 9.77857 13.0206 9.66981 13.3452 9.34523C13.8333 8.85707 13.8333 8.0714 13.8333 6.50005V5.16671H10.7C10.2037 5.16671 9.95549 5.16671 9.75464 5.10146C9.34873 4.96957 9.03048 4.65132 8.89859 4.2454C8.83333 4.04456 8.83333 3.79639 8.83333 3.30005C8.83333 2.55553 8.83333 2.18328 8.73545 1.88201C8.53761 1.27314 8.06024 0.79577 7.45137 0.597934C7.1501 0.500047 6.77785 0.500047 6.03333 0.500047H0.5" stroke="var(--stroke-0, white)" stroke-linecap="round" stroke-linejoin="round"/>
<path id="Vector_2" d="M0.5 3.16671H4.5" stroke="var(--stroke-0, white)" stroke-linecap="round" stroke-linejoin="round"/>
<path id="Vector_3" d="M0.5 5.16671H3.16667" stroke="var(--stroke-0, white)" stroke-linecap="round" stroke-linejoin="round"/>
<path id="Vector_4" d="M8.83333 1.83338H10.0475C11.0177 1.83338 11.5028 1.83338 11.8976 2.06919C12.2924 2.30499 12.5224 2.73212 12.9824 3.58638L13.8333 5.16671" stroke="var(--stroke-0, white)" stroke-linecap="round" stroke-linejoin="round"/>
</g>
</svg>
