<svg preserveAspectRatio="none" width="100%" height="100%" overflow="visible" style="display: block;" viewBox="0 0 23.5001 17.5" fill="none" xmlns="http://www.w3.org/2000/svg">
<g id="elements">
<path id="Vector" d="M20.5241 14.75C21.2734 14.75 21.8694 14.2785 22.4045 13.6191C23.4999 12.2694 21.7014 11.1908 21.0154 10.6626C20.3181 10.1256 19.5394 9.82142 18.75 9.75M17.75 7.75C19.1307 7.75 20.25 6.63071 20.25 5.25C20.25 3.86929 19.1307 2.75 17.75 2.75" stroke="var(--stroke-0, #007BFF)" stroke-width="1.5" stroke-linecap="round"/>
<path id="Vector_2" d="M2.976 14.75C2.2267 14.75 1.63071 14.2785 1.09559 13.6191C0.000132078 12.2694 1.79871 11.1908 2.48469 10.6626C3.18202 10.1256 3.96063 9.82142 4.75004 9.75M5.25004 7.75C3.86933 7.75 2.75004 6.63071 2.75004 5.25C2.75004 3.86929 3.86933 2.75 5.25004 2.75" stroke="var(--stroke-0, #007BFF)" stroke-width="1.5" stroke-linecap="round"/>
<path id="Vector_3" d="M7.83381 11.8612C6.81203 12.493 4.13299 13.7831 5.76471 15.3974C6.56179 16.186 7.44953 16.75 8.56564 16.75H14.9344C16.0505 16.75 16.9382 16.186 17.7353 15.3974C19.367 13.7831 16.688 12.493 15.6662 11.8612C13.2702 10.3796 10.2299 10.3796 7.83381 11.8612Z" stroke="var(--stroke-0, #007BFF)" stroke-width="1.5" stroke-linecap="round" stroke-linejoin="round"/>
<path id="Vector_4" d="M15.25 4.25C15.25 6.183 13.683 7.75 11.75 7.75C9.81701 7.75 8.25001 6.183 8.25001 4.25C8.25001 2.317 9.81701 0.75 11.75 0.75C13.683 0.75 15.25 2.317 15.25 4.25Z" stroke="var(--stroke-0, #007BFF)" stroke-width="1.5"/>
</g>
</svg>
