<svg preserveAspectRatio="none" width="100%" height="100%" overflow="visible" style="display: block;" viewBox="0 0 21.5 21.5" fill="none" xmlns="http://www.w3.org/2000/svg">
<g id="elements">
<path id="Vector" d="M12.75 20.75V6.75C12.75 3.92157 12.75 2.50736 11.8713 1.62868C10.9926 0.750001 9.57843 0.750001 6.75 0.750001C3.92157 0.750001 2.50736 0.750001 1.62868 1.62868C0.750001 2.50736 0.750001 3.92157 0.750001 6.75V14.75C0.750001 17.5784 0.750001 18.9926 1.62868 19.8713C2.50736 20.75 3.92157 20.75 6.75 20.75H12.75Z" stroke="var(--stroke-0, #974FFC)" stroke-width="1.5" stroke-linecap="round"/>
<path id="Vector_2" d="M5.25 9.75H4.25M9.25 9.75H8.25M5.25 5.75H4.25M5.25 13.75H4.25M9.25 5.75H8.25M9.25 13.75H8.25" stroke="var(--stroke-0, #974FFC)" stroke-width="1.5" stroke-linecap="round"/>
<path id="Vector_3" d="M17.25 13.75H16.25M17.25 9.75H16.25" stroke="var(--stroke-0, #974FFC)" stroke-width="1.5" stroke-linecap="round"/>
<path id="Vector_4" d="M16.75 6.75H12.75V20.75H16.75C18.6356 20.75 19.5784 20.75 20.1642 20.1642C20.75 19.5784 20.75 18.6356 20.75 16.75V10.75C20.75 8.86438 20.75 7.92157 20.1642 7.33579C19.5784 6.75 18.6356 6.75 16.75 6.75Z" stroke="var(--stroke-0, #974FFC)" stroke-width="1.5" stroke-linecap="round"/>
</g>
</svg>
