<svg preserveAspectRatio="none" width="16.5" height="15.2702" overflow="visible" style="display: block;" viewBox="0 0 16.5 15.2702" fill="none" xmlns="http://www.w3.org/2000/svg">
<g id="elements">
<path id="Vector" d="M11.3877 10.655C9.61168 11.8224 8.58804 13.9117 8.25001 14.5202V4.39518C8.52364 3.90265 9.2465 2.6015 10.454 1.55378C11.2048 0.902307 11.5802 0.57657 12.1651 0.843444C12.75 1.11032 12.75 1.71409 12.75 2.92164V8.51157C12.75 9.15223 12.75 9.47256 12.6301 9.69479C12.5103 9.91701 12.1361 10.163 11.3877 10.6549L11.3877 10.655Z" stroke="#94A3B8" stroke-width="1.5" stroke-linecap="round" stroke-linejoin="round"/>
<path id="Vector_2" d="M8.25001 4.24934C7.73484 3.7082 6.24132 2.42298 3.73543 1.97236C2.46593 1.74408 1.83118 1.62994 1.29059 2.06743C0.750007 2.50491 0.750007 3.21534 0.750007 4.63618V9.74244C0.750007 11.0416 0.750007 11.6912 1.09696 12.0967C1.4439 12.5023 2.20775 12.6396 3.73543 12.9144C5.09725 13.1592 6.16009 13.5494 6.92939 13.9415C7.68629 14.3273 8.06476 14.5202 8.25001 14.5202C8.43525 14.5202 8.81372 14.3273 9.57062 13.9415C10.3399 13.5494 11.4028 13.1592 12.7646 12.9144C14.2923 12.6396 15.0561 12.5023 15.4031 12.0967C15.75 11.6912 15.75 11.0416 15.75 9.74244V4.63618C15.75 3.21534 15.75 2.50491 15.2094 2.06743C14.6688 1.62994 13.5 1.97236 12.75 2.52018" stroke="#94A3B8" stroke-width="1.5" stroke-linecap="round" stroke-linejoin="round"/>
</g>
</svg>
