<svg preserveAspectRatio="none" width="12.5769" height="12.5769" overflow="visible" style="display: block;" viewBox="0 0 12.5769 12.5769" fill="none" xmlns="http://www.w3.org/2000/svg">
<g id="elements">
<path id="Vector" d="M5.76923 8.94231C5.76923 7.75607 5.76923 7.16294 6.0243 6.72116C6.1914 6.43173 6.43173 6.1914 6.72116 6.0243C7.16294 5.76923 7.75607 5.76923 8.94231 5.76923C10.1286 5.76923 10.7217 5.76923 11.1635 6.0243C11.4529 6.1914 11.6932 6.43173 11.8603 6.72116C12.1154 7.16294 12.1154 7.75607 12.1154 8.94231C12.1154 10.1286 12.1154 10.7217 11.8603 11.1635C11.6932 11.4529 11.4529 11.6932 11.1635 11.8603C10.7217 12.1154 10.1286 12.1154 8.94231 12.1154C7.75607 12.1154 7.16294 12.1154 6.72116 11.8603C6.43173 11.6932 6.1914 11.4529 6.0243 11.1635C5.76923 10.7217 5.76923 10.1286 5.76923 8.94231Z" stroke="white" stroke-width="0.923077"/>
<path id="Vector_2" d="M4.33464 8.07692C4.05385 8.0502 3.84578 7.99776 3.66763 7.89491C3.42957 7.75746 3.23187 7.55977 3.09442 7.3217C2.88462 6.9583 2.88462 6.47043 2.88462 5.49467C2.88462 4.51891 2.88462 4.03103 3.09442 3.66763C3.23187 3.42957 3.42957 3.23187 3.66763 3.09442C4.03103 2.88462 4.51891 2.88462 5.49467 2.88462C6.47043 2.88462 6.9583 2.88462 7.3217 3.09442C7.55977 3.23187 7.75746 3.42957 7.89491 3.66763C7.99776 3.84578 8.0502 4.05385 8.07692 4.33464" stroke="white" stroke-width="1.15385" stroke-linecap="round"/>
<path id="Vector_3" d="M1.39391 4.61539C1.11844 4.53199 0.885706 4.32508 0.743179 4.07918C0.576924 3.79234 0.576924 3.40725 0.576924 2.63707C0.576924 1.86689 0.576924 1.4818 0.743179 1.19497C0.852094 1.00706 1.00875 0.851018 1.1974 0.742529C1.48536 0.576924 1.87196 0.576924 2.64516 0.576924C3.41836 0.576924 3.80497 0.576924 4.09293 0.742529C4.32447 0.875686 4.52455 1.08945 4.61539 1.34284" stroke="white" stroke-width="1.15385" stroke-linecap="round"/>
</g>
</svg>
