<svg preserveAspectRatio="none" width="0.154778" height="3.99995" overflow="visible" style="display: block;" viewBox="0 0 0.154778 3.99995" fill="none" xmlns="http://www.w3.org/2000/svg">
<g id="Ellipse 1577">
<mask id="path-1-inside-1_0_291" fill="white">
<path d="M1.89871e-07 0.0775784C1.90383e-07 0.0346292 0.0348176 -0.000207817 0.0777663 9.33277e-07V9.33277e-07C0.120715 0.000209683 0.155192 0.0353835 0.154775 0.0783306L0.117215 3.94206C0.116902 3.97427 0.0905363 4.00011 0.0583247 3.99995V3.99995C0.0261132 3.9998 1.4341e-07 3.9737 1.43794e-07 3.94149L1.89871e-07 0.0775784Z"/>
</mask>
<path d="M1.89871e-07 0.0775784C1.90383e-07 0.0346292 0.0348176 -0.000207817 0.0777663 9.33277e-07V9.33277e-07C0.120715 0.000209683 0.155192 0.0353835 0.154775 0.0783306L0.117215 3.94206C0.116902 3.97427 0.0905363 4.00011 0.0583247 3.99995V3.99995C0.0261132 3.9998 1.4341e-07 3.9737 1.43794e-07 3.94149L1.89871e-07 0.0775784Z" fill="#FFD1C0" stroke="#FF6B35" stroke-width="8" mask="url(#path-1-inside-1_0_291)"/>
</g>
</svg>
