<svg preserveAspectRatio="none" width="31.889" height="31.889" overflow="visible" style="display: block;" viewBox="0 0 31.889 31.889" fill="none" xmlns="http://www.w3.org/2000/svg">
<g id="Ellipse 1577">
<mask id="path-1-inside-1_0_305" fill="white">
<path d="M1.88902 15.889C0.78445 15.889 -0.123864 16.7879 0.0138508 17.8839C0.322673 20.3415 1.19928 22.7035 2.58551 24.7781C4.34361 27.4093 6.84247 29.4601 9.76608 30.6711C12.6897 31.8821 15.9068 32.1989 19.0105 31.5816C22.1142 30.9642 24.9651 29.4404 27.2027 27.2027C29.4404 24.9651 30.9642 22.1142 31.5816 19.0105C32.1989 15.9068 31.8821 12.6897 30.6711 9.76609C29.4601 6.84247 27.4093 4.34361 24.7781 2.58551C22.7035 1.19928 20.3415 0.322673 17.8839 0.0138509C16.7879 -0.123864 15.889 0.78445 15.889 1.88902V1.88902C15.889 2.99359 16.7905 3.87205 17.8798 4.0553C19.5448 4.3354 21.1396 4.96506 22.5559 5.91138C24.5293 7.22996 26.0673 9.10411 26.9756 11.2968C27.8838 13.4895 28.1215 15.9023 27.6584 18.2301C27.1954 20.5579 26.0525 22.6961 24.3743 24.3743C22.6961 26.0525 20.5579 27.1954 18.2301 27.6584C15.9023 28.1215 13.4895 27.8838 11.2968 26.9756C9.1041 26.0673 7.22996 24.5293 5.91138 22.5559C4.96506 21.1396 4.3354 19.5448 4.0553 17.8798C3.87205 16.7905 2.99359 15.889 1.88902 15.889V15.889Z"/>
</mask>
<path d="M1.88902 15.889C0.78445 15.889 -0.123864 16.7879 0.0138508 17.8839C0.322673 20.3415 1.19928 22.7035 2.58551 24.7781C4.34361 27.4093 6.84247 29.4601 9.76608 30.6711C12.6897 31.8821 15.9068 32.1989 19.0105 31.5816C22.1142 30.9642 24.9651 29.4404 27.2027 27.2027C29.4404 24.9651 30.9642 22.1142 31.5816 19.0105C32.1989 15.9068 31.8821 12.6897 30.6711 9.76609C29.4601 6.84247 27.4093 4.34361 24.7781 2.58551C22.7035 1.19928 20.3415 0.322673 17.8839 0.0138509C16.7879 -0.123864 15.889 0.78445 15.889 1.88902V1.88902C15.889 2.99359 16.7905 3.87205 17.8798 4.0553C19.5448 4.3354 21.1396 4.96506 22.5559 5.91138C24.5293 7.22996 26.0673 9.10411 26.9756 11.2968C27.8838 13.4895 28.1215 15.9023 27.6584 18.2301C27.1954 20.5579 26.0525 22.6961 24.3743 24.3743C22.6961 26.0525 20.5579 27.1954 18.2301 27.6584C15.9023 28.1215 13.4895 27.8838 11.2968 26.9756C9.1041 26.0673 7.22996 24.5293 5.91138 22.5559C4.96506 21.1396 4.3354 19.5448 4.0553 17.8798C3.87205 16.7905 2.99359 15.889 1.88902 15.889V15.889Z" fill="#FFD1C0" stroke="#FF6B35" stroke-width="8" mask="url(#path-1-inside-1_0_305)"/>
</g>
</svg>
