<svg preserveAspectRatio="none" width="100%" height="100%" overflow="visible" style="display: block;" viewBox="0 0 18.06 18.06" fill="none" xmlns="http://www.w3.org/2000/svg">
<g id="elements">
<path id="Vector" d="M17.43 14.07C17.43 15.2461 17.43 15.8342 17.2011 16.2834C16.9998 16.6785 16.6785 16.9998 16.2834 17.2011C15.8342 17.43 15.2461 17.43 14.07 17.43C12.8939 17.43 12.3058 17.43 11.8566 17.2011C11.4615 16.9998 11.1402 16.6785 10.9389 16.2834C10.71 15.8342 10.71 15.2461 10.71 14.07C10.71 12.8939 10.71 12.3058 10.9389 11.8566C11.1402 11.4615 11.4615 11.1402 11.8566 10.9389C12.3058 10.71 12.8939 10.71 14.07 10.71C15.2461 10.71 15.8342 10.71 16.2834 10.9389C16.6785 11.1402 16.9998 11.4615 17.2011 11.8566C17.43 12.3058 17.43 12.8939 17.43 14.07Z" stroke="var(--stroke-0, #22C55E)" stroke-width="1.26"/>
<path id="Vector_2" d="M17.43 7.35C17.43 8.52611 17.43 9.11417 17.2011 9.56338C16.9998 9.95852 16.6785 10.2798 16.2834 10.4811C15.8342 10.71 15.2461 10.71 14.07 10.71C12.8939 10.71 12.3058 10.71 11.8566 10.4811C11.4615 10.2798 11.1402 9.95852 10.9389 9.56338C10.71 9.11416 10.71 8.52611 10.71 7.35C10.71 6.17389 10.71 5.58583 10.9389 5.13662C11.1402 4.74148 11.4615 4.42022 11.8566 4.21889C12.3058 3.99 12.8939 3.99 14.07 3.99C15.2461 3.99 15.8342 3.99 16.2834 4.21889C16.6785 4.42022 16.9998 4.74148 17.2011 5.13662C17.43 5.58584 17.43 6.17389 17.43 7.35Z" stroke="var(--stroke-0, #22C55E)" stroke-width="1.26"/>
<path id="Vector_3" d="M10.71 14.07C10.71 15.2461 10.71 15.8342 10.4811 16.2834C10.2798 16.6785 9.95852 16.9998 9.56338 17.2011C9.11417 17.43 8.52611 17.43 7.35 17.43C6.17389 17.43 5.58583 17.43 5.13662 17.2011C4.74148 16.9998 4.42022 16.6785 4.21889 16.2834C3.99 15.8342 3.99 15.2461 3.99 14.07C3.99 12.8939 3.99 12.3058 4.21889 11.8566C4.42022 11.4615 4.74148 11.1402 5.13662 10.9389C5.58584 10.71 6.17389 10.71 7.35 10.71C8.52611 10.71 9.11417 10.71 9.56338 10.9389C9.95852 11.1402 10.2798 11.4615 10.4811 11.8566C10.71 12.3058 10.71 12.8939 10.71 14.07Z" stroke="var(--stroke-0, #22C55E)" stroke-width="1.26"/>
<path id="Vector_4" d="M7.35 3.99C7.35 5.16611 7.35 5.75417 7.12112 6.20338C6.91978 6.59852 6.59852 6.91978 6.20338 7.12111C5.75417 7.35 5.16611 7.35 3.99 7.35C2.81389 7.35 2.22583 7.35 1.77662 7.12111C1.38148 6.91978 1.06022 6.59852 0.858886 6.20338C0.63 5.75416 0.63 5.16611 0.63 3.99C0.630001 2.81389 0.630001 2.22583 0.858887 1.77662C1.06022 1.38148 1.38148 1.06022 1.77662 0.858886C2.22584 0.63 2.81389 0.63 3.99 0.63C5.16611 0.630001 5.75417 0.630001 6.20338 0.858887C6.59852 1.06022 6.91978 1.38148 7.12112 1.77662C7.35 2.22584 7.35 2.81389 7.35 3.99Z" stroke="var(--stroke-0, #22C55E)" stroke-width="1.26"/>
</g>
</svg>
