<svg preserveAspectRatio="none" width="100%" height="100%" overflow="visible" style="display: block;" viewBox="0 0 18.06 18.06" fill="none" xmlns="http://www.w3.org/2000/svg">
<g id="elements">
<path id="Vector" d="M9.02999 3.15V17.43M9.02999 17.43H6.50999M9.02999 17.43H11.55" stroke="var(--stroke-0, #22C55E)" stroke-width="1.26" stroke-linecap="round" stroke-linejoin="round"/>
<path id="Vector_2" d="M16.59 9.87L14.49 5.67L12.39 9.87" stroke="var(--stroke-0, #22C55E)" stroke-width="1.26" stroke-linecap="round" stroke-linejoin="round"/>
<path id="Vector_3" d="M5.66999 9.87L3.56999 5.67L1.46999 9.87" stroke="var(--stroke-0, #22C55E)" stroke-width="1.26" stroke-linecap="round" stroke-linejoin="round"/>
<path id="Vector_4" d="M2.30999 5.67H3.19048C4.25179 5.67 5.2815 5.22564 6.11024 4.41C7.81723 2.73 10.2428 2.73 11.9497 4.41C12.7785 5.22564 13.8082 5.67 14.8695 5.67H15.75" stroke="var(--stroke-0, #22C55E)" stroke-width="1.26" stroke-linecap="round" stroke-linejoin="round"/>
<path id="Vector_5" d="M14.49 13.23C15.628 13.23 16.6189 12.5297 17.1337 11.4953C17.4115 10.937 17.5504 10.6579 17.2969 10.2639C17.0433 9.87 16.6236 9.87 15.7842 9.87H13.1958C12.3564 9.87 11.9367 9.87 11.6831 10.2639C11.4295 10.6579 11.5685 10.937 11.8463 11.4953C12.3611 12.5297 13.352 13.23 14.49 13.23Z" stroke="var(--stroke-0, #22C55E)" stroke-width="1.26"/>
<path id="Vector_6" d="M3.56999 13.23C4.70795 13.23 5.69891 12.5297 6.2137 11.4953C6.49153 10.937 6.63044 10.6579 6.37686 10.2639C6.12328 9.87 5.70359 9.87 4.86422 9.87H2.27576C1.43639 9.87 1.01671 9.87 0.763127 10.2639C0.509545 10.6579 0.64846 10.937 0.92629 11.4953C1.44108 12.5297 2.43203 13.23 3.56999 13.23Z" stroke="var(--stroke-0, #22C55E)" stroke-width="1.26"/>
<path id="Vector_7" d="M10.29 1.89C10.29 2.58588 9.72587 3.15 9.02999 3.15C8.33411 3.15 7.76999 2.58588 7.76999 1.89C7.76999 1.19412 8.33411 0.63 9.02999 0.63C9.72587 0.63 10.29 1.19412 10.29 1.89Z" stroke="var(--stroke-0, #22C55E)" stroke-width="1.26"/>
</g>
</svg>
