<svg preserveAspectRatio="none" width="100%" height="100%" overflow="visible" style="display: block;" viewBox="0 0 12.4598 12.4598" fill="none" xmlns="http://www.w3.org/2000/svg">
<g id="elements">
<path id="Vector" d="M10.8661 4.49131C10.4053 2.18165 8.26563 0.434643 5.69629 0.434643C2.79069 0.434643 0.434643 2.66883 0.434643 5.42437C0.434643 6.74831 0.978346 7.95129 1.86523 8.84399C2.06049 9.04056 2.19086 9.3091 2.13825 9.5855C2.05141 10.0374 1.85462 10.4589 1.56648 10.8103C2.3246 10.95 3.11289 10.8242 3.78893 10.4678C4.02791 10.3418 4.1474 10.2788 4.23172 10.2661C4.29075 10.2571 4.36763 10.2655 4.49131 10.2867" stroke="var(--stroke-0, white)" stroke-width="0.869286" stroke-linecap="round" stroke-linejoin="round"/>
<path id="Vector_2" d="M5.65036 8.69963C5.65036 10.3836 7.0776 11.7489 8.83774 11.7489C9.0447 11.7492 9.25106 11.73 9.45436 11.6919C9.60069 11.6644 9.67386 11.6506 9.72494 11.6584C9.77601 11.6662 9.8484 11.7047 9.99317 11.7817C10.4027 11.9995 10.8802 12.0764 11.3395 11.991C11.1649 11.7763 11.0457 11.5187 10.9931 11.2425C10.9612 11.0736 11.0402 10.9095 11.1585 10.7894C11.6958 10.2439 12.0251 9.50871 12.0251 8.69963C12.0251 7.01569 10.5979 5.65036 8.83774 5.65036C7.0776 5.65036 5.65036 7.01569 5.65036 8.69963Z" stroke="var(--stroke-0, white)" stroke-width="0.869286" stroke-linejoin="round"/>
</g>
</svg>
