<svg preserveAspectRatio="none" width="100%" height="100%" overflow="visible" style="display: block;" viewBox="0 0 12.4598 12.4598" fill="none" xmlns="http://www.w3.org/2000/svg">
<g id="elements">
<path id="Vector" d="M0.434643 5.88217C0.434643 5.21092 0.574733 5.07083 1.24598 5.07083H11.2138C11.885 5.07083 12.0251 5.21092 12.0251 5.88217V6.5776C12.0251 7.24884 11.885 7.38893 11.2138 7.38893H1.24598C0.574733 7.38893 0.434643 7.24884 0.434643 6.5776V5.88217Z" stroke="var(--stroke-0, white)" stroke-width="0.869286" stroke-linecap="round"/>
<path id="Vector_2" d="M0.434643 1.24598C0.434643 0.574733 0.574733 0.434643 1.24598 0.434643H11.2138C11.885 0.434643 12.0251 0.574733 12.0251 1.24598V1.9414C12.0251 2.61265 11.885 2.75274 11.2138 2.75274H1.24598C0.574733 2.75274 0.434643 2.61265 0.434643 1.9414V1.24598Z" stroke="var(--stroke-0, white)" stroke-width="0.869286" stroke-linecap="round"/>
<path id="Vector_3" d="M0.434643 10.5184C0.434643 9.84711 0.574733 9.70702 1.24598 9.70702H11.2138C11.885 9.70702 12.0251 9.84711 12.0251 10.5184V11.2138C12.0251 11.885 11.885 12.0251 11.2138 12.0251H1.24598C0.574733 12.0251 0.434643 11.885 0.434643 11.2138V10.5184Z" stroke="var(--stroke-0, white)" stroke-width="0.869286" stroke-linecap="round"/>
</g>
</svg>
