<svg preserveAspectRatio="none" width="100%" height="100%" overflow="visible" style="display: block;" viewBox="0 0 15 15" fill="none" xmlns="http://www.w3.org/2000/svg">
<g id="Group">
<path id="Vector" fill-rule="evenodd" clip-rule="evenodd" d="M3.33333 0H11.6667C12.5507 0 13.3986 0.351189 14.0237 0.976311C14.6488 1.60143 15 2.44928 15 3.33333V11.6667C15 12.5507 14.6488 13.3986 14.0237 14.0237C13.3986 14.6488 12.5507 15 11.6667 15H3.33333C2.44928 15 1.60143 14.6488 0.976311 14.0237C0.351189 13.3986 0 12.5507 0 11.6667V3.33333C0 2.44928 0.351189 1.60143 0.976311 0.976311C1.60143 0.351189 2.44928 0 3.33333 0ZM3.33333 1.66667C2.89131 1.66667 2.46738 1.84226 2.15482 2.15482C1.84226 2.46738 1.66667 2.89131 1.66667 3.33333V11.6667C1.66667 12.1087 1.84226 12.5326 2.15482 12.8452C2.46738 13.1577 2.89131 13.3333 3.33333 13.3333H11.6667C12.1087 13.3333 12.5326 13.1577 12.8452 12.8452C13.1577 12.5326 13.3333 12.1087 13.3333 11.6667V3.33333C13.3333 2.89131 13.1577 2.46738 12.8452 2.15482C12.5326 1.84226 12.1087 1.66667 11.6667 1.66667H3.33333Z" fill="var(--fill-0, #E2E8F0)"/>
</g>
</svg>
