<svg preserveAspectRatio="none" width="100%" height="100%" overflow="visible" style="display: block;" viewBox="0 0 18.3333 18.3333" fill="none" xmlns="http://www.w3.org/2000/svg">
<g id="Group">
<path id="Vector" d="M13.3337 0.833659C14.4386 0.833745 15.4986 1.27206 16.2799 2.05339C17.0613 2.83471 17.4996 3.89472 17.4997 4.99967V13.3337C17.4996 14.4386 17.0613 15.4986 16.2799 16.2799C15.4986 17.0613 14.4386 17.4996 13.3337 17.4997H4.99967C3.89472 17.4996 2.83471 17.0613 2.05339 16.2799C1.27206 15.4986 0.833745 14.4386 0.833659 13.3337V4.99967C0.833745 3.89472 1.27206 2.83471 2.05339 2.05339C2.83471 1.27206 3.89472 0.833745 4.99967 0.833659H13.3337Z" fill="var(--fill-0, #007BFF)" stroke="var(--stroke-0, #B0D6FF)" stroke-width="1.66667"/>
<path id="Vector_2" fill-rule="evenodd" clip-rule="evenodd" d="M13.4133 6.06833C13.572 6.22216 13.6631 6.43272 13.6665 6.6537C13.67 6.87468 13.5855 7.08798 13.4317 7.24667L8.72917 12.0983C8.63284 12.1976 8.51756 12.2766 8.39016 12.3305C8.26276 12.3844 8.12584 12.4121 7.9875 12.4121C7.84916 12.4121 7.71224 12.3844 7.58484 12.3305C7.45744 12.2766 7.34216 12.1976 7.24583 12.0983L5.23417 10.025C5.15701 9.94663 5.09613 9.85376 5.05504 9.75175C5.01394 9.64974 4.99345 9.5406 4.99473 9.43063C4.99602 9.32066 5.01906 9.21203 5.06252 9.11101C5.10599 9.00998 5.16902 8.91856 5.24799 8.84201C5.32696 8.76547 5.42029 8.70531 5.52262 8.665C5.62495 8.6247 5.73424 8.60505 5.8442 8.60719C5.95416 8.60933 6.0626 8.63321 6.16329 8.67745C6.26397 8.7217 6.3549 8.78544 6.43083 8.865L7.98667 10.47L12.2342 6.0875C12.388 5.92882 12.5986 5.83774 12.8195 5.8343C13.0405 5.83086 13.2538 5.91535 13.4125 6.06917L13.4133 6.06833Z" fill="var(--fill-0, white)"/>
</g>
</svg>
