<svg preserveAspectRatio="xMidYMid meet" width="100%" height="100%" overflow="visible" style="display: block;" viewBox="0 0 21.5003 21.5" fill="none" xmlns="http://www.w3.org/2000/svg">
<g id="elements">
<path id="Vector" d="M0.750161 7.31907C0.750161 6.12289 1.23254 5.38982 2.23079 4.83428L6.34003 2.54744C8.49326 1.34915 9.56987 0.75 10.7502 0.75C11.9304 0.75 13.0071 1.34915 15.1603 2.54744L19.2695 4.83428C20.2678 5.38982 20.7502 6.1229 20.7502 7.31907C20.7502 7.64343 20.7502 7.80561 20.7147 7.93894C20.5286 8.63945 19.8939 8.75 19.2809 8.75H2.21944C1.60643 8.75 0.97168 8.63944 0.785581 7.93894C0.750161 7.80561 0.750161 7.64343 0.750161 7.31907Z" stroke="var(--stroke-0, #141B34)" stroke-width="1.5"/>
<path id="Vector_2" d="M10.7461 5.74988H10.755" stroke="var(--stroke-0, #141B34)" stroke-width="2" stroke-linecap="round" stroke-linejoin="round"/>
<path id="Vector_3" d="M2.75016 8.75V17.25M6.75016 8.75V17.25" stroke="var(--stroke-0, #141B34)" stroke-width="1.5"/>
<path id="Vector_4" d="M14.7502 8.74993V17.2499M18.7502 8.74993V17.2499" stroke="var(--stroke-0, #141B34)" stroke-width="1.5"/>
<path id="Vector_5" d="M17.7502 17.25H3.75016C2.09331 17.25 0.750161 18.5931 0.750161 20.25C0.750161 20.5261 0.974018 20.75 1.25016 20.75H20.2502C20.5263 20.75 20.7502 20.5261 20.7502 20.25C20.7502 18.5931 19.407 17.25 17.7502 17.25Z" stroke="var(--stroke-0, #141B34)" stroke-width="1.5"/>
</g>
</svg>
