<svg preserveAspectRatio="xMidYMid meet" width="100%" height="100%" overflow="visible" style="display: block;" viewBox="0 0 17.9676 17.9678" fill="none" xmlns="http://www.w3.org/2000/svg">
<g id="elements">
<path id="Vector" d="M11.0621 7.3125L11.4794 9.05444L10.7861 8.62129C10.2923 8.24623 9.67855 8.02385 9.01337 8.02385C7.38161 8.02385 6.05882 9.36126 6.05882 11.011C6.05882 12.6608 7.38161 13.9982 9.01337 13.9982C10.4428 13.9982 11.6351 12.972 11.9088 11.6085" stroke="var(--stroke-0, white)" stroke-width="1.25357" stroke-linecap="round" stroke-linejoin="round"/>
<path id="Vector_2" d="M4.80524 3.97005C3.78514 3.97311 3.22059 3.99751 2.75668 4.19223C2.10689 4.46496 1.57772 4.96876 1.26859 5.60897C1.01627 6.13152 0.974975 6.80103 0.892394 8.14005L0.76299 10.2383C0.55763 13.5681 0.45495 15.233 1.43204 16.287C2.40913 17.341 4.05521 17.341 7.34738 17.341H10.6203C13.9124 17.341 15.5585 17.341 16.5356 16.287C17.5127 15.233 17.41 13.5681 17.2046 10.2383L17.0752 8.14005C16.9927 6.80103 16.9514 6.13152 16.699 5.60897C16.3899 4.96876 15.8607 4.46496 15.2109 4.19223C14.747 3.99751 14.1825 3.97311 13.1624 3.97005" stroke="var(--stroke-0, white)" stroke-width="1.25357" stroke-linecap="round"/>
<path id="Vector_3" d="M13.1624 4.80536L12.4221 2.95461C12.1027 2.15611 11.8247 1.25031 11.0034 0.843697C10.5653 0.626786 10.0382 0.626786 8.98381 0.626786C7.92948 0.626786 7.40231 0.626786 6.96419 0.843697C6.14289 1.25031 5.86494 2.15611 5.54554 2.95461L4.80524 4.80536" stroke="var(--stroke-0, white)" stroke-width="1.25357" stroke-linecap="round" stroke-linejoin="round"/>
<path id="Vector_4" d="M8.98365 3.96964H8.99116" stroke="var(--stroke-0, white)" stroke-width="1.67143" stroke-linecap="round" stroke-linejoin="round"/>
</g>
</svg>
