<svg preserveAspectRatio="xMidYMid meet" width="100%" height="100%" overflow="visible" style="display: block;" viewBox="0 0 21.5 21.5" fill="none" xmlns="http://www.w3.org/2000/svg">
<g id="elements">
<path id="Vector" d="M15.75 4.75C18.0956 4.75 18.7684 4.75 19.5763 5.36994C19.7843 5.52954 19.9705 5.71572 20.1301 5.92372C20.75 6.73164 20.75 7.90443 20.75 10.25V14.75C20.75 17.5784 20.75 18.9926 19.8713 19.8713C18.9926 20.75 17.5784 20.75 14.75 20.75H6.75C3.92157 20.75 2.50736 20.75 1.62868 19.8713C0.750001 18.9926 0.750001 17.5784 0.750001 14.75V10.25C0.750001 7.90443 0.750001 6.73164 1.36994 5.92372C1.52954 5.71572 1.71572 5.52954 1.92372 5.36994C2.73164 4.75 3.40443 4.75 5.75 4.75" stroke="var(--stroke-0, white)" stroke-width="1.5" stroke-linecap="round"/>
<path id="Vector_2" d="M15.75 5.75L14.8642 3.53543C14.482 2.57996 14.1494 1.4961 13.1666 1.00955C12.6424 0.750001 12.0116 0.750001 10.75 0.750001C9.4884 0.750001 8.8576 0.750001 8.33335 1.00955C7.35061 1.4961 7.01802 2.57996 6.63583 3.53543L5.75 5.75" stroke="var(--stroke-0, white)" stroke-width="1.5" stroke-linecap="round" stroke-linejoin="round"/>
<path id="Vector_3" d="M14.25 12.75C14.25 14.683 12.683 16.25 10.75 16.25C8.817 16.25 7.25 14.683 7.25 12.75C7.25 10.817 8.817 9.25 10.75 9.25C12.683 9.25 14.25 10.817 14.25 12.75Z" stroke="var(--stroke-0, white)" stroke-width="1.5"/>
<path id="Vector_4" d="M10.7498 4.75H10.7588" stroke="var(--stroke-0, white)" stroke-width="2" stroke-linecap="round" stroke-linejoin="round"/>
</g>
</svg>
