<svg preserveAspectRatio="xMidYMid meet" width="100%" height="100%" overflow="visible" style="display: block;" viewBox="0 0 17.9167 17.0833" fill="none" xmlns="http://www.w3.org/2000/svg">
<g id="elements">
<path id="Vector" d="M5.625 9.79167H12.2917M5.625 5.625H8.95833" stroke="var(--stroke-0, #FF6B35)" stroke-width="1.25" stroke-linecap="round" stroke-linejoin="round"/>
<path id="Vector_2" d="M4.04068 14.375C2.95725 14.2684 2.14563 13.943 1.60131 13.3987C0.625001 12.4224 0.625001 10.851 0.625001 7.70833V7.29167C0.625001 4.14897 0.625001 2.57762 1.60131 1.60131C2.57762 0.625001 4.14897 0.625001 7.29167 0.625001H10.625C13.7677 0.625001 15.339 0.625001 16.3154 1.60131C17.2917 2.57762 17.2917 4.14897 17.2917 7.29167V7.70833C17.2917 10.851 17.2917 12.4224 16.3154 13.3987C15.339 14.375 13.7677 14.375 10.625 14.375C10.1579 14.3854 9.78595 14.4209 9.4205 14.5042C8.42186 14.7341 7.4971 15.2451 6.58322 15.6907C5.28107 16.3257 4.63 16.6432 4.22141 16.3459C3.43975 15.7638 4.20378 13.9599 4.375 13.125" stroke="var(--stroke-0, #FF6B35)" stroke-width="1.25" stroke-linecap="round"/>
</g>
</svg>
