<svg preserveAspectRatio="none" width="100%" height="100%" overflow="visible" style="display: block;" viewBox="0 0 16.5028 16.5031" fill="none" xmlns="http://www.w3.org/2000/svg">
<g id="elements">
<path id="Vector" d="M3.74968 8.18894C7.97688 0.310365 13.2405 0.219515 15.3439 1.15891C16.2833 3.26232 16.1925 8.52595 8.31389 12.7532C8.2322 12.2835 7.77781 11.0531 6.6138 9.88904C5.44978 8.72502 4.21938 8.27063 3.74968 8.18894Z" stroke="var(--stroke-0, white)" stroke-width="1.5" stroke-linecap="round" stroke-linejoin="round"/>
<path id="Vector_2" d="M9.37468 12.3781C10.9068 13.1281 11.0703 14.473 11.2826 15.7531C11.2826 15.7531 14.4914 13.381 12.4389 10.1281" stroke="var(--stroke-0, white)" stroke-width="1.5" stroke-linecap="round" stroke-linejoin="round"/>
<path id="Vector_3" d="M4.12497 7.19222C3.37497 5.66013 2.03013 5.49655 0.750006 5.28431C0.750006 5.28431 3.12209 2.07545 6.37498 4.12804" stroke="var(--stroke-0, white)" stroke-width="1.5" stroke-linecap="round" stroke-linejoin="round"/>
<path id="Vector_4" d="M3.26508 10.6792C2.83855 11.1057 2.11345 12.3427 2.62529 13.8782C4.16079 14.39 5.39772 13.6649 5.82425 13.2384" stroke="var(--stroke-0, white)" stroke-width="1.5" stroke-linecap="round" stroke-linejoin="round"/>
<path id="Vector_5" d="M12.6673 5.29485C12.6673 4.48943 12.0144 3.83651 11.209 3.83651C10.4036 3.83651 9.75066 4.48943 9.75066 5.29485C9.75066 6.10026 10.4036 6.75318 11.209 6.75318C12.0144 6.75318 12.6673 6.10026 12.6673 5.29485Z" stroke="var(--stroke-0, white)" stroke-width="1.5"/>
</g>
</svg>
