<svg preserveAspectRatio="xMidYMid meet" width="100%" height="100%" overflow="visible" style="display: block;" viewBox="0 0 12.168 13.5004" fill="none" xmlns="http://www.w3.org/2000/svg">
<g id="elements">
<path id="Vector" d="M0.750365 3.41707L0.750366 12.7504" stroke="var(--stroke-0, #94A3B8)" stroke-width="1.5" stroke-linecap="round" stroke-linejoin="round"/>
<path id="Vector_2" d="M5.92208 1.35617C3.7186 0.233723 1.98453 0.891369 1.11987 1.56321C0.964017 1.68431 0.886088 1.74486 0.818226 1.88352C0.750365 2.02219 0.750365 2.15133 0.750365 2.40961V8.57169C1.39683 7.83989 3.33622 6.70561 5.92208 8.02284C8.23302 9.20003 10.1997 8.71201 11.1301 8.20343C11.2592 8.13286 11.3238 8.09757 11.3704 8.01895C11.417 7.94033 11.417 7.855 11.417 7.68433V2.66633C11.417 2.114 11.417 1.83783 11.2855 1.73778C11.1539 1.63773 10.8461 1.72308 10.2305 1.89377C9.17704 2.18587 7.64525 2.23395 5.92208 1.35617Z" stroke="var(--stroke-0, #94A3B8)" stroke-width="1.5" stroke-linecap="round" stroke-linejoin="round"/>
</g>
</svg>
