<svg preserveAspectRatio="xMidYMid meet" width="100%" height="100%" overflow="visible" style="display: block;" viewBox="0 0 17.0833 17.0833" fill="none" xmlns="http://www.w3.org/2000/svg">
<g id="elements">
<path id="Vector" d="M0.625 8.54167C0.625 4.80971 0.625 2.94374 1.78437 1.78437C2.94374 0.625 4.80971 0.625 8.54167 0.625C12.2736 0.625 14.1396 0.625 15.299 1.78437C16.4583 2.94374 16.4583 4.80971 16.4583 8.54167C16.4583 12.2736 16.4583 14.1396 15.299 15.299C14.1396 16.4583 12.2736 16.4583 8.54167 16.4583C4.80971 16.4583 2.94374 16.4583 1.78437 15.299C0.625 14.1396 0.625 12.2736 0.625 8.54167Z" stroke="var(--stroke-0, #94A3B8)" stroke-width="1.25"/>
<path id="Vector_2" d="M8.74349 12.7083V8.54167C8.74349 8.14883 8.74349 7.95241 8.62145 7.83037C8.49941 7.70833 8.30299 7.70833 7.91016 7.70833" stroke="var(--stroke-0, #94A3B8)" stroke-width="1.25" stroke-linecap="round" stroke-linejoin="round"/>
<path id="Vector_3" d="M8.535 5.20833H8.54248" stroke="var(--stroke-0, #94A3B8)" stroke-width="1.66667" stroke-linecap="round" stroke-linejoin="round"/>
</g>
</svg>
