<svg preserveAspectRatio="xMidYMid meet" width="100%" height="100%" overflow="visible" style="display: block;" viewBox="0 0 18.1667 18.1667" fill="none" xmlns="http://www.w3.org/2000/svg">
<g id="elements">
<path id="Vector" d="M15.75 8.25H17.4167C16.9975 4.0389 13.4358 0.75 9.10396 0.75C4.49019 0.75 0.75 4.48096 0.75 9.08333C0.75 13.6857 4.49019 17.4167 9.10396 17.4167C12.5296 17.4167 15.4737 15.3598 16.7628 12.4167" stroke="var(--stroke-0, #CBD5E1)" stroke-width="1.5" stroke-linecap="round" stroke-linejoin="round"/>
<path id="Vector_2" d="M10.9583 8.23533V6.74208C10.9583 5.73393 10.1189 4.91667 9.08333 4.91667C8.0478 4.91667 7.20833 5.73393 7.20833 6.74208V8.23533M9.08333 13.25C7.4725 13.25 6.16667 11.9787 6.16667 10.4105C6.16667 8.84223 7.4725 7.57093 9.08333 7.57093C10.6942 7.57093 12 8.84223 12 10.4105C12 11.9787 10.6942 13.25 9.08333 13.25Z" stroke="var(--stroke-0, #CBD5E1)" stroke-width="1.5" stroke-linecap="round"/>
</g>
</svg>
