<svg preserveAspectRatio="xMidYMid meet" width="100%" height="100%" overflow="visible" style="display: block;" viewBox="0 0 22.4 20.1" fill="none" xmlns="http://www.w3.org/2000/svg">
<g id="elements">
<path id="Vector" d="M21.1982 9.7C21.203 9.04174 21.1983 8.88437 21.1842 8.22439C21.1189 5.15886 21.0862 3.62609 19.9551 2.49066C18.8239 1.35523 17.2497 1.31568 14.1012 1.23657C12.1607 1.18781 10.2393 1.18781 8.29882 1.23656C5.15033 1.31566 3.57608 1.35521 2.44495 2.49065C1.31382 3.62608 1.28114 5.15885 1.21576 8.22438C1.19474 9.21007 1.19475 10.1899 1.21577 11.1756C1.28114 14.2412 1.31383 15.7739 2.44496 16.9094C3.57608 18.0448 5.15033 18.0843 8.29883 18.1634C9.60399 18.1962 10.4005 18.207 11.7 18.1957" stroke="var(--stroke-0, white)" stroke-width="2.4" stroke-linecap="round" stroke-linejoin="round"/>
<path id="Vector_2" d="M6.2 6.2L9.14202 7.93943C10.8572 8.95352 11.5428 8.95352 13.258 7.93943L16.2 6.2" stroke="var(--stroke-0, white)" stroke-width="1.8" stroke-linecap="round" stroke-linejoin="round"/>
<path id="Vector_3" d="M15.2505 13.2C14.6022 13.8353 14.2 14.7207 14.2 15.7C14.2 17.633 15.767 19.2 17.7 19.2C18.6793 19.2 19.5647 18.7978 20.2 18.1495M15.2505 13.2C15.8818 12.5814 16.7463 12.2 17.7 12.2C19.633 12.2 21.2 13.767 21.2 15.7C21.2 16.6537 20.8186 17.5182 20.2 18.1495M15.2505 13.2L20.2 18.1495" stroke="var(--stroke-0, white)" stroke-width="1.8"/>
</g>
</svg>
