<svg preserveAspectRatio="xMidYMid meet" width="100%" height="100%" overflow="visible" style="display: block;" viewBox="0 0 16.5 18.1667" fill="none" xmlns="http://www.w3.org/2000/svg">
<g id="elements">
<path id="Vector" d="M13.25 4.91668C13.8954 5.0505 14.3824 5.27383 14.7737 5.64658C15.75 6.57652 15.75 8.07324 15.75 11.0667C15.75 14.0601 15.75 15.5568 14.7737 16.4867C13.7974 17.4167 12.226 17.4167 9.08333 17.4167H7.41667C4.27397 17.4167 2.70262 17.4167 1.72631 16.4867C0.750001 15.5568 0.750001 14.0601 0.750001 11.0667C0.750001 8.07324 0.750001 6.57652 1.72631 5.64658C2.11765 5.27383 2.60459 5.0505 3.25 4.91668" stroke="var(--stroke-0, #007BFF)" stroke-width="1.5" stroke-linecap="round"/>
<path id="Vector_2" d="M8.27108 0.750448L8.25 10.75M8.27108 0.750448C8.13555 0.744834 7.99921 0.79327 7.87778 0.895775C7.12239 1.5334 5.75 3.19073 5.75 3.19073M8.27108 0.750448C8.3926 0.755482 8.51347 0.803976 8.62235 0.895915C9.37759 1.53365 10.75 3.19073 10.75 3.19073" stroke="var(--stroke-0, #007BFF)" stroke-width="1.5" stroke-linecap="round" stroke-linejoin="round"/>
</g>
</svg>
