<svg preserveAspectRatio="xMidYMid meet" width="100%" height="100%" overflow="visible" style="display: block;" viewBox="0 0 22.4 20.1002" fill="none" xmlns="http://www.w3.org/2000/svg">
<g id="elements">
<path id="Vector" d="M13.2 1.2H9.2C5.42877 1.2 3.54315 1.2 2.37158 2.37158C1.2 3.54315 1.2 5.42877 1.2 9.2C1.2 12.9712 1.2 14.8569 2.37158 16.0284C3.54315 17.2 5.42877 17.2 9.2 17.2H13.2C16.9712 17.2 18.8569 17.2 20.0284 16.0284C21.2 14.8569 21.2 12.9712 21.2 9.2C21.2 5.42877 21.2 3.54315 20.0284 2.37158C18.8569 1.2 16.9712 1.2 13.2 1.2Z" stroke="var(--stroke-0, white)" stroke-width="2.4" stroke-linecap="round"/>
<path id="Vector_2" d="M17.2 17.2L18.2 19.2" stroke="var(--stroke-0, white)" stroke-width="1.8" stroke-linecap="round" stroke-linejoin="round"/>
<path id="Vector_3" d="M5.2 17.2L4.2 19.2" stroke="var(--stroke-0, white)" stroke-width="1.8" stroke-linecap="round" stroke-linejoin="round"/>
</g>
</svg>
