<svg preserveAspectRatio="xMidYMid meet" width="100%" height="100%" overflow="visible" style="display: block;" viewBox="0 0 14.3333 13.0001" fill="none" xmlns="http://www.w3.org/2000/svg">
<g id="elements">
<path id="Vector" d="M8.5 0.5H5.83333C3.31918 0.5 2.0621 0.5 1.28105 1.28105C0.5 2.0621 0.5 3.31918 0.5 5.83333C0.5 8.34749 0.5 9.60457 1.28105 10.3856C2.0621 11.1667 3.31918 11.1667 5.83333 11.1667H8.5C11.0142 11.1667 12.2712 11.1667 13.0523 10.3856C13.8333 9.60457 13.8333 8.34749 13.8333 5.83333C13.8333 3.31918 13.8333 2.0621 13.0523 1.28105C12.2712 0.5 11.0142 0.5 8.5 0.5Z" stroke="var(--stroke-0, #FF6B35)" stroke-linecap="round"/>
<path id="Vector_2" d="M11.1667 11.1667L11.8333 12.5" stroke="var(--stroke-0, #FF6B35)" stroke-linecap="round" stroke-linejoin="round"/>
<path id="Vector_3" d="M3.16667 11.1667L2.5 12.5" stroke="var(--stroke-0, #FF6B35)" stroke-linecap="round" stroke-linejoin="round"/>
</g>
</svg>
