<svg preserveAspectRatio="xMidYMid meet" width="100%" height="100%" overflow="visible" style="display: block;" viewBox="0 0 16.5 18.1669" fill="none" xmlns="http://www.w3.org/2000/svg">
<g id="elements">
<path id="Vector" d="M7.83333 17.4167C4.49422 17.4167 2.82466 17.4167 1.78733 16.1963C0.750001 14.9759 0.75 13.0117 0.75 9.08334C0.75 5.15496 0.75 3.19078 1.78733 1.97039C2.82466 0.750002 4.49422 0.750002 7.83333 0.750001C11.1724 0.750001 12.842 0.750001 13.8793 1.97039C14.7144 2.95277 14.8772 4.41712 14.909 7" stroke="var(--stroke-0, #007BFF)" stroke-width="1.5" stroke-linecap="round" stroke-linejoin="round"/>
<path id="Vector_2" d="M4.91667 5.75028H10.75M4.91667 9.91695H7.41667" stroke="var(--stroke-0, #007BFF)" stroke-width="1.5" stroke-linecap="round" stroke-linejoin="round"/>
<path id="Vector_3" d="M14.591 14.1714C15.2934 13.6601 15.75 12.8314 15.75 11.8961C15.75 10.3428 14.4908 9.08362 12.9375 9.08362H12.7292C11.1759 9.08362 9.91667 10.3428 9.91667 11.8961C9.91667 12.8314 10.3732 13.6601 11.0756 14.1714M14.591 14.1714C14.1269 14.5093 13.5555 14.7086 12.9375 14.7086H12.7292C12.1112 14.7086 11.5397 14.5093 11.0756 14.1714M14.591 14.1714L15.0767 15.7006C15.2619 16.2839 15.3546 16.5755 15.3292 16.7571C15.2765 17.135 14.9683 17.4156 14.6044 17.4169C14.4295 17.4176 14.1675 17.2801 13.6436 17.0052C13.4189 16.8873 13.3066 16.8283 13.1916 16.7937C12.9575 16.723 12.7092 16.723 12.475 16.7937C12.3601 16.8283 12.2478 16.8873 12.0231 17.0052C11.4992 17.2801 11.2372 17.4176 11.0623 17.4169C10.6984 17.4156 10.3902 17.135 10.3374 16.7571C10.3121 16.5755 10.4047 16.2839 10.59 15.7006L11.0756 14.1714" stroke="var(--stroke-0, #007BFF)" stroke-width="1.5"/>
</g>
</svg>
