<svg preserveAspectRatio="xMidYMid meet" width="100%" height="100%" overflow="visible" style="display: block;" viewBox="0 0 14.625 14.625" fill="none" xmlns="http://www.w3.org/2000/svg">
<g id="elements">
<path id="Vector" d="M0.626789 3.13393C0.626789 1.95205 0.626789 1.36111 0.993951 0.993951C1.36111 0.626789 1.95205 0.626789 3.13393 0.626789C4.31581 0.626789 4.90675 0.626789 5.27391 0.993951C5.64107 1.36111 5.64107 1.95205 5.64107 3.13393V11.4911C5.64107 12.673 5.64107 13.2639 5.27391 13.6311C4.90675 13.9982 4.31581 13.9982 3.13393 13.9982C1.95205 13.9982 1.36111 13.9982 0.993951 13.6311C0.626789 13.2639 0.626789 12.673 0.626789 11.4911V3.13393Z" stroke="var(--stroke-0, white)" stroke-width="1.25357"/>
<path id="Vector_2" d="M8.98393 3.13393C8.98393 1.95205 8.98393 1.36111 9.35109 0.993951C9.71826 0.626789 10.3092 0.626789 11.4911 0.626789C12.673 0.626789 13.2639 0.626789 13.6311 0.993951C13.9982 1.36111 13.9982 1.95205 13.9982 3.13393V11.4911C13.9982 12.673 13.9982 13.2639 13.6311 13.6311C13.2639 13.9982 12.673 13.9982 11.4911 13.9982C10.3092 13.9982 9.71826 13.9982 9.35109 13.6311C8.98393 13.2639 8.98393 12.673 8.98393 11.4911V3.13393Z" stroke="var(--stroke-0, white)" stroke-width="1.25357"/>
</g>
</svg>
