<svg preserveAspectRatio="xMidYMid meet" width="100%" height="100%" overflow="visible" style="display: block;" viewBox="0 0 14.3336 13" fill="none" xmlns="http://www.w3.org/2000/svg">
<g id="elements">
<path id="Vector" d="M2.83348 0.5C2.28119 0.5 1.83348 0.947715 1.83348 1.5C1.83348 2.05228 2.28119 2.5 2.83348 2.5C3.38576 2.5 3.83348 2.05228 3.83348 1.5C3.83348 0.947715 3.38576 0.5 2.83348 0.5Z" stroke="var(--stroke-0, #007BFF)" stroke-linecap="round" stroke-linejoin="round"/>
<path id="Vector_2" d="M11.5001 6.83333C10.9479 6.83333 10.5001 7.28105 10.5001 7.83333C10.5001 8.38562 10.9479 8.83333 11.5001 8.83333C12.0524 8.83333 12.5001 8.38562 12.5001 7.83333C12.5001 7.28105 12.0524 6.83333 11.5001 6.83333Z" stroke="var(--stroke-0, #007BFF)" stroke-linecap="round" stroke-linejoin="round"/>
<path id="Vector_3" d="M1.42766 4.53706L1.1787 4.10346V4.10346L1.42766 4.53706ZM4.23929 4.53706L4.48826 4.10346L4.48826 4.10346L4.23929 4.53706ZM0.684909 5.71581L0.346644 6.08402H0.346644L0.684909 5.71581ZM4.98205 5.71581L4.64378 5.3476L4.64378 5.3476L4.98205 5.71581ZM1.42766 4.53706L1.67663 4.97067C2.38258 4.56533 3.28438 4.56533 3.99033 4.97067L4.23929 4.53706L4.48826 4.10346C3.47396 3.52107 2.19299 3.52107 1.1787 4.10346L1.42766 4.53706ZM1.69037 6.16667V6.66667H3.97659V6.16667V5.66667H1.69037V6.16667ZM0.684909 5.71581L1.02317 5.3476C0.952853 5.283 1.00909 5.30237 0.999092 5.39055C0.992931 5.4449 0.968721 5.43667 1.04229 5.36723C1.10818 5.30504 1.20667 5.23708 1.32884 5.16489C1.38779 5.13007 1.44727 5.0971 1.50639 5.06475C1.56227 5.03418 1.62488 5.00038 1.67663 4.97067L1.42766 4.53706L1.1787 4.10346C1.04962 4.17757 0.625928 4.38513 0.355886 4.64001C0.216393 4.77167 0.0386585 4.98501 0.00545576 5.27791C-0.031581 5.60464 0.124094 5.87956 0.346644 6.08402L0.684909 5.71581ZM4.23929 4.53706L3.99033 4.97067C4.04207 5.00038 4.10468 5.03418 4.16057 5.06475C4.21969 5.0971 4.27917 5.13007 4.33811 5.16489C4.46029 5.23708 4.55878 5.30504 4.62467 5.36723C4.69824 5.43667 4.67403 5.4449 4.66786 5.39055C4.65787 5.30237 4.7141 5.283 4.64378 5.3476L4.98205 5.71581L5.32031 6.08402C5.54286 5.87956 5.69854 5.60464 5.6615 5.27791C5.6283 4.98501 5.45056 4.77167 5.31107 4.64001C5.04103 4.38513 4.61734 4.17757 4.48826 4.10346L4.23929 4.53706ZM4.98205 5.71581L4.64378 5.3476C4.40474 5.5672 4.20179 5.66667 3.97659 5.66667V6.16667V6.66667C4.55269 6.66667 4.98709 6.39014 5.32031 6.08402L4.98205 5.71581ZM0.684909 5.71581L0.346644 6.08402C0.679867 6.39014 1.11426 6.66667 1.69037 6.66667V6.16667V5.66667C1.46517 5.66667 1.26221 5.5672 1.02317 5.3476L0.684909 5.71581Z" fill="var(--stroke-0, #007BFF)"/>
<path id="Vector_4" d="M10.0943 10.8704L9.84536 10.4368V10.4368L10.0943 10.8704ZM12.906 10.8704L13.1549 10.4368L13.1549 10.4368L12.906 10.8704ZM9.35158 12.0491L9.01331 12.4173H9.01331L9.35158 12.0491ZM13.6487 12.0491L13.3104 11.6809L13.3104 11.6809L13.6487 12.0491ZM10.0943 10.8704L10.3433 11.304C11.0492 10.8987 11.951 10.8987 12.657 11.304L12.906 10.8704L13.1549 10.4368C12.1406 9.8544 10.8597 9.8544 9.84536 10.4368L10.0943 10.8704ZM10.357 12.5V13H12.6433V12.5V12H10.357V12.5ZM9.35158 12.0491L9.68984 11.6809C9.61952 11.6163 9.67575 11.6357 9.66576 11.7239C9.6596 11.7782 9.63539 11.77 9.70895 11.7006C9.77484 11.6384 9.87334 11.5704 9.99551 11.4982C10.0545 11.4634 10.1139 11.4304 10.1731 11.3981C10.2289 11.3675 10.2916 11.3337 10.3433 11.304L10.0943 10.8704L9.84536 10.4368C9.71629 10.5109 9.29259 10.7185 9.02255 10.9733C8.88306 11.105 8.70533 11.3183 8.67212 11.6112C8.63509 11.938 8.79076 12.2129 9.01331 12.4173L9.35158 12.0491ZM12.906 10.8704L12.657 11.304C12.7087 11.3337 12.7714 11.3675 12.8272 11.3981C12.8864 11.4304 12.9458 11.4634 13.0048 11.4982C13.127 11.5704 13.2254 11.6384 13.2913 11.7006C13.3649 11.77 13.3407 11.7782 13.3345 11.7239C13.3245 11.6357 13.3808 11.6163 13.3104 11.6809L13.6487 12.0491L13.987 12.4173C14.2095 12.2129 14.3652 11.938 14.3282 11.6112C14.295 11.3183 14.1172 11.105 13.9777 10.9733C13.7077 10.7185 13.284 10.5109 13.1549 10.4368L12.906 10.8704ZM13.6487 12.0491L13.3104 11.6809C13.0714 11.9005 12.8685 12 12.6433 12V12.5V13C13.2194 13 13.6538 12.7235 13.987 12.4173L13.6487 12.0491ZM9.35158 12.0491L9.01331 12.4173C9.34653 12.7235 9.78093 13 10.357 13V12.5V12C10.1318 12 9.92888 11.9005 9.68984 11.6809L9.35158 12.0491Z" fill="var(--stroke-0, #007BFF)"/>
<path id="Vector_5" d="M6.83348 1.16667C8.7191 1.16667 10.3286 1.16667 10.9144 1.75245C11.5001 2.33824 11.5001 2.94772 11.5001 4.83333L10.1668 4.16667" stroke="var(--stroke-0, #007BFF)" stroke-linecap="round" stroke-linejoin="round"/>
<path id="Vector_6" d="M7.16681 11.8333C5.28119 11.8333 3.67172 11.8333 3.08593 11.2475C2.50015 10.6618 2.50015 10.0523 2.50015 8.16666L3.83348 8.83333" stroke="var(--stroke-0, #007BFF)" stroke-linecap="round" stroke-linejoin="round"/>
</g>
</svg>
