<svg preserveAspectRatio="none" width="100%" height="100%" overflow="visible" style="display: block;" viewBox="0 0 14.3333 14" fill="none" xmlns="http://www.w3.org/2000/svg">
<g id="elements">
<path id="Vector" d="M13.8333 5.83333V5.31166C13.8333 4.01858 13.8333 3.37204 13.4428 2.97034C13.0523 2.56863 12.4237 2.56863 11.1667 2.56863H9.7809C9.16931 2.56863 9.16429 2.56744 8.61433 2.29223L6.39325 1.18076C5.46589 0.716693 5.00221 0.48466 4.50825 0.500786C4.01429 0.516912 3.56585 0.778721 2.66897 1.30234L1.85039 1.78024C1.19159 2.16486 0.862194 2.35717 0.681098 2.6771C0.500001 2.99702 0.500001 3.38662 0.500001 4.16582V9.64382C0.500001 10.6676 0.500001 11.1795 0.728176 11.4644C0.880005 11.654 1.09277 11.7815 1.328 11.8237C1.68151 11.8872 2.11432 11.6345 2.97992 11.1292C3.56771 10.786 4.13341 10.4296 4.83658 10.5262C5.4258 10.6072 5.97333 10.979 6.5 11.2425" stroke="var(--stroke-0, #007BFF)" stroke-linecap="round" stroke-linejoin="round"/>
<path id="Vector_2" d="M4.5 0.499999L4.5 10.5" stroke="var(--stroke-0, #007BFF)" stroke-linejoin="round"/>
<path id="Vector_3" d="M9.16667 2.5V5.16667" stroke="var(--stroke-0, #007BFF)" stroke-linecap="round" stroke-linejoin="round"/>
<path id="Vector_4" d="M10.8333 6.83333C12.4569 6.83333 13.8333 8.17766 13.8333 9.80859C13.8333 11.4655 12.4344 12.6282 11.1423 13.4189C11.0482 13.472 10.9417 13.5 10.8333 13.5C10.725 13.5 10.6185 13.472 10.5243 13.4189C9.23463 12.6205 7.83333 11.4712 7.83333 9.80859C7.83333 8.17766 9.20982 6.83333 10.8333 6.83333Z" stroke="var(--stroke-0, #007BFF)"/>
<path id="Vector_5" d="M10.8333 9.83333H10.8393" stroke="var(--stroke-0, #007BFF)" stroke-width="1.33333" stroke-linecap="round" stroke-linejoin="round"/>
</g>
</svg>
