<svg preserveAspectRatio="none" width="100%" height="100%" overflow="visible" style="display: block;" viewBox="0 0 13.4734 13.4734" fill="none" xmlns="http://www.w3.org/2000/svg">
<g id="elements">
<path id="Vector" d="M9.87 6.73672C9.87 8.46722 8.46716 9.87006 6.73667 9.87006C5.00617 9.87006 3.60333 8.46722 3.60333 6.73672C3.60333 5.00623 5.00617 3.60339 6.73667 3.60339" stroke="var(--stroke-0, #007BFF)" stroke-width="0.94" stroke-linecap="round"/>
<path id="Vector_2" d="M7.99 0.595415C7.58504 0.513211 7.16589 0.470058 6.73667 0.470058C3.27568 0.470058 0.47 3.27574 0.47 6.73673C0.47 10.1977 3.27568 13.0034 6.73667 13.0034C10.1977 13.0034 13.0033 10.1977 13.0033 6.73673C13.0033 6.3075 12.9602 5.88836 12.878 5.48339" stroke="var(--stroke-0, #007BFF)" stroke-width="0.94" stroke-linecap="round"/>
<path id="Vector_3" d="M6.40433 6.40439C6.22078 6.58793 6.22078 6.88552 6.40433 7.06907C6.58787 7.25261 6.88546 7.25261 7.06901 7.06907L6.73667 6.73672L6.40433 6.40439ZM11.5563 1.9171L11.1015 2.03576C11.1445 2.20038 11.273 2.32893 11.4376 2.37188L11.5563 1.9171ZM11.2327 0.676903L10.7779 0.79556V0.79556L11.2327 0.676903ZM10.6834 0.589162L11.0158 0.921503V0.921503L10.6834 0.589162ZM9.96316 1.30944L9.63082 0.977103V0.977103L9.96316 1.30944ZM9.41763 3.07153L8.96286 3.19019V3.19019L9.41763 3.07153ZM12.7965 2.24069L12.6778 2.69547V2.69547L12.7965 2.24069ZM12.8842 2.78995L12.5519 2.45761V2.45761L12.8842 2.78995ZM12.1639 3.51024L12.4963 3.84258V3.84258L12.1639 3.51024ZM10.4019 4.05576L10.2832 4.51053H10.2832L10.4019 4.05576ZM9.62129 3.8521L9.28895 3.51976L6.40433 6.40439L6.73667 6.73672L7.06901 7.06907L9.95363 4.18444L9.62129 3.8521ZM11.5563 1.9171L12.0111 1.79845L11.6875 0.558245L11.2327 0.676903L10.7779 0.79556L11.1015 2.03576L11.5563 1.9171ZM10.6834 0.589162L10.3511 0.256822L9.63082 0.977103L9.96316 1.30944L10.2955 1.64178L11.0158 0.921503L10.6834 0.589162ZM9.41763 3.07153L8.96286 3.19019L9.16652 3.97076L9.62129 3.8521L10.0761 3.73344L9.87241 2.95288L9.41763 3.07153ZM11.5563 1.9171L11.4376 2.37188L12.6778 2.69547L12.7965 2.24069L12.9151 1.78592L11.6749 1.46233L11.5563 1.9171ZM12.8842 2.78995L12.5519 2.45761L11.8316 3.17789L12.1639 3.51024L12.4963 3.84258L13.2166 3.12229L12.8842 2.78995ZM10.4019 4.05576L10.5205 3.60098L9.73995 3.39732L9.62129 3.8521L9.50264 4.30687L10.2832 4.51053L10.4019 4.05576ZM12.1639 3.51024L11.8316 3.17789C11.4425 3.56705 10.9266 3.70694 10.5205 3.60098L10.4019 4.05576L10.2832 4.51053C11.0597 4.71314 11.9082 4.43065 12.4963 3.84258L12.1639 3.51024ZM12.7965 2.24069L12.6778 2.69547C12.6457 2.68709 12.6091 2.66665 12.5799 2.63284C12.552 2.60065 12.5394 2.56661 12.5352 2.54025C12.5269 2.48812 12.548 2.46155 12.5519 2.45761L12.8842 2.78995L13.2166 3.12229C13.4123 2.92656 13.5056 2.65565 13.4634 2.39197C13.4199 2.11937 13.2281 1.86757 12.9151 1.78592L12.7965 2.24069ZM9.96316 1.30944L9.63082 0.977103C9.04274 1.56518 8.76025 2.41367 8.96286 3.19019L9.41763 3.07153L9.87241 2.95288C9.76645 2.54677 9.90634 2.03094 10.2955 1.64178L9.96316 1.30944ZM11.2327 0.676903L11.6875 0.558245C11.6058 0.245294 11.354 0.0535016 11.0814 0.00995624C10.8177 -0.0321639 10.5468 0.0610927 10.3511 0.256822L10.6834 0.589162L11.0158 0.921503C11.0118 0.92544 10.9853 0.946516 10.9331 0.938188C10.9068 0.933976 10.8727 0.921423 10.8405 0.893535C10.8067 0.864245 10.7863 0.827665 10.7779 0.79556L11.2327 0.676903Z" fill="var(--stroke-0, #007BFF)"/>
</g>
</svg>
