<svg preserveAspectRatio="none" width="100%" height="100%" overflow="visible" style="display: block;" viewBox="0 0 14.3336 14.3333" fill="none" xmlns="http://www.w3.org/2000/svg">
<g id="elements">
<path id="Vector" d="M8.50012 11.1667C8.50012 11.1667 9.16678 11.1667 9.83345 12.5C9.83345 12.5 11.9511 9.16667 13.8335 8.5" stroke="var(--stroke-0, #007BFF)" stroke-linecap="round" stroke-linejoin="round"/>
<path id="Vector_2" d="M7.83345 13.8333H3.5607C2.53044 13.8333 1.71099 13.332 0.975225 12.631C-0.530973 11.1961 1.94199 10.0493 2.88517 9.48772C5.00406 8.22605 7.66874 8.17308 9.83345 9.32882" stroke="var(--stroke-0, #007BFF)" stroke-linecap="round" stroke-linejoin="round"/>
<path id="Vector_3" d="M10.1668 3.5C10.1668 5.15685 8.82364 6.5 7.16678 6.5C5.50993 6.5 4.16678 5.15685 4.16678 3.5C4.16678 1.84315 5.50993 0.5 7.16678 0.5C8.82364 0.5 10.1668 1.84315 10.1668 3.5Z" stroke="var(--stroke-0, #007BFF)"/>
</g>
</svg>
