<svg preserveAspectRatio="none" width="100%" height="100%" overflow="visible" style="display: block;" viewBox="0 0 13.0001 13.0001" fill="none" xmlns="http://www.w3.org/2000/svg">
<g id="elements">
<path id="Vector" d="M7.35675 11.4099L2.3816 12.3338C1.42734 12.511 0.950206 12.5996 0.675333 12.3247C0.400461 12.0498 0.489063 11.5727 0.666267 10.6184L1.59013 5.64297C1.73828 4.84515 1.81235 4.44624 2.07533 4.20521C2.33831 3.96418 2.81924 3.91714 3.78111 3.82306C4.70816 3.73239 5.58551 3.41459 6.49998 2.50008L10.5 6.50044C9.58551 7.41495 9.26753 8.2917 9.17672 9.21879C9.08249 10.1808 9.03537 10.6618 8.79437 10.9247C8.55336 11.1877 8.15449 11.2617 7.35675 11.4099Z" stroke="var(--stroke-0, #007BFF)" stroke-linejoin="round"/>
<path id="Vector_2" d="M5.83332 8.64043C5.46035 8.57988 5.11928 8.41762 4.85086 8.1492M4.85086 8.1492C4.58244 7.88078 4.42018 7.53971 4.35963 7.16674M4.85086 8.1492L1.16665 11.8334" stroke="var(--stroke-0, #007BFF)" stroke-linecap="round"/>
<path id="Vector_3" d="M6.49998 2.50008C6.97485 1.79947 7.61804 0.620877 8.57098 0.507396C9.22147 0.429933 9.76036 0.96882 10.8381 2.04659L10.9535 2.16193C12.0312 3.2397 12.5701 3.77859 12.4927 4.42907C12.3792 5.38201 11.2006 6.02521 10.5 6.50008" stroke="var(--stroke-0, #007BFF)" stroke-linejoin="round"/>
</g>
</svg>
