<svg preserveAspectRatio="none" width="100%" height="100%" overflow="visible" style="display: block;" viewBox="0 0 13.6652 14.3333" fill="none" xmlns="http://www.w3.org/2000/svg">
<g id="elements">
<path id="Vector" d="M6.83139 0.5C4.82621 0.5 3.52605 1.84599 1.9884 2.3366C1.36318 2.53609 1.05057 2.63583 0.924061 2.77643C0.797548 2.91704 0.760501 3.1225 0.686408 3.53342C-0.106451 7.93066 1.62653 11.996 5.75946 13.5783C6.20352 13.7483 6.42555 13.8333 6.83358 13.8333C7.24162 13.8333 7.46363 13.7483 7.90767 13.5783C12.0403 11.996 13.7717 7.93065 12.9786 3.53342C12.9044 3.12243 12.8674 2.91693 12.7408 2.77632C12.6143 2.63572 12.3017 2.53603 11.6765 2.33666C10.1383 1.8461 8.83665 0.5 6.83139 0.5Z" stroke="var(--stroke-0, #007BFF)" stroke-linecap="round" stroke-linejoin="round"/>
<path id="Vector_2" d="M6.83259 3.83333L6.83259 5.16667" stroke="var(--stroke-0, #007BFF)" stroke-linecap="round"/>
</g>
</svg>
