<svg preserveAspectRatio="none" width="100%" height="100%" overflow="visible" style="display: block;" viewBox="0 0 13.6667 13.6667" fill="none" xmlns="http://www.w3.org/2000/svg">
<g id="elements">
<path id="Vector" d="M0.500011 4.29119C0.569386 2.89138 0.776922 2.01862 1.39777 1.39777C2.01862 0.776922 2.89138 0.569386 4.29119 0.500011M13.1667 4.29119C13.0973 2.89138 12.8898 2.01862 12.2689 1.39777C11.6481 0.776922 10.7753 0.569386 9.3755 0.500011M9.3755 13.1667C10.7753 13.0973 11.6481 12.8898 12.2689 12.2689C12.8898 11.6481 13.0973 10.7753 13.1667 9.3755M4.29119 13.1667C2.89138 13.0973 2.01862 12.8898 1.39777 12.2689C0.776922 11.6481 0.569386 10.7753 0.500011 9.3755" stroke="var(--stroke-0, #007BFF)" stroke-linecap="round" stroke-linejoin="round"/>
<path id="Vector_2" d="M9.73292 6.966L10.228 6.89636L9.73292 6.966ZM8.49847 5.86892L8.52046 5.3694L8.49847 5.86892ZM8.49847 10.4644L8.52046 10.964L8.49847 10.4644ZM9.73292 9.36736L9.23779 9.29772L9.73292 9.36736ZM5.16822 5.86892L5.1902 6.36843L5.16822 5.86892ZM3.93377 6.966L4.4289 7.03564L3.93377 6.966ZM5.16822 10.4644L5.14623 10.964L5.16822 10.4644ZM3.93377 9.36736L4.4289 9.29772V9.29772L3.93377 9.36736ZM4.66668 5.83334C4.66668 6.10949 4.89054 6.33334 5.16668 6.33334C5.44282 6.33334 5.66668 6.10949 5.66668 5.83334H5.16668H4.66668ZM8.00001 5.83334C8.00001 6.10949 8.22387 6.33334 8.50001 6.33334C8.77615 6.33334 9.00001 6.10949 9.00001 5.83334H8.50001H8.00001ZM6.83335 10.5V10C6.24619 10 5.71389 9.98797 5.1902 9.96492L5.16822 10.4644L5.14623 10.964C5.68501 10.9877 6.23197 11 6.83335 11V10.5ZM8.49847 10.4644L8.47649 9.96492C7.9528 9.98797 7.4205 10 6.83335 10V10.5V11C7.43472 11 7.98169 10.9877 8.52046 10.964L8.49847 10.4644ZM9.73292 9.36736L10.228 9.437C10.2841 9.03854 10.3333 8.61025 10.3333 8.16668H9.83334H9.33334C9.33334 8.53986 9.29182 8.91357 9.23779 9.29772L9.73292 9.36736ZM9.83334 8.16668H10.3333C10.3333 7.72311 10.2841 7.29482 10.228 6.89636L9.73292 6.966L9.23779 7.03564C9.29182 7.41979 9.33334 7.79349 9.33334 8.16668H9.83334ZM6.83335 5.83334V6.33334C7.4205 6.33334 7.9528 6.34539 8.47649 6.36843L8.49847 5.86892L8.52046 5.3694C7.98169 5.34569 7.43472 5.33334 6.83335 5.33334V5.83334ZM5.16822 5.86892L5.1902 6.36843C5.71389 6.34539 6.24619 6.33334 6.83335 6.33334V5.83334V5.33334C6.23197 5.33334 5.685 5.34569 5.14623 5.3694L5.16822 5.86892ZM3.93377 6.966L3.43865 6.89636C3.3826 7.29482 3.33334 7.72311 3.33334 8.16668H3.83334H4.33334C4.33334 7.79349 4.37487 7.41979 4.4289 7.03564L3.93377 6.966ZM3.83334 8.16668H3.33334C3.33334 8.61025 3.3826 9.03854 3.43865 9.437L3.93377 9.36736L4.4289 9.29772C4.37487 8.91357 4.33334 8.53986 4.33334 8.16668H3.83334ZM9.73292 6.966L10.228 6.89636C10.1092 6.05121 9.38531 5.40746 8.52046 5.3694L8.49847 5.86892L8.47649 6.36843C8.87428 6.38594 9.188 6.68165 9.23779 7.03564L9.73292 6.966ZM8.49847 10.4644L8.52046 10.964C9.38531 10.9259 10.1092 10.2822 10.228 9.437L9.73292 9.36736L9.23779 9.29772C9.188 9.6517 8.87428 9.94742 8.47649 9.96492L8.49847 10.4644ZM5.16822 5.86892L5.14623 5.3694C4.28138 5.40746 3.55752 6.05121 3.43865 6.89636L3.93377 6.966L4.4289 7.03564C4.47869 6.68165 4.79241 6.38594 5.1902 6.36843L5.16822 5.86892ZM5.16822 10.4644L5.1902 9.96492C4.79241 9.94742 4.47869 9.6517 4.4289 9.29772L3.93377 9.36736L3.43865 9.437C3.55752 10.2822 4.28138 10.9259 5.14623 10.964L5.16822 10.4644ZM5.16668 5.83334H5.66668V4.83334H5.16668H4.66668V5.83334H5.16668ZM8.50001 4.83334H8.00001V5.83334H8.50001H9.00001V4.83334H8.50001ZM8.50001 4.83334H9.00001C9.00001 3.63673 8.02996 2.66668 6.83334 2.66668V3.16668V3.66668C7.47768 3.66668 8.00001 4.18901 8.00001 4.83334H8.50001ZM5.16668 4.83334H5.66668C5.66668 4.18901 6.18901 3.66668 6.83334 3.66668V3.16668V2.66668C5.63673 2.66668 4.66668 3.63673 4.66668 4.83334H5.16668Z" fill="var(--stroke-0, #007BFF)"/>
</g>
</svg>
