<svg preserveAspectRatio="none" width="100%" height="100%" overflow="visible" style="display: block;" viewBox="0 0 10.3333 14.3333" fill="none" xmlns="http://www.w3.org/2000/svg">
<g id="elements">
<path id="Vector" d="M0.500001 5.16667C0.500001 2.96678 0.500001 1.86684 1.18342 1.18342C1.86684 0.500001 2.96678 0.500001 5.16667 0.500001C7.36656 0.500001 8.4665 0.500001 9.14992 1.18342C9.83333 1.86684 9.83333 2.96678 9.83333 5.16667V9.16667C9.83333 11.3666 9.83333 12.4665 9.14992 13.1499C8.4665 13.8333 7.36656 13.8333 5.16667 13.8333C2.96678 13.8333 1.86684 13.8333 1.18342 13.1499C0.500001 12.4665 0.500001 11.3666 0.500001 9.16667V5.16667Z" stroke="var(--stroke-0, #64748B)" stroke-linecap="round"/>
<path id="Vector_2" d="M4.5 11.8333H5.83333" stroke="var(--stroke-0, #141B34)" stroke-linecap="round" stroke-linejoin="round"/>
<path id="Vector_3" d="M3.16667 0.500001L3.226 0.856011C3.35459 1.62753 3.41888 2.01329 3.68346 2.24803C3.95945 2.49289 4.35076 2.5 5.16667 2.5C5.98257 2.5 6.37388 2.4929 6.64988 2.24803C6.91445 2.01329 6.97875 1.62753 7.10733 0.856011L7.16667 0.500001" stroke="var(--stroke-0, #141B34)" stroke-linejoin="round"/>
</g>
</svg>
