<svg preserveAspectRatio="xMidYMid meet" width="100%" height="100%" overflow="visible" style="display: block;" viewBox="0 0 17.9191 17.9179" fill="none" xmlns="http://www.w3.org/2000/svg">
<g id="elements">
<path id="Vector" d="M10.3993 1.82848L11.8658 4.78573C12.0657 5.19739 12.599 5.59225 13.049 5.66786L15.707 6.11313C17.4068 6.39877 17.8068 7.64216 16.5819 8.86875L14.5155 10.9523C14.1655 11.3051 13.9739 11.9856 14.0822 12.4729L14.6738 15.0521C15.1404 17.0936 14.0655 17.8833 12.2741 16.8163L9.78266 15.3293C9.33271 15.0605 8.59112 15.0605 8.13284 15.3293L5.64145 16.8163C3.85831 17.8833 2.7751 17.0852 3.24172 15.0521L3.83332 12.4729C3.94164 11.9856 3.74999 11.3051 3.40003 10.9523L1.33359 8.86875C0.11706 7.64216 0.508684 6.39877 2.2085 6.11313L4.86654 5.66786C5.30815 5.59225 5.84143 5.19739 6.04141 4.78573L7.50791 1.82848C8.30782 0.223839 9.60768 0.223839 10.3993 1.82848Z" stroke="var(--stroke-0, #E8B638)" stroke-width="1.25" stroke-linecap="round" stroke-linejoin="round"/>
</g>
</svg>
