<svg preserveAspectRatio="xMidYMid meet" width="100%" height="100%" overflow="visible" style="display: block;" viewBox="0 0 17.5 17.5" fill="none" xmlns="http://www.w3.org/2000/svg">
<g id="elements">
<path id="Vector" d="M0.75 8.75C0.75 5.47077 0.75 3.83116 1.56382 2.66891C1.8649 2.23891 2.23891 1.8649 2.66891 1.56382C3.83116 0.75 5.47077 0.75 8.75 0.75C12.0292 0.75 13.6688 0.75 14.8311 1.56382C15.2611 1.8649 15.6351 2.23891 15.9362 2.66891C16.75 3.83116 16.75 5.47077 16.75 8.75C16.75 12.0292 16.75 13.6688 15.9362 14.8311C15.6351 15.2611 15.2611 15.6351 14.8311 15.9362C13.6688 16.75 12.0292 16.75 8.75 16.75C5.47077 16.75 3.83116 16.75 2.66891 15.9362C2.23891 15.6351 1.8649 15.2611 1.56382 14.8311C0.75 13.6688 0.75 12.0292 0.75 8.75Z" fill="var(--fill-0, white)" stroke="var(--stroke-0, white)" stroke-width="1.5"/>
</g>
</svg>
