<svg preserveAspectRatio="xMidYMid meet" width="100%" height="100%" overflow="visible" style="display: block;" viewBox="0 0 16.38 18.06" fill="none" xmlns="http://www.w3.org/2000/svg">
<g id="elements">
<path id="Vector" d="M13.65 9.19152H14.28L14.28 9.19091L13.65 9.19152ZM1.94652 13.2125L1.42531 13.5664C1.43447 13.5799 1.44415 13.593 1.45433 13.6058L1.94652 13.2125ZM3.62251 15.3102L4.11471 14.9169V14.9169L3.62251 15.3102ZM2.33881 7.66477L1.90431 7.20858C1.89306 7.2193 1.8822 7.23044 1.87176 7.24196L2.33881 7.66477ZM3.98574 6.96619C4.23769 6.72623 4.2474 6.32745 4.00744 6.0755C3.76747 5.82355 3.36869 5.81384 3.11675 6.05381L3.55124 6.51L3.98574 6.96619ZM0.634357 10.6573L0.00546575 10.6946V10.6946L0.634357 10.6573ZM0.679597 10.0175L0.0622116 9.89203L0.679597 10.0175ZM13.405 13.7911L13.9977 14.0047V14.0047L13.405 13.7911ZM2.94 10.29C2.94 10.6379 3.22206 10.92 3.57 10.92C3.91794 10.92 4.2 10.6379 4.2 10.29H3.57H2.94ZM7.98 8.19C7.98 8.53794 8.26206 8.82 8.61 8.82C8.95794 8.82 9.24 8.53794 9.24 8.19H8.61H7.98ZM8.61 6.51V5.88C8.26206 5.88 7.98 6.16206 7.98 6.51H8.61ZM10.5 9.03C10.5 9.37794 10.7821 9.66 11.13 9.66C11.4779 9.66 11.76 9.37794 11.76 9.03H11.13H10.5ZM11.13 7.35L11.2336 6.72857C11.0509 6.69813 10.8641 6.7496 10.7228 6.8693C10.5815 6.989 10.5 7.16481 10.5 7.35H11.13ZM12.2462 7.53603L12.3498 6.9146V6.9146L12.2462 7.53603ZM5.46 8.19C5.46 8.53794 5.74206 8.82 6.09 8.82C6.43794 8.82 6.72 8.53794 6.72 8.19H6.09H5.46ZM3.36 17.43C3.36 17.7779 3.64206 18.06 3.99 18.06C4.33794 18.06 4.62 17.7779 4.62 17.43H3.99H3.36ZM12.5509 15.2008L12.0867 14.7749V14.7749L12.5509 15.2008ZM11.2815 17.43C11.2815 17.7779 11.5636 18.06 11.9115 18.06C12.2594 18.06 12.5415 17.7779 12.5415 17.43H11.9115H11.2815ZM1.94652 13.2125L1.45433 13.6058L3.13032 15.7034L3.62251 15.3102L4.11471 14.9169L2.43872 12.8193L1.94652 13.2125ZM2.33881 7.66477L2.77331 8.12096L3.98574 6.96619L3.55124 6.51L3.11675 6.05381L1.90431 7.20858L2.33881 7.66477ZM1.94652 13.2125L2.46774 12.8586C2.03698 12.2242 1.73967 11.7851 1.54069 11.4206C1.34739 11.0666 1.27592 10.8331 1.26325 10.6199L0.634357 10.6573L0.00546575 10.6946C0.0333416 11.1638 0.194075 11.5836 0.43479 12.0245C0.669815 12.4549 1.00832 12.9522 1.42531 13.5664L1.94652 13.2125ZM2.33881 7.66477L1.87176 7.24196C1.37228 7.79372 0.9672 8.24016 0.674006 8.63438C0.373815 9.038 0.155775 9.43152 0.0622116 9.89203L0.679597 10.0175L1.29698 10.1429C1.33961 9.9331 1.4435 9.71107 1.68503 9.38632C1.93356 9.05216 2.29 8.65742 2.80586 8.08758L2.33881 7.66477ZM0.634357 10.6573L1.26325 10.6199C1.25376 10.4602 1.26508 10.2999 1.29698 10.1429L0.679597 10.0175L0.0622116 9.89203C0.00857097 10.156 -0.0105091 10.4258 0.00546575 10.6946L0.634357 10.6573ZM13.65 10.5712H13.02C13.02 12.3187 13.0106 13.0272 12.8123 13.5775L13.405 13.7911L13.9977 14.0047C14.2894 13.1952 14.28 12.2104 14.28 10.5712H13.65ZM3.57 10.29H4.2V1.89H3.57H2.94V10.29H3.57ZM6.09 1.89H5.46V5.67H6.09H6.72V1.89H6.09ZM4.83 0.63V1.26C5.17794 1.26 5.46 1.54206 5.46 1.89H6.09H6.72C6.72 0.846182 5.87382 4.17233e-07 4.83 4.17233e-07V0.63ZM3.57 1.89H4.2C4.2 1.54206 4.48206 1.26 4.83 1.26V0.63V4.17233e-07C3.78618 4.17233e-07 2.94 0.846182 2.94 1.89H3.57ZM6.09 5.67V6.3H6.93V5.67V5.04H6.09V5.67ZM8.61 7.35H7.98V8.19H8.61H9.24V7.35H8.61ZM6.93 5.67V6.3C7.5099 6.3 7.98 6.7701 7.98 7.35H8.61H9.24C9.24 6.07422 8.20578 5.04 6.93 5.04V5.67ZM8.61 7.35H9.24V6.51H8.61H7.98V7.35H8.61ZM8.61 6.51V7.14H9.45V6.51V5.88H8.61V6.51ZM11.13 8.19H10.5V9.03H11.13H11.76V8.19H11.13ZM9.45 6.51V7.14C10.0299 7.14 10.5 7.6101 10.5 8.19H11.13H11.76C11.76 6.91422 10.7258 5.88 9.45 5.88V6.51ZM11.13 8.19H11.76V7.35H11.13H10.5V8.19H11.13ZM11.13 7.35L11.0264 7.97143L12.1426 8.15746L12.2462 7.53603L12.3498 6.9146L11.2336 6.72857L11.13 7.35ZM12.2462 7.53603L12.1426 8.15746C12.6486 8.24179 13.0195 8.67931 13.02 9.19213L13.65 9.19152L14.28 9.19091C14.2789 8.06266 13.4629 7.10012 12.3498 6.9146L12.2462 7.53603ZM6.09 5.67H5.46V8.19H6.09H6.72V5.67H6.09ZM3.99 16.3589H3.36V17.43H3.99H4.62V16.3589H3.99ZM13.405 13.7911L12.8123 13.5775C12.6512 14.0245 12.4031 14.43 12.0867 14.7749L12.5509 15.2008L13.0152 15.6267C13.4424 15.1609 13.7789 14.6117 13.9977 14.0047L13.405 13.7911ZM11.9115 16.6277H11.2815V17.43H11.9115H12.5415V16.6277H11.9115ZM12.5509 15.2008L12.0867 14.7749C11.6651 15.2345 11.2815 15.8712 11.2815 16.6277H11.9115H12.5415C12.5415 16.3069 12.7084 15.961 13.0152 15.6267L12.5509 15.2008ZM3.62251 15.3102L3.13032 15.7034C3.27901 15.8895 3.36 16.1207 3.36 16.3589H3.99H4.62C4.62 15.8348 4.44182 15.3264 4.11471 14.9169L3.62251 15.3102ZM13.65 9.19152H13.02V10.5712H13.65H14.28V9.19152H13.65Z" fill="var(--stroke-0, #007BFF)"/>
<path id="Vector_2" d="M10.71 2.73L15.75 2.73M10.71 2.73C10.71 2.14181 12.3852 1.04289 12.81 0.63M10.71 2.73C10.71 3.31819 12.3852 4.41712 12.81 4.83" stroke="var(--stroke-0, #007BFF)" stroke-width="1.26" stroke-linecap="round" stroke-linejoin="round"/>
</g>
</svg>
