<svg preserveAspectRatio="xMidYMid meet" width="100%" height="100%" overflow="visible" style="display: block;" viewBox="0 0 16.5 21.5001" fill="none" xmlns="http://www.w3.org/2000/svg">
<g id="elements">
<path id="Vector" d="M9.70588 10.85C9.70588 11.2643 10.0417 11.6 10.4559 11.6C10.8701 11.6 11.2059 11.2643 11.2059 10.85H10.4559H9.70588ZM9.83757 8.58155L9.34454 9.14673L9.34454 9.14673L9.83757 8.58155ZM12.3529 11.75C12.3529 12.1642 12.6887 12.5 13.1029 12.5C13.5172 12.5 13.8529 12.1642 13.8529 11.75H13.1029H12.3529ZM13.9733 10.098L13.8476 10.8374L13.8476 10.8374L13.9733 10.098ZM14.2754 10.1494L14.4011 9.40998V9.40998L14.2754 10.1494ZM15.75 11.9249L16.5 11.9251V11.9249H15.75ZM4.4114 13.0662C4.4114 13.4804 4.74718 13.8162 5.1614 13.8162C5.57561 13.8162 5.9114 13.4804 5.9114 13.0662H5.1614H4.4114ZM7.80849 4.57351L8.55849 4.57349V4.57349L7.80849 4.57351ZM7.05864 9.95007C7.05865 10.3643 7.39445 10.7001 7.80866 10.7C8.22287 10.7 8.55865 10.3642 8.55864 9.95003L7.80864 9.95005L7.05864 9.95007ZM15.7496 13.2502L14.9996 13.25V13.2502H15.7496ZM15.4575 16.9628L16.1597 17.2262H16.1597L15.4575 16.9628ZM14.4836 18.4067L15.0526 18.8953H15.0526L14.4836 18.4067ZM13.2349 20.7501C13.2349 21.1643 13.5707 21.5001 13.9849 21.5001C14.3991 21.5001 14.7349 21.1643 14.7349 20.7501H13.9849H13.2349ZM4.27941 17.15L3.70802 17.6358C3.7195 17.6493 3.73145 17.6624 3.74386 17.675L4.27941 17.15ZM4.85294 20.75C4.85294 21.1642 5.18873 21.5 5.60294 21.5C6.01715 21.5 6.35294 21.1642 6.35294 20.75H5.60294H4.85294ZM7.27327 8.525C6.98329 8.82078 6.98799 9.29563 7.28377 9.58561C7.57954 9.87559 8.0544 9.87089 8.34438 9.57511L7.80882 9.05006L7.27327 8.525ZM4.63254 13.6315C4.92605 13.9237 5.40092 13.9227 5.6932 13.6292C5.98548 13.3357 5.98449 12.8609 5.69099 12.5686L5.16176 13.1L4.63254 13.6315ZM3.28085 11.2269L3.81007 10.6955C3.79867 10.6841 3.7869 10.6732 3.77479 10.6626L3.28085 11.2269ZM1.09324 13.4026L0.506379 13.8696C0.511435 13.8759 0.516593 13.8822 0.521853 13.8884L1.09324 13.4026ZM1.08595 11.4376L0.495585 10.975L0.495584 10.975L1.08595 11.4376ZM10.4559 9.95005H9.70588V10.85H10.4559H11.2059V9.95005H10.4559ZM9.83757 8.58155L9.34454 9.14673C9.56449 9.3386 9.70588 9.62522 9.70588 9.95005H10.4559H11.2059C11.2059 9.17937 10.8675 8.48478 10.3306 8.01638L9.83757 8.58155ZM13.1029 10.85H12.3529V11.75H13.1029H13.8529V10.85H13.1029ZM11.3382 9.05006V9.80006C11.8847 9.80006 12.3529 10.2561 12.3529 10.85H13.1029H13.8529C13.8529 9.45579 12.741 8.30006 11.3382 8.30006V9.05006ZM13.9733 10.098L13.8476 10.8374L14.1497 10.8888L14.2754 10.1494L14.4011 9.40998L14.099 9.35861L13.9733 10.098ZM14.2754 10.1494L14.1497 10.8888C14.6297 10.9703 15 11.4 15 11.9249H15.75H16.5C16.5 10.6899 15.623 9.6177 14.4011 9.40998L14.2754 10.1494ZM5.1614 13.0662H5.9114V4.57355H5.1614H4.4114V13.0662H5.1614ZM7.80849 4.57351L7.05849 4.57353L7.05864 9.95007L7.80864 9.95005L8.55864 9.95003L8.55849 4.57349L7.80849 4.57351ZM15.7496 13.2502H14.9996C14.9996 14.2375 14.9993 14.9438 14.9646 15.5014C14.9302 16.0531 14.8643 16.409 14.7553 16.6994L15.4575 16.9628L16.1597 17.2262C16.3429 16.738 16.423 16.2155 16.4617 15.5946C16.5 14.9796 16.4996 14.2188 16.4996 13.2502H15.7496ZM15.4575 16.9628L14.7553 16.6994C14.6386 17.0105 14.2785 17.4944 13.9146 17.9181L14.4836 18.4067L15.0526 18.8953C15.4036 18.4866 15.9376 17.8184 16.1597 17.2262L15.4575 16.9628ZM13.9849 19.702H13.2349V20.7501H13.9849H14.7349V19.702H13.9849ZM14.4836 18.4067L13.9146 17.9181C13.5026 18.3979 13.2349 19.0239 13.2349 19.702H13.9849H14.7349C14.7349 19.4229 14.8463 19.1356 15.0526 18.8953L14.4836 18.4067ZM4.27941 17.15L3.74386 17.675C4.0754 18.0132 4.35948 18.5443 4.56054 19.1476C4.75991 19.7457 4.85294 20.3403 4.85294 20.75H5.60294H6.35294C6.35294 20.1541 6.22539 19.3987 5.98358 18.6732C5.74346 17.9528 5.36578 17.1868 4.81496 16.6249L4.27941 17.15ZM15.7496 13.2502L16.4996 13.2504L16.5 11.9251L15.75 11.9249L15 11.9247L14.9996 13.25L15.7496 13.2502ZM13.1029 10.85H13.8529C13.8529 10.8463 13.8533 10.8441 13.8536 10.8428C13.8539 10.8416 13.8542 10.8406 13.8546 10.8399C13.8554 10.8382 13.8565 10.8368 13.8576 10.8358C13.8587 10.8348 13.8583 10.8356 13.8553 10.8365C13.8538 10.837 13.852 10.8373 13.8501 10.8374C13.8482 10.8375 13.8472 10.8373 13.8476 10.8374L13.9733 10.098L14.099 9.35862C13.1682 9.20038 12.3529 9.93223 12.3529 10.85H13.1029ZM10.4559 9.95005H11.2059C11.2059 9.85315 11.2791 9.80006 11.3382 9.80006V9.05006V8.30006C10.4228 8.30006 9.70588 9.05285 9.70588 9.95005H10.4559ZM7.80882 9.05006L8.34438 9.57511C8.56959 9.34539 8.82208 9.18144 9.02852 9.11773C9.21192 9.06113 9.28681 9.09637 9.34454 9.14673L9.83757 8.58155L10.3306 8.01638C9.78114 7.53705 9.12414 7.51841 8.5862 7.68443C8.07131 7.84333 7.61301 8.17847 7.27327 8.525L7.80882 9.05006ZM5.16176 13.1L5.69099 12.5686L3.81007 10.6955L3.28085 11.2269L2.75163 11.7584L4.63254 13.6315L5.16176 13.1ZM1.09324 13.4026L0.521853 13.8884L3.70802 17.6358L4.27941 17.15L4.8508 16.6642L1.66463 12.9168L1.09324 13.4026ZM1.08595 11.4376L0.495584 10.975C-0.169167 11.8234 -0.164778 13.0261 0.506379 13.8696L1.09324 13.4026L1.68011 12.9356C1.44144 12.6356 1.43976 12.2021 1.67632 11.9001L1.08595 11.4376ZM3.28085 11.2269L3.77479 10.6626C2.79048 9.80111 1.30074 9.94739 0.495585 10.975L1.08595 11.4376L1.67632 11.9001C1.95448 11.5451 2.45456 11.5005 2.78692 11.7913L3.28085 11.2269ZM7.80849 4.57351L8.55849 4.57349C8.55846 3.42832 7.63011 2.5 6.48494 2.5V3.25V4C6.8017 4 7.05848 4.25678 7.05849 4.57353L7.80849 4.57351ZM5.1614 4.57355H5.9114C5.9114 4.25679 6.16818 4 6.48494 4V3.25V2.5C5.33976 2.5 4.4114 3.42836 4.4114 4.57355H5.1614Z" fill="var(--stroke-0, #141B34)"/>
<path id="Vector_2" d="M10.25 4.75C10.25 2.54086 8.45914 0.75 6.25 0.75C4.04086 0.75 2.25 2.54086 2.25 4.75" stroke="var(--stroke-0, #141B34)" stroke-width="1.5" stroke-linecap="round" stroke-linejoin="round"/>
</g>
</svg>
