<svg preserveAspectRatio="xMidYMid meet" width="100%" height="100%" overflow="visible" style="display: block;" viewBox="0 0 14.3334 14.3334" fill="none" xmlns="http://www.w3.org/2000/svg">
<g id="elements">
<path id="Vector" d="M10.5 7.16673C10.5 9.00768 9.00762 10.5001 7.16667 10.5001C5.32572 10.5001 3.83333 9.00768 3.83333 7.16673C3.83333 5.32578 5.32572 3.8334 7.16667 3.8334" stroke="var(--stroke-0, #007BFF)" stroke-linecap="round"/>
<path id="Vector_2" d="M8.5 0.63342C8.06919 0.545969 7.62329 0.500062 7.16667 0.500062C3.48477 0.500062 0.5 3.48483 0.5 7.16673C0.5 10.8486 3.48477 13.8334 7.16667 13.8334C10.8486 13.8334 13.8333 10.8486 13.8333 7.16673C13.8333 6.71011 13.7874 6.26421 13.7 5.8334" stroke="var(--stroke-0, #007BFF)" stroke-linecap="round"/>
<path id="Vector_3" d="M6.81311 6.81318C6.61785 7.00844 6.61785 7.32502 6.81311 7.52028C7.00838 7.71554 7.32496 7.71554 7.52022 7.52028L7.16667 7.16673L6.81311 6.81318ZM12.2939 2.03947L11.8101 2.1657C11.8558 2.34083 11.9926 2.47759 12.1677 2.52328L12.2939 2.03947ZM11.9497 0.720109L11.4659 0.84634V0.846341L11.9497 0.720109ZM11.3654 0.626769L11.7189 0.980322V0.980322L11.3654 0.626769ZM10.5991 1.39302L10.2455 1.03947V1.03947L10.5991 1.39302ZM10.0188 3.26759L9.53496 3.39382V3.39382L10.0188 3.26759ZM13.6133 2.38371L13.4871 2.86752V2.86752L13.6133 2.38371ZM13.7066 2.96804L13.3531 2.61448V2.61448L13.7066 2.96804ZM12.9404 3.73429L13.2939 4.08785V4.08785L12.9404 3.73429ZM11.0658 4.31464L10.9396 4.79844H10.9396L11.0658 4.31464ZM10.2354 4.09798L9.88187 3.74442L6.81311 6.81318L7.16667 7.16673L7.52022 7.52028L10.589 4.45153L10.2354 4.09798ZM12.2939 2.03947L12.7777 1.91324L12.4335 0.593878L11.9497 0.720109L11.4659 0.846341L11.8101 2.1657L12.2939 2.03947ZM11.3654 0.626769L11.0118 0.273215L10.2455 1.03947L10.5991 1.39302L10.9527 1.74658L11.7189 0.980322L11.3654 0.626769ZM10.0188 3.26759L9.53496 3.39382L9.75162 4.22421L10.2354 4.09798L10.7192 3.97174L10.5026 3.14136L10.0188 3.26759ZM12.2939 2.03947L12.1677 2.52328L13.4871 2.86752L13.6133 2.38371L13.7395 1.89991L12.4202 1.55567L12.2939 2.03947ZM13.7066 2.96804L13.3531 2.61448L12.5868 3.38074L12.9404 3.73429L13.2939 4.08785L14.0602 3.32159L13.7066 2.96804ZM11.0658 4.31464L11.192 3.83083L10.3617 3.61417L10.2354 4.09798L10.1092 4.58178L10.9396 4.79844L11.0658 4.31464ZM12.9404 3.73429L12.5868 3.38074C12.1728 3.79473 11.6241 3.94355 11.192 3.83083L11.0658 4.31464L10.9396 4.79844C11.7657 5.01398 12.6683 4.71346 13.2939 4.08785L12.9404 3.73429ZM13.6133 2.38371L13.4871 2.86752C13.4529 2.85861 13.414 2.83686 13.3828 2.8009C13.3532 2.76665 13.3398 2.73044 13.3353 2.70239C13.3265 2.64693 13.3489 2.61867 13.3531 2.61448L13.7066 2.96804L14.0602 3.32159C14.2684 3.11337 14.3676 2.82516 14.3228 2.54465C14.2765 2.25465 14.0724 1.98678 13.7395 1.89991L13.6133 2.38371ZM10.5991 1.39302L10.2455 1.03947C9.61994 1.66508 9.31942 2.56773 9.53496 3.39382L10.0188 3.26759L10.5026 3.14136C10.3898 2.70933 10.5387 2.16057 10.9527 1.74658L10.5991 1.39302ZM11.9497 0.720109L12.4335 0.593878C12.3466 0.260951 12.0787 0.0569166 11.7887 0.0105917C11.5082 -0.0342169 11.22 0.0649923 11.0118 0.273215L11.3654 0.626769L11.7189 0.980322C11.7147 0.984511 11.6865 1.00693 11.631 0.998072C11.603 0.993592 11.5667 0.980237 11.5325 0.950569C11.4965 0.91941 11.4748 0.880494 11.4659 0.84634L11.9497 0.720109Z" fill="var(--stroke-0, #007BFF)"/>
</g>
</svg>
