<svg preserveAspectRatio="xMidYMid meet" width="100%" height="100%" overflow="visible" style="display: block;" viewBox="0 0 14.3334 14.3334" fill="none" xmlns="http://www.w3.org/2000/svg">
<g id="elements">
<path id="Vector" d="M2.23337 12.1L0.500036 13.8334M1.3667 9.0667C1.3667 6.91279 3.11279 5.1667 5.2667 5.1667C7.42061 5.1667 9.1667 6.91279 9.1667 9.0667C9.1667 11.2206 7.42061 12.9667 5.2667 12.9667C3.11279 12.9667 1.3667 11.2206 1.3667 9.0667Z" stroke="url(#paint0_linear_0_123)" stroke-linecap="round" stroke-linejoin="round"/>
<path id="Vector_2" d="M2.45004 11.8834L0.500036 13.8334M6.5667 9.0667H5.2667M5.2667 9.0667H3.9667M5.2667 9.0667V7.7667M5.2667 9.0667V10.3667M1.3667 9.0667C1.3667 6.91279 3.11279 5.1667 5.2667 5.1667C7.42061 5.1667 9.1667 6.91279 9.1667 9.0667C9.1667 11.2206 7.42061 12.9667 5.2667 12.9667C3.11279 12.9667 1.3667 11.2206 1.3667 9.0667Z" stroke="url(#paint1_linear_0_123)" stroke-linecap="round" stroke-linejoin="round"/>
<path id="Vector_3" d="M13.8334 3.1667C13.7464 2.27637 13.5492 1.67757 13.1025 1.23087C12.6558 0.784171 12.057 0.587035 11.1667 0.500036M11.1667 13.8334C12.057 13.7464 12.6558 13.5492 13.1025 13.1025C13.5492 12.6558 13.7464 12.057 13.8334 11.1667M0.500036 3.1667C0.587035 2.27637 0.784171 1.67757 1.23087 1.23087C1.67757 0.784171 2.27637 0.587035 3.1667 0.500036M13.8334 5.83337L13.8334 8.50004M5.83337 0.500036L8.50004 0.500036" stroke="url(#paint2_linear_0_123)" stroke-linecap="round"/>
</g>
<defs>
<linearGradient id="paint0_linear_0_123" x1="9.1667" y1="9.50004" x2="0.500036" y2="9.50004" gradientUnits="userSpaceOnUse">
<stop stop-color="#007BFF"/>
<stop offset="0.177885" stop-color="#FF6B35"/>
<stop offset="0.721154" stop-color="#007BFF"/>
<stop offset="0.807692" stop-color="#007BFF"/>
<stop offset="0.923077" stop-color="#FF6B35"/>
<stop offset="1" stop-color="#007BFF"/>
</linearGradient>
<linearGradient id="paint1_linear_0_123" x1="9.1667" y1="9.50004" x2="0.500036" y2="9.50004" gradientUnits="userSpaceOnUse">
<stop stop-color="#007BFF"/>
<stop offset="0.177885" stop-color="#FF6B35"/>
<stop offset="0.721154" stop-color="#007BFF"/>
<stop offset="0.807692" stop-color="#007BFF"/>
<stop offset="0.923077" stop-color="#FF6B35"/>
<stop offset="1" stop-color="#007BFF"/>
</linearGradient>
<linearGradient id="paint2_linear_0_123" x1="13.8334" y1="7.1667" x2="0.500036" y2="7.1667" gradientUnits="userSpaceOnUse">
<stop stop-color="#007BFF"/>
<stop offset="0.177885" stop-color="#FF6B35"/>
<stop offset="0.721154" stop-color="#007BFF"/>
<stop offset="0.807692" stop-color="#007BFF"/>
<stop offset="0.923077" stop-color="#FF6B35"/>
<stop offset="1" stop-color="#007BFF"/>
</linearGradient>
</defs>
</svg>
