<svg preserveAspectRatio="none" width="100%" height="100%" overflow="visible" style="display: block;" viewBox="0 0 14.3328 14.3333" fill="none" xmlns="http://www.w3.org/2000/svg">
<g id="elements">
<path id="Vector" d="M7.16678 8.53107C5.69525 8.39357 4.18717 8.71246 2.88517 9.48772C1.94199 10.0493 -0.530973 11.1961 0.975225 12.631C1.71099 13.332 2.53044 13.8333 3.5607 13.8333H7.83345" stroke="url(#paint0_linear_0_137)" stroke-linecap="round" stroke-linejoin="round"/>
<path id="Vector_2" d="M9.50012 3.5C9.50012 5.15685 8.15697 6.5 6.50012 6.5C4.84326 6.5 3.50012 5.15685 3.50012 3.5C3.50012 1.84315 4.84326 0.5 6.50012 0.5C8.15697 0.5 9.50012 1.84315 9.50012 3.5Z" stroke="url(#paint1_linear_0_137)"/>
<path id="Vector_3" d="M11.1663 8.5C10.322 8.5 9.77455 9.0384 9.12712 9.23464C8.86388 9.31443 8.73225 9.35433 8.67898 9.41057C8.62571 9.46682 8.61011 9.549 8.57892 9.71337C8.24508 11.4723 8.97476 13.0984 10.7149 13.7313C10.9019 13.7993 10.9954 13.8333 11.1672 13.8333C11.339 13.8333 11.4325 13.7993 11.6194 13.7313C13.3595 13.0984 14.0885 11.4723 13.7546 9.71337C13.7234 9.54897 13.7077 9.46677 13.6545 9.41053C13.6012 9.35429 13.4696 9.31441 13.2063 9.23466C12.5587 9.03844 12.0106 8.5 11.1663 8.5Z" stroke="url(#paint2_linear_0_137)" stroke-linecap="round" stroke-linejoin="round"/>
</g>
<defs>
<linearGradient id="paint0_linear_0_137" x1="0.500118" y1="11.1667" x2="7.83345" y2="11.1667" gradientUnits="userSpaceOnUse">
<stop stop-color="#007BFF"/>
<stop offset="0.177885" stop-color="#FF6B35"/>
<stop offset="0.721154" stop-color="#007BFF"/>
<stop offset="0.807692" stop-color="#007BFF"/>
<stop offset="0.923077" stop-color="#FF6B35"/>
<stop offset="1" stop-color="#007BFF"/>
</linearGradient>
<linearGradient id="paint1_linear_0_137" x1="3.50012" y1="3.5" x2="9.50012" y2="3.5" gradientUnits="userSpaceOnUse">
<stop stop-color="#007BFF"/>
<stop offset="0.177885" stop-color="#FF6B35"/>
<stop offset="0.721154" stop-color="#007BFF"/>
<stop offset="0.807692" stop-color="#007BFF"/>
<stop offset="0.923077" stop-color="#FF6B35"/>
<stop offset="1" stop-color="#007BFF"/>
</linearGradient>
<linearGradient id="paint2_linear_0_137" x1="8.50012" y1="11.1667" x2="13.8335" y2="11.1667" gradientUnits="userSpaceOnUse">
<stop stop-color="#007BFF"/>
<stop offset="0.177885" stop-color="#FF6B35"/>
<stop offset="0.721154" stop-color="#007BFF"/>
<stop offset="0.807692" stop-color="#007BFF"/>
<stop offset="0.923077" stop-color="#FF6B35"/>
<stop offset="1" stop-color="#007BFF"/>
</linearGradient>
</defs>
</svg>
