<svg preserveAspectRatio="none" width="100%" height="100%" overflow="visible" style="display: block;" viewBox="0 0 14.3333 14.3333" fill="none" xmlns="http://www.w3.org/2000/svg">
<g id="elements">
<path id="Vector" d="M7.16666 2.5V13.8333M7.16666 13.8333H5.16666M7.16666 13.8333H9.16666" stroke="url(#paint0_linear_0_152)" stroke-linecap="round" stroke-linejoin="round"/>
<path id="Vector_2" d="M13.1667 7.83333L11.5 4.5L9.83333 7.83333" stroke="url(#paint1_linear_0_152)" stroke-linecap="round" stroke-linejoin="round"/>
<path id="Vector_3" d="M4.49999 7.83333L2.83333 4.5L1.16666 7.83333" stroke="url(#paint2_linear_0_152)" stroke-linecap="round" stroke-linejoin="round"/>
<path id="Vector_4" d="M1.83333 4.5H2.53213C3.37444 4.5 4.19166 4.14733 4.84939 3.5C6.20415 2.16667 8.12917 2.16667 9.48393 3.5C10.1417 4.14733 10.9589 4.5 11.8012 4.5H12.5" stroke="url(#paint3_linear_0_152)" stroke-linecap="round" stroke-linejoin="round"/>
<path id="Vector_5" d="M11.5 10.5C12.4031 10.5 13.1896 9.94419 13.5982 9.12324C13.8187 8.68017 13.9289 8.45863 13.7277 8.14598C13.5264 7.83333 13.1933 7.83333 12.5272 7.83333H10.4728C9.80666 7.83333 9.47358 7.83333 9.27232 8.14598C9.07107 8.45863 9.18132 8.68017 9.40182 9.12324C9.81038 9.94419 10.5969 10.5 11.5 10.5Z" stroke="url(#paint4_linear_0_152)"/>
<path id="Vector_6" d="M2.83333 10.5C3.73647 10.5 4.52294 9.94419 4.9315 9.12324C5.152 8.68017 5.26226 8.45863 5.061 8.14598C4.85974 7.83333 4.52666 7.83333 3.86049 7.83333H1.80616C1.14 7.83333 0.806912 7.83333 0.605656 8.14598C0.404401 8.45863 0.514651 8.68017 0.735151 9.12324C1.14371 9.94419 1.93018 10.5 2.83333 10.5Z" stroke="url(#paint5_linear_0_152)"/>
<path id="Vector_7" d="M8.16666 1.5C8.16666 2.05228 7.71895 2.5 7.16666 2.5C6.61438 2.5 6.16666 2.05228 6.16666 1.5C6.16666 0.947715 6.61438 0.5 7.16666 0.5C7.71895 0.5 8.16666 0.947715 8.16666 1.5Z" stroke="url(#paint6_linear_0_152)"/>
</g>
<defs>
<linearGradient id="paint0_linear_0_152" x1="5.16666" y1="8.16667" x2="9.16666" y2="8.16667" gradientUnits="userSpaceOnUse">
<stop stop-color="#007BFF"/>
<stop offset="0.177885" stop-color="#FF6B35"/>
<stop offset="0.721154" stop-color="#007BFF"/>
<stop offset="0.807692" stop-color="#007BFF"/>
<stop offset="0.923077" stop-color="#FF6B35"/>
<stop offset="1" stop-color="#007BFF"/>
</linearGradient>
<linearGradient id="paint1_linear_0_152" x1="9.83333" y1="6.16667" x2="13.1667" y2="6.16667" gradientUnits="userSpaceOnUse">
<stop stop-color="#007BFF"/>
<stop offset="0.177885" stop-color="#FF6B35"/>
<stop offset="0.721154" stop-color="#007BFF"/>
<stop offset="0.807692" stop-color="#007BFF"/>
<stop offset="0.923077" stop-color="#FF6B35"/>
<stop offset="1" stop-color="#007BFF"/>
</linearGradient>
<linearGradient id="paint2_linear_0_152" x1="1.16666" y1="6.16667" x2="4.49999" y2="6.16667" gradientUnits="userSpaceOnUse">
<stop stop-color="#007BFF"/>
<stop offset="0.177885" stop-color="#FF6B35"/>
<stop offset="0.721154" stop-color="#007BFF"/>
<stop offset="0.807692" stop-color="#007BFF"/>
<stop offset="0.923077" stop-color="#FF6B35"/>
<stop offset="1" stop-color="#007BFF"/>
</linearGradient>
<linearGradient id="paint3_linear_0_152" x1="1.83333" y1="3.5" x2="12.5" y2="3.5" gradientUnits="userSpaceOnUse">
<stop stop-color="#007BFF"/>
<stop offset="0.177885" stop-color="#FF6B35"/>
<stop offset="0.721154" stop-color="#007BFF"/>
<stop offset="0.807692" stop-color="#007BFF"/>
<stop offset="0.923077" stop-color="#FF6B35"/>
<stop offset="1" stop-color="#007BFF"/>
</linearGradient>
<linearGradient id="paint4_linear_0_152" x1="9.16666" y1="9.16667" x2="13.8333" y2="9.16667" gradientUnits="userSpaceOnUse">
<stop stop-color="#007BFF"/>
<stop offset="0.177885" stop-color="#FF6B35"/>
<stop offset="0.721154" stop-color="#007BFF"/>
<stop offset="0.807692" stop-color="#007BFF"/>
<stop offset="0.923077" stop-color="#FF6B35"/>
<stop offset="1" stop-color="#007BFF"/>
</linearGradient>
<linearGradient id="paint5_linear_0_152" x1="0.499994" y1="9.16667" x2="5.16666" y2="9.16667" gradientUnits="userSpaceOnUse">
<stop stop-color="#007BFF"/>
<stop offset="0.177885" stop-color="#FF6B35"/>
<stop offset="0.721154" stop-color="#007BFF"/>
<stop offset="0.807692" stop-color="#007BFF"/>
<stop offset="0.923077" stop-color="#FF6B35"/>
<stop offset="1" stop-color="#007BFF"/>
</linearGradient>
<linearGradient id="paint6_linear_0_152" x1="6.16666" y1="1.5" x2="8.16666" y2="1.5" gradientUnits="userSpaceOnUse">
<stop stop-color="#007BFF"/>
<stop offset="0.177885" stop-color="#FF6B35"/>
<stop offset="0.721154" stop-color="#007BFF"/>
<stop offset="0.807692" stop-color="#007BFF"/>
<stop offset="0.923077" stop-color="#FF6B35"/>
<stop offset="1" stop-color="#007BFF"/>
</linearGradient>
</defs>
</svg>
