<svg preserveAspectRatio="none" width="100%" height="100%" overflow="visible" style="display: block;" viewBox="0 0 11 14.3334" fill="none" xmlns="http://www.w3.org/2000/svg">
<g id="elements">
<path id="Vector" d="M6.47059 7.23336C6.47059 7.5095 6.69445 7.73336 6.97059 7.73336C7.24673 7.73336 7.47059 7.5095 7.47059 7.23336H6.97059H6.47059ZM6.55838 5.72104L6.22969 6.09782L6.22969 6.09782L6.55838 5.72104ZM8.23529 7.83336C8.23529 8.1095 8.45915 8.33336 8.73529 8.33336C9.01144 8.33336 9.23529 8.1095 9.23529 7.83336H8.73529H8.23529ZM9.31553 6.732L9.23173 7.22493H9.23173L9.31553 6.732ZM9.51694 6.76625L9.60074 6.27332V6.27332L9.51694 6.76625ZM10.5 7.94991L11 7.95005V7.94991H10.5ZM2.94093 8.71081C2.94093 8.98695 3.16479 9.21081 3.44093 9.21081C3.71707 9.21081 3.94093 8.98695 3.94093 8.71081H3.44093H2.94093ZM5.20566 3.04901L5.70566 3.04899V3.04899L5.20566 3.04901ZM4.70576 6.63338C4.70577 6.90952 4.92963 7.13337 5.20577 7.13337C5.48192 7.13336 5.70577 6.9095 5.70576 6.63335L5.20576 6.63337L4.70576 6.63338ZM10.4998 8.83345L9.99975 8.83331V8.83345H10.4998ZM10.305 11.3085L10.7732 11.4842V11.4842L10.305 11.3085ZM9.65573 12.2711L10.0351 12.5969L10.0351 12.5969L9.65573 12.2711ZM8.82328 13.8334C8.82328 14.1095 9.04714 14.3334 9.32328 14.3334C9.59943 14.3334 9.82328 14.1095 9.82328 13.8334H9.32328H8.82328ZM2.85294 11.4333L2.47201 11.7572C2.47967 11.7662 2.48764 11.7749 2.49591 11.7834L2.85294 11.4333ZM3.23529 13.8333C3.23529 14.1094 3.45915 14.3333 3.73529 14.3333C4.01144 14.3333 4.23529 14.1094 4.23529 13.8333H3.73529H3.23529ZM4.84885 5.68333C4.65553 5.88052 4.65866 6.19709 4.85584 6.39041C5.05303 6.58373 5.3696 6.58059 5.56292 6.38341L5.20588 6.03337L4.84885 5.68333ZM3.08836 9.08764C3.28403 9.28249 3.60061 9.28183 3.79547 9.08616C3.99032 8.89049 3.98966 8.57391 3.79399 8.37906L3.44118 8.73335L3.08836 9.08764ZM2.18723 7.48463L2.54005 7.13034C2.53245 7.12276 2.5246 7.11544 2.51652 7.10837L2.18723 7.48463ZM0.728828 8.93504L0.337586 9.24638C0.340956 9.25061 0.344396 9.2548 0.347902 9.25892L0.728828 8.93504ZM0.723969 7.62505L0.33039 7.31668L0.330389 7.31668L0.723969 7.62505ZM6.97059 6.63337H6.47059V7.23336H6.97059H7.47059V6.63337H6.97059ZM6.55838 5.72104L6.22969 6.09782C6.37633 6.22573 6.47059 6.41682 6.47059 6.63337H6.97059H7.47059C7.47059 6.11958 7.24502 5.65652 6.88707 5.34426L6.55838 5.72104ZM8.73529 7.23336H8.23529V7.83336H8.73529H9.23529V7.23336H8.73529ZM7.55882 6.03337V6.53337C7.92314 6.53337 8.23529 6.83739 8.23529 7.23336H8.73529H9.23529C9.23529 6.30386 8.494 5.53337 7.55882 5.53337V6.03337ZM9.31553 6.732L9.23173 7.22493L9.43314 7.25917L9.51694 6.76625L9.60074 6.27332L9.39932 6.23908L9.31553 6.732ZM9.51694 6.76625L9.43314 7.25917C9.75311 7.31357 10 7.59999 10 7.94991H10.5H11C11 7.12662 10.4153 6.4118 9.60074 6.27332L9.51694 6.76625ZM3.44093 8.71081H3.94093V3.04903H3.44093H2.94093V8.71081H3.44093ZM5.20566 3.04901L4.70566 3.04902L4.70576 6.63338L5.20576 6.63337L5.70576 6.63335L5.70566 3.04899L5.20566 3.04901ZM10.4998 8.83345H9.99975C9.99975 9.49167 9.99953 9.96251 9.97638 10.3343C9.95347 10.7021 9.90951 10.9393 9.83688 11.1329L10.305 11.3085L10.7732 11.4842C10.8953 11.1587 10.9487 10.8103 10.9744 10.3964C11 9.98637 10.9998 9.47921 10.9998 8.83345H10.4998ZM10.305 11.3085L9.83688 11.1329C9.75905 11.3404 9.51899 11.6629 9.27639 11.9454L9.65573 12.2711L10.0351 12.5969C10.2691 12.3244 10.6251 11.8789 10.7732 11.4842L10.305 11.3085ZM9.32328 13.1347H8.82328V13.8334H9.32328H9.82328V13.1347H9.32328ZM9.65573 12.2711L9.27639 11.9454C9.00171 12.2653 8.82328 12.6826 8.82328 13.1347H9.32328H9.82328C9.82328 12.9486 9.89754 12.757 10.0351 12.5969L9.65573 12.2711ZM2.85294 11.4333L2.49591 11.7834C2.71693 12.0088 2.90632 12.3629 3.04036 12.765C3.17327 13.1638 3.23529 13.5602 3.23529 13.8333H3.73529H4.23529C4.23529 13.4361 4.15026 12.9325 3.98905 12.4488C3.82897 11.9686 3.57719 11.4578 3.20998 11.0833L2.85294 11.4333ZM10.4998 8.83345L10.9998 8.83359L11 7.95005L10.5 7.94991L10 7.94977L9.99975 8.83331L10.4998 8.83345ZM8.73529 7.23336H9.23529C9.23529 7.22898 9.2361 7.22719 9.23639 7.22659C9.2369 7.22549 9.23767 7.22451 9.23841 7.22387C9.23915 7.22323 9.23886 7.22377 9.23689 7.22434C9.23587 7.22464 9.23466 7.22486 9.23343 7.22494C9.23214 7.22501 9.23149 7.22489 9.23173 7.22493L9.31553 6.732L9.39932 6.23908C8.77878 6.13359 8.23529 6.62149 8.23529 7.23336H8.73529ZM6.97059 6.63337H7.47059C7.47059 6.56876 7.51938 6.53337 7.55882 6.53337V6.03337V5.53337C6.94852 5.53337 6.47059 6.03523 6.47059 6.63337H6.97059ZM5.20588 6.03337L5.56292 6.38341C5.71306 6.23026 5.88138 6.12096 6.01902 6.07848C6.14128 6.04075 6.19121 6.06424 6.22969 6.09782L6.55838 5.72104L6.88707 5.34426C6.52076 5.0247 6.08276 5.01228 5.72413 5.12295C5.38087 5.22888 5.07534 5.45231 4.84885 5.68333L5.20588 6.03337ZM3.44118 8.73335L3.79399 8.37906L2.54005 7.13034L2.18723 7.48463L1.83442 7.83892L3.08836 9.08764L3.44118 8.73335ZM0.728828 8.93504L0.347902 9.25892L2.47201 11.7572L2.85294 11.4333L3.23387 11.1095L1.10975 8.61117L0.728828 8.93504ZM0.723969 7.62505L0.330389 7.31668C-0.112778 7.88229 -0.109852 8.6841 0.337586 9.24638L0.728828 8.93504L1.12007 8.62371C0.960962 8.42376 0.959841 8.13471 1.11755 7.93343L0.723969 7.62505ZM2.18723 7.48463L2.51652 7.10837C1.86032 6.53407 0.867161 6.63159 0.33039 7.31668L0.723969 7.62505L1.11755 7.93343C1.30299 7.69675 1.63637 7.66697 1.85794 7.86088L2.18723 7.48463ZM5.20566 3.04901L5.70566 3.04899C5.70564 2.28555 5.08674 1.66667 4.3233 1.66667V2.16667V2.66667C4.53447 2.66667 4.70566 2.83785 4.70566 3.04902L5.20566 3.04901ZM3.44093 3.04903H3.94093C3.94093 2.83786 4.11212 2.66667 4.3233 2.66667V2.16667V1.66667C3.55984 1.66667 2.94093 2.28557 2.94093 3.04903H3.44093Z" fill="url(#paint0_linear_0_123)"/>
<path id="Vector_2" d="M6.83333 3.16667C6.83333 1.69391 5.63943 0.5 4.16667 0.5C2.69391 0.5 1.5 1.69391 1.5 3.16667" stroke="url(#paint1_linear_0_123)" stroke-linecap="round" stroke-linejoin="round"/>
</g>
<defs>
<linearGradient id="paint0_linear_0_123" x1="0.5" y1="8.00004" x2="10.5" y2="8.00004" gradientUnits="userSpaceOnUse">
<stop stop-color="#007BFF"/>
<stop offset="0.177885" stop-color="#FF6B35"/>
<stop offset="0.721154" stop-color="#007BFF"/>
<stop offset="0.807692" stop-color="#007BFF"/>
<stop offset="0.923077" stop-color="#FF6B35"/>
<stop offset="1" stop-color="#007BFF"/>
</linearGradient>
<linearGradient id="paint1_linear_0_123" x1="1.5" y1="1.83333" x2="6.83333" y2="1.83333" gradientUnits="userSpaceOnUse">
<stop stop-color="#007BFF"/>
<stop offset="0.177885" stop-color="#FF6B35"/>
<stop offset="0.721154" stop-color="#007BFF"/>
<stop offset="0.807692" stop-color="#007BFF"/>
<stop offset="0.923077" stop-color="#FF6B35"/>
<stop offset="1" stop-color="#007BFF"/>
</linearGradient>
</defs>
</svg>
