<svg preserveAspectRatio="none" width="100%" height="100%" overflow="visible" style="display: block;" viewBox="0 0 294.957 101.793" fill="none" xmlns="http://www.w3.org/2000/svg">
<g id="Group 2147225581">
<path id="Vector 5259" d="M2.88675 101.793L5.7735 96.7931H0L2.88675 101.793ZM2.88675 97.2931H3.38675V95.8041H2.88675H2.38675V97.2931H2.88675ZM2.88675 83.826H3.38675V77.8369H2.88675H2.38675V83.826H2.88675ZM2.88675 77.8369H3.38675C3.38675 76.534 3.51447 75.2613 3.75793 74.0307L3.26743 73.9337L2.77694 73.8366C2.52091 75.1308 2.38675 76.4685 2.38675 77.8369H2.88675ZM6.25545 66.7246L6.67093 67.0028C8.09474 64.876 9.92589 63.0449 12.0526 61.6211L11.7744 61.2056L11.4963 60.7901C9.26095 62.2866 7.33649 64.2111 5.83996 66.4464L6.25545 66.7246ZM18.9835 58.2176L19.0806 58.7081C20.3112 58.4646 21.5838 58.3369 22.8868 58.3369V57.8369V57.3369C21.5183 57.3369 20.1807 57.4711 18.8865 57.7271L18.9835 58.2176ZM22.8868 57.8369V58.3369H26.6222V57.8369V57.3369H22.8868V57.8369ZM34.093 57.8369V58.3369H41.5638V57.8369V57.3369H34.093V57.8369ZM49.0346 57.8369V58.3369H56.5055V57.8369V57.3369H49.0346V57.8369ZM63.9763 57.8369V58.3369H71.4471V57.8369V57.3369H63.9763V57.8369ZM78.9179 57.8369V58.3369H86.3888V57.8369V57.3369H78.9179V57.8369ZM93.8596 57.8369V58.3369H101.33V57.8369V57.3369H93.8596V57.8369ZM108.801 57.8369V58.3369H116.272V57.8369V57.3369H108.801V57.8369ZM123.743 57.8369V58.3369H127.478V57.8369V57.3369H123.743V57.8369ZM127.478 57.8369V58.3369C128.847 58.3369 130.184 58.2028 131.479 57.9467L131.382 57.4562L131.284 56.9657C130.054 57.2092 128.781 57.3369 127.478 57.3369V57.8369ZM138.591 54.4682L138.869 54.8837C141.104 53.3872 143.029 51.4627 144.525 49.2274L144.11 48.9492L143.694 48.6711C142.27 50.7978 140.439 52.6289 138.312 54.0527L138.591 54.4682ZM147.098 41.7402L147.588 41.8372C147.844 40.543 147.978 39.2054 147.978 37.8369H147.478H146.978C146.978 39.1399 146.851 40.4125 146.607 41.6431L147.098 41.7402ZM147.478 37.8369H147.978V33.1073H147.478H146.978V37.8369H147.478ZM147.478 23.6481H147.978V14.1888H147.478H146.978V23.6481H147.478ZM147.478 4.72961H147.978V0H147.478H146.978V4.72961H147.478Z" fill="var(--stroke-0, #94A3B8)"/>
<path id="Vector 5260" d="M292.07 101.793L289.184 96.7931H294.957L292.07 101.793ZM292.07 97.2931H291.57V95.8041H292.07H292.57V97.2931H292.07ZM292.07 83.826H291.57V77.8369H292.07H292.57V83.826H292.07ZM292.07 77.8369H291.57C291.57 76.534 291.443 75.2613 291.199 74.0307L291.69 73.9337L292.18 73.8366C292.436 75.1308 292.57 76.4685 292.57 77.8369H292.07ZM288.702 66.7246L288.286 67.0028C286.862 64.876 285.031 63.0449 282.904 61.6211L283.183 61.2056L283.461 60.7901C285.696 62.2866 287.621 64.2111 289.117 66.4464L288.702 66.7246ZM275.974 58.2176L275.877 58.7081C274.646 58.4646 273.373 58.3369 272.07 58.3369V57.8369V57.3369C273.439 57.3369 274.776 57.4711 276.071 57.7271L275.974 58.2176ZM272.07 57.8369V58.3369H268.335V57.8369V57.3369H272.07V57.8369ZM260.864 57.8369V58.3369H253.393V57.8369V57.3369H260.864V57.8369ZM245.922 57.8369V58.3369H238.452V57.8369V57.3369H245.922V57.8369ZM230.981 57.8369V58.3369H223.51V57.8369V57.3369H230.981V57.8369ZM216.039 57.8369V58.3369H208.568V57.8369V57.3369H216.039V57.8369ZM201.098 57.8369V58.3369H193.627V57.8369V57.3369H201.098V57.8369ZM186.156 57.8369V58.3369H178.685V57.8369V57.3369H186.156V57.8369ZM171.214 57.8369V58.3369H167.479V57.8369V57.3369H171.214V57.8369ZM167.479 57.8369V58.3369C166.11 58.3369 164.773 58.2028 163.479 57.9467L163.576 57.4562L163.673 56.9657C164.903 57.2092 166.176 57.3369 167.479 57.3369V57.8369ZM156.367 54.4682L156.088 54.8837C153.853 53.3872 151.929 51.4627 150.432 49.2274L150.848 48.9492L151.263 48.6711C152.687 50.7978 154.518 52.6289 156.645 54.0527L156.367 54.4682ZM147.859 41.7402L147.369 41.8372C147.113 40.543 146.979 39.2054 146.979 37.8369H147.479H147.979C147.979 39.1399 148.107 40.4125 148.35 41.6431L147.859 41.7402ZM147.479 37.8369H146.979V33.1073H147.479H147.979V37.8369H147.479ZM147.479 23.6481H146.979V14.1888H147.479H147.979V23.6481H147.479ZM147.479 4.72961H146.979V0H147.479H147.979V4.72961H147.479Z" fill="var(--stroke-0, #94A3B8)"/>
</g>
</svg>
