<svg preserveAspectRatio="none" width="100%" height="100%" overflow="visible" style="display: block;" viewBox="0 0 31.4085 9.46834" fill="none" xmlns="http://www.w3.org/2000/svg">
<path id="Vector 5258" d="M0.263585 8.51629L0 8.94117L0.84976 9.46834L1.11334 9.04346L0.688465 8.77987L0.263585 8.51629ZM30.8854 9.27987C31.1615 9.28115 31.3864 9.05833 31.3877 8.78219L31.4085 4.28224C31.4098 4.0061 31.187 3.7812 30.9108 3.77992C30.6347 3.77865 30.4098 4.00146 30.4085 4.2776L30.39 8.27756L26.39 8.25903C26.1139 8.25775 25.889 8.48057 25.8877 8.75671C25.8865 9.03285 26.1093 9.25774 26.3854 9.25902L30.8854 9.27987ZM0.688465 8.77987L1.11334 9.04346C3.00291 5.99761 6.73676 2.36037 11.773 1.30307C16.7716 0.253685 23.1884 1.71933 30.5325 9.13178L30.8877 8.77987L31.2429 8.42796C23.7302 0.845334 16.9854 -0.813001 11.5676 0.3244C6.18746 1.45388 2.25009 5.31418 0.263585 8.51629L0.688465 8.77987Z" fill="var(--stroke-0, black)"/>
</svg>
