<svg preserveAspectRatio="none" width="100%" height="100%" overflow="visible" style="display: block;" viewBox="0 0 16.4 17.2" fill="none" xmlns="http://www.w3.org/2000/svg">
<g id="elements">
<path id="Vector" d="M9.03653 6.77774H9.78803C10.6181 6.77774 11.291 7.45428 11.291 8.28884M11.291 8.28884V9.04439M11.291 8.28884C11.291 7.87156 11.6275 7.53329 12.0425 7.53329C12.8726 7.53329 13.5455 8.20983 13.5455 9.04439M13.5455 9.04439V9.79994M13.5455 9.04439C13.5455 8.64888 13.8987 8.34803 14.2868 8.41305L14.5441 8.45617C15.2688 8.57761 15.8 9.20802 15.8 9.94671L15.7997 10.3038C15.7997 11.9458 15.7997 12.7669 15.5509 13.4205C15.4066 13.7997 15.0258 14.2833 14.7214 14.6327C14.4581 14.935 14.2967 15.3183 14.2967 15.7201V16.6M9.03638 8.28884V4.13332C9.03638 3.50741 8.53169 3 7.90913 3C7.28657 3 6.78189 3.50741 6.78189 4.13332L6.78173 10.1493L5.56408 8.92126C5.02982 8.38244 4.14978 8.43159 3.67779 9.02663C3.31664 9.48193 3.30666 10.126 3.65354 10.5924L6.35869 14.0666C6.87626 14.7313 7.15748 15.7558 7.15748 16.6" stroke="var(--stroke-0, white)" stroke-width="1.2" stroke-linecap="round" stroke-linejoin="round"/>
<path id="Vector_2" d="M4.6 4.4C4.93137 4.4 5.2 4.13137 5.2 3.8C5.2 3.46863 4.93137 3.2 4.6 3.2V3.8V4.4ZM1.26274 4.6L0.873212 5.05636H0.873212L1.26274 4.6ZM1.81047 5.85636C2.06251 6.07149 2.44123 6.04157 2.65636 5.78953C2.87149 5.53749 2.84157 5.15877 2.58953 4.94364L2.2 5.4L1.81047 5.85636ZM2.58953 2.65636C2.84157 2.44123 2.87149 2.06251 2.65636 1.81047C2.44123 1.55843 2.06251 1.52851 1.81047 1.74364L2.2 2.2L2.58953 2.65636ZM1.26274 3L0.873211 2.54364L0.873211 2.54364L1.26274 3ZM0.6 3.8V4.4H4.6V3.8V3.2H0.6V3.8ZM1.26274 4.6L0.873212 5.05636L1.81047 5.85636L2.2 5.4L2.58953 4.94364L1.65227 4.14364L1.26274 4.6ZM2.2 2.2L1.81047 1.74364L0.873211 2.54364L1.26274 3L1.65227 3.45636L2.58953 2.65636L2.2 2.2ZM1.26274 4.6L1.65227 4.14364C1.41791 3.9436 1.28997 3.83266 1.21302 3.74658C1.14371 3.66905 1.2 3.70191 1.2 3.8H0.6H0C0 4.1324 0.166744 4.37671 0.31835 4.54631C0.462319 4.70737 0.665745 4.87928 0.873212 5.05636L1.26274 4.6ZM1.26274 3L0.873211 2.54364C0.665744 2.72072 0.462319 2.89263 0.31835 3.05369C0.166743 3.2233 0 3.4676 0 3.8H0.6H1.2C1.2 3.89809 1.14371 3.93095 1.21302 3.85342C1.28997 3.76734 1.41791 3.6564 1.65227 3.45636L1.26274 3Z" fill="var(--stroke-0, white)"/>
<path id="Vector_3" d="M9.3504 6.6C10.3342 6.05411 11 5.00481 11 3.8C11 2.03269 9.56731 0.6 7.8 0.6C6.03269 0.6 4.6 2.03269 4.6 3.8C4.6 5.00481 5.26583 6.05411 6.2496 6.6" stroke="var(--stroke-0, white)" stroke-width="1.2" stroke-linecap="round"/>
</g>
</svg>
