<svg preserveAspectRatio="none" width="100%" height="100%" overflow="visible" style="display: block;" viewBox="0 0 14.3333 14.3333" fill="none" xmlns="http://www.w3.org/2000/svg">
<g id="elements">
<path id="Vector" d="M0.5 6.76667C0.5 5.99449 0.661155 5.83333 1.43333 5.83333H12.9C13.6722 5.83333 13.8333 5.99449 13.8333 6.76667V7.56667C13.8333 8.33884 13.6722 8.5 12.9 8.5H1.43333C0.661155 8.5 0.5 8.33884 0.5 7.56667V6.76667Z" stroke="var(--stroke-0, #007BFF)" stroke-linecap="round"/>
<path id="Vector_2" d="M0.5 1.43333C0.5 0.661156 0.661155 0.5 1.43333 0.5H12.9C13.6722 0.5 13.8333 0.661155 13.8333 1.43333V2.23333C13.8333 3.00551 13.6722 3.16667 12.9 3.16667H1.43333C0.661155 3.16667 0.5 3.00551 0.5 2.23333V1.43333Z" stroke="var(--stroke-0, #007BFF)" stroke-linecap="round"/>
<path id="Vector_3" d="M0.5 12.1C0.5 11.3278 0.661155 11.1667 1.43333 11.1667H12.9C13.6722 11.1667 13.8333 11.3278 13.8333 12.1V12.9C13.8333 13.6722 13.6722 13.8333 12.9 13.8333H1.43333C0.661155 13.8333 0.5 13.6722 0.5 12.9V12.1Z" stroke="var(--stroke-0, #007BFF)" stroke-linecap="round"/>
</g>
</svg>
