<svg preserveAspectRatio="xMidYMid meet" width="100%" height="100%" overflow="visible" style="display: block;" viewBox="0 0 17.3333 19.8336" fill="none" xmlns="http://www.w3.org/2000/svg">
<g id="elements">
<path id="Vector" d="M11.3056 0.750147L11.8039 1.68162C12.1408 2.31137 12.3092 2.62624 12.1978 2.76109C12.0864 2.89594 11.7196 2.78703 10.9859 2.56921C10.2524 2.35145 9.47365 2.23427 8.66667 2.23427C4.29441 2.23427 0.75 5.67386 0.75 9.91681C0.75 11.3161 1.13552 12.6281 1.80911 13.7581M6.02778 19.0835L5.52947 18.152C5.19257 17.5223 5.02412 17.2074 5.1355 17.0725C5.24689 16.9377 5.61374 17.0466 6.34741 17.2644C7.08091 17.4822 7.85969 17.5994 8.66667 17.5994C13.0389 17.5994 16.5833 14.1598 16.5833 9.91681C16.5833 8.51749 16.1978 7.20554 15.5242 6.07554" stroke="var(--stroke-0, #CBD5E1)" stroke-width="1.5" stroke-linecap="round" stroke-linejoin="round"/>
</g>
</svg>
