<svg preserveAspectRatio="xMidYMid meet" width="100%" height="100%" overflow="visible" style="display: block;" viewBox="0 0 16.4002 17.2" fill="none" xmlns="http://www.w3.org/2000/svg">
<g id="elements">
<path id="Vector" d="M14.2 9.4V6.49474C14.2 3.71593 14.2 2.32653 13.3799 1.46326C12.5598 0.600001 11.2399 0.600001 8.6 0.600001H6.2C3.56013 0.600001 2.2402 0.600001 1.4201 1.46326C0.6 2.32653 0.6 3.71593 0.6 6.49474V10.7053C0.6 13.4841 0.6 14.8735 1.4201 15.7367C2.2402 16.6 3.56013 16.6 6.2 16.6H7.4" stroke="var(--stroke-0, #007BFF)" stroke-width="1.2" stroke-linecap="round" stroke-linejoin="round"/>
<path id="Vector_2" d="M9.4 15C9.4 15 10.2 15 11 16.6C11 16.6 13.5412 12.6 15.8 11.8" stroke="var(--stroke-0, #007BFF)" stroke-width="1.2" stroke-linecap="round" stroke-linejoin="round"/>
<path id="Vector_3" d="M4.2 0.600001L4.26576 0.994558C4.42539 1.95235 4.50521 2.43125 4.8409 2.71562C5.1766 3 5.6621 3 6.63311 3H8.1669C9.1379 3 9.6234 3 9.9591 2.71562C10.2948 2.43125 10.3746 1.95235 10.5342 0.994558L10.6 0.600001" stroke="var(--stroke-0, #007BFF)" stroke-width="1.2" stroke-linejoin="round"/>
<path id="Vector_4" d="M4.2 11.8H7.4M4.2 7.8H10.6" stroke="var(--stroke-0, #007BFF)" stroke-width="1.2" stroke-linecap="round"/>
</g>
</svg>
