<svg preserveAspectRatio="none" width="100%" height="100%" overflow="visible" style="display: block;" viewBox="0 0 14.3333 14.3333" fill="none" xmlns="http://www.w3.org/2000/svg">
<g id="elements">
<path id="Vector" d="M0.5 8.5C0.5 5.98584 0.5 4.72876 1.28105 3.94772C2.0621 3.16667 3.31918 3.16667 5.83333 3.16667H8.5C11.0142 3.16667 12.2712 3.16667 13.0523 3.94772C13.8333 4.72876 13.8333 5.98584 13.8333 8.5C13.8333 11.0142 13.8333 12.2712 13.0523 13.0523C12.2712 13.8333 11.0142 13.8333 8.5 13.8333H5.83333C3.31918 13.8333 2.0621 13.8333 1.28105 13.0523C0.5 12.2712 0.5 11.0142 0.5 8.5Z" stroke="var(--stroke-0, #16BAB3)" stroke-linecap="round"/>
<path id="Vector_2" d="M5.16667 1.16667L7.16667 3.16667L9.83333 0.5" stroke="var(--stroke-0, #16BAB3)" stroke-linecap="round" stroke-linejoin="round"/>
</g>
</svg>
