<svg preserveAspectRatio="xMidYMid meet" width="100%" height="100%" overflow="visible" style="display: block;" viewBox="0 0 13.4737 12.0904" fill="none" xmlns="http://www.w3.org/2000/svg">
<g id="elements">
<path id="Vector" d="M10.0316 5.95506C10.0361 5.95504 10.0406 5.95503 10.0451 5.95503C11.54 5.95503 12.7519 7.16689 12.7519 8.6618C12.7519 10.1567 11.54 11.3686 10.0451 11.3686H3.72932C2.06832 11.3686 0.721805 10.0221 0.721805 8.36105C0.721805 6.79734 1.91518 5.51237 3.44086 5.36718M10.0316 5.95506C10.0406 5.856 10.0451 5.75567 10.0451 5.65428C10.0451 3.82717 8.56395 2.34601 6.73684 2.34601C5.00646 2.34601 3.58636 3.6745 3.44086 5.36718M10.0316 5.95506C9.97012 6.63744 9.70143 7.26006 9.28893 7.75954M3.44086 5.36718C3.53579 5.35815 3.63202 5.35353 3.72932 5.35353C4.40651 5.35353 5.03142 5.57734 5.53413 5.95503" stroke="var(--stroke-0, white)" stroke-width="1.44361" stroke-linecap="round" stroke-linejoin="round"/>
<path id="Vector_2" d="M1.29888 4.86854C0.853326 3.23129 1.84013 1.54839 3.50298 1.10969M1.29888 4.86854L0.721805 5.02079M1.29888 4.86854C1.40968 5.27568 1.59862 5.64166 1.84555 5.95502M3.50298 1.10969L3.34835 0.541489M3.50298 1.10969C4.73187 0.785475 5.98607 1.23153 6.73684 2.14727M1.60992 2.54027L1.00114 2.19338M6.21994 0.816529L5.86888 1.41664" stroke="var(--stroke-0, #141B34)" stroke-width="1.08271" stroke-linecap="round"/>
</g>
</svg>
