<svg preserveAspectRatio="xMidYMid meet" width="100%" height="100%" overflow="visible" style="display: block;" viewBox="0 0 17.9168 17.917" fill="none" xmlns="http://www.w3.org/2000/svg">
<g id="elements">
<path id="Vector" d="M9.37841 12.2918L8.54508 13.9585M13.1284 12.2918L12.2951 13.9585M10.2117 15.6252L9.37841 17.2918M5.62841 12.2918L4.79508 13.9585M6.46174 15.6252L5.62841 17.2918" stroke="var(--stroke-0, #FF6B35)" stroke-width="1.25" stroke-linecap="round" stroke-linejoin="round"/>
<path id="Vector_2" d="M13.5231 8.10488C13.5294 8.10485 13.5356 8.10484 13.5418 8.10484C15.6129 8.10484 17.2918 9.77695 17.2918 11.8396C17.2918 13.1414 16.6328 14.1173 15.6252 14.7918M13.0421 9.76473C13.3018 9.25878 13.4694 8.6982 13.5231 8.10488C13.5355 7.96819 13.5418 7.82976 13.5418 7.68987C13.5418 5.16885 11.4898 3.12516 8.95849 3.12516C6.56119 3.12516 4.59376 4.95819 4.39217 7.29373M4.39217 7.29373C2.27847 7.49406 0.625154 9.26705 0.625154 11.4246C0.625154 12.7823 1.27978 14.0162 2.29182 14.7918M4.39217 7.29373C4.5237 7.28127 4.65701 7.27489 4.79182 7.27489C5.73001 7.27489 6.59577 7.58371 7.29223 8.10484" stroke="var(--stroke-0, #FF6B35)" stroke-width="1.25" stroke-linecap="round" stroke-linejoin="round"/>
<path id="Vector_3" d="M1.42465 6.61993C0.807365 4.35165 2.1745 2.02013 4.47824 1.41235M1.42465 6.61993L0.625154 6.83086M1.42465 6.61993C1.57815 7.18399 1.83991 7.69102 2.18201 8.12516M4.47824 1.41235L4.26401 0.625157M4.47824 1.41235C6.18076 0.963179 7.91836 1.58115 8.95849 2.84983M1.85557 3.3943L1.01215 2.91372M8.24237 1.0062L7.75599 1.83761" stroke="var(--stroke-0, #FF6B35)" stroke-width="1.25" stroke-linecap="round"/>
</g>
</svg>
