<svg preserveAspectRatio="xMidYMid meet" width="100%" height="100%" overflow="visible" style="display: block;" viewBox="0 0 17.9167 17.9167" fill="none" xmlns="http://www.w3.org/2000/svg">
<g id="elements">
<path id="Vector" d="M9.79167 17.2505C9.51758 17.2777 9.23958 17.2917 8.95833 17.2917C4.35596 17.2917 0.625 13.5607 0.625 8.95833C0.625 4.35596 4.35596 0.625 8.95833 0.625C13.5607 0.625 17.2917 4.35596 17.2917 8.95833C17.2917 9.52911 17.2343 10.0865 17.125 10.625" stroke="var(--stroke-0, #007BFF)" stroke-width="1.25" stroke-linecap="round" stroke-linejoin="round"/>
<path id="Vector_2" d="M7.29167 9.79167H6.21426C5.83696 9.79167 5.47512 9.94155 5.20833 10.2083M10.625 9.79167H11.7024C12.0797 9.79167 12.4415 9.94155 12.7083 10.2083" stroke="var(--stroke-0, #007BFF)" stroke-width="1.25" stroke-linecap="round" stroke-linejoin="round"/>
<circle id="Ellipse 1771" cx="1.66667" cy="1.66667" r="1.66667" transform="matrix(1 0 0 -1 7.29167 7.29167)" stroke="var(--stroke-0, #007BFF)" stroke-width="1.25" stroke-linecap="round" stroke-linejoin="round"/>
<path id="Vector_3" d="M13.125 17.2917H15.5812C16.0979 17.2917 16.3562 17.2917 16.4251 17.1249C16.4939 16.9582 16.3181 16.7581 15.9665 16.3581L13.9455 14.0586C13.5939 13.6585 13.4181 13.4585 13.4869 13.2917C13.5557 13.125 13.8141 13.125 14.3308 13.125H16.4583" stroke="var(--stroke-0, #007BFF)" stroke-width="1.25" stroke-linecap="round" stroke-linejoin="round"/>
</g>
</svg>
