<svg preserveAspectRatio="xMidYMid meet" width="100%" height="100%" overflow="visible" style="display: block;" viewBox="0 0 11.6667 11.6667" fill="none" xmlns="http://www.w3.org/2000/svg">
<g id="elements">
<path id="Vector" d="M0.500002 2.5C0.500002 1.55719 0.500002 1.08579 0.792896 0.792896C1.08579 0.500002 1.55719 0.500002 2.5 0.500002C3.44281 0.500002 3.91422 0.500002 4.20711 0.792896C4.5 1.08579 4.5 1.55719 4.5 2.5V9.16667C4.5 10.1095 4.5 10.5809 4.20711 10.8738C3.91422 11.1667 3.44281 11.1667 2.5 11.1667C1.55719 11.1667 1.08579 11.1667 0.792896 10.8738C0.500002 10.5809 0.500002 10.1095 0.500002 9.16667V2.5Z" stroke="var(--stroke-0, #FF6B35)"/>
<path id="Vector_2" d="M7.16667 2.5C7.16667 1.55719 7.16667 1.08579 7.45956 0.792896C7.75246 0.500002 8.22386 0.500002 9.16667 0.500002C10.1095 0.500002 10.5809 0.500002 10.8738 0.792896C11.1667 1.08579 11.1667 1.55719 11.1667 2.5V9.16667C11.1667 10.1095 11.1667 10.5809 10.8738 10.8738C10.5809 11.1667 10.1095 11.1667 9.16667 11.1667C8.22386 11.1667 7.75246 11.1667 7.45956 10.8738C7.16667 10.5809 7.16667 10.1095 7.16667 9.16667V2.5Z" stroke="var(--stroke-0, #FF6B35)"/>
</g>
</svg>
