<svg preserveAspectRatio="xMidYMid meet" width="100%" height="100%" overflow="visible" style="display: block;" viewBox="0 0 14.3333 14.3333" fill="none" xmlns="http://www.w3.org/2000/svg">
<g id="elements">
<path id="Vector" d="M0.5 13.8333H7.83333C11.147 13.8333 13.8333 11.147 13.8333 7.83333C13.8333 4.51962 11.147 1.83333 7.83333 1.83333C4.74496 1.83333 2.16496 4.1667 1.83333 7.16667" stroke="var(--stroke-0, #FF6B35)" stroke-linecap="round"/>
<path id="Vector_2" d="M11.5 2.83333L12.1667 2.16667M2.83333 2.16667L3.5 2.83333" stroke="var(--stroke-0, #FF6B35)" stroke-linecap="round" stroke-linejoin="round"/>
<path id="Vector_3" d="M10.1668 5.16669L8.20719 7.12625M8.20719 7.12625C8.02623 6.94528 7.77623 6.83335 7.50009 6.83335C6.9478 6.83335 6.50009 7.28107 6.50009 7.83335C6.50009 8.38564 6.9478 8.83335 7.50009 8.83335C8.05237 8.83335 8.50009 8.38564 8.50009 7.83335C8.50009 7.55721 8.38816 7.30721 8.20719 7.12625Z" stroke="var(--stroke-0, #FF6B35)" stroke-linecap="round"/>
<path id="Vector_4" d="M7.5 1.5V0.5" stroke="var(--stroke-0, #FF6B35)" stroke-linecap="round" stroke-linejoin="round"/>
<path id="Vector_5" d="M6.16667 0.5H8.83333" stroke="var(--stroke-0, #FF6B35)" stroke-linecap="round" stroke-linejoin="round"/>
<path id="Vector_6" d="M0.5 9.16667H2.5" stroke="var(--stroke-0, #FF6B35)" stroke-linecap="round" stroke-linejoin="round"/>
<path id="Vector_7" d="M0.5 11.8333H3.83333" stroke="var(--stroke-0, #FF6B35)" stroke-linecap="round" stroke-linejoin="round"/>
</g>
</svg>
