<svg preserveAspectRatio="xMidYMid meet" width="100%" height="100%" overflow="visible" style="display: block;" viewBox="0 0 14.3333 13" fill="none" xmlns="http://www.w3.org/2000/svg">
<g id="elements">
<path id="Vector" d="M7.16667 2.5L7.16667 11.8333" stroke="var(--stroke-0, #16A34A)" stroke-linecap="round"/>
<path id="Vector_2" d="M3.15371 0.690289C5.38117 1.1144 6.70874 2.00154 7.16667 2.51085C7.62459 2.00154 8.95217 1.1144 11.1796 0.69029C12.3081 0.475435 12.8723 0.368008 13.3528 0.779762C13.8333 1.19152 13.8333 1.86015 13.8333 3.19741L13.8333 8.00331C13.8333 9.22604 13.8333 9.83741 13.5249 10.2191C13.2165 10.6008 12.5376 10.7301 11.1796 10.9886C9.96912 11.2191 9.02437 11.5864 8.34055 11.9554C7.66775 12.3185 7.33133 12.5 7.16667 12.5C7.002 12.5 6.66559 12.3185 5.99279 11.9554C5.30896 11.5864 4.36422 11.2191 3.15371 10.9886C1.79577 10.7301 1.1168 10.6008 0.808401 10.2191C0.500002 9.83741 0.500002 9.22604 0.500002 8.00331L0.500002 3.19741C0.500002 1.86015 0.500002 1.19152 0.980525 0.779761C1.46105 0.368007 2.02527 0.475435 3.15371 0.690289Z" stroke="var(--stroke-0, #16A34A)" stroke-linecap="round" stroke-linejoin="round"/>
</g>
</svg>
