<svg preserveAspectRatio="xMidYMid meet" width="100%" height="100%" overflow="visible" style="display: block;" viewBox="0 0 14.3335 12.3333" fill="none" xmlns="http://www.w3.org/2000/svg">
<g id="elements">
<path id="Vector" d="M0.500136 11.8333L0.500136 0.500001" stroke="var(--stroke-0, #007BFF)" stroke-linecap="round" stroke-linejoin="round"/>
<path id="Vector_2" d="M13.8335 8.5L13.8335 0.5" stroke="var(--stroke-0, #007BFF)" stroke-linecap="round" stroke-linejoin="round"/>
<path id="Vector_3" d="M0.500136 8.5L3.1668 7.16667L13.8335 7.16667" stroke="var(--stroke-0, #007BFF)" stroke-linecap="round" stroke-linejoin="round"/>
<path id="Vector_4" d="M0.500136 3.83333L3.1668 3.83333M13.8335 3.83333L11.8335 3.83333" stroke="var(--stroke-0, #007BFF)" stroke-linecap="round" stroke-linejoin="round"/>
<path id="Vector_5" d="M3.1668 7.16667L3.1668 3.16667C3.1668 2.06356 3.39702 1.83333 4.50014 1.83333L10.5001 1.83333C11.6032 1.83333 11.8335 2.06356 11.8335 3.16667V7.16667" stroke="var(--stroke-0, #007BFF)" stroke-linecap="round" stroke-linejoin="round"/>
<path id="Vector_6" d="M3.70922 7.16667C3.7627 7.44937 3.84693 7.74501 3.83058 8.03525C3.80641 8.46427 3.59145 8.85584 3.25107 9.09088C3.11666 9.1837 2.82013 9.27841 2.50859 9.35938C2.054 9.47753 1.82671 9.53661 1.56108 9.47571C1.37241 9.43245 1.20852 9.33209 0.974234 9.15281C0.94842 9.13306 0.935513 9.12318 0.915393 9.10649C0.756335 8.97458 0.615309 8.78384 0.535815 8.59311C0.525759 8.56898 0.517218 8.54599 0.500136 8.5" stroke="var(--stroke-0, #007BFF)" stroke-linecap="round" stroke-linejoin="round"/>
</g>
</svg>
