<svg preserveAspectRatio="xMidYMid meet" width="100%" height="100%" overflow="visible" style="display: block;" viewBox="0 0 13.4737 10.4662" fill="none" xmlns="http://www.w3.org/2000/svg">
<g id="elements">
<path id="Vector" d="M10.0316 4.33086C10.0361 4.33084 10.0406 4.33083 10.0451 4.33083C11.54 4.33083 12.7519 5.54269 12.7519 7.03759C12.7519 8.5325 11.54 9.74436 10.0451 9.74436H3.72932C2.06832 9.74436 0.721805 8.39785 0.721805 6.73684C0.721805 5.17314 1.91518 3.88816 3.44086 3.74298M10.0316 4.33086C10.0406 4.23179 10.0451 4.13147 10.0451 4.03008C10.0451 2.20297 8.56395 0.721805 6.73684 0.721805C5.00646 0.721805 3.58636 2.0503 3.44086 3.74298M10.0316 4.33086C9.97012 5.01323 9.70143 5.63586 9.28893 6.13534M3.44086 3.74298C3.53579 3.73394 3.63202 3.72932 3.72932 3.72932C4.40651 3.72932 5.03142 3.95314 5.53413 4.33083" stroke="var(--stroke-0, white)" stroke-width="1.44361" stroke-linecap="round" stroke-linejoin="round"/>
</g>
</svg>
